
<svg width="80" height="81" viewBox="0 0 80 81" fill="none" xmlns="http://www.w3.org/2000/svg">
    <path d="M73.7656 39.9716L69.6628 37.9202L70.9303 36.0189C71.5483 35.0918 71.875 34.0129 71.875 32.8987V26.8681C73.4013 25.746 74.375 23.9406 74.375 21.9126C74.375 21.5674 74.0952 21.2876 73.75 21.2876H66.25C63.1483 21.2876 60.625 23.8109 60.625 26.9126V32.8987C60.625 34.0129 60.9517 35.0918 61.5697 36.0189L62.8372 37.9202L58.7344 39.9716C57.6281 40.5248 56.7656 41.4013 56.232 42.4548L54.6484 41.663C56.1073 39.2454 56.875 36.492 56.875 33.6557V33.1626C56.875 30.7502 54.9124 28.7876 52.5 28.7876C50.0876 28.7876 48.125 30.7502 48.125 33.1626V33.6557C48.125 36.492 48.8927 39.2454 50.3516 41.663L46.875 43.4013L43.5184 41.723C44.8827 40.0828 45.625 38.0371 45.625 35.8771V34.4126C45.625 31.3109 43.1017 28.7876 40 28.7876C36.8983 28.7876 34.375 31.3109 34.375 34.4126V35.8771C34.375 38.0371 35.1173 40.0828 36.4816 41.723L33.75 43.0888L30.8984 41.663C32.3573 39.2454 33.125 36.492 33.125 33.6557V33.1626C33.125 30.7502 31.1624 28.7876 28.75 28.7876C26.3376 28.7876 24.375 30.7502 24.375 33.1626V33.6557C24.375 36.492 25.1427 39.2454 26.6016 41.663L23.4902 43.2187C23.1075 42.621 22.6105 42.0965 22.0179 41.6756L23.3939 38.2358C24.0567 36.5788 23.8614 34.703 22.8714 33.2178C22.2537 32.2915 22.0338 31.1801 22.2523 30.0882L22.6039 28.3292C22.9637 26.531 22.4043 24.6831 21.1073 23.3861C19.7742 22.0528 18.1026 21.1065 16.2736 20.6493C14.6225 20.2365 12.8773 20.2364 11.2265 20.6492C9.39728 21.1065 7.72583 22.0529 6.39267 23.3861C5.09567 24.6831 4.53628 26.531 4.89609 28.3291L5.2478 30.0883C5.46616 31.1801 5.24628 32.2915 4.6286 33.2179C3.63861 34.703 3.4433 36.5788 4.10614 38.2358L5.48206 41.6756C4.01081 42.7205 3.125 44.4054 3.125 46.2527V63.1626C3.125 64.7526 4.31957 66.0664 5.85796 66.2603L4.37019 78.1626H23.1298L21.642 66.2603C23.1804 66.0664 24.375 64.7526 24.375 63.1626V60.0376H29.375V60.6626C29.375 62.3857 30.7768 63.7876 32.5 63.7876H33.125V78.1626H34.375V62.5376H45.625V78.1626H46.875V63.7876H47.5C49.2232 63.7876 50.625 62.3857 50.625 60.6626V60.0376H55.625V61.9126C55.625 63.6357 57.0268 65.0376 58.75 65.0376H59.375V78.1626H60.625V62.5376H71.875V78.1626H73.125V65.0376H73.75C75.4732 65.0376 76.875 63.6357 76.875 61.9126V45.0027C76.875 42.8584 75.6836 40.9306 73.7656 39.9716ZM9.375 28.613L15.9334 26.4269L18.125 30.8101V31.1557C18.125 33.9802 17.2968 36.7156 15.73 39.0659C15.6988 39.1126 15.677 39.1636 15.6596 39.2158L15.657 39.215C15.3192 40.2284 14.4505 40.5895 13.75 40.5895C13.0495 40.5895 12.1808 40.2284 11.843 39.215L11.8404 39.2158C11.823 39.1636 11.8012 39.1126 11.77 39.0659C10.2032 36.7156 9.375 33.9802 9.375 31.1557L9.375 28.613ZM6.875 58.1237L6.01288 65.0209C5.09075 64.9038 4.375 64.116 4.375 63.1626V55.0376H6.875V58.1237ZM23.125 63.1626C23.125 64.116 22.4092 64.9038 21.4871 65.0209L20.625 58.1237V55.0376H23.125V63.1626ZM23.125 53.7876H20.625V53.264L20.959 52.2619C21.5817 50.3936 21.4397 48.3946 20.5591 46.6331L19.4409 47.1921C20.1724 48.6549 20.2904 50.3151 19.7731 51.8667L19.407 52.965C19.3858 53.0287 19.375 53.0955 19.375 53.1626V57.5376H8.125V53.1626C8.125 53.0955 8.11416 53.0287 8.09296 52.965L7.7269 51.8666C7.20962 50.3151 7.32757 48.6549 8.05908 47.1921L6.94092 46.6331C6.06033 48.3946 5.91827 50.3936 6.54098 52.2619L6.875 53.264V53.7876H4.375V46.2527C4.375 44.5849 5.30166 43.0855 6.79352 42.3396L10.9541 40.2593C11.5311 41.2368 12.5665 41.8395 13.75 41.8395C14.9335 41.8395 15.9689 41.2368 16.5459 40.2593L20.7065 42.3396C22.1983 43.0855 23.125 44.5849 23.125 46.2527L23.125 53.7876ZM29.375 48.7527V58.7876H24.375V46.2527C24.375 45.5865 24.2596 44.9414 24.0436 44.3396L27.7795 42.4716C27.9399 42.3914 28.058 42.2463 28.1041 42.073C28.15 41.8998 28.1195 41.7151 28.02 41.5659C26.4532 39.2156 25.625 36.4802 25.625 33.6557V33.1626C25.625 31.4395 27.0268 30.0376 28.75 30.0376C30.4732 30.0376 31.875 31.4395 31.875 33.1626V33.6557C31.875 36.4802 31.0467 39.2156 29.48 41.5659C29.3805 41.7151 29.35 41.8998 29.3959 42.073C29.442 42.2463 29.5601 42.3914 29.7205 42.4716L32.358 43.7904C30.5154 44.7701 29.375 46.6567 29.375 48.7527ZM33.125 62.5376H32.5C31.4661 62.5376 30.625 61.6965 30.625 60.6626V48.7527C30.625 48.5357 30.6415 48.3218 30.672 48.1118L31.1768 48.4483C32.3967 49.2616 33.125 50.6224 33.125 52.0885V62.5376ZM37.9419 41.4706C36.4479 39.9766 35.625 37.9901 35.625 35.8771V35.0376H44.375V35.8771C44.375 37.9901 43.5521 39.9766 42.0581 41.4706C40.9232 42.6054 39.0768 42.6054 37.9419 41.4706ZM49.375 60.6626C49.375 61.6965 48.5339 62.5376 47.5 62.5376H46.875V52.0885C46.875 50.6224 47.6033 49.2616 48.8232 48.4483L49.328 48.1118C49.3585 48.3218 49.375 48.5357 49.375 48.7527V60.6626ZM55.625 45.0027V58.7876H50.625V48.7527C50.625 46.8803 49.7163 45.1733 48.2089 44.1319L51.5295 42.4716C51.6899 42.3914 51.808 42.2463 51.8541 42.073C51.9 41.8998 51.8695 41.7151 51.77 41.5659C50.2032 39.2156 49.375 36.4802 49.375 33.6557V33.1626C49.375 31.4395 50.7768 30.0376 52.5 30.0376C54.2232 30.0376 55.625 31.4395 55.625 33.1626V33.6557C55.625 36.4802 54.7968 39.2156 53.23 41.5659C53.1305 41.7151 53.1 41.8998 53.1459 42.073C53.192 42.2463 53.3101 42.3914 53.4705 42.4716L55.7948 43.6338C55.6853 44.0748 55.625 44.533 55.625 45.0027ZM59.375 63.7876H58.75C57.7161 63.7876 56.875 62.9465 56.875 61.9126V53.7876H59.375V63.7876ZM64.2286 37.7538L62.6097 35.3255C62.1291 34.6045 61.875 33.7653 61.875 32.8987V28.7282L68.8371 28.032C69.4687 27.9688 70.0684 27.8116 70.625 27.5774V32.8987C70.625 33.7653 70.3709 34.6045 69.8903 35.3255L68.2714 37.7538C67.1457 38.8419 65.3543 38.8419 64.2286 37.7538ZM75.625 61.9126C75.625 62.9465 74.7839 63.7876 73.75 63.7876H73.125V53.7876H75.625V61.9126Z" fill="#E12C2C"/>
    <path d="M66.875 66.9126H65.625V78.1626H66.875V66.9126Z" fill="#E12C2C"/>
    <path d="M40.625 66.9126H39.375V78.1626H40.625V66.9126Z" fill="#E12C2C"/>
    <path d="M29.375 65.6626H28.125V78.1626H29.375V65.6626Z" fill="#E12C2C"/>
    <path d="M53.125 65.6626H51.875V78.1626H53.125V65.6626Z" fill="#E12C2C"/>
    <path fill-rule="evenodd" clip-rule="evenodd" d="M47.5 4.29904C47.38 4.18644 47.2577 4.07631 47.1332 3.96873C45.0521 2.17139 42.3405 1.08435 39.375 1.08435C32.8166 1.08435 27.5 6.40097 27.5 12.9594C27.5 19.5177 32.8166 24.8344 39.375 24.8344C45.9334 24.8344 51.25 19.5177 51.25 12.9594C51.25 10.2674 50.3543 7.78461 48.8446 5.79286C48.5916 5.45913 48.3214 5.13918 48.0353 4.83435C47.8626 4.65031 47.684 4.47177 47.5 4.29904ZM45.3595 5.74241C43.7345 4.39278 41.6506 3.58435 39.375 3.58435C34.1973 3.58435 30 7.78168 30 12.9594C30 15.2344 30.8104 17.3201 32.1582 18.9437L45.3595 5.74241ZM33.9976 20.6398L47.0557 7.58176C48.1245 9.10456 48.75 10.9571 48.75 12.9594C48.75 18.137 44.5527 22.3344 39.375 22.3344C37.3743 22.3344 35.52 21.7076 33.9976 20.6398Z" fill="#E12C2C"/>
</svg>
