<svg width="235" height="81" viewBox="0 0 235 81" fill="none" xmlns="http://www.w3.org/2000/svg">
<g clip-path="url(#clip0_88_1533)">
<path d="M28.75 21.9126H11.25C9.86929 21.9126 8.75 23.0319 8.75 24.4126V56.9126C8.75 58.2933 9.86929 59.4126 11.25 59.4126H28.75C30.1307 59.4126 31.25 58.2933 31.25 56.9126V24.4126C31.25 23.0319 30.1307 21.9126 28.75 21.9126Z" stroke="#E12C2C" stroke-width="1.5" stroke-linecap="round" stroke-linejoin="round"/>
<path d="M18.75 54.4126H21.25" stroke="#E12C2C" stroke-width="1.5" stroke-linecap="round" stroke-linejoin="round"/>
<path d="M25 21.9126V24.4126C25 25.0756 24.7366 25.7115 24.2678 26.1804C23.7989 26.6492 23.163 26.9126 22.5 26.9126H17.5C16.837 26.9126 16.2011 26.6492 15.7322 26.1804C15.2634 25.7115 15 25.0756 15 24.4126V21.9126" stroke="#E12C2C" stroke-width="1.5" stroke-linecap="round" stroke-linejoin="round"/>
</g>
<path opacity="0.4" d="M60.4419 41.1045C60.686 40.8605 60.686 40.4647 60.4419 40.2207L56.4645 36.2432C56.2204 35.9991 55.8247 35.9991 55.5806 36.2432C55.3365 36.4873 55.3365 36.883 55.5806 37.1271L59.1161 40.6626L55.5806 44.1981C55.3365 44.4422 55.3365 44.8379 55.5806 45.082C55.8247 45.3261 56.2204 45.3261 56.4645 45.082L60.4419 41.1045ZM45 41.2876H60V40.0376H45V41.2876Z" fill="#E12C2C"/>
<g clip-path="url(#clip1_88_1533)">
<path fill-rule="evenodd" clip-rule="evenodd" d="M76.3668 35.6555C76.2653 36.0983 76.1204 36.5361 75.9223 36.9573C74.8769 39.1914 74.9668 40.5947 74.9668 42.3327C74.9668 46.984 78.188 50.9244 82.5063 52.0431V55.6506H80.4221C79.0437 55.6506 77.925 56.7693 77.925 58.1477C77.925 59.4611 78.9405 60.5382 80.2273 60.6364C80.2906 60.6514 89.5082 60.6448 89.6397 60.6448C91.0181 60.6431 92.1368 59.5244 92.1368 58.1477C92.1368 56.7693 91.0181 55.6506 89.6397 55.6506H87.4972V52.0448C91.8039 50.9344 94.9885 47.0223 94.9885 42.371C94.9885 40.2685 94.8553 39.3628 94.1162 37.0589C92.7894 32.937 94.0513 29.5809 94.7854 28.7335C95.0851 28.3873 95.0484 27.8612 94.7005 27.5599C94.5557 27.4334 94.3775 27.3668 94.1994 27.3568C94.1861 27.3535 94.1711 27.3518 94.1561 27.3518H89.3784H87.6604H83.2871H81.6091H80.7634H79.0637H75.8358C75.6443 27.3551 75.4545 27.4217 75.2997 27.5549C74.9518 27.8562 74.9135 28.3823 75.2148 28.7302C75.4945 29.0532 75.8741 29.8955 76.1671 30.9776C76.2103 31.1407 76.252 31.3072 76.2902 31.4803L76.5366 33.1268C76.5566 33.4014 76.5666 33.6828 76.5633 33.9641L76.3668 35.6555ZM80.3322 57.3203C80.3439 57.3203 89.6847 57.3203 89.7063 57.3186C90.1341 57.3519 90.4721 57.7115 90.4721 58.1477C90.4721 58.6071 90.0992 58.98 89.6397 58.98L80.3788 58.9784C79.9393 58.9567 79.5897 58.5922 79.5897 58.1477C79.5897 57.7182 79.916 57.3652 80.3322 57.3203ZM84.1711 55.6506V52.3244C84.4441 52.3477 84.7204 52.3594 85.0001 52.3594C85.2798 52.3594 85.5578 52.3477 85.8325 52.3244V55.6506H84.1711ZM77.2491 29.0165H87.2425H88.9588H92.7411C91.9837 30.8111 91.3627 33.9358 92.5314 37.5683C93.2006 39.6508 93.3238 40.4699 93.3238 42.371C93.3238 46.9657 89.5948 50.6947 85.0001 50.6947C80.4038 50.6947 76.6315 46.9291 76.6315 42.3327C76.6315 40.8245 76.5233 39.6009 77.4306 37.6632C78.5293 35.3142 78.3229 32.5774 77.7735 30.5448C77.6187 29.9721 77.4356 29.456 77.2491 29.0165Z" fill="#E12C2C"/>
</g>
<path opacity="0.4" d="M125.442 41.1045C125.686 40.8605 125.686 40.4647 125.442 40.2207L121.464 36.2432C121.22 35.9991 120.825 35.9991 120.581 36.2432C120.337 36.4873 120.337 36.883 120.581 37.1271L124.116 40.6626L120.581 44.1981C120.337 44.4422 120.337 44.8379 120.581 45.082C120.825 45.3261 121.22 45.3261 121.464 45.082L125.442 41.1045ZM110 41.2876H125V40.0376H110V41.2876Z" fill="#E12C2C"/>
<g clip-path="url(#clip2_88_1533)">
<path fill-rule="evenodd" clip-rule="evenodd" d="M140.922 36.9573C141.12 36.5361 141.265 36.0983 141.367 35.6555L141.563 33.9641C141.567 33.6828 141.557 33.4014 141.537 33.1268L141.29 31.4803C141.252 31.3072 141.21 31.1407 141.167 30.9776C140.874 29.8955 140.494 29.0532 140.215 28.7302C139.914 28.3823 139.952 27.8562 140.3 27.5549C140.455 27.4217 140.644 27.3551 140.836 27.3518H144.064H145.763H146.609H148.287H152.66H154.378H159.156C159.171 27.3518 159.186 27.3535 159.199 27.3568C159.378 27.3668 159.556 27.4334 159.701 27.5599C160.048 27.8612 160.085 28.3873 159.785 28.7335C159.051 29.5809 157.789 32.937 159.116 37.0589C159.855 39.3628 159.989 40.2685 159.989 42.371C159.989 47.0223 156.804 50.9344 152.497 52.0448V55.6506H154.64C156.018 55.6506 157.137 56.7693 157.137 58.1477C157.137 59.5244 156.018 60.6431 154.64 60.6448C154.631 60.6448 154.58 60.6448 154.493 60.6449C153.301 60.6456 145.286 60.6504 145.227 60.6364C143.94 60.5382 142.925 59.4611 142.925 58.1477C142.925 56.7693 144.044 55.6506 145.422 55.6506H147.506V52.0431C143.188 50.9244 139.967 46.984 139.967 42.3327C139.967 42.2038 139.966 42.0768 139.966 41.9511C139.96 40.382 139.954 39.0257 140.922 36.9573ZM154.706 57.3186C154.685 57.3203 145.344 57.3203 145.332 57.3203C144.916 57.3652 144.59 57.7182 144.59 58.1477C144.59 58.5922 144.939 58.9567 145.379 58.9784L154.64 58.98C155.099 58.98 155.472 58.6071 155.472 58.1477C155.472 57.7115 155.134 57.3519 154.706 57.3186ZM149.171 52.3244V55.6506H150.832V52.3244C150.558 52.3477 150.28 52.3594 150 52.3594C149.72 52.3594 149.444 52.3477 149.171 52.3244ZM152.243 29.0165H142.249C142.436 29.456 142.619 29.9721 142.774 30.5448C143.323 32.5774 143.529 35.3142 142.431 37.6632C141.612 39.412 141.62 40.5791 141.629 41.8988C141.63 42.0414 141.632 42.1857 141.632 42.3327C141.632 46.9291 145.404 50.6947 150 50.6947C154.595 50.6947 158.324 46.9657 158.324 42.371C158.324 40.4699 158.201 39.6508 157.531 37.5683C156.363 33.9358 156.984 30.8111 157.741 29.0165H153.959H152.243ZM155.847 37.4018C154.901 37.3785 153.706 37.3568 151.863 37.3502L150.138 37.3851C147.558 37.6332 143.864 39.0798 143.864 39.0798C143.546 39.2047 143.338 39.511 143.338 39.8539V43.1668C143.338 46.3447 146.29 48.9917 149.999 48.9917C153.653 48.9917 156.571 46.423 156.657 43.3099L156.659 38.2358C156.659 37.7847 156.3 37.4134 155.847 37.4018ZM145.003 43.1668C145.003 45.5007 147.273 47.3269 149.999 47.3269C152.684 47.3269 154.929 45.554 154.993 43.2683L154.994 39.0482C153.996 39.0282 152.707 39.0133 150.833 39.0133C149.02 39.0133 146.171 39.9938 145.003 40.4266V43.1668Z" fill="#E12C2C"/>
</g>
<path opacity="0.4" d="M190.442 41.1045C190.686 40.8605 190.686 40.4647 190.442 40.2207L186.464 36.2432C186.22 35.9991 185.825 35.9991 185.581 36.2432C185.337 36.4873 185.337 36.883 185.581 37.1271L189.116 40.6626L185.581 44.1981C185.337 44.4422 185.337 44.8379 185.581 45.082C185.825 45.3261 186.22 45.3261 186.464 45.082L190.442 41.1045ZM175 41.2876H190V40.0376H175V41.2876Z" fill="#E12C2C"/>
<g clip-path="url(#clip3_88_1533)">
<path fill-rule="evenodd" clip-rule="evenodd" d="M213.287 27.3518C212.872 23.6078 209.689 20.6912 205.837 20.6912C201.707 20.6912 198.353 24.0473 198.353 28.1825C198.353 32.3177 201.707 35.6738 205.837 35.6738C206.015 35.6738 206.192 35.6671 206.367 35.6555C206.265 36.0983 206.12 36.5361 205.922 36.9573C204.877 39.1914 204.967 40.5947 204.967 42.3327C204.967 46.984 208.188 50.9244 212.506 52.0431V55.6506H210.422C209.043 55.6506 207.925 56.7693 207.925 58.1477C207.925 59.4611 208.94 60.5382 210.227 60.6364C210.29 60.6514 219.508 60.6448 219.639 60.6448C221.018 60.6431 222.137 59.5244 222.137 58.1477C222.137 56.7693 221.018 55.6506 219.639 55.6506H217.497V52.0448C221.804 50.9344 224.988 47.0223 224.988 42.371C224.988 40.2685 224.855 39.3628 224.116 37.0589C222.789 32.937 224.051 29.5809 224.785 28.7335C225.085 28.3873 225.048 27.8612 224.7 27.5599C224.555 27.4334 224.377 27.3668 224.199 27.3568C224.186 27.3535 224.171 27.3518 224.156 27.3518H219.378L220.487 22.9403C220.58 22.569 220.915 22.3093 221.298 22.311L230.811 22.3559C231.271 22.3576 231.646 21.9864 231.647 21.5269C231.649 21.0674 231.278 20.6929 230.818 20.6912C230.818 20.6912 224.183 20.6596 221.306 20.6463C220.157 20.6413 219.153 21.4204 218.872 22.5341L217.66 27.3518H213.287ZM219.706 57.3186C219.684 57.3203 210.344 57.3203 210.332 57.3203C209.916 57.3652 209.589 57.7182 209.589 58.1477C209.589 58.5922 209.939 58.9567 210.379 58.9784L219.639 58.98C220.099 58.98 220.472 58.6071 220.472 58.1477C220.472 57.7115 220.134 57.3519 219.706 57.3186ZM214.171 52.3244V55.6506H215.832V52.3244C215.558 52.3477 215.28 52.3594 215 52.3594C214.72 52.3594 214.444 52.3477 214.171 52.3244ZM218.959 29.0165L216.863 37.3502C218.706 37.3568 219.901 37.3785 220.846 37.4018C221.299 37.4134 221.659 37.7847 221.659 38.2358L221.657 43.3099C221.571 46.423 218.652 48.9916 214.998 48.9916C211.289 48.9916 208.338 46.3447 208.338 43.1667V39.8539C208.338 39.511 208.546 39.2047 208.864 39.0798C208.864 39.0798 212.558 37.6332 215.138 37.3851L217.242 29.0165H207.249C207.435 29.456 207.618 29.9721 207.773 30.5448C208.323 32.5774 208.529 35.3142 207.43 37.6631C206.523 39.6009 206.631 40.8245 206.631 42.3327C206.631 46.929 210.404 50.6947 215 50.6947C219.595 50.6947 223.324 46.9657 223.324 42.371C223.324 40.4699 223.2 39.6508 222.531 37.5683C221.362 33.9358 221.983 30.8111 222.741 29.0165H218.959ZM210.002 43.1667C210.002 45.5007 212.273 47.3269 214.998 47.3269C217.683 47.3269 219.929 45.554 219.992 43.2683L219.994 39.0482C218.995 39.0282 217.707 39.0132 215.832 39.0132C214.019 39.0132 211.171 39.9938 210.002 40.4266V43.1667ZM211.609 27.3518C211.206 24.5284 208.77 22.3559 205.837 22.3559C202.626 22.3559 200.017 24.9662 200.017 28.1825C200.017 31.3988 202.626 34.0091 205.837 34.0091C206.084 34.0091 206.325 33.9941 206.563 33.9641C206.566 33.6828 206.556 33.4014 206.536 33.1268C206.308 33.1584 206.075 33.175 205.839 33.175C203.085 33.175 200.85 30.9376 200.85 28.1792C200.85 25.4224 203.085 23.185 205.839 23.185C208.309 23.185 210.369 24.9879 210.763 27.3518H211.609ZM209.063 27.3518C208.696 25.9135 207.389 24.8497 205.839 24.8497C204.004 24.8497 202.514 26.3413 202.514 28.1792C202.514 30.017 204.004 31.5103 205.839 31.5103C205.992 31.5103 206.142 31.5003 206.29 31.4803C206.252 31.3072 206.21 31.1407 206.167 30.9776C205.874 29.8955 205.494 29.0532 205.215 28.7302C204.913 28.3823 204.952 27.8562 205.299 27.5549C205.454 27.4217 205.644 27.3551 205.836 27.3518H209.063Z" fill="#E12C2C"/>
</g>
<defs>
<clipPath id="clip0_88_1533">
<rect width="40" height="40" fill="white" transform="translate(0 20.6626)"/>
</clipPath>
<clipPath id="clip1_88_1533">
<rect width="40" height="40" fill="white" transform="translate(65 20.6626)"/>
</clipPath>
<clipPath id="clip2_88_1533">
<rect width="40" height="40" fill="white" transform="translate(130 20.6626)"/>
</clipPath>
<clipPath id="clip3_88_1533">
<rect width="40" height="40" fill="white" transform="translate(195 20.6626)"/>
</clipPath>
</defs>
</svg>
