
<svg width="80" height="80" viewBox="0 0 80 80" fill="none" xmlns="http://www.w3.org/2000/svg">
    <g clip-path="url(#clip0_275_6)">
        <path fill-rule="evenodd" clip-rule="evenodd" d="M67.6339 55.4C66.0802 58.3028 63.8339 60.7771 61.0943 62.6033L40.001 76.6666L18.9076 62.6033C16.1686 60.7774 13.9225 58.3036 12.3688 55.4015C10.8151 52.4993 10.0018 49.2585 10.001 45.9666V12.6733C10.0011 11.915 10.2598 11.1795 10.7343 10.588C11.2088 9.99653 11.8708 9.58453 12.611 9.41998L40.001 3.33331L67.391 9.41998C68.1312 9.58453 68.7932 9.99653 69.2677 10.588C69.7422 11.1795 70.0008 11.915 70.001 12.6733V45.9633C70.0007 49.2558 69.1877 52.4972 67.6339 55.4ZM59.4301 60.1072L40.001 73.061L20.5718 60.1072C18.2436 58.5552 16.3343 56.4524 15.0136 53.9855C13.6931 51.5189 13.0018 48.7645 13.001 45.9666V12.6738C13.0011 12.5982 13.027 12.5243 13.0743 12.4653C13.1217 12.4062 13.1878 12.365 13.2618 12.3485L40.001 6.40649L66.74 12.3485C66.8139 12.365 66.8802 12.4062 66.9276 12.4653C66.975 12.5243 67.0008 12.5982 67.001 12.6738V45.9633C67.0007 48.7618 66.3096 51.517 64.989 53.9843C63.6683 56.4517 61.7587 58.5549 59.4301 60.1072Z" fill="#E12C2C"/>
        <path d="M42.0005 36.3374H38.0005C37.4701 36.3374 36.9613 36.1267 36.5863 35.7516C36.2112 35.3765 36.0005 34.8678 36.0005 34.3374C36.0005 33.807 36.2112 33.2982 36.5863 32.9232C36.9613 32.5481 37.4701 32.3374 38.0005 32.3374H46.0005C46.5309 32.3374 47.0396 32.1267 47.4147 31.7516C47.7898 31.3765 48.0005 30.8678 48.0005 30.3374C48.0005 29.807 47.7898 29.2982 47.4147 28.9232C47.0396 28.5481 46.5309 28.3374 46.0005 28.3374H42.0005V26.3374C42.0005 25.807 41.7898 25.2982 41.4147 24.9232C41.0396 24.5481 40.5309 24.3374 40.0005 24.3374C39.4701 24.3374 38.9613 24.5481 38.5863 24.9232C38.2112 25.2982 38.0005 25.807 38.0005 26.3374V28.3374C36.4092 28.3374 34.8831 28.9695 33.7578 30.0947C32.6326 31.22 32.0005 32.7461 32.0005 34.3374C32.0005 35.9287 32.6326 37.4548 33.7578 38.58C34.8831 39.7052 36.4092 40.3374 38.0005 40.3374H42.0005C42.5309 40.3374 43.0396 40.5481 43.4147 40.9232C43.7898 41.2982 44.0005 41.807 44.0005 42.3374C44.0005 42.8678 43.7898 43.3765 43.4147 43.7516C43.0396 44.1267 42.5309 44.3374 42.0005 44.3374H34.0005C33.4701 44.3374 32.9613 44.5481 32.5863 44.9232C32.2112 45.2982 32.0005 45.807 32.0005 46.3374C32.0005 46.8678 32.2112 47.3765 32.5863 47.7516C32.9613 48.1267 33.4701 48.3374 34.0005 48.3374H38.0005V50.3374C38.0005 50.8678 38.2112 51.3765 38.5863 51.7516C38.9613 52.1267 39.4701 52.3374 40.0005 52.3374C40.5309 52.3374 41.0396 52.1267 41.4147 51.7516C41.7898 51.3765 42.0005 50.8678 42.0005 50.3374V48.3374C43.5918 48.3374 45.1179 47.7052 46.2431 46.58C47.3683 45.4548 48.0005 43.9287 48.0005 42.3374C48.0005 40.7461 47.3683 39.22 46.2431 38.0947C45.1179 36.9695 43.5918 36.3374 42.0005 36.3374Z" fill="#E12C2C"/>
    </g>
    <defs>
        <clipPath id="clip0_275_6">
            <rect width="80" height="80" fill="white"/>
        </clipPath>
    </defs>
</svg>
