<svg width="178" height="45" viewBox="0 0 178 45" fill="none" xmlns="http://www.w3.org/2000/svg">
<path d="M22.7788 44.6626C34.9291 44.6626 44.7788 34.8129 44.7788 22.6626C44.7788 10.5123 34.9291 0.662598 22.7788 0.662598C10.6285 0.662598 0.778809 10.5123 0.778809 22.6626C0.778809 34.8129 10.6285 44.6626 22.7788 44.6626Z" fill="black"/>
<path d="M32.3968 8.80293C30.1624 8.8813 28.2102 10.1133 26.7596 11.817C25.1507 13.6854 24.0817 15.9025 23.3106 18.1642C21.932 17.0341 20.8686 15.5717 18.657 14.9338C16.9461 14.4424 15.1515 14.6446 13.5002 15.875C12.7173 16.4597 12.1789 17.3429 11.9226 18.1728C11.2581 20.3311 12.6193 22.252 13.2385 22.9424L14.5903 24.3891C14.8693 24.6736 15.5394 25.415 15.2126 26.4769C14.8576 27.6329 13.4657 28.3797 12.037 27.9401C11.3991 27.7426 10.4822 27.2685 10.6883 26.6007C10.7729 26.3264 10.9689 26.1203 11.0747 25.886C11.1711 25.6822 11.2165 25.5302 11.2455 25.4409C11.5065 24.5882 11.1499 23.4801 10.2377 23.1987C9.38579 22.9385 8.51589 23.1454 8.17811 24.2402C7.7941 25.4871 8.3905 27.7449 11.5825 28.73C15.3223 29.8797 18.4861 27.8421 18.9344 25.1869C19.2173 23.5239 18.4649 22.2873 17.0896 20.6971L15.9689 19.4581C15.2894 18.7786 15.0566 17.6227 15.7588 16.7348C16.3521 15.9848 17.1961 15.665 18.5809 16.0404C20.6005 16.5874 21.501 17.9895 23.0026 19.1203C22.3827 21.154 21.9767 23.1956 21.6107 25.0279L21.3858 26.3915C20.3113 32.0232 19.4924 35.1148 17.3623 36.8899C16.9336 37.1964 16.3192 37.6525 15.3952 37.6846C14.9101 37.7003 14.7541 37.3664 14.7463 37.2207C14.7353 36.8805 15.0229 36.7246 15.2134 36.5717C15.4979 36.4158 15.9281 36.1587 15.8991 35.3351C15.867 34.3586 15.0598 33.5138 13.8936 33.5537C13.0182 33.5827 11.6867 34.4048 11.7369 35.9127C11.7886 37.4675 13.2385 38.6344 15.425 38.5592C16.5943 38.5208 19.204 38.0451 21.7753 34.9879C24.7682 31.4824 25.606 27.4644 26.2361 24.5239L26.9383 20.6423C27.3294 20.6885 27.7463 20.7206 28.2008 20.7308C31.9289 20.8108 33.7933 18.879 33.8223 17.4746C33.8403 16.6243 33.2643 15.788 32.4571 15.8069C31.8803 15.8233 31.1546 16.2073 30.9806 17.0051C30.8106 17.7888 32.1671 18.4957 31.1068 19.183C30.3537 19.6713 29.0034 20.0145 27.1021 19.7355L27.4485 17.8241C28.153 14.2003 29.0245 9.74259 32.3262 9.63522C32.5668 9.62268 33.4477 9.6462 33.4681 10.2277C33.4736 10.4221 33.4258 10.4722 33.1985 10.9174C32.9657 11.2638 32.8787 11.5592 32.8889 11.8993C32.9218 12.8241 33.6248 13.4322 34.6428 13.3962C36.0041 13.3515 36.396 12.0263 36.374 11.3445C36.3176 9.74181 34.6295 8.73083 32.3968 8.80293Z" fill="white"/>
<path d="M134.169 16.4727C139.242 16.4727 142.643 20.138 142.643 25.2085C142.643 29.9868 139.176 33.9437 134.169 33.9437C129.131 33.9437 125.664 29.9868 125.664 25.2085C125.664 20.138 129.064 16.4727 134.169 16.4727ZM134.169 31.4609C137.768 31.4609 139.37 28.1882 139.37 25.2085C139.37 22.0361 137.44 18.9609 134.169 18.9609C130.865 18.9609 128.934 22.0361 128.934 25.2085C128.934 28.1882 130.538 31.4609 134.169 31.4609Z" fill="black"/>
<path d="M125.242 18.0261V16.8654H120.824V15.2792C120.824 13.0214 121.152 11.3176 123.8 11.3176C123.849 11.3176 123.901 11.3223 123.952 11.3247C123.957 11.3247 123.956 11.3161 123.962 11.3161C124.697 11.3694 125.31 10.7714 125.35 10.0363L125.404 9.02844C124.782 8.9297 124.126 8.83252 123.343 8.83252C118.795 8.83252 117.749 11.483 117.749 15.541V16.8654H113.818V18.1609C113.919 18.8325 114.495 19.3505 115.196 19.3505C115.199 19.3505 115.203 19.3537 115.207 19.3537H117.749V33.5535H119.441C119.445 33.5535 119.443 33.5535 119.447 33.5535C120.152 33.5535 120.727 33.0222 120.823 32.3458V19.3537H123.9C124.624 19.3294 125.206 18.7502 125.242 18.0261Z" fill="black"/>
<path d="M84.2739 16.8658C84.2692 16.8658 84.2653 16.8697 84.2575 16.8697C83.6101 16.8697 82.9824 17.3149 82.7081 17.9175L78.4769 30.6746H78.4111L74.2723 17.9238C74.0012 17.318 73.3711 16.869 72.7191 16.869C72.7112 16.869 72.7089 16.865 72.7026 16.865H70.5576L76.2183 32.4403C76.4158 32.9975 76.8092 33.8486 76.8092 34.2067C76.8092 34.5359 75.8923 38.329 73.1423 38.329C73.0749 38.329 73.0059 38.3212 72.9393 38.3165C72.2379 38.278 71.7081 38.7679 71.5913 39.5226L71.5075 40.5876C72.0639 40.6856 72.6219 40.8172 73.6031 40.8172C77.6595 40.8172 78.8703 37.1174 80.0169 33.9121L86.1665 16.8643H84.2739V16.8658Z" fill="black"/>
<path d="M64.7217 20.2548C62.1825 18.9555 59.4027 18.0722 59.3541 15.4578C59.3619 12.6812 61.9137 11.9515 63.8792 11.9539C63.8886 11.9523 63.8964 11.9523 63.9011 11.9523C64.7554 11.9523 65.438 12.037 66.1049 12.1835C66.1135 12.1835 66.1119 12.1726 66.1221 12.1726C66.8275 12.2243 67.4192 11.6733 67.5014 10.979L67.5579 9.97036C66.2687 9.65061 64.9215 9.48682 63.7491 9.48682C59.474 9.51346 56.2993 11.6647 56.2891 15.7705C56.2938 19.3599 58.7123 20.7509 61.3157 22.0111C63.8674 23.2384 66.6613 24.2509 66.6856 27.2141C66.6715 30.3042 63.6887 31.4429 61.6331 31.4476C60.4309 31.4429 59.1261 31.1443 58.0257 30.7972C57.3369 30.6835 56.7718 31.2917 56.6817 32.0965L56.5892 32.9947C58.101 33.4829 59.6503 33.91 61.2091 33.91C61.2091 33.91 61.2107 33.91 61.2123 33.91C61.2162 33.91 61.2217 33.91 61.2264 33.91C66.0163 33.8747 69.7389 31.9649 69.7538 27.0048C69.7483 23.1788 67.3118 21.5715 64.7217 20.2548Z" fill="black"/>
<path d="M111.24 33.5537C111.242 33.5537 111.242 33.5537 111.244 33.5537C111.908 33.5537 112.462 33.0866 112.601 32.4651V22.8538C112.601 19.2214 111.066 16.4722 106.81 16.4722C105.305 16.4722 102.786 17.3248 101.641 19.7128C100.758 17.4549 98.8271 16.4722 96.8984 16.4722C94.4431 16.4722 92.7738 17.3554 91.5967 19.2872H91.5309V18.2496C91.5215 17.4855 90.9031 16.8687 90.1382 16.8687C90.1312 16.8687 90.128 16.8648 90.1233 16.8648H88.6523V33.5529H90.3169C90.3193 33.5529 90.3193 33.5529 90.3208 33.5529C91.092 33.5529 91.7158 32.9267 91.7158 32.1571C91.7158 32.136 91.7229 32.1281 91.7299 32.114V25.143C91.7299 22.0356 92.9721 18.9604 96.1124 18.9604C98.5975 18.9604 99.092 21.5443 99.092 23.6062V33.5521H100.779C100.781 33.5521 100.781 33.5521 100.784 33.5521C101.513 33.5521 102.1 32.9918 102.165 32.2802V25.143C102.165 22.0356 103.409 18.9604 106.55 18.9604C109.036 18.9604 109.528 21.5443 109.528 23.6062V33.5521H111.24V33.5537Z" fill="black"/>
<path d="M158.769 33.5537C158.771 33.5537 158.771 33.5537 158.773 33.5537C159.523 33.5537 160.127 32.9612 160.163 32.219V23.6391C160.163 19.1571 158.23 16.4722 153.911 16.4722C151.588 16.4722 149.365 17.6187 148.446 19.5176H148.382V18.2708C148.382 18.2692 148.379 18.2692 148.379 18.2661C148.379 17.4925 147.753 16.8687 146.985 16.8687C146.976 16.8687 146.975 16.8648 146.969 16.8648H145.403V33.5529H147.094C147.094 33.5529 147.094 33.5529 147.097 33.5529C147.829 33.5529 148.422 32.9831 148.479 32.2653V25.8303C148.479 21.7739 150.051 18.9604 153.551 18.9604C156.237 19.1226 157.084 21.0192 157.084 24.9142V33.5521H158.769V33.5537Z" fill="black"/>
<path d="M175.328 16.8658C175.32 16.8658 175.317 16.8697 175.31 16.8697C174.662 16.8697 174.034 17.3149 173.76 17.9175L169.531 30.6746H169.462L165.322 17.9238C165.051 17.318 164.421 16.869 163.771 16.869C163.764 16.869 163.76 16.865 163.755 16.865H161.61L167.271 32.4403C167.467 32.9975 167.863 33.8486 167.863 34.2067C167.863 34.5359 166.945 38.329 164.195 38.329C164.128 38.329 164.06 38.3212 163.992 38.3165C163.29 38.278 162.763 38.7679 162.642 39.5226L162.56 40.5876C163.115 40.6856 163.674 40.8172 164.656 40.8172C168.713 40.8172 169.923 37.1174 171.07 33.9121L177.221 16.8643H175.328V16.8658Z" fill="black"/>
</svg>
