<svg width="82" height="49" viewBox="0 0 82 49" fill="none" xmlns="http://www.w3.org/2000/svg">
<g clip-path="url(#clip0_208_86)">
<path d="M23.4669 18.0633C23.4669 19.0633 23.6002 19.8633 23.7335 20.4633C23.9335 21.0633 24.2002 21.6633 24.6002 22.3966C24.7335 22.5966 24.8002 22.7966 24.8002 22.9966C24.8002 23.2633 24.6669 23.53 24.2669 23.7966L22.6002 24.93C22.3335 25.0633 22.1335 25.1966 21.9335 25.1966C21.6669 25.1966 21.4002 25.0633 21.1335 24.7966C20.7335 24.3966 20.4669 23.9966 20.2002 23.53C19.9335 23.0633 19.6669 22.5966 19.4002 21.93C17.3335 24.3966 14.7335 25.5966 11.5335 25.5966C9.26686 25.5966 7.53353 24.93 6.2002 23.6633C4.86686 22.3966 4.2002 20.6633 4.2002 18.53C4.2002 16.2633 5.0002 14.3966 6.6002 13.0633C8.2002 11.73 10.4002 10.9966 13.1335 10.9966C14.0669 10.9966 15.0002 11.0633 15.9335 11.1966C16.9335 11.33 17.9335 11.53 19.0002 11.7966V9.86331C19.0002 7.86331 18.6002 6.39665 17.7335 5.59665C16.8669 4.79665 15.4669 4.39665 13.4002 4.39665C12.4669 4.39665 11.5335 4.52998 10.5335 4.72998C9.53353 4.99665 8.60019 5.26331 7.66686 5.66331C7.26686 5.79665 6.93353 5.92998 6.73353 5.99665C6.53353 5.99665 6.4002 6.06331 6.33353 6.06331C5.93353 6.06331 5.8002 5.79665 5.8002 5.26331V3.92998C5.8002 3.52998 5.86686 3.19665 6.0002 2.99665C6.13353 2.79665 6.4002 2.59665 6.73353 2.46331C7.66686 1.99665 8.8002 1.59665 10.0669 1.26331C11.4002 0.92998 12.7335 0.72998 14.2002 0.72998C17.4002 0.72998 19.6669 1.46331 21.2002 2.86331C22.6669 4.32998 23.4002 6.46331 23.4002 9.46331L23.4669 18.0633ZM12.6669 22.13C13.5335 22.13 14.4669 21.9966 15.4002 21.6633C16.3335 21.33 17.2002 20.73 17.9335 19.93C18.3335 19.3966 18.6669 18.8633 18.8669 18.1966C19.0002 17.53 19.1335 16.7966 19.1335 15.8633V14.73C18.3335 14.53 17.5335 14.3966 16.6669 14.2633C15.8002 14.13 15.0002 14.13 14.1335 14.13C12.3335 14.13 11.0669 14.4633 10.1335 15.1966C9.26686 15.93 8.80019 16.93 8.80019 18.2633C8.80019 19.53 9.13353 20.4633 9.80019 21.0633C10.4669 21.8633 11.4002 22.13 12.6669 22.13ZM34.0669 25.0633C33.6002 25.0633 33.2669 24.9966 33.0669 24.7966C32.8669 24.6633 32.6669 24.2633 32.5335 23.73L26.2669 3.06331C26.1335 2.52998 26.0002 2.19665 26.0002 1.99665C26.0002 1.59665 26.2002 1.32998 26.6669 1.32998H29.2669C29.8002 1.32998 30.1335 1.39665 30.3335 1.59665C30.5335 1.72998 30.7335 2.12998 30.8669 2.66331L35.3335 20.33L39.4669 2.66331C39.6002 2.12998 39.7335 1.79665 40.0002 1.59665C40.2002 1.46331 40.6002 1.32998 41.0669 1.32998H43.2002C43.7335 1.32998 44.0669 1.39665 44.2669 1.59665C44.4669 1.72998 44.6669 2.12998 44.8002 2.66331L49.0002 20.53L53.6002 2.66331C53.7335 2.12998 53.9335 1.79665 54.1335 1.59665C54.3335 1.46331 54.6669 1.32998 55.2002 1.32998H57.6669C58.0669 1.32998 58.3335 1.52998 58.3335 1.99665C58.3335 2.12998 58.3335 2.26331 58.2669 2.39665C58.2669 2.52998 58.2002 2.79665 58.0669 3.06331L51.6002 23.73C51.4669 24.2633 51.2669 24.5966 51.0669 24.7966C50.8669 24.93 50.5335 25.0633 50.0669 25.0633H47.8002C47.2669 25.0633 46.9335 24.9966 46.7335 24.7966C46.5335 24.5966 46.3335 24.2633 46.2002 23.73L42.0669 6.52998L37.9335 23.73C37.8002 24.2633 37.6669 24.5966 37.4002 24.7966C37.2002 24.9966 36.8002 25.0633 36.3335 25.0633H34.0669ZM68.4002 25.73C67.0002 25.73 65.6002 25.5966 64.2669 25.2633C62.9335 24.93 61.8669 24.5966 61.2002 24.1966C60.8002 23.93 60.4669 23.6633 60.4002 23.4633C60.3335 23.2633 60.2002 22.93 60.2002 22.73V21.3966C60.2002 20.8633 60.4002 20.5966 60.8002 20.5966C60.9335 20.5966 61.1335 20.5966 61.2669 20.6633C61.4002 20.73 61.6669 20.7966 61.9335 20.93C62.8669 21.33 63.8002 21.6633 64.8669 21.8633C65.9335 22.0633 67.0002 22.1966 68.0669 22.1966C69.7335 22.1966 71.0669 21.93 71.9335 21.33C72.8669 20.73 73.3335 19.8633 73.3335 18.7966C73.3335 18.0633 73.0669 17.4633 72.6002 16.93C72.1335 16.3966 71.2002 15.9966 69.9335 15.53L66.0669 14.33C64.1335 13.73 62.6669 12.7966 61.8002 11.5966C60.9335 10.3966 60.4669 9.12998 60.4669 7.72998C60.4669 6.59665 60.7335 5.59665 61.2002 4.79665C61.6669 3.99665 62.3335 3.19665 63.1335 2.59665C63.9335 1.99665 64.8669 1.52998 65.9335 1.19665C67.0002 0.863314 68.1335 0.72998 69.2669 0.72998C69.8669 0.72998 70.4669 0.72998 71.0669 0.863314C71.6669 0.92998 72.2669 1.06331 72.8002 1.12998C73.3335 1.26331 73.8669 1.39665 74.3335 1.52998C74.8002 1.66331 75.2002 1.86331 75.4669 1.99665C75.8669 2.19665 76.1335 2.39665 76.2669 2.66331C76.4002 2.86331 76.5335 3.19665 76.5335 3.52998V4.79665C76.5335 5.32998 76.3335 5.66331 75.9335 5.66331C75.7335 5.66331 75.4002 5.52998 74.9335 5.32998C73.4002 4.66331 71.7335 4.26331 69.8002 4.26331C68.2669 4.26331 67.0669 4.52998 66.2669 4.99665C65.4669 5.46331 65.0002 6.26331 65.0002 7.39665C65.0002 8.12998 65.2669 8.79665 65.8002 9.26331C66.3335 9.79665 67.3335 10.2633 68.7335 10.73L72.5335 11.93C74.4669 12.53 75.8669 13.3966 76.6669 14.4633C77.4669 15.53 77.8669 16.7966 77.8669 18.1966C77.8669 19.33 77.6002 20.3966 77.2002 21.2633C76.7335 22.1966 76.0669 22.9967 75.2669 23.5966C74.4669 24.2633 73.4669 24.73 72.3335 25.0633C71.0002 25.5966 69.7335 25.73 68.4002 25.73Z" fill="#252F3E"/>
<path fill-rule="evenodd" clip-rule="evenodd" d="M73.4668 38.7296C64.6668 45.1963 51.8668 48.663 40.9334 48.663C25.5334 48.663 11.6668 42.9963 1.20009 33.5296C0.400087 32.7963 1.13342 31.7963 2.13342 32.3296C13.4668 38.9296 27.4001 42.863 41.8668 42.863C51.6001 42.863 62.3334 40.863 72.2001 36.663C73.6001 36.063 74.8668 37.663 73.4668 38.7296Z" fill="#FF9900"/>
<path fill-rule="evenodd" clip-rule="evenodd" d="M77.0667 34.5959C75.9334 33.1292 69.6667 33.9292 66.8001 34.2625C65.9334 34.3959 65.8001 33.5959 66.6001 33.0625C71.6001 29.5292 79.8667 30.5292 80.8001 31.7292C81.7334 32.9292 80.5334 41.1959 75.8667 45.1292C75.1334 45.7292 74.4667 45.3959 74.8001 44.5959C75.8667 41.9292 78.2001 35.9959 77.0667 34.5959Z" fill="#FF9900"/>
<path d="M23.4669 18.0633C23.4669 19.0633 23.6002 19.8633 23.7335 20.4633C23.9335 21.0633 24.2002 21.6633 24.6002 22.3966C24.7335 22.5966 24.8002 22.7966 24.8002 22.9966C24.8002 23.2633 24.6669 23.53 24.2669 23.7966L22.6002 24.93C22.3335 25.0633 22.1335 25.1966 21.9335 25.1966C21.6669 25.1966 21.4002 25.0633 21.1335 24.7966C20.7335 24.3966 20.4669 23.9966 20.2002 23.53C19.9335 23.0633 19.6669 22.5966 19.4002 21.93C17.3335 24.3966 14.7335 25.5966 11.5335 25.5966C9.26686 25.5966 7.53353 24.93 6.2002 23.6633C4.86686 22.3966 4.2002 20.6633 4.2002 18.53C4.2002 16.2633 5.0002 14.3966 6.6002 13.0633C8.2002 11.73 10.4002 10.9966 13.1335 10.9966C14.0669 10.9966 15.0002 11.0633 15.9335 11.1966C16.9335 11.33 17.9335 11.53 19.0002 11.7966V9.86331C19.0002 7.86331 18.6002 6.39665 17.7335 5.59665C16.8669 4.79665 15.4669 4.39665 13.4002 4.39665C12.4669 4.39665 11.5335 4.52998 10.5335 4.72998C9.53353 4.99665 8.60019 5.26331 7.66686 5.66331C7.26686 5.79665 6.93353 5.92998 6.73353 5.99665C6.53353 5.99665 6.4002 6.06331 6.33353 6.06331C5.93353 6.06331 5.8002 5.79665 5.8002 5.26331V3.92998C5.8002 3.52998 5.86686 3.19665 6.0002 2.99665C6.13353 2.79665 6.4002 2.59665 6.73353 2.46331C7.66686 1.99665 8.8002 1.59665 10.0669 1.26331C11.4002 0.92998 12.7335 0.72998 14.2002 0.72998C17.4002 0.72998 19.6669 1.46331 21.2002 2.86331C22.6669 4.32998 23.4002 6.46331 23.4002 9.46331L23.4669 18.0633ZM12.6669 22.13C13.5335 22.13 14.4669 21.9966 15.4002 21.6633C16.3335 21.33 17.2002 20.73 17.9335 19.93C18.3335 19.3966 18.6669 18.8633 18.8669 18.1966C19.0002 17.53 19.1335 16.7966 19.1335 15.8633V14.73C18.3335 14.53 17.5335 14.3966 16.6669 14.2633C15.8002 14.13 15.0002 14.13 14.1335 14.13C12.3335 14.13 11.0669 14.4633 10.1335 15.1966C9.26686 15.93 8.80019 16.93 8.80019 18.2633C8.80019 19.53 9.13353 20.4633 9.80019 21.0633C10.4669 21.8633 11.4002 22.13 12.6669 22.13ZM34.0669 25.0633C33.6002 25.0633 33.2669 24.9966 33.0669 24.7966C32.8669 24.6633 32.6669 24.2633 32.5335 23.73L26.2669 3.06331C26.1335 2.52998 26.0002 2.19665 26.0002 1.99665C26.0002 1.59665 26.2002 1.32998 26.6669 1.32998H29.2669C29.8002 1.32998 30.1335 1.39665 30.3335 1.59665C30.5335 1.72998 30.7335 2.12998 30.8669 2.66331L35.3335 20.33L39.4669 2.66331C39.6002 2.12998 39.7335 1.79665 40.0002 1.59665C40.2002 1.46331 40.6002 1.32998 41.0669 1.32998H43.2002C43.7335 1.32998 44.0669 1.39665 44.2669 1.59665C44.4669 1.72998 44.6669 2.12998 44.8002 2.66331L49.0002 20.53L53.6002 2.66331C53.7335 2.12998 53.9335 1.79665 54.1335 1.59665C54.3335 1.46331 54.6669 1.32998 55.2002 1.32998H57.6669C58.0669 1.32998 58.3335 1.52998 58.3335 1.99665C58.3335 2.12998 58.3335 2.26331 58.2669 2.39665C58.2669 2.52998 58.2002 2.79665 58.0669 3.06331L51.6002 23.73C51.4669 24.2633 51.2669 24.5966 51.0669 24.7966C50.8669 24.93 50.5335 25.0633 50.0669 25.0633H47.8002C47.2669 25.0633 46.9335 24.9966 46.7335 24.7966C46.5335 24.5966 46.3335 24.2633 46.2002 23.73L42.0669 6.52998L37.9335 23.73C37.8002 24.2633 37.6669 24.5966 37.4002 24.7966C37.2002 24.9966 36.8002 25.0633 36.3335 25.0633H34.0669ZM68.4002 25.73C67.0002 25.73 65.6002 25.5966 64.2669 25.2633C62.9335 24.93 61.8669 24.5966 61.2002 24.1966C60.8002 23.93 60.4669 23.6633 60.4002 23.4633C60.3335 23.2633 60.2002 22.93 60.2002 22.73V21.3966C60.2002 20.8633 60.4002 20.5966 60.8002 20.5966C60.9335 20.5966 61.1335 20.5966 61.2669 20.6633C61.4002 20.73 61.6669 20.7966 61.9335 20.93C62.8669 21.33 63.8002 21.6633 64.8669 21.8633C65.9335 22.0633 67.0002 22.1966 68.0669 22.1966C69.7335 22.1966 71.0669 21.93 71.9335 21.33C72.8669 20.73 73.3335 19.8633 73.3335 18.7966C73.3335 18.0633 73.0669 17.4633 72.6002 16.93C72.1335 16.3966 71.2002 15.9966 69.9335 15.53L66.0669 14.33C64.1335 13.73 62.6669 12.7966 61.8002 11.5966C60.9335 10.3966 60.4669 9.12998 60.4669 7.72998C60.4669 6.59665 60.7335 5.59665 61.2002 4.79665C61.6669 3.99665 62.3335 3.19665 63.1335 2.59665C63.9335 1.99665 64.8669 1.52998 65.9335 1.19665C67.0002 0.863314 68.1335 0.72998 69.2669 0.72998C69.8669 0.72998 70.4669 0.72998 71.0669 0.863314C71.6669 0.92998 72.2669 1.06331 72.8002 1.12998C73.3335 1.26331 73.8669 1.39665 74.3335 1.52998C74.8002 1.66331 75.2002 1.86331 75.4669 1.99665C75.8669 2.19665 76.1335 2.39665 76.2669 2.66331C76.4002 2.86331 76.5335 3.19665 76.5335 3.52998V4.79665C76.5335 5.32998 76.3335 5.66331 75.9335 5.66331C75.7335 5.66331 75.4002 5.52998 74.9335 5.32998C73.4002 4.66331 71.7335 4.26331 69.8002 4.26331C68.2669 4.26331 67.0669 4.52998 66.2669 4.99665C65.4669 5.46331 65.0002 6.26331 65.0002 7.39665C65.0002 8.12998 65.2669 8.79665 65.8002 9.26331C66.3335 9.79665 67.3335 10.2633 68.7335 10.73L72.5335 11.93C74.4669 12.53 75.8669 13.3966 76.6669 14.4633C77.4669 15.53 77.8669 16.7966 77.8669 18.1966C77.8669 19.33 77.6002 20.3966 77.2002 21.2633C76.7335 22.1966 76.0669 22.9967 75.2669 23.5966C74.4669 24.2633 73.4669 24.73 72.3335 25.0633C71.0002 25.5966 69.7335 25.73 68.4002 25.73Z" fill="#252F3E"/>
<path fill-rule="evenodd" clip-rule="evenodd" d="M73.4668 38.7296C64.6668 45.1963 51.8668 48.663 40.9334 48.663C25.5334 48.663 11.6668 42.9963 1.20009 33.5296C0.400087 32.7963 1.13342 31.7963 2.13342 32.3296C13.4668 38.9296 27.4001 42.863 41.8668 42.863C51.6001 42.863 62.3334 40.863 72.2001 36.663C73.6001 36.063 74.8668 37.663 73.4668 38.7296Z" fill="#FF9900"/>
<path fill-rule="evenodd" clip-rule="evenodd" d="M77.0667 34.5959C75.9334 33.1292 69.6667 33.9292 66.8001 34.2625C65.9334 34.3959 65.8001 33.5959 66.6001 33.0625C71.6001 29.5292 79.8667 30.5292 80.8001 31.7292C81.7334 32.9292 80.5334 41.1959 75.8667 45.1292C75.1334 45.7292 74.4667 45.3959 74.8001 44.5959C75.8667 41.9292 78.2001 35.9959 77.0667 34.5959Z" fill="#FF9900"/>
</g>
<defs>
<clipPath id="clip0_208_86">
<rect width="80.2667" height="48" fill="white" transform="translate(0.866699 0.662598)"/>
</clipPath>
</defs>
</svg>
