<svg width="106" height="45" viewBox="0 0 106 45" fill="none" xmlns="http://www.w3.org/2000/svg">
<path fill-rule="evenodd" clip-rule="evenodd" d="M105.871 23.3966C105.871 15.8772 102.228 9.94385 95.2671 9.94385C88.2765 9.94385 84.0469 15.8771 84.0469 23.3378C84.0469 32.179 89.0402 36.6437 96.2071 36.6437C99.7024 36.6437 102.346 35.8506 104.343 34.7345V28.8599C102.346 29.8586 100.055 30.4754 97.147 30.4754C94.2978 30.4754 91.7718 29.4768 91.4487 26.0108H105.812C105.812 25.6289 105.871 24.1015 105.871 23.3966ZM91.3606 20.6062C91.3606 17.287 93.3873 15.9065 95.2378 15.9065C97.0295 15.9065 98.9387 17.287 98.9387 20.6062H91.3606Z" fill="#635BFF"/>
<path fill-rule="evenodd" clip-rule="evenodd" d="M72.7082 9.94385C69.8297 9.94385 67.9792 11.295 66.9512 12.2349L66.5694 10.4138H60.1074V44.6625L67.4505 43.1057L67.4799 34.7932C68.5373 35.5569 70.094 36.6437 72.6788 36.6437C77.9365 36.6437 82.7242 32.414 82.7242 23.1029C82.6948 14.5847 77.8484 9.94385 72.7082 9.94385ZM70.9458 30.1817C69.2129 30.1817 68.1848 29.5649 67.4799 28.8012L67.4505 17.9039C68.2142 17.0521 69.2716 16.4646 70.9458 16.4646C73.6187 16.4646 75.4692 19.4606 75.4692 23.3085C75.4692 27.2444 73.6481 30.1817 70.9458 30.1817Z" fill="#635BFF"/>
<path fill-rule="evenodd" clip-rule="evenodd" d="M50.0049 8.2114L57.3774 6.62527V0.662598L50.0049 2.21936V8.2114Z" fill="#635BFF"/>
<path d="M57.3774 10.4438H50.0049V36.145H57.3774V10.4438Z" fill="#635BFF"/>
<path fill-rule="evenodd" clip-rule="evenodd" d="M42.1025 12.6168L41.6325 10.4433H35.2881V36.1445H42.6312V18.7264C44.3642 16.4647 47.3014 16.8759 48.212 17.199V10.4433C47.272 10.0908 43.8355 9.44459 42.1025 12.6168Z" fill="#635BFF"/>
<path fill-rule="evenodd" clip-rule="evenodd" d="M27.4179 4.06934L20.2511 5.59672L20.2217 29.1243C20.2217 33.4715 23.482 36.6731 27.8291 36.6731C30.2377 36.6731 32 36.2325 32.9693 35.7038V29.7411C32.0294 30.123 27.3885 31.4741 27.3885 27.127V16.6996H32.9693V10.4432H27.3885L27.4179 4.06934Z" fill="#635BFF"/>
<path fill-rule="evenodd" clip-rule="evenodd" d="M7.56062 17.9039C7.56062 16.7583 8.50053 16.3177 10.0573 16.3177C12.2896 16.3177 15.1093 16.9933 17.3416 18.1976V11.295C14.9037 10.3257 12.4952 9.94385 10.0573 9.94385C4.09467 9.94385 0.129395 13.0574 0.129395 18.2563C0.129395 26.3632 11.2909 25.0708 11.2909 28.5662C11.2909 29.9173 10.116 30.3579 8.47116 30.3579C6.03325 30.3579 2.91977 29.3593 0.452491 28.0081V34.9988C3.18412 36.1737 5.94513 36.6731 8.47116 36.6731C14.5806 36.6731 18.7809 33.6477 18.7809 28.39C18.7515 19.6369 7.56062 21.1936 7.56062 17.9039Z" fill="#635BFF"/>
</svg>
