<svg width="408" height="80" viewBox="0 0 408 80" fill="none" xmlns="http://www.w3.org/2000/svg">
<g clip-path="url(#clip0_208_98)">
<path d="M223.45 17.5626C220.05 19.6626 217.95 23.2626 217.95 27.2626C217.95 31.7626 220.65 35.8626 224.75 37.5626C223.95 40.1626 222.75 42.5626 221.25 44.7626C219.05 47.8626 216.75 51.0626 213.35 51.0626C209.95 51.0626 208.95 49.0626 204.95 49.0626C201.05 49.0626 199.65 51.1626 196.45 51.1626C193.25 51.1626 191.05 48.2626 188.55 44.6626C185.25 39.6626 183.35 33.8626 183.25 27.7626C183.25 17.8626 189.65 12.5626 196.05 12.5626C199.45 12.5626 202.25 14.7626 204.35 14.7626C206.35 14.7626 209.55 12.4626 213.35 12.4626C217.35 12.3626 221.15 14.2626 223.45 17.5626ZM211.55 8.2626C213.25 6.2626 214.15 3.7626 214.25 1.1626C214.25 0.862598 214.25 0.462598 214.15 0.162598C211.25 0.462598 208.55 1.8626 206.65 4.0626C204.95 5.9626 203.95 8.3626 203.85 10.9626C203.85 11.2626 203.85 11.5626 203.95 11.8626C204.15 11.8626 204.45 11.9626 204.65 11.9626C207.35 11.7626 209.85 10.3626 211.55 8.2626Z" fill="black"/>
</g>
<path d="M191.418 74.4426C190.031 74.4426 188.864 74.1359 187.917 73.5226C186.971 72.8959 186.304 72.0493 185.917 70.9826L188.277 69.6026C188.824 71.0293 189.897 71.7426 191.498 71.7426C192.271 71.7426 192.838 71.6026 193.197 71.3226C193.557 71.0426 193.737 70.6893 193.737 70.2626C193.737 69.7693 193.518 69.3893 193.078 69.1226C192.637 68.8426 191.851 68.5426 190.718 68.2226C190.091 68.0359 189.557 67.8493 189.117 67.6626C188.691 67.4759 188.257 67.2293 187.817 66.9226C187.391 66.6026 187.064 66.2026 186.837 65.7226C186.611 65.2426 186.497 64.6826 186.497 64.0426C186.497 62.7759 186.944 61.7693 187.837 61.0226C188.744 60.2626 189.831 59.8826 191.097 59.8826C192.231 59.8826 193.224 60.1626 194.077 60.7226C194.944 61.2693 195.618 62.0359 196.098 63.0226L193.778 64.3626C193.218 63.1626 192.324 62.5626 191.097 62.5626C190.524 62.5626 190.071 62.6959 189.737 62.9626C189.417 63.2159 189.257 63.5493 189.257 63.9626C189.257 64.4026 189.437 64.7626 189.797 65.0426C190.171 65.3093 190.878 65.6026 191.918 65.9226C192.344 66.0559 192.664 66.1626 192.877 66.2426C193.104 66.3093 193.404 66.4226 193.778 66.5826C194.164 66.7293 194.458 66.8693 194.658 67.0026C194.871 67.1359 195.111 67.3159 195.378 67.5426C195.644 67.7693 195.844 68.0026 195.977 68.2426C196.124 68.4826 196.244 68.7759 196.337 69.1226C196.444 69.4559 196.498 69.8226 196.498 70.2226C196.498 71.5159 196.024 72.5426 195.077 73.3026C194.144 74.0626 192.924 74.4426 191.418 74.4426ZM203.36 60.1626C205.28 60.1626 206.88 60.8359 208.16 62.1826C209.453 63.5293 210.1 65.1893 210.1 67.1626C210.1 69.1359 209.453 70.7959 208.16 72.1426C206.88 73.4893 205.28 74.1626 203.36 74.1626H197.8V60.1626H203.36ZM203.36 71.5226C204.573 71.5226 205.56 71.1226 206.32 70.3226C207.08 69.5093 207.46 68.4559 207.46 67.1626C207.46 65.8693 207.08 64.8226 206.32 64.0226C205.56 63.2093 204.573 62.8026 203.36 62.8026H200.56V71.5226H203.36ZM222.598 74.1626H219.418L214.418 67.6026V74.1626H211.658V60.1626H214.418V66.3426L219.218 60.1626H222.398L217.218 66.9626L222.598 74.1626Z" fill="#222222"/>
<defs>
<clipPath id="clip0_208_98">
<rect width="41.5" height="51" fill="white" transform="translate(183.25 0.162598)"/>
</clipPath>
</defs>
</svg>
