<svg width="148" height="45" viewBox="0 0 148 45" fill="none" xmlns="http://www.w3.org/2000/svg">
<g clip-path="url(#clip0_207_66)">
<path d="M21.7865 17.2359C21.7865 19.7293 19.7332 21.7826 17.2398 21.7826C14.7465 21.7826 12.6932 19.7293 12.6932 17.2359C12.6932 14.7426 14.7465 12.6893 17.2398 12.6893C19.7332 12.6893 21.7865 14.7426 21.7865 17.2359ZM17.2398 23.5426C14.7465 23.5426 12.6932 25.5959 12.6932 28.0893C12.6932 30.5826 14.7465 32.6359 17.2398 32.6359C19.7332 32.6359 21.7865 30.5826 21.7865 28.0893C21.7865 25.5959 19.7332 23.5426 17.2398 23.5426ZM44.6665 22.6626C44.6665 34.8359 34.8398 44.6626 22.6665 44.6626C10.4932 44.6626 0.666504 34.8359 0.666504 22.6626C0.666504 10.4893 10.4932 0.662598 22.6665 0.662598C34.8398 0.662598 44.6665 10.4893 44.6665 22.6626ZM38.7998 22.6626C38.7998 13.7159 31.6132 6.52926 22.6665 6.52926C13.7198 6.52926 6.53317 13.7159 6.53317 22.6626C6.53317 31.6093 13.7198 38.7959 22.6665 38.7959C31.6132 38.7959 38.7998 31.6093 38.7998 22.6626ZM28.0932 23.5426C25.5998 23.5426 23.5465 25.5959 23.5465 28.0893C23.5465 30.5826 25.5998 32.6359 28.0932 32.6359C30.5865 32.6359 32.6398 30.5826 32.6398 28.0893C32.6398 25.5959 30.5865 23.5426 28.0932 23.5426ZM28.0932 12.6893C25.5998 12.6893 23.5465 14.7426 23.5465 17.2359C23.5465 19.7293 25.5998 21.7826 28.0932 21.7826C30.5865 21.7826 32.6398 19.7293 32.6398 17.2359C32.6398 14.7426 30.5865 12.6893 28.0932 12.6893ZM103.773 9.31593C103.92 9.31593 104.067 9.4626 104.213 9.60926V14.3026C104.213 14.5959 103.92 14.7426 103.773 14.7426H95.9998C95.7065 14.7426 95.5598 14.4493 95.5598 14.3026V9.75593C95.5598 9.4626 95.8532 9.31593 95.9998 9.31593H103.773ZM103.627 15.9159H88.6665C88.5198 15.9159 88.2265 16.0626 88.2265 16.3559L86.3198 23.6893L86.1732 24.1293L83.8265 16.3559C83.8265 16.2093 83.5332 15.9159 83.3865 15.9159H77.5198C77.3732 15.9159 77.0798 16.0626 77.0798 16.3559L74.8798 23.6893L74.7332 24.1293L74.5865 23.6893L73.7065 20.0226L72.8265 16.3559C72.8265 16.2093 72.5332 15.9159 72.3865 15.9159H60.6532V9.60926C60.6532 9.4626 60.3598 9.16926 60.0665 9.31593L52.7332 11.6626C52.4398 11.6626 52.2932 11.8093 52.2932 12.1026V16.0626H50.3865C50.2398 16.0626 49.9465 16.2093 49.9465 16.5026V22.0759C49.9465 22.2226 50.0932 22.5159 50.3865 22.5159H52.2932V29.4093C52.2932 34.2493 54.9332 36.4493 59.7732 36.4493C61.8265 36.4493 63.7332 36.0093 65.0532 35.2759V29.4093C65.0532 29.1159 64.7598 28.9693 64.6132 29.1159C63.8798 29.4093 63.1465 29.5559 62.5598 29.5559C61.2398 29.5559 60.5065 28.9693 60.5065 27.5026V22.5159H64.7598C64.9065 22.5159 65.1998 22.3693 65.1998 22.0759V17.3826L70.7732 35.8626C70.7732 36.0093 71.0665 36.3026 71.2132 36.3026H77.3732C77.5198 36.3026 77.8132 36.1559 77.8132 35.8626L80.4532 27.6493L81.7732 31.9026L82.9465 35.8626C82.9465 36.0093 83.2398 36.3026 83.3865 36.3026H89.5465C89.6932 36.3026 89.9865 36.1559 89.9865 35.8626L95.5598 17.3826V35.8626C95.5598 36.0093 95.7065 36.3026 95.9998 36.3026H103.48C103.627 36.3026 103.92 36.1559 103.92 35.8626V16.3559C103.92 16.2093 103.773 15.9159 103.627 15.9159ZM113.453 9.31593H105.973C105.827 9.31593 105.533 9.4626 105.533 9.75593V35.7159C105.533 35.8626 105.68 36.1559 105.973 36.1559H113.453C113.6 36.1559 113.893 36.0093 113.893 35.7159V9.60926C113.893 9.4626 113.747 9.31593 113.453 9.31593ZM123.426 9.31593H115.653C115.507 9.31593 115.213 9.4626 115.213 9.75593V14.3026C115.213 14.4493 115.36 14.7426 115.653 14.7426H123.426C123.573 14.7426 123.867 14.5959 123.867 14.3026V9.60926C123.867 9.4626 123.72 9.31593 123.426 9.31593ZM123.28 15.9159H115.8C115.653 15.9159 115.36 16.0626 115.36 16.3559V35.5693C115.36 35.7159 115.507 36.0093 115.8 36.0093H123.28C123.427 36.0093 123.72 35.8626 123.72 35.5693V16.3559C123.72 16.2093 123.573 15.9159 123.28 15.9159ZM146.893 25.8893C146.893 31.4626 142.2 36.3026 135.6 36.3026C129.146 36.3026 124.453 31.4626 124.453 25.8893C124.453 20.3159 129.146 15.4759 135.747 15.4759C142.2 15.4759 146.893 20.3159 146.893 25.8893ZM138.973 26.0359C138.973 23.9826 137.507 22.3693 135.747 22.5159C133.84 22.5159 132.52 24.1293 132.52 26.0359C132.52 27.9426 133.987 29.5559 135.747 29.5559C137.653 29.5559 138.973 27.9426 138.973 26.0359Z" fill="#F22F46"/>
</g>
<defs>
<clipPath id="clip0_207_66">
<rect width="146.667" height="44" fill="white" transform="translate(0.666504 0.662598)"/>
</clipPath>
</defs>
</svg>
