<svg width="64" height="57" viewBox="0 0 64 57" fill="none" xmlns="http://www.w3.org/2000/svg">
<path d="M63.3596 28.6974C63.3596 24.3165 58.2029 20.4315 50.2741 18.0599C52.1816 10.0038 51.3486 3.59459 47.5527 1.42638C46.6219 0.909436 45.5716 0.646306 44.507 0.663379C40.9654 0.663379 36.4891 3.13678 31.9683 7.41596C27.4475 3.16857 22.9839 0.707887 19.4487 0.707887C18.3676 0.684 17.3001 0.951974 16.3585 1.48361C12.5817 3.65817 11.7996 10.0293 13.6817 18.0472C5.79093 20.4061 0.659725 24.2593 0.647008 28.6211C0.634291 32.983 5.81 36.887 13.7389 39.2523C11.8314 47.3147 12.658 53.7176 16.4603 55.8858C17.3876 56.4056 18.4367 56.669 19.4996 56.6488C23.0475 56.6488 27.5238 54.1754 32.0446 49.8962C36.5591 54.1436 41.0226 56.6043 44.5642 56.6043C45.6448 56.6241 46.7113 56.3564 47.6544 55.8286C51.4313 53.654 52.207 47.2829 50.3313 39.2968C58.222 36.9061 63.3532 33.0529 63.3596 28.6974ZM34.8805 8.85296C40.088 4.19227 43.3434 3.68996 44.5007 3.68996C45.0374 3.67272 45.5688 3.80009 46.0394 4.05875C47.8579 5.09516 48.5827 8.75122 48.0041 13.5963C47.8559 14.8336 47.6437 16.0624 47.3683 17.2778C44.7335 16.6654 42.0616 16.2257 39.3695 15.9616C37.7663 13.712 36.0161 11.5709 34.1302 9.55238C34.3654 9.31712 34.6198 9.08186 34.8805 8.85296ZM19.1181 32.3026C19.614 33.2564 20.1418 34.2101 20.6886 35.1702C21.2354 36.1303 21.8077 37.1032 22.4435 38.0633C20.7204 37.8153 19.0481 37.5038 17.4585 37.135C17.9036 35.5199 18.4695 33.9304 19.1181 32.3026ZM17.3568 20.1963C18.9655 19.8211 20.6504 19.5096 22.399 19.268C21.7631 20.209 21.2163 21.1755 20.6441 22.1865C20.0718 23.1974 19.5695 24.094 19.0799 25.0604C18.4314 23.4073 17.857 21.7859 17.3568 20.1963ZM20.6695 28.6783C21.4579 27.0125 22.3248 25.3466 23.2701 23.6807C24.2238 22.0148 25.2475 20.3934 26.303 18.8419C28.1533 18.7021 30.0608 18.6258 32.0255 18.6321C33.9903 18.6385 35.8406 18.7084 37.6781 18.8547C38.7336 20.3934 39.7446 22.0338 40.6984 23.6552C41.6521 25.2766 42.5296 26.9743 43.318 28.6338C42.5359 30.2997 41.6648 31.972 40.7238 33.6252C39.7828 35.2783 38.7463 36.9188 37.6909 38.4702C35.8406 38.6165 33.9331 38.6864 31.9683 38.6864C30.0036 38.6864 28.1533 38.6038 26.3157 38.4575C25.2602 36.9188 24.2429 35.3165 23.2892 33.6569C22.3354 31.9974 21.4897 30.3379 20.6949 28.6783H20.6695ZM41.5631 19.287C43.2926 19.5287 44.9648 19.8402 46.5481 20.209C46.0775 21.7795 45.518 23.3882 44.8694 25.0096C44.3671 24.0558 43.8458 23.1021 43.2926 22.1419C42.7394 21.1818 42.1544 20.2154 41.5885 19.287H41.5631ZM43.318 35.1321C43.8648 34.1699 44.3862 33.2097 44.8822 32.2517C45.518 33.9049 46.1538 35.5327 46.5989 37.1223C44.9966 37.4974 43.3116 37.8026 41.5631 38.0442C42.1777 37.1032 42.7712 36.1325 43.3434 35.1321H43.318ZM31.981 11.7142C33.1255 12.935 34.251 14.2576 35.351 15.6755C34.2637 15.631 33.151 15.5992 32.0255 15.5992C30.9001 15.5992 29.7493 15.5992 28.6365 15.6755C29.7238 14.2639 30.8365 12.935 31.981 11.7142ZM17.8782 4.08418C18.3606 3.82762 18.9028 3.70468 19.4487 3.72811C20.5943 3.77585 21.7177 4.05941 22.7487 4.56106C25.0789 5.65967 27.224 7.11405 29.1071 8.87203L29.851 9.55238C27.9843 11.5561 26.2512 13.6801 24.6626 15.9107C21.9559 16.1729 19.2692 16.6105 16.6192 17.2206C16.3395 15.987 16.1106 14.779 15.9834 13.6154C15.3221 8.81481 16.0851 5.15238 17.8718 4.10961L17.8782 4.08418ZM14.5146 36.3211C13.3199 35.9564 12.1442 35.5319 10.9921 35.0494C6.47763 33.1419 3.67995 30.6939 3.67995 28.602C3.67995 26.5101 6.49035 24.0749 10.9984 22.1992C12.1301 21.7304 13.2845 21.3188 14.4574 20.9656C15.2522 23.5999 16.2208 26.1786 17.3568 28.6847C16.245 31.1659 15.2956 33.7168 14.5146 36.3211ZM29.1388 48.4656C23.9313 53.1263 20.6759 53.6222 19.5123 53.6222C18.9755 53.6401 18.4439 53.5127 17.9736 53.2534C16.1551 52.217 15.4302 48.561 16.0088 43.7159C16.1565 42.4806 16.3687 41.2539 16.6447 40.0407C19.2802 40.6479 21.952 41.0854 24.6435 41.3506C26.2447 43.6017 27.995 45.7429 29.8828 47.7598L29.1388 48.4656ZM32.0446 45.598C30.9001 44.3772 29.7747 43.0546 28.6683 41.6367C29.762 41.6876 30.8747 41.713 32.0001 41.713C33.1255 41.713 34.2764 41.713 35.3891 41.6431C34.2891 43.0546 33.1701 44.3772 32.0383 45.598H32.0446ZM46.1475 53.228C45.665 53.4923 45.1204 53.6219 44.5706 53.6031C43.4134 53.6031 40.1197 53.0945 34.9313 48.4529L34.1874 47.7725C36.0519 45.7687 37.783 43.6446 39.3695 41.4142C42.0787 41.1556 44.7678 40.7181 47.4192 40.1043C47.6989 41.3379 47.9215 42.5459 48.055 43.7095C48.6845 48.5037 47.9533 52.1662 46.1411 53.2026L46.1475 53.228ZM53.0145 35.1448C51.9272 35.5899 50.7764 36.0032 49.5556 36.372C48.7576 33.7379 47.7869 31.1593 46.6498 28.6529C47.7667 26.1745 48.7203 23.6257 49.5047 21.0229C50.6994 21.3876 51.8751 21.812 53.0272 22.2945C57.5353 24.2021 60.3394 26.65 60.333 28.7419C60.3266 30.8338 57.5226 33.2437 53.0082 35.1194L53.0145 35.1448ZM31.981 34.4963C33.1355 34.4975 34.2644 34.1564 35.225 33.5161C36.1855 32.8757 36.9347 31.9649 37.3776 30.8989C37.8206 29.8328 37.9374 28.6593 37.7135 27.5268C37.4895 26.3943 36.9347 25.3536 36.1193 24.5364C35.3038 23.7192 34.2644 23.1621 33.1324 22.9357C32.0004 22.7092 30.8266 22.8235 29.7596 23.2642C28.6925 23.7048 27.7801 24.4519 27.1377 25.4111C26.4952 26.3703 26.1517 27.4985 26.1504 28.6529C26.1487 29.4197 26.2983 30.1792 26.5906 30.8881C26.8829 31.597 27.3121 32.2412 27.8537 32.784C28.3953 33.3268 29.0386 33.7574 29.7468 34.0512C30.455 34.345 31.2143 34.4963 31.981 34.4963ZM13.7325 39.2523C11.825 47.3147 12.6516 53.7176 16.4539 55.8858C17.3812 56.4056 18.4303 56.669 19.4932 56.6488C23.0412 56.6488 27.5175 54.1754 32.0383 49.8962C36.5527 54.1436 41.0163 56.6043 44.5579 56.6043C45.6385 56.6241 46.7049 56.3564 47.6481 55.8286C51.4249 53.654 52.2006 47.2829 50.3249 39.2968C58.2157 36.9315 63.3469 33.0783 63.3532 28.7229C63.3596 24.3674 58.1966 20.457 50.2677 18.0853C52.1752 10.0293 51.3423 3.62002 47.5463 1.45182C46.6156 0.93487 45.5652 0.671739 44.5007 0.688811C40.9591 0.688811 36.4828 3.16222 31.962 7.4414C27.4412 3.19401 22.9776 0.733321 19.4423 0.733321C18.3613 0.709434 17.2938 0.977408 16.3522 1.50904C12.5753 3.6836 11.7932 10.0547 13.6753 18.0726C5.78457 20.4315 0.653365 24.2847 0.640648 28.6466C0.627932 33.0084 5.81 36.8743 13.7389 39.2523H13.7325ZM29.1261 48.4656C23.9186 53.1263 20.6631 53.6222 19.4996 53.6222C18.9628 53.6401 18.4312 53.5127 17.9608 53.2534C16.1423 52.217 15.4175 48.561 15.9961 43.7159C16.1438 42.4806 16.356 41.2539 16.6319 40.0407C19.2675 40.6479 21.9392 41.0854 24.6308 41.3506C26.232 43.6017 27.9823 45.7429 29.8701 47.7598L29.1261 48.4656ZM44.8885 25.0096C44.3862 24.0558 43.8648 23.1021 43.3116 22.1419C42.7585 21.1818 42.1671 20.2344 41.5822 19.287C43.3116 19.5287 44.9839 19.8402 46.5671 20.209C46.103 21.7795 45.5434 23.3882 44.8949 25.0096H44.8885ZM46.618 37.0905C45.0157 37.4656 43.3307 37.7708 41.5822 38.0124C42.1799 37.0714 42.7648 36.1007 43.3371 35.1003C43.9093 34.0999 44.4307 33.1398 44.9012 32.22C45.5689 33.9049 46.1475 35.5199 46.6053 37.1223L46.618 37.0905ZM43.3053 28.602C42.5232 30.2679 41.6521 31.9402 40.7111 33.5934C39.77 35.2465 38.7336 36.887 37.6781 38.4384C35.8279 38.5847 33.9203 38.6546 31.9556 38.6546C29.9909 38.6546 28.1406 38.572 26.303 38.4257C25.2475 36.887 24.2302 35.2847 23.2764 33.6252C22.3227 31.9656 21.4516 30.3061 20.6568 28.6466C21.4452 26.9807 22.3121 25.3148 23.2574 23.6489C24.2111 21.983 25.2348 20.3616 26.2903 18.8102C28.1406 18.6703 30.0481 18.594 32.0128 18.6003C33.9776 18.6067 35.8279 18.6766 37.6654 18.8229C38.7209 20.3616 39.7319 22.0021 40.6856 23.6234C41.6394 25.2448 42.5232 26.9743 43.3116 28.6338L43.3053 28.602ZM22.4435 38.0633C20.7204 37.8153 19.0481 37.5038 17.4585 37.135C17.9291 35.5708 18.4949 33.9558 19.1435 32.3344C19.6394 33.2882 20.1672 34.2419 20.714 35.202C21.2608 36.1621 21.8077 37.1032 22.4435 38.0633ZM20.6695 22.1674C20.1163 23.1211 19.5949 24.0749 19.1053 25.0414C18.4398 23.4009 17.857 21.7859 17.3568 20.1963C18.9655 19.8211 20.6504 19.5096 22.399 19.268C21.8077 20.209 21.2418 21.1818 20.6695 22.1674ZM32.0383 45.598C30.8938 44.3772 29.7683 43.0546 28.662 41.6367C29.7556 41.6876 30.8683 41.713 31.9938 41.713C33.1192 41.713 34.2701 41.713 35.3828 41.6431C34.2891 43.0546 33.1701 44.3772 32.0383 45.598ZM46.1411 53.228C45.6587 53.4923 45.114 53.6219 44.5642 53.6031C43.407 53.6031 40.1134 53.0945 34.925 48.4529L34.181 47.7725C36.0456 45.7687 37.7766 43.6446 39.3631 41.4142C42.0723 41.1556 44.7614 40.7181 47.4128 40.1043C47.6926 41.3379 47.9151 42.5459 48.0486 43.7095C48.6845 48.5037 47.9533 52.1662 46.1411 53.2026V53.228ZM49.4983 21.0165C50.693 21.3812 51.8687 21.8057 53.0209 22.2882C57.529 24.1957 60.333 26.6437 60.3266 28.7356C60.3203 30.8275 57.5226 33.2882 53.0082 35.1639C51.9209 35.609 50.77 36.0223 49.5492 36.391C48.7512 33.757 47.7805 31.1784 46.6434 28.672C47.7624 26.177 48.7161 23.6112 49.4983 20.9911V21.0165ZM34.8741 8.87839C40.0816 4.2177 43.3371 3.71539 44.4943 3.71539C45.031 3.69815 45.5625 3.82553 46.033 4.08418C47.8515 5.12059 48.5764 8.77666 47.9978 13.6217C47.8496 14.8591 47.6373 16.0879 47.3619 17.3032C44.7272 16.6908 42.0552 16.2512 39.3631 15.987C37.76 13.7374 36.0097 11.5963 34.1238 9.57781C34.3654 9.31712 34.6198 9.08186 34.8805 8.85296L34.8741 8.87839ZM31.981 11.7142C33.1255 12.935 34.251 14.2576 35.351 15.6755C34.2637 15.631 33.151 15.5992 32.0255 15.5992C30.9001 15.5992 29.7493 15.5992 28.6365 15.6755C29.7238 14.2639 30.8365 12.935 31.981 11.7142ZM17.8782 4.08418C18.3606 3.82762 18.9028 3.70468 19.4487 3.72811C20.5943 3.77585 21.7177 4.05941 22.7487 4.56106C25.0789 5.65967 27.224 7.11405 29.1071 8.87203L29.851 9.55238C27.9843 11.5561 26.2512 13.6801 24.6626 15.9107C21.9559 16.1729 19.2692 16.6105 16.6192 17.2206C16.3395 15.987 16.1106 14.779 15.9834 13.6154C15.3221 8.81481 16.0851 5.15238 17.8718 4.10961L17.8782 4.08418ZM10.9984 22.1992C12.1301 21.7304 13.2845 21.3188 14.4574 20.9656C15.2522 23.5999 16.2208 26.1786 17.3568 28.6847C16.2409 31.1635 15.2873 33.7123 14.5019 36.3147C13.3072 35.95 12.1315 35.5256 10.9794 35.0431C6.46491 33.1356 3.66723 30.6876 3.66723 28.5957C3.66723 26.5038 6.49035 24.0749 10.9984 22.1992ZM31.981 22.835C30.8266 22.8337 29.6977 23.1749 28.7371 23.8152C27.7765 24.4555 27.0274 25.3663 26.5845 26.4324C26.1415 27.4985 26.0246 28.672 26.2486 29.8045C26.4726 30.937 27.0274 31.9776 27.8428 32.7948C28.6582 33.6121 29.6977 34.1691 30.8297 34.3956C31.9617 34.622 33.1355 34.5077 34.2025 34.0671C35.2696 33.6265 36.182 32.8793 36.8244 31.9201C37.4668 30.9609 37.8104 29.8328 37.8117 28.6783C37.8175 27.9089 37.6711 27.1459 37.3807 26.4334C37.0903 25.7208 36.6617 25.0728 36.1197 24.5267C35.5777 23.9805 34.933 23.5471 34.2226 23.2513C33.5123 22.9555 32.7505 22.8032 31.981 22.8032V22.835ZM31.981 22.835C30.8266 22.8337 29.6977 23.1749 28.7371 23.8152C27.7765 24.4555 27.0274 25.3663 26.5845 26.4324C26.1415 27.4985 26.0246 28.672 26.2486 29.8045C26.4726 30.937 27.0274 31.9776 27.8428 32.7948C28.6582 33.6121 29.6977 34.1691 30.8297 34.3956C31.9617 34.622 33.1355 34.5077 34.2025 34.0671C35.2696 33.6265 36.182 32.8793 36.8244 31.9201C37.4668 30.9609 37.8104 29.8328 37.8117 28.6783C37.8175 27.9089 37.6711 27.1459 37.3807 26.4334C37.0903 25.7208 36.6617 25.0728 36.1197 24.5267C35.5777 23.9805 34.933 23.5471 34.2226 23.2513C33.5123 22.9555 32.7505 22.8032 31.981 22.8032V22.835ZM31.981 22.835C30.8266 22.8337 29.6977 23.1749 28.7371 23.8152C27.7765 24.4555 27.0274 25.3663 26.5845 26.4324C26.1415 27.4985 26.0246 28.672 26.2486 29.8045C26.4726 30.937 27.0274 31.9776 27.8428 32.7948C28.6582 33.6121 29.6977 34.1691 30.8297 34.3956C31.9617 34.622 33.1355 34.5077 34.2025 34.0671C35.2696 33.6265 36.182 32.8793 36.8244 31.9201C37.4668 30.9609 37.8104 29.8328 37.8117 28.6783C37.8175 27.9089 37.6711 27.1459 37.3807 26.4334C37.0903 25.7208 36.6617 25.0728 36.1197 24.5267C35.5777 23.9805 34.933 23.5471 34.2226 23.2513C33.5123 22.9555 32.7505 22.8032 31.981 22.8032V22.835ZM63.3596 28.7101C63.3596 24.3292 58.2029 20.4443 50.2741 18.0726C52.1816 10.0165 51.3486 3.6073 47.5527 1.4391C46.6219 0.922153 45.5716 0.659023 44.507 0.676096C40.9654 0.676096 36.4891 3.1495 31.9683 7.42868C27.4475 3.18129 22.9839 0.720604 19.4487 0.720604C18.3676 0.696717 17.3001 0.964691 16.3585 1.49632C12.5817 3.67089 11.7996 10.042 13.6817 18.0599C5.79093 20.4188 0.659725 24.272 0.647008 28.6338C0.634291 32.9957 5.81 36.8997 13.7389 39.265C11.8314 47.3274 12.658 53.7303 16.4603 55.8985C17.3876 56.4183 18.4367 56.6817 19.4996 56.6615C23.0475 56.6615 27.5238 54.1881 32.0446 49.9089C36.5591 54.1563 41.0226 56.617 44.5642 56.617C45.6448 56.6369 46.7113 56.3692 47.6544 55.8413C51.4313 53.6667 52.207 47.2956 50.3313 39.3095C58.222 36.9061 63.3532 33.0529 63.3596 28.6974V28.7101ZM34.8805 8.85296C40.088 4.19227 43.3434 3.68996 44.5007 3.68996C45.0374 3.67272 45.5688 3.80009 46.0394 4.05875C47.8579 5.09516 48.5827 8.75122 48.0041 13.5963C47.8559 14.8336 47.6437 16.0624 47.3683 17.2778C44.7335 16.6654 42.0616 16.2257 39.3695 15.9616C37.7663 13.712 36.0161 11.5709 34.1302 9.55238C34.3654 9.31712 34.6198 9.08186 34.8805 8.85296ZM19.1181 32.3026C19.614 33.2564 20.1418 34.2101 20.6886 35.1702C21.2354 36.1303 21.8077 37.1032 22.4435 38.0633C20.7204 37.8153 19.0481 37.5038 17.4585 37.135C17.9036 35.5199 18.4695 33.9304 19.1181 32.3026ZM17.3568 20.1963C18.9655 19.8211 20.6504 19.5096 22.399 19.268C21.7631 20.209 21.2163 21.1755 20.6441 22.1865C20.0718 23.1974 19.5695 24.094 19.0799 25.0604C18.4314 23.4073 17.857 21.7859 17.3568 20.1963ZM20.6695 28.6783C21.4579 27.0125 22.3248 25.3466 23.2701 23.6807C24.2238 22.0148 25.2475 20.3934 26.303 18.8419C28.1533 18.7021 30.0608 18.6258 32.0255 18.6321C33.9903 18.6385 35.8406 18.7084 37.6781 18.8547C38.7336 20.3934 39.7446 22.0338 40.6984 23.6552C41.6521 25.2766 42.5296 26.9743 43.318 28.6338C42.5359 30.2997 41.6648 31.972 40.7238 33.6252C39.7828 35.2783 38.7463 36.9188 37.6909 38.4702C35.8406 38.6165 33.9331 38.6864 31.9683 38.6864C30.0036 38.6864 28.1533 38.6038 26.3157 38.4575C25.2602 36.9188 24.2429 35.3165 23.2892 33.6569C22.3354 31.9974 21.4897 30.3379 20.6949 28.6783H20.6695ZM41.5631 19.287C43.2926 19.5287 44.9648 19.8402 46.5481 20.209C46.0775 21.7795 45.518 23.3882 44.8694 25.0096C44.3671 24.0558 43.8458 23.1021 43.2926 22.1419C42.7394 21.1818 42.1544 20.2154 41.5885 19.287H41.5631ZM43.318 35.1321C43.8648 34.1699 44.3862 33.2097 44.8822 32.2517C45.518 33.9049 46.1538 35.5327 46.5989 37.1223C44.9966 37.4974 43.3116 37.8026 41.5631 38.0442C42.1777 37.1032 42.7712 36.1325 43.3434 35.1321H43.318ZM31.981 11.7142C33.1255 12.935 34.251 14.2576 35.351 15.6755C34.2637 15.631 33.151 15.5992 32.0255 15.5992C30.9001 15.5992 29.7493 15.5992 28.6365 15.6755C29.7238 14.2639 30.8365 12.935 31.981 11.7142ZM17.8782 4.08418C18.3606 3.82762 18.9028 3.70468 19.4487 3.72811C20.5943 3.77585 21.7177 4.05941 22.7487 4.56106C25.0789 5.65967 27.224 7.11405 29.1071 8.87203L29.851 9.55238C27.9843 11.5561 26.2512 13.6801 24.6626 15.9107C21.9559 16.1729 19.2692 16.6105 16.6192 17.2206C16.3395 15.987 16.1106 14.779 15.9834 13.6154C15.3221 8.81481 16.0851 5.15238 17.8718 4.10961L17.8782 4.08418ZM14.5146 36.3211C13.3199 35.9564 12.1442 35.5319 10.9921 35.0494C6.47763 33.1419 3.67995 30.6939 3.67995 28.602C3.67995 26.5101 6.49035 24.0749 10.9984 22.1992C12.1301 21.7304 13.2845 21.3188 14.4574 20.9656C15.2522 23.5999 16.2208 26.1786 17.3568 28.6847C16.245 31.1659 15.2956 33.7168 14.5146 36.3211ZM29.1388 48.4656C23.9313 53.1263 20.6759 53.6222 19.5123 53.6222C18.9755 53.6401 18.4439 53.5127 17.9736 53.2534C16.1551 52.217 15.4302 48.561 16.0088 43.7159C16.1565 42.4806 16.3687 41.2539 16.6447 40.0407C19.2802 40.6479 21.952 41.0854 24.6435 41.3506C26.2447 43.6017 27.995 45.7429 29.8828 47.7598L29.1388 48.4656ZM32.0446 45.598C30.9001 44.3772 29.7747 43.0546 28.6683 41.6367C29.762 41.6876 30.8747 41.713 32.0001 41.713C33.1255 41.713 34.2764 41.713 35.3891 41.6431C34.2891 43.0546 33.1701 44.3772 32.0383 45.598H32.0446ZM46.1475 53.228C45.665 53.4923 45.1204 53.6219 44.5706 53.6031C43.4134 53.6031 40.1197 53.0945 34.9313 48.4529L34.1874 47.7725C36.0519 45.7687 37.783 43.6446 39.3695 41.4142C42.0787 41.1556 44.7678 40.7181 47.4192 40.1043C47.6989 41.3379 47.9215 42.5459 48.055 43.7095C48.6845 48.5037 47.9533 52.1662 46.1411 53.2026L46.1475 53.228ZM53.0145 35.1448C51.9272 35.5899 50.7764 36.0032 49.5556 36.372C48.7576 33.7379 47.7869 31.1593 46.6498 28.6529C47.7667 26.1745 48.7203 23.6257 49.5047 21.0229C50.6994 21.3876 51.8751 21.812 53.0272 22.2945C57.5353 24.2021 60.3394 26.65 60.333 28.7419C60.3266 30.8338 57.5226 33.2437 53.0082 35.1194L53.0145 35.1448ZM31.981 34.4963C33.1355 34.4975 34.2644 34.1564 35.225 33.5161C36.1855 32.8757 36.9347 31.9649 37.3776 30.8989C37.8206 29.8328 37.9374 28.6593 37.7135 27.5268C37.4895 26.3943 36.9347 25.3536 36.1193 24.5364C35.3038 23.7192 34.2644 23.1621 33.1324 22.9357C32.0004 22.7092 30.8266 22.8235 29.7596 23.2642C28.6925 23.7048 27.7801 24.4519 27.1377 25.4111C26.4952 26.3703 26.1517 27.4985 26.1504 28.6529C26.1487 29.4197 26.2983 30.1792 26.5906 30.8881C26.8829 31.597 27.3121 32.2412 27.8537 32.784C28.3953 33.3268 29.0386 33.7574 29.7468 34.0512C30.455 34.345 31.2143 34.4963 31.981 34.4963Z" fill="#09D3AC"/>
</svg>
