<svg width="64" height="65" viewBox="0 0 64 65" fill="none" xmlns="http://www.w3.org/2000/svg">
<rect x="0.8" y="0.863232" width="62.4" height="62.4" rx="16" stroke="white" stroke-opacity="0.3" stroke-width="1.6"/>
<path d="M46.4073 38.126C43.8964 38.126 42.5646 37.0583 42.4121 34.9228H44.9465C44.97 35.2631 45.1049 35.5505 45.3513 35.7852C45.6094 36.0081 45.9849 36.1196 46.4777 36.1196C46.947 36.1196 47.3049 36.0433 47.5513 35.8908C47.7977 35.7383 47.9209 35.5329 47.9209 35.2748C47.9209 34.9932 47.7449 34.7879 47.3929 34.6588C47.0409 34.518 46.6126 34.4065 46.1081 34.3244C45.6153 34.2423 45.1166 34.1308 44.6121 33.99C44.1076 33.8492 43.6793 33.5735 43.3273 33.1628C42.9753 32.7521 42.7993 32.2065 42.7993 31.526C42.7993 30.6695 43.1396 29.9479 43.8201 29.3612C44.5006 28.7745 45.3924 28.4812 46.4953 28.4812C47.7508 28.4812 48.6836 28.798 49.2937 29.4316C49.9038 30.0652 50.2324 30.7868 50.2793 31.5964H47.8681C47.8446 31.2796 47.7097 31.0156 47.4633 30.8044C47.2286 30.5932 46.9001 30.4876 46.4777 30.4876C46.0788 30.4876 45.7678 30.5756 45.5449 30.7516C45.322 30.9159 45.2105 31.1271 45.2105 31.3852C45.2105 31.6668 45.3865 31.8721 45.7385 32.0012C46.0905 32.1303 46.5129 32.2359 47.0057 32.318C47.5102 32.3884 48.0089 32.494 48.5017 32.6348C49.0062 32.7756 49.4345 33.0572 49.7865 33.4796C50.1385 33.902 50.3145 34.4652 50.3145 35.1692C50.3145 36.0257 49.9625 36.7356 49.2585 37.2988C48.5662 37.8503 47.6158 38.126 46.4073 38.126Z" fill="white"/>
<path d="M34.4611 29.678C34.7192 29.3378 35.083 29.0562 35.5523 28.8332C36.0334 28.5986 36.579 28.4812 37.1891 28.4812C38.4915 28.4812 39.524 28.9388 40.2867 29.854C41.0494 30.7692 41.4307 31.9191 41.4307 33.3036C41.4307 34.6882 41.0494 35.838 40.2867 36.7532C39.524 37.6684 38.4915 38.126 37.1891 38.126C35.8515 38.126 34.8776 37.6802 34.2675 36.7884V37.9148H31.9619V24.7148H34.4611V29.678ZM35.0067 31.4204C34.596 31.9132 34.3907 32.541 34.3907 33.3036C34.3907 34.0663 34.596 34.694 35.0067 35.1868C35.4291 35.6796 35.9806 35.926 36.6611 35.926C37.3416 35.926 37.8872 35.6796 38.2979 35.1868C38.7203 34.694 38.9315 34.0663 38.9315 33.3036C38.9315 32.541 38.7203 31.9132 38.2979 31.4204C37.8872 30.9276 37.3416 30.6812 36.6611 30.6812C35.9806 30.6812 35.4291 30.9276 35.0067 31.4204Z" fill="white"/>
<path d="M27.3483 33.7612L25.1307 34.1308C24.1921 34.2951 23.7227 34.6588 23.7227 35.222C23.7227 35.8673 24.1862 36.19 25.1131 36.19C25.8289 36.19 26.3803 36.0023 26.7675 35.6268C27.1547 35.2513 27.3483 34.7527 27.3483 34.1308V33.7612ZM24.5499 38.126C23.5174 38.126 22.7195 37.8679 22.1563 37.3516C21.5931 36.8353 21.3115 36.1489 21.3115 35.2924C21.3115 34.4828 21.599 33.8375 22.1739 33.3564C22.7606 32.8753 23.6641 32.5409 24.8843 32.3532L27.3483 31.9836V31.8956C27.3483 30.9921 26.7969 30.5404 25.6939 30.5404C24.6614 30.5404 24.0923 30.9159 23.9867 31.6668H21.5227C21.6049 30.7633 21.9803 30.0065 22.6491 29.3964C23.3179 28.7863 24.327 28.4812 25.6763 28.4812C27.0139 28.4812 28.023 28.7804 28.7035 29.3788C29.3841 29.9772 29.7243 30.822 29.7243 31.9132V36.2604C29.7243 36.9527 29.8123 37.5041 29.9883 37.9148H27.5771C27.5654 37.9148 27.5537 37.8737 27.5419 37.7916C27.5302 37.7095 27.5126 37.5863 27.4891 37.422C27.4774 37.246 27.4715 37.07 27.4715 36.894C26.8966 37.7153 25.9227 38.126 24.5499 38.126Z" fill="white"/>
<path d="M21.9146 25.4188V27.83H18.4826V37.9148H15.913V27.83H12.481V25.4188H21.9146Z" fill="white"/>
</svg>
