<svg width="80" height="81" viewBox="0 0 80 81" fill="none" xmlns="http://www.w3.org/2000/svg">
<rect y="0.620605" width="80" height="80" rx="21" fill="#E12C2C"/>
<path d="M27.3932 31.3151V34.3291H23.1032V46.9351H19.8912V34.3291H15.6012V31.3151H27.3932ZM34.1857 41.7431L31.4137 42.2051C30.2404 42.4104 29.6537 42.8651 29.6537 43.5691C29.6537 44.3757 30.233 44.7791 31.3917 44.7791C32.2864 44.7791 32.9757 44.5444 33.4597 44.0751C33.9437 43.6057 34.1857 42.9824 34.1857 42.2051V41.7431ZM30.6877 47.1991C29.397 47.1991 28.3997 46.8764 27.6957 46.2311C26.9917 45.5857 26.6397 44.7277 26.6397 43.6571C26.6397 42.6451 26.999 41.8384 27.7177 41.2371C28.451 40.6357 29.5804 40.2177 31.1057 39.9831L34.1857 39.5211V39.4111C34.1857 38.2817 33.4964 37.7171 32.1177 37.7171C30.827 37.7171 30.1157 38.1864 29.9837 39.1251H26.9037C27.0064 37.9957 27.4757 37.0497 28.3117 36.2871C29.1477 35.5244 30.409 35.1431 32.0957 35.1431C33.7677 35.1431 35.029 35.5171 35.8797 36.2651C36.7304 37.0131 37.1557 38.0691 37.1557 39.4331V44.8671C37.1557 45.7324 37.2657 46.4217 37.4857 46.9351H34.4717C34.457 46.9351 34.4424 46.8837 34.4277 46.7811C34.413 46.6784 34.391 46.5244 34.3617 46.3191C34.347 46.0991 34.3397 45.8791 34.3397 45.6591C33.621 46.6857 32.4037 47.1991 30.6877 47.1991ZM43.0765 36.6391C43.3991 36.2137 43.8538 35.8617 44.4405 35.5831C45.0418 35.2897 45.7238 35.1431 46.4865 35.1431C48.1145 35.1431 49.4051 35.7151 50.3585 36.8591C51.3118 38.0031 51.7885 39.4404 51.7885 41.1711C51.7885 42.9017 51.3118 44.3391 50.3585 45.4831C49.4051 46.6271 48.1145 47.1991 46.4865 47.1991C44.8145 47.1991 43.5971 46.6417 42.8345 45.5271V46.9351H39.9525V30.4351H43.0765V36.6391ZM43.7585 38.8171C43.2451 39.4331 42.9885 40.2177 42.9885 41.1711C42.9885 42.1244 43.2451 42.9091 43.7585 43.5251C44.2865 44.1411 44.9758 44.4491 45.8265 44.4491C46.6771 44.4491 47.3591 44.1411 47.8725 43.5251C48.4005 42.9091 48.6645 42.1244 48.6645 41.1711C48.6645 40.2177 48.4005 39.4331 47.8725 38.8171C47.3591 38.2011 46.6771 37.8931 45.8265 37.8931C44.9758 37.8931 44.2865 38.2011 43.7585 38.8171ZM58.0093 47.1991C54.8706 47.1991 53.206 45.8644 53.0153 43.1951H56.1833C56.2126 43.6204 56.3813 43.9797 56.6893 44.2731C57.012 44.5517 57.4813 44.6911 58.0973 44.6911C58.684 44.6911 59.1313 44.5957 59.4393 44.4051C59.7473 44.2144 59.9013 43.9577 59.9013 43.6351C59.9013 43.2831 59.6813 43.0264 59.2413 42.8651C58.8013 42.6891 58.266 42.5497 57.6353 42.4471C57.0193 42.3444 56.396 42.2051 55.7653 42.0291C55.1346 41.8531 54.5993 41.5084 54.1593 40.9951C53.7193 40.4817 53.4993 39.7997 53.4993 38.9491C53.4993 37.8784 53.9246 36.9764 54.7753 36.2431C55.626 35.5097 56.7406 35.1431 58.1193 35.1431C59.6886 35.1431 60.8546 35.5391 61.6173 36.3311C62.38 37.1231 62.7906 38.0251 62.8493 39.0371H59.8353C59.806 38.6411 59.6373 38.3111 59.3293 38.0471C59.036 37.7831 58.6253 37.6511 58.0973 37.6511C57.5986 37.6511 57.21 37.7611 56.9313 37.9811C56.6526 38.1864 56.5133 38.4504 56.5133 38.7731C56.5133 39.1251 56.7333 39.3817 57.1733 39.5431C57.6133 39.7044 58.1413 39.8364 58.7573 39.9391C59.388 40.0271 60.0113 40.1591 60.6273 40.3351C61.258 40.5111 61.7933 40.8631 62.2333 41.3911C62.6733 41.9191 62.8933 42.6231 62.8933 43.5031C62.8933 44.5737 62.4533 45.4611 61.5733 46.1651C60.708 46.8544 59.52 47.1991 58.0093 47.1991Z" fill="white"/>
</svg>
