<svg width="494" height="121" fill="none" xmlns="http://www.w3.org/2000/svg"><path fill-rule="evenodd" clip-rule="evenodd" d="M19.098 23.89L53.82 10l34.657 13.824-11.738 4.694-22.927-9.14-23.124 9.254-11.591-4.742zm37.071 60.808v-10.13l7.846-3.15 3.922-1.574v10.13l-3.922 1.574-7.846 3.15zm0-26.508v10.13l19.613-7.923v-10.13L56.17 58.19zm33.64-31.108l-33.64 13.519V51.31L89.81 37.79V27.082zm-38.233 13.47L18 27.04v26.884l24.942 10.037v8.244l-16.308-6.563v-3.831H18v9.677L51.576 85V58.116L26.634 48.079v-8.244l16.308 6.563v4.912h8.634V40.552z" fill="#211541"/><path d="M193.148 46.164c-1.394-2.193-3.207-3.29-5.438-3.29-1.022 0-1.882.251-2.579.754-.697.502-1.046 1.165-1.046 1.987 0 1.462 1.069 2.582 3.207 3.358l4.532 1.577c1.766.64 3.091 1.165 3.974 1.576.883.365 1.905.96 3.067 1.782 1.209.822 2.069 1.827 2.58 3.015.558 1.188.836 2.604.836 4.249 0 3.38-1.487 6.03-4.461 7.95-2.975 1.919-6.298 2.878-9.97 2.878-3.486 0-6.647-.822-9.482-2.467-2.788-1.69-4.578-4.02-5.368-6.99l7.46-2.262a6.847 6.847 0 002.998 3.153 9.33 9.33 0 004.392 1.096c1.348 0 2.533-.32 3.555-.96 1.023-.639 1.534-1.484 1.534-2.535 0-1.508-1.115-2.627-3.346-3.358l-4.462-1.645c-3.579-1.325-6.205-2.741-7.878-4.249-1.627-1.508-2.44-3.54-2.44-6.1 0-3.06 1.231-5.527 3.695-7.4 2.51-1.874 5.507-2.81 8.993-2.81 6.507 0 11.062 2.9 13.665 8.703l-8.018 1.988zm32.312-10.623c3.765 0 6.972 1.28 9.621 3.838 2.65 2.513 3.974 6.373 3.974 11.582v20.56h-8.923V51.508c0-5.62-2.208-8.43-6.624-8.43-2.742 0-5.066 1.029-6.971 3.085-1.86 2.01-2.929 3.769-3.207 5.277v20.08h-8.924V23.547h8.924V43.01c.185-1.462 1.394-3.06 3.625-4.797 2.277-1.782 5.113-2.673 8.505-2.673zm33.068-.068c2.649 0 4.927.57 6.832 1.713 1.906 1.142 2.975 2.307 3.207 3.495v-4.797h8.924V71.52h-8.924v-5.277c-.232 1.234-1.324 2.513-3.276 3.838-1.906 1.28-4.16 1.919-6.763 1.919-1.952 0-3.904-.365-5.856-1.097-1.952-.776-3.788-1.873-5.508-3.289-1.673-1.462-3.044-3.404-4.113-5.825-1.023-2.422-1.534-5.117-1.534-8.087 0-2.924.511-5.574 1.534-7.95 1.069-2.375 2.44-4.294 4.113-5.756 1.673-1.462 3.486-2.582 5.438-3.358 1.952-.777 3.927-1.165 5.926-1.165zm1.394 7.538c-2.51 0-4.717.982-6.623 2.947-1.906 1.919-2.858 4.5-2.858 7.744 0 3.29.952 5.917 2.858 7.881 1.906 1.92 4.113 2.879 6.623 2.879s4.648-.891 6.414-2.673c1.766-1.828 2.65-4.523 2.65-8.087 0-3.655-.884-6.35-2.65-8.087-1.719-1.736-3.857-2.604-6.414-2.604zm41.993-7.47c1.302 0 2.371.069 3.207.206v8.155c-.743-.091-1.836-.137-3.276-.137-3.208 0-5.927 1.074-8.157 3.221-2.185 2.102-3.44 4.934-3.765 8.498V71.52H281V35.884h8.924v11.308c.418-3.473 1.603-6.282 3.555-8.43 1.999-2.147 4.811-3.22 8.436-3.22zm20.443-.068c1.999 0 4.021.388 6.066 1.165a19.878 19.878 0 015.786 3.358c1.813 1.416 3.277 3.335 4.393 5.756 1.162 2.422 1.743 5.095 1.743 8.019 0 1.142-.07 2.215-.21 3.22h-26.771c.465 2.285 1.603 4.112 3.416 5.483 1.813 1.325 3.741 1.988 5.786 1.988 3.068 0 5.438-.891 7.112-2.673l7.32 3.769C333.234 69.853 328.401 72 322.498 72c-1.534 0-3.138-.228-4.811-.685-1.627-.457-3.253-1.165-4.88-2.125a21.887 21.887 0 01-4.392-3.563c-1.255-1.417-2.278-3.153-3.068-5.209-.79-2.056-1.185-4.272-1.185-6.647 0-3.884.976-7.265 2.928-10.143 1.999-2.878 4.346-4.957 7.042-6.236 2.695-1.28 5.438-1.92 8.226-1.92zm0 7.607c-2.091 0-3.974.64-5.647 1.919s-2.765 3.084-3.277 5.414h17.918c-.511-2.33-1.65-4.135-3.416-5.414-1.72-1.28-3.579-1.92-5.578-1.92zm35.043-12.884c-2.51 0-3.765 1.553-3.765 4.66v1.028h8.715v7.538h-8.715V71.52h-8.924V43.422h-4.392v-7.538h4.392V34.65c0-2.421.395-4.454 1.185-6.099.837-1.645 1.929-2.833 3.277-3.564 1.348-.776 2.626-1.302 3.835-1.576a17.287 17.287 0 013.834-.411c3.068 0 6.042.731 8.924 2.193l-2.859 6.1c-1.952-.732-3.788-1.097-5.507-1.097zm27.691 5.345c1.301 0 2.37.069 3.207.206v8.155c-.744-.091-1.836-.137-3.277-.137-3.207 0-5.926 1.074-8.157 3.221-2.184 2.102-3.439 4.934-3.765 8.498V71.52h-8.924V35.884h8.924v11.308c.419-3.473 1.604-6.282 3.556-8.43 1.998-2.147 4.81-3.22 8.436-3.22zm14.449 1.097c2.091-.777 4.113-1.165 6.065-1.165s3.974.388 6.066 1.165c2.091.776 4.067 1.896 5.926 3.358 1.859 1.416 3.369 3.335 4.531 5.756 1.209 2.422 1.813 5.095 1.813 8.019 0 2.375-.395 4.591-1.185 6.647s-1.836 3.792-3.137 5.209a20.269 20.269 0 01-4.323 3.563c-1.627.96-3.277 1.668-4.95 2.125-1.627.457-3.207.685-4.741.685-1.534 0-3.137-.228-4.81-.685-1.627-.457-3.254-1.165-4.881-2.125a21.943 21.943 0 01-4.392-3.563c-1.255-1.417-2.277-3.153-3.067-5.209-.79-2.056-1.186-4.272-1.186-6.647 0-2.924.581-5.597 1.743-8.019 1.209-2.421 2.743-4.34 4.602-5.756 1.859-1.462 3.834-2.582 5.926-3.358zm12.619 9.252c-1.906-1.92-4.09-2.879-6.554-2.879-2.463 0-4.648.96-6.553 2.878-1.906 1.92-2.859 4.546-2.859 7.882 0 3.29.953 5.893 2.859 7.812 1.905 1.92 4.09 2.879 6.553 2.879 2.464 0 4.648-.96 6.554-2.879 1.905-1.919 2.858-4.523 2.858-7.812 0-3.336-.953-5.963-2.858-7.882zm35.657-10.349c3.764 0 6.971 1.28 9.621 3.838 2.649 2.513 3.973 6.373 3.973 11.582v20.56h-8.923V51.508c0-5.62-2.208-8.43-6.624-8.43-2.742 0-5.066 1.029-6.971 3.085-1.859 2.01-2.928 3.769-3.207 5.277v20.08h-8.924V35.883h8.924v7.127c.186-1.462 1.394-3.06 3.625-4.797 2.277-1.782 5.113-2.673 8.506-2.673zM483 43.011h-7.669v17.955c0 2.285.976 3.427 2.928 3.427 1.673 0 3.254-.297 4.741-.89v7.195c-1.673.822-3.974 1.234-6.902 1.234-3.021 0-5.392-.754-7.111-2.262-1.72-1.553-2.58-4.409-2.58-8.567V43.011h-3.765v-7.127h3.765v-6.168h8.924v6.168H483v7.127z" fill="#211541"/><path d="M18 .5v103M90 .5v103m83-103v103M483 .5v103M328 .5v103M103.5 85H.5M494 72H161m333-36H161m333-13H161m-57.5 39H.5m103-11H.5m103-24H.5m103-3H.5m103-14H.5m51-9.5v103m5-103v103" stroke="#FF6A6A" stroke-width=".5" stroke-dasharray="2 2"/><path d="M19.49 118v-7.574h.958v6.721H23.9l-.11.853h-4.3zm8.417-5.913c.546 0 1.003.125 1.37.374.37.246.646.594.83 1.045.187.451.28.983.28 1.595 0 .591-.095 1.113-.286 1.568a2.41 2.41 0 01-.841 1.072c-.367.257-.822.386-1.364.386-.543 0-1-.125-1.37-.375a2.314 2.314 0 01-.841-1.05c-.187-.455-.28-.985-.28-1.59 0-.597.095-1.123.285-1.578a2.34 2.34 0 01.842-1.061c.374-.257.832-.386 1.375-.386zm0 .754c-.499 0-.877.185-1.133.555-.253.367-.38.939-.38 1.716 0 .763.125 1.33.374 1.7.253.37.629.555 1.128.555.498 0 .872-.185 1.122-.555.253-.37.38-.941.38-1.711 0-.77-.125-1.338-.375-1.705-.25-.37-.621-.555-1.116-.555zm9.098-1.249l.286.869a3.341 3.341 0 01-.787.143c-.278.019-.58.028-.907.028.334.154.585.354.753.599.17.242.253.528.253.858 0 .382-.086.721-.258 1.018-.172.297-.422.53-.748.698-.323.169-.713.253-1.172.253-.194 0-.357-.009-.49-.027a2.434 2.434 0 01-.373-.083.714.714 0 00-.22.242.668.668 0 00-.083.319c0 .14.055.255.165.347.11.092.314.137.61.137h1.046c.389 0 .737.07 1.045.209.312.14.555.327.731.561.18.235.27.503.27.804 0 .568-.242 1.004-.726 1.309-.48.304-1.16.456-2.04.456-.617 0-1.102-.064-1.458-.192-.356-.125-.61-.318-.765-.578-.15-.257-.225-.581-.225-.973h.836c0 .223.044.408.132.555.088.147.247.255.478.325.231.073.563.11.996.11.425 0 .772-.037 1.04-.11.27-.07.47-.176.599-.319a.732.732 0 00.198-.523c0-.275-.125-.482-.374-.621-.25-.14-.561-.21-.935-.21h-1.034c-.499 0-.867-.11-1.106-.33-.234-.22-.352-.473-.352-.759 0-.187.054-.368.16-.544.11-.176.27-.332.478-.468-.333-.176-.579-.394-.737-.654-.157-.26-.236-.576-.236-.946 0-.392.097-.739.291-1.04.195-.304.466-.542.814-.715a2.69 2.69 0 011.205-.258c.488-.004.884-.024 1.188-.061.304-.04.565-.097.78-.17.22-.073.445-.16.672-.259zm-2.64 1.166c-.466 0-.81.127-1.034.38-.22.249-.33.568-.33.957 0 .392.114.715.34.968.228.253.577.379 1.046.379.41 0 .722-.119.935-.357.216-.238.324-.57.324-.996 0-.436-.108-.766-.324-.99-.213-.227-.532-.341-.957-.341zm6.733-.671c.546 0 1.003.125 1.37.374.37.246.647.594.83 1.045.187.451.28.983.28 1.595 0 .591-.095 1.113-.285 1.568a2.419 2.419 0 01-.842 1.072c-.367.257-.821.386-1.364.386-.543 0-1-.125-1.37-.375a2.314 2.314 0 01-.84-1.05c-.188-.455-.281-.985-.281-1.59 0-.597.095-1.123.286-1.578a2.34 2.34 0 01.841-1.061c.374-.257.832-.386 1.375-.386zm0 .754c-.499 0-.876.185-1.133.555-.253.367-.38.939-.38 1.716 0 .763.125 1.33.375 1.7.253.37.628.555 1.127.555s.873-.185 1.122-.555c.253-.37.38-.941.38-1.711 0-.77-.125-1.338-.374-1.705-.25-.37-.622-.555-1.117-.555zm15.694-1.249l.286.869a3.341 3.341 0 01-.787.143c-.278.019-.58.028-.907.028.334.154.585.354.754.599.168.242.253.528.253.858 0 .382-.087.721-.259 1.018-.172.297-.422.53-.748.698-.323.169-.713.253-1.172.253a3.71 3.71 0 01-.489-.027 2.434 2.434 0 01-.374-.083.714.714 0 00-.22.242.668.668 0 00-.082.319c0 .14.055.255.165.347.11.092.313.137.61.137h1.045c.389 0 .737.07 1.045.209.312.14.556.327.732.561.18.235.269.503.269.804 0 .568-.242 1.004-.726 1.309-.48.304-1.16.456-2.04.456-.616 0-1.102-.064-1.458-.192-.356-.125-.61-.318-.764-.578-.15-.257-.226-.581-.226-.973h.836c0 .223.044.408.132.555.088.147.247.255.478.325.231.073.563.11.996.11.425 0 .772-.037 1.04-.11.27-.07.47-.176.599-.319a.732.732 0 00.198-.523c0-.275-.125-.482-.374-.621-.25-.14-.561-.21-.935-.21h-1.034c-.499 0-.867-.11-1.105-.33-.235-.22-.352-.473-.352-.759 0-.187.053-.368.159-.544.11-.176.27-.332.478-.468-.333-.176-.579-.394-.736-.654-.158-.26-.237-.576-.237-.946 0-.392.097-.739.291-1.04.195-.304.466-.542.814-.715a2.69 2.69 0 011.205-.258c.488-.004.884-.024 1.188-.061.304-.04.565-.097.781-.17.22-.073.444-.16.671-.259zm-2.64 1.166c-.466 0-.81.127-1.034.38-.22.249-.33.568-.33.957 0 .392.114.715.341.968.227.253.576.379 1.045.379.41 0 .722-.119.935-.357.216-.238.325-.57.325-.996 0-.436-.109-.766-.325-.99-.213-.227-.532-.341-.957-.341zm6.783-2.882v6.694c0 .286.088.489.264.61.18.118.41.176.693.176.176 0 .343-.018.5-.055a3.3 3.3 0 00.473-.148l.248.676a3.048 3.048 0 01-.589.204 3.037 3.037 0 01-.786.094c-.514 0-.93-.142-1.249-.424-.319-.286-.478-.68-.478-1.183v-5.912h-1.777v-.732h2.7zm9.158 2.332l-2.035 5.831a5.07 5.07 0 01-.517 1.078 2.583 2.583 0 01-.808.808c-.33.216-.75.35-1.26.402l-.143-.737c.4-.066.715-.167.946-.303a1.56 1.56 0 00.545-.522c.136-.213.255-.468.357-.765h-.308l-2.024-5.792h.99l1.661 5.088 1.64-5.088h.956zm4.369-.121c.513 0 .922.125 1.226.374.308.25.53.602.666 1.056.135.451.203.979.203 1.584 0 .583-.082 1.104-.247 1.562-.162.455-.407.813-.737 1.073s-.746.391-1.249.391c-.634 0-1.144-.224-1.529-.672v2.762l-.924.115v-8.124h.787l.077.809c.212-.297.465-.526.759-.688a2 2 0 01.968-.242zm-.22.743c-.32 0-.602.097-.847.291a2.827 2.827 0 00-.6.638v2.871c.15.224.34.402.567.534.23.128.484.192.759.192.48 0 .841-.183 1.083-.55.242-.366.363-.936.363-1.71 0-.506-.047-.926-.143-1.26-.095-.337-.24-.588-.434-.753-.195-.169-.444-.253-.748-.253zm5.149-3.042V113c.227-.304.506-.531.836-.681a2.38 2.38 0 011.012-.232c.564 0 .977.151 1.237.451.26.301.39.719.39 1.254V118h-.923v-4.186c0-.348-.08-.601-.242-.759-.161-.161-.414-.242-.76-.242-.22 0-.428.05-.626.149a2.285 2.285 0 00-.534.368 2.579 2.579 0 00-.39.451V118h-.924v-8.113l.924-.099zm220.1 8.212v-7.574h.957v6.721h3.454l-.11.853h-4.301zm8.416-5.913c.546 0 1.003.125 1.369.374.371.246.647.594.831 1.045.187.451.28.983.28 1.595 0 .591-.095 1.113-.286 1.568a2.41 2.41 0 01-.841 1.072c-.367.257-.822.386-1.364.386-.543 0-.999-.125-1.37-.375a2.31 2.31 0 01-.841-1.05c-.187-.455-.281-.985-.281-1.59 0-.597.096-1.123.286-1.578.191-.455.471-.809.842-1.061.374-.257.832-.386 1.375-.386zm0 .754c-.499 0-.877.185-1.133.555-.253.367-.38.939-.38 1.716 0 .763.125 1.33.374 1.7.253.37.629.555 1.128.555.498 0 .872-.185 1.122-.555.253-.37.379-.941.379-1.711 0-.77-.124-1.338-.374-1.705-.249-.37-.621-.555-1.116-.555zm9.098-1.249l.286.869a3.346 3.346 0 01-.787.143 13.39 13.39 0 01-.907.028c.334.154.585.354.753.599.169.242.253.528.253.858 0 .382-.086.721-.258 1.018-.172.297-.422.53-.748.698-.323.169-.713.253-1.172.253a3.71 3.71 0 01-.489-.027 2.442 2.442 0 01-.374-.083.717.717 0 00-.22.242.669.669 0 00-.083.319c0 .14.055.255.165.347.11.092.314.137.611.137h1.045c.389 0 .737.07 1.045.209.312.14.555.327.731.561.18.235.27.503.27.804 0 .568-.242 1.004-.726 1.309-.48.304-1.161.456-2.041.456-.616 0-1.101-.064-1.457-.192-.356-.125-.611-.318-.765-.578-.15-.257-.225-.581-.225-.973h.836c0 .223.044.408.132.555.088.147.247.255.478.325.231.073.563.11.996.11.425 0 .772-.037 1.039-.11.272-.07.472-.176.6-.319a.732.732 0 00.198-.523c0-.275-.125-.482-.374-.621-.249-.14-.561-.21-.935-.21h-1.034c-.499 0-.867-.11-1.106-.33-.234-.22-.352-.473-.352-.759 0-.187.054-.368.16-.544a1.54 1.54 0 01.478-.468c-.333-.176-.579-.394-.737-.654-.157-.26-.236-.576-.236-.946 0-.392.097-.739.291-1.04.195-.304.466-.542.814-.715a2.69 2.69 0 011.205-.258c.488-.004.884-.024 1.188-.061.304-.04.565-.097.781-.17.22-.073.444-.16.671-.259zm-2.64 1.166c-.466 0-.81.127-1.034.38-.22.249-.33.568-.33.957 0 .392.114.715.341.968.227.253.576.379 1.045.379.411 0 .722-.119.935-.357.216-.238.324-.57.324-.996 0-.436-.108-.766-.324-.99-.213-.227-.532-.341-.957-.341zm6.733-.671c.546 0 1.003.125 1.37.374.37.246.647.594.83 1.045.187.451.281.983.281 1.595 0 .591-.096 1.113-.286 1.568a2.419 2.419 0 01-.842 1.072c-.367.257-.821.386-1.364.386-.543 0-.999-.125-1.369-.375a2.312 2.312 0 01-.842-1.05c-.187-.455-.28-.985-.28-1.59 0-.597.095-1.123.286-1.578.19-.455.471-.809.841-1.061.374-.257.832-.386 1.375-.386zm0 .754c-.499 0-.876.185-1.133.555-.253.367-.379.939-.379 1.716 0 .763.124 1.33.374 1.7.253.37.628.555 1.127.555s.873-.185 1.122-.555c.253-.37.38-.941.38-1.711 0-.77-.125-1.338-.374-1.705-.25-.37-.622-.555-1.117-.555zm15.584 4.867a2.378 2.378 0 01-.72.309 3.32 3.32 0 01-.831.11c-.623 0-1.104-.164-1.441-.49-.337-.326-.506-.746-.506-1.26v-3.454h-1.331v-.715h1.331v-1.314l.924-.11v1.424h2.002l-.11.715h-1.892v3.443c0 .323.084.569.253.737.172.169.457.253.853.253.216 0 .416-.025.599-.077.183-.051.354-.117.512-.198l.357.627zm2.724-2.277c.018.448.104.814.258 1.1.154.283.358.492.611.627.253.132.528.198.825.198.297 0 .564-.044.803-.132a3.39 3.39 0 00.742-.39l.435.61c-.272.213-.581.38-.93.501a3.177 3.177 0 01-1.061.182c-.561 0-1.04-.127-1.436-.38a2.435 2.435 0 01-.907-1.056c-.206-.455-.308-.981-.308-1.579 0-.586.104-1.107.313-1.562.209-.454.503-.812.88-1.072.378-.26.823-.391 1.337-.391.487 0 .907.116 1.259.347.352.227.622.554.809.979.19.422.286.926.286 1.512a6.215 6.215 0 01-.022.506h-3.894zm1.573-2.585c-.429 0-.789.153-1.078.457-.286.304-.449.775-.49 1.413h3.02c-.011-.619-.147-1.085-.407-1.397-.261-.315-.609-.473-1.045-.473zm4.857 5.154h-1.056l2.14-3.058-1.876-2.734h1.095l1.342 2.156 1.358-2.156h1.056l-1.87 2.695 2.134 3.097h-1.133l-1.584-2.486-1.606 2.486zm10.633-.292a2.378 2.378 0 01-.72.309 3.32 3.32 0 01-.831.11c-.623 0-1.104-.164-1.441-.49-.337-.326-.506-.746-.506-1.26v-3.454h-1.331v-.715h1.331v-1.314l.924-.11v1.424h2.002l-.11.715h-1.892v3.443c0 .323.084.569.253.737.172.169.457.253.853.253.216 0 .416-.025.599-.077.183-.051.354-.117.512-.198l.357.627z" fill="#211541"/><path fill-rule="evenodd" clip-rule="evenodd" d="M134 43h-3v8h-8v3h8v8h3v-8h8v-3h-8v-8z" fill="#211541"/></svg>