<svg width="79" height="78" fill="none" xmlns="http://www.w3.org/2000/svg"><g filter="url(#filter0_d_206_541)"><circle cx="39.5" cy="35" r="31" fill="#fff"/></g><path d="M53.914 41.01l-1.415-1.413 4.6-4.6-4.6-4.6 1.415-1.407 6.01 6.01-6.009 6.01h-.001zm-5.425 0l-1.414-1.413 4.6-4.6-4.6-4.593 1.414-1.414L54.5 35l-6.01 6.01h-.001zm-23.404 0L19.075 35l6.01-6.01 1.415 1.414-4.6 4.6 4.6 4.6-1.414 1.406h-.001zm5.425 0L24.499 35l6.011-6.01 1.414 1.414-4.6 4.6 4.6 4.6-1.413 1.406h-.001z" fill="#8275FF"/><defs><filter id="filter0_d_206_541" x=".5" y="0" width="78" height="78" filterUnits="userSpaceOnUse" color-interpolation-filters="sRGB"><feFlood flood-opacity="0" result="BackgroundImageFix"/><feColorMatrix in="SourceAlpha" values="0 0 0 0 0 0 0 0 0 0 0 0 0 0 0 0 0 0 127 0" result="hardAlpha"/><feOffset dy="4"/><feGaussianBlur stdDeviation="4"/><feComposite in2="hardAlpha" operator="out"/><feColorMatrix values="0 0 0 0 0.129412 0 0 0 0 0.0823529 0 0 0 0 0.254902 0 0 0 0.24 0"/><feBlend in2="BackgroundImageFix" result="effect1_dropShadow_206_541"/><feBlend in="SourceGraphic" in2="effect1_dropShadow_206_541" result="shape"/></filter></defs></svg>