<svg width="312" height="148" fill="none" xmlns="http://www.w3.org/2000/svg"><path fill-rule="evenodd" clip-rule="evenodd" d="M145.679 0c-6.344 0-11.487 5.143-11.487 11.486v28.477h5.624V20.7h5.863v-5.624h-5.863v-3.59a5.863 5.863 0 015.863-5.862V0zm15.614 0c-6.343 0-11.486 5.143-11.486 11.486v28.477h5.624V20.7h5.862v-5.624h-5.862v-3.59a5.862 5.862 0 015.862-5.862V0zm-50.552 1.256v13.82h-6.162c-6.872 0-12.444 5.571-12.444 12.444v.329c0 6.69 5.424 12.114 12.115 12.114s12.115-5.424 12.115-12.114V1.256h-5.624zM104.579 20.7h6.162v7.149a6.491 6.491 0 11-12.982 0v-.33a6.82 6.82 0 016.82-6.82zm64.133 6.82a6.82 6.82 0 016.82-6.82h4.846v-5.624h-4.846c-6.873 0-12.444 5.571-12.444 12.444 0 6.872 5.571 12.443 12.444 12.443h4.846V34.34h-4.846a6.82 6.82 0 01-6.82-6.82zm19.742 0a6.82 6.82 0 1113.64 0 6.82 6.82 0 01-13.64 0zm6.82-12.444c-6.872 0-12.443 5.571-12.443 12.444 0 6.872 5.571 12.443 12.443 12.443 6.873 0 12.444-5.57 12.444-12.443 0-6.873-5.571-12.444-12.444-12.444zM128.09 39.963v-20.58h-5.623v20.58h5.623zm.959-28.814a3.949 3.949 0 10-7.897 0 3.949 3.949 0 007.897 0zm90.816 24.902a3.949 3.949 0 10-7.897.001 3.949 3.949 0 007.897 0z" fill="#fff"/><path d="M147 56l18 18m-18 0l18-18" stroke="#fff" stroke-width="2" stroke-linecap="round" stroke-linejoin="round"/><path fill-rule="evenodd" clip-rule="evenodd" d="M27.912 90L1.059 100.742l8.964 3.667 17.882-7.157 17.73 7.069 9.078-3.631L27.912 90zm1.816 49.934v7.833l6.067-2.436 3.033-1.218v-7.833l-3.033 1.218-6.067 2.436zm0-4.833v-7.834l15.167-6.127v7.834l-15.167 6.127zm0-21.437l26.014-10.454v8.282l-26.014 10.454v-8.282zM.21 103.178l25.966 10.448v8.32h-6.677v-3.799l-12.612-5.075v6.376l19.289 7.761V148L.21 137.552v-7.485h6.677v2.964l12.612 5.074v-6.375L.21 123.969v-20.791zm211.646 5.886c0-2.442.969-3.662 2.908-3.662 1.328 0 2.747.287 4.255.861l2.208-4.793c-2.226-1.149-4.524-1.723-6.894-1.723-1.041 0-2.028.107-2.962.323-.934.215-1.921.628-2.962 1.238-1.041.575-1.885 1.508-2.531 2.801-.611 1.293-.916 2.89-.916 4.793v.97h-3.393v5.924h3.393v22.082h6.894v-22.082h6.732v-5.924h-6.732v-.808zm-91.584 3.554c-2.047-2.01-4.524-3.016-7.433-3.016-2.621 0-4.811.701-6.57 2.101-1.724 1.364-2.657 2.621-2.801 3.77v-15.296h-6.894v37.701h6.894v-15.781c.215-1.184 1.041-2.567 2.477-4.147 1.473-1.615 3.268-2.423 5.386-2.423 3.411 0 5.117 2.208 5.117 6.624v15.727h6.893V121.72c0-4.093-1.023-7.127-3.069-9.102zm-36.595 2.747c1.723 0 3.124.862 4.201 2.585l6.194-1.561c-2.011-4.56-5.53-6.84-10.556-6.84-2.693 0-5.01.736-6.948 2.208-1.903 1.472-2.855 3.411-2.855 5.816 0 2.011.629 3.609 1.886 4.794 1.292 1.185 3.32 2.298 6.085 3.339l3.447 1.292c1.724.575 2.585 1.455 2.585 2.639 0 .826-.395 1.49-1.184 1.993-.79.503-1.706.754-2.747.754a7.106 7.106 0 01-3.393-.862 5.34 5.34 0 01-2.316-2.477l-5.763 1.777c.61 2.334 1.993 4.165 4.147 5.494 2.19 1.292 4.632 1.939 7.325 1.939 2.836 0 5.404-.754 7.701-2.262 2.298-1.508 3.447-3.591 3.447-6.248 0-1.292-.215-2.405-.646-3.339-.395-.934-1.06-1.723-1.993-2.37-.897-.646-1.687-1.113-2.37-1.4-.682-.323-1.705-.736-3.07-1.239l-3.5-1.238c-1.652-.611-2.478-1.491-2.478-2.639 0-.647.27-1.167.808-1.562.539-.395 1.203-.593 1.993-.593zm54.707-5.816c2.047 0 3.806.448 5.278 1.346 1.472.898 2.298 1.813 2.478 2.747v-3.77h6.893v28.006h-6.893v-4.147c-.18.969-1.024 1.974-2.532 3.016-1.472 1.005-3.213 1.508-5.224 1.508-1.508 0-3.016-.288-4.524-.862-1.508-.61-2.926-1.472-4.255-2.585-1.292-1.149-2.351-2.675-3.177-4.578-.79-1.903-1.185-4.021-1.185-6.355 0-2.298.395-4.381 1.185-6.248.826-1.867 1.885-3.375 3.177-4.524 1.293-1.149 2.693-2.028 4.201-2.639 1.508-.61 3.034-.915 4.578-.915zm1.077 5.924c-1.939 0-3.644.772-5.116 2.316-1.472 1.508-2.208 3.536-2.208 6.086 0 2.585.736 4.649 2.208 6.193 1.472 1.508 3.177 2.262 5.116 2.262 1.939 0 3.591-.7 4.955-2.1 1.364-1.436 2.047-3.555 2.047-6.355 0-2.873-.683-4.991-2.047-6.355-1.328-1.365-2.98-2.047-4.955-2.047zm34.918-5.709c-.647-.108-1.473-.162-2.478-.162-2.801 0-4.973.844-6.517 2.532-1.508 1.687-2.423 3.895-2.746 6.624v-8.886h-6.894v28.006h6.894v-12.603c.251-2.801 1.22-5.027 2.908-6.678 1.723-1.688 3.824-2.532 6.301-2.532 1.113 0 1.957.036 2.532.108v-6.409zm13.315-.215c1.543 0 3.105.305 4.685.915a15.297 15.297 0 014.47 2.639c1.401 1.113 2.532 2.621 3.393 4.524.898 1.903 1.347 4.004 1.347 6.302 0 .897-.054 1.741-.162 2.531h-20.681c.359 1.795 1.239 3.231 2.639 4.308 1.4 1.042 2.89 1.562 4.47 1.562 2.37 0 4.201-.7 5.494-2.1l5.655 2.962c-2.909 3.375-6.643 5.063-11.203 5.063-1.185 0-2.423-.18-3.716-.539-1.257-.359-2.513-.916-3.77-1.67a16.935 16.935 0 01-3.393-2.8c-.969-1.113-1.759-2.478-2.37-4.093-.61-1.616-.915-3.357-.915-5.224 0-3.052.754-5.709 2.262-7.971 1.544-2.262 3.357-3.896 5.439-4.901 2.083-1.006 4.201-1.508 6.356-1.508zm0 5.978c-1.616 0-3.07.502-4.363 1.508-1.293 1.005-2.136 2.423-2.531 4.255h13.841c-.395-1.832-1.275-3.25-2.639-4.255-1.328-1.006-2.765-1.508-4.308-1.508zm48.462-5.925c1.005 0 1.831.054 2.477.162v6.409c-.574-.072-1.418-.108-2.531-.108-2.478 0-4.578.844-6.302 2.532-1.687 1.651-2.657 3.877-2.908 6.678v12.603h-6.894v-28.006h6.894v8.886c.323-2.729 1.239-4.937 2.747-6.624 1.544-1.688 3.716-2.532 6.517-2.532zm15.847-.053c-1.508 0-3.07.305-4.685.915-1.616.611-3.142 1.49-4.578 2.639-1.437 1.113-2.621 2.621-3.555 4.524-.898 1.903-1.346 4.004-1.346 6.302 0 1.867.305 3.608.915 5.224.611 1.615 1.4 2.98 2.37 4.093a16.935 16.935 0 003.393 2.8c1.257.754 2.513 1.311 3.77 1.67 1.292.359 2.531.539 3.716.539s2.406-.18 3.662-.539c1.293-.359 2.568-.916 3.824-1.67a15.676 15.676 0 003.339-2.8c1.006-1.113 1.814-2.478 2.424-4.093.61-1.616.916-3.357.916-5.224 0-2.298-.467-4.399-1.401-6.302-.897-1.903-2.064-3.411-3.5-4.524-1.437-1.149-2.963-2.028-4.578-2.639-1.616-.61-3.178-.915-4.686-.915zm0 5.924c1.903 0 3.591.754 5.063 2.262 1.472 1.508 2.208 3.572 2.208 6.194 0 2.585-.736 4.631-2.208 6.139-1.472 1.508-3.16 2.262-5.063 2.262-1.903 0-3.59-.754-5.062-2.262-1.473-1.508-2.209-3.554-2.209-6.139 0-2.622.736-4.686 2.209-6.194 1.472-1.508 3.159-2.262 5.062-2.262zm32.608-5.871c2.908 0 5.386 1.006 7.432 3.016 2.047 1.975 3.07 5.009 3.07 9.102v16.158h-6.894v-15.727c0-4.416-1.705-6.624-5.116-6.624-2.119 0-3.914.808-5.386 2.423-1.436 1.58-2.262 2.963-2.477 4.147v15.781h-6.894v-28.006h6.894v5.601c.143-1.149 1.077-2.406 2.8-3.77 1.76-1.4 3.95-2.101 6.571-2.101zm21.255 5.871h5.924v-5.601h-5.924v-4.847h-6.894v4.847h-2.908v5.601h2.908v14.218c0 3.268.664 5.512 1.993 6.732 1.328 1.185 3.16 1.778 5.493 1.778 2.262 0 4.04-.323 5.332-.97v-5.655a9.629 9.629 0 01-3.662.7c-1.508 0-2.262-.897-2.262-2.692v-14.111z" fill="#fff"/></svg>