<svg width="552" height="58" fill="none" xmlns="http://www.w3.org/2000/svg"><path fill-rule="evenodd" clip-rule="evenodd" d="M53.889 9c-6.344 0-11.486 5.143-11.486 11.486v28.477h5.623V29.7h5.863v-5.624h-5.863v-3.59a5.863 5.863 0 015.863-5.862V9zm15.614 0c-6.343 0-11.486 5.143-11.486 11.486v28.477h5.623V29.7h5.863v-5.624h-5.862v-3.59a5.863 5.863 0 015.862-5.862V9zm-50.552 1.256v13.82h-6.162C5.916 24.076.345 29.647.345 36.52v.329c0 6.69 5.424 12.114 12.115 12.114 6.69 0 12.114-5.424 12.114-12.114V10.256h-5.623zM12.789 29.7h6.162v7.149a6.491 6.491 0 11-12.982 0v-.33a6.82 6.82 0 016.82-6.82zm64.133 6.82a6.82 6.82 0 016.82-6.82h4.846v-5.624h-4.846c-6.873 0-12.444 5.571-12.444 12.444 0 6.872 5.571 12.443 12.444 12.443h4.846V43.34h-4.846a6.82 6.82 0 01-6.82-6.82zm19.742 0a6.82 6.82 0 1113.64 0 6.82 6.82 0 01-13.64 0zm6.82-12.444c-6.872 0-12.444 5.571-12.444 12.444 0 6.872 5.572 12.443 12.444 12.443 6.873 0 12.444-5.57 12.444-12.443 0-6.873-5.571-12.444-12.444-12.444zM36.3 48.963v-20.58h-5.623v20.58H36.3zm.959-28.814a3.948 3.948 0 10-7.897 0 3.948 3.948 0 007.897 0zm90.816 24.902a3.949 3.949 0 10-7.897.001 3.949 3.949 0 007.897 0z" fill="#fff"/><path d="M175.075 20l18 18m-18 0l18-18" stroke="#fff" stroke-width="2" stroke-linecap="round" stroke-linejoin="round"/><path fill-rule="evenodd" clip-rule="evenodd" d="M267.777 0l-26.854 10.742 8.965 3.667 17.882-7.157 17.731 7.069 9.077-3.63L267.777 0zm1.815 49.934v7.833l6.067-2.436 3.034-1.218V46.28l-3.034 1.218-6.067 2.436zm.001-4.833v-7.834l15.167-6.127v7.834L269.593 45.1zm0-21.437l26.014-10.454v8.282l-26.014 10.454v-8.282zm-29.518-10.486l25.966 10.448v8.32h-6.677v-3.799l-12.612-5.075v6.376l19.289 7.761V58l-25.966-10.448v-7.484h6.677v2.964l12.612 5.075V41.73l-19.289-7.761V13.178zm211.645 5.886c0-2.442.97-3.662 2.909-3.662 1.328 0 2.746.287 4.254.861l2.209-4.793c-2.226-1.149-4.524-1.723-6.894-1.723-1.041 0-2.029.107-2.962.323-.934.215-1.921.628-2.962 1.238-1.042.575-1.885 1.508-2.532 2.801-.61 1.293-.915 2.89-.915 4.793v.97h-3.393v5.924h3.393v22.082h6.893V25.796h6.733v-5.924h-6.733v-.808zm-91.584 3.555c-2.046-2.011-4.524-3.017-7.432-3.017-2.621 0-4.811.7-6.571 2.1-1.723 1.365-2.657 2.622-2.8 3.77V10.178h-6.894v37.7h6.894v-15.78c.215-1.184 1.041-2.567 2.477-4.147 1.472-1.615 3.268-2.423 5.386-2.423 3.411 0 5.116 2.208 5.116 6.624v15.727h6.894V31.72c0-4.093-1.023-7.127-3.07-9.101zm-36.594 2.746c1.723 0 3.124.862 4.201 2.585l6.193-1.561c-2.01-4.56-5.529-6.84-10.556-6.84-2.693 0-5.008.736-6.947 2.208-1.903 1.472-2.855 3.41-2.855 5.816 0 2.011.629 3.609 1.885 4.794 1.293 1.185 3.321 2.298 6.086 3.339l3.447 1.292c1.723.575 2.585 1.455 2.585 2.64 0 .825-.395 1.49-1.185 1.992-.79.503-1.705.754-2.746.754a7.112 7.112 0 01-3.393-.861 5.335 5.335 0 01-2.316-2.478l-5.763 1.777c.61 2.334 1.993 4.165 4.147 5.494 2.19 1.292 4.632 1.939 7.325 1.939 2.836 0 5.403-.754 7.701-2.262s3.447-3.59 3.447-6.248c0-1.292-.215-2.405-.646-3.339-.395-.934-1.059-1.723-1.993-2.37-.898-.646-1.688-1.113-2.37-1.4-.682-.323-1.705-.736-3.07-1.239l-3.5-1.238c-1.652-.61-2.478-1.49-2.478-2.64 0-.646.27-1.166.808-1.561.539-.395 1.203-.593 1.993-.593zm54.707-5.816c2.046 0 3.806.448 5.278 1.346 1.472.898 2.298 1.813 2.477 2.747v-3.77h6.894v28.006h-6.894V43.73c-.179.969-1.023 1.974-2.531 3.016-1.472 1.005-3.214 1.508-5.224 1.508-1.508 0-3.016-.288-4.524-.862-1.508-.61-2.926-1.472-4.255-2.585-1.293-1.15-2.352-2.675-3.178-4.578-.789-1.903-1.184-4.021-1.184-6.355 0-2.298.395-4.38 1.184-6.248.826-1.867 1.885-3.375 3.178-4.524s2.693-2.028 4.201-2.639c1.508-.61 3.034-.915 4.578-.915zm1.077 5.924c-1.939 0-3.644.772-5.117 2.316-1.472 1.508-2.208 3.536-2.208 6.086 0 2.585.736 4.65 2.208 6.193 1.473 1.508 3.178 2.262 5.117 2.262s3.59-.7 4.955-2.1c1.364-1.436 2.046-3.555 2.046-6.355 0-2.873-.682-4.991-2.046-6.355-1.329-1.365-2.98-2.047-4.955-2.047zm34.917-5.709c-.646-.108-1.472-.162-2.477-.162-2.801 0-4.973.844-6.517 2.532-1.508 1.687-2.424 3.895-2.747 6.624v-8.886h-6.893v28.006h6.893V35.275c.252-2.8 1.221-5.027 2.909-6.678 1.723-1.688 3.824-2.532 6.301-2.532 1.113 0 1.957.036 2.531.108v-6.409zm13.315-.215c1.544 0 3.106.305 4.686.915 1.616.61 3.106 1.49 4.47 2.64 1.4 1.112 2.531 2.62 3.393 4.523.898 1.903 1.346 4.004 1.346 6.302 0 .897-.053 1.74-.161 2.53h-20.681c.359 1.796 1.238 3.232 2.639 4.31 1.4 1.04 2.89 1.561 4.47 1.561 2.37 0 4.201-.7 5.493-2.1l5.655 2.962c-2.908 3.375-6.642 5.063-11.202 5.063-1.185 0-2.424-.18-3.716-.539-1.257-.359-2.514-.916-3.77-1.67a16.965 16.965 0 01-3.393-2.8c-.97-1.113-1.76-2.478-2.37-4.093-.61-1.616-.916-3.357-.916-5.224 0-3.052.754-5.71 2.262-7.971 1.544-2.262 3.358-3.896 5.44-4.901 2.083-1.006 4.201-1.508 6.355-1.508zm0 5.978c-1.615 0-3.07.502-4.362 1.508-1.293 1.005-2.137 2.423-2.532 4.255h13.842c-.395-1.832-1.275-3.25-2.639-4.255-1.329-1.006-2.765-1.508-4.309-1.508zm48.462-5.925c1.006 0 1.831.054 2.478.162v6.41c-.575-.073-1.419-.109-2.532-.109-2.477 0-4.577.844-6.301 2.532-1.687 1.651-2.657 3.877-2.908 6.678v12.603h-6.894V19.872h6.894v8.886c.323-2.729 1.239-4.937 2.747-6.624 1.543-1.688 3.716-2.532 6.516-2.532zm15.848-.053c-1.508 0-3.07.305-4.686.915-1.615.61-3.141 1.49-4.578 2.64-1.436 1.112-2.621 2.62-3.554 4.523-.898 1.903-1.347 4.004-1.347 6.302 0 1.867.306 3.608.916 5.224.61 1.615 1.4 2.98 2.37 4.093a16.965 16.965 0 003.393 2.8c1.256.755 2.513 1.311 3.77 1.67 1.292.36 2.531.539 3.716.539s2.405-.18 3.662-.539c1.293-.359 2.567-.916 3.824-1.67a15.702 15.702 0 003.339-2.8c1.006-1.113 1.813-2.478 2.424-4.093.61-1.616.915-3.357.915-5.224 0-2.298-.466-4.399-1.4-6.302-.898-1.903-2.064-3.41-3.501-4.524-1.436-1.149-2.962-2.028-4.578-2.639-1.615-.61-3.177-.915-4.685-.915zm0 5.924c1.903 0 3.59.754 5.062 2.262 1.473 1.508 2.209 3.573 2.209 6.194 0 2.585-.736 4.631-2.209 6.14-1.472 1.507-3.159 2.261-5.062 2.261-1.903 0-3.591-.754-5.063-2.262-1.472-1.508-2.208-3.554-2.208-6.14 0-2.62.736-4.685 2.208-6.193 1.472-1.508 3.16-2.262 5.063-2.262zm32.608-5.87c2.908 0 5.385 1.005 7.432 3.015 2.046 1.975 3.07 5.01 3.07 9.102v16.158h-6.894V32.15c0-4.416-1.705-6.624-5.116-6.624-2.119 0-3.914.808-5.386 2.423-1.436 1.58-2.262 2.963-2.478 4.147v15.78h-6.893V19.873h6.893v5.6c.144-1.148 1.078-2.405 2.801-3.77 1.759-1.4 3.95-2.1 6.571-2.1zm21.255 5.87h5.924v-5.601h-5.924v-4.847h-6.894v4.847h-2.908v5.6h2.908v14.22c0 3.267.664 5.51 1.993 6.731 1.328 1.185 3.159 1.778 5.493 1.778 2.262 0 4.039-.323 5.332-.97v-5.655c-1.149.467-2.37.7-3.662.7-1.508 0-2.262-.897-2.262-2.692V25.473z" fill="#fff"/></svg>