<svg width="49" height="48" fill="none" xmlns="http://www.w3.org/2000/svg"><g clip-path="url(#clip0_71_270)" fill="#342559"><path d="M24.208 28.404a4.37 4.37 0 100-8.74 4.37 4.37 0 000 8.74z"/><path d="M24.208 40.105c3.43 3.336 6.813 5.31 9.539 5.31.892 0 1.738-.188 2.443-.611 2.444-1.41 3.336-4.934 2.49-9.962a31.292 31.292 0 00-.563-2.725c.94-.282 1.785-.564 2.631-.846 4.746-1.833 7.378-4.37 7.378-7.143 0-2.819-2.632-5.356-7.378-7.142a21.533 21.533 0 00-2.631-.846c.235-.94.423-1.832.564-2.725.798-5.122-.094-8.693-2.538-10.103-.705-.423-1.55-.61-2.443-.61-2.679 0-6.109 1.973-9.54 5.31-3.382-3.337-6.766-5.31-9.491-5.31-.893 0-1.739.187-2.443.61-2.444 1.41-3.337 4.934-2.49 9.962.14.893.328 1.786.563 2.725a87.5 87.5 0 00-2.631.846C2.922 18.678.29 21.215.29 23.988c0 2.819 2.632 5.356 7.378 7.142.845.329 1.691.61 2.631.846-.235.94-.423 1.832-.564 2.725-.799 5.028.094 8.6 2.49 9.962.705.423 1.551.61 2.444.61 2.725.095 6.109-1.879 9.539-5.168zm-2.631-6.344c.845.047 1.738.047 2.63.047.894 0 1.787 0 2.632-.047-.845 1.128-1.738 2.162-2.631 3.149-.893-.987-1.786-2.021-2.631-3.149zm-5.827-4.84c.47.8.893 1.551 1.41 2.303a50.406 50.406 0 01-4.136-.705 49.968 49.968 0 011.457-3.9c.376.752.799 1.55 1.269 2.302zm-2.726-11.324a50.406 50.406 0 014.136-.705c-.47.752-.94 1.504-1.41 2.303-.47.798-.893 1.55-1.269 2.349a31.406 31.406 0 01-1.457-3.947zm2.585 6.438a49.72 49.72 0 012.02-3.807c.705-1.221 1.504-2.443 2.303-3.665 1.41-.094 2.82-.14 4.276-.14 1.504 0 2.913.046 4.276.14a52.355 52.355 0 012.302 3.665 49.718 49.718 0 012.02 3.806 49.717 49.717 0 01-2.02 3.807c-.705 1.221-1.503 2.443-2.302 3.665-1.41.094-2.82.14-4.276.14a61.87 61.87 0 01-4.276-.14 52.317 52.317 0 01-2.303-3.665 49.718 49.718 0 01-2.02-3.806zm18.373-2.538l-1.269-2.35c-.47-.798-.893-1.55-1.41-2.302 1.457.188 2.82.423 4.135.705a44.659 44.659 0 01-1.456 3.947zm0 5.075a50.007 50.007 0 011.456 3.9 50.41 50.41 0 01-4.135.705c.47-.752.94-1.504 1.41-2.303.423-.704.846-1.503 1.269-2.302zm1.08 16.305c-.375.235-.845.33-1.362.33-2.303 0-5.17-1.88-7.989-4.7 1.363-1.456 2.679-3.101 3.995-4.934a43.025 43.025 0 006.296-.986c.235.845.376 1.691.517 2.537.658 3.994.141 6.86-1.457 7.753zm2.444-24.763c5.263 1.503 8.411 3.806 8.411 5.92 0 1.833-2.162 3.666-5.968 5.122-.752.282-1.597.564-2.443.8a49.392 49.392 0 00-2.303-5.921c.94-2.021 1.739-3.995 2.303-5.921zm-3.76-13.251c.518 0 .94.094 1.363.329 1.551.893 2.115 3.712 1.457 7.753-.14.799-.329 1.645-.517 2.537a60.998 60.998 0 00-6.296-.986 43.41 43.41 0 00-3.994-4.934c2.819-2.773 5.685-4.7 7.988-4.7zm-6.907 9.445c-.845-.047-1.738-.047-2.631-.047-.893 0-1.786 0-2.631.047.845-1.128 1.738-2.162 2.63-3.149a58.264 58.264 0 012.632 3.149zM13.353 5.192c.376-.235.846-.33 1.363-.33 2.303 0 5.169 1.88 7.988 4.7-1.363 1.456-2.678 3.101-3.994 4.934a43.04 43.04 0 00-6.296.986c-.235-.845-.376-1.691-.517-2.537-.658-3.994-.141-6.813 1.456-7.753zM10.91 29.955c-5.263-1.503-8.411-3.806-8.411-5.92 0-1.833 2.161-3.666 5.967-5.122a29.858 29.858 0 012.444-.8c.61 1.927 1.363 3.9 2.302 5.922-.94 2.02-1.738 4.04-2.302 5.92zm.987 5.169c.14-.799.329-1.645.517-2.538 1.973.423 4.088.752 6.296.987a43.414 43.414 0 003.994 4.934c-2.82 2.773-5.686 4.7-7.988 4.7-.517 0-.94-.095-1.363-.33-1.597-.893-2.114-3.759-1.456-7.753z"/></g><defs><clipPath id="clip0_71_270"><path fill="#fff" transform="translate(.25)" d="M0 0h48v48H0z"/></clipPath></defs></svg>