<svg width="61" height="48" fill="none" xmlns="http://www.w3.org/2000/svg"><g clip-path="url(#clip0_71_274)"><path d="M17.663 19.032c-.067 2.124.994 3.064 1.02 3.661a.765.765 0 01-.384.588l-1.2.84a1 1 0 01-.528.18c-.04-.002-.768.172-1.92-2.401a7.37 7.37 0 01-5.87 2.761c-1.526.083-5.662-.866-5.45-5.27-.148-3.588 3.194-5.818 6.65-5.63.666.003 2.026.035 4.406.588v-1.464c.252-2.48-1.378-4.405-4.201-4.117-.225.001-1.819-.046-4.298.948-.69.317-.778.265-1.007.265-.695 0-.41-2.014-.276-2.27.488-.6 3.362-1.72 6.182-1.703a7.206 7.206 0 015.22 1.62 6.59 6.59 0 011.657 4.908v6.496zM9.562 22.07c3.04-.044 4.327-1.872 4.62-2.857.231-.942.193-1.538.193-2.569a16.114 16.114 0 00-3.71-.456c-1.42-.107-4.013.528-3.912 3.024-.116 1.574 1.042 2.944 2.809 2.858zm16.023 2.16c-.737.068-1.08-.455-1.189-.971L19.729 7.822a3.574 3.574 0 01-.18-.805.432.432 0 01.362-.492c.022-.004-.2 0 2.086 0 .823-.082 1.09.565 1.176.972L26.521 20.7 29.63 7.497c.05-.302.275-1.038 1.2-.96h1.608c.204-.017 1.042-.047 1.19.972l3.132 13.372 3.457-13.372c.045-.204.255-1.066 1.189-.972h1.848c.08-.012.577-.076.492.805-.04.173.32-1-4.945 15.928-.108.516-.452 1.04-1.189.972H35.86c-1.025.108-1.173-.906-1.188-1.008l-3.11-12.856-3.072 12.843c-.015.102-.163 1.116-1.19 1.008h-1.715zm25.639.529c-.551 0-3.18-.029-5.377-1.153a1.2 1.2 0 01-.733-1.116v-1.01c0-.792.582-.647.828-.552.941.38 1.545.67 2.701.9 3.436.706 4.947-.216 5.318-.42 1.232-.732 1.33-2.408.492-3.277-.983-.824-1.452-.855-4.981-1.969-.435-.12-4.097-1.276-4.105-4.908-.058-2.648 2.348-5.267 6.517-5.246 1.188 0 4.353.388 5.21 1.465.126.196.19.426.18.66v.948c0 .416-.152.624-.457.624-.723-.08-2.005-1.047-4.609-1.008-.646-.034-3.74.085-3.6 2.341-.04 1.778 2.494 2.444 2.784 2.521 3.418 1.028 4.56 1.2 5.917 2.773 1.607 2.086.74 4.528.408 5.198-1.789 3.514-6.414 3.228-6.493 3.227zm3.769 9.83c-6.566 4.849-16.096 7.43-24.234 7.43a43.98 43.98 0 01-29.744-11.32c-.612-.552-.072-1.308.672-.887a59.753 59.753 0 0029.708 7.886 59.083 59.083 0 0022.649-4.645c1.104-.47 2.04.73.949 1.535zm2.736-3.12c-.84-1.08-5.557-.505-7.67-.253-.636.072-.744-.48-.167-.888 3.756-2.64 9.926-1.884 10.635-.996.708.887-.192 7.07-3.709 10.022-.54.457-1.056.216-.816-.384.79-1.992 2.567-6.42 1.727-7.502z" fill="#342559"/></g><defs><clipPath id="clip0_71_274"><path fill="#fff" transform="translate(.75)" d="M0 0h60v48H0z"/></clipPath></defs></svg>