<svg width="49" height="48" fill="none" xmlns="http://www.w3.org/2000/svg"><g clip-path="url(#clip0_71_278)"><path d="M48.25 24c0 13.256-10.744 24-24 24s-24-10.744-24-24 10.744-24 24-24 24 10.744 24 24zM34.744 8.878c-2.44.084-4.566 1.43-6.15 3.288-1.756 2.04-2.922 4.458-3.762 6.922-1.506-1.228-2.664-2.828-5.078-3.522a6.203 6.203 0 00-5.626 1.028 5.026 5.026 0 00-1.722 2.508c-.72 2.352.762 4.45 1.438 5.2l1.474 1.58c.3.308 1.038 1.12.678 2.276-.386 1.262-1.902 2.074-3.464 1.598-.696-.212-1.696-.732-1.468-1.46.09-.3.304-.526.42-.782.104-.22.154-.388.19-.484.282-.93-.106-2.14-1.102-2.446-.93-.286-1.878-.06-2.25 1.132-.418 1.36.234 3.826 3.72 4.898 4.08 1.256 7.53-.968 8.018-3.864.306-1.814-.51-3.164-2.012-4.894l-1.224-1.354c-.742-.74-.994-2.004-.228-2.97.648-.818 1.57-1.168 3.078-.758 2.206.6 3.188 2.126 4.824 3.36-.676 2.22-1.12 4.446-1.518 6.444l-.246 1.492c-1.17 6.14-2.066 9.514-4.388 11.452-.468.332-1.14.832-2.146.868-.532.01-.704-.352-.71-.514-.012-.368.3-.542.51-.706.308-.166.78-.448.744-1.348-.032-1.064-.912-1.988-2.188-1.946-.954.034-2.406.93-2.352 2.572.056 1.7 1.638 2.97 4.024 2.888 1.276-.042 4.124-.562 6.928-3.898 3.266-3.822 4.18-8.202 4.868-11.412l.766-4.232c.426.048.882.084 1.38.096 4.064.088 6.098-2.02 6.128-3.552.02-.928-.608-1.842-1.488-1.82a1.697 1.697 0 00-1.612 1.308c-.188.856 1.292 1.626.136 2.378-.82.532-2.292.904-4.368.6l.376-2.084c.772-3.952 1.718-8.814 5.322-8.934.264-.014 1.224.012 1.246.646.006.21-.044.268-.294.75-.23.31-.348.69-.336 1.074.034 1.008.8 1.672 1.914 1.632 1.486-.046 1.91-1.496 1.89-2.238-.064-1.748-1.904-2.848-4.34-2.772z" fill="#342559"/></g><defs><clipPath id="clip0_71_278"><path fill="#fff" transform="translate(.25)" d="M0 0h48v48H0z"/></clipPath></defs></svg>