<svg width="165" height="48" fill="none" xmlns="http://www.w3.org/2000/svg"><path d="M33.574 11.883v10.021h-9.206v-10.02H20v23.92h4.369V26.11h9.203v9.695h4.37v-23.92h-4.368zm18.353 16.19a3.615 3.615 0 11-7.23 0V17.826h-4.145v10.247a7.752 7.752 0 0015.504 0V17.826h-4.13v10.247zm30.707-9.19c0-2.102 1.39-2.768 2.911-2.768 1.228 0 2.847.934 3.908 2.067l2.714-3.2c-1.355-1.832-4.103-3.098-6.353-3.098-4.497 0-7.748 2.633-7.748 6.998 0 8.1 9.898 5.529 9.898 10.062 0 1.398-1.357 2.632-2.91 2.632-2.452 0-3.246-1.198-4.372-2.465l-3.013 3.132c1.928 2.365 4.304 3.566 7.15 3.566 4.272 0 7.708-2.665 7.708-6.832 0-8.99-9.9-6.197-9.9-10.095h.007zm61.24 13.1c-2.448 0-3.145-1.06-3.145-2.682v-7.183h3.808v-3.64h-3.808v-4.8l-4.202 1.885v14.63c0 3.743 2.582 5.629 6.123 5.629a8.646 8.646 0 001.657-.132l1.025-3.775c-.462.032-.993.064-1.458.064v.004zM67.702 17.946c-2.053 0-3.486.595-4.871 1.954v-7.873h-4.15V26.62c0 5.462 3.949 9.206 8.387 9.206 4.924 0 9.255-3.81 9.255-8.939 0-5.065-3.986-8.939-8.621-8.939v-.003zm-.026 13.703a4.71 4.71 0 110-9.419 4.71 4.71 0 010 9.42zm45.098-4.979c0-5.138-4.321-8.938-9.254-8.938-4.438 0-8.388 3.742-8.388 9.206V41.54h4.15v-7.884c1.384 1.356 2.819 1.954 4.869 1.954 4.635 0 8.622-3.873 8.622-8.94h.001zm-3.93-.052a4.71 4.71 0 11-9.422 0 4.71 4.71 0 019.422 0z" fill="#342559"/><path d="M126.185 17.53v-4.17a3.212 3.212 0 001.852-2.894v-.096a3.212 3.212 0 00-3.212-3.211h-.096a3.21 3.21 0 00-3.211 3.211v.096a3.211 3.211 0 001.852 2.894v4.17a9.091 9.091 0 00-4.324 1.904l-11.437-8.908c.081-.294.124-.597.128-.9a3.613 3.613 0 00-4.317-3.557 3.617 3.617 0 00.695 7.167 3.576 3.576 0 001.781-.485l11.263 8.764a9.12 9.12 0 00.139 10.275l-3.425 3.427a2.949 2.949 0 00-.856-.14 2.97 2.97 0 00-2.099 5.073 2.972 2.972 0 005.072-2.1 2.892 2.892 0 00-.139-.855l3.389-3.39a9.14 9.14 0 0013.978-3.654 9.146 9.146 0 00.721-4.066 9.148 9.148 0 00-3.917-7.028 9.137 9.137 0 00-3.837-1.526zm-1.405 13.716a4.689 4.689 0 110-9.372 4.689 4.689 0 01.005 9.37" fill="#342559"/></svg>