<svg width="1280" height="196" fill="none" xmlns="http://www.w3.org/2000/svg"><rect x=".5" y=".5" width="152" height="195" rx="7.5" fill="#fff"/><path d="M104 44c0 10.667-10 18-10 18s-10-7-10-18c0-5.155 4.477-10 10-10s10 4.845 10 10z" fill="#EAE8FF"/><path d="M102.5 42c0 5.176-2.428 9.569-4.892 12.69a30.702 30.702 0 01-3.382 3.628 25.272 25.272 0 01-1.232 1.055 23.395 23.395 0 01-1.225-1.013 28.745 28.745 0 01-3.379-3.547C85.93 51.737 83.5 47.345 83.5 42c0-4.89 4.265-9.5 9.5-9.5s9.5 4.61 9.5 9.5z" stroke="#211541"/><circle cx="93" cy="42" r="4.5" stroke="#211541"/><path d="M67 57c0 10.667-10 18-10 18s-10-7-10-18c0-5.155 4.477-10 10-10s10 4.845 10 10z" fill="#FFD0D9"/><path d="M65.5 55c0 5.176-2.428 9.569-4.892 12.69a30.702 30.702 0 01-3.382 3.628 25.272 25.272 0 01-1.232 1.055 23.395 23.395 0 01-1.225-1.013 28.745 28.745 0 01-3.379-3.547C48.93 64.737 46.5 60.345 46.5 55c0-4.89 4.265-9.5 9.5-9.5s9.5 4.61 9.5 9.5z" fill="#EAE8FF" stroke="#211541"/><path d="M59 53l-6 6m0-6l6 6" stroke="#211541" stroke-linecap="round"/><path d="M74 62c0 10.667-10 18-10 18s-10-7-10-18c0-5.155 4.477-10 10-10s10 4.845 10 10z" fill="#EAE8FF"/><path d="M63.5 82c8.667 2.5 27 2.3 31-18.5" stroke="#211541" stroke-linecap="round" stroke-dasharray="3 3"/><path d="M72.5 61c0 5.176-2.428 9.569-4.892 12.69a30.702 30.702 0 01-3.382 3.628 25.272 25.272 0 01-1.232 1.055 23.395 23.395 0 01-1.225-1.013 28.745 28.745 0 01-3.379-3.547C55.93 70.737 53.5 66.345 53.5 61c0-4.89 4.265-9.5 9.5-9.5s9.5 4.61 9.5 9.5z" stroke="#211541"/><path d="M66 59l-6 6m0-6l6 6" stroke="#211541" stroke-linecap="round"/><path d="M67.98 104.4v2.376h-5.04v2.988h4.895v2.376H62.94V117h-2.484v-12.6h7.524zm2.601 2.52a1.411 1.411 0 01-1.422-1.422c0-.384.138-.72.414-1.008a1.382 1.382 0 011.008-.432c.396 0 .732.144 1.008.432.288.288.432.624.432 1.008s-.144.72-.432 1.008a1.372 1.372 0 01-1.008.414zm1.17 10.08H69.43v-9h2.322v9zm6.877-9.252c.996 0 1.806.33 2.43.99.648.672.972 1.584.972 2.736V117h-2.322v-5.238c0-.588-.162-1.044-.486-1.368-.311-.324-.743-.486-1.295-.486-.613 0-1.099.192-1.459.576-.347.372-.522.924-.522 1.656V117h-2.322v-9h2.323v1.008c.552-.84 1.445-1.26 2.681-1.26zm11.955 1.314V104.4h2.322V117h-2.322v-1.062c-.684.876-1.656 1.314-2.916 1.314-1.212 0-2.25-.456-3.114-1.368-.852-.924-1.278-2.052-1.278-3.384 0-1.32.426-2.442 1.278-3.366.864-.924 1.902-1.386 3.114-1.386 1.26 0 2.232.438 2.916 1.314zm-4.284 5.274c.492.468 1.092.702 1.8.702.72 0 1.314-.234 1.782-.702.468-.48.702-1.092.702-1.836s-.234-1.35-.702-1.818c-.468-.48-1.062-.72-1.782-.72s-1.32.24-1.8.72c-.468.468-.702 1.074-.702 1.818s.234 1.356.702 1.836zM42.106 141h-2.322v-13.14h2.322V141zm9.541-1.116c-.912.912-2.04 1.368-3.384 1.368-1.344 0-2.472-.456-3.384-1.368-.912-.912-1.368-2.04-1.368-3.384 0-1.332.456-2.454 1.368-3.366.924-.924 2.052-1.386 3.384-1.386 1.332 0 2.46.462 3.384 1.386.924.924 1.386 2.046 1.386 3.366 0 1.332-.462 2.46-1.386 3.384zm-5.13-1.602c.468.468 1.05.702 1.746.702s1.278-.234 1.746-.702c.468-.468.702-1.062.702-1.782s-.234-1.314-.702-1.782c-.468-.468-1.05-.702-1.746-.702s-1.278.234-1.746.702c-.456.48-.684 1.074-.684 1.782s.228 1.302.684 1.782zm12.182 2.97c-1.356 0-2.49-.456-3.402-1.368-.9-.912-1.35-2.04-1.35-3.384 0-1.344.45-2.472 1.35-3.384.912-.912 2.046-1.368 3.402-1.368.876 0 1.674.21 2.394.63.72.42 1.266.984 1.638 1.692l-1.998 1.17a2.023 2.023 0 00-.828-.882 2.332 2.332 0 00-1.224-.324c-.696 0-1.272.234-1.728.702-.456.456-.684 1.044-.684 1.764 0 .696.228 1.284.684 1.764.456.456 1.032.684 1.728.684.468 0 .882-.102 1.242-.306.372-.216.648-.51.828-.882l2.016 1.152c-.396.72-.96 1.29-1.692 1.71a4.63 4.63 0 01-2.376.63zm11.743-8.19V132h2.322v9h-2.322v-1.062c-.696.876-1.674 1.314-2.934 1.314-1.2 0-2.232-.456-3.096-1.368-.852-.924-1.278-2.052-1.278-3.384 0-1.32.426-2.442 1.278-3.366.864-.924 1.896-1.386 3.096-1.386 1.26 0 2.238.438 2.934 1.314zm-4.284 5.274c.468.468 1.062.702 1.782.702s1.314-.234 1.782-.702c.48-.48.72-1.092.72-1.836s-.24-1.35-.72-1.818c-.468-.48-1.062-.72-1.782-.72s-1.314.24-1.782.72c-.468.468-.702 1.074-.702 1.818s.234 1.356.702 1.836zM79.766 132v2.232h-2.034v3.744c0 .312.078.54.234.684.156.144.384.228.684.252.3.012.672.006 1.116-.018V141c-1.572.18-2.694.036-3.366-.432-.66-.48-.99-1.344-.99-2.592v-3.744h-1.566V132h1.566v-1.818l2.322-.702V132h2.034zm2.537-1.08a1.411 1.411 0 01-1.422-1.422c0-.384.138-.72.414-1.008a1.382 1.382 0 011.008-.432c.396 0 .732.144 1.008.432.288.288.432.624.432 1.008s-.144.72-.432 1.008a1.372 1.372 0 01-1.008.414zm1.17 10.08H81.15v-9h2.322v9zm9.541-1.116c-.912.912-2.04 1.368-3.384 1.368-1.344 0-2.472-.456-3.384-1.368-.912-.912-1.368-2.04-1.368-3.384 0-1.332.456-2.454 1.368-3.366.924-.924 2.052-1.386 3.384-1.386 1.332 0 2.46.462 3.384 1.386.924.924 1.386 2.046 1.386 3.366 0 1.332-.462 2.46-1.386 3.384zm-5.13-1.602c.468.468 1.05.702 1.746.702s1.278-.234 1.746-.702c.468-.468.702-1.062.702-1.782s-.234-1.314-.702-1.782c-.468-.468-1.05-.702-1.746-.702s-1.278.234-1.746.702c-.456.48-.684 1.074-.684 1.782s.228 1.302.684 1.782zm12.902-6.534c.996 0 1.806.33 2.43.99.648.672.972 1.584.972 2.736V141h-2.322v-5.238c0-.588-.162-1.044-.486-1.368-.312-.324-.744-.486-1.296-.486-.612 0-1.098.192-1.458.576-.348.372-.522.924-.522 1.656V141h-2.322v-9h2.322v1.008c.552-.84 1.446-1.26 2.682-1.26zm12.89-5.148l-7.2 16.2h-1.026l7.2-16.2h1.026zm-58.868 31.956c0 .384.546.714 1.638.99.384.084.732.186 1.044.306.312.108.624.27.936.486.324.204.576.48.756.828.18.348.27.75.27 1.206 0 .924-.348 1.638-1.044 2.142-.696.492-1.554.738-2.574.738-1.848 0-3.108-.714-3.78-2.142l2.016-1.134c.276.78.864 1.17 1.764 1.17.828 0 1.242-.258 1.242-.774 0-.384-.546-.714-1.638-.99a11.136 11.136 0 01-1.044-.324 5.66 5.66 0 01-.936-.468 2.267 2.267 0 01-.774-.81 2.584 2.584 0 01-.252-1.17c0-.888.324-1.584.972-2.088.66-.516 1.476-.774 2.448-.774.732 0 1.398.168 1.998.504.6.324 1.074.792 1.422 1.404l-1.98 1.08c-.288-.612-.768-.918-1.44-.918-.3 0-.552.072-.756.216a.607.607 0 00-.288.522zm11.21-2.808c1.213 0 2.245.462 3.097 1.386.864.924 1.296 2.046 1.296 3.366 0 1.344-.432 2.472-1.296 3.384-.84.912-1.872 1.368-3.096 1.368-1.26 0-2.232-.438-2.916-1.314v4.662H60.78V156h2.322v1.062c.684-.876 1.656-1.314 2.916-1.314zm-2.213 6.588c.468.468 1.062.702 1.782.702s1.314-.234 1.782-.702c.48-.48.72-1.092.72-1.836s-.24-1.35-.72-1.818c-.468-.48-1.062-.72-1.782-.72s-1.314.24-1.782.72c-.468.468-.702 1.074-.702 1.818s.234 1.356.702 1.836zm14.831-5.274V156h2.322v9h-2.322v-1.062c-.696.876-1.674 1.314-2.934 1.314-1.2 0-2.232-.456-3.096-1.368-.852-.924-1.278-2.052-1.278-3.384 0-1.32.426-2.442 1.278-3.366.864-.924 1.896-1.386 3.096-1.386 1.26 0 2.238.438 2.934 1.314zm-4.284 5.274c.468.468 1.062.702 1.782.702s1.314-.234 1.782-.702c.48-.48.72-1.092.72-1.836s-.24-1.35-.72-1.818c-.468-.48-1.062-.72-1.782-.72s-1.314.24-1.782.72c-.468.468-.702 1.074-.702 1.818s.234 1.356.702 1.836zm12.744 2.916c-1.356 0-2.49-.456-3.402-1.368-.9-.912-1.35-2.04-1.35-3.384 0-1.344.45-2.472 1.35-3.384.912-.912 2.046-1.368 3.402-1.368.876 0 1.674.21 2.394.63.72.42 1.266.984 1.638 1.692l-1.998 1.17a2.023 2.023 0 00-.828-.882 2.332 2.332 0 00-1.224-.324c-.696 0-1.272.234-1.728.702-.456.456-.684 1.044-.684 1.764 0 .696.228 1.284.684 1.764.456.456 1.032.684 1.728.684.468 0 .882-.102 1.242-.306.372-.216.648-.51.828-.882l2.016 1.152c-.396.72-.96 1.29-1.692 1.71a4.63 4.63 0 01-2.376.63zm13.651-3.798h-6.786c.3 1.128 1.146 1.692 2.538 1.692.888 0 1.56-.3 2.016-.9l1.872 1.08c-.888 1.284-2.196 1.926-3.924 1.926-1.488 0-2.682-.45-3.582-1.35-.9-.9-1.35-2.034-1.35-3.402 0-1.344.444-2.472 1.332-3.384.876-.912 2.016-1.368 3.42-1.368 1.332 0 2.418.456 3.258 1.368.864.912 1.296 2.04 1.296 3.384 0 .252-.03.57-.09.954zm-6.822-1.8h4.59c-.132-.588-.402-1.038-.81-1.35-.396-.312-.87-.468-1.422-.468-.624 0-1.14.162-1.548.486-.408.312-.678.756-.81 1.332z" fill="#342559"/><rect x=".5" y=".5" width="152" height="195" rx="7.5" stroke="#E9E8F9"/><rect x="161.5" y=".5" width="152" height="195" rx="7.5" fill="#fff"/><rect x="220" y="30" width="38" height="54" rx="4" fill="#EAE8FF"/><rect x="217.5" y="27.5" width="37" height="53" rx="3.5" stroke="#211541"/><path d="M237 73.241c1.99 0 5.971-.784 5.971-3.921 0-3.921-4.4-2.14-3.142 0 1.257 2.139 2.828 6.417 6.285 3.921 2.766-1.996 1.781-2.733.943-2.852l.943-2.852" stroke="#211541" stroke-width="1.5" stroke-linecap="round"/><path d="M224.5 37.5h23m-23 4h23m-23 4h23m-23 4h23m-23 4h23m-23 4h23m-23 4h23m-23 4h12" stroke="#211541" stroke-linecap="round"/><path d="M201.233 142.252c-1.248 0-2.298-.276-3.15-.828a4.523 4.523 0 01-1.8-2.286l2.124-1.242c.492 1.284 1.458 1.926 2.898 1.926.696 0 1.206-.126 1.53-.378.324-.252.486-.57.486-.954 0-.444-.198-.786-.594-1.026-.396-.252-1.104-.522-2.124-.81a13.906 13.906 0 01-1.44-.504 6.88 6.88 0 01-1.17-.666 2.855 2.855 0 01-.882-1.08c-.204-.432-.306-.936-.306-1.512 0-1.14.402-2.046 1.206-2.718.816-.684 1.794-1.026 2.934-1.026 1.02 0 1.914.252 2.682.756.78.492 1.386 1.182 1.818 2.07l-2.088 1.206c-.504-1.08-1.308-1.62-2.412-1.62-.516 0-.924.12-1.224.36a1.092 1.092 0 00-.432.9c0 .396.162.72.486.972.336.24.972.504 1.908.792.384.12.672.216.864.288.204.06.474.162.81.306.348.132.612.258.792.378.192.12.408.282.648.486.24.204.42.414.54.63.132.216.24.48.324.792.096.3.144.63.144.99 0 1.164-.426 2.088-1.278 2.772-.84.684-1.938 1.026-3.294 1.026zm6.984-10.332a1.411 1.411 0 01-1.422-1.422c0-.384.138-.72.414-1.008a1.382 1.382 0 011.008-.432c.396 0 .732.144 1.008.432.288.288.432.624.432 1.008s-.144.72-.432 1.008a1.372 1.372 0 01-1.008.414zM207.065 142v-9h2.322v9h-2.322zm11.089-9h2.268v8.568c0 1.392-.462 2.454-1.386 3.186-.912.732-2.016 1.098-3.312 1.098-.972 0-1.83-.186-2.574-.558a3.912 3.912 0 01-1.692-1.638l1.98-1.134c.456.84 1.242 1.26 2.358 1.26.732 0 1.308-.192 1.728-.576.42-.384.63-.93.63-1.638v-.972c-.684.912-1.644 1.368-2.88 1.368-1.272 0-2.34-.444-3.204-1.332-.852-.9-1.278-1.992-1.278-3.276 0-1.272.432-2.358 1.296-3.258.864-.9 1.926-1.35 3.186-1.35 1.236 0 2.196.456 2.88 1.368V133zm-4.338 6.138c.48.456 1.086.684 1.818.684s1.332-.228 1.8-.684c.48-.468.72-1.062.72-1.782 0-.708-.24-1.29-.72-1.746-.468-.468-1.068-.702-1.8-.702s-1.338.234-1.818.702c-.468.456-.702 1.038-.702 1.746 0 .72.234 1.314.702 1.782zm13.464-6.39c.984 0 1.794.33 2.43.99.648.66.972 1.572.972 2.736V142h-2.322v-5.238c0-.6-.162-1.056-.486-1.368-.324-.324-.756-.486-1.296-.486-.6 0-1.08.186-1.44.558-.36.372-.54.93-.54 1.674V142h-2.322v-9h2.322v1.008c.564-.84 1.458-1.26 2.682-1.26zm9.381 9.252v-13.14h2.322V142h-2.322zm6.157-3.546c.312 1.128 1.158 1.692 2.538 1.692.888 0 1.56-.3 2.016-.9l1.872 1.08c-.888 1.284-2.196 1.926-3.924 1.926-1.488 0-2.682-.45-3.582-1.35-.9-.9-1.35-2.034-1.35-3.402 0-1.356.444-2.484 1.332-3.384.888-.912 2.028-1.368 3.42-1.368 1.32 0 2.406.456 3.258 1.368.864.912 1.296 2.04 1.296 3.384 0 .3-.03.618-.09.954h-6.786zm-.036-1.8h4.59c-.132-.612-.408-1.068-.828-1.368-.408-.3-.876-.45-1.404-.45-.624 0-1.14.162-1.548.486-.408.312-.678.756-.81 1.332zM257.833 133h2.322v9h-2.322v-1.062c-.696.876-1.674 1.314-2.934 1.314-1.2 0-2.232-.456-3.096-1.368-.852-.924-1.278-2.052-1.278-3.384 0-1.332.426-2.454 1.278-3.366.864-.924 1.896-1.386 3.096-1.386 1.26 0 2.238.438 2.934 1.314V133zm-4.284 6.336c.468.468 1.062.702 1.782.702s1.314-.234 1.782-.702c.48-.48.72-1.092.72-1.836s-.24-1.35-.72-1.818c-.468-.48-1.062-.72-1.782-.72s-1.314.24-1.782.72c-.468.468-.702 1.074-.702 1.818s.234 1.356.702 1.836zm10.531-3.78c0 .24.156.438.468.594a7.79 7.79 0 001.17.396c.456.108.912.252 1.368.432.456.168.84.456 1.152.864.324.408.486.918.486 1.53 0 .924-.348 1.638-1.044 2.142-.684.492-1.542.738-2.574.738-1.848 0-3.108-.714-3.78-2.142l2.016-1.134c.264.78.852 1.17 1.764 1.17.828 0 1.242-.258 1.242-.774 0-.24-.162-.432-.486-.576a6.03 6.03 0 00-1.152-.414c-.456-.12-.912-.27-1.368-.45a2.909 2.909 0 01-1.17-.846c-.312-.396-.468-.888-.468-1.476 0-.888.324-1.584.972-2.088.66-.516 1.476-.774 2.448-.774.732 0 1.398.168 1.998.504.6.324 1.074.792 1.422 1.404l-1.98 1.08c-.288-.612-.768-.918-1.44-.918-.3 0-.552.066-.756.198a.622.622 0 00-.288.54zm7.724 2.898c.312 1.128 1.158 1.692 2.538 1.692.888 0 1.56-.3 2.016-.9l1.872 1.08c-.888 1.284-2.196 1.926-3.924 1.926-1.488 0-2.682-.45-3.582-1.35-.9-.9-1.35-2.034-1.35-3.402 0-1.356.444-2.484 1.332-3.384.888-.912 2.028-1.368 3.42-1.368 1.32 0 2.406.456 3.258 1.368.864.912 1.296 2.04 1.296 3.384 0 .3-.03.618-.09.954h-6.786zm-.036-1.8h4.59c-.132-.612-.408-1.068-.828-1.368-.408-.3-.876-.45-1.404-.45-.624 0-1.14.162-1.548.486-.408.312-.678.756-.81 1.332z" fill="#342559"/><rect x="161.5" y=".5" width="152" height="195" rx="7.5" stroke="#E9E8F9"/><rect x="322.5" y=".5" width="152" height="195" rx="7.5" fill="#fff"/><path d="M380 36h44v24h-11v14.103h-15.299V84H380V36z" fill="#EAE8FF"/><path d="M377 32h44v24h-11v14.103h-15.299V80H377V32z" stroke="#211541" stroke-linecap="round" stroke-dasharray="2 2"/><path fill="#211541" d="M375 30h4v4h-4zm0 48h4v4h-4zm18 0h4v4h-4zm0-10h4v4h-4zm15 0h4v4h-4zm0-14h4v4h-4zm11 0h4v4h-4zm0-24h4v4h-4z"/><path d="M354.275 129.4c1.728 0 3.168.606 4.32 1.818 1.164 1.212 1.746 2.706 1.746 4.482 0 1.776-.582 3.27-1.746 4.482-1.152 1.212-2.592 1.818-4.32 1.818h-5.004v-12.6h5.004zm0 10.224c1.092 0 1.98-.36 2.664-1.08.684-.732 1.026-1.68 1.026-2.844s-.342-2.106-1.026-2.826c-.684-.732-1.572-1.098-2.664-1.098h-2.52v7.848h2.52zm9.43-1.17c.312 1.128 1.158 1.692 2.538 1.692.888 0 1.56-.3 2.016-.9l1.872 1.08c-.888 1.284-2.196 1.926-3.924 1.926-1.488 0-2.682-.45-3.582-1.35-.9-.9-1.35-2.034-1.35-3.402 0-1.356.444-2.484 1.332-3.384.888-.912 2.028-1.368 3.42-1.368 1.32 0 2.406.456 3.258 1.368.864.912 1.296 2.04 1.296 3.384 0 .3-.03.618-.09.954h-6.786zm-.036-1.8h4.59c-.132-.612-.408-1.068-.828-1.368-.408-.3-.876-.45-1.404-.45-.624 0-1.14.162-1.548.486-.408.312-.678.756-.81 1.332zm10.071-1.098c0 .24.156.438.468.594a7.79 7.79 0 001.17.396c.456.108.912.252 1.368.432.456.168.84.456 1.152.864.324.408.486.918.486 1.53 0 .924-.348 1.638-1.044 2.142-.684.492-1.542.738-2.574.738-1.848 0-3.108-.714-3.78-2.142l2.016-1.134c.264.78.852 1.17 1.764 1.17.828 0 1.242-.258 1.242-.774 0-.24-.162-.432-.486-.576a6.03 6.03 0 00-1.152-.414c-.456-.12-.912-.27-1.368-.45a2.909 2.909 0 01-1.17-.846c-.312-.396-.468-.888-.468-1.476 0-.888.324-1.584.972-2.088.66-.516 1.476-.774 2.448-.774.732 0 1.398.168 1.998.504.6.324 1.074.792 1.422 1.404l-1.98 1.08c-.288-.612-.768-.918-1.44-.918-.3 0-.552.066-.756.198a.622.622 0 00-.288.54zm7.038-3.636a1.411 1.411 0 01-1.422-1.422c0-.384.138-.72.414-1.008a1.382 1.382 0 011.008-.432c.396 0 .732.144 1.008.432.288.288.432.624.432 1.008s-.144.72-.432 1.008a1.372 1.372 0 01-1.008.414zM379.626 142v-9h2.322v9h-2.322zm11.089-9h2.268v8.568c0 1.392-.462 2.454-1.386 3.186-.912.732-2.016 1.098-3.312 1.098-.972 0-1.83-.186-2.574-.558a3.912 3.912 0 01-1.692-1.638l1.98-1.134c.456.84 1.242 1.26 2.358 1.26.732 0 1.308-.192 1.728-.576.42-.384.63-.93.63-1.638v-.972c-.684.912-1.644 1.368-2.88 1.368-1.272 0-2.34-.444-3.204-1.332-.852-.9-1.278-1.992-1.278-3.276 0-1.272.432-2.358 1.296-3.258.864-.9 1.926-1.35 3.186-1.35 1.236 0 2.196.456 2.88 1.368V133zm-4.338 6.138c.48.456 1.086.684 1.818.684s1.332-.228 1.8-.684c.48-.468.72-1.062.72-1.782 0-.708-.24-1.29-.72-1.746-.468-.468-1.068-.702-1.8-.702s-1.338.234-1.818.702c-.468.456-.702 1.038-.702 1.746 0 .72.234 1.314.702 1.782zm13.463-6.39c.984 0 1.794.33 2.43.99.648.66.972 1.572.972 2.736V142h-2.322v-5.238c0-.6-.162-1.056-.486-1.368-.324-.324-.756-.486-1.296-.486-.6 0-1.08.186-1.44.558-.36.372-.54.93-.54 1.674V142h-2.322v-9h2.322v1.008c.564-.84 1.458-1.26 2.682-1.26zm11.523 2.808c0 .24.156.438.468.594a7.79 7.79 0 001.17.396c.456.108.912.252 1.368.432.456.168.84.456 1.152.864.324.408.486.918.486 1.53 0 .924-.348 1.638-1.044 2.142-.684.492-1.542.738-2.574.738-1.848 0-3.108-.714-3.78-2.142l2.016-1.134c.264.78.852 1.17 1.764 1.17.828 0 1.242-.258 1.242-.774 0-.24-.162-.432-.486-.576a6.03 6.03 0 00-1.152-.414c-.456-.12-.912-.27-1.368-.45a2.909 2.909 0 01-1.17-.846c-.312-.396-.468-.888-.468-1.476 0-.888.324-1.584.972-2.088.66-.516 1.476-.774 2.448-.774.732 0 1.398.168 1.998.504.6.324 1.074.792 1.422 1.404l-1.98 1.08c-.288-.612-.768-.918-1.44-.918-.3 0-.552.066-.756.198a.622.622 0 00-.288.54zm10.77-.324h-2.034v3.744c0 .312.078.54.234.684.156.144.384.228.684.252.3.012.672.006 1.116-.018V142c-1.596.18-2.724.03-3.384-.45-.648-.48-.972-1.338-.972-2.574v-3.744h-1.566V133h1.566v-1.818l2.322-.702V133h2.034v2.232zm8.772 5.652c-.924.912-2.052 1.368-3.384 1.368-1.332 0-2.46-.456-3.384-1.368-.912-.924-1.368-2.052-1.368-3.384 0-1.332.456-2.454 1.368-3.366.924-.924 2.052-1.386 3.384-1.386 1.332 0 2.46.462 3.384 1.386.924.912 1.386 2.034 1.386 3.366 0 1.332-.462 2.46-1.386 3.384zm-5.13-1.602c.468.468 1.05.702 1.746.702s1.278-.234 1.746-.702c.468-.468.702-1.062.702-1.782s-.234-1.314-.702-1.782c-.468-.468-1.05-.702-1.746-.702s-1.278.234-1.746.702c-.456.468-.684 1.062-.684 1.782s.228 1.314.684 1.782zm10.219-4.734c.216-.576.57-1.008 1.062-1.296a3.314 3.314 0 011.674-.432v2.592c-.708-.084-1.344.06-1.908.432-.552.372-.828.99-.828 1.854V142h-2.322v-9h2.322v1.548zm5.47 3.906c.312 1.128 1.158 1.692 2.538 1.692.888 0 1.56-.3 2.016-.9l1.872 1.08c-.888 1.284-2.196 1.926-3.924 1.926-1.488 0-2.682-.45-3.582-1.35-.9-.9-1.35-2.034-1.35-3.402 0-1.356.444-2.484 1.332-3.384.888-.912 2.028-1.368 3.42-1.368 1.32 0 2.406.456 3.258 1.368.864.912 1.296 2.04 1.296 3.384 0 .3-.03.618-.09.954h-6.786zm-.036-1.8h4.59c-.132-.612-.408-1.068-.828-1.368-.408-.3-.876-.45-1.404-.45-.624 0-1.14.162-1.548.486-.408.312-.678.756-.81 1.332z" fill="#342559"/><rect x="322.5" y=".5" width="152" height="195" rx="7.5" stroke="#E9E8F9"/><rect x="483.5" y=".5" width="152" height="195" rx="7.5" fill="#fff"/><rect x="540.766" y="29.544" width="35.037" height="49.789" rx="4" fill="#EAE8FF"/><rect x="538.5" y="27.278" width="34.037" height="48.789" rx="3.5" stroke="#211541"/><path d="M556.441 69.413c1.835 0 5.505-.723 5.505-3.615 0-3.616-4.057-1.972-2.897 0 1.159 1.972 2.608 5.916 5.795 3.615 2.55-1.84 1.642-2.52.87-2.63l.869-2.629M544.915 36.46h21.207m-21.207 3.687h21.207m-21.207 3.688h21.207m-21.207 3.688h21.207m-21.207 3.688h21.207M544.915 54.9h21.207m-21.207 3.688h21.207m-21.207 3.688h11.065" stroke="#211541" stroke-width="1.5" stroke-linecap="round"/><path d="M544.333 35.889a4 4 0 014-4H578a4 4 0 014 4v44.333a4 4 0 01-4 4h-29.667a4 4 0 01-4-4V35.89z" fill="#EAE8FF"/><rect x="544.611" y="32.167" width="34.037" height="48.789" rx="3.5" stroke="#211541"/><path d="M551.026 41.348h21.207m-21.207 3.688h21.207m-21.207 3.688h21.207m-21.207 3.688h21.207M551.026 56.1h21.207m-21.207 3.689h11.428" stroke="#211541" stroke-linecap="round"/><circle cx="567.333" cy="69.555" r="5.111" stroke="#211541" stroke-width="2"/><path d="M508.669 110.232h6.318v.972c0 1.8-.576 3.258-1.728 4.374-1.152 1.116-2.64 1.674-4.464 1.674-1.944 0-3.558-.63-4.842-1.89-1.272-1.272-1.908-2.82-1.908-4.644 0-1.836.63-3.39 1.89-4.662 1.272-1.272 2.844-1.908 4.716-1.908 1.164 0 2.232.264 3.204.792s1.734 1.242 2.286 2.142l-2.124 1.224c-.3-.516-.756-.936-1.368-1.26a4.241 4.241 0 00-2.016-.486c-1.212 0-2.202.396-2.97 1.188-.768.768-1.152 1.758-1.152 2.97 0 1.188.39 2.172 1.17 2.952.78.768 1.824 1.152 3.132 1.152.948 0 1.74-.21 2.376-.63.636-.42 1.068-1.008 1.296-1.764h-3.816v-2.196zm16.473 3.222h-6.786c.3 1.128 1.146 1.692 2.538 1.692.888 0 1.56-.3 2.016-.9l1.872 1.08c-.888 1.284-2.196 1.926-3.924 1.926-1.488 0-2.682-.45-3.582-1.35-.9-.9-1.35-2.034-1.35-3.402 0-1.344.444-2.472 1.332-3.384.876-.912 2.016-1.368 3.42-1.368 1.332 0 2.418.456 3.258 1.368.864.912 1.296 2.04 1.296 3.384 0 .252-.03.57-.09.954zm-6.822-1.8h4.59c-.132-.588-.402-1.038-.81-1.35-.396-.312-.87-.468-1.422-.468-.624 0-1.14.162-1.548.486-.408.312-.678.756-.81 1.332zM531.486 108v2.232h-2.034v3.744c0 .312.078.54.234.684.156.144.384.228.684.252.3.012.672.006 1.116-.018V117c-1.572.18-2.694.036-3.366-.432-.66-.48-.99-1.344-.99-2.592v-3.744h-1.566V108h1.566v-1.818l2.322-.702V108h2.034zm10.777-.252c.996 0 1.806.33 2.43.99.648.672.972 1.584.972 2.736V117h-2.322v-5.238c0-.588-.162-1.044-.486-1.368-.312-.324-.744-.486-1.296-.486-.612 0-1.098.192-1.458.576-.348.372-.522.924-.522 1.656V117h-2.322v-9h2.322v1.008c.552-.84 1.446-1.26 2.682-1.26zm13.881 5.706h-6.786c.3 1.128 1.146 1.692 2.538 1.692.888 0 1.56-.3 2.016-.9l1.872 1.08c-.888 1.284-2.196 1.926-3.924 1.926-1.488 0-2.682-.45-3.582-1.35-.9-.9-1.35-2.034-1.35-3.402 0-1.344.444-2.472 1.332-3.384.876-.912 2.016-1.368 3.42-1.368 1.332 0 2.418.456 3.258 1.368.864.912 1.296 2.04 1.296 3.384 0 .252-.03.57-.09.954zm-6.822-1.8h4.59c-.132-.588-.402-1.038-.81-1.35-.396-.312-.87-.468-1.422-.468-.624 0-1.14.162-1.548.486-.408.312-.678.756-.81 1.332zm12.495 5.598c-1.356 0-2.49-.456-3.402-1.368-.9-.912-1.35-2.04-1.35-3.384 0-1.344.45-2.472 1.35-3.384.912-.912 2.046-1.368 3.402-1.368.876 0 1.674.21 2.394.63.72.42 1.266.984 1.638 1.692l-1.998 1.17a2.023 2.023 0 00-.828-.882 2.332 2.332 0 00-1.224-.324c-.696 0-1.272.234-1.728.702-.456.456-.684 1.044-.684 1.764 0 .696.228 1.284.684 1.764.456.456 1.032.684 1.728.684.468 0 .882-.102 1.242-.306.372-.216.648-.51.828-.882l2.016 1.152c-.396.72-.96 1.29-1.692 1.71a4.63 4.63 0 01-2.376.63zm13.651-3.798h-6.786c.3 1.128 1.146 1.692 2.538 1.692.888 0 1.56-.3 2.016-.9l1.872 1.08c-.888 1.284-2.196 1.926-3.924 1.926-1.488 0-2.682-.45-3.582-1.35-.9-.9-1.35-2.034-1.35-3.402 0-1.344.444-2.472 1.332-3.384.876-.912 2.016-1.368 3.42-1.368 1.332 0 2.418.456 3.258 1.368.864.912 1.296 2.04 1.296 3.384 0 .252-.03.57-.09.954zm-6.822-1.8h4.59c-.132-.588-.402-1.038-.81-1.35-.396-.312-.87-.468-1.422-.468-.624 0-1.14.162-1.548.486-.408.312-.678.756-.81 1.332zm10.072-1.098c0 .384.546.714 1.638.99.384.084.732.186 1.044.306.312.108.624.27.936.486.324.204.576.48.756.828.18.348.27.75.27 1.206 0 .924-.348 1.638-1.044 2.142-.696.492-1.554.738-2.574.738-1.848 0-3.108-.714-3.78-2.142l2.016-1.134c.276.78.864 1.17 1.764 1.17.828 0 1.242-.258 1.242-.774 0-.384-.546-.714-1.638-.99a11.136 11.136 0 01-1.044-.324 5.66 5.66 0 01-.936-.468 2.267 2.267 0 01-.774-.81 2.584 2.584 0 01-.252-1.17c0-.888.324-1.584.972-2.088.66-.516 1.476-.774 2.448-.774.732 0 1.398.168 1.998.504.6.324 1.074.792 1.422 1.404l-1.98 1.08c-.288-.612-.768-.918-1.44-.918-.3 0-.552.072-.756.216a.607.607 0 00-.288.522zm7.552 0c0 .384.546.714 1.638.99.384.084.732.186 1.044.306.312.108.624.27.936.486.324.204.576.48.756.828.18.348.27.75.27 1.206 0 .924-.348 1.638-1.044 2.142-.696.492-1.554.738-2.574.738-1.848 0-3.108-.714-3.78-2.142l2.016-1.134c.276.78.864 1.17 1.764 1.17.828 0 1.242-.258 1.242-.774 0-.384-.546-.714-1.638-.99a11.136 11.136 0 01-1.044-.324 5.66 5.66 0 01-.936-.468 2.267 2.267 0 01-.774-.81 2.584 2.584 0 01-.252-1.17c0-.888.324-1.584.972-2.088.66-.516 1.476-.774 2.448-.774.732 0 1.398.168 1.998.504.6.324 1.074.792 1.422 1.404l-1.98 1.08c-.288-.612-.768-.918-1.44-.918-.3 0-.552.072-.756.216a.607.607 0 00-.288.522zm12.603-1.494V108h2.322v9h-2.322v-1.062c-.696.876-1.674 1.314-2.934 1.314-1.2 0-2.232-.456-3.096-1.368-.852-.924-1.278-2.052-1.278-3.384 0-1.32.426-2.442 1.278-3.366.864-.924 1.896-1.386 3.096-1.386 1.26 0 2.238.438 2.934 1.314zm-4.284 5.274c.468.468 1.062.702 1.782.702s1.314-.234 1.782-.702c.48-.48.72-1.092.72-1.836s-.24-1.35-.72-1.818c-.468-.48-1.062-.72-1.782-.72s-1.314.24-1.782.72c-.468.468-.702 1.074-.702 1.818s.234 1.356.702 1.836zM605.37 108v1.548c.204-.564.552-.99 1.044-1.278.492-.3 1.056-.45 1.692-.45v2.592c-.708-.096-1.344.048-1.908.432-.552.372-.828.99-.828 1.854V117h-2.322v-9h2.322zm7.905 6.048l1.998-6.048h2.484l-3.276 9c-.468 1.296-1.092 2.232-1.872 2.808-.768.588-1.728.852-2.88.792v-2.16c.612.012 1.104-.12 1.476-.396.372-.276.666-.72.882-1.332l-3.69-8.712h2.538l2.34 6.048zM509.028 141h-2.322v-13.14h2.322V141zm3.025-10.08a1.411 1.411 0 01-1.422-1.422c0-.384.138-.72.414-1.008a1.382 1.382 0 011.008-.432c.396 0 .732.144 1.008.432.288.288.432.624.432 1.008s-.144.72-.432 1.008a1.372 1.372 0 01-1.008.414zm1.17 10.08h-2.322v-9h2.322v9zm6.157.252c-1.356 0-2.49-.456-3.402-1.368-.9-.912-1.35-2.04-1.35-3.384 0-1.344.45-2.472 1.35-3.384.912-.912 2.046-1.368 3.402-1.368.876 0 1.674.21 2.394.63.72.42 1.266.984 1.638 1.692l-1.998 1.17a2.023 2.023 0 00-.828-.882 2.332 2.332 0 00-1.224-.324c-.696 0-1.272.234-1.728.702-.456.456-.684 1.044-.684 1.764 0 .696.228 1.284.684 1.764.456.456 1.032.684 1.728.684.468 0 .882-.102 1.242-.306.372-.216.648-.51.828-.882l2.016 1.152c-.396.72-.96 1.29-1.692 1.71a4.63 4.63 0 01-2.376.63zm13.652-3.798h-6.786c.3 1.128 1.146 1.692 2.538 1.692.888 0 1.56-.3 2.016-.9l1.872 1.08c-.888 1.284-2.196 1.926-3.924 1.926-1.488 0-2.682-.45-3.582-1.35-.9-.9-1.35-2.034-1.35-3.402 0-1.344.444-2.472 1.332-3.384.876-.912 2.016-1.368 3.42-1.368 1.332 0 2.418.456 3.258 1.368.864.912 1.296 2.04 1.296 3.384 0 .252-.03.57-.09.954zm-6.822-1.8h4.59c-.132-.588-.402-1.038-.81-1.35-.396-.312-.87-.468-1.422-.468-.624 0-1.14.162-1.548.486-.408.312-.678.756-.81 1.332zm13.285-3.906c.996 0 1.806.33 2.43.99.648.672.972 1.584.972 2.736V141h-2.322v-5.238c0-.588-.162-1.044-.486-1.368-.312-.324-.744-.486-1.296-.486-.612 0-1.098.192-1.458.576-.348.372-.522.924-.522 1.656V141h-2.322v-9h2.322v1.008c.552-.84 1.446-1.26 2.682-1.26zm7.275 2.808c0 .384.546.714 1.638.99.384.084.732.186 1.044.306.312.108.624.27.936.486.324.204.576.48.756.828.18.348.27.75.27 1.206 0 .924-.348 1.638-1.044 2.142-.696.492-1.554.738-2.574.738-1.848 0-3.108-.714-3.78-2.142l2.016-1.134c.276.78.864 1.17 1.764 1.17.828 0 1.242-.258 1.242-.774 0-.384-.546-.714-1.638-.99a11.136 11.136 0 01-1.044-.324 5.66 5.66 0 01-.936-.468 2.267 2.267 0 01-.774-.81 2.584 2.584 0 01-.252-1.17c0-.888.324-1.584.972-2.088.66-.516 1.476-.774 2.448-.774.732 0 1.398.168 1.998.504.6.324 1.074.792 1.422 1.404l-1.98 1.08c-.288-.612-.768-.918-1.44-.918-.3 0-.552.072-.756.216a.607.607 0 00-.288.522zm7.037-3.636a1.411 1.411 0 01-1.422-1.422c0-.384.138-.72.414-1.008a1.382 1.382 0 011.008-.432c.396 0 .732.144 1.008.432.288.288.432.624.432 1.008s-.144.72-.432 1.008a1.372 1.372 0 01-1.008.414zm1.17 10.08h-2.322v-9h2.322v9zm6.877-9.252c.996 0 1.806.33 2.43.99.648.672.972 1.584.972 2.736V141h-2.322v-5.238c0-.588-.162-1.044-.486-1.368-.312-.324-.744-.486-1.296-.486-.612 0-1.098.192-1.458.576-.348.372-.522.924-.522 1.656V141h-2.322v-9h2.322v1.008c.552-.84 1.446-1.26 2.682-1.26zm12.027 1.368V132h2.268v8.568c0 1.38-.462 2.442-1.386 3.186-.912.732-2.016 1.098-3.312 1.098-2.04 0-3.462-.732-4.266-2.196l1.98-1.134c.444.84 1.23 1.26 2.358 1.26.732 0 1.308-.192 1.728-.576.42-.384.63-.93.63-1.638v-.972c-.684.912-1.644 1.368-2.88 1.368-1.272 0-2.34-.444-3.204-1.332-.852-.912-1.278-2.004-1.278-3.276 0-1.272.432-2.358 1.296-3.258.864-.9 1.926-1.35 3.186-1.35 1.236 0 2.196.456 2.88 1.368zm-.72 5.022c.48-.468.72-1.062.72-1.782s-.24-1.302-.72-1.746c-.468-.468-1.068-.702-1.8-.702-.72 0-1.326.234-1.818.702-.468.444-.702 1.026-.702 1.746s.234 1.314.702 1.782c.48.456 1.086.684 1.818.684s1.332-.228 1.8-.684zm15.929-5.076V132h2.322v9h-2.322v-1.062c-.696.876-1.674 1.314-2.934 1.314-1.2 0-2.232-.456-3.096-1.368-.852-.924-1.278-2.052-1.278-3.384 0-1.32.426-2.442 1.278-3.366.864-.924 1.896-1.386 3.096-1.386 1.26 0 2.238.438 2.934 1.314zm-4.284 5.274c.468.468 1.062.702 1.782.702s1.314-.234 1.782-.702c.48-.48.72-1.092.72-1.836s-.24-1.35-.72-1.818c-.468-.48-1.062-.72-1.782-.72s-1.314.24-1.782.72c-.468.468-.702 1.074-.702 1.818s.234 1.356.702 1.836zm13.464-6.588c.996 0 1.806.33 2.43.99.648.672.972 1.584.972 2.736V141h-2.322v-5.238c0-.588-.162-1.044-.486-1.368-.312-.324-.744-.486-1.296-.486-.612 0-1.098.192-1.458.576-.348.372-.522.924-.522 1.656V141h-2.322v-9h2.322v1.008c.552-.84 1.446-1.26 2.682-1.26zm11.955 1.314V128.4h2.322V141h-2.322v-1.062c-.684.876-1.656 1.314-2.916 1.314-1.212 0-2.25-.456-3.114-1.368-.852-.924-1.278-2.052-1.278-3.384 0-1.32.426-2.442 1.278-3.366.864-.924 1.902-1.386 3.114-1.386 1.26 0 2.232.438 2.916 1.314zm-4.284 5.274c.492.468 1.092.702 1.8.702.72 0 1.314-.234 1.782-.702.468-.48.702-1.092.702-1.836s-.234-1.35-.702-1.818c-.468-.48-1.062-.72-1.782-.72s-1.32.24-1.8.72c-.468.468-.702 1.074-.702 1.818s.234 1.356.702 1.836zm-70.823 17.412c1.212 0 2.244.462 3.096 1.386.864.924 1.296 2.046 1.296 3.366 0 1.344-.432 2.472-1.296 3.384-.84.912-1.872 1.368-3.096 1.368-1.26 0-2.232-.438-2.916-1.314v4.662h-2.322V156h2.322v1.062c.684-.876 1.656-1.314 2.916-1.314zm-2.214 6.588c.468.468 1.062.702 1.782.702s1.314-.234 1.782-.702c.48-.48.72-1.092.72-1.836s-.24-1.35-.72-1.818c-.468-.48-1.062-.72-1.782-.72s-1.314.24-1.782.72c-.468.468-.702 1.074-.702 1.818s.234 1.356.702 1.836zm16.739-.882h-6.786c.3 1.128 1.146 1.692 2.538 1.692.888 0 1.56-.3 2.016-.9l1.872 1.08c-.888 1.284-2.196 1.926-3.924 1.926-1.488 0-2.682-.45-3.582-1.35-.9-.9-1.35-2.034-1.35-3.402 0-1.344.444-2.472 1.332-3.384.876-.912 2.016-1.368 3.42-1.368 1.332 0 2.418.456 3.258 1.368.864.912 1.296 2.04 1.296 3.384 0 .252-.03.57-.09.954zm-6.822-1.8h4.59c-.132-.588-.402-1.038-.81-1.35-.396-.312-.87-.468-1.422-.468-.624 0-1.14.162-1.548.486-.408.312-.678.756-.81 1.332zM553.424 156v1.548c.204-.564.552-.99 1.044-1.278.492-.3 1.056-.45 1.692-.45v2.592c-.708-.096-1.344.048-1.908.432-.552.372-.828.99-.828 1.854V165h-2.322v-9h2.322zm13.796-.252c1.032 0 1.854.336 2.466 1.008.624.672.936 1.572.936 2.7V165H568.3v-5.382c0-.54-.132-.96-.396-1.26-.264-.3-.636-.45-1.116-.45-.528 0-.942.174-1.242.522-.288.348-.432.852-.432 1.512V165h-2.322v-5.382c0-.54-.132-.96-.396-1.26-.264-.3-.636-.45-1.116-.45-.516 0-.93.18-1.242.54-.3.348-.45.846-.45 1.494V165h-2.322v-9h2.322v.954c.54-.804 1.374-1.206 2.502-1.206 1.116 0 1.932.432 2.448 1.296.588-.864 1.482-1.296 2.682-1.296zm6.274-.828a1.411 1.411 0 01-1.422-1.422c0-.384.138-.72.414-1.008a1.382 1.382 0 011.008-.432c.396 0 .732.144 1.008.432.288.288.432.624.432 1.008s-.144.72-.432 1.008a1.372 1.372 0 01-1.008.414zm1.17 10.08h-2.322v-9h2.322v9zm7.021-9v2.232h-2.034v3.744c0 .312.078.54.234.684.156.144.384.228.684.252.3.012.672.006 1.116-.018V165c-1.572.18-2.694.036-3.366-.432-.66-.48-.99-1.344-.99-2.592v-3.744h-1.566V156h1.566v-1.818l2.322-.702V156h2.034zm3.334 2.556c0 .384.546.714 1.638.99.384.084.732.186 1.044.306.312.108.624.27.936.486.324.204.576.48.756.828.18.348.27.75.27 1.206 0 .924-.348 1.638-1.044 2.142-.696.492-1.554.738-2.574.738-1.848 0-3.108-.714-3.78-2.142l2.016-1.134c.276.78.864 1.17 1.764 1.17.828 0 1.242-.258 1.242-.774 0-.384-.546-.714-1.638-.99a11.136 11.136 0 01-1.044-.324 5.66 5.66 0 01-.936-.468 2.267 2.267 0 01-.774-.81 2.584 2.584 0 01-.252-1.17c0-.888.324-1.584.972-2.088.66-.516 1.476-.774 2.448-.774.732 0 1.398.168 1.998.504.6.324 1.074.792 1.422 1.404l-1.98 1.08c-.288-.612-.768-.918-1.44-.918-.3 0-.552.072-.756.216a.607.607 0 00-.288.522z" fill="#342559"/><rect x="483.5" y=".5" width="152" height="195" rx="7.5" stroke="#E9E8F9"/><rect x="644.5" y=".5" width="152" height="195" rx="7.5" fill="#fff"/><path d="M702.25 44l21-5 21 5v26.686a10 10 0 01-5.701 9.029L723.25 87l-15.299-7.285a10 10 0 01-5.701-9.029V44z" fill="#EAE8FF"/><path d="M699.75 65.686V39.395l20.5-4.881 20.5 4.88v26.292a9.5 9.5 0 01-5.416 8.577l-15.084 7.183-15.084-7.183a9.5 9.5 0 01-5.416-8.577z" stroke="#342559"/><path d="M726.083 55.167h-11.666c-.921 0-1.667.746-1.667 1.666v5.834c0 .92.746 1.666 1.667 1.666h11.666c.921 0 1.667-.746 1.667-1.666v-5.834c0-.92-.746-1.666-1.667-1.666zm-10 0v-3.334a4.165 4.165 0 014.167-4.166 4.165 4.165 0 014.167 4.166v3.334" stroke="#342559" stroke-width="2" stroke-linecap="round" stroke-linejoin="round"/><path d="M677.227 123.232v.972c0 1.8-.576 3.258-1.728 4.374-1.152 1.116-2.64 1.674-4.464 1.674-1.944 0-3.558-.63-4.842-1.89-1.272-1.272-1.908-2.82-1.908-4.644 0-1.836.63-3.39 1.89-4.662 1.272-1.272 2.844-1.908 4.716-1.908 1.176 0 2.25.27 3.222.81.972.528 1.728 1.236 2.268 2.124l-2.124 1.224c-.3-.516-.756-.936-1.368-1.26-.6-.324-1.272-.486-2.016-.486-1.2 0-2.19.396-2.97 1.188-.768.78-1.152 1.77-1.152 2.97 0 1.188.39 2.172 1.17 2.952.792.768 1.836 1.152 3.132 1.152.96 0 1.752-.21 2.376-.63a3.206 3.206 0 001.296-1.764h-3.816v-2.196h6.318zm3.369 3.222c.312 1.128 1.158 1.692 2.538 1.692.888 0 1.56-.3 2.016-.9l1.872 1.08c-.888 1.284-2.196 1.926-3.924 1.926-1.488 0-2.682-.45-3.582-1.35-.9-.9-1.35-2.034-1.35-3.402 0-1.356.444-2.484 1.332-3.384.888-.912 2.028-1.368 3.42-1.368 1.32 0 2.406.456 3.258 1.368.864.912 1.296 2.04 1.296 3.384 0 .3-.03.618-.09.954h-6.786zm-.036-1.8h4.59c-.132-.612-.408-1.068-.828-1.368-.408-.3-.876-.45-1.404-.45-.624 0-1.14.162-1.548.486-.408.312-.678.756-.81 1.332zm13.165-1.422h-2.034v3.744c0 .312.078.54.234.684.156.144.384.228.684.252.3.012.672.006 1.116-.018V130c-1.596.18-2.724.03-3.384-.45-.648-.48-.972-1.338-.972-2.574v-3.744h-1.566V121h1.566v-1.818l2.322-.702V121h2.034v2.232zm6.926-3.312a1.411 1.411 0 01-1.422-1.422c0-.384.138-.72.414-1.008a1.382 1.382 0 011.008-.432c.396 0 .732.144 1.008.432.288.288.432.624.432 1.008s-.144.72-.432 1.008a1.372 1.372 0 01-1.008.414zM699.499 130v-9h2.322v9h-2.322zm9.199-9.252c.984 0 1.794.33 2.43.99.648.66.972 1.572.972 2.736V130h-2.322v-5.238c0-.6-.162-1.056-.486-1.368-.324-.324-.756-.486-1.296-.486-.6 0-1.08.186-1.44.558-.36.372-.54.93-.54 1.674V130h-2.322v-9h2.322v1.008c.564-.84 1.458-1.26 2.682-1.26zm7.275 2.808c0 .24.156.438.468.594a7.79 7.79 0 001.17.396c.456.108.912.252 1.368.432.456.168.84.456 1.152.864.324.408.486.918.486 1.53 0 .924-.348 1.638-1.044 2.142-.684.492-1.542.738-2.574.738-1.848 0-3.108-.714-3.78-2.142l2.016-1.134c.264.78.852 1.17 1.764 1.17.828 0 1.242-.258 1.242-.774 0-.24-.162-.432-.486-.576a6.03 6.03 0 00-1.152-.414c-.456-.12-.912-.27-1.368-.45a2.909 2.909 0 01-1.17-.846c-.312-.396-.468-.888-.468-1.476 0-.888.324-1.584.972-2.088.66-.516 1.476-.774 2.448-.774.732 0 1.398.168 1.998.504.6.324 1.074.792 1.422 1.404l-1.98 1.08c-.288-.612-.768-.918-1.44-.918-.3 0-.552.066-.756.198a.622.622 0 00-.288.54zM727.798 121h2.322v9h-2.322v-1.008c-.564.84-1.458 1.26-2.682 1.26-.984 0-1.8-.33-2.448-.99-.636-.66-.954-1.572-.954-2.736V121h2.322v5.238c0 .6.162 1.062.486 1.386.324.312.756.468 1.296.468.6 0 1.08-.186 1.44-.558.36-.372.54-.93.54-1.674V121zm6.519 1.548c.216-.576.57-1.008 1.062-1.296a3.314 3.314 0 011.674-.432v2.592c-.708-.084-1.344.06-1.908.432-.552.372-.828.99-.828 1.854V130h-2.322v-9h2.322v1.548zM744.665 121h2.322v9h-2.322v-1.062c-.696.876-1.674 1.314-2.934 1.314-1.2 0-2.232-.456-3.096-1.368-.852-.924-1.278-2.052-1.278-3.384 0-1.332.426-2.454 1.278-3.366.864-.924 1.896-1.386 3.096-1.386 1.26 0 2.238.438 2.934 1.314V121zm-4.284 6.336c.468.468 1.062.702 1.782.702s1.314-.234 1.782-.702c.48-.48.72-1.092.72-1.836s-.24-1.35-.72-1.818c-.468-.48-1.062-.72-1.782-.72s-1.314.24-1.782.72c-.468.468-.702 1.074-.702 1.818s.234 1.356.702 1.836zm13.463-6.588c.984 0 1.794.33 2.43.99.648.66.972 1.572.972 2.736V130h-2.322v-5.238c0-.6-.162-1.056-.486-1.368-.324-.324-.756-.486-1.296-.486-.6 0-1.08.186-1.44.558-.36.372-.54.93-.54 1.674V130h-2.322v-9h2.322v1.008c.564-.84 1.458-1.26 2.682-1.26zm9.417 9.504c-1.356 0-2.49-.456-3.402-1.368-.9-.912-1.35-2.04-1.35-3.384 0-1.344.45-2.472 1.35-3.384.912-.912 2.046-1.368 3.402-1.368.876 0 1.674.21 2.394.63.72.42 1.266.984 1.638 1.692l-1.998 1.17a2.023 2.023 0 00-.828-.882 2.332 2.332 0 00-1.224-.324c-.696 0-1.272.234-1.728.702-.456.456-.684 1.044-.684 1.764 0 .708.228 1.296.684 1.764.456.456 1.032.684 1.728.684.468 0 .882-.102 1.242-.306.372-.216.648-.51.828-.882l2.016 1.152a4.575 4.575 0 01-1.674 1.71c-.72.42-1.518.63-2.394.63zm6.865-3.798c.312 1.128 1.158 1.692 2.538 1.692.888 0 1.56-.3 2.016-.9l1.872 1.08c-.888 1.284-2.196 1.926-3.924 1.926-1.488 0-2.682-.45-3.582-1.35-.9-.9-1.35-2.034-1.35-3.402 0-1.356.444-2.484 1.332-3.384.888-.912 2.028-1.368 3.42-1.368 1.32 0 2.406.456 3.258 1.368.864.912 1.296 2.04 1.296 3.384 0 .3-.03.618-.09.954h-6.786zm-.036-1.8h4.59c-.132-.612-.408-1.068-.828-1.368-.408-.3-.876-.45-1.404-.45-.624 0-1.14.162-1.548.486-.408.312-.678.756-.81 1.332zM678.135 145h2.322v9h-2.322v-1.062c-.696.876-1.674 1.314-2.934 1.314-1.2 0-2.232-.456-3.096-1.368-.852-.924-1.278-2.052-1.278-3.384 0-1.332.426-2.454 1.278-3.366.864-.924 1.896-1.386 3.096-1.386 1.26 0 2.238.438 2.934 1.314V145zm-4.284 6.336c.468.468 1.062.702 1.782.702s1.314-.234 1.782-.702c.48-.48.72-1.092.72-1.836s-.24-1.35-.72-1.818c-.468-.48-1.062-.72-1.782-.72s-1.314.24-1.782.72c-.468.468-.702 1.074-.702 1.818s.234 1.356.702 1.836zm13.463-6.588c.984 0 1.794.33 2.43.99.648.66.972 1.572.972 2.736V154h-2.322v-5.238c0-.6-.162-1.056-.486-1.368-.324-.324-.756-.486-1.296-.486-.6 0-1.08.186-1.44.558-.36.372-.54.93-.54 1.674V154h-2.322v-9h2.322v1.008c.564-.84 1.458-1.26 2.682-1.26zm11.955-3.348h2.322V154h-2.322v-1.062c-.684.876-1.656 1.314-2.916 1.314-1.212 0-2.25-.456-3.114-1.368-.852-.924-1.278-2.052-1.278-3.384 0-1.332.426-2.454 1.278-3.366.864-.924 1.902-1.386 3.114-1.386 1.26 0 2.232.438 2.916 1.314V141.4zm-4.284 9.936c.48.468 1.08.702 1.8.702s1.314-.234 1.782-.702c.468-.48.702-1.092.702-1.836s-.234-1.35-.702-1.818c-.468-.48-1.062-.72-1.782-.72s-1.32.24-1.8.72c-.468.468-.702 1.074-.702 1.818s.234 1.356.702 1.836zm14.868-3.78c0 .24.156.438.468.594a7.79 7.79 0 001.17.396c.456.108.912.252 1.368.432.456.168.84.456 1.152.864.324.408.486.918.486 1.53 0 .924-.348 1.638-1.044 2.142-.684.492-1.542.738-2.574.738-1.848 0-3.108-.714-3.78-2.142l2.016-1.134c.264.78.852 1.17 1.764 1.17.828 0 1.242-.258 1.242-.774 0-.24-.162-.432-.486-.576a6.03 6.03 0 00-1.152-.414c-.456-.12-.912-.27-1.368-.45a2.909 2.909 0 01-1.17-.846c-.312-.396-.468-.888-.468-1.476 0-.888.324-1.584.972-2.088.66-.516 1.476-.774 2.448-.774.732 0 1.398.168 1.998.504.6.324 1.074.792 1.422 1.404l-1.98 1.08c-.288-.612-.768-.918-1.44-.918-.3 0-.552.066-.756.198a.622.622 0 00-.288.54zm7.724 2.898c.312 1.128 1.158 1.692 2.538 1.692.888 0 1.56-.3 2.016-.9l1.872 1.08c-.888 1.284-2.196 1.926-3.924 1.926-1.488 0-2.682-.45-3.582-1.35-.9-.9-1.35-2.034-1.35-3.402 0-1.356.444-2.484 1.332-3.384.888-.912 2.028-1.368 3.42-1.368 1.32 0 2.406.456 3.258 1.368.864.912 1.296 2.04 1.296 3.384 0 .3-.03.618-.09.954h-6.786zm-.036-1.8h4.59c-.132-.612-.408-1.068-.828-1.368-.408-.3-.876-.45-1.404-.45-.624 0-1.14.162-1.548.486-.408.312-.678.756-.81 1.332zm12.494 5.598c-1.356 0-2.49-.456-3.402-1.368-.9-.912-1.35-2.04-1.35-3.384 0-1.344.45-2.472 1.35-3.384.912-.912 2.046-1.368 3.402-1.368.876 0 1.674.21 2.394.63.72.42 1.266.984 1.638 1.692l-1.998 1.17a2.023 2.023 0 00-.828-.882 2.332 2.332 0 00-1.224-.324c-.696 0-1.272.234-1.728.702-.456.456-.684 1.044-.684 1.764 0 .708.228 1.296.684 1.764.456.456 1.032.684 1.728.684.468 0 .882-.102 1.242-.306.372-.216.648-.51.828-.882l2.016 1.152a4.575 4.575 0 01-1.674 1.71c-.72.42-1.518.63-2.394.63zM741.09 145h2.322v9h-2.322v-1.008c-.564.84-1.458 1.26-2.682 1.26-.984 0-1.8-.33-2.448-.99-.636-.66-.954-1.572-.954-2.736V145h2.322v5.238c0 .6.162 1.062.486 1.386.324.312.756.468 1.296.468.6 0 1.08-.186 1.44-.558.36-.372.54-.93.54-1.674V145zm6.518 1.548c.216-.576.57-1.008 1.062-1.296a3.314 3.314 0 011.674-.432v2.592c-.708-.084-1.344.06-1.908.432-.552.372-.828.99-.828 1.854V154h-2.322v-9h2.322v1.548zm4.995-2.628a1.411 1.411 0 01-1.422-1.422c0-.384.138-.72.414-1.008a1.382 1.382 0 011.008-.432c.396 0 .732.144 1.008.432.288.288.432.624.432 1.008s-.144.72-.432 1.008a1.372 1.372 0 01-1.008.414zM751.451 154v-9h2.322v9h-2.322zm9.343-6.768h-2.034v3.744c0 .312.078.54.234.684.156.144.384.228.684.252.3.012.672.006 1.116-.018V154c-1.596.18-2.724.03-3.384-.45-.648-.48-.972-1.338-.972-2.574v-3.744h-1.566V145h1.566v-1.818l2.322-.702V145h2.034v2.232zM768.24 145h2.484l-3.276 9c-.468 1.296-1.092 2.232-1.872 2.808-.768.588-1.728.852-2.88.792v-2.16c.624.012 1.116-.12 1.476-.396.372-.276.666-.72.882-1.332l-3.69-8.712h2.538l2.34 6.048L768.24 145z" fill="#342559"/><rect x="644.5" y=".5" width="152" height="195" rx="7.5" stroke="#E9E8F9"/><rect x="805.5" y=".5" width="152" height="195" rx="7.5" fill="#fff"/><path fill-rule="evenodd" clip-rule="evenodd" d="M872.697 34.27a4.883 4.883 0 11-9.766 0 4.883 4.883 0 019.766 0zm5.005 10.62l3.418 14.526c0 .05.021.122.045.206.035.118.077.261.077.404a2.449 2.449 0 01-2.442 2.441c-1.098 0-2.075-.854-2.319-1.83l-2.563-10.62v31.859a2.441 2.441 0 01-4.883 0v-19.53h-2.441v19.53a2.441 2.441 0 01-4.883 0V50.139l-2.563 10.62c-.244.976-1.221 1.83-2.32 1.83a2.449 2.449 0 01-2.441-2.44c0-.144.042-.287.077-.405.024-.084.045-.156.045-.206l3.418-14.526c.122-.489.366-.977.732-1.343 1.465-1.22 3.174-2.197 5.127-2.685 1.343-.367 2.686-.61 4.028-.61 1.343 0 2.686.243 4.029.487 1.953.61 3.662 1.465 5.126 2.686.367.366.611.854.733 1.343z" fill="#EAE8FF"/><path d="M878.733 58.028h.5v-.058l-.014-.056-.486.114zm-3.418-14.526l.487-.114-.002-.007-.485.121zm3.463 14.732l.48-.14-.48.14zm-4.684 1.015l-.486.117.001.004.485-.12zm-2.563-10.62l.486-.117-.986.117h.5zm-4.883 12.329h.5v-.5h-.5v.5zm-2.441 0v-.5h-.5v.5h.5zm-4.883-12.207h.5l-.986-.117.486.117zm-2.563 10.62l.485.121.001-.003-.486-.118zm-4.684-1.015l.479.14-.479-.14zm.045-.206l-.487-.114-.013.056v.059h.5zm3.418-14.526l-.485-.12-.002.006.487.114zm.732-1.342l-.32-.384-.017.014-.016.016.353.354zm5.127-2.686l.121.486.011-.003-.132-.483zm8.057-.122l.149-.477-.03-.01-.03-.005-.089.492zm5.126 2.686l.354-.354-.016-.016-.018-.014-.32.384zm-9.155-4.895a5.383 5.383 0 005.383-5.382h-1a4.383 4.383 0 01-4.383 4.382v1zm-5.382-5.382a5.383 5.383 0 005.382 5.382v-1a4.382 4.382 0 01-4.382-4.382h-1zm5.382-5.383a5.383 5.383 0 00-5.382 5.383h1a4.382 4.382 0 014.382-4.383v-1zm5.383 5.383a5.383 5.383 0 00-5.383-5.383v1a4.383 4.383 0 014.383 4.383h1zm8.409 26.03l-3.417-14.525-.974.229 3.418 14.526.973-.23zm.039.18a1.985 1.985 0 00-.026-.09l-.002-.01a.133.133 0 01.003.035h-1a.89.89 0 00.027.207c.012.05.027.101.038.14l.96-.281zm.097.546c0-.227-.066-.438-.097-.545l-.96.28c.018.062.032.11.043.16.01.046.014.08.014.105h1zm-2.942 2.941a2.949 2.949 0 002.942-2.941h-1a1.949 1.949 0 01-1.942 1.941v1zm-2.804-2.21c.296 1.182 1.459 2.21 2.804 2.21v-1c-.851 0-1.641-.68-1.834-1.452l-.97.242zm-2.564-10.623l2.563 10.62.972-.235-2.563-10.62-.972.235zm.986 31.742v-31.86h-1v31.86h1zm-2.942 2.941a2.942 2.942 0 002.942-2.941h-1a1.941 1.941 0 01-1.942 1.941v1zm-2.941-2.941a2.941 2.941 0 002.941 2.941v-1a1.941 1.941 0 01-1.941-1.941h-1zm0-19.531v19.53h1v-19.53h-1zm-1.941.5h2.441v-1h-2.441v1zm.5 19.03v-19.53h-1v19.53h1zm-2.942 2.942a2.942 2.942 0 002.942-2.941h-1a1.941 1.941 0 01-1.942 1.941v1zm-2.941-2.941a2.941 2.941 0 002.941 2.941v-1a1.941 1.941 0 01-1.941-1.941h-1zm0-31.738V80.49h1V48.75h-1zm-1.577 10.738l2.563-10.62-.972-.235-2.563 10.62.972.235zm-2.806 2.213c1.346 0 2.509-1.028 2.805-2.21l-.97-.242c-.193.771-.983 1.452-1.835 1.452v1zm-2.941-2.941a2.948 2.948 0 002.941 2.941v-1a1.949 1.949 0 01-1.941-1.941h-1zm.097-.545c-.032.107-.097.318-.097.545h1c0-.024.004-.059.014-.106a2.02 2.02 0 01.042-.158l-.959-.281zm.025-.066c0-.02.002-.033.002-.035l-.002.01-.009.036a2.11 2.11 0 00-.016.055l.959.28c.012-.038.027-.09.039-.139a.89.89 0 00.027-.206h-1zm3.431-14.64l-3.418 14.526.974.229 3.418-14.526-.974-.229zm.866-1.582c-.442.442-.725 1.017-.864 1.575l.97.243c.105-.418.311-.82.601-1.11l-.707-.708zm5.359-2.817c-2.04.51-3.815 1.528-5.326 2.787l.64.768c1.419-1.183 3.062-2.118 4.928-2.585l-.242-.97zm4.149-.625c-1.402 0-2.791.255-4.159.628l.263.965c1.317-.36 2.613-.593 3.896-.593v-1zm4.118.496c-1.335-.242-2.722-.496-4.118-.496v1c1.29 0 2.588.235 3.939.48l.179-.984zm5.357 2.794c-1.525-1.272-3.296-2.154-5.297-2.779l-.299.955c1.905.595 3.552 1.422 4.956 2.592l.64-.768zm.898 1.605c-.14-.558-.422-1.133-.864-1.575l-.707.707c.29.29.496.693.601 1.11l.97-.242z" fill="#211541"/><path fill-rule="evenodd" clip-rule="evenodd" d="M901.697 34.27a4.883 4.883 0 11-9.766 0 4.883 4.883 0 019.766 0zm5.005 10.62l3.418 14.526c0 .05.021.122.045.206.035.118.077.261.077.404a2.449 2.449 0 01-2.442 2.441c-1.098 0-2.075-.854-2.319-1.83l-2.563-10.62v31.859a2.441 2.441 0 01-4.883 0v-19.53h-2.441v19.53a2.441 2.441 0 01-4.883 0V50.138l-2.563 10.62c-.244.977-1.221 1.831-2.32 1.831a2.449 2.449 0 01-2.441-2.441c0-.143.042-.286.077-.405.024-.083.045-.155.045-.205l3.418-14.526c.122-.489.366-.977.732-1.343 1.465-1.22 3.174-2.197 5.127-2.685 1.343-.367 2.686-.61 4.028-.61 1.343 0 2.686.243 4.029.487 1.953.61 3.662 1.465 5.126 2.686.367.366.611.854.733 1.343z" fill="#EAE8FF"/><path d="M907.733 58.028h.5v-.058l-.014-.056-.486.114zm-3.418-14.526l.487-.114-.002-.007-.485.121zm3.463 14.732l.48-.14-.48.14zm-4.684 1.015l-.486.117.001.004.485-.12zm-2.563-10.62l.486-.117-.986.117h.5zm-4.883 12.329h.5v-.5h-.5v.5zm-2.441 0v-.5h-.5v.5h.5zm-4.883-12.207h.5l-.986-.117.486.117zm-2.563 10.62l.485.121.001-.003-.486-.118zm-4.684-1.015l.479.14-.479-.14zm.045-.206l-.487-.114-.013.056v.059h.5zm3.418-14.526l-.485-.12-.002.006.487.114zm.732-1.342l-.32-.384-.017.014-.016.016.353.354zm5.127-2.686l.121.486.011-.003-.132-.483zm8.057-.122l.149-.477-.03-.01-.03-.005-.089.492zm5.126 2.686l.354-.354-.016-.016-.018-.014-.32.384zm-9.155-4.895a5.383 5.383 0 005.383-5.382h-1a4.383 4.383 0 01-4.383 4.382v1zm-5.382-5.382a5.383 5.383 0 005.382 5.382v-1a4.382 4.382 0 01-4.382-4.382h-1zm5.382-5.383a5.383 5.383 0 00-5.382 5.383h1a4.382 4.382 0 014.382-4.383v-1zm5.383 5.383a5.383 5.383 0 00-5.383-5.383v1a4.383 4.383 0 014.383 4.383h1zm8.409 26.03l-3.417-14.525-.974.229 3.418 14.526.973-.23zm.039.18a1.985 1.985 0 00-.026-.09l-.002-.01a.133.133 0 01.003.035h-1a.89.89 0 00.027.207c.012.05.027.101.038.14l.96-.281zm.097.546c0-.227-.066-.438-.097-.545l-.96.28c.018.062.032.11.043.16.01.046.014.08.014.105h1zm-2.942 2.941a2.949 2.949 0 002.942-2.941h-1a1.949 1.949 0 01-1.942 1.941v1zm-2.804-2.21c.296 1.182 1.459 2.21 2.804 2.21v-1c-.851 0-1.641-.68-1.834-1.452l-.97.242zm-2.564-10.623l2.563 10.62.972-.235-2.563-10.62-.972.235zm.986 31.742v-31.86h-1v31.86h1zm-2.942 2.941a2.942 2.942 0 002.942-2.941h-1a1.941 1.941 0 01-1.942 1.941v1zm-2.941-2.941a2.941 2.941 0 002.941 2.941v-1a1.941 1.941 0 01-1.941-1.941h-1zm0-19.531v19.53h1v-19.53h-1zm-1.941.5h2.441v-1h-2.441v1zm.5 19.03v-19.53h-1v19.53h1zm-2.942 2.942a2.942 2.942 0 002.942-2.941h-1a1.941 1.941 0 01-1.942 1.941v1zm-2.941-2.941a2.941 2.941 0 002.941 2.941v-1a1.941 1.941 0 01-1.941-1.941h-1zm0-31.738V80.49h1V48.75h-1zm-1.577 10.738l2.563-10.62-.972-.235-2.563 10.62.972.235zm-2.806 2.213c1.346 0 2.509-1.028 2.805-2.21l-.97-.242c-.193.771-.983 1.452-1.835 1.452v1zm-2.941-2.941a2.948 2.948 0 002.941 2.941v-1a1.949 1.949 0 01-1.941-1.941h-1zm.097-.545c-.032.107-.097.318-.097.545h1c0-.024.004-.059.014-.106a2.02 2.02 0 01.042-.158l-.959-.281zm.025-.066c0-.02.002-.033.002-.035l-.002.01-.009.036a2.11 2.11 0 00-.016.055l.959.28c.012-.038.027-.09.039-.139a.89.89 0 00.027-.206h-1zm3.431-14.64l-3.418 14.526.974.229 3.418-14.526-.974-.229zm.866-1.582c-.442.442-.725 1.017-.864 1.575l.97.243c.105-.418.311-.82.601-1.11l-.707-.708zm5.359-2.817c-2.04.51-3.815 1.528-5.326 2.787l.64.768c1.419-1.183 3.062-2.118 4.928-2.585l-.242-.97zm4.149-.625c-1.402 0-2.791.255-4.159.628l.263.965c1.317-.36 2.613-.593 3.896-.593v-1zm4.118.496c-1.335-.242-2.722-.496-4.118-.496v1c1.29 0 2.588.235 3.939.48l.179-.984zm5.357 2.794c-1.525-1.272-3.296-2.154-5.297-2.779l-.299.955c1.905.595 3.552 1.422 4.956 2.592l.64-.768zm.898 1.605c-.14-.558-.422-1.133-.864-1.575l-.707.707c.29.29.496.693.601 1.11l.97-.242z" fill="#211541"/><path d="M873.859 105.4h2.466V118h-2.466v-5.22h-4.68V118h-2.484v-12.6h2.484v5.004h4.68V105.4zm5.598 2.52a1.411 1.411 0 01-1.422-1.422c0-.384.138-.72.414-1.008a1.382 1.382 0 011.008-.432c.396 0 .732.144 1.008.432.288.288.432.624.432 1.008s-.144.72-.432 1.008a1.372 1.372 0 01-1.008.414zM878.305 118v-9h2.322v9h-2.322zm6.517-7.452c.216-.576.57-1.008 1.062-1.296a3.314 3.314 0 011.674-.432v2.592c-.708-.084-1.344.06-1.908.432-.552.372-.828.99-.828 1.854V118H882.5v-9h2.322v1.548zm5.471 3.906c.312 1.128 1.158 1.692 2.538 1.692.888 0 1.56-.3 2.016-.9l1.872 1.08c-.888 1.284-2.196 1.926-3.924 1.926-1.488 0-2.682-.45-3.582-1.35-.9-.9-1.35-2.034-1.35-3.402 0-1.356.444-2.484 1.332-3.384.888-.912 2.028-1.368 3.42-1.368 1.32 0 2.406.456 3.258 1.368.864.912 1.296 2.04 1.296 3.384 0 .3-.03.618-.09.954h-6.786zm-.036-1.8h4.59c-.132-.612-.408-1.068-.828-1.368-.408-.3-.876-.45-1.404-.45-.624 0-1.14.162-1.548.486-.408.312-.678.756-.81 1.332zm-49.628 25.8c.312 1.128 1.158 1.692 2.538 1.692.888 0 1.56-.3 2.016-.9l1.872 1.08c-.888 1.284-2.196 1.926-3.924 1.926-1.488 0-2.682-.45-3.582-1.35-.9-.9-1.35-2.034-1.35-3.402 0-1.356.444-2.484 1.332-3.384.888-.912 2.028-1.368 3.42-1.368 1.32 0 2.406.456 3.258 1.368.864.912 1.296 2.04 1.296 3.384 0 .3-.03.618-.09.954h-6.786zm-.036-1.8h4.59c-.132-.612-.408-1.068-.828-1.368-.408-.3-.876-.45-1.404-.45-.624 0-1.14.162-1.548.486-.408.312-.678.756-.81 1.332zm18.235-3.906c1.032 0 1.854.336 2.466 1.008.624.672.936 1.572.936 2.7V142h-2.322v-5.382c0-.54-.132-.96-.396-1.26-.264-.3-.636-.45-1.116-.45-.528 0-.942.174-1.242.522-.288.348-.432.852-.432 1.512V142H854.4v-5.382c0-.54-.132-.96-.396-1.26-.264-.3-.636-.45-1.116-.45-.516 0-.93.174-1.242.522-.3.348-.45.852-.45 1.512V142h-2.322v-9h2.322v.954c.54-.804 1.374-1.206 2.502-1.206 1.104 0 1.92.432 2.448 1.296.6-.864 1.494-1.296 2.682-1.296zm10.36 0c1.212 0 2.244.462 3.096 1.386.864.912 1.296 2.034 1.296 3.366 0 1.332-.432 2.46-1.296 3.384-.852.912-1.884 1.368-3.096 1.368-1.26 0-2.232-.438-2.916-1.314v4.662h-2.322V133h2.322v1.062c.684-.876 1.656-1.314 2.916-1.314zm-2.214 6.588c.468.468 1.062.702 1.782.702s1.314-.234 1.782-.702c.48-.48.72-1.092.72-1.836s-.24-1.35-.72-1.818c-.468-.48-1.062-.72-1.782-.72s-1.314.24-1.782.72c-.468.468-.702 1.074-.702 1.818s.234 1.356.702 1.836zm7.991 2.664v-13.14h2.322V142h-2.322zm11.864-1.116c-.924.912-2.052 1.368-3.384 1.368-1.332 0-2.46-.456-3.384-1.368-.912-.924-1.368-2.052-1.368-3.384 0-1.332.456-2.454 1.368-3.366.924-.924 2.052-1.386 3.384-1.386 1.332 0 2.46.462 3.384 1.386.924.912 1.386 2.034 1.386 3.366 0 1.332-.462 2.46-1.386 3.384zm-5.13-1.602c.468.468 1.05.702 1.746.702s1.278-.234 1.746-.702c.468-.468.702-1.062.702-1.782s-.234-1.314-.702-1.782c-.468-.468-1.05-.702-1.746-.702s-1.278.234-1.746.702c-.456.468-.684 1.062-.684 1.782s.228 1.314.684 1.782zM895.113 133h2.484l-3.276 9c-.468 1.296-1.092 2.232-1.872 2.808-.768.588-1.728.852-2.88.792v-2.16c.624.012 1.116-.12 1.476-.396.372-.276.666-.72.882-1.332l-3.69-8.712h2.538l2.34 6.048 1.998-6.048zm4.947 5.454c.312 1.128 1.158 1.692 2.538 1.692.888 0 1.56-.3 2.016-.9l1.872 1.08c-.888 1.284-2.196 1.926-3.924 1.926-1.488 0-2.682-.45-3.582-1.35-.9-.9-1.35-2.034-1.35-3.402 0-1.356.444-2.484 1.332-3.384.888-.912 2.028-1.368 3.42-1.368 1.32 0 2.406.456 3.258 1.368.864.912 1.296 2.04 1.296 3.384 0 .3-.03.618-.09.954h-6.786zm-.036-1.8h4.59c-.132-.612-.408-1.068-.828-1.368-.408-.3-.876-.45-1.404-.45-.624 0-1.14.162-1.548.486-.408.312-.678.756-.81 1.332zm10.173 1.8c.312 1.128 1.158 1.692 2.538 1.692.888 0 1.56-.3 2.016-.9l1.872 1.08c-.888 1.284-2.196 1.926-3.924 1.926-1.488 0-2.682-.45-3.582-1.35-.9-.9-1.35-2.034-1.35-3.402 0-1.356.444-2.484 1.332-3.384.888-.912 2.028-1.368 3.42-1.368 1.32 0 2.406.456 3.258 1.368.864.912 1.296 2.04 1.296 3.384 0 .3-.03.618-.09.954h-6.786zm-.036-1.8h4.59c-.132-.612-.408-1.068-.828-1.368-.408-.3-.876-.45-1.404-.45-.624 0-1.14.162-1.548.486-.408.312-.678.756-.81 1.332zm10.071-1.098c0 .24.156.438.468.594a7.79 7.79 0 001.17.396c.456.108.912.252 1.368.432.456.168.84.456 1.152.864.324.408.486.918.486 1.53 0 .924-.348 1.638-1.044 2.142-.684.492-1.542.738-2.574.738-1.848 0-3.108-.714-3.78-2.142l2.016-1.134c.264.78.852 1.17 1.764 1.17.828 0 1.242-.258 1.242-.774 0-.24-.162-.432-.486-.576a6.03 6.03 0 00-1.152-.414c-.456-.12-.912-.27-1.368-.45a2.909 2.909 0 01-1.17-.846c-.312-.396-.468-.888-.468-1.476 0-.888.324-1.584.972-2.088.66-.516 1.476-.774 2.448-.774.732 0 1.398.168 1.998.504.6.324 1.074.792 1.422 1.404l-1.98 1.08c-.288-.612-.768-.918-1.44-.918-.3 0-.552.066-.756.198a.622.622 0 00-.288.54z" fill="#342559"/><rect x="805.5" y=".5" width="152" height="195" rx="7.5" stroke="#E9E8F9"/><rect x="966.5" y=".5" width="152" height="195" rx="7.5" fill="#fff"/><rect x="1017.75" y="39" width="56" height="41" rx="4" fill="#EAE8FF"/><rect x="1015.25" y="36.5" width="55" height="40" rx="3.5" stroke="#211541"/><circle cx="1020.25" cy="41.5" r="1.5" fill="#211541"/><circle cx="1025.25" cy="41.5" r="1.5" fill="#211541"/><circle cx="1030.25" cy="41.5" r="1.5" fill="#211541"/><mask id="path-80-inside-1_932_7824" fill="#fff"><path d="M1054.75 58c0-2.588-.84-5.106-2.38-7.18a12.02 12.02 0 00-6.21-4.326 11.994 11.994 0 00-13.47 4.97 11.99 11.99 0 00-1.91 7.32 11.887 11.887 0 002.85 7.01 11.996 11.996 0 006.47 3.91 12 12 0 007.53-.741L1042.75 58h12z"/></mask><path d="M1054.75 58c0-2.588-.84-5.106-2.38-7.18a12.02 12.02 0 00-6.21-4.326 11.994 11.994 0 00-13.47 4.97 11.99 11.99 0 00-1.91 7.32 11.887 11.887 0 002.85 7.01 11.996 11.996 0 006.47 3.91 12 12 0 007.53-.741L1042.75 58h12z" stroke="#211541" stroke-width="2" mask="url(#path-80-inside-1_932_7824)"/><path d="M1050.97 70.807a11.991 11.991 0 004.92-4.39 12.024 12.024 0 001.86-6.33l-12-.087 5.22 10.807z" fill="#211541"/><path d="M1027.49 129.4V142h-2.47v-8.172l-3.55 5.85h-.28l-3.55-5.832V142h-2.48v-12.6h2.55l3.62 5.958 3.6-5.958h2.56zm8.82 3.6h2.33v9h-2.33v-1.062c-.69.876-1.67 1.314-2.93 1.314-1.2 0-2.23-.456-3.1-1.368-.85-.924-1.27-2.052-1.27-3.384 0-1.332.42-2.454 1.27-3.366.87-.924 1.9-1.386 3.1-1.386 1.26 0 2.24.438 2.93 1.314V133zm-4.28 6.336c.47.468 1.06.702 1.78.702s1.32-.234 1.78-.702c.48-.48.72-1.092.72-1.836s-.24-1.35-.72-1.818c-.46-.48-1.06-.72-1.78-.72s-1.31.24-1.78.72c-.47.468-.7 1.074-.7 1.818s.23 1.356.7 1.836zm10.78-4.788c.22-.576.57-1.008 1.06-1.296a3.331 3.331 0 011.68-.432v2.592c-.71-.084-1.35.06-1.91.432-.55.372-.83.99-.83 1.854V142h-2.32v-9h2.32v1.548zm12.14 7.452h-2.7l-3.28-4.086V142h-2.32v-12.6h2.32v7.56l3.1-3.96h2.77l-3.62 4.446 3.73 4.554zm2.22-3.546c.31 1.128 1.16 1.692 2.54 1.692.89 0 1.56-.3 2.01-.9l1.88 1.08c-.89 1.284-2.2 1.926-3.93 1.926-1.49 0-2.68-.45-3.58-1.35-.9-.9-1.35-2.034-1.35-3.402 0-1.356.44-2.484 1.33-3.384.89-.912 2.03-1.368 3.42-1.368 1.32 0 2.41.456 3.26 1.368.86.912 1.3 2.04 1.3 3.384 0 .3-.03.618-.09.954h-6.79zm-.04-1.8h4.59c-.13-.612-.4-1.068-.82-1.368-.41-.3-.88-.45-1.41-.45-.62 0-1.14.162-1.55.486-.4.312-.67.756-.81 1.332zm13.17-1.422h-2.04v3.744c0 .312.08.54.24.684.15.144.38.228.68.252.3.012.67.006 1.12-.018V142c-1.6.18-2.73.03-3.39-.45-.64-.48-.97-1.338-.97-2.574v-3.744h-1.56V133h1.56v-1.818l2.32-.702V133h2.04v2.232z" fill="#342559"/><rect x="966.5" y=".5" width="152" height="195" rx="7.5" stroke="#E9E8F9"/><rect x="1127.5" y=".5" width="152" height="195" rx="7.5" fill="#fff"/><path d="M1222.72 58.948l-5.26 5.265 1.17 1.173 5.26-5.265-1.17-1.173zm-6.43 6.433l-1.18 1.173 1.18 1.174 1.17-1.174-1.17-1.173zm-11.19-35.264l-5.26 5.265 1.17 1.173 5.27-5.265-1.18-1.173zm-6.43 6.432l-1.18 1.173 1.18 1.174 1.17-1.174-1.17-1.173z" fill="#211541"/><path d="M1232.31 32.768c-.18-.01-.37-.033-.57-.044-3.94-.321-12.12-1.007-19.09 5.974l-8.51 8.508-12.68 2.766-10.38 10.377 9.06 2.346 1.85 1.847-5.81 8.43 2.76 2.755-1.59 1.582 1.18 1.173 1.58-1.582 3.03 3.031 8.18-6.073 1.83 1.836 2.35 9.061 10.38-10.377 2.76-12.679 8.51-8.508c6.97-6.97 6.29-15.157 5.97-19.095-.01-.2-.03-.387-.04-.564l-.06-.709-.71-.055zm-39 44.973l-2.03-2.025 2.73-2.732-1.17-1.173-2.73 2.733-1.78-1.782 4.85-7.036 6.95 6.948-6.82 5.067zm-9-18.277l7.99-7.988 9.68-2.113-11.66 11.65-6.01-1.549zm21.52 12.679l-1.94 1.947-12.14-12.159 1.93-1.936 12.15 12.148zm8.53 1.405l-7.98 7.977-1.55-6.019 11.65-11.65-2.12 9.692zm-7.35-2.578l-12.15-12.148 18.37-18.376 5.49 5.488-3.99 3.994a5.29 5.29 0 00-6.85.542 5.305 5.305 0 00-.55 6.848l-3.46 3.463 1.17 1.172 3.47-3.462a5.304 5.304 0 006.85-.542 5.316 5.316 0 00.54-6.849l3.99-3.994 5.49 5.488-18.37 18.376zm7.17-19.317a3.628 3.628 0 11-5.13 0 3.628 3.628 0 015.13 0zm16.79-8.352a18.53 18.53 0 01-4.43 8.109l-12.12-12.125c2.64-2.434 5.46-3.751 8.11-4.426l8.44 8.441zm.39-1.948l-6.89-6.881c2.81-.432 5.3-.244 6.99-.1.15 1.693.34 4.182-.1 6.981z" fill="#EAE8FF"/><path d="M1230.97 43.3a18.53 18.53 0 01-4.43 8.11l-12.12-12.125c2.64-2.434 5.46-3.751 8.11-4.426l8.44 8.441zm.39-1.947l-6.89-6.881c2.81-.432 5.3-.244 6.99-.1.15 1.693.34 4.182-.1 6.981zm-24.35 29.617l-12.15-12.148 18.37-18.376 5.49 5.488-3.99 3.994a5.29 5.29 0 00-6.85.542 5.305 5.305 0 00-.55 6.848l-3.46 3.463 1.17 1.172 3.47-3.462a5.304 5.304 0 006.85-.542 5.316 5.316 0 00.54-6.849l3.99-3.994 5.49 5.488-18.37 18.376z" fill="#EAE8FF"/><path d="M1214.18 51.653a3.628 3.628 0 11-5.13 0 3.628 3.628 0 015.13 0zm.18 21.895l-7.98 7.977-1.55-6.019 11.65-11.65-2.12 9.692zm-8.53-1.405l-1.94 1.947-12.14-12.159 1.93-1.936 12.15 12.148zm-21.52-12.679l7.99-7.988 9.68-2.113-11.66 11.65-6.01-1.549zm9 18.276l-2.03-2.024 2.73-2.732-1.17-1.173-2.73 2.733-1.78-1.782 4.85-7.036 6.95 6.948-6.82 5.067z" fill="#EAE8FF"/><path d="M1229.65 29.228c-.18-.011-.37-.033-.56-.044-3.94-.321-12.13-1.007-19.1 5.974l-8.51 8.508-12.68 2.766-10.37 10.377 9.06 2.345 1.84 1.848-5.8 8.43 2.75 2.755-1.58 1.582 1.17 1.173 1.58-1.582 3.04 3.031 8.17-6.074 1.84 1.837 2.34 9.06 10.38-10.377 2.77-12.678 8.5-8.508c6.97-6.97 6.3-15.157 5.98-19.096a8.973 8.973 0 00-.05-.564l-.05-.708-.72-.055zm-39 44.973l-2.02-2.025 2.73-2.733-1.17-1.172-2.74 2.732-1.78-1.78 4.86-7.037 6.95 6.948-6.83 5.067zm-8.99-18.277l7.98-7.988 9.68-2.113-11.66 11.65-6-1.55zm21.52 12.679l-1.94 1.947-12.15-12.159 1.94-1.936 12.15 12.148zm8.52 1.405l-7.97 7.976-1.55-6.018 11.65-11.65-2.13 9.692zm-7.34-2.578l-12.16-12.148 18.38-18.376 5.48 5.487-3.99 3.994a5.29 5.29 0 00-6.85.542c-1.86 1.859-2.04 4.78-.54 6.849l-3.46 3.462 1.17 1.173 3.46-3.463a5.304 5.304 0 006.85-.542 5.292 5.292 0 00.54-6.848l4-3.994 5.48 5.487-18.36 18.377zm7.17-19.317a3.644 3.644 0 010 5.133 3.64 3.64 0 01-5.14 0 3.644 3.644 0 010-5.133 3.64 3.64 0 015.14 0zm16.78-8.353c-.67 2.644-1.98 5.466-4.42 8.11l-12.13-12.126c2.64-2.434 5.47-3.75 8.11-4.425l8.44 8.441zm.4-1.947l-6.89-6.881c2.81-.432 5.3-.244 6.99-.1.14 1.693.33 4.182-.1 6.981zm-45.18 37.118l-1.18 1.174 1.18 1.173 1.17-1.173-1.17-1.174zm4.61 1.459l-3.3 3.3 1.17 1.174 3.31-3.301-1.18-1.174zm-4.47 4.47l-1.17 1.173 1.17 1.174 1.18-1.174-1.18-1.174zm-1.32-10.269l-3.3 3.301 1.17 1.174 3.3-3.302-1.17-1.173zm-4.48 4.487l-1.17 1.173 1.17 1.174 1.18-1.174-1.18-1.173z" fill="#211541"/><path d="M1152.03 139.624h4.81V142h-7.29v-12.6h2.48v10.224zm12.52-6.624h2.33v9h-2.33v-1.062c-.69.876-1.67 1.314-2.93 1.314-1.2 0-2.23-.456-3.1-1.368-.85-.924-1.27-2.052-1.27-3.384 0-1.332.42-2.454 1.27-3.366.87-.924 1.9-1.386 3.1-1.386 1.26 0 2.24.438 2.93 1.314V133zm-4.28 6.336c.47.468 1.06.702 1.78.702s1.32-.234 1.78-.702c.48-.48.72-1.092.72-1.836s-.24-1.35-.72-1.818c-.46-.48-1.06-.72-1.78-.72s-1.31.24-1.78.72c-.47.468-.7 1.074-.7 1.818s.23 1.356.7 1.836zm14.4-6.336h2.32v9h-2.32v-1.008c-.56.84-1.46 1.26-2.68 1.26-.99 0-1.8-.33-2.45-.99-.64-.66-.95-1.572-.95-2.736V133h2.32v5.238c0 .6.16 1.062.48 1.386.33.312.76.468 1.3.468.6 0 1.08-.186 1.44-.558.36-.372.54-.93.54-1.674V133zm9.2-.252c.98 0 1.79.33 2.43.99.65.66.97 1.572.97 2.736V142h-2.32v-5.238c0-.6-.16-1.056-.49-1.368-.32-.324-.75-.486-1.29-.486-.6 0-1.08.186-1.44.558-.36.372-.54.93-.54 1.674V142h-2.32v-9h2.32v1.008c.56-.84 1.46-1.26 2.68-1.26zm9.42 9.504c-1.36 0-2.49-.456-3.41-1.368-.9-.912-1.35-2.04-1.35-3.384 0-1.344.45-2.472 1.35-3.384.92-.912 2.05-1.368 3.41-1.368.87 0 1.67.21 2.39.63.72.42 1.27.984 1.64 1.692l-2 1.17a2.04 2.04 0 00-.83-.882 2.333 2.333 0 00-1.22-.324c-.7 0-1.27.234-1.73.702-.46.456-.68 1.044-.68 1.764 0 .708.22 1.296.68 1.764.46.456 1.03.684 1.73.684.47 0 .88-.102 1.24-.306.37-.216.65-.51.83-.882l2.01 1.152a4.52 4.52 0 01-1.67 1.71c-.72.42-1.52.63-2.39.63zm10.04-9.504c.99 0 1.8.33 2.43.99.65.66.98 1.572.98 2.736V142h-2.33v-5.238c0-.6-.16-1.056-.48-1.368-.33-.324-.76-.486-1.3-.486-.6 0-1.08.186-1.44.558-.36.372-.54.93-.54 1.674V142h-2.32v-12.6h2.32v4.608c.57-.84 1.46-1.26 2.68-1.26zm5.7 11.052H1208l7.2-16.2h1.03l-7.2 16.2zm16.28-2.916c-.93.912-2.06 1.368-3.39 1.368s-2.46-.456-3.38-1.368c-.91-.924-1.37-2.052-1.37-3.384 0-1.332.46-2.454 1.37-3.366.92-.924 2.05-1.386 3.38-1.386s2.46.462 3.39 1.386c.92.912 1.38 2.034 1.38 3.366 0 1.332-.46 2.46-1.38 3.384zm-5.13-1.602c.46.468 1.05.702 1.74.702.7 0 1.28-.234 1.75-.702.47-.468.7-1.062.7-1.782s-.23-1.314-.7-1.782c-.47-.468-1.05-.702-1.75-.702-.69 0-1.28.234-1.74.702-.46.468-.69 1.062-.69 1.782s.23 1.314.69 1.782zm13.13-6.534c1.21 0 2.24.462 3.1 1.386.86.912 1.29 2.034 1.29 3.366 0 1.332-.43 2.46-1.29 3.384-.86.912-1.89 1.368-3.1 1.368-1.26 0-2.23-.438-2.92-1.314v4.662h-2.32V133h2.32v1.062c.69-.876 1.66-1.314 2.92-1.314zm-2.21 6.588c.46.468 1.06.702 1.78.702s1.31-.234 1.78-.702c.48-.48.72-1.092.72-1.836s-.24-1.35-.72-1.818c-.47-.48-1.06-.72-1.78-.72s-1.32.24-1.78.72c-.47.468-.71 1.074-.71 1.818s.24 1.356.71 1.836zm9.95-.882c.31 1.128 1.16 1.692 2.54 1.692.89 0 1.56-.3 2.01-.9l1.88 1.08c-.89 1.284-2.2 1.926-3.93 1.926-1.49 0-2.68-.45-3.58-1.35-.9-.9-1.35-2.034-1.35-3.402 0-1.356.44-2.484 1.33-3.384.89-.912 2.03-1.368 3.42-1.368 1.32 0 2.41.456 3.26 1.368.86.912 1.3 2.04 1.3 3.384 0 .3-.03.618-.09.954h-6.79zm-.04-1.8h4.59c-.13-.612-.4-1.068-.82-1.368-.41-.3-.88-.45-1.41-.45-.62 0-1.14.162-1.55.486-.4.312-.67.756-.81 1.332zm13.29-3.906c.98 0 1.79.33 2.43.99.65.66.97 1.572.97 2.736V142h-2.32v-5.238c0-.6-.16-1.056-.49-1.368-.32-.324-.75-.486-1.29-.486-.6 0-1.08.186-1.44.558-.36.372-.54.93-.54 1.674V142h-2.32v-9h2.32v1.008c.56-.84 1.46-1.26 2.68-1.26z" fill="#342559"/><rect x="1127.5" y=".5" width="152" height="195" rx="7.5" stroke="#E9E8F9"/><path d="M122.272 35.311a1.499 1.499 0 111.456-2.622l-1.456 2.622zm69.196-2.736a1.5 1.5 0 01.957 1.893l-4.21 12.826a1.5 1.5 0 11-2.85-.935l3.742-11.402-11.402-3.742a1.5 1.5 0 01.936-2.85l12.827 4.21zm-67.74.114c15.802 8.776 32.419 8.798 45.169 6.583a90.937 90.937 0 0015.52-4.15 73.866 73.866 0 004.385-1.756 44.752 44.752 0 001.503-.696l.016-.007.002-.002h.001L191 34c.677 1.339.676 1.339.676 1.34h-.003l-.007.004-.023.012-.086.042-.322.155c-.28.133-.691.323-1.222.558a76.855 76.855 0 01-4.565 1.829 93.934 93.934 0 01-16.038 4.288c-13.148 2.285-30.53 2.307-47.138-6.917l1.456-2.622z" fill="#fff"/><path d="M122.272 35.311a1.499 1.499 0 111.456-2.622l-1.456 2.622zm69.196-2.736a1.5 1.5 0 01.957 1.893l-4.21 12.826a1.5 1.5 0 11-2.85-.935l3.742-11.402-11.402-3.742a1.5 1.5 0 01.936-2.85l12.827 4.21zm-67.74.114c15.802 8.776 32.419 8.798 45.169 6.583a90.937 90.937 0 0015.52-4.15 73.866 73.866 0 004.385-1.756 44.752 44.752 0 001.503-.696l.016-.007.002-.002h.001L191 34c.677 1.339.676 1.339.676 1.34h-.003l-.007.004-.023.012-.086.042-.322.155c-.28.133-.691.323-1.222.558a76.855 76.855 0 01-4.565 1.829 93.934 93.934 0 01-16.038 4.288c-13.148 2.285-30.53 2.307-47.138-6.917l1.456-2.622z" fill="url(#paint0_linear_932_7824)"/><path d="M282.272 20.689a1.499 1.499 0 101.456 2.622l-1.456-2.622zm69.196 2.736a1.5 1.5 0 00.957-1.893l-4.21-12.826a1.5 1.5 0 10-2.85.935l3.742 11.402-11.402 3.742a1.5 1.5 0 00.936 2.85l12.827-4.21zm-67.74-.114c15.802-8.776 32.419-8.799 45.169-6.583a90.937 90.937 0 0115.52 4.15 73.866 73.866 0 014.385 1.756 44.752 44.752 0 011.503.696l.016.007.002.002h.001L351 22c.677-1.338.676-1.339.676-1.34h-.003l-.007-.004-.023-.012-.086-.042a48.611 48.611 0 00-1.544-.713 76.855 76.855 0 00-4.565-1.829 93.934 93.934 0 00-16.038-4.288c-13.148-2.284-30.53-2.307-47.138 6.917l1.456 2.622z" fill="#fff"/><path d="M282.272 20.689a1.499 1.499 0 101.456 2.622l-1.456-2.622zm69.196 2.736a1.5 1.5 0 00.957-1.893l-4.21-12.826a1.5 1.5 0 10-2.85.935l3.742 11.402-11.402 3.742a1.5 1.5 0 00.936 2.85l12.827-4.21zm-67.74-.114c15.802-8.776 32.419-8.799 45.169-6.583a90.937 90.937 0 0115.52 4.15 73.866 73.866 0 014.385 1.756 44.752 44.752 0 011.503.696l.016.007.002.002h.001L351 22c.677-1.338.676-1.339.676-1.34h-.003l-.007-.004-.023-.012-.086-.042a48.611 48.611 0 00-1.544-.713 76.855 76.855 0 00-4.565-1.829 93.934 93.934 0 00-16.038-4.288c-13.148-2.284-30.53-2.307-47.138 6.917l1.456 2.622z" fill="url(#paint1_linear_932_7824)"/><path d="M442.272 35.311a1.499 1.499 0 111.456-2.622l-1.456 2.622zm69.196-2.736a1.5 1.5 0 01.957 1.893l-4.21 12.826a1.5 1.5 0 11-2.85-.935l3.742-11.402-11.402-3.742a1.5 1.5 0 01.936-2.85l12.827 4.21zm-67.74.114c15.802 8.776 32.419 8.798 45.169 6.583a90.937 90.937 0 0015.52-4.15 73.866 73.866 0 004.385-1.756 44.752 44.752 0 001.503-.696l.016-.007.002-.002h.001L511 34c.677 1.339.676 1.339.676 1.34h-.003l-.007.004-.023.012-.086.042-.322.155c-.28.133-.691.323-1.222.558a76.855 76.855 0 01-4.565 1.829 93.934 93.934 0 01-16.038 4.288c-13.148 2.285-30.53 2.307-47.138-6.917l1.456-2.622z" fill="#fff"/><path d="M442.272 35.311a1.499 1.499 0 111.456-2.622l-1.456 2.622zm69.196-2.736a1.5 1.5 0 01.957 1.893l-4.21 12.826a1.5 1.5 0 11-2.85-.935l3.742-11.402-11.402-3.742a1.5 1.5 0 01.936-2.85l12.827 4.21zm-67.74.114c15.802 8.776 32.419 8.798 45.169 6.583a90.937 90.937 0 0015.52-4.15 73.866 73.866 0 004.385-1.756 44.752 44.752 0 001.503-.696l.016-.007.002-.002h.001L511 34c.677 1.339.676 1.339.676 1.34h-.003l-.007.004-.023.012-.086.042-.322.155c-.28.133-.691.323-1.222.558a76.855 76.855 0 01-4.565 1.829 93.934 93.934 0 01-16.038 4.288c-13.148 2.285-30.53 2.307-47.138-6.917l1.456-2.622z" fill="url(#paint2_linear_932_7824)"/><path d="M602.272 20.689a1.499 1.499 0 101.456 2.622l-1.456-2.622zm69.196 2.736a1.5 1.5 0 00.957-1.893l-4.21-12.826a1.5 1.5 0 10-2.85.935l3.742 11.402-11.402 3.742a1.5 1.5 0 00.936 2.85l12.827-4.21zm-67.74-.114c15.802-8.776 32.419-8.799 45.169-6.583a90.937 90.937 0 0115.52 4.15 73.866 73.866 0 014.385 1.756 44.752 44.752 0 011.503.696l.016.007.002.002h.001L671 22c.677-1.338.676-1.339.676-1.34h-.003l-.007-.004-.023-.012-.086-.042a48.611 48.611 0 00-1.544-.713 76.855 76.855 0 00-4.565-1.829 93.934 93.934 0 00-16.038-4.288c-13.148-2.284-30.53-2.307-47.138 6.917l1.456 2.622z" fill="#fff"/><path d="M602.272 20.689a1.499 1.499 0 101.456 2.622l-1.456-2.622zm69.196 2.736a1.5 1.5 0 00.957-1.893l-4.21-12.826a1.5 1.5 0 10-2.85.935l3.742 11.402-11.402 3.742a1.5 1.5 0 00.936 2.85l12.827-4.21zm-67.74-.114c15.802-8.776 32.419-8.799 45.169-6.583a90.937 90.937 0 0115.52 4.15 73.866 73.866 0 014.385 1.756 44.752 44.752 0 011.503.696l.016.007.002.002h.001L671 22c.677-1.338.676-1.339.676-1.34h-.003l-.007-.004-.023-.012-.086-.042a48.611 48.611 0 00-1.544-.713 76.855 76.855 0 00-4.565-1.829 93.934 93.934 0 00-16.038-4.288c-13.148-2.284-30.53-2.307-47.138 6.917l1.456 2.622z" fill="url(#paint3_linear_932_7824)"/><path d="M762.272 28.311a1.499 1.499 0 111.456-2.622l-1.456 2.622zm69.196-2.736a1.5 1.5 0 01.957 1.893l-4.21 12.826a1.5 1.5 0 11-2.85-.935l3.742-11.402-11.402-3.742a1.5 1.5 0 01.936-2.85l12.827 4.21zm-67.74.114c15.802 8.776 32.419 8.798 45.169 6.583a90.937 90.937 0 0015.52-4.15 73.866 73.866 0 004.385-1.756 44.752 44.752 0 001.503-.696l.016-.007.002-.002h.001L831 27c.677 1.338.676 1.339.676 1.34h-.003l-.007.004-.023.012-.086.042-.322.155c-.28.133-.691.323-1.222.558a76.855 76.855 0 01-4.565 1.829 93.934 93.934 0 01-16.038 4.288c-13.148 2.285-30.53 2.307-47.138-6.917l1.456-2.622z" fill="#fff"/><path d="M762.272 28.311a1.499 1.499 0 111.456-2.622l-1.456 2.622zm69.196-2.736a1.5 1.5 0 01.957 1.893l-4.21 12.826a1.5 1.5 0 11-2.85-.935l3.742-11.402-11.402-3.742a1.5 1.5 0 01.936-2.85l12.827 4.21zm-67.74.114c15.802 8.776 32.419 8.798 45.169 6.583a90.937 90.937 0 0015.52-4.15 73.866 73.866 0 004.385-1.756 44.752 44.752 0 001.503-.696l.016-.007.002-.002h.001L831 27c.677 1.338.676 1.339.676 1.34h-.003l-.007.004-.023.012-.086.042-.322.155c-.28.133-.691.323-1.222.558a76.855 76.855 0 01-4.565 1.829 93.934 93.934 0 01-16.038 4.288c-13.148 2.285-30.53 2.307-47.138-6.917l1.456-2.622z" fill="url(#paint4_linear_932_7824)"/><path d="M922.272 20.689a1.499 1.499 0 101.456 2.622l-1.456-2.622zm69.196 2.736a1.5 1.5 0 00.957-1.893l-4.21-12.826a1.5 1.5 0 10-2.85.935l3.742 11.402-11.402 3.742a1.5 1.5 0 00.936 2.85l12.827-4.21zm-67.74-.114c15.802-8.776 32.419-8.799 45.169-6.583a90.937 90.937 0 0115.52 4.15 73.866 73.866 0 014.385 1.756 44.752 44.752 0 011.503.696l.016.007.002.002h.001L991 22c.677-1.338.676-1.339.676-1.34h-.003l-.007-.004-.023-.012-.086-.042a48.611 48.611 0 00-1.544-.713 76.855 76.855 0 00-4.565-1.829 93.934 93.934 0 00-16.038-4.288c-13.148-2.284-30.53-2.307-47.138 6.917l1.456 2.622z" fill="#fff"/><path d="M922.272 20.689a1.499 1.499 0 101.456 2.622l-1.456-2.622zm69.196 2.736a1.5 1.5 0 00.957-1.893l-4.21-12.826a1.5 1.5 0 10-2.85.935l3.742 11.402-11.402 3.742a1.5 1.5 0 00.936 2.85l12.827-4.21zm-67.74-.114c15.802-8.776 32.419-8.799 45.169-6.583a90.937 90.937 0 0115.52 4.15 73.866 73.866 0 014.385 1.756 44.752 44.752 0 011.503.696l.016.007.002.002h.001L991 22c.677-1.338.676-1.339.676-1.34h-.003l-.007-.004-.023-.012-.086-.042a48.611 48.611 0 00-1.544-.713 76.855 76.855 0 00-4.565-1.829 93.934 93.934 0 00-16.038-4.288c-13.148-2.284-30.53-2.307-47.138 6.917l1.456 2.622z" fill="url(#paint5_linear_932_7824)"/><path d="M1082.27 35.311a1.505 1.505 0 01-.58-2.04c.4-.724 1.31-.985 2.04-.582l-1.46 2.622zm69.2-2.736c.78.258 1.21 1.106.96 1.893l-4.21 12.826a1.507 1.507 0 01-1.9.958 1.506 1.506 0 01-.96-1.893l3.75-11.402-11.4-3.742a1.498 1.498 0 01-.96-1.893 1.496 1.496 0 011.89-.957l12.83 4.21zm-67.74.114c15.8 8.776 32.42 8.798 45.17 6.583a91.197 91.197 0 0015.52-4.15 71.99 71.99 0 004.38-1.756c.51-.223.89-.402 1.15-.523.13-.061.22-.108.29-.139.03-.015.05-.026.07-.034 0-.003.01-.006.01-.007v-.002L1151 34l.68 1.34h-.01v.004a.169.169 0 00-.03.012c-.02.01-.05.024-.08.042-.08.036-.18.088-.32.155-.29.133-.7.323-1.23.558a77.01 77.01 0 01-4.56 1.829 94.067 94.067 0 01-16.04 4.288c-13.15 2.285-30.53 2.307-47.14-6.917l1.46-2.622z" fill="#fff"/><path d="M1082.27 35.311a1.505 1.505 0 01-.58-2.04c.4-.724 1.31-.985 2.04-.582l-1.46 2.622zm69.2-2.736c.78.258 1.21 1.106.96 1.893l-4.21 12.826a1.507 1.507 0 01-1.9.958 1.506 1.506 0 01-.96-1.893l3.75-11.402-11.4-3.742a1.498 1.498 0 01-.96-1.893 1.496 1.496 0 011.89-.957l12.83 4.21zm-67.74.114c15.8 8.776 32.42 8.798 45.17 6.583a91.197 91.197 0 0015.52-4.15 71.99 71.99 0 004.38-1.756c.51-.223.89-.402 1.15-.523.13-.061.22-.108.29-.139.03-.015.05-.026.07-.034 0-.003.01-.006.01-.007v-.002L1151 34l.68 1.34h-.01v.004a.169.169 0 00-.03.012c-.02.01-.05.024-.08.042-.08.036-.18.088-.32.155-.29.133-.7.323-1.23.558a77.01 77.01 0 01-4.56 1.829 94.067 94.067 0 01-16.04 4.288c-13.15 2.285-30.53 2.307-47.14-6.917l1.46-2.622z" fill="url(#paint6_linear_932_7824)"/><defs><linearGradient id="paint0_linear_932_7824" x1="123" y1="42" x2="130.967" y2="16.478" gradientUnits="userSpaceOnUse"><stop offset=".323" stop-color="#DED2FF"/><stop offset="1" stop-color="#FDD0DD"/></linearGradient><linearGradient id="paint1_linear_932_7824" x1="283" y1="14" x2="290.967" y2="39.522" gradientUnits="userSpaceOnUse"><stop offset=".323" stop-color="#DED2FF"/><stop offset="1" stop-color="#FDD0DD"/></linearGradient><linearGradient id="paint2_linear_932_7824" x1="443" y1="42" x2="450.967" y2="16.478" gradientUnits="userSpaceOnUse"><stop offset=".323" stop-color="#DED2FF"/><stop offset="1" stop-color="#FDD0DD"/></linearGradient><linearGradient id="paint3_linear_932_7824" x1="603" y1="14" x2="610.967" y2="39.522" gradientUnits="userSpaceOnUse"><stop offset=".323" stop-color="#DED2FF"/><stop offset="1" stop-color="#FDD0DD"/></linearGradient><linearGradient id="paint4_linear_932_7824" x1="763" y1="35" x2="770.967" y2="9.478" gradientUnits="userSpaceOnUse"><stop offset=".323" stop-color="#DED2FF"/><stop offset="1" stop-color="#FDD0DD"/></linearGradient><linearGradient id="paint5_linear_932_7824" x1="923" y1="14" x2="930.967" y2="39.522" gradientUnits="userSpaceOnUse"><stop offset=".323" stop-color="#DED2FF"/><stop offset="1" stop-color="#FDD0DD"/></linearGradient><linearGradient id="paint6_linear_932_7824" x1="1083" y1="42" x2="1090.97" y2="16.478" gradientUnits="userSpaceOnUse"><stop offset=".323" stop-color="#DED2FF"/><stop offset="1" stop-color="#FDD0DD"/></linearGradient></defs></svg>