<svg width="668" height="480" fill="none" xmlns="http://www.w3.org/2000/svg"><g filter="url(#filter0_d_991_13171)"><rect x="16" y="8" width="314" height="192" rx="8" fill="#fff"/><circle cx="175" cy="86" r="23" fill="#FFD0D9"/><circle cx="173" cy="84" r="22.5" stroke="#211541"/><path d="M163 70.25A16.922 16.922 0 01173 67c9.389 0 17 7.611 17 17s-7.611 17-17 17-17-7.611-17-17c0-3.407 1.002-6.58 2.728-9.24" stroke="#211541"/><path d="M167.5 75.647A9.954 9.954 0 01173 74c5.523 0 10 4.477 10 10s-4.477 10-10 10-10-4.477-10-10a9.95 9.95 0 011.5-5.27" stroke="#211541"/><path d="M163.5 84h2.5m14 0h2.5m-9.5-9.5V77m0 14v2.5m-.264-9.197l-3.611-3.61m0 0c-.171-1.547-1.237-5.364-4.125-8.252m4.125 8.252c-1.547-.172-5.363-1.238-8.251-4.126M165 72.44c-1.596-1.596-3.685-2.845-5.553-3.73M165 72.44l-6.189-8.252.636 4.522m1.427 7.856l-8.252-6.19 4.521.637m3.731 5.553c-1.596-1.596-2.845-3.684-3.731-5.553m2.304-2.303c-1.515-.718-2.884-1.197-3.731-1.427.231.846.71 2.216 1.427 3.73" stroke="#211541" stroke-linecap="round" stroke-linejoin="round"/><path d="M98.716 149v-12.6h2.484V149h-2.484zm11.279-7.938V136.4h2.322V149h-2.322v-1.062c-.684.876-1.656 1.314-2.916 1.314-1.212 0-2.25-.456-3.114-1.368-.852-.924-1.278-2.052-1.278-3.384 0-1.32.426-2.442 1.278-3.366.864-.924 1.902-1.386 3.114-1.386 1.26 0 2.232.438 2.916 1.314zm-4.284 5.274c.492.468 1.092.702 1.8.702.72 0 1.314-.234 1.782-.702.468-.48.702-1.092.702-1.836s-.234-1.35-.702-1.818c-.468-.48-1.062-.72-1.782-.72s-1.32.24-1.8.72c-.468.468-.702 1.074-.702 1.818s.234 1.356.702 1.836zm17.225-.882h-6.786c.3 1.128 1.146 1.692 2.538 1.692.888 0 1.56-.3 2.016-.9l1.872 1.08c-.888 1.284-2.196 1.926-3.924 1.926-1.488 0-2.682-.45-3.582-1.35-.9-.9-1.35-2.034-1.35-3.402 0-1.344.444-2.472 1.332-3.384.876-.912 2.016-1.368 3.42-1.368 1.332 0 2.418.456 3.258 1.368.864.912 1.296 2.04 1.296 3.384 0 .252-.03.57-.09.954zm-6.822-1.8h4.59c-.132-.588-.402-1.038-.81-1.35-.396-.312-.87-.468-1.422-.468-.624 0-1.14.162-1.548.486-.408.312-.678.756-.81 1.332zm13.285-3.906c.996 0 1.806.33 2.43.99.648.672.972 1.584.972 2.736V149h-2.322v-5.238c0-.588-.162-1.044-.486-1.368-.312-.324-.744-.486-1.296-.486-.612 0-1.098.192-1.458.576-.348.372-.522.924-.522 1.656V149h-2.322v-9h2.322v1.008c.552-.84 1.446-1.26 2.682-1.26zm10.281.252v2.232h-2.034v3.744c0 .312.078.54.234.684.156.144.384.228.684.252.3.012.672.006 1.116-.018V149c-1.572.18-2.694.036-3.366-.432-.66-.48-.99-1.344-.99-2.592v-3.744h-1.566V140h1.566v-1.818l2.322-.702V140h2.034zm2.537-1.08a1.411 1.411 0 01-1.422-1.422c0-.384.138-.72.414-1.008a1.382 1.382 0 011.008-.432c.396 0 .732.144 1.008.432.288.288.432.624.432 1.008s-.144.72-.432 1.008a1.372 1.372 0 01-1.008.414zm1.17 10.08h-2.322v-9h2.322v9zm6.715-12.852v2.232c-1.272-.084-1.908.426-1.908 1.53v.09h1.908v2.232h-1.908V149h-2.322v-6.768h-1.296V140h1.296v-.09c0-1.284.354-2.25 1.062-2.898.72-.66 1.776-.948 3.168-.864zm5.034 9.9l1.998-6.048h2.484l-3.276 9c-.468 1.296-1.092 2.232-1.872 2.808-.768.588-1.728.852-2.88.792v-2.16c.612.012 1.104-.12 1.476-.396.372-.276.666-.72.882-1.332l-3.69-8.712h2.538l2.34 6.048zm13.453 0l1.998-6.048h2.484l-3.276 9c-.468 1.296-1.092 2.232-1.872 2.808-.768.588-1.728.852-2.88.792v-2.16c.612.012 1.104-.12 1.476-.396.372-.276.666-.72.882-1.332l-3.69-8.712h2.538l2.34 6.048zm12.652 1.836c-.912.912-2.04 1.368-3.384 1.368-1.344 0-2.472-.456-3.384-1.368-.912-.912-1.368-2.04-1.368-3.384 0-1.332.456-2.454 1.368-3.366.924-.924 2.052-1.386 3.384-1.386 1.332 0 2.46.462 3.384 1.386.924.924 1.386 2.046 1.386 3.366 0 1.332-.462 2.46-1.386 3.384zm-5.13-1.602c.468.468 1.05.702 1.746.702s1.278-.234 1.746-.702c.468-.468.702-1.062.702-1.782s-.234-1.314-.702-1.782c-.468-.468-1.05-.702-1.746-.702s-1.278.234-1.746.702c-.456.48-.684 1.074-.684 1.782s.228 1.302.684 1.782zm13.837-1.422V140h2.322v9h-2.322v-1.008c-.552.84-1.446 1.26-2.682 1.26-.984 0-1.8-.33-2.448-.99-.636-.672-.954-1.584-.954-2.736V140h2.322v5.238c0 .588.156 1.044.468 1.368.324.324.762.486 1.314.486.612 0 1.092-.186 1.44-.558.36-.384.54-.942.54-1.674zm6.519-4.86v1.548c.204-.564.552-.99 1.044-1.278.492-.3 1.056-.45 1.692-.45v2.592c-.708-.096-1.344.048-1.908.432-.552.372-.828.99-.828 1.854V149h-2.322v-9h2.322zm14.984 1.116V140h2.268v8.568c0 1.38-.462 2.442-1.386 3.186-.912.732-2.016 1.098-3.312 1.098-2.04 0-3.462-.732-4.266-2.196l1.98-1.134c.444.84 1.23 1.26 2.358 1.26.732 0 1.308-.192 1.728-.576.42-.384.63-.93.63-1.638v-.972c-.684.912-1.644 1.368-2.88 1.368-1.272 0-2.34-.444-3.204-1.332-.852-.912-1.278-2.004-1.278-3.276 0-1.272.432-2.358 1.296-3.258.864-.9 1.926-1.35 3.186-1.35 1.236 0 2.196.456 2.88 1.368zm-.72 5.022c.48-.468.72-1.062.72-1.782s-.24-1.302-.72-1.746c-.468-.468-1.068-.702-1.8-.702-.72 0-1.326.234-1.818.702-.468.444-.702 1.026-.702 1.746s.234 1.314.702 1.782c.48.456 1.086.684 1.818.684s1.332-.228 1.8-.684zm12.509 1.746c-.912.912-2.04 1.368-3.384 1.368-1.344 0-2.472-.456-3.384-1.368-.912-.912-1.368-2.04-1.368-3.384 0-1.332.456-2.454 1.368-3.366.924-.924 2.052-1.386 3.384-1.386 1.332 0 2.46.462 3.384 1.386.924.924 1.386 2.046 1.386 3.366 0 1.332-.462 2.46-1.386 3.384zm-5.13-1.602c.468.468 1.05.702 1.746.702s1.278-.234 1.746-.702c.468-.468.702-1.062.702-1.782s-.234-1.314-.702-1.782c-.468-.468-1.05-.702-1.746-.702s-1.278.234-1.746.702c-.456.48-.684 1.074-.684 1.782s.228 1.302.684 1.782zm14.738-5.22V140h2.322v9h-2.322v-1.062c-.696.876-1.674 1.314-2.934 1.314-1.2 0-2.232-.456-3.096-1.368-.852-.924-1.278-2.052-1.278-3.384 0-1.32.426-2.442 1.278-3.366.864-.924 1.896-1.386 3.096-1.386 1.26 0 2.238.438 2.934 1.314zm-4.284 5.274c.468.468 1.062.702 1.782.702s1.314-.234 1.782-.702c.48-.48.72-1.092.72-1.836s-.24-1.35-.72-1.818c-.468-.48-1.062-.72-1.782-.72s-1.314.24-1.782.72c-.468.468-.702 1.074-.702 1.818s.234 1.356.702 1.836zM239.346 149h-2.322v-13.14h2.322V149zm3.944-6.444c0 .384.546.714 1.638.99.384.084.732.186 1.044.306.312.108.624.27.936.486.324.204.576.48.756.828.18.348.27.75.27 1.206 0 .924-.348 1.638-1.044 2.142-.696.492-1.554.738-2.574.738-1.848 0-3.108-.714-3.78-2.142l2.016-1.134c.276.78.864 1.17 1.764 1.17.828 0 1.242-.258 1.242-.774 0-.384-.546-.714-1.638-.99a11.136 11.136 0 01-1.044-.324 5.66 5.66 0 01-.936-.468 2.267 2.267 0 01-.774-.81 2.584 2.584 0 01-.252-1.17c0-.888.324-1.584.972-2.088.66-.516 1.476-.774 2.448-.774.732 0 1.398.168 1.998.504.6.324 1.074.792 1.422 1.404l-1.98 1.08c-.288-.612-.768-.918-1.44-.918-.3 0-.552.072-.756.216a.607.607 0 00-.288.522z" fill="#342559"/><rect x="16.5" y="8.5" width="313" height="191" rx="7.5" stroke="url(#paint0_linear_991_13171)"/></g><g filter="url(#filter1_d_991_13171)"><rect x="338" y="8" width="314" height="192" rx="8" fill="#fff"/><path fill-rule="evenodd" clip-rule="evenodd" d="M478.787 73.077c-.832-.34-.827-1.52.007-1.854l19.187-7.675a1 1 0 01.742 0l19.115 7.624c.839.335.839 1.522 0 1.857l-4.691 1.877a1 1 0 01-.742 0l-13.687-5.457a1 1 0 00-.742 0l-13.806 5.526a1 1 0 01-.75-.003l-4.633-1.895zm22.415 36.782a1 1 0 01-1.372-.928v-4.219c0-.409.248-.776.627-.928l4.31-1.731 1.096-.44a1 1 0 011.373.928v4.22a1 1 0 01-.628.928l-1.841.739-3.565 1.431zm-.747-16.384a1 1 0 00-.625.928v4.217a1 1 0 001.374.928l10.344-4.179a1 1 0 00.625-.927v-4.218a1 1 0 00-1.374-.927l-10.344 4.178zM521 75.63a1 1 0 00-1.373-.928l-19.17 7.704a1 1 0 00-.627.928v4.584a1 1 0 001.373.928l19.17-7.704a1 1 0 00.627-.928V75.63zm-24.061 7.672a1 1 0 00-.626-.927l-19.131-7.698a1 1 0 00-1.374.927v14.764a1 1 0 00.627.928l14.444 5.812a1 1 0 01.627.927v3.033a1 1 0 01-1.374.927l-8.263-3.325a1 1 0 01-.627-.927v-.736a1 1 0 00-1-1h-3.434a1 1 0 00-1 1v4.415c0 .408.248.775.627.927l19.131 7.699a1 1 0 001.373-.928V94.356a1 1 0 00-.626-.927l-14.444-5.813a1 1 0 01-.627-.927v-3.032a1 1 0 011.373-.928l8.264 3.325a1 1 0 01.627.928v1.415a1 1 0 001 1h3.433a1 1 0 001-1v-5.095z" fill="#FFD0D9"/><path d="M501.767 99.053l.186.464-.186-.464zm0 6.375l.186.464-.186-.464zm-22.152-25.7l-.186.465.186-.464zm-.746 4.889l-.187.463.187-.463zm14.444 5.812l.186-.464-.186.464zm-.747 16.619l.187-.464-.187.464zm-19.131-7.699l-.187.464.187-.464zm5.434-3.679l.186-.464-.186.464zm-5.434-7.374l-.187.463.187-.463zm43.938-10.154l-.186-.464.186.464zm-19.17 7.704l.186.464-.186-.464zm18.424-14.144l-.186-.464.186.464zm-19.17 7.704l-.186-.464.186.464zm10.342 6.89l.187.464-.187-.463zm.749 6.073l-.188-.464.188.464zm-11.093-1.894l-.187-.463.187.463zm6.153 14.214l.187.464-.187-.464zm-.745-6.076l.186.464-.186-.464zm-4.661 8.246l-.186-.464.186.464zm-.745-6.075l.186.464-.186-.464zM481.17 71.975l-.186-.464.186.464zm-.75-.003l.189-.462-.189.462zm29.727-.066l.185.464-.185-.464zm-.742 0l-.185.465.185-.465zm5.433-3.734l-.186.464.186-.464zm0 1.857l-.185-.464.185.464zm-16.634 26.519l.188.463-.188-.463zm-11.072 2.448l.187-.464-.187.464zm-11.338-30.773l-.186-.464.186.464zm-.007 1.854l-.189.463.189-.463zm19.194-9.529l-.186-.464.186.464zm.742 0l.185-.465-.185.465zm-.928-.464l-19.187 7.675.372.928 19.187-7.675-.372-.928zm20.228 7.623l-19.115-7.624-.37.93 19.114 7.623.371-.928zm-4.691 4.663l4.692-1.877-.371-.928-4.692 1.877.371.928zm-14.8-5.456l13.688 5.457.37-.93-13.687-5.456-.371.929zm-14.176 5.525l13.806-5.525-.372-.928-13.806 5.525.372.928zm-5.758-1.899l4.632 1.895.379-.925-4.633-1.896-.378.926zm20.732 31.172v4.219h1v-4.219h-1zm5.251-3.123l-4.31 1.731.372.928 4.31-1.73-.372-.929zm1.096-.44l-1.096.44.372.928 1.096-.44-.372-.928zm2.059 5.612v-4.22h-1v4.22h1zm-2.783 2.131l1.842-.739-.373-.928-1.841.739.372.928zm-3.564 1.431l3.564-1.431-.372-.928-3.565 1.431.373.928zM497.33 95.62v-4.218h-1v4.218h1zm11.03-3.715l-10.343 4.179.375.927 10.343-4.178-.375-.928zm.313-4.681v4.218h1v-4.218h-1zm-11.03 3.715l10.343-4.179-.375-.927-10.343 4.179.375.927zm.001-11.07l19.17-7.703-.373-.928-19.17 7.704.373.928zm-.314 5.049v-4.584h-1v4.584h1zm19.857-7.24l-19.171 7.704.373.928 19.171-7.704-.373-.928zm.313-5.048v4.584h1V72.63h-1zm-43.505-.49l19.131 7.699.373-.928-19.131-7.698-.373.928zm-.687 15.228V72.604h-1v14.764h1zm14.758 6.276l-14.444-5.812-.374.928 14.444 5.812.374-.928zm.94 4.424v-3.032h-1v3.032h1zm-10.324-1.934l8.264 3.325.373-.927-8.264-3.326-.373.928zm-.94-2.127v.736h1v-.736h-1zm-3.934-.5h3.434v-1h-3.434v1zm-.5 4.915v-4.415h-1v4.415h1zm19.445 8.162l-19.131-7.698-.374.927 19.131 7.698.374-.927zm.686-15.228v14.764h1V91.356h-1zm-14.757-6.276l14.444 5.812.373-.927-14.444-5.812-.373.927zm-.94-4.424v3.033h1v-3.032h-1zm10.324 1.934l-8.264-3.325-.373.928 8.263 3.325.374-.928zm.94 2.807v-1.415h-1v1.415h1zm3.933.5h-3.433v1h3.433v-1zm.5-5.595v5.095h1v-5.095h-1zm-.5 6.595a1.5 1.5 0 001.5-1.5h-1a.5.5 0 01-.5.5v1zm-4.933-1.5a1.5 1.5 0 001.5 1.5v-1a.5.5 0 01-.5-.5h-1zm-.314-1.88a.5.5 0 01.314.465h1a1.5 1.5 0 00-.94-1.392l-.374.928zm-8.95-2.86a.5.5 0 01.687-.464l.373-.928a1.5 1.5 0 00-2.06 1.391h1zm.313 3.496a.5.5 0 01-.313-.464h-1a1.5 1.5 0 00.94 1.391l.373-.927zm15.384 7.203a1.5 1.5 0 00-.94-1.391l-.373.927a.5.5 0 01.313.464h1zm-2.06 16.155a1.5 1.5 0 002.06-1.391h-1a.5.5 0 01-.686.464l-.374.927zm-20.071-9.09a1.5 1.5 0 00.94 1.392l.374-.927a.5.5 0 01-.314-.464h-1zm1.5-5.914a1.5 1.5 0 00-1.5 1.5h1a.5.5 0 01.5-.5v-1zm4.934 1.5a1.5 1.5 0 00-1.5-1.5v1a.5.5 0 01.5.5h1zm.313 1.2a.5.5 0 01-.313-.464h-1a1.5 1.5 0 00.94 1.391l.373-.928zm-6.747-7.839a1.5 1.5 0 00.94 1.392l.374-.928a.5.5 0 01-.314-.464h-1zm20.818-7.53a.5.5 0 01.313.465h1a1.5 1.5 0 00-.94-1.392l-.373.928zm-18.758-8.625a1.5 1.5 0 00-2.06 1.391h1a.5.5 0 01.687-.463l.373-.928zm43.192 7.393a1.5 1.5 0 00.94-1.392h-1a.5.5 0 01-.313.464l.373.928zm-21.23 6.312a1.5 1.5 0 002.059 1.392l-.373-.928a.5.5 0 01-.686-.464h-1zm20.484-12.752a.5.5 0 01.686.464h1a1.5 1.5 0 00-2.059-1.392l.373.928zm-19.543 6.776a1.5 1.5 0 00-.941 1.392h1a.5.5 0 01.314-.464l-.373-.928zm12.402 8.282a1.5 1.5 0 00-2.062-1.391l.375.927a.5.5 0 01.687.464h1zm-.938 5.609a1.5 1.5 0 00.938-1.391h-1a.5.5 0 01-.313.463l.375.928zm-11.405-1.43a.5.5 0 01.313-.464l-.375-.927a1.5 1.5 0 00-.938 1.39h1zm6.406 12.358a.5.5 0 01-.314.464l.373.928a1.5 1.5 0 00.941-1.392h-1zm-.687-4.684a.5.5 0 01.687.464h1a1.5 1.5 0 00-2.059-1.392l.372.928zm-6.719 6.854a1.5 1.5 0 002.059 1.392l-.373-.928a.5.5 0 01-.686-.464h-1zm1-4.219a.5.5 0 01.313-.464l-.372-.928a1.499 1.499 0 00-.941 1.392h1zm-16.346-30.201a.5.5 0 01-.375-.001l-.379.925c.361.147.764.149 1.126.004l-.372-.928zm14.919-5.526a1.5 1.5 0 00-1.113 0l.372.93a.498.498 0 01.37-.001l.371-.929zm14.058 5.457a.5.5 0 01-.371 0l-.37.929c.357.142.755.142 1.112 0l-.371-.93zm4.691-2.806a.5.5 0 01.001.929l.371.928c1.258-.503 1.257-2.283-.001-2.785l-.371.928zM496.33 95.62a1.5 1.5 0 002.062 1.391l-.375-.927a.5.5 0 01-.687-.464h-1zm-8.324 2.448a.5.5 0 01-.687.464l-.373.927a1.5 1.5 0 002.06-1.391h-1zm-12.398-30.31c-1.251.502-1.258 2.272-.01 2.782l.378-.926a.5.5 0 01.004-.927l-.372-.928zm12.084 26.814a.5.5 0 01.314.463h1a1.5 1.5 0 00-.94-1.391l-.374.928zm7.475-33.56a.5.5 0 01.371 0l.37-.929a1.5 1.5 0 00-1.113 0l.372.93z" fill="#211541"/><path d="M404.977 149h-2.682l-2.538-4.374h-1.89V149h-2.484v-12.6h5.04c1.164 0 2.154.408 2.97 1.224.816.816 1.224 1.8 1.224 2.952 0 .78-.222 1.506-.666 2.178a4.191 4.191 0 01-1.764 1.494l2.79 4.752zm-4.554-10.278h-2.556v3.726h2.556c.468 0 .87-.18 1.206-.54a1.92 1.92 0 00.504-1.332c0-.516-.168-.954-.504-1.314-.336-.36-.738-.54-1.206-.54zm13.948 6.732h-6.786c.3 1.128 1.146 1.692 2.538 1.692.888 0 1.56-.3 2.016-.9l1.872 1.08c-.888 1.284-2.196 1.926-3.924 1.926-1.488 0-2.682-.45-3.582-1.35-.9-.9-1.35-2.034-1.35-3.402 0-1.344.444-2.472 1.332-3.384.876-.912 2.016-1.368 3.42-1.368 1.332 0 2.418.456 3.258 1.368.864.912 1.296 2.04 1.296 3.384 0 .252-.03.57-.09.954zm-6.822-1.8h4.59c-.132-.588-.402-1.038-.81-1.35-.396-.312-.87-.468-1.422-.468-.624 0-1.14.162-1.548.486-.408.312-.678.756-.81 1.332zm15.051-2.592V140h2.322v9H422.6v-1.062c-.696.876-1.674 1.314-2.934 1.314-1.2 0-2.232-.456-3.096-1.368-.852-.924-1.278-2.052-1.278-3.384 0-1.32.426-2.442 1.278-3.366.864-.924 1.896-1.386 3.096-1.386 1.26 0 2.238.438 2.934 1.314zm-4.284 5.274c.468.468 1.062.702 1.782.702s1.314-.234 1.782-.702c.48-.48.72-1.092.72-1.836s-.24-1.35-.72-1.818c-.468-.48-1.062-.72-1.782-.72s-1.314.24-1.782.72c-.468.468-.702 1.074-.702 1.818s.234 1.356.702 1.836zm12.743 2.916c-1.356 0-2.49-.456-3.402-1.368-.9-.912-1.35-2.04-1.35-3.384 0-1.344.45-2.472 1.35-3.384.912-.912 2.046-1.368 3.402-1.368.876 0 1.674.21 2.394.63.72.42 1.266.984 1.638 1.692l-1.998 1.17a2.023 2.023 0 00-.828-.882 2.332 2.332 0 00-1.224-.324c-.696 0-1.272.234-1.728.702-.456.456-.684 1.044-.684 1.764 0 .696.228 1.284.684 1.764.456.456 1.032.684 1.728.684.468 0 .882-.102 1.242-.306.372-.216.648-.51.828-.882l2.016 1.152c-.396.72-.96 1.29-1.692 1.71a4.63 4.63 0 01-2.376.63zm10.048-9.504c.996 0 1.806.33 2.43.99.648.672.972 1.584.972 2.736V149h-2.322v-5.238c0-.588-.162-1.044-.486-1.368-.312-.324-.744-.486-1.296-.486-.612 0-1.098.192-1.458.576-.348.372-.522.924-.522 1.656V149h-2.322v-12.6h2.322v4.608c.552-.84 1.446-1.26 2.682-1.26zm17.049 8.136c-.912.912-2.04 1.368-3.384 1.368-1.344 0-2.472-.456-3.384-1.368-.912-.912-1.368-2.04-1.368-3.384 0-1.332.456-2.454 1.368-3.366.924-.924 2.052-1.386 3.384-1.386 1.332 0 2.46.462 3.384 1.386.924.924 1.386 2.046 1.386 3.366 0 1.332-.462 2.46-1.386 3.384zm-5.13-1.602c.468.468 1.05.702 1.746.702s1.278-.234 1.746-.702c.468-.468.702-1.062.702-1.782s-.234-1.314-.702-1.782c-.468-.468-1.05-.702-1.746-.702s-1.278.234-1.746.702c-.456.48-.684 1.074-.684 1.782s.228 1.302.684 1.782zm13.838-1.422V140h2.322v9h-2.322v-1.008c-.552.84-1.446 1.26-2.682 1.26-.984 0-1.8-.33-2.448-.99-.636-.672-.954-1.584-.954-2.736V140h2.322v5.238c0 .588.156 1.044.468 1.368.324.324.762.486 1.314.486.612 0 1.092-.186 1.44-.558.36-.384.54-.942.54-1.674zm9.344-4.86v2.232h-2.034v3.744c0 .312.078.54.234.684.156.144.384.228.684.252.3.012.672.006 1.116-.018V149c-1.572.18-2.694.036-3.366-.432-.66-.48-.99-1.344-.99-2.592v-3.744h-1.566V140h1.566v-1.818l2.322-.702V140h2.034zm10.922 0v2.232h-2.034v3.744c0 .312.078.54.234.684.156.144.384.228.684.252.3.012.672.006 1.116-.018V149c-1.572.18-2.694.036-3.366-.432-.66-.48-.99-1.344-.99-2.592v-3.744h-1.566V140h1.566v-1.818l2.322-.702V140h2.034zm8.772 7.884c-.912.912-2.04 1.368-3.384 1.368-1.344 0-2.472-.456-3.384-1.368-.912-.912-1.368-2.04-1.368-3.384 0-1.332.456-2.454 1.368-3.366.924-.924 2.052-1.386 3.384-1.386 1.332 0 2.46.462 3.384 1.386.924.924 1.386 2.046 1.386 3.366 0 1.332-.462 2.46-1.386 3.384zm-5.13-1.602c.468.468 1.05.702 1.746.702s1.278-.234 1.746-.702c.468-.468.702-1.062.702-1.782s-.234-1.314-.702-1.782c-.468-.468-1.05-.702-1.746-.702s-1.278.234-1.746.702c-.456.48-.684 1.074-.684 1.782s.228 1.302.684 1.782zm16.555 2.97c-1.236 0-2.28-.276-3.132-.828a4.52 4.52 0 01-1.818-2.286l2.124-1.242c.492 1.284 1.458 1.926 2.898 1.926.672 0 1.176-.12 1.512-.36.336-.24.504-.564.504-.972 0-.444-.198-.786-.594-1.026-.396-.252-1.104-.522-2.124-.81-1.104-.336-1.974-.726-2.61-1.17-.792-.588-1.188-1.452-1.188-2.592 0-1.152.402-2.058 1.206-2.718.804-.684 1.782-1.026 2.934-1.026 1.008 0 1.902.246 2.682.738s1.386 1.188 1.818 2.088l-2.088 1.206c-.504-1.08-1.308-1.62-2.412-1.62-.504 0-.906.12-1.206.36-.3.228-.45.528-.45.9 0 .396.162.72.486.972.36.252.996.516 1.908.792l.864.288c.156.048.426.15.81.306.36.132.624.258.792.378.588.36.984.732 1.188 1.116.312.504.468 1.098.468 1.782 0 1.164-.426 2.088-1.278 2.772-.852.684-1.95 1.026-3.294 1.026zm10.837-9.504c.996 0 1.806.33 2.43.99.648.672.972 1.584.972 2.736V149h-2.322v-5.238c0-.588-.162-1.044-.486-1.368-.312-.324-.744-.486-1.296-.486-.612 0-1.098.192-1.458.576-.348.372-.522.924-.522 1.656V149h-2.322v-12.6h2.322v4.608c.552-.84 1.446-1.26 2.682-1.26zm11.972 1.314V140h2.322v9h-2.322v-1.062c-.696.876-1.674 1.314-2.934 1.314-1.2 0-2.232-.456-3.096-1.368-.852-.924-1.278-2.052-1.278-3.384 0-1.32.426-2.442 1.278-3.366.864-.924 1.896-1.386 3.096-1.386 1.26 0 2.238.438 2.934 1.314zm-4.284 5.274c.468.468 1.062.702 1.782.702s1.314-.234 1.782-.702c.48-.48.72-1.092.72-1.836s-.24-1.35-.72-1.818c-.468-.48-1.062-.72-1.782-.72s-1.314.24-1.782.72c-.468.468-.702 1.074-.702 1.818s.234 1.356.702 1.836zM536.634 140v1.548c.204-.564.552-.99 1.044-1.278.492-.3 1.056-.45 1.692-.45v2.592c-.708-.096-1.344.048-1.908.432-.552.372-.828.99-.828 1.854V149h-2.322v-9h2.322zm12.256 5.454h-6.786c.3 1.128 1.146 1.692 2.538 1.692.888 0 1.56-.3 2.016-.9l1.872 1.08c-.888 1.284-2.196 1.926-3.924 1.926-1.488 0-2.682-.45-3.582-1.35-.9-.9-1.35-2.034-1.35-3.402 0-1.344.444-2.472 1.332-3.384.876-.912 2.016-1.368 3.42-1.368 1.332 0 2.418.456 3.258 1.368.864.912 1.296 2.04 1.296 3.384 0 .252-.03.57-.09.954zm-6.822-1.8h4.59c-.132-.588-.402-1.038-.81-1.35-.396-.312-.87-.468-1.422-.468-.624 0-1.14.162-1.548.486-.408.312-.678.756-.81 1.332zm12.859-7.506v2.232c-1.272-.084-1.908.426-1.908 1.53v.09h1.908v2.232h-1.908V149h-2.322v-6.768h-1.296V140h1.296v-.09c0-1.284.354-2.25 1.062-2.898.72-.66 1.776-.948 3.168-.864zm3.134 3.852v1.548c.204-.564.552-.99 1.044-1.278.492-.3 1.056-.45 1.692-.45v2.592c-.708-.096-1.344.048-1.908.432-.552.372-.828.99-.828 1.854V149h-2.322v-9h2.322zm11.176 7.884c-.912.912-2.04 1.368-3.384 1.368-1.344 0-2.472-.456-3.384-1.368-.912-.912-1.368-2.04-1.368-3.384 0-1.332.456-2.454 1.368-3.366.924-.924 2.052-1.386 3.384-1.386 1.332 0 2.46.462 3.384 1.386.924.924 1.386 2.046 1.386 3.366 0 1.332-.462 2.46-1.386 3.384zm-5.13-1.602c.468.468 1.05.702 1.746.702s1.278-.234 1.746-.702c.468-.468.702-1.062.702-1.782s-.234-1.314-.702-1.782c-.468-.468-1.05-.702-1.746-.702s-1.278.234-1.746.702c-.456.48-.684 1.074-.684 1.782s.228 1.302.684 1.782zm12.902-6.534c.996 0 1.806.33 2.43.99.648.672.972 1.584.972 2.736V149h-2.322v-5.238c0-.588-.162-1.044-.486-1.368-.312-.324-.744-.486-1.296-.486-.612 0-1.098.192-1.458.576-.348.372-.522.924-.522 1.656V149h-2.322v-9h2.322v1.008c.552-.84 1.446-1.26 2.682-1.26zm10.281.252v2.232h-2.034v3.744c0 .312.078.54.234.684.156.144.384.228.684.252.3.012.672.006 1.116-.018V149c-1.572.18-2.694.036-3.366-.432-.66-.48-.99-1.344-.99-2.592v-3.744h-1.566V140h1.566v-1.818l2.322-.702V140h2.034zm3.333 2.556c0 .384.546.714 1.638.99.384.084.732.186 1.044.306.312.108.624.27.936.486.324.204.576.48.756.828.18.348.27.75.27 1.206 0 .924-.348 1.638-1.044 2.142-.696.492-1.554.738-2.574.738-1.848 0-3.108-.714-3.78-2.142l2.016-1.134c.276.78.864 1.17 1.764 1.17.828 0 1.242-.258 1.242-.774 0-.384-.546-.714-1.638-.99a11.136 11.136 0 01-1.044-.324 5.66 5.66 0 01-.936-.468 2.267 2.267 0 01-.774-.81 2.584 2.584 0 01-.252-1.17c0-.888.324-1.584.972-2.088.66-.516 1.476-.774 2.448-.774.732 0 1.398.168 1.998.504.6.324 1.074.792 1.422 1.404l-1.98 1.08c-.288-.612-.768-.918-1.44-.918-.3 0-.552.072-.756.216a.607.607 0 00-.288.522z" fill="#342559"/><rect x="338.5" y="8.5" width="313" height="191" rx="7.5" stroke="url(#paint1_linear_991_13171)"/></g><g filter="url(#filter2_d_991_13171)"><rect x="16" y="264" width="314" height="192" rx="8" fill="#fff"/><path fill-rule="evenodd" clip-rule="evenodd" d="M164.197 318.269a4.883 4.883 0 11-9.766 0 4.883 4.883 0 019.766 0zm5.005 10.62l3.418 14.526c0 .051.021.122.045.206.035.118.077.261.077.404a2.45 2.45 0 01-2.442 2.442c-1.098 0-2.075-.855-2.319-1.831l-2.563-10.62v31.859a2.442 2.442 0 11-4.883 0v-19.53h-2.441v19.53a2.442 2.442 0 11-4.883 0v-31.737l-2.563 10.62c-.244.976-1.221 1.831-2.32 1.831a2.449 2.449 0 01-2.441-2.441c0-.143.042-.286.077-.405.024-.084.045-.155.045-.206l3.418-14.526c.122-.488.366-.976.732-1.342 1.465-1.221 3.174-2.198 5.127-2.686 1.343-.366 2.686-.61 4.028-.61 1.343 0 2.686.244 4.029.488 1.953.61 3.662 1.465 5.126 2.685.367.367.611.855.733 1.343z" fill="#FFD0D9"/><path d="M170.233 342.028h.5v-.058l-.014-.056-.486.114zm-3.418-14.526l.487-.114-.002-.007-.485.121zm3.463 14.732l.48-.14-.48.14zm-4.684 1.015l-.486.117.001.004.485-.121zm-2.563-10.62l.486-.117-.986.117h.5zm-4.883 12.329h.5v-.5h-.5v.5zm-2.441 0v-.5h-.5v.5h.5zm-4.883-12.207h.5l-.986-.117.486.117zm-2.563 10.62l.485.121.001-.004-.486-.117zm-4.684-1.015l.479.141-.479-.141zm.045-.206l-.487-.114-.013.056v.058h.5zm3.418-14.525l-.485-.122-.002.007.487.115zm.732-1.343l-.32-.384-.017.014-.016.016.353.354zm5.127-2.686l.121.485.011-.002-.132-.483zm8.057-.122l.149-.477-.03-.009-.03-.006-.089.492zm5.126 2.686l.354-.354-.016-.016-.018-.014-.32.384zm-9.155-4.895a5.383 5.383 0 005.383-5.382h-1a4.382 4.382 0 01-4.383 4.382v1zm-5.382-5.382a5.383 5.383 0 005.382 5.382v-1a4.382 4.382 0 01-4.382-4.382h-1zm5.382-5.383a5.383 5.383 0 00-5.382 5.383h1a4.382 4.382 0 014.382-4.383v-1zm5.383 5.383a5.383 5.383 0 00-5.383-5.383v1a4.383 4.383 0 014.383 4.383h1zm8.409 26.031l-3.417-14.526-.974.229 3.418 14.526.973-.229zm.039.18a1.519 1.519 0 00-.016-.055l-.01-.037-.002-.009a.14.14 0 01.003.035h-1c0 .086.016.162.027.207.012.05.027.101.038.14l.96-.281zm.097.545c0-.227-.066-.438-.097-.545l-.96.281c.018.061.032.11.043.158.01.047.014.081.014.106h1zm-2.942 2.941a2.949 2.949 0 002.942-2.941h-1a1.949 1.949 0 01-1.942 1.941v1zm-2.804-2.21c.296 1.182 1.459 2.21 2.804 2.21v-1c-.851 0-1.641-.681-1.834-1.452l-.97.242zm-2.564-10.623l2.563 10.619.972-.234-2.563-10.62-.972.235zm.986 31.742v-31.86h-1v31.86h1zm-2.942 2.941a2.942 2.942 0 002.942-2.941h-1a1.941 1.941 0 01-1.942 1.941v1zm-2.941-2.941a2.941 2.941 0 002.941 2.941v-1a1.941 1.941 0 01-1.941-1.941h-1zm0-19.531v19.531h1v-19.531h-1zm-1.941.5h2.441v-1h-2.441v1zm.5 19.031v-19.531h-1v19.531h1zm-2.942 2.941a2.942 2.942 0 002.942-2.941h-1a1.941 1.941 0 01-1.942 1.941v1zm-2.941-2.941a2.941 2.941 0 002.941 2.941v-1a1.941 1.941 0 01-1.941-1.941h-1zm0-31.738v31.738h1v-31.738h-1zm-1.577 10.737l2.563-10.619-.972-.235-2.563 10.62.972.234zm-2.806 2.214c1.346 0 2.509-1.028 2.805-2.21l-.97-.242c-.193.771-.983 1.452-1.835 1.452v1zM143 342.761a2.948 2.948 0 002.941 2.941v-1a1.949 1.949 0 01-1.941-1.941h-1zm.097-.545c-.032.107-.097.318-.097.545h1c0-.024.004-.059.014-.106a2.02 2.02 0 01.042-.158l-.959-.281zm.025-.066c0-.02.002-.033.002-.034l-.002.009a14565952133.806 14565952133.806 0 00-.025.091l.959.281c.012-.039.027-.09.039-.14a.881.881 0 00.027-.207h-1zm3.431-14.64l-3.418 14.526.974.229 3.418-14.526-.974-.229zm.866-1.582c-.442.442-.725 1.017-.864 1.575l.97.243c.105-.418.311-.82.601-1.111l-.707-.707zm5.359-2.817c-2.04.51-3.815 1.528-5.326 2.787l.64.768c1.419-1.183 3.062-2.118 4.928-2.585l-.242-.97zm4.149-.625c-1.402 0-2.791.255-4.159.628l.263.965c1.317-.36 2.613-.593 3.896-.593v-1zm4.118.496c-1.335-.242-2.722-.496-4.118-.496v1c1.29 0 2.588.235 3.939.48l.179-.984zm5.357 2.794c-1.525-1.272-3.296-2.154-5.297-2.779l-.299.954c1.905.596 3.552 1.423 4.956 2.593l.64-.768zm.898 1.605c-.14-.558-.422-1.133-.864-1.575l-.707.707c.29.291.496.693.601 1.111l.97-.243z" fill="#211541"/><path fill-rule="evenodd" clip-rule="evenodd" d="M193.197 318.269a4.883 4.883 0 11-9.766 0 4.883 4.883 0 019.766 0zm5.005 10.62l3.418 14.526c0 .051.021.122.045.206.035.118.077.261.077.404a2.45 2.45 0 01-2.442 2.442c-1.098 0-2.075-.855-2.319-1.831l-2.563-10.62v31.859a2.442 2.442 0 11-4.883 0v-19.53h-2.441v19.53a2.442 2.442 0 11-4.883 0v-31.737l-2.563 10.62c-.244.976-1.221 1.831-2.32 1.831a2.449 2.449 0 01-2.441-2.441c0-.143.042-.286.077-.405.024-.084.045-.155.045-.206l3.418-14.526c.122-.488.366-.976.732-1.342 1.465-1.221 3.174-2.198 5.127-2.686 1.343-.366 2.686-.61 4.028-.61 1.343 0 2.686.244 4.029.488 1.953.61 3.662 1.465 5.126 2.685.367.367.611.855.733 1.343z" fill="#FFD0D9"/><path d="M199.233 342.028h.5v-.058l-.014-.056-.486.114zm-3.418-14.526l.487-.114-.002-.007-.485.121zm3.463 14.732l.48-.14-.48.14zm-4.684 1.015l-.486.117.001.004.485-.121zm-2.563-10.62l.486-.117-.986.117h.5zm-4.883 12.329h.5v-.5h-.5v.5zm-2.441 0v-.5h-.5v.5h.5zm-4.883-12.207h.5l-.986-.117.486.117zm-2.563 10.62l.485.121.001-.004-.486-.117zm-4.684-1.015l.479.141-.479-.141zm.045-.206l-.487-.114-.013.056v.058h.5zm3.418-14.525l-.485-.122-.002.007.487.115zm.732-1.343l-.32-.384-.017.014-.016.016.353.354zm5.127-2.686l.121.485.011-.002-.132-.483zm8.057-.122l.149-.477-.03-.009-.03-.006-.089.492zm5.126 2.686l.354-.354-.016-.016-.018-.014-.32.384zm-9.155-4.895a5.383 5.383 0 005.383-5.382h-1a4.382 4.382 0 01-4.383 4.382v1zm-5.382-5.382a5.383 5.383 0 005.382 5.382v-1a4.382 4.382 0 01-4.382-4.382h-1zm5.382-5.383a5.383 5.383 0 00-5.382 5.383h1a4.382 4.382 0 014.382-4.383v-1zm5.383 5.383a5.383 5.383 0 00-5.383-5.383v1a4.383 4.383 0 014.383 4.383h1zm8.409 26.031l-3.417-14.526-.974.229 3.418 14.526.973-.229zm.039.18a1.519 1.519 0 00-.016-.055l-.01-.037-.002-.009a.14.14 0 01.003.035h-1c0 .086.016.162.027.207.012.05.027.101.038.14l.96-.281zm.097.545c0-.227-.066-.438-.097-.545l-.96.281c.018.061.032.11.043.158.01.047.014.081.014.106h1zm-2.942 2.941a2.949 2.949 0 002.942-2.941h-1a1.949 1.949 0 01-1.942 1.941v1zm-2.804-2.21c.296 1.182 1.459 2.21 2.804 2.21v-1c-.851 0-1.641-.681-1.834-1.452l-.97.242zm-2.564-10.623l2.563 10.619.972-.234-2.563-10.62-.972.235zm.986 31.742v-31.86h-1v31.86h1zm-2.942 2.941a2.942 2.942 0 002.942-2.941h-1a1.941 1.941 0 01-1.942 1.941v1zm-2.941-2.941a2.941 2.941 0 002.941 2.941v-1a1.941 1.941 0 01-1.941-1.941h-1zm0-19.531v19.531h1v-19.531h-1zm-1.941.5h2.441v-1h-2.441v1zm.5 19.031v-19.531h-1v19.531h1zm-2.942 2.941a2.942 2.942 0 002.942-2.941h-1a1.941 1.941 0 01-1.942 1.941v1zm-2.941-2.941a2.941 2.941 0 002.941 2.941v-1a1.941 1.941 0 01-1.941-1.941h-1zm0-31.738v31.738h1v-31.738h-1zm-1.577 10.737l2.563-10.619-.972-.235-2.563 10.62.972.234zm-2.806 2.214c1.346 0 2.509-1.028 2.805-2.21l-.97-.242c-.193.771-.983 1.452-1.835 1.452v1zM172 342.761a2.948 2.948 0 002.941 2.941v-1a1.949 1.949 0 01-1.941-1.941h-1zm.097-.545c-.032.107-.097.318-.097.545h1c0-.024.004-.059.014-.106a2.02 2.02 0 01.042-.158l-.959-.281zm.025-.066c0-.02.002-.033.002-.034l-.002.009a14565952133.806 14565952133.806 0 00-.025.091l.959.281c.012-.039.027-.09.039-.14a.881.881 0 00.027-.207h-1zm3.431-14.64l-3.418 14.526.974.229 3.418-14.526-.974-.229zm.866-1.582c-.442.442-.725 1.017-.864 1.575l.97.243c.105-.418.311-.82.601-1.111l-.707-.707zm5.359-2.817c-2.04.51-3.815 1.528-5.326 2.787l.64.768c1.419-1.183 3.062-2.118 4.928-2.585l-.242-.97zm4.149-.625c-1.402 0-2.791.255-4.159.628l.263.965c1.317-.36 2.613-.593 3.896-.593v-1zm4.118.496c-1.335-.242-2.722-.496-4.118-.496v1c1.29 0 2.588.235 3.939.48l.179-.984zm5.357 2.794c-1.525-1.272-3.296-2.154-5.297-2.779l-.299.954c1.905.596 3.552 1.423 4.956 2.593l.64-.768zm.898 1.605c-.14-.558-.422-1.133-.864-1.575l-.707.707c.29.291.496.693.601 1.111l.97-.243z" fill="#211541"/><path d="M144.162 397.404V392.4h2.466V405h-2.466v-5.22h-4.68V405h-2.484v-12.6h2.484v5.004h4.68zm5.599-2.484a1.411 1.411 0 01-1.422-1.422c0-.384.138-.72.414-1.008a1.382 1.382 0 011.008-.432c.396 0 .732.144 1.008.432.288.288.432.624.432 1.008s-.144.72-.432 1.008a1.372 1.372 0 01-1.008.414zm1.17 10.08h-2.322v-9h2.322v9zm4.195-9v1.548c.204-.564.552-.99 1.044-1.278.492-.3 1.056-.45 1.692-.45v2.592c-.708-.096-1.344.048-1.908.432-.552.372-.828.99-.828 1.854V405h-2.322v-9h2.322zm12.256 5.454h-6.786c.3 1.128 1.146 1.692 2.538 1.692.888 0 1.56-.3 2.016-.9l1.872 1.08c-.888 1.284-2.196 1.926-3.924 1.926-1.488 0-2.682-.45-3.582-1.35-.9-.9-1.35-2.034-1.35-3.402 0-1.344.444-2.472 1.332-3.384.876-.912 2.016-1.368 3.42-1.368 1.332 0 2.418.456 3.258 1.368.864.912 1.296 2.04 1.296 3.384 0 .252-.03.57-.09.954zm-6.822-1.8h4.59c-.132-.588-.402-1.038-.81-1.35-.396-.312-.87-.468-1.422-.468-.624 0-1.14.162-1.548.486-.408.312-.678.756-.81 1.332zm16.939 5.598c-1.236 0-2.28-.276-3.132-.828a4.52 4.52 0 01-1.818-2.286l2.124-1.242c.492 1.284 1.458 1.926 2.898 1.926.672 0 1.176-.12 1.512-.36.336-.24.504-.564.504-.972 0-.444-.198-.786-.594-1.026-.396-.252-1.104-.522-2.124-.81-1.104-.336-1.974-.726-2.61-1.17-.792-.588-1.188-1.452-1.188-2.592 0-1.152.402-2.058 1.206-2.718.804-.684 1.782-1.026 2.934-1.026 1.008 0 1.902.246 2.682.738s1.386 1.188 1.818 2.088l-2.088 1.206c-.504-1.08-1.308-1.62-2.412-1.62-.504 0-.906.12-1.206.36-.3.228-.45.528-.45.9 0 .396.162.72.486.972.36.252.996.516 1.908.792l.864.288c.156.048.426.15.81.306.36.132.624.258.792.378.588.36.984.732 1.188 1.116.312.504.468 1.098.468 1.782 0 1.164-.426 2.088-1.278 2.772-.852.684-1.95 1.026-3.294 1.026zM188.216 396v2.232h-2.034v3.744c0 .312.078.54.234.684.156.144.384.228.684.252.3.012.672.006 1.116-.018V405c-1.572.18-2.694.036-3.366-.432-.66-.48-.99-1.344-.99-2.592v-3.744h-1.566V396h1.566v-1.818l2.322-.702V396h2.034zm7.944 1.062V396h2.322v9h-2.322v-1.062c-.696.876-1.674 1.314-2.934 1.314-1.2 0-2.232-.456-3.096-1.368-.852-.924-1.278-2.052-1.278-3.384 0-1.32.426-2.442 1.278-3.366.864-.924 1.896-1.386 3.096-1.386 1.26 0 2.238.438 2.934 1.314zm-4.284 5.274c.468.468 1.062.702 1.782.702s1.314-.234 1.782-.702c.48-.48.72-1.092.72-1.836s-.24-1.35-.72-1.818c-.468-.48-1.062-.72-1.782-.72s-1.314.24-1.782.72c-.468.468-.702 1.074-.702 1.818s.234 1.356.702 1.836zm18.287-10.368v2.232c-1.272-.084-1.908.426-1.908 1.53v.27h1.908v2.232h-1.908V405h-2.322v-6.768h-2.664V405h-2.322v-6.768h-1.296V396h1.296v-.09c0-1.284.354-2.25 1.062-2.898.72-.66 1.776-.948 3.168-.864v2.232c-1.272-.084-1.908.426-1.908 1.53v.09h2.664v-.27c0-1.284.36-2.25 1.08-2.898.72-.66 1.77-.948 3.15-.864z" fill="#342559"/><rect x="16.5" y="264.5" width="313" height="191" rx="7.5" stroke="url(#paint2_linear_991_13171)"/></g><g filter="url(#filter3_d_991_13171)"><rect x="338" y="264" width="314" height="192" rx="8" fill="#fff"/><path d="M514.221 342.948l-5.265 5.265 1.174 1.173 5.265-5.265-1.174-1.173zm-6.435 6.433l-1.173 1.174 1.173 1.173 1.173-1.173-1.173-1.174zm-11.183-35.264l-5.265 5.265 1.174 1.173 5.265-5.265-1.174-1.173zm-6.436 6.432l-1.173 1.174 1.173 1.173 1.174-1.173-1.174-1.174z" fill="#211541"/><path d="M523.805 316.768c-.177-.011-.365-.033-.564-.044-3.939-.321-12.126-1.007-19.096 5.974l-8.508 8.508-12.678 2.766-10.378 10.377 9.061 2.345 1.848 1.848-5.808 8.43 2.754 2.755-1.582 1.582 1.173 1.173 1.582-1.582 3.031 3.031 8.176-6.074 1.837 1.837 2.345 9.061 10.378-10.378 2.766-12.678 8.507-8.508c6.97-6.97 6.296-15.157 5.975-19.096-.011-.199-.034-.387-.045-.564l-.055-.708-.719-.055zm-38.999 44.973l-2.024-2.025 2.732-2.733-1.172-1.172-2.733 2.732-1.781-1.781 4.857-7.036 6.948 6.948-6.827 5.067zm-8.994-18.277l7.988-7.988 9.68-2.113-11.661 11.65-6.007-1.549zm21.518 12.679l-1.936 1.947-12.148-12.159 1.937-1.936 12.147 12.148zm8.53 1.405l-7.977 7.976-1.549-6.018 11.65-11.65-2.124 9.692zm-7.346-2.578l-12.159-12.148 18.377-18.376 5.487 5.487-3.994 3.994a5.29 5.29 0 00-6.848.542 5.3 5.3 0 00-.542 6.849l-3.463 3.462 1.173 1.173 3.463-3.463a5.3 5.3 0 006.848-.542 5.3 5.3 0 00.542-6.848l3.994-3.994 5.487 5.488-18.365 18.376zm7.169-19.317a3.633 3.633 0 010 5.134 3.632 3.632 0 01-5.133 0 3.633 3.633 0 010-5.134 3.632 3.632 0 015.133 0zm16.783-8.353c-.675 2.644-1.98 5.466-4.425 8.11l-12.126-12.126c2.645-2.434 5.466-3.75 8.11-4.425l8.441 8.441zm.399-1.947l-6.893-6.881c2.81-.432 5.299-.244 6.992-.1.144 1.693.332 4.182-.099 6.981z" fill="#FFD0D9"/><path d="M522.466 327.3c-.675 2.644-1.98 5.466-4.425 8.11l-12.126-12.126c2.645-2.434 5.466-3.75 8.11-4.425l8.441 8.441zm.399-1.947l-6.893-6.881c2.81-.432 5.299-.244 6.992-.1.144 1.693.332 4.182-.099 6.981zm-24.351 29.617l-12.159-12.148 18.377-18.376 5.487 5.487-3.994 3.994a5.29 5.29 0 00-6.848.542 5.3 5.3 0 00-.542 6.849l-3.463 3.462 1.173 1.173 3.463-3.463a5.3 5.3 0 006.848-.542 5.3 5.3 0 00.542-6.848l3.994-3.994 5.487 5.488-18.365 18.376z" fill="#FFD0D9"/><path d="M505.683 335.653a3.633 3.633 0 010 5.134 3.632 3.632 0 01-5.133 0 3.633 3.633 0 010-5.134 3.632 3.632 0 015.133 0zm.177 21.895l-7.977 7.976-1.549-6.018 11.65-11.65-2.124 9.692zm-8.53-1.405l-1.936 1.947-12.148-12.159 1.937-1.936 12.147 12.148zm-21.518-12.679l7.988-7.988 9.68-2.113-11.661 11.65-6.007-1.549zm8.994 18.277l-2.024-2.025 2.732-2.733-1.172-1.172-2.733 2.732-1.781-1.781 4.857-7.036 6.948 6.948-6.827 5.067z" fill="#FFD0D9"/><path d="M521.15 313.228c-.177-.011-.365-.033-.564-.044-3.939-.321-12.126-1.007-19.096 5.974l-8.508 8.508-12.678 2.765-10.378 10.378 9.061 2.345 1.848 1.848-5.809 8.43 2.755 2.755-1.582 1.582 1.173 1.173 1.582-1.582 3.031 3.031 8.176-6.074 1.837 1.837 2.345 9.061 10.378-10.378 2.765-12.678 8.508-8.508c6.97-6.97 6.295-15.157 5.974-19.096-.011-.199-.033-.387-.044-.564l-.055-.708-.719-.055zm-38.999 44.973l-2.024-2.025 2.732-2.733-1.172-1.172-2.733 2.732-1.781-1.781 4.856-7.036 6.948 6.948-6.826 5.067zm-8.994-18.277l7.987-7.988 9.681-2.113-11.661 11.65-6.007-1.549zm21.518 12.679l-1.936 1.947-12.148-12.159 1.936-1.936 12.148 12.148zm8.53 1.405l-7.977 7.976-1.549-6.018 11.65-11.65-2.124 9.692zm-7.346-2.578L483.7 339.282l18.376-18.376 5.488 5.487-3.994 3.994a5.29 5.29 0 00-6.848.542 5.3 5.3 0 00-.542 6.849l-3.463 3.462 1.172 1.173 3.463-3.463a5.302 5.302 0 006.849-.542 5.301 5.301 0 00.542-6.848l3.994-3.994 5.487 5.487-18.365 18.377zm7.169-19.317a3.633 3.633 0 010 5.134 3.633 3.633 0 01-5.134 0 3.633 3.633 0 010-5.134 3.633 3.633 0 015.134 0zm16.783-8.353c-.675 2.644-1.98 5.466-4.425 8.11l-12.126-12.126c2.644-2.434 5.466-3.75 8.11-4.425l8.441 8.441zm.398-1.947l-6.892-6.881c2.81-.432 5.299-.244 6.992-.1.144 1.693.332 4.182-.1 6.981zm-45.182 37.118l-1.173 1.173 1.173 1.174 1.173-1.174-1.173-1.173zm4.616 1.458l-3.302 3.301 1.174 1.174 3.301-3.301-1.173-1.174zm-4.471 4.471l-1.174 1.173 1.174 1.174 1.173-1.174-1.173-1.173zm-1.321-10.269l-3.302 3.302 1.174 1.173 3.301-3.301-1.173-1.174zm-4.476 4.487l-1.174 1.173 1.174 1.173 1.173-1.173-1.173-1.173z" fill="#211541"/><path d="M483.964 403.362c-1.272 1.26-2.82 1.89-4.644 1.89-1.824 0-3.372-.63-4.644-1.89-1.26-1.284-1.89-2.838-1.89-4.662 0-1.836.63-3.384 1.89-4.644 1.272-1.272 2.82-1.908 4.644-1.908 1.824 0 3.372.636 4.644 1.908 1.272 1.26 1.908 2.808 1.908 4.644 0 1.836-.636 3.39-1.908 4.662zm-7.542-1.692c.768.768 1.734 1.152 2.898 1.152 1.164 0 2.13-.384 2.898-1.152.78-.78 1.17-1.77 1.17-2.97 0-1.2-.39-2.19-1.17-2.97-.78-.78-1.746-1.17-2.898-1.17-1.152 0-2.118.39-2.898 1.17-.78.78-1.17 1.77-1.17 2.97 0 1.2.39 2.19 1.17 2.97zm16.074-5.922c1.212 0 2.244.462 3.096 1.386.864.924 1.296 2.046 1.296 3.366 0 1.344-.432 2.472-1.296 3.384-.84.912-1.872 1.368-3.096 1.368-1.26 0-2.232-.438-2.916-1.314v4.662h-2.322V396h2.322v1.062c.684-.876 1.656-1.314 2.916-1.314zm-2.214 6.588c.468.468 1.062.702 1.782.702s1.314-.234 1.782-.702c.48-.48.72-1.092.72-1.836s-.24-1.35-.72-1.818c-.468-.48-1.062-.72-1.782-.72s-1.314.24-1.782.72c-.468.468-.702 1.074-.702 1.818s.234 1.356.702 1.836zm16.74-.882h-6.786c.3 1.128 1.146 1.692 2.538 1.692.888 0 1.56-.3 2.016-.9l1.872 1.08c-.888 1.284-2.196 1.926-3.924 1.926-1.488 0-2.682-.45-3.582-1.35-.9-.9-1.35-2.034-1.35-3.402 0-1.344.444-2.472 1.332-3.384.876-.912 2.016-1.368 3.42-1.368 1.332 0 2.418.456 3.258 1.368.864.912 1.296 2.04 1.296 3.384 0 .252-.03.57-.09.954zm-6.822-1.8h4.59c-.132-.588-.402-1.038-.81-1.35-.396-.312-.87-.468-1.422-.468-.624 0-1.14.162-1.548.486-.408.312-.678.756-.81 1.332zm13.285-3.906c.996 0 1.806.33 2.43.99.648.672.972 1.584.972 2.736V405h-2.322v-5.238c0-.588-.162-1.044-.486-1.368-.312-.324-.744-.486-1.296-.486-.612 0-1.098.192-1.458.576-.348.372-.522.924-.522 1.656V405h-2.322v-9h2.322v1.008c.552-.84 1.446-1.26 2.682-1.26z" fill="#342559"/><rect x="338.5" y="264.5" width="313" height="191" rx="7.5" stroke="url(#paint3_linear_991_13171)"/></g><path d="M264.255 117.23c-4.546-2.621-6.106-8.43-3.485-12.975 2.621-4.546 8.43-6.106 12.975-3.485l-9.49 16.46zm9.49-16.46c28.614 16.498 58.857 16.643 82.482 12.381a163.418 163.418 0 0028.711-7.969 132.965 132.965 0 008.04-3.343 78.8 78.8 0 002.513-1.203l.095-.048.011-.006-.003.002-.005.002c-.002.001-.005.003 4.411 8.414 4.416 8.411 4.413 8.413 4.409 8.415a5264049333.997 5264049333.997 0 01-.031.016l-.064.033-.202.104c-.168.086-.402.203-.699.35-.594.292-1.443.7-2.527 1.196a150.658 150.658 0 01-9.201 3.829 182.478 182.478 0 01-32.085 8.906c-26.266 4.738-61.522 4.883-95.345-14.619l9.49-16.46z" fill="#fff"/><path d="M268.251 110.299a1.499 1.499 0 111.498-2.598l-1.498 2.598zm132.195-2.731a1.5 1.5 0 01.986 1.878l-4.014 12.889a1.5 1.5 0 11-2.864-.892l3.568-11.457-11.457-3.568a1.5 1.5 0 11.892-2.864l12.889 4.014zm-130.697.133c30.807 17.762 63.161 17.785 87.898 13.323a171.398 171.398 0 0030.132-8.364 141.225 141.225 0 008.529-3.547 89.065 89.065 0 002.244-1.063c.253-.125.443-.22.569-.285l.14-.071.033-.018.008-.003.001-.001L400 109c.697 1.328.697 1.328.695 1.329l-.003.002-.011.006-.042.021a47.376 47.376 0 01-.761.383c-.53.261-1.31.636-2.322 1.099a142.77 142.77 0 01-8.712 3.625 174.498 174.498 0 01-30.664 8.511c-25.154 4.538-58.3 4.561-89.929-13.677l1.498-2.598z" fill="#fff"/><path d="M268.251 110.299a1.499 1.499 0 111.498-2.598l-1.498 2.598zm132.195-2.731a1.5 1.5 0 01.986 1.878l-4.014 12.889a1.5 1.5 0 11-2.864-.892l3.568-11.457-11.457-3.568a1.5 1.5 0 11.892-2.864l12.889 4.014zm-130.697.133c30.807 17.762 63.161 17.785 87.898 13.323a171.398 171.398 0 0030.132-8.364 141.225 141.225 0 008.529-3.547 89.065 89.065 0 002.244-1.063c.253-.125.443-.22.569-.285l.14-.071.033-.018.008-.003.001-.001L400 109c.697 1.328.697 1.328.695 1.329l-.003.002-.011.006-.042.021a47.376 47.376 0 01-.761.383c-.53.261-1.31.636-2.322 1.099a142.77 142.77 0 01-8.712 3.625 174.498 174.498 0 01-30.664 8.511c-25.154 4.538-58.3 4.561-89.929-13.677l1.498-2.598z" fill="url(#paint4_linear_991_13171)"/><path d="M583.233 240.502l-.486-1.419.486 1.419zm-524.5-12.5l.75 1.299-.75-1.299zm-10.41 54.443a1.5 1.5 0 001.852-1.033l3.688-12.987a1.5 1.5 0 00-2.886-.819l-3.278 11.543-11.544-3.278a1.5 1.5 0 00-.82 2.886l12.987 3.688zm266.409-46.443l-.281 1.473.016.003.015.003.25-1.479zm295.878-45.008c3.687 4.164 5.564 8.569 5.932 12.963.369 4.4-.767 8.9-3.294 13.256-5.074 8.743-15.716 16.812-30.501 21.87l.971 2.838c15.216-5.205 26.573-13.636 32.125-23.203 2.784-4.798 4.117-9.906 3.689-15.012-.429-5.113-2.614-10.113-6.677-14.7l-2.245 1.988zM57.982 226.703c-12.156 7.023-18.785 14.084-20.197 23.031-1.39 8.816 2.385 18.995 9.637 31.999l2.62-1.462c-7.248-12.996-10.51-22.362-9.293-30.069 1.195-7.575 6.815-14.015 18.734-20.901l-1.501-2.598zm524.765 12.38c-3.734 1.277-13.444 3.151-28.26 4.855-14.764 1.698-34.481 3.216-58.151 3.819-47.34 1.204-110.462-1.252-181.354-13.234l-.5 2.958c71.109 12.018 134.426 14.484 181.931 13.275 23.752-.605 43.559-2.128 58.416-3.837 14.804-1.703 24.812-3.603 28.889-4.998l-.971-2.838zm-267.733-4.554c-61.507-11.751-114.342-20.268-157.451-22.587-43.058-2.316-76.684 1.532-99.581 14.761l1.5 2.598c22.103-12.771 54.977-16.673 97.92-14.363 42.891 2.307 95.555 10.789 157.049 22.537l.563-2.946z" fill="#fff"/><path d="M583.233 240.502l-.486-1.419.486 1.419zm-524.5-12.5l.75 1.299-.75-1.299zm-10.41 54.443a1.5 1.5 0 001.852-1.033l3.688-12.987a1.5 1.5 0 00-2.886-.819l-3.278 11.543-11.544-3.278a1.5 1.5 0 00-.82 2.886l12.987 3.688zm266.409-46.443l-.281 1.473.016.003.015.003.25-1.479zm295.878-45.008c3.687 4.164 5.564 8.569 5.932 12.963.369 4.4-.767 8.9-3.294 13.256-5.074 8.743-15.716 16.812-30.501 21.87l.971 2.838c15.216-5.205 26.573-13.636 32.125-23.203 2.784-4.798 4.117-9.906 3.689-15.012-.429-5.113-2.614-10.113-6.677-14.7l-2.245 1.988zM57.982 226.703c-12.156 7.023-18.785 14.084-20.197 23.031-1.39 8.816 2.385 18.995 9.637 31.999l2.62-1.462c-7.248-12.996-10.51-22.362-9.293-30.069 1.195-7.575 6.815-14.015 18.734-20.901l-1.501-2.598zm524.765 12.38c-3.734 1.277-13.444 3.151-28.26 4.855-14.764 1.698-34.481 3.216-58.151 3.819-47.34 1.204-110.462-1.252-181.354-13.234l-.5 2.958c71.109 12.018 134.426 14.484 181.931 13.275 23.752-.605 43.559-2.128 58.416-3.837 14.804-1.703 24.812-3.603 28.889-4.998l-.971-2.838zm-267.733-4.554c-61.507-11.751-114.342-20.268-157.451-22.587-43.058-2.316-76.684 1.532-99.581 14.761l1.5 2.598c22.103-12.771 54.977-16.673 97.92-14.363 42.891 2.307 95.555 10.789 157.049 22.537l.563-2.946z" fill="url(#paint5_linear_991_13171)"/><path d="M264.255 305.77c-4.546 2.621-6.106 8.43-3.485 12.975 2.621 4.546 8.43 6.106 12.975 3.485l-9.49-16.46zm9.49 16.46c28.614-16.498 58.857-16.643 82.482-12.381a163.418 163.418 0 0128.711 7.969 132.965 132.965 0 018.04 3.343 78.8 78.8 0 012.608 1.251l.011.006-.003-.002-.005-.002c-.002-.001-.005-.003 4.411-8.414 4.416-8.411 4.413-8.413 4.409-8.415a.09.09 0 01-.009-.005l-.022-.011-.064-.033-.202-.104a62.229 62.229 0 00-.699-.35c-.594-.292-1.443-.7-2.527-1.196a150.658 150.658 0 00-9.201-3.829 182.478 182.478 0 00-32.085-8.906c-26.266-4.738-61.522-4.883-95.345 14.619l9.49 16.46z" fill="#fff"/><path d="M268.251 312.701a1.499 1.499 0 101.498 2.598l-1.498-2.598zm132.195 2.731a1.5 1.5 0 00.986-1.878l-4.014-12.889a1.5 1.5 0 10-2.864.892l3.568 11.457-11.457 3.568a1.5 1.5 0 10.892 2.864l12.889-4.014zm-130.697-.133c30.807-17.762 63.161-17.785 87.898-13.323a171.398 171.398 0 0130.132 8.364 141.225 141.225 0 018.529 3.547c.984.451 1.739.814 2.244 1.063.253.125.443.22.569.285l.14.071.033.018.008.003.001.001L400 314c.697-1.328.697-1.328.695-1.329l-.003-.002-.011-.006a34985361996.83 34985361996.83 0 01-.199-.102c-.137-.07-.34-.172-.604-.302-.53-.261-1.31-.636-2.322-1.099a142.77 142.77 0 00-8.712-3.625 174.498 174.498 0 00-30.664-8.511c-25.154-4.538-58.3-4.561-89.929 13.677l1.498 2.598z" fill="#fff"/><path d="M268.251 312.701a1.499 1.499 0 101.498 2.598l-1.498-2.598zm132.195 2.731a1.5 1.5 0 00.986-1.878l-4.014-12.889a1.5 1.5 0 10-2.864.892l3.568 11.457-11.457 3.568a1.5 1.5 0 10.892 2.864l12.889-4.014zm-130.697-.133c30.807-17.762 63.161-17.785 87.898-13.323a171.398 171.398 0 0130.132 8.364 141.225 141.225 0 018.529 3.547c.984.451 1.739.814 2.244 1.063.253.125.443.22.569.285l.14.071.033.018.008.003.001.001L400 314c.697-1.328.697-1.328.695-1.329l-.003-.002-.011-.006a34985361996.83 34985361996.83 0 01-.199-.102c-.137-.07-.34-.172-.604-.302-.53-.261-1.31-.636-2.322-1.099a142.77 142.77 0 00-8.712-3.625 174.498 174.498 0 00-30.664-8.511c-25.154-4.538-58.3-4.561-89.929 13.677l1.498 2.598z" fill="url(#paint6_linear_991_13171)"/><defs><linearGradient id="paint0_linear_991_13171" x1="16" y1="8" x2="316.254" y2="193.063" gradientUnits="userSpaceOnUse"><stop offset=".083" stop-color="#CEBDFF"/><stop offset="1" stop-color="#FFE2E7"/></linearGradient><linearGradient id="paint1_linear_991_13171" x1="338" y1="8" x2="638.254" y2="193.063" gradientUnits="userSpaceOnUse"><stop offset=".083" stop-color="#CEBDFF"/><stop offset="1" stop-color="#FFE2E7"/></linearGradient><linearGradient id="paint2_linear_991_13171" x1="16" y1="264" x2="316.254" y2="449.063" gradientUnits="userSpaceOnUse"><stop offset=".083" stop-color="#CEBDFF"/><stop offset="1" stop-color="#FFE2E7"/></linearGradient><linearGradient id="paint3_linear_991_13171" x1="338" y1="264" x2="638.254" y2="449.063" gradientUnits="userSpaceOnUse"><stop offset=".083" stop-color="#CEBDFF"/><stop offset="1" stop-color="#FFE2E7"/></linearGradient><linearGradient id="paint4_linear_991_13171" x1="269" y1="125" x2="285.428" y2="74.307" gradientUnits="userSpaceOnUse"><stop offset=".323" stop-color="#DED2FF"/><stop offset="1" stop-color="#FDD0DD"/></linearGradient><linearGradient id="paint5_linear_991_13171" x1="599.732" y1="14.002" x2="607.699" y2="39.524" gradientUnits="userSpaceOnUse"><stop offset=".323" stop-color="#DED2FF"/><stop offset="1" stop-color="#FDD0DD"/></linearGradient><linearGradient id="paint6_linear_991_13171" x1="269" y1="298" x2="285.428" y2="348.693" gradientUnits="userSpaceOnUse"><stop offset=".323" stop-color="#DED2FF"/><stop offset="1" stop-color="#FDD0DD"/></linearGradient><filter id="filter0_d_991_13171" x="0" y="0" width="346" height="224" filterUnits="userSpaceOnUse" color-interpolation-filters="sRGB"><feFlood flood-opacity="0" result="BackgroundImageFix"/><feColorMatrix in="SourceAlpha" values="0 0 0 0 0 0 0 0 0 0 0 0 0 0 0 0 0 0 127 0" result="hardAlpha"/><feOffset dy="8"/><feGaussianBlur stdDeviation="8"/><feComposite in2="hardAlpha" operator="out"/><feColorMatrix values="0 0 0 0 0.504167 0 0 0 0 0.256285 0 0 0 0 0.303751 0 0 0 0.08 0"/><feBlend in2="BackgroundImageFix" result="effect1_dropShadow_991_13171"/><feBlend in="SourceGraphic" in2="effect1_dropShadow_991_13171" result="shape"/></filter><filter id="filter1_d_991_13171" x="322" y="0" width="346" height="224" filterUnits="userSpaceOnUse" color-interpolation-filters="sRGB"><feFlood flood-opacity="0" result="BackgroundImageFix"/><feColorMatrix in="SourceAlpha" values="0 0 0 0 0 0 0 0 0 0 0 0 0 0 0 0 0 0 127 0" result="hardAlpha"/><feOffset dy="8"/><feGaussianBlur stdDeviation="8"/><feComposite in2="hardAlpha" operator="out"/><feColorMatrix values="0 0 0 0 0.504167 0 0 0 0 0.256285 0 0 0 0 0.303751 0 0 0 0.08 0"/><feBlend in2="BackgroundImageFix" result="effect1_dropShadow_991_13171"/><feBlend in="SourceGraphic" in2="effect1_dropShadow_991_13171" result="shape"/></filter><filter id="filter2_d_991_13171" x="0" y="256" width="346" height="224" filterUnits="userSpaceOnUse" color-interpolation-filters="sRGB"><feFlood flood-opacity="0" result="BackgroundImageFix"/><feColorMatrix in="SourceAlpha" values="0 0 0 0 0 0 0 0 0 0 0 0 0 0 0 0 0 0 127 0" result="hardAlpha"/><feOffset dy="8"/><feGaussianBlur stdDeviation="8"/><feComposite in2="hardAlpha" operator="out"/><feColorMatrix values="0 0 0 0 0.504167 0 0 0 0 0.256285 0 0 0 0 0.303751 0 0 0 0.08 0"/><feBlend in2="BackgroundImageFix" result="effect1_dropShadow_991_13171"/><feBlend in="SourceGraphic" in2="effect1_dropShadow_991_13171" result="shape"/></filter><filter id="filter3_d_991_13171" x="322" y="256" width="346" height="224" filterUnits="userSpaceOnUse" color-interpolation-filters="sRGB"><feFlood flood-opacity="0" result="BackgroundImageFix"/><feColorMatrix in="SourceAlpha" values="0 0 0 0 0 0 0 0 0 0 0 0 0 0 0 0 0 0 127 0" result="hardAlpha"/><feOffset dy="8"/><feGaussianBlur stdDeviation="8"/><feComposite in2="hardAlpha" operator="out"/><feColorMatrix values="0 0 0 0 0.504167 0 0 0 0 0.256285 0 0 0 0 0.303751 0 0 0 0.08 0"/><feBlend in2="BackgroundImageFix" result="effect1_dropShadow_991_13171"/><feBlend in="SourceGraphic" in2="effect1_dropShadow_991_13171" result="shape"/></filter></defs></svg>