<svg width="636" height="465" fill="none" xmlns="http://www.w3.org/2000/svg"><rect x=".5" y=".5" width="152" height="195" rx="7.5" fill="#fff"/><path d="M104 44c0 10.667-10 18-10 18s-10-7-10-18c0-5.155 4.477-10 10-10s10 4.845 10 10z" fill="#EAE8FF"/><path d="M102.5 42c0 5.176-2.428 9.569-4.892 12.69a30.702 30.702 0 01-3.382 3.628 25.272 25.272 0 01-1.232 1.055 23.395 23.395 0 01-1.225-1.013 28.745 28.745 0 01-3.379-3.547C85.93 51.737 83.5 47.345 83.5 42c0-4.89 4.265-9.5 9.5-9.5s9.5 4.61 9.5 9.5z" stroke="#211541"/><circle cx="93" cy="42" r="4.5" stroke="#211541"/><path d="M67 57c0 10.667-10 18-10 18s-10-7-10-18c0-5.155 4.477-10 10-10s10 4.845 10 10z" fill="#FFD0D9"/><path d="M65.5 55c0 5.176-2.428 9.569-4.892 12.69a30.702 30.702 0 01-3.382 3.628 25.272 25.272 0 01-1.232 1.055 23.395 23.395 0 01-1.225-1.013 28.745 28.745 0 01-3.379-3.547C48.93 64.737 46.5 60.345 46.5 55c0-4.89 4.265-9.5 9.5-9.5s9.5 4.61 9.5 9.5z" fill="#EAE8FF" stroke="#211541"/><path d="M59 53l-6 6m0-6l6 6" stroke="#211541" stroke-linecap="round"/><path d="M74 62c0 10.667-10 18-10 18s-10-7-10-18c0-5.155 4.477-10 10-10s10 4.845 10 10z" fill="#EAE8FF"/><path d="M63.5 82c8.667 2.5 27 2.3 31-18.5" stroke="#211541" stroke-linecap="round" stroke-dasharray="3 3"/><path d="M72.5 61c0 5.176-2.428 9.569-4.892 12.69a30.702 30.702 0 01-3.382 3.628 25.272 25.272 0 01-1.232 1.055 23.395 23.395 0 01-1.225-1.013 28.745 28.745 0 01-3.379-3.547C55.93 70.737 53.5 66.345 53.5 61c0-4.89 4.265-9.5 9.5-9.5s9.5 4.61 9.5 9.5z" stroke="#211541"/><path d="M66 59l-6 6m0-6l6 6" stroke="#211541" stroke-linecap="round"/><path d="M67.98 104.4v2.376h-5.04v2.988h4.895v2.376H62.94V117h-2.484v-12.6h7.524zm2.601 2.52a1.411 1.411 0 01-1.422-1.422c0-.384.138-.72.414-1.008a1.382 1.382 0 011.008-.432c.396 0 .732.144 1.008.432.288.288.432.624.432 1.008s-.144.72-.432 1.008a1.372 1.372 0 01-1.008.414zm1.17 10.08H69.43v-9h2.322v9zm6.877-9.252c.996 0 1.806.33 2.43.99.648.672.972 1.584.972 2.736V117h-2.322v-5.238c0-.588-.162-1.044-.486-1.368-.311-.324-.743-.486-1.295-.486-.613 0-1.099.192-1.459.576-.347.372-.522.924-.522 1.656V117h-2.322v-9h2.323v1.008c.552-.84 1.445-1.26 2.681-1.26zm11.955 1.314V104.4h2.322V117h-2.322v-1.062c-.684.876-1.656 1.314-2.916 1.314-1.212 0-2.25-.456-3.114-1.368-.852-.924-1.278-2.052-1.278-3.384 0-1.32.426-2.442 1.278-3.366.864-.924 1.902-1.386 3.114-1.386 1.26 0 2.232.438 2.916 1.314zm-4.284 5.274c.492.468 1.092.702 1.8.702.72 0 1.314-.234 1.782-.702.468-.48.702-1.092.702-1.836s-.234-1.35-.702-1.818c-.468-.48-1.062-.72-1.782-.72s-1.32.24-1.8.72c-.468.468-.702 1.074-.702 1.818s.234 1.356.702 1.836zM42.106 141h-2.322v-13.14h2.322V141zm9.541-1.116c-.912.912-2.04 1.368-3.384 1.368-1.344 0-2.472-.456-3.384-1.368-.912-.912-1.368-2.04-1.368-3.384 0-1.332.456-2.454 1.368-3.366.924-.924 2.052-1.386 3.384-1.386 1.332 0 2.46.462 3.384 1.386.924.924 1.386 2.046 1.386 3.366 0 1.332-.462 2.46-1.386 3.384zm-5.13-1.602c.468.468 1.05.702 1.746.702s1.278-.234 1.746-.702c.468-.468.702-1.062.702-1.782s-.234-1.314-.702-1.782c-.468-.468-1.05-.702-1.746-.702s-1.278.234-1.746.702c-.456.48-.684 1.074-.684 1.782s.228 1.302.684 1.782zm12.182 2.97c-1.356 0-2.49-.456-3.402-1.368-.9-.912-1.35-2.04-1.35-3.384 0-1.344.45-2.472 1.35-3.384.912-.912 2.046-1.368 3.402-1.368.876 0 1.674.21 2.394.63.72.42 1.266.984 1.638 1.692l-1.998 1.17a2.023 2.023 0 00-.828-.882 2.332 2.332 0 00-1.224-.324c-.696 0-1.272.234-1.728.702-.456.456-.684 1.044-.684 1.764 0 .696.228 1.284.684 1.764.456.456 1.032.684 1.728.684.468 0 .882-.102 1.242-.306.372-.216.648-.51.828-.882l2.016 1.152c-.396.72-.96 1.29-1.692 1.71a4.63 4.63 0 01-2.376.63zm11.743-8.19V132h2.322v9h-2.322v-1.062c-.696.876-1.674 1.314-2.934 1.314-1.2 0-2.232-.456-3.096-1.368-.852-.924-1.278-2.052-1.278-3.384 0-1.32.426-2.442 1.278-3.366.864-.924 1.896-1.386 3.096-1.386 1.26 0 2.238.438 2.934 1.314zm-4.284 5.274c.468.468 1.062.702 1.782.702s1.314-.234 1.782-.702c.48-.48.72-1.092.72-1.836s-.24-1.35-.72-1.818c-.468-.48-1.062-.72-1.782-.72s-1.314.24-1.782.72c-.468.468-.702 1.074-.702 1.818s.234 1.356.702 1.836zM79.766 132v2.232h-2.034v3.744c0 .312.078.54.234.684.156.144.384.228.684.252.3.012.672.006 1.116-.018V141c-1.572.18-2.694.036-3.366-.432-.66-.48-.99-1.344-.99-2.592v-3.744h-1.566V132h1.566v-1.818l2.322-.702V132h2.034zm2.537-1.08a1.411 1.411 0 01-1.422-1.422c0-.384.138-.72.414-1.008a1.382 1.382 0 011.008-.432c.396 0 .732.144 1.008.432.288.288.432.624.432 1.008s-.144.72-.432 1.008a1.372 1.372 0 01-1.008.414zm1.17 10.08H81.15v-9h2.322v9zm9.541-1.116c-.912.912-2.04 1.368-3.384 1.368-1.344 0-2.472-.456-3.384-1.368-.912-.912-1.368-2.04-1.368-3.384 0-1.332.456-2.454 1.368-3.366.924-.924 2.052-1.386 3.384-1.386 1.332 0 2.46.462 3.384 1.386.924.924 1.386 2.046 1.386 3.366 0 1.332-.462 2.46-1.386 3.384zm-5.13-1.602c.468.468 1.05.702 1.746.702s1.278-.234 1.746-.702c.468-.468.702-1.062.702-1.782s-.234-1.314-.702-1.782c-.468-.468-1.05-.702-1.746-.702s-1.278.234-1.746.702c-.456.48-.684 1.074-.684 1.782s.228 1.302.684 1.782zm12.902-6.534c.996 0 1.806.33 2.43.99.648.672.972 1.584.972 2.736V141h-2.322v-5.238c0-.588-.162-1.044-.486-1.368-.312-.324-.744-.486-1.296-.486-.612 0-1.098.192-1.458.576-.348.372-.522.924-.522 1.656V141h-2.322v-9h2.322v1.008c.552-.84 1.446-1.26 2.682-1.26zm12.89-5.148l-7.2 16.2h-1.026l7.2-16.2h1.026zm-58.868 31.956c0 .384.546.714 1.638.99.384.084.732.186 1.044.306.312.108.624.27.936.486.324.204.576.48.756.828.18.348.27.75.27 1.206 0 .924-.348 1.638-1.044 2.142-.696.492-1.554.738-2.574.738-1.848 0-3.108-.714-3.78-2.142l2.016-1.134c.276.78.864 1.17 1.764 1.17.828 0 1.242-.258 1.242-.774 0-.384-.546-.714-1.638-.99a11.136 11.136 0 01-1.044-.324 5.66 5.66 0 01-.936-.468 2.267 2.267 0 01-.774-.81 2.584 2.584 0 01-.252-1.17c0-.888.324-1.584.972-2.088.66-.516 1.476-.774 2.448-.774.732 0 1.398.168 1.998.504.6.324 1.074.792 1.422 1.404l-1.98 1.08c-.288-.612-.768-.918-1.44-.918-.3 0-.552.072-.756.216a.607.607 0 00-.288.522zm11.21-2.808c1.213 0 2.245.462 3.097 1.386.864.924 1.296 2.046 1.296 3.366 0 1.344-.432 2.472-1.296 3.384-.84.912-1.872 1.368-3.096 1.368-1.26 0-2.232-.438-2.916-1.314v4.662H60.78V156h2.322v1.062c.684-.876 1.656-1.314 2.916-1.314zm-2.213 6.588c.468.468 1.062.702 1.782.702s1.314-.234 1.782-.702c.48-.48.72-1.092.72-1.836s-.24-1.35-.72-1.818c-.468-.48-1.062-.72-1.782-.72s-1.314.24-1.782.72c-.468.468-.702 1.074-.702 1.818s.234 1.356.702 1.836zm14.831-5.274V156h2.322v9h-2.322v-1.062c-.696.876-1.674 1.314-2.934 1.314-1.2 0-2.232-.456-3.096-1.368-.852-.924-1.278-2.052-1.278-3.384 0-1.32.426-2.442 1.278-3.366.864-.924 1.896-1.386 3.096-1.386 1.26 0 2.238.438 2.934 1.314zm-4.284 5.274c.468.468 1.062.702 1.782.702s1.314-.234 1.782-.702c.48-.48.72-1.092.72-1.836s-.24-1.35-.72-1.818c-.468-.48-1.062-.72-1.782-.72s-1.314.24-1.782.72c-.468.468-.702 1.074-.702 1.818s.234 1.356.702 1.836zm12.744 2.916c-1.356 0-2.49-.456-3.402-1.368-.9-.912-1.35-2.04-1.35-3.384 0-1.344.45-2.472 1.35-3.384.912-.912 2.046-1.368 3.402-1.368.876 0 1.674.21 2.394.63.72.42 1.266.984 1.638 1.692l-1.998 1.17a2.023 2.023 0 00-.828-.882 2.332 2.332 0 00-1.224-.324c-.696 0-1.272.234-1.728.702-.456.456-.684 1.044-.684 1.764 0 .696.228 1.284.684 1.764.456.456 1.032.684 1.728.684.468 0 .882-.102 1.242-.306.372-.216.648-.51.828-.882l2.016 1.152c-.396.72-.96 1.29-1.692 1.71a4.63 4.63 0 01-2.376.63zm13.651-3.798h-6.786c.3 1.128 1.146 1.692 2.538 1.692.888 0 1.56-.3 2.016-.9l1.872 1.08c-.888 1.284-2.196 1.926-3.924 1.926-1.488 0-2.682-.45-3.582-1.35-.9-.9-1.35-2.034-1.35-3.402 0-1.344.444-2.472 1.332-3.384.876-.912 2.016-1.368 3.42-1.368 1.332 0 2.418.456 3.258 1.368.864.912 1.296 2.04 1.296 3.384 0 .252-.03.57-.09.954zm-6.822-1.8h4.59c-.132-.588-.402-1.038-.81-1.35-.396-.312-.87-.468-1.422-.468-.624 0-1.14.162-1.548.486-.408.312-.678.756-.81 1.332z" fill="#342559"/><rect x=".5" y=".5" width="152" height="195" rx="7.5" stroke="#E9E8F9"/><rect x="161.5" y=".5" width="152" height="195" rx="7.5" fill="#fff"/><rect x="220" y="42" width="38" height="54" rx="4" fill="#EAE8FF"/><rect x="217.5" y="39.5" width="37" height="53" rx="3.5" stroke="#211541"/><path d="M237 85.241c1.99 0 5.971-.784 5.971-3.921 0-3.921-4.4-2.14-3.142 0 1.257 2.139 2.828 6.417 6.285 3.921 2.766-1.996 1.781-2.733.943-2.852l.943-2.852" stroke="#211541" stroke-width="1.5" stroke-linecap="round"/><path d="M224.5 49.5h23m-23 4h23m-23 4h23m-23 4h23m-23 4h23m-23 4h23m-23 4h23m-23 4h12" stroke="#211541" stroke-linecap="round"/><path d="M201.233 129.252c-1.236 0-2.28-.276-3.132-.828a4.52 4.52 0 01-1.818-2.286l2.124-1.242c.492 1.284 1.458 1.926 2.898 1.926.672 0 1.176-.12 1.512-.36.336-.24.504-.564.504-.972 0-.444-.198-.786-.594-1.026-.396-.252-1.104-.522-2.124-.81-1.104-.336-1.974-.726-2.61-1.17-.792-.588-1.188-1.452-1.188-2.592 0-1.152.402-2.058 1.206-2.718.804-.684 1.782-1.026 2.934-1.026 1.008 0 1.902.246 2.682.738s1.386 1.188 1.818 2.088l-2.088 1.206c-.504-1.08-1.308-1.62-2.412-1.62-.504 0-.906.12-1.206.36-.3.228-.45.528-.45.9 0 .396.162.72.486.972.36.252.996.516 1.908.792l.864.288c.156.048.426.15.81.306.36.132.624.258.792.378.588.36.984.732 1.188 1.116.312.504.468 1.098.468 1.782 0 1.164-.426 2.088-1.278 2.772-.852.684-1.95 1.026-3.294 1.026zm6.984-10.332a1.411 1.411 0 01-1.422-1.422c0-.384.138-.72.414-1.008a1.382 1.382 0 011.008-.432c.396 0 .732.144 1.008.432.288.288.432.624.432 1.008s-.144.72-.432 1.008a1.372 1.372 0 01-1.008.414zm1.17 10.08h-2.322v-9h2.322v9zm8.767-7.884V120h2.268v8.568c0 1.38-.462 2.442-1.386 3.186-.912.732-2.016 1.098-3.312 1.098-2.04 0-3.462-.732-4.266-2.196l1.98-1.134c.444.84 1.23 1.26 2.358 1.26.732 0 1.308-.192 1.728-.576.42-.384.63-.93.63-1.638v-.972c-.684.912-1.644 1.368-2.88 1.368-1.272 0-2.34-.444-3.204-1.332-.852-.912-1.278-2.004-1.278-3.276 0-1.272.432-2.358 1.296-3.258.864-.9 1.926-1.35 3.186-1.35 1.236 0 2.196.456 2.88 1.368zm-.72 5.022c.48-.468.72-1.062.72-1.782s-.24-1.302-.72-1.746c-.468-.468-1.068-.702-1.8-.702-.72 0-1.326.234-1.818.702-.468.444-.702 1.026-.702 1.746s.234 1.314.702 1.782c.48.456 1.086.684 1.818.684s1.332-.228 1.8-.684zm9.846-6.39c.996 0 1.806.33 2.43.99.648.672.972 1.584.972 2.736V129h-2.322v-5.238c0-.588-.162-1.044-.486-1.368-.312-.324-.744-.486-1.296-.486-.612 0-1.098.192-1.458.576-.348.372-.522.924-.522 1.656V129h-2.322v-9h2.322v1.008c.552-.84 1.446-1.26 2.682-1.26zM238.983 129h-2.322v-13.14h2.322V129zm10.621-3.546h-6.786c.3 1.128 1.146 1.692 2.538 1.692.888 0 1.56-.3 2.016-.9l1.872 1.08c-.888 1.284-2.196 1.926-3.924 1.926-1.488 0-2.682-.45-3.582-1.35-.9-.9-1.35-2.034-1.35-3.402 0-1.344.444-2.472 1.332-3.384.876-.912 2.016-1.368 3.42-1.368 1.332 0 2.418.456 3.258 1.368.864.912 1.296 2.04 1.296 3.384 0 .252-.03.57-.09.954zm-6.822-1.8h4.59c-.132-.588-.402-1.038-.81-1.35-.396-.312-.87-.468-1.422-.468-.624 0-1.14.162-1.548.486-.408.312-.678.756-.81 1.332zm15.051-2.592V120h2.322v9h-2.322v-1.062c-.696.876-1.674 1.314-2.934 1.314-1.2 0-2.232-.456-3.096-1.368-.852-.924-1.278-2.052-1.278-3.384 0-1.32.426-2.442 1.278-3.366.864-.924 1.896-1.386 3.096-1.386 1.26 0 2.238.438 2.934 1.314zm-4.284 5.274c.468.468 1.062.702 1.782.702s1.314-.234 1.782-.702c.48-.48.72-1.092.72-1.836s-.24-1.35-.72-1.818c-.468-.48-1.062-.72-1.782-.72s-1.314.24-1.782.72c-.468.468-.702 1.074-.702 1.818s.234 1.356.702 1.836zm10.531-3.78c0 .384.546.714 1.638.99.384.084.732.186 1.044.306.312.108.624.27.936.486.324.204.576.48.756.828.18.348.27.75.27 1.206 0 .924-.348 1.638-1.044 2.142-.696.492-1.554.738-2.574.738-1.848 0-3.108-.714-3.78-2.142l2.016-1.134c.276.78.864 1.17 1.764 1.17.828 0 1.242-.258 1.242-.774 0-.384-.546-.714-1.638-.99a11.136 11.136 0 01-1.044-.324 5.66 5.66 0 01-.936-.468 2.267 2.267 0 01-.774-.81 2.584 2.584 0 01-.252-1.17c0-.888.324-1.584.972-2.088.66-.516 1.476-.774 2.448-.774.732 0 1.398.168 1.998.504.6.324 1.074.792 1.422 1.404l-1.98 1.08c-.288-.612-.768-.918-1.44-.918-.3 0-.552.072-.756.216a.607.607 0 00-.288.522zm14.51 2.898h-6.786c.3 1.128 1.146 1.692 2.538 1.692.888 0 1.56-.3 2.016-.9l1.872 1.08c-.888 1.284-2.196 1.926-3.924 1.926-1.488 0-2.682-.45-3.582-1.35-.9-.9-1.35-2.034-1.35-3.402 0-1.344.444-2.472 1.332-3.384.876-.912 2.016-1.368 3.42-1.368 1.332 0 2.418.456 3.258 1.368.864.912 1.296 2.04 1.296 3.384 0 .252-.03.57-.09.954zm-6.822-1.8h4.59c-.132-.588-.402-1.038-.81-1.35-.396-.312-.87-.468-1.422-.468-.624 0-1.14.162-1.548.486-.408.312-.678.756-.81 1.332z" fill="#342559"/><rect x="161.5" y=".5" width="152" height="195" rx="7.5" stroke="#E9E8F9"/><rect x="322.5" y=".5" width="152" height="195" rx="7.5" fill="#fff"/><path d="M380 48h44v24h-11v14.103h-15.299V96H380V48z" fill="#EAE8FF"/><path d="M377 44h44v24h-11v14.103h-15.299V92H377V44z" stroke="#211541" stroke-linecap="round" stroke-dasharray="2 2"/><path fill="#211541" d="M375 42h4v4h-4zm0 48h4v4h-4zm18 0h4v4h-4zm0-10h4v4h-4zm15 0h4v4h-4zm0-14h4v4h-4zm11 0h4v4h-4zm0-24h4v4h-4z"/><path d="M349.271 116.4h5.004c1.728 0 3.168.606 4.32 1.818 1.164 1.2 1.746 2.694 1.746 4.482 0 1.788-.582 3.282-1.746 4.482-1.152 1.212-2.592 1.818-4.32 1.818h-5.004v-12.6zm2.484 10.224h2.52c1.092 0 1.98-.36 2.664-1.08.684-.744 1.026-1.692 1.026-2.844 0-1.164-.342-2.106-1.026-2.826-.684-.732-1.572-1.098-2.664-1.098h-2.52v7.848zm18.736-1.17h-6.786c.3 1.128 1.146 1.692 2.538 1.692.888 0 1.56-.3 2.016-.9l1.872 1.08c-.888 1.284-2.196 1.926-3.924 1.926-1.488 0-2.682-.45-3.582-1.35-.9-.9-1.35-2.034-1.35-3.402 0-1.344.444-2.472 1.332-3.384.876-.912 2.016-1.368 3.42-1.368 1.332 0 2.418.456 3.258 1.368.864.912 1.296 2.04 1.296 3.384 0 .252-.03.57-.09.954zm-6.822-1.8h4.59c-.132-.588-.402-1.038-.81-1.35-.396-.312-.87-.468-1.422-.468-.624 0-1.14.162-1.548.486-.408.312-.678.756-.81 1.332zm10.071-1.098c0 .384.546.714 1.638.99.384.084.732.186 1.044.306.312.108.624.27.936.486.324.204.576.48.756.828.18.348.27.75.27 1.206 0 .924-.348 1.638-1.044 2.142-.696.492-1.554.738-2.574.738-1.848 0-3.108-.714-3.78-2.142l2.016-1.134c.276.78.864 1.17 1.764 1.17.828 0 1.242-.258 1.242-.774 0-.384-.546-.714-1.638-.99a11.136 11.136 0 01-1.044-.324 5.66 5.66 0 01-.936-.468 2.267 2.267 0 01-.774-.81 2.584 2.584 0 01-.252-1.17c0-.888.324-1.584.972-2.088.66-.516 1.476-.774 2.448-.774.732 0 1.398.168 1.998.504.6.324 1.074.792 1.422 1.404l-1.98 1.08c-.288-.612-.768-.918-1.44-.918-.3 0-.552.072-.756.216a.607.607 0 00-.288.522zm7.038-3.636a1.411 1.411 0 01-1.422-1.422c0-.384.138-.72.414-1.008a1.382 1.382 0 011.008-.432c.396 0 .732.144 1.008.432.288.288.432.624.432 1.008s-.144.72-.432 1.008a1.372 1.372 0 01-1.008.414zm1.17 10.08h-2.322v-9h2.322v9zm8.767-7.884V120h2.268v8.568c0 1.38-.462 2.442-1.386 3.186-.912.732-2.016 1.098-3.312 1.098-2.04 0-3.462-.732-4.266-2.196l1.98-1.134c.444.84 1.23 1.26 2.358 1.26.732 0 1.308-.192 1.728-.576.42-.384.63-.93.63-1.638v-.972c-.684.912-1.644 1.368-2.88 1.368-1.272 0-2.34-.444-3.204-1.332-.852-.912-1.278-2.004-1.278-3.276 0-1.272.432-2.358 1.296-3.258.864-.9 1.926-1.35 3.186-1.35 1.236 0 2.196.456 2.88 1.368zm-.72 5.022c.48-.468.72-1.062.72-1.782s-.24-1.302-.72-1.746c-.468-.468-1.068-.702-1.8-.702-.72 0-1.326.234-1.818.702-.468.444-.702 1.026-.702 1.746s.234 1.314.702 1.782c.48.456 1.086.684 1.818.684s1.332-.228 1.8-.684zm9.845-6.39c.996 0 1.806.33 2.43.99.648.672.972 1.584.972 2.736V129h-2.322v-5.238c0-.588-.162-1.044-.486-1.368-.312-.324-.744-.486-1.296-.486-.612 0-1.098.192-1.458.576-.348.372-.522.924-.522 1.656V129h-2.322v-9h2.322v1.008c.552-.84 1.446-1.26 2.682-1.26zm11.523 2.808c0 .384.546.714 1.638.99.384.084.732.186 1.044.306.312.108.624.27.936.486.324.204.576.48.756.828.18.348.27.75.27 1.206 0 .924-.348 1.638-1.044 2.142-.696.492-1.554.738-2.574.738-1.848 0-3.108-.714-3.78-2.142l2.016-1.134c.276.78.864 1.17 1.764 1.17.828 0 1.242-.258 1.242-.774 0-.384-.546-.714-1.638-.99a11.136 11.136 0 01-1.044-.324 5.66 5.66 0 01-.936-.468 2.267 2.267 0 01-.774-.81 2.584 2.584 0 01-.252-1.17c0-.888.324-1.584.972-2.088.66-.516 1.476-.774 2.448-.774.732 0 1.398.168 1.998.504.6.324 1.074.792 1.422 1.404l-1.98 1.08c-.288-.612-.768-.918-1.44-.918-.3 0-.552.072-.756.216a.607.607 0 00-.288.522zm10.77-2.556v2.232h-2.034v3.744c0 .312.078.54.234.684.156.144.384.228.684.252.3.012.672.006 1.116-.018V129c-1.572.18-2.694.036-3.366-.432-.66-.48-.99-1.344-.99-2.592v-3.744h-1.566V120h1.566v-1.818l2.322-.702V120h2.034zm8.772 7.884c-.912.912-2.04 1.368-3.384 1.368-1.344 0-2.472-.456-3.384-1.368-.912-.912-1.368-2.04-1.368-3.384 0-1.332.456-2.454 1.368-3.366.924-.924 2.052-1.386 3.384-1.386 1.332 0 2.46.462 3.384 1.386.924.924 1.386 2.046 1.386 3.366 0 1.332-.462 2.46-1.386 3.384zm-5.13-1.602c.468.468 1.05.702 1.746.702s1.278-.234 1.746-.702c.468-.468.702-1.062.702-1.782s-.234-1.314-.702-1.782c-.468-.468-1.05-.702-1.746-.702s-1.278.234-1.746.702c-.456.48-.684 1.074-.684 1.782s.228 1.302.684 1.782zM435.994 120v1.548c.204-.564.552-.99 1.044-1.278.492-.3 1.056-.45 1.692-.45v2.592c-.708-.096-1.344.048-1.908.432-.552.372-.828.99-.828 1.854V129h-2.322v-9h2.322zm12.256 5.454h-6.786c.3 1.128 1.146 1.692 2.538 1.692.888 0 1.56-.3 2.016-.9l1.872 1.08c-.888 1.284-2.196 1.926-3.924 1.926-1.488 0-2.682-.45-3.582-1.35-.9-.9-1.35-2.034-1.35-3.402 0-1.344.444-2.472 1.332-3.384.876-.912 2.016-1.368 3.42-1.368 1.332 0 2.418.456 3.258 1.368.864.912 1.296 2.04 1.296 3.384 0 .252-.03.57-.09.954zm-6.822-1.8h4.59c-.132-.588-.402-1.038-.81-1.35-.396-.312-.87-.468-1.422-.468-.624 0-1.14.162-1.548.486-.408.312-.678.756-.81 1.332z" fill="#342559"/><rect x="322.5" y=".5" width="152" height="195" rx="7.5" stroke="#E9E8F9"/><rect x="483.5" y=".5" width="152" height="195" rx="7.5" fill="#fff"/><rect x="540.766" y="29.543" width="35.037" height="49.789" rx="4" fill="#EAE8FF"/><rect x="538.5" y="27.277" width="34.037" height="48.789" rx="3.5" stroke="#211541"/><path d="M556.441 69.413c1.835 0 5.505-.723 5.505-3.616 0-3.615-4.057-1.972-2.897 0 1.159 1.972 2.608 5.917 5.795 3.616 2.55-1.841 1.642-2.52.869-2.63l.87-2.63m-21.668-27.694h21.207m-21.207 3.688h21.207m-21.207 3.688h21.207m-21.207 3.688h21.207m-21.207 3.687h21.207m-21.207 3.69h21.207m-21.207 3.687h21.207m-21.207 3.688h11.065" stroke="#211541" stroke-width="1.5" stroke-linecap="round"/><path d="M544.333 35.888a4 4 0 014-4H578a4 4 0 014 4V80.22a4 4 0 01-4 4h-29.667a4 4 0 01-4-4V35.888z" fill="#EAE8FF"/><rect x="544.611" y="32.166" width="34.037" height="48.789" rx="3.5" stroke="#211541"/><path d="M551.026 41.348h21.207m-21.207 3.687h21.207m-21.207 3.689h21.207m-21.207 3.687h21.207M551.026 56.1h21.207m-21.207 3.688h11.428" stroke="#211541" stroke-linecap="round"/><circle cx="567.333" cy="69.555" r="5.111" stroke="#211541" stroke-width="2"/><path d="M508.669 110.232h6.318v.972c0 1.8-.576 3.258-1.728 4.374-1.152 1.116-2.64 1.674-4.464 1.674-1.944 0-3.558-.63-4.842-1.89-1.272-1.272-1.908-2.82-1.908-4.644 0-1.836.63-3.39 1.89-4.662 1.272-1.272 2.844-1.908 4.716-1.908 1.164 0 2.232.264 3.204.792s1.734 1.242 2.286 2.142l-2.124 1.224c-.3-.516-.756-.936-1.368-1.26a4.241 4.241 0 00-2.016-.486c-1.212 0-2.202.396-2.97 1.188-.768.768-1.152 1.758-1.152 2.97 0 1.188.39 2.172 1.17 2.952.78.768 1.824 1.152 3.132 1.152.948 0 1.74-.21 2.376-.63.636-.42 1.068-1.008 1.296-1.764h-3.816v-2.196zm16.473 3.222h-6.786c.3 1.128 1.146 1.692 2.538 1.692.888 0 1.56-.3 2.016-.9l1.872 1.08c-.888 1.284-2.196 1.926-3.924 1.926-1.488 0-2.682-.45-3.582-1.35-.9-.9-1.35-2.034-1.35-3.402 0-1.344.444-2.472 1.332-3.384.876-.912 2.016-1.368 3.42-1.368 1.332 0 2.418.456 3.258 1.368.864.912 1.296 2.04 1.296 3.384 0 .252-.03.57-.09.954zm-6.822-1.8h4.59c-.132-.588-.402-1.038-.81-1.35-.396-.312-.87-.468-1.422-.468-.624 0-1.14.162-1.548.486-.408.312-.678.756-.81 1.332zM531.486 108v2.232h-2.034v3.744c0 .312.078.54.234.684.156.144.384.228.684.252.3.012.672.006 1.116-.018V117c-1.572.18-2.694.036-3.366-.432-.66-.48-.99-1.344-.99-2.592v-3.744h-1.566V108h1.566v-1.818l2.322-.702V108h2.034zm10.777-.252c.996 0 1.806.33 2.43.99.648.672.972 1.584.972 2.736V117h-2.322v-5.238c0-.588-.162-1.044-.486-1.368-.312-.324-.744-.486-1.296-.486-.612 0-1.098.192-1.458.576-.348.372-.522.924-.522 1.656V117h-2.322v-9h2.322v1.008c.552-.84 1.446-1.26 2.682-1.26zm13.881 5.706h-6.786c.3 1.128 1.146 1.692 2.538 1.692.888 0 1.56-.3 2.016-.9l1.872 1.08c-.888 1.284-2.196 1.926-3.924 1.926-1.488 0-2.682-.45-3.582-1.35-.9-.9-1.35-2.034-1.35-3.402 0-1.344.444-2.472 1.332-3.384.876-.912 2.016-1.368 3.42-1.368 1.332 0 2.418.456 3.258 1.368.864.912 1.296 2.04 1.296 3.384 0 .252-.03.57-.09.954zm-6.822-1.8h4.59c-.132-.588-.402-1.038-.81-1.35-.396-.312-.87-.468-1.422-.468-.624 0-1.14.162-1.548.486-.408.312-.678.756-.81 1.332zm12.495 5.598c-1.356 0-2.49-.456-3.402-1.368-.9-.912-1.35-2.04-1.35-3.384 0-1.344.45-2.472 1.35-3.384.912-.912 2.046-1.368 3.402-1.368.876 0 1.674.21 2.394.63.72.42 1.266.984 1.638 1.692l-1.998 1.17a2.023 2.023 0 00-.828-.882 2.332 2.332 0 00-1.224-.324c-.696 0-1.272.234-1.728.702-.456.456-.684 1.044-.684 1.764 0 .696.228 1.284.684 1.764.456.456 1.032.684 1.728.684.468 0 .882-.102 1.242-.306.372-.216.648-.51.828-.882l2.016 1.152c-.396.72-.96 1.29-1.692 1.71a4.63 4.63 0 01-2.376.63zm13.651-3.798h-6.786c.3 1.128 1.146 1.692 2.538 1.692.888 0 1.56-.3 2.016-.9l1.872 1.08c-.888 1.284-2.196 1.926-3.924 1.926-1.488 0-2.682-.45-3.582-1.35-.9-.9-1.35-2.034-1.35-3.402 0-1.344.444-2.472 1.332-3.384.876-.912 2.016-1.368 3.42-1.368 1.332 0 2.418.456 3.258 1.368.864.912 1.296 2.04 1.296 3.384 0 .252-.03.57-.09.954zm-6.822-1.8h4.59c-.132-.588-.402-1.038-.81-1.35-.396-.312-.87-.468-1.422-.468-.624 0-1.14.162-1.548.486-.408.312-.678.756-.81 1.332zm10.072-1.098c0 .384.546.714 1.638.99.384.084.732.186 1.044.306.312.108.624.27.936.486.324.204.576.48.756.828.18.348.27.75.27 1.206 0 .924-.348 1.638-1.044 2.142-.696.492-1.554.738-2.574.738-1.848 0-3.108-.714-3.78-2.142l2.016-1.134c.276.78.864 1.17 1.764 1.17.828 0 1.242-.258 1.242-.774 0-.384-.546-.714-1.638-.99a11.136 11.136 0 01-1.044-.324 5.66 5.66 0 01-.936-.468 2.267 2.267 0 01-.774-.81 2.584 2.584 0 01-.252-1.17c0-.888.324-1.584.972-2.088.66-.516 1.476-.774 2.448-.774.732 0 1.398.168 1.998.504.6.324 1.074.792 1.422 1.404l-1.98 1.08c-.288-.612-.768-.918-1.44-.918-.3 0-.552.072-.756.216a.607.607 0 00-.288.522zm7.552 0c0 .384.546.714 1.638.99.384.084.732.186 1.044.306.312.108.624.27.936.486.324.204.576.48.756.828.18.348.27.75.27 1.206 0 .924-.348 1.638-1.044 2.142-.696.492-1.554.738-2.574.738-1.848 0-3.108-.714-3.78-2.142l2.016-1.134c.276.78.864 1.17 1.764 1.17.828 0 1.242-.258 1.242-.774 0-.384-.546-.714-1.638-.99a11.136 11.136 0 01-1.044-.324 5.66 5.66 0 01-.936-.468 2.267 2.267 0 01-.774-.81 2.584 2.584 0 01-.252-1.17c0-.888.324-1.584.972-2.088.66-.516 1.476-.774 2.448-.774.732 0 1.398.168 1.998.504.6.324 1.074.792 1.422 1.404l-1.98 1.08c-.288-.612-.768-.918-1.44-.918-.3 0-.552.072-.756.216a.607.607 0 00-.288.522zm12.603-1.494V108h2.322v9h-2.322v-1.062c-.696.876-1.674 1.314-2.934 1.314-1.2 0-2.232-.456-3.096-1.368-.852-.924-1.278-2.052-1.278-3.384 0-1.32.426-2.442 1.278-3.366.864-.924 1.896-1.386 3.096-1.386 1.26 0 2.238.438 2.934 1.314zm-4.284 5.274c.468.468 1.062.702 1.782.702s1.314-.234 1.782-.702c.48-.48.72-1.092.72-1.836s-.24-1.35-.72-1.818c-.468-.48-1.062-.72-1.782-.72s-1.314.24-1.782.72c-.468.468-.702 1.074-.702 1.818s.234 1.356.702 1.836zM605.37 108v1.548c.204-.564.552-.99 1.044-1.278.492-.3 1.056-.45 1.692-.45v2.592c-.708-.096-1.344.048-1.908.432-.552.372-.828.99-.828 1.854V117h-2.322v-9h2.322zm7.905 6.048l1.998-6.048h2.484l-3.276 9c-.468 1.296-1.092 2.232-1.872 2.808-.768.588-1.728.852-2.88.792v-2.16c.612.012 1.104-.12 1.476-.396.372-.276.666-.72.882-1.332l-3.69-8.712h2.538l2.34 6.048zM509.028 141h-2.322v-13.14h2.322V141zm3.025-10.08a1.411 1.411 0 01-1.422-1.422c0-.384.138-.72.414-1.008a1.382 1.382 0 011.008-.432c.396 0 .732.144 1.008.432.288.288.432.624.432 1.008s-.144.72-.432 1.008a1.372 1.372 0 01-1.008.414zm1.17 10.08h-2.322v-9h2.322v9zm6.157.252c-1.356 0-2.49-.456-3.402-1.368-.9-.912-1.35-2.04-1.35-3.384 0-1.344.45-2.472 1.35-3.384.912-.912 2.046-1.368 3.402-1.368.876 0 1.674.21 2.394.63.72.42 1.266.984 1.638 1.692l-1.998 1.17a2.023 2.023 0 00-.828-.882 2.332 2.332 0 00-1.224-.324c-.696 0-1.272.234-1.728.702-.456.456-.684 1.044-.684 1.764 0 .696.228 1.284.684 1.764.456.456 1.032.684 1.728.684.468 0 .882-.102 1.242-.306.372-.216.648-.51.828-.882l2.016 1.152c-.396.72-.96 1.29-1.692 1.71a4.63 4.63 0 01-2.376.63zm13.652-3.798h-6.786c.3 1.128 1.146 1.692 2.538 1.692.888 0 1.56-.3 2.016-.9l1.872 1.08c-.888 1.284-2.196 1.926-3.924 1.926-1.488 0-2.682-.45-3.582-1.35-.9-.9-1.35-2.034-1.35-3.402 0-1.344.444-2.472 1.332-3.384.876-.912 2.016-1.368 3.42-1.368 1.332 0 2.418.456 3.258 1.368.864.912 1.296 2.04 1.296 3.384 0 .252-.03.57-.09.954zm-6.822-1.8h4.59c-.132-.588-.402-1.038-.81-1.35-.396-.312-.87-.468-1.422-.468-.624 0-1.14.162-1.548.486-.408.312-.678.756-.81 1.332zm13.285-3.906c.996 0 1.806.33 2.43.99.648.672.972 1.584.972 2.736V141h-2.322v-5.238c0-.588-.162-1.044-.486-1.368-.312-.324-.744-.486-1.296-.486-.612 0-1.098.192-1.458.576-.348.372-.522.924-.522 1.656V141h-2.322v-9h2.322v1.008c.552-.84 1.446-1.26 2.682-1.26zm7.275 2.808c0 .384.546.714 1.638.99.384.084.732.186 1.044.306.312.108.624.27.936.486.324.204.576.48.756.828.18.348.27.75.27 1.206 0 .924-.348 1.638-1.044 2.142-.696.492-1.554.738-2.574.738-1.848 0-3.108-.714-3.78-2.142l2.016-1.134c.276.78.864 1.17 1.764 1.17.828 0 1.242-.258 1.242-.774 0-.384-.546-.714-1.638-.99a11.136 11.136 0 01-1.044-.324 5.66 5.66 0 01-.936-.468 2.267 2.267 0 01-.774-.81 2.584 2.584 0 01-.252-1.17c0-.888.324-1.584.972-2.088.66-.516 1.476-.774 2.448-.774.732 0 1.398.168 1.998.504.6.324 1.074.792 1.422 1.404l-1.98 1.08c-.288-.612-.768-.918-1.44-.918-.3 0-.552.072-.756.216a.607.607 0 00-.288.522zm7.037-3.636a1.411 1.411 0 01-1.422-1.422c0-.384.138-.72.414-1.008a1.382 1.382 0 011.008-.432c.396 0 .732.144 1.008.432.288.288.432.624.432 1.008s-.144.72-.432 1.008a1.372 1.372 0 01-1.008.414zm1.17 10.08h-2.322v-9h2.322v9zm6.877-9.252c.996 0 1.806.33 2.43.99.648.672.972 1.584.972 2.736V141h-2.322v-5.238c0-.588-.162-1.044-.486-1.368-.312-.324-.744-.486-1.296-.486-.612 0-1.098.192-1.458.576-.348.372-.522.924-.522 1.656V141h-2.322v-9h2.322v1.008c.552-.84 1.446-1.26 2.682-1.26zm12.027 1.368V132h2.268v8.568c0 1.38-.462 2.442-1.386 3.186-.912.732-2.016 1.098-3.312 1.098-2.04 0-3.462-.732-4.266-2.196l1.98-1.134c.444.84 1.23 1.26 2.358 1.26.732 0 1.308-.192 1.728-.576.42-.384.63-.93.63-1.638v-.972c-.684.912-1.644 1.368-2.88 1.368-1.272 0-2.34-.444-3.204-1.332-.852-.912-1.278-2.004-1.278-3.276 0-1.272.432-2.358 1.296-3.258.864-.9 1.926-1.35 3.186-1.35 1.236 0 2.196.456 2.88 1.368zm-.72 5.022c.48-.468.72-1.062.72-1.782s-.24-1.302-.72-1.746c-.468-.468-1.068-.702-1.8-.702-.72 0-1.326.234-1.818.702-.468.444-.702 1.026-.702 1.746s.234 1.314.702 1.782c.48.456 1.086.684 1.818.684s1.332-.228 1.8-.684zm15.929-5.076V132h2.322v9h-2.322v-1.062c-.696.876-1.674 1.314-2.934 1.314-1.2 0-2.232-.456-3.096-1.368-.852-.924-1.278-2.052-1.278-3.384 0-1.32.426-2.442 1.278-3.366.864-.924 1.896-1.386 3.096-1.386 1.26 0 2.238.438 2.934 1.314zm-4.284 5.274c.468.468 1.062.702 1.782.702s1.314-.234 1.782-.702c.48-.48.72-1.092.72-1.836s-.24-1.35-.72-1.818c-.468-.48-1.062-.72-1.782-.72s-1.314.24-1.782.72c-.468.468-.702 1.074-.702 1.818s.234 1.356.702 1.836zm13.464-6.588c.996 0 1.806.33 2.43.99.648.672.972 1.584.972 2.736V141h-2.322v-5.238c0-.588-.162-1.044-.486-1.368-.312-.324-.744-.486-1.296-.486-.612 0-1.098.192-1.458.576-.348.372-.522.924-.522 1.656V141h-2.322v-9h2.322v1.008c.552-.84 1.446-1.26 2.682-1.26zm11.955 1.314V128.4h2.322V141h-2.322v-1.062c-.684.876-1.656 1.314-2.916 1.314-1.212 0-2.25-.456-3.114-1.368-.852-.924-1.278-2.052-1.278-3.384 0-1.32.426-2.442 1.278-3.366.864-.924 1.902-1.386 3.114-1.386 1.26 0 2.232.438 2.916 1.314zm-4.284 5.274c.492.468 1.092.702 1.8.702.72 0 1.314-.234 1.782-.702.468-.48.702-1.092.702-1.836s-.234-1.35-.702-1.818c-.468-.48-1.062-.72-1.782-.72s-1.32.24-1.8.72c-.468.468-.702 1.074-.702 1.818s.234 1.356.702 1.836zm-70.823 17.412c1.212 0 2.244.462 3.096 1.386.864.924 1.296 2.046 1.296 3.366 0 1.344-.432 2.472-1.296 3.384-.84.912-1.872 1.368-3.096 1.368-1.26 0-2.232-.438-2.916-1.314v4.662h-2.322V156h2.322v1.062c.684-.876 1.656-1.314 2.916-1.314zm-2.214 6.588c.468.468 1.062.702 1.782.702s1.314-.234 1.782-.702c.48-.48.72-1.092.72-1.836s-.24-1.35-.72-1.818c-.468-.48-1.062-.72-1.782-.72s-1.314.24-1.782.72c-.468.468-.702 1.074-.702 1.818s.234 1.356.702 1.836zm16.739-.882h-6.786c.3 1.128 1.146 1.692 2.538 1.692.888 0 1.56-.3 2.016-.9l1.872 1.08c-.888 1.284-2.196 1.926-3.924 1.926-1.488 0-2.682-.45-3.582-1.35-.9-.9-1.35-2.034-1.35-3.402 0-1.344.444-2.472 1.332-3.384.876-.912 2.016-1.368 3.42-1.368 1.332 0 2.418.456 3.258 1.368.864.912 1.296 2.04 1.296 3.384 0 .252-.03.57-.09.954zm-6.822-1.8h4.59c-.132-.588-.402-1.038-.81-1.35-.396-.312-.87-.468-1.422-.468-.624 0-1.14.162-1.548.486-.408.312-.678.756-.81 1.332zM553.424 156v1.548c.204-.564.552-.99 1.044-1.278.492-.3 1.056-.45 1.692-.45v2.592c-.708-.096-1.344.048-1.908.432-.552.372-.828.99-.828 1.854V165h-2.322v-9h2.322zm13.796-.252c1.032 0 1.854.336 2.466 1.008.624.672.936 1.572.936 2.7V165H568.3v-5.382c0-.54-.132-.96-.396-1.26-.264-.3-.636-.45-1.116-.45-.528 0-.942.174-1.242.522-.288.348-.432.852-.432 1.512V165h-2.322v-5.382c0-.54-.132-.96-.396-1.26-.264-.3-.636-.45-1.116-.45-.516 0-.93.18-1.242.54-.3.348-.45.846-.45 1.494V165h-2.322v-9h2.322v.954c.54-.804 1.374-1.206 2.502-1.206 1.116 0 1.932.432 2.448 1.296.588-.864 1.482-1.296 2.682-1.296zm6.274-.828a1.411 1.411 0 01-1.422-1.422c0-.384.138-.72.414-1.008a1.382 1.382 0 011.008-.432c.396 0 .732.144 1.008.432.288.288.432.624.432 1.008s-.144.72-.432 1.008a1.372 1.372 0 01-1.008.414zm1.17 10.08h-2.322v-9h2.322v9zm7.021-9v2.232h-2.034v3.744c0 .312.078.54.234.684.156.144.384.228.684.252.3.012.672.006 1.116-.018V165c-1.572.18-2.694.036-3.366-.432-.66-.48-.99-1.344-.99-2.592v-3.744h-1.566V156h1.566v-1.818l2.322-.702V156h2.034zm3.334 2.556c0 .384.546.714 1.638.99.384.084.732.186 1.044.306.312.108.624.27.936.486.324.204.576.48.756.828.18.348.27.75.27 1.206 0 .924-.348 1.638-1.044 2.142-.696.492-1.554.738-2.574.738-1.848 0-3.108-.714-3.78-2.142l2.016-1.134c.276.78.864 1.17 1.764 1.17.828 0 1.242-.258 1.242-.774 0-.384-.546-.714-1.638-.99a11.136 11.136 0 01-1.044-.324 5.66 5.66 0 01-.936-.468 2.267 2.267 0 01-.774-.81 2.584 2.584 0 01-.252-1.17c0-.888.324-1.584.972-2.088.66-.516 1.476-.774 2.448-.774.732 0 1.398.168 1.998.504.6.324 1.074.792 1.422 1.404l-1.98 1.08c-.288-.612-.768-.918-1.44-.918-.3 0-.552.072-.756.216a.607.607 0 00-.288.522z" fill="#342559"/><rect x="483.5" y=".5" width="152" height="195" rx="7.5" stroke="#E9E8F9"/><rect x=".5" y="261.5" width="152" height="203" rx="7.5" fill="#fff"/><path d="M58.25 321l21-5 21 5v26.686c0 3.857-2.218 7.37-5.7 9.029L79.25 364l-15.3-7.285a10.001 10.001 0 01-5.7-9.029V321z" fill="#EAE8FF"/><path d="M55.75 342.686v-26.291l20.5-4.881 20.5 4.881v26.291a9.5 9.5 0 01-5.416 8.577l-15.084 7.183-15.084-7.183a9.5 9.5 0 01-5.416-8.577z" stroke="#342559"/><path d="M82.083 332.167H70.417c-.92 0-1.667.746-1.667 1.667v5.833c0 .92.746 1.667 1.667 1.667h11.666c.92 0 1.667-.747 1.667-1.667v-5.833c0-.921-.746-1.667-1.667-1.667zm-10 0v-3.333a4.17 4.17 0 014.167-4.167 4.168 4.168 0 014.167 4.167v3.333" stroke="#342559" stroke-width="2" stroke-linecap="round" stroke-linejoin="round"/><path d="M26.909 387.232h6.318v.972c0 1.8-.576 3.258-1.728 4.374-1.152 1.116-2.64 1.674-4.464 1.674-1.944 0-3.558-.63-4.842-1.89-1.272-1.272-1.908-2.82-1.908-4.644 0-1.836.63-3.39 1.89-4.662 1.272-1.272 2.844-1.908 4.716-1.908 1.164 0 2.232.264 3.204.792s1.734 1.242 2.286 2.142l-2.124 1.224c-.3-.516-.756-.936-1.368-1.26a4.241 4.241 0 00-2.016-.486c-1.212 0-2.202.396-2.97 1.188-.768.768-1.152 1.758-1.152 2.97 0 1.188.39 2.172 1.17 2.952.78.768 1.824 1.152 3.132 1.152.948 0 1.74-.21 2.376-.63.636-.42 1.068-1.008 1.296-1.764h-3.816v-2.196zm16.473 3.222h-6.786c.3 1.128 1.146 1.692 2.538 1.692.888 0 1.56-.3 2.016-.9l1.872 1.08c-.889 1.284-2.197 1.926-3.925 1.926-1.488 0-2.681-.45-3.581-1.35-.9-.9-1.35-2.034-1.35-3.402 0-1.344.444-2.472 1.332-3.384.876-.912 2.016-1.368 3.42-1.368 1.331 0 2.418.456 3.258 1.368.863.912 1.295 2.04 1.295 3.384 0 .252-.03.57-.09.954zm-6.822-1.8h4.59c-.133-.588-.402-1.038-.81-1.35-.397-.312-.87-.468-1.423-.468-.623 0-1.14.162-1.547.486-.408.312-.678.756-.81 1.332zM49.724 385v2.232H47.69v3.744c0 .312.078.54.234.684.156.144.384.228.684.252.3.012.672.006 1.116-.018V394c-1.572.18-2.694.036-3.366-.432-.66-.48-.99-1.344-.99-2.592v-3.744h-1.566V385h1.566v-1.818l2.322-.702V385h2.034zm6.926-1.08a1.411 1.411 0 01-1.422-1.422c0-.384.138-.72.414-1.008a1.382 1.382 0 011.008-.432c.396 0 .732.144 1.008.432.288.288.432.624.432 1.008s-.144.72-.432 1.008a1.372 1.372 0 01-1.008.414zM57.82 394h-2.322v-9h2.322v9zm6.877-9.252c.996 0 1.806.33 2.43.99.648.672.972 1.584.972 2.736V394h-2.322v-5.238c0-.588-.162-1.044-.486-1.368-.312-.324-.744-.486-1.296-.486-.612 0-1.098.192-1.458.576-.348.372-.522.924-.522 1.656V394h-2.322v-9h2.322v1.008c.552-.84 1.446-1.26 2.682-1.26zm7.275 2.808c0 .384.546.714 1.638.99.384.084.732.186 1.044.306.312.108.624.27.936.486.324.204.576.48.756.828.18.348.27.75.27 1.206 0 .924-.348 1.638-1.044 2.142-.696.492-1.554.738-2.574.738-1.848 0-3.108-.714-3.78-2.142l2.016-1.134c.276.78.864 1.17 1.764 1.17.828 0 1.242-.258 1.242-.774 0-.384-.546-.714-1.638-.99a11.136 11.136 0 01-1.044-.324 5.66 5.66 0 01-.936-.468 2.267 2.267 0 01-.774-.81 2.584 2.584 0 01-.252-1.17c0-.888.324-1.584.972-2.088.66-.516 1.476-.774 2.448-.774.732 0 1.398.168 1.998.504.6.324 1.074.792 1.422 1.404l-1.98 1.08c-.288-.612-.768-.918-1.44-.918-.3 0-.552.072-.756.216a.607.607 0 00-.288.522zm11.825 2.304V385h2.322v9h-2.322v-1.008c-.552.84-1.446 1.26-2.682 1.26-.984 0-1.8-.33-2.448-.99-.636-.672-.954-1.584-.954-2.736V385h2.322v5.238c0 .588.156 1.044.468 1.368.324.324.762.486 1.314.486.612 0 1.092-.186 1.44-.558.36-.384.54-.942.54-1.674zm6.519-4.86v1.548c.204-.564.552-.99 1.044-1.278.492-.3 1.055-.45 1.691-.45v2.592c-.708-.096-1.344.048-1.908.432-.552.372-.828.99-.828 1.854V394h-2.322v-9h2.323zm10.348 1.062V385h2.322v9h-2.322v-1.062c-.696.876-1.674 1.314-2.934 1.314-1.2 0-2.232-.456-3.096-1.368-.852-.924-1.278-2.052-1.278-3.384 0-1.32.426-2.442 1.278-3.366.864-.924 1.896-1.386 3.096-1.386 1.26 0 2.238.438 2.934 1.314zm-4.284 5.274c.468.468 1.062.702 1.782.702s1.314-.234 1.782-.702c.48-.48.72-1.092.72-1.836s-.24-1.35-.72-1.818c-.468-.48-1.062-.72-1.782-.72s-1.314.24-1.782.72c-.468.468-.702 1.074-.702 1.818s.234 1.356.702 1.836zm13.463-6.588c.996 0 1.806.33 2.43.99.648.672.972 1.584.972 2.736V394h-2.322v-5.238c0-.588-.162-1.044-.486-1.368-.312-.324-.744-.486-1.296-.486-.612 0-1.098.192-1.458.576-.348.372-.522.924-.522 1.656V394h-2.322v-9h2.322v1.008c.552-.84 1.446-1.26 2.682-1.26zm9.417 9.504c-1.356 0-2.49-.456-3.402-1.368-.9-.912-1.35-2.04-1.35-3.384 0-1.344.45-2.472 1.35-3.384.912-.912 2.046-1.368 3.402-1.368.876 0 1.674.21 2.394.63.72.42 1.266.984 1.638 1.692l-1.998 1.17a2.023 2.023 0 00-.828-.882 2.332 2.332 0 00-1.224-.324c-.696 0-1.272.234-1.728.702-.456.456-.684 1.044-.684 1.764 0 .696.228 1.284.684 1.764.456.456 1.032.684 1.728.684.468 0 .882-.102 1.242-.306.372-.216.648-.51.828-.882l2.016 1.152c-.396.72-.96 1.29-1.692 1.71a4.63 4.63 0 01-2.376.63zm13.651-3.798h-6.786c.3 1.128 1.146 1.692 2.538 1.692.888 0 1.56-.3 2.016-.9l1.872 1.08c-.888 1.284-2.196 1.926-3.924 1.926-1.488 0-2.682-.45-3.582-1.35-.9-.9-1.35-2.034-1.35-3.402 0-1.344.444-2.472 1.332-3.384.876-.912 2.016-1.368 3.42-1.368 1.332 0 2.418.456 3.258 1.368.864.912 1.296 2.04 1.296 3.384 0 .252-.03.57-.09.954zm-6.822-1.8h4.59c-.132-.588-.402-1.038-.81-1.35-.396-.312-.87-.468-1.422-.468-.624 0-1.14.162-1.548.486-.408.312-.678.756-.81 1.332zm-91.955 21.408V409h2.322v9h-2.322v-1.062c-.696.876-1.674 1.314-2.934 1.314-1.2 0-2.232-.456-3.096-1.368-.852-.924-1.278-2.052-1.278-3.384 0-1.32.426-2.442 1.278-3.366.864-.924 1.896-1.386 3.096-1.386 1.26 0 2.238.438 2.934 1.314zm-4.284 5.274c.468.468 1.062.702 1.782.702s1.314-.234 1.782-.702c.48-.48.72-1.092.72-1.836s-.24-1.35-.72-1.818c-.468-.48-1.062-.72-1.782-.72s-1.314.24-1.782.72c-.468.468-.702 1.074-.702 1.818s.234 1.356.702 1.836zm13.463-6.588c.996 0 1.806.33 2.43.99.648.672.972 1.584.972 2.736V418h-2.322v-5.238c0-.588-.162-1.044-.486-1.368-.312-.324-.744-.486-1.296-.486-.612 0-1.098.192-1.458.576-.348.372-.522.924-.522 1.656V418H38.31v-9h2.322v1.008c.552-.84 1.446-1.26 2.682-1.26zm11.955 1.314V405.4h2.322V418h-2.322v-1.062c-.684.876-1.656 1.314-2.916 1.314-1.212 0-2.25-.456-3.114-1.368-.852-.924-1.278-2.052-1.278-3.384 0-1.32.426-2.442 1.278-3.366.864-.924 1.902-1.386 3.114-1.386 1.26 0 2.232.438 2.916 1.314zm-4.284 5.274c.492.468 1.092.702 1.8.702.72 0 1.314-.234 1.782-.702.468-.48.702-1.092.702-1.836s-.234-1.35-.702-1.818c-.468-.48-1.062-.72-1.782-.72s-1.32.24-1.8.72c-.468.468-.702 1.074-.702 1.818s.234 1.356.702 1.836zm14.868-3.78c0 .384.546.714 1.638.99a7.22 7.22 0 011.043.306c.313.108.624.27.936.486a2.1 2.1 0 01.757.828c.18.348.27.75.27 1.206 0 .924-.349 1.638-1.044 2.142-.697.492-1.555.738-2.575.738-1.847 0-3.108-.714-3.78-2.142l2.017-1.134c.276.78.864 1.17 1.764 1.17.828 0 1.242-.258 1.242-.774 0-.384-.546-.714-1.638-.99a11.136 11.136 0 01-1.044-.324 5.66 5.66 0 01-.936-.468 2.267 2.267 0 01-.775-.81 2.584 2.584 0 01-.252-1.17c0-.888.325-1.584.972-2.088.66-.516 1.477-.774 2.449-.774.731 0 1.397.168 1.997.504a3.55 3.55 0 011.422 1.404l-1.98 1.08c-.287-.612-.767-.918-1.44-.918-.3 0-.552.072-.755.216a.607.607 0 00-.288.522zm14.51 2.898h-6.786c.3 1.128 1.146 1.692 2.538 1.692.888 0 1.56-.3 2.016-.9l1.872 1.08c-.888 1.284-2.196 1.926-3.924 1.926-1.488 0-2.682-.45-3.582-1.35-.9-.9-1.35-2.034-1.35-3.402 0-1.344.444-2.472 1.332-3.384.876-.912 2.016-1.368 3.42-1.368 1.332 0 2.418.456 3.258 1.368.864.912 1.296 2.04 1.296 3.384 0 .252-.03.57-.09.954zm-6.822-1.8h4.59c-.132-.588-.402-1.038-.81-1.35-.396-.312-.87-.468-1.422-.468-.624 0-1.14.162-1.548.486-.408.312-.678.756-.81 1.332zm12.494 5.598c-1.356 0-2.49-.456-3.402-1.368-.9-.912-1.35-2.04-1.35-3.384 0-1.344.45-2.472 1.35-3.384.912-.912 2.046-1.368 3.402-1.368.876 0 1.674.21 2.394.63.72.42 1.266.984 1.638 1.692l-1.998 1.17a2.023 2.023 0 00-.828-.882 2.332 2.332 0 00-1.224-.324c-.696 0-1.272.234-1.728.702-.456.456-.684 1.044-.684 1.764 0 .696.228 1.284.684 1.764.456.456 1.032.684 1.728.684.468 0 .882-.102 1.242-.306.372-.216.648-.51.828-.882l2.016 1.152c-.396.72-.96 1.29-1.692 1.71a4.63 4.63 0 01-2.376.63zm11.055-4.392V409h2.322v9H97.09v-1.008c-.552.84-1.446 1.26-2.682 1.26-.984 0-1.8-.33-2.448-.99-.636-.672-.954-1.584-.954-2.736V409h2.322v5.238c0 .588.156 1.044.468 1.368.324.324.762.486 1.314.486.612 0 1.092-.186 1.44-.558.36-.384.54-.942.54-1.674zm6.518-4.86v1.548c.204-.564.552-.99 1.044-1.278.492-.3 1.056-.45 1.692-.45v2.592c-.708-.096-1.344.048-1.908.432-.552.372-.828.99-.828 1.854V418h-2.322v-9h2.322zm4.995-1.08a1.411 1.411 0 01-1.422-1.422c0-.384.138-.72.414-1.008a1.382 1.382 0 011.008-.432c.396 0 .732.144 1.008.432.288.288.432.624.432 1.008s-.144.72-.432 1.008a1.372 1.372 0 01-1.008.414zm1.17 10.08h-2.322v-9h2.322v9zm7.021-9v2.232h-2.034v3.744c0 .312.078.54.234.684.156.144.384.228.684.252.3.012.672.006 1.116-.018V418c-1.572.18-2.694.036-3.366-.432-.66-.48-.99-1.344-.99-2.592v-3.744h-1.566V409h1.566v-1.818l2.322-.702V409h2.034zm5.448 6.048L124.24 409h2.484l-3.276 9c-.468 1.296-1.092 2.232-1.872 2.808-.768.588-1.728.852-2.88.792v-2.16c.612.012 1.104-.12 1.476-.396.372-.276.666-.72.882-1.332l-3.69-8.712h2.538l2.34 6.048z" fill="#342559"/><rect x=".5" y="261.5" width="152" height="203" rx="7.5" stroke="#E9E8F9"/><rect x="161.5" y="261.5" width="152" height="203" rx="7.5" fill="#fff"/><path fill-rule="evenodd" clip-rule="evenodd" d="M228.697 299.269a4.883 4.883 0 11-9.766 0 4.883 4.883 0 019.766 0zm5.005 10.62l3.418 14.526c0 .051.021.122.045.206.035.118.077.261.077.404a2.45 2.45 0 01-2.442 2.442c-1.098 0-2.075-.855-2.319-1.831l-2.563-10.62v31.859a2.442 2.442 0 11-4.883 0v-19.53h-2.441v19.53a2.442 2.442 0 11-4.883 0v-31.737l-2.563 10.62c-.244.976-1.221 1.831-2.32 1.831a2.449 2.449 0 01-2.441-2.441c0-.143.042-.286.077-.405.024-.084.045-.155.045-.206l3.418-14.526c.122-.488.366-.976.732-1.342 1.465-1.221 3.174-2.198 5.127-2.686 1.343-.366 2.686-.61 4.028-.61 1.343 0 2.686.244 4.029.488 1.953.61 3.662 1.465 5.126 2.685.367.367.611.855.733 1.343z" fill="#EAE8FF"/><path d="M234.733 323.028h.5v-.058l-.014-.056-.486.114zm-3.418-14.526l.487-.114-.002-.007-.485.121zm3.463 14.732l.48-.14-.48.14zm-4.684 1.015l-.486.117.001.004.485-.121zm-2.563-10.62l.486-.117-.986.117h.5zm-4.883 12.329h.5v-.5h-.5v.5zm-2.441 0v-.5h-.5v.5h.5zm-4.883-12.207h.5l-.986-.117.486.117zm-2.563 10.62l.485.121.001-.004-.486-.117zm-4.684-1.015l.479.141-.479-.141zm.045-.206l-.487-.114-.013.056v.058h.5zm3.418-14.525l-.485-.122-.002.007.487.115zm.732-1.343l-.32-.384-.017.014-.016.016.353.354zm5.127-2.686l.121.485.011-.002-.132-.483zm8.057-.122l.149-.477-.03-.009-.03-.006-.089.492zm5.126 2.686l.354-.354-.016-.016-.018-.014-.32.384zm-9.155-4.895a5.383 5.383 0 005.383-5.382h-1a4.382 4.382 0 01-4.383 4.382v1zm-5.382-5.382a5.383 5.383 0 005.382 5.382v-1a4.382 4.382 0 01-4.382-4.382h-1zm5.382-5.383a5.383 5.383 0 00-5.382 5.383h1a4.382 4.382 0 014.382-4.383v-1zm5.383 5.383a5.383 5.383 0 00-5.383-5.383v1a4.383 4.383 0 014.383 4.383h1zm8.409 26.031l-3.417-14.526-.974.229 3.418 14.526.973-.229zm.039.18a1.519 1.519 0 00-.016-.055l-.01-.037-.002-.009a.14.14 0 01.003.035h-1c0 .086.016.162.027.207.012.05.027.101.038.14l.96-.281zm.097.545c0-.227-.066-.438-.097-.545l-.96.281c.018.061.032.11.043.158.01.047.014.081.014.106h1zm-2.942 2.941a2.949 2.949 0 002.942-2.941h-1a1.949 1.949 0 01-1.942 1.941v1zm-2.804-2.21c.296 1.182 1.459 2.21 2.804 2.21v-1c-.851 0-1.641-.681-1.834-1.452l-.97.242zm-2.564-10.623l2.563 10.619.972-.234-2.563-10.62-.972.235zm.986 31.742v-31.86h-1v31.86h1zm-2.942 2.941a2.942 2.942 0 002.942-2.941h-1a1.941 1.941 0 01-1.942 1.941v1zm-2.941-2.941a2.941 2.941 0 002.941 2.941v-1a1.941 1.941 0 01-1.941-1.941h-1zm0-19.531v19.531h1v-19.531h-1zm-1.941.5h2.441v-1h-2.441v1zm.5 19.031v-19.531h-1v19.531h1zm-2.942 2.941a2.942 2.942 0 002.942-2.941h-1a1.941 1.941 0 01-1.942 1.941v1zm-2.941-2.941a2.941 2.941 0 002.941 2.941v-1a1.941 1.941 0 01-1.941-1.941h-1zm0-31.738v31.738h1v-31.738h-1zm-1.577 10.737l2.563-10.619-.972-.235-2.563 10.62.972.234zm-2.806 2.214c1.346 0 2.509-1.028 2.805-2.21l-.97-.242c-.193.771-.983 1.452-1.835 1.452v1zm-2.941-2.941a2.948 2.948 0 002.941 2.941v-1a1.949 1.949 0 01-1.941-1.941h-1zm.097-.545c-.032.107-.097.318-.097.545h1c0-.024.004-.059.014-.106a2.02 2.02 0 01.042-.158l-.959-.281zm.025-.066c0-.02.002-.033.002-.034l-.002.009a14565952133.806 14565952133.806 0 00-.025.091l.959.281c.012-.039.027-.09.039-.14a.881.881 0 00.027-.207h-1zm3.431-14.64l-3.418 14.526.974.229 3.418-14.526-.974-.229zm.866-1.582c-.442.442-.725 1.017-.864 1.575l.97.243c.105-.418.311-.82.601-1.111l-.707-.707zm5.359-2.817c-2.04.51-3.815 1.528-5.326 2.787l.64.768c1.419-1.183 3.062-2.118 4.928-2.585l-.242-.97zm4.149-.625c-1.402 0-2.791.255-4.159.628l.263.965c1.317-.36 2.613-.593 3.896-.593v-1zm4.118.496c-1.335-.242-2.722-.496-4.118-.496v1c1.29 0 2.588.235 3.939.48l.179-.984zm5.357 2.794c-1.525-1.272-3.296-2.154-5.297-2.779l-.299.954c1.905.596 3.552 1.423 4.956 2.593l.64-.768zm.898 1.605c-.14-.558-.422-1.133-.864-1.575l-.707.707c.29.291.496.693.601 1.111l.97-.243z" fill="#211541"/><path fill-rule="evenodd" clip-rule="evenodd" d="M257.697 299.269a4.883 4.883 0 11-9.766 0 4.883 4.883 0 019.766 0zm5.005 10.62l3.418 14.526c0 .051.021.122.045.206.035.118.077.261.077.404a2.45 2.45 0 01-2.442 2.442c-1.098 0-2.075-.855-2.319-1.831l-2.563-10.62v31.859a2.442 2.442 0 11-4.883 0v-19.53h-2.441v19.53a2.442 2.442 0 11-4.883 0v-31.737l-2.563 10.62c-.244.976-1.221 1.831-2.32 1.831a2.449 2.449 0 01-2.441-2.441c0-.143.042-.286.077-.405.024-.084.045-.155.045-.206l3.418-14.526c.122-.488.366-.976.732-1.342 1.465-1.221 3.174-2.198 5.127-2.686 1.343-.366 2.686-.61 4.028-.61 1.343 0 2.686.244 4.029.488 1.953.61 3.662 1.465 5.126 2.685.367.367.611.855.733 1.343z" fill="#EAE8FF"/><path d="M263.733 323.028h.5v-.058l-.014-.056-.486.114zm-3.418-14.526l.487-.114-.002-.007-.485.121zm3.463 14.732l.48-.14-.48.14zm-4.684 1.015l-.486.117.001.004.485-.121zm-2.563-10.62l.486-.117-.986.117h.5zm-4.883 12.329h.5v-.5h-.5v.5zm-2.441 0v-.5h-.5v.5h.5zm-4.883-12.207h.5l-.986-.117.486.117zm-2.563 10.62l.485.121.001-.004-.486-.117zm-4.684-1.015l.479.141-.479-.141zm.045-.206l-.487-.114-.013.056v.058h.5zm3.418-14.525l-.485-.122-.002.007.487.115zm.732-1.343l-.32-.384-.017.014-.016.016.353.354zm5.127-2.686l.121.485.011-.002-.132-.483zm8.057-.122l.149-.477-.03-.009-.03-.006-.089.492zm5.126 2.686l.354-.354-.016-.016-.018-.014-.32.384zm-9.155-4.895a5.383 5.383 0 005.383-5.382h-1a4.382 4.382 0 01-4.383 4.382v1zm-5.382-5.382a5.383 5.383 0 005.382 5.382v-1a4.382 4.382 0 01-4.382-4.382h-1zm5.382-5.383a5.383 5.383 0 00-5.382 5.383h1a4.382 4.382 0 014.382-4.383v-1zm5.383 5.383a5.383 5.383 0 00-5.383-5.383v1a4.383 4.383 0 014.383 4.383h1zm8.409 26.031l-3.417-14.526-.974.229 3.418 14.526.973-.229zm.039.18a1.519 1.519 0 00-.016-.055l-.01-.037-.002-.009a.14.14 0 01.003.035h-1c0 .086.016.162.027.207.012.05.027.101.038.14l.96-.281zm.097.545c0-.227-.066-.438-.097-.545l-.96.281c.018.061.032.11.043.158.01.047.014.081.014.106h1zm-2.942 2.941a2.949 2.949 0 002.942-2.941h-1a1.949 1.949 0 01-1.942 1.941v1zm-2.804-2.21c.296 1.182 1.459 2.21 2.804 2.21v-1c-.851 0-1.641-.681-1.834-1.452l-.97.242zm-2.564-10.623l2.563 10.619.972-.234-2.563-10.62-.972.235zm.986 31.742v-31.86h-1v31.86h1zm-2.942 2.941a2.942 2.942 0 002.942-2.941h-1a1.941 1.941 0 01-1.942 1.941v1zm-2.941-2.941a2.941 2.941 0 002.941 2.941v-1a1.941 1.941 0 01-1.941-1.941h-1zm0-19.531v19.531h1v-19.531h-1zm-1.941.5h2.441v-1h-2.441v1zm.5 19.031v-19.531h-1v19.531h1zm-2.942 2.941a2.942 2.942 0 002.942-2.941h-1a1.941 1.941 0 01-1.942 1.941v1zm-2.941-2.941a2.941 2.941 0 002.941 2.941v-1a1.941 1.941 0 01-1.941-1.941h-1zm0-31.738v31.738h1v-31.738h-1zm-1.577 10.737l2.563-10.619-.972-.235-2.563 10.62.972.234zm-2.806 2.214c1.346 0 2.509-1.028 2.805-2.21l-.97-.242c-.193.771-.983 1.452-1.835 1.452v1zm-2.941-2.941a2.948 2.948 0 002.941 2.941v-1a1.949 1.949 0 01-1.941-1.941h-1zm.097-.545c-.032.107-.097.318-.097.545h1c0-.024.004-.059.014-.106a2.02 2.02 0 01.042-.158l-.959-.281zm.025-.066c0-.02.002-.033.002-.034l-.002.009a14565952133.806 14565952133.806 0 00-.025.091l.959.281c.012-.039.027-.09.039-.14a.881.881 0 00.027-.207h-1zm3.431-14.64l-3.418 14.526.974.229 3.418-14.526-.974-.229zm.866-1.582c-.442.442-.725 1.017-.864 1.575l.97.243c.105-.418.311-.82.601-1.111l-.707-.707zm5.359-2.817c-2.04.51-3.815 1.528-5.326 2.787l.64.768c1.419-1.183 3.062-2.118 4.928-2.585l-.242-.97zm4.149-.625c-1.402 0-2.791.255-4.159.628l.263.965c1.317-.36 2.613-.593 3.896-.593v-1zm4.118.496c-1.335-.242-2.722-.496-4.118-.496v1c1.29 0 2.588.235 3.939.48l.179-.984zm5.357 2.794c-1.525-1.272-3.296-2.154-5.297-2.779l-.299.954c1.905.596 3.552 1.423 4.956 2.593l.64-.768zm.898 1.605c-.14-.558-.422-1.133-.864-1.575l-.707.707c.29.291.496.693.601 1.111l.97-.243z" fill="#211541"/><path d="M229.859 374.404V369.4h2.466V382h-2.466v-5.22h-4.68V382h-2.484v-12.6h2.484v5.004h4.68zm5.598-2.484a1.411 1.411 0 01-1.422-1.422c0-.384.138-.72.414-1.008a1.382 1.382 0 011.008-.432c.396 0 .732.144 1.008.432.288.288.432.624.432 1.008s-.144.72-.432 1.008a1.372 1.372 0 01-1.008.414zm1.17 10.08h-2.322v-9h2.322v9zm4.195-9v1.548c.204-.564.552-.99 1.044-1.278.492-.3 1.056-.45 1.692-.45v2.592c-.708-.096-1.344.048-1.908.432-.552.372-.828.99-.828 1.854V382H238.5v-9h2.322zm12.257 5.454h-6.786c.3 1.128 1.146 1.692 2.538 1.692.888 0 1.56-.3 2.016-.9l1.872 1.08c-.888 1.284-2.196 1.926-3.924 1.926-1.488 0-2.682-.45-3.582-1.35-.9-.9-1.35-2.034-1.35-3.402 0-1.344.444-2.472 1.332-3.384.876-.912 2.016-1.368 3.42-1.368 1.332 0 2.418.456 3.258 1.368.864.912 1.296 2.04 1.296 3.384 0 .252-.03.57-.09.954zm-6.822-1.8h4.59c-.132-.588-.402-1.038-.81-1.35-.396-.312-.87-.468-1.422-.468-.624 0-1.14.162-1.548.486-.408.312-.678.756-.81 1.332zm-42.842 25.8h-6.786c.3 1.128 1.146 1.692 2.538 1.692.888 0 1.56-.3 2.016-.9l1.872 1.08c-.888 1.284-2.196 1.926-3.924 1.926-1.488 0-2.682-.45-3.582-1.35-.9-.9-1.35-2.034-1.35-3.402 0-1.344.444-2.472 1.332-3.384.876-.912 2.016-1.368 3.42-1.368 1.332 0 2.418.456 3.258 1.368.864.912 1.296 2.04 1.296 3.384 0 .252-.03.57-.09.954zm-6.822-1.8h4.59c-.132-.588-.402-1.038-.81-1.35-.396-.312-.87-.468-1.422-.468-.624 0-1.14.162-1.548.486-.408.312-.678.756-.81 1.332zm18.235-3.906c1.032 0 1.854.336 2.466 1.008.624.672.936 1.572.936 2.7V406h-2.322v-5.382c0-.54-.132-.96-.396-1.26-.264-.3-.636-.45-1.116-.45-.528 0-.942.174-1.242.522-.288.348-.432.852-.432 1.512V406H210.4v-5.382c0-.54-.132-.96-.396-1.26-.264-.3-.636-.45-1.116-.45-.516 0-.93.18-1.242.54-.3.348-.45.846-.45 1.494V406h-2.322v-9h2.322v.954c.54-.804 1.374-1.206 2.502-1.206 1.116 0 1.932.432 2.448 1.296.588-.864 1.482-1.296 2.682-1.296zm10.36 0c1.212 0 2.244.462 3.096 1.386.864.924 1.296 2.046 1.296 3.366 0 1.344-.432 2.472-1.296 3.384-.84.912-1.872 1.368-3.096 1.368-1.26 0-2.232-.438-2.916-1.314v4.662h-2.322V397h2.322v1.062c.684-.876 1.656-1.314 2.916-1.314zm-2.214 6.588c.468.468 1.062.702 1.782.702s1.314-.234 1.782-.702c.48-.48.72-1.092.72-1.836s-.24-1.35-.72-1.818c-.468-.48-1.062-.72-1.782-.72s-1.314.24-1.782.72c-.468.468-.702 1.074-.702 1.818s.234 1.356.702 1.836zM233.287 406h-2.322v-13.14h2.322V406zm9.542-1.116c-.912.912-2.04 1.368-3.384 1.368-1.344 0-2.472-.456-3.384-1.368-.912-.912-1.368-2.04-1.368-3.384 0-1.332.456-2.454 1.368-3.366.924-.924 2.052-1.386 3.384-1.386 1.332 0 2.46.462 3.384 1.386.924.924 1.386 2.046 1.386 3.366 0 1.332-.462 2.46-1.386 3.384zm-5.13-1.602c.468.468 1.05.702 1.746.702s1.278-.234 1.746-.702c.468-.468.702-1.062.702-1.782s-.234-1.314-.702-1.782c-.468-.468-1.05-.702-1.746-.702s-1.278.234-1.746.702c-.456.48-.684 1.074-.684 1.782s.228 1.302.684 1.782zm11.416-.234l1.998-6.048h2.484l-3.276 9c-.468 1.296-1.092 2.232-1.872 2.808-.768.588-1.728.852-2.88.792v-2.16c.612.012 1.104-.12 1.476-.396.372-.276.666-.72.882-1.332l-3.69-8.712h2.538l2.34 6.048zm13.731-.594h-6.786c.3 1.128 1.146 1.692 2.538 1.692.888 0 1.56-.3 2.016-.9l1.872 1.08c-.888 1.284-2.196 1.926-3.924 1.926-1.488 0-2.682-.45-3.582-1.35-.9-.9-1.35-2.034-1.35-3.402 0-1.344.444-2.472 1.332-3.384.876-.912 2.016-1.368 3.42-1.368 1.332 0 2.418.456 3.258 1.368.864.912 1.296 2.04 1.296 3.384 0 .252-.03.57-.09.954zm-6.822-1.8h4.59c-.132-.588-.402-1.038-.81-1.35-.396-.312-.87-.468-1.422-.468-.624 0-1.14.162-1.548.486-.408.312-.678.756-.81 1.332zm16.959 1.8h-6.786c.3 1.128 1.146 1.692 2.538 1.692.888 0 1.56-.3 2.016-.9l1.872 1.08c-.888 1.284-2.196 1.926-3.924 1.926-1.488 0-2.682-.45-3.582-1.35-.9-.9-1.35-2.034-1.35-3.402 0-1.344.444-2.472 1.332-3.384.876-.912 2.016-1.368 3.42-1.368 1.332 0 2.418.456 3.258 1.368.864.912 1.296 2.04 1.296 3.384 0 .252-.03.57-.09.954zm-6.822-1.8h4.59c-.132-.588-.402-1.038-.81-1.35-.396-.312-.87-.468-1.422-.468-.624 0-1.14.162-1.548.486-.408.312-.678.756-.81 1.332zm10.071-1.098c0 .384.546.714 1.638.99.384.084.732.186 1.044.306.312.108.624.27.936.486.324.204.576.48.756.828.18.348.27.75.27 1.206 0 .924-.348 1.638-1.044 2.142-.696.492-1.554.738-2.574.738-1.848 0-3.108-.714-3.78-2.142l2.016-1.134c.276.78.864 1.17 1.764 1.17.828 0 1.242-.258 1.242-.774 0-.384-.546-.714-1.638-.99a11.136 11.136 0 01-1.044-.324 5.66 5.66 0 01-.936-.468 2.267 2.267 0 01-.774-.81 2.584 2.584 0 01-.252-1.17c0-.888.324-1.584.972-2.088.66-.516 1.476-.774 2.448-.774.732 0 1.398.168 1.998.504.6.324 1.074.792 1.422 1.404l-1.98 1.08c-.288-.612-.768-.918-1.44-.918-.3 0-.552.072-.756.216a.607.607 0 00-.288.522z" fill="#342559"/><rect x="161.5" y="261.5" width="152" height="203" rx="7.5" stroke="#E9E8F9"/><rect x="322.5" y="261.5" width="152" height="203" rx="7.5" fill="#fff"/><rect x="373.75" y="316" width="56" height="41" rx="4" fill="#EAE8FF"/><rect x="371.25" y="313.5" width="55" height="40" rx="3.5" stroke="#211541"/><circle cx="376.25" cy="318.5" r="1.5" fill="#211541"/><circle cx="381.25" cy="318.5" r="1.5" fill="#211541"/><circle cx="386.25" cy="318.5" r="1.5" fill="#211541"/><mask id="path-80-inside-1_991_12810" fill="#fff"><path d="M410.75 335a12.004 12.004 0 00-8.592-11.506 11.996 11.996 0 00-13.472 4.97 12 12 0 0014.945 17.499L398.75 335h12z"/></mask><path d="M410.75 335a12.004 12.004 0 00-8.592-11.506 11.996 11.996 0 00-13.472 4.97 12 12 0 0014.945 17.499L398.75 335h12z" stroke="#211541" stroke-width="2" mask="url(#path-80-inside-1_991_12810)"/><path d="M406.967 347.807a12 12 0 006.783-10.72l-12-.087 5.217 10.807z" fill="#211541"/><path d="M380.929 381.4h2.556V394h-2.466v-8.172l-3.546 5.85h-.288l-3.546-5.832V394h-2.484v-12.6h2.556l3.618 5.958 3.6-5.958zm11.384 4.662V385h2.322v9h-2.322v-1.062c-.696.876-1.674 1.314-2.934 1.314-1.2 0-2.232-.456-3.096-1.368-.852-.924-1.278-2.052-1.278-3.384 0-1.32.426-2.442 1.278-3.366.864-.924 1.896-1.386 3.096-1.386 1.26 0 2.238.438 2.934 1.314zm-4.284 5.274c.468.468 1.062.702 1.782.702s1.314-.234 1.782-.702c.48-.48.72-1.092.72-1.836s-.24-1.35-.72-1.818c-.468-.48-1.062-.72-1.782-.72s-1.314.24-1.782.72c-.468.468-.702 1.074-.702 1.818s.234 1.356.702 1.836zM398.811 385v1.548c.204-.564.552-.99 1.044-1.278.492-.3 1.056-.45 1.692-.45v2.592c-.708-.096-1.344.048-1.908.432-.552.372-.828.99-.828 1.854V394h-2.322v-9h2.322zm8.414 4.446l3.726 4.554h-2.7l-3.276-4.086V394h-2.322v-12.6h2.322v7.56l3.096-3.96h2.772l-3.618 4.446zm12.73 1.008h-6.786c.3 1.128 1.146 1.692 2.538 1.692.888 0 1.56-.3 2.016-.9l1.872 1.08c-.888 1.284-2.196 1.926-3.924 1.926-1.488 0-2.682-.45-3.582-1.35-.9-.9-1.35-2.034-1.35-3.402 0-1.344.444-2.472 1.332-3.384.876-.912 2.016-1.368 3.42-1.368 1.332 0 2.418.456 3.258 1.368.864.912 1.296 2.04 1.296 3.384 0 .252-.03.57-.09.954zm-6.822-1.8h4.59c-.132-.588-.402-1.038-.81-1.35-.396-.312-.87-.468-1.422-.468-.624 0-1.14.162-1.548.486-.408.312-.678.756-.81 1.332zM426.299 385v2.232h-2.034v3.744c0 .312.078.54.234.684.156.144.384.228.684.252.3.012.672.006 1.116-.018V394c-1.572.18-2.694.036-3.366-.432-.66-.48-.99-1.344-.99-2.592v-3.744h-1.566V385h1.566v-1.818l2.322-.702V385h2.034z" fill="#342559"/><rect x="322.5" y="261.5" width="152" height="203" rx="7.5" stroke="#E9E8F9"/><rect x="483.5" y="261.5" width="152" height="203" rx="7.5" fill="#fff"/><path d="M578.721 335.948l-5.265 5.265 1.174 1.173 5.265-5.265-1.174-1.173zm-6.435 6.433l-1.173 1.174 1.173 1.173 1.173-1.173-1.173-1.174zm-11.183-35.264l-5.265 5.265 1.174 1.173 5.265-5.265-1.174-1.173zm-6.436 6.432l-1.173 1.174 1.173 1.173 1.174-1.173-1.174-1.174z" fill="#211541"/><path d="M588.305 309.768c-.177-.011-.365-.033-.564-.044-3.939-.321-12.126-1.007-19.096 5.974l-8.507 8.508-12.679 2.766-10.378 10.377 9.061 2.345 1.848 1.848-5.808 8.43 2.754 2.755-1.582 1.582 1.173 1.173 1.582-1.582 3.031 3.031 8.176-6.074 1.837 1.837 2.345 9.061 10.378-10.378 2.766-12.678 8.507-8.508c6.97-6.97 6.296-15.157 5.975-19.096-.011-.199-.034-.387-.045-.564l-.055-.708-.719-.055zm-38.999 44.973l-2.024-2.025 2.732-2.733-1.172-1.172-2.733 2.732-1.781-1.781 4.857-7.036 6.948 6.948-6.827 5.067zm-8.994-18.277l7.988-7.988 9.68-2.113-11.661 11.65-6.007-1.549zm21.518 12.679l-1.936 1.947-12.148-12.159 1.937-1.936 12.147 12.148zm8.53 1.405l-7.977 7.976-1.549-6.018 11.65-11.65-2.124 9.692zm-7.346-2.578l-12.159-12.148 18.377-18.376 5.487 5.487-3.994 3.994a5.29 5.29 0 00-6.848.542 5.3 5.3 0 00-.542 6.849l-3.463 3.462 1.173 1.173 3.463-3.463a5.3 5.3 0 006.848-.542 5.3 5.3 0 00.542-6.848l3.994-3.994 5.487 5.488-18.365 18.376zm7.169-19.317a3.633 3.633 0 010 5.134 3.632 3.632 0 01-5.133 0 3.633 3.633 0 010-5.134 3.632 3.632 0 015.133 0zm16.783-8.353c-.675 2.644-1.98 5.466-4.425 8.11l-12.126-12.126c2.645-2.434 5.466-3.75 8.11-4.425l8.441 8.441zm.399-1.947l-6.893-6.881c2.81-.432 5.299-.244 6.992-.1.144 1.693.332 4.182-.099 6.981z" fill="#EAE8FF"/><path d="M586.966 320.3c-.675 2.644-1.98 5.466-4.425 8.11l-12.126-12.126c2.645-2.434 5.466-3.75 8.11-4.425l8.441 8.441zm.399-1.947l-6.893-6.881c2.81-.432 5.299-.244 6.992-.1.144 1.693.332 4.182-.099 6.981zm-24.351 29.617l-12.159-12.148 18.377-18.376 5.487 5.487-3.994 3.994a5.29 5.29 0 00-6.848.542 5.3 5.3 0 00-.542 6.849l-3.463 3.462 1.173 1.173 3.463-3.463a5.3 5.3 0 006.848-.542 5.3 5.3 0 00.542-6.848l3.994-3.994 5.487 5.488-18.365 18.376z" fill="#EAE8FF"/><path d="M570.183 328.653a3.633 3.633 0 010 5.134 3.632 3.632 0 01-5.133 0 3.633 3.633 0 010-5.134 3.632 3.632 0 015.133 0zm.177 21.895l-7.977 7.976-1.549-6.018 11.65-11.65-2.124 9.692zm-8.53-1.405l-1.936 1.947-12.148-12.159 1.937-1.936 12.147 12.148zm-21.518-12.679l7.988-7.988 9.68-2.113-11.661 11.65-6.007-1.549zm8.994 18.277l-2.024-2.025 2.732-2.733-1.172-1.172-2.733 2.732-1.781-1.781 4.857-7.036 6.948 6.948-6.827 5.067z" fill="#EAE8FF"/><path d="M585.65 306.228c-.177-.011-.365-.033-.564-.044-3.939-.321-12.126-1.007-19.096 5.974l-8.508 8.508-12.678 2.765-10.378 10.378 9.061 2.345 1.848 1.848-5.809 8.43 2.755 2.755-1.582 1.582 1.173 1.173 1.582-1.582 3.031 3.031 8.176-6.074 1.837 1.837 2.345 9.061 10.378-10.378 2.765-12.678 8.508-8.508c6.97-6.97 6.295-15.157 5.974-19.096-.011-.199-.033-.387-.044-.564l-.055-.708-.719-.055zm-38.999 44.973l-2.024-2.025 2.732-2.733-1.172-1.172-2.733 2.732-1.781-1.781 4.856-7.036 6.948 6.948-6.826 5.067zm-8.994-18.277l7.987-7.988 9.681-2.113-11.661 11.65-6.007-1.549zm21.518 12.679l-1.936 1.947-12.148-12.159 1.936-1.936 12.148 12.148zm8.53 1.405l-7.977 7.976-1.549-6.018 11.65-11.65-2.124 9.692zm-7.346-2.578L548.2 332.282l18.376-18.376 5.488 5.487-3.994 3.994a5.29 5.29 0 00-6.848.542 5.3 5.3 0 00-.542 6.849l-3.463 3.462 1.172 1.173 3.463-3.463a5.302 5.302 0 006.849-.542 5.301 5.301 0 00.542-6.848l3.994-3.994 5.487 5.487-18.365 18.377zm7.169-19.317a3.633 3.633 0 010 5.134 3.633 3.633 0 01-5.134 0 3.633 3.633 0 010-5.134 3.633 3.633 0 015.134 0zm16.783-8.353c-.675 2.644-1.98 5.466-4.425 8.11l-12.126-12.126c2.644-2.434 5.466-3.75 8.11-4.425l8.441 8.441zm.398-1.947l-6.892-6.881c2.81-.432 5.299-.244 6.992-.1.144 1.693.332 4.182-.1 6.981zm-45.182 37.118l-1.173 1.173 1.173 1.174 1.174-1.174-1.174-1.173zm4.616 1.458l-3.302 3.301 1.174 1.174 3.301-3.301-1.173-1.174zm-4.471 4.471l-1.174 1.173 1.174 1.174 1.173-1.174-1.173-1.173zm-1.321-10.269l-3.302 3.302 1.174 1.173 3.301-3.301-1.173-1.174zm-4.476 4.487l-1.174 1.173 1.174 1.173 1.173-1.173-1.173-1.173z" fill="#211541"/><path d="M508.032 381.4v10.224h4.806V394h-7.29v-12.6h2.484zm12.522 4.662V385h2.322v9h-2.322v-1.062c-.696.876-1.674 1.314-2.934 1.314-1.2 0-2.232-.456-3.096-1.368-.852-.924-1.278-2.052-1.278-3.384 0-1.32.426-2.442 1.278-3.366.864-.924 1.896-1.386 3.096-1.386 1.26 0 2.238.438 2.934 1.314zm-4.284 5.274c.468.468 1.062.702 1.782.702s1.314-.234 1.782-.702c.48-.48.72-1.092.72-1.836s-.24-1.35-.72-1.818c-.468-.48-1.062-.72-1.782-.72s-1.314.24-1.782.72c-.468.468-.702 1.074-.702 1.818s.234 1.356.702 1.836zm14.399-1.476V385h2.322v9h-2.322v-1.008c-.552.84-1.446 1.26-2.682 1.26-.984 0-1.8-.33-2.448-.99-.636-.672-.954-1.584-.954-2.736V385h2.322v5.238c0 .588.156 1.044.468 1.368.324.324.762.486 1.314.486.612 0 1.092-.186 1.44-.558.36-.384.54-.942.54-1.674zm9.201-5.112c.996 0 1.806.33 2.43.99.648.672.972 1.584.972 2.736V394h-2.322v-5.238c0-.588-.162-1.044-.486-1.368-.312-.324-.744-.486-1.296-.486-.612 0-1.098.192-1.458.576-.348.372-.522.924-.522 1.656V394h-2.322v-9h2.322v1.008c.552-.84 1.446-1.26 2.682-1.26zm9.416 9.504c-1.356 0-2.49-.456-3.402-1.368-.9-.912-1.35-2.04-1.35-3.384 0-1.344.45-2.472 1.35-3.384.912-.912 2.046-1.368 3.402-1.368.876 0 1.674.21 2.394.63.72.42 1.266.984 1.638 1.692l-1.998 1.17a2.023 2.023 0 00-.828-.882 2.332 2.332 0 00-1.224-.324c-.696 0-1.272.234-1.728.702-.456.456-.684 1.044-.684 1.764 0 .696.228 1.284.684 1.764.456.456 1.032.684 1.728.684.468 0 .882-.102 1.242-.306.372-.216.648-.51.828-.882l2.016 1.152c-.396.72-.96 1.29-1.692 1.71a4.63 4.63 0 01-2.376.63zm10.049-9.504c.996 0 1.806.33 2.43.99.648.672.972 1.584.972 2.736V394h-2.322v-5.238c0-.588-.162-1.044-.486-1.368-.312-.324-.744-.486-1.296-.486-.612 0-1.098.192-1.458.576-.348.372-.522.924-.522 1.656V394h-2.322v-12.6h2.322v4.608c.552-.84 1.446-1.26 2.682-1.26zm12.89-5.148l-7.2 16.2h-1.026l7.2-16.2h1.026zm9.08 13.284c-.912.912-2.04 1.368-3.384 1.368-1.344 0-2.472-.456-3.384-1.368-.912-.912-1.368-2.04-1.368-3.384 0-1.332.456-2.454 1.368-3.366.924-.924 2.052-1.386 3.384-1.386 1.332 0 2.46.462 3.384 1.386.924.924 1.386 2.046 1.386 3.366 0 1.332-.462 2.46-1.386 3.384zm-5.13-1.602c.468.468 1.05.702 1.746.702s1.278-.234 1.746-.702c.468-.468.702-1.062.702-1.782s-.234-1.314-.702-1.782c-.468-.468-1.05-.702-1.746-.702s-1.278.234-1.746.702c-.456.48-.684 1.074-.684 1.782s.228 1.302.684 1.782zm13.136-6.534c1.212 0 2.244.462 3.096 1.386.864.924 1.296 2.046 1.296 3.366 0 1.344-.432 2.472-1.296 3.384-.84.912-1.872 1.368-3.096 1.368-1.26 0-2.232-.438-2.916-1.314v4.662h-2.322V385h2.322v1.062c.684-.876 1.656-1.314 2.916-1.314zm-2.214 6.588c.468.468 1.062.702 1.782.702s1.314-.234 1.782-.702c.48-.48.72-1.092.72-1.836s-.24-1.35-.72-1.818c-.468-.48-1.062-.72-1.782-.72s-1.314.24-1.782.72c-.468.468-.702 1.074-.702 1.818s.234 1.356.702 1.836zm16.739-.882h-6.786c.3 1.128 1.146 1.692 2.538 1.692.888 0 1.56-.3 2.016-.9l1.872 1.08c-.888 1.284-2.196 1.926-3.924 1.926-1.488 0-2.682-.45-3.582-1.35-.9-.9-1.35-2.034-1.35-3.402 0-1.344.444-2.472 1.332-3.384.876-.912 2.016-1.368 3.42-1.368 1.332 0 2.418.456 3.258 1.368.864.912 1.296 2.04 1.296 3.384 0 .252-.03.57-.09.954zm-6.822-1.8h4.59c-.132-.588-.402-1.038-.81-1.35-.396-.312-.87-.468-1.422-.468-.624 0-1.14.162-1.548.486-.408.312-.678.756-.81 1.332zm13.285-3.906c.996 0 1.806.33 2.43.99.648.672.972 1.584.972 2.736V394h-2.322v-5.238c0-.588-.162-1.044-.486-1.368-.312-.324-.744-.486-1.296-.486-.612 0-1.098.192-1.458.576-.348.372-.522.924-.522 1.656V394h-2.322v-9h2.322v1.008c.552-.84 1.446-1.26 2.682-1.26z" fill="#342559"/><rect x="483.5" y="261.5" width="152" height="203" rx="7.5" stroke="#E9E8F9"/><path d="M122.272 35.311a1.499 1.499 0 111.456-2.622l-1.456 2.622zm69.196-2.736a1.5 1.5 0 01.957 1.893l-4.21 12.826a1.5 1.5 0 11-2.85-.935l3.742-11.402-11.402-3.742a1.5 1.5 0 01.936-2.85l12.827 4.21zm-67.74.114c15.802 8.776 32.419 8.798 45.169 6.583a90.937 90.937 0 0015.52-4.15 73.866 73.866 0 004.385-1.756 44.752 44.752 0 001.503-.696l.016-.007.002-.002h.001L191 34c.677 1.339.676 1.339.676 1.34h-.003l-.007.004-.023.012-.086.042-.322.155c-.28.133-.691.323-1.222.558a76.855 76.855 0 01-4.565 1.829 93.934 93.934 0 01-16.038 4.288c-13.148 2.285-30.53 2.307-47.138-6.917l1.456-2.622z" fill="#fff"/><path d="M122.272 35.311a1.499 1.499 0 111.456-2.622l-1.456 2.622zm69.196-2.736a1.5 1.5 0 01.957 1.893l-4.21 12.826a1.5 1.5 0 11-2.85-.935l3.742-11.402-11.402-3.742a1.5 1.5 0 01.936-2.85l12.827 4.21zm-67.74.114c15.802 8.776 32.419 8.798 45.169 6.583a90.937 90.937 0 0015.52-4.15 73.866 73.866 0 004.385-1.756 44.752 44.752 0 001.503-.696l.016-.007.002-.002h.001L191 34c.677 1.339.676 1.339.676 1.34h-.003l-.007.004-.023.012-.086.042-.322.155c-.28.133-.691.323-1.222.558a76.855 76.855 0 01-4.565 1.829 93.934 93.934 0 01-16.038 4.288c-13.148 2.285-30.53 2.307-47.138-6.917l1.456-2.622z" fill="url(#paint0_linear_991_12810)"/><path d="M282.272 20.689a1.499 1.499 0 101.456 2.622l-1.456-2.622zm69.196 2.736a1.5 1.5 0 00.957-1.893l-4.21-12.826a1.5 1.5 0 10-2.85.935l3.742 11.402-11.402 3.742a1.5 1.5 0 00.936 2.85l12.827-4.21zm-67.74-.114c15.802-8.776 32.419-8.799 45.169-6.583a90.937 90.937 0 0115.52 4.15 73.866 73.866 0 014.385 1.756 44.752 44.752 0 011.503.696l.016.007.002.002h.001L351 22c.677-1.338.676-1.339.676-1.34h-.003l-.007-.004-.023-.012-.086-.042a48.611 48.611 0 00-1.544-.713 76.855 76.855 0 00-4.565-1.829 93.934 93.934 0 00-16.038-4.288c-13.148-2.284-30.53-2.307-47.138 6.917l1.456 2.622z" fill="#fff"/><path d="M282.272 20.689a1.499 1.499 0 101.456 2.622l-1.456-2.622zm69.196 2.736a1.5 1.5 0 00.957-1.893l-4.21-12.826a1.5 1.5 0 10-2.85.935l3.742 11.402-11.402 3.742a1.5 1.5 0 00.936 2.85l12.827-4.21zm-67.74-.114c15.802-8.776 32.419-8.799 45.169-6.583a90.937 90.937 0 0115.52 4.15 73.866 73.866 0 014.385 1.756 44.752 44.752 0 011.503.696l.016.007.002.002h.001L351 22c.677-1.338.676-1.339.676-1.34h-.003l-.007-.004-.023-.012-.086-.042a48.611 48.611 0 00-1.544-.713 76.855 76.855 0 00-4.565-1.829 93.934 93.934 0 00-16.038-4.288c-13.148-2.284-30.53-2.307-47.138 6.917l1.456 2.622z" fill="url(#paint1_linear_991_12810)"/><path d="M442.272 35.311a1.499 1.499 0 111.456-2.622l-1.456 2.622zm69.196-2.736a1.5 1.5 0 01.957 1.893l-4.21 12.826a1.5 1.5 0 11-2.85-.935l3.742-11.402-11.402-3.742a1.5 1.5 0 01.936-2.85l12.827 4.21zm-67.74.114c15.802 8.776 32.419 8.798 45.169 6.583a90.937 90.937 0 0015.52-4.15 73.866 73.866 0 004.385-1.756 44.752 44.752 0 001.503-.696l.016-.007.002-.002h.001L511 34c.677 1.339.676 1.339.676 1.34h-.003l-.007.004-.023.012-.086.042-.322.155c-.28.133-.691.323-1.222.558a76.855 76.855 0 01-4.565 1.829 93.934 93.934 0 01-16.038 4.288c-13.148 2.285-30.53 2.307-47.138-6.917l1.456-2.622z" fill="#fff"/><path d="M442.272 35.311a1.499 1.499 0 111.456-2.622l-1.456 2.622zm69.196-2.736a1.5 1.5 0 01.957 1.893l-4.21 12.826a1.5 1.5 0 11-2.85-.935l3.742-11.402-11.402-3.742a1.5 1.5 0 01.936-2.85l12.827 4.21zm-67.74.114c15.802 8.776 32.419 8.798 45.169 6.583a90.937 90.937 0 0015.52-4.15 73.866 73.866 0 004.385-1.756 44.752 44.752 0 001.503-.696l.016-.007.002-.002h.001L511 34c.677 1.339.676 1.339.676 1.34h-.003l-.007.004-.023.012-.086.042-.322.155c-.28.133-.691.323-1.222.558a76.855 76.855 0 01-4.565 1.829 93.934 93.934 0 01-16.038 4.288c-13.148 2.285-30.53 2.307-47.138-6.917l1.456-2.622z" fill="url(#paint2_linear_991_12810)"/><path d="M586.5 240.5l-.485-1.419.485 1.419zM62 228l.75 1.299L62 228zm-9.368 61.954a1.5 1.5 0 001.822-1.086l3.315-13.086a1.5 1.5 0 00-2.908-.737l-2.947 11.633-11.632-2.947a1.5 1.5 0 10-.737 2.908l13.087 3.315zM318 236l-.281 1.473.015.003.016.003L318 236zm295.877-45.007c3.687 4.163 5.565 8.568 5.933 12.962.369 4.4-.767 8.9-3.295 13.256-5.073 8.743-15.715 16.812-30.5 21.87l.971 2.838c15.215-5.205 26.573-13.636 32.124-23.203 2.785-4.798 4.118-9.906 3.69-15.012-.429-5.113-2.614-10.113-6.677-14.7l-2.246 1.989zM61.25 226.701c-12.4 7.165-18.479 16.817-19.521 27.811-1.033 10.893 2.9 22.868 9.982 34.756l2.578-1.536c-6.918-11.612-10.522-22.933-9.574-32.937.94-9.903 6.361-18.751 18.035-25.496l-1.5-2.598zm524.765 12.38c-3.734 1.277-13.444 3.151-28.261 4.855-14.763 1.698-34.48 3.216-58.15 3.819-47.34 1.204-110.462-1.252-181.354-13.234l-.5 2.958c71.108 12.018 134.426 14.484 181.93 13.275 23.753-.605 43.559-2.128 58.417-3.837 14.804-1.703 24.812-3.603 28.889-4.998l-.971-2.838zm-267.733-4.554c-61.507-11.751-114.342-20.268-157.451-22.587-43.058-2.316-76.684 1.532-99.581 14.761l1.5 2.598c22.103-12.771 54.977-16.673 97.919-14.363 42.891 2.307 95.556 10.789 157.05 22.537l.563-2.946z" fill="#fff"/><path d="M586.5 240.5l-.485-1.419.485 1.419zM62 228l.75 1.299L62 228zm-9.368 61.954a1.5 1.5 0 001.822-1.086l3.315-13.086a1.5 1.5 0 00-2.908-.737l-2.947 11.633-11.632-2.947a1.5 1.5 0 10-.737 2.908l13.087 3.315zM318 236l-.281 1.473.015.003.016.003L318 236zm295.877-45.007c3.687 4.163 5.565 8.568 5.933 12.962.369 4.4-.767 8.9-3.295 13.256-5.073 8.743-15.715 16.812-30.5 21.87l.971 2.838c15.215-5.205 26.573-13.636 32.124-23.203 2.785-4.798 4.118-9.906 3.69-15.012-.429-5.113-2.614-10.113-6.677-14.7l-2.246 1.989zM61.25 226.701c-12.4 7.165-18.479 16.817-19.521 27.811-1.033 10.893 2.9 22.868 9.982 34.756l2.578-1.536c-6.918-11.612-10.522-22.933-9.574-32.937.94-9.903 6.361-18.751 18.035-25.496l-1.5-2.598zm524.765 12.38c-3.734 1.277-13.444 3.151-28.261 4.855-14.763 1.698-34.48 3.216-58.15 3.819-47.34 1.204-110.462-1.252-181.354-13.234l-.5 2.958c71.108 12.018 134.426 14.484 181.93 13.275 23.753-.605 43.559-2.128 58.417-3.837 14.804-1.703 24.812-3.603 28.889-4.998l-.971-2.838zm-267.733-4.554c-61.507-11.751-114.342-20.268-157.451-22.587-43.058-2.316-76.684 1.532-99.581 14.761l1.5 2.598c22.103-12.771 54.977-16.673 97.919-14.363 42.891 2.307 95.556 10.789 157.05 22.537l.563-2.946z" fill="url(#paint3_linear_991_12810)"/><path d="M119.272 288.311a1.498 1.498 0 01-.583-2.039 1.498 1.498 0 012.039-.583l-1.456 2.622zm69.196-2.736a1.5 1.5 0 01.957 1.893l-4.21 12.827a1.5 1.5 0 01-2.85-.936l3.742-11.402-11.402-3.742a1.5 1.5 0 01.936-2.85l12.827 4.21zm-67.74.114c15.802 8.776 32.419 8.799 45.169 6.583a90.952 90.952 0 0015.52-4.149 74.19 74.19 0 004.385-1.757 49.173 49.173 0 001.434-.662l.069-.034.016-.007.002-.002h.001L188 287l.676 1.339-.003.001-.007.004a.406.406 0 01-.023.012l-.086.042-.322.155c-.28.133-.691.323-1.222.558a77.145 77.145 0 01-4.565 1.829 93.971 93.971 0 01-16.038 4.288c-13.148 2.285-30.53 2.307-47.138-6.917l1.456-2.622z" fill="#fff"/><path d="M119.272 288.311a1.498 1.498 0 01-.583-2.039 1.498 1.498 0 012.039-.583l-1.456 2.622zm69.196-2.736a1.5 1.5 0 01.957 1.893l-4.21 12.827a1.5 1.5 0 01-2.85-.936l3.742-11.402-11.402-3.742a1.5 1.5 0 01.936-2.85l12.827 4.21zm-67.74.114c15.802 8.776 32.419 8.799 45.169 6.583a90.952 90.952 0 0015.52-4.149 74.19 74.19 0 004.385-1.757 49.173 49.173 0 001.434-.662l.069-.034.016-.007.002-.002h.001L188 287l.676 1.339-.003.001-.007.004a.406.406 0 01-.023.012l-.086.042-.322.155c-.28.133-.691.323-1.222.558a77.145 77.145 0 01-4.565 1.829 93.971 93.971 0 01-16.038 4.288c-13.148 2.285-30.53 2.307-47.138-6.917l1.456-2.622z" fill="url(#paint4_linear_991_12810)"/><path d="M279.272 280.689a1.498 1.498 0 00-.583 2.039 1.498 1.498 0 002.039.583l-1.456-2.622zm69.196 2.736a1.5 1.5 0 00.957-1.893l-4.21-12.827a1.5 1.5 0 00-2.85.936l3.742 11.402-11.402 3.742a1.5 1.5 0 00.936 2.85l12.827-4.21zm-67.74-.114c15.802-8.776 32.419-8.799 45.169-6.583a90.952 90.952 0 0115.52 4.149 74.19 74.19 0 014.385 1.757 49.173 49.173 0 011.434.662l.069.034.016.007.002.002h.001L348 282l.676-1.339-.003-.001-.007-.004a.406.406 0 00-.023-.012l-.086-.042a51.232 51.232 0 00-1.544-.713 77.145 77.145 0 00-4.565-1.829 93.971 93.971 0 00-16.038-4.288c-13.148-2.285-30.53-2.307-47.138 6.917l1.456 2.622z" fill="#fff"/><path d="M279.272 280.689a1.498 1.498 0 00-.583 2.039 1.498 1.498 0 002.039.583l-1.456-2.622zm69.196 2.736a1.5 1.5 0 00.957-1.893l-4.21-12.827a1.5 1.5 0 00-2.85.936l3.742 11.402-11.402 3.742a1.5 1.5 0 00.936 2.85l12.827-4.21zm-67.74-.114c15.802-8.776 32.419-8.799 45.169-6.583a90.952 90.952 0 0115.52 4.149 74.19 74.19 0 014.385 1.757 49.173 49.173 0 011.434.662l.069.034.016.007.002.002h.001L348 282l.676-1.339-.003-.001-.007-.004a.406.406 0 00-.023-.012l-.086-.042a51.232 51.232 0 00-1.544-.713 77.145 77.145 0 00-4.565-1.829 93.971 93.971 0 00-16.038-4.288c-13.148-2.285-30.53-2.307-47.138 6.917l1.456 2.622z" fill="url(#paint5_linear_991_12810)"/><path d="M439.272 295.311a1.498 1.498 0 01-.583-2.039 1.498 1.498 0 012.039-.583l-1.456 2.622zm69.196-2.736a1.5 1.5 0 01.957 1.893l-4.21 12.827a1.5 1.5 0 01-2.85-.936l3.742-11.402-11.402-3.742a1.5 1.5 0 01.936-2.85l12.827 4.21zm-67.74.114c15.802 8.776 32.419 8.799 45.169 6.583a90.952 90.952 0 0015.52-4.149 74.19 74.19 0 004.385-1.757 49.173 49.173 0 001.434-.662l.069-.034.016-.007.002-.002h.001L508 294l.676 1.339-.003.001-.007.004a.406.406 0 01-.023.012l-.086.042-.322.155c-.28.133-.691.323-1.222.558a77.145 77.145 0 01-4.565 1.829 93.971 93.971 0 01-16.038 4.288c-13.148 2.285-30.53 2.307-47.138-6.917l1.456-2.622z" fill="#fff"/><path d="M439.272 295.311a1.498 1.498 0 01-.583-2.039 1.498 1.498 0 012.039-.583l-1.456 2.622zm69.196-2.736a1.5 1.5 0 01.957 1.893l-4.21 12.827a1.5 1.5 0 01-2.85-.936l3.742-11.402-11.402-3.742a1.5 1.5 0 01.936-2.85l12.827 4.21zm-67.74.114c15.802 8.776 32.419 8.799 45.169 6.583a90.952 90.952 0 0015.52-4.149 74.19 74.19 0 004.385-1.757 49.173 49.173 0 001.434-.662l.069-.034.016-.007.002-.002h.001L508 294l.676 1.339-.003.001-.007.004a.406.406 0 01-.023.012l-.086.042-.322.155c-.28.133-.691.323-1.222.558a77.145 77.145 0 01-4.565 1.829 93.971 93.971 0 01-16.038 4.288c-13.148 2.285-30.53 2.307-47.138-6.917l1.456-2.622z" fill="url(#paint6_linear_991_12810)"/><defs><linearGradient id="paint0_linear_991_12810" x1="123" y1="42" x2="130.967" y2="16.478" gradientUnits="userSpaceOnUse"><stop offset=".323" stop-color="#DED2FF"/><stop offset="1" stop-color="#FDD0DD"/></linearGradient><linearGradient id="paint1_linear_991_12810" x1="283" y1="14" x2="290.967" y2="39.522" gradientUnits="userSpaceOnUse"><stop offset=".323" stop-color="#DED2FF"/><stop offset="1" stop-color="#FDD0DD"/></linearGradient><linearGradient id="paint2_linear_991_12810" x1="443" y1="42" x2="450.967" y2="16.478" gradientUnits="userSpaceOnUse"><stop offset=".323" stop-color="#DED2FF"/><stop offset="1" stop-color="#FDD0DD"/></linearGradient><linearGradient id="paint3_linear_991_12810" x1="497" y1="215" x2="426.303" y2="120.515" gradientUnits="userSpaceOnUse"><stop offset=".323" stop-color="#DED2FF"/><stop offset="1" stop-color="#FDD0DD"/></linearGradient><linearGradient id="paint4_linear_991_12810" x1="120" y1="295" x2="127.967" y2="269.478" gradientUnits="userSpaceOnUse"><stop offset=".323" stop-color="#DED2FF"/><stop offset="1" stop-color="#FDD0DD"/></linearGradient><linearGradient id="paint5_linear_991_12810" x1="280" y1="274" x2="287.967" y2="299.522" gradientUnits="userSpaceOnUse"><stop offset=".323" stop-color="#DED2FF"/><stop offset="1" stop-color="#FDD0DD"/></linearGradient><linearGradient id="paint6_linear_991_12810" x1="440" y1="302" x2="447.967" y2="276.478" gradientUnits="userSpaceOnUse"><stop offset=".323" stop-color="#DED2FF"/><stop offset="1" stop-color="#FDD0DD"/></linearGradient></defs></svg>