<svg width="447" height="48" xmlns="http://www.w3.org/2000/svg"><g id="design" stroke="none" stroke-width="1" fill="none" fill-rule="evenodd"><g id="Stopcorona_case_desktop" transform="translate(-417 -7622)"><g id="Group-39" transform="translate(100 7573)"><g id="Group-28" transform="translate(317 49)"><g id="diffcous_logo"><path d="M69.046 13.464c5.75 0 10.128 4.647 10.128 10.701s-4.379 10.701-10.128 10.701h-8.34V13.464h8.34zm0 16.694c3.277 0 5.54-2.324 5.54-5.993 0-3.669-2.263-5.992-5.54-5.992h-3.574v11.985h3.574zM83.94 18.234c1.46 0 2.68-1.254 2.68-2.752 0-1.498-1.22-2.752-2.68-2.752-1.46 0-2.681 1.254-2.681 2.752 0 1.498 1.221 2.752 2.68 2.752zm-2.234 16.632h4.468V19.58h-4.468v15.287zm24.276-17.733V12.73c-4.945-.305-7.238 2.263-7.238 6.543v.306h-3.872c0-1.773 1.102-2.293 2.77-2.14v-4.403c-4.945-.306-7.238 2.263-7.238 6.543h-1.996v4.403h1.996v10.884h4.468V23.982h3.872v10.884h4.468V23.982h2.77v-4.403h-2.77v-.306c0-1.773 1.102-2.293 2.77-2.14zm8.34 18.161c2.92 0 5.451-1.56 6.732-3.944l-3.902-2.293c-.476 1.07-1.578 1.712-2.89 1.712-1.935 0-3.365-1.437-3.365-3.546 0-2.11 1.43-3.547 3.366-3.547 1.31 0 2.383.642 2.89 1.712l3.901-2.324c-1.28-2.354-3.842-3.913-6.732-3.913-4.527 0-7.893 3.516-7.893 8.072 0 4.555 3.366 8.071 7.893 8.071zm15.37 0c-4.378 0-7.893-3.516-7.893-8.071 0-4.556 3.515-8.072 7.894-8.072 4.378 0 7.893 3.516 7.893 8.072 0 4.555-3.515 8.071-7.893 8.071zm0-4.464c1.937 0 3.426-1.437 3.426-3.607 0-2.171-1.49-3.608-3.425-3.608-1.937 0-3.426 1.437-3.426 3.608 0 2.17 1.49 3.607 3.426 3.607z" id="Diffco-US" fill="#1D1E37"/><g id="Слой_2"><g id="Слой_1-2"><path d="M48 43.176A4.825 4.825 0 0143.174 48H4.826A4.825 4.825 0 010 43.176V4.824A4.825 4.825 0 014.826 0h38.348A4.827 4.827 0 0148 4.824v38.352z" id="Combined-Shape" fill="#F8B000"/><path d="M23.232 7.614l.513.002a19.959 19.959 0 017.815 1.451v16.924L12.782 36.882v3.434H9.279v-5.495h.078l10.836-6.268-4.432-2.562V9.138a19.781 19.781 0 017.984-1.522zm5.992 22.128l9.514 5.503v5.071h-3.502v-3.06l-9.508-5.491 3.496-2.023zm-1.435-18.515a19.519 19.519 0 00-8.25.039l-.272.063v12.643l4.411 2.555L28.058 24l.003-12.71z" id="Combined-Shape" fill="#FFF"/></g></g></g><g id="5e7bc2ab8ff25a0729451457_test-directly-SVG" transform="translate(202 4)" fill-rule="nonzero"><path d="M94.467 32c5.546 0 9.348-3.342 9.348-8.476s-3.802-8.475-9.348-8.475h-7.7V32h7.7zm-.193-3.22H90.69V18.27h3.584c3.366 0 5.57 2.01 5.57 5.254 0 3.245-2.204 5.255-5.57 5.255zm14.118-11.625c1.404 0 2.349-.92 2.349-2.179 0-1.162-.945-2.034-2.35-2.034-1.404 0-2.348.92-2.348 2.107 0 1.186.944 2.106 2.349 2.106zM110.28 32V18.972h-3.778V32h3.778zm7.289 0v-6.15c0-2.495 1.38-3.633 3.463-3.633.29 0 .532.024.847.048v-3.487c-2.01 0-3.56.654-4.48 1.913v-1.72h-3.608V32h3.778zm13.125.194c2.349 0 4.165-.727 5.376-2.107l-2.01-2.18c-.896.848-1.889 1.26-3.27 1.26-1.985 0-3.365-.993-3.729-2.616h9.856c.025-.314.073-.726.073-1.017 0-4.19-2.954-6.756-6.78-6.756-3.972 0-6.95 2.809-6.95 6.708 0 3.874 2.93 6.708 7.434 6.708zm2.736-7.846h-6.417c.266-1.671 1.501-2.713 3.22-2.713 1.696 0 2.931 1.066 3.197 2.713zm12.375 7.846c2.736 0 4.892-1.211 5.836-3.294l-2.93-1.598c-.702 1.26-1.744 1.792-2.93 1.792-1.913 0-3.415-1.332-3.415-3.608s1.502-3.608 3.415-3.608c1.186 0 2.228.557 2.93 1.792l2.93-1.574c-.944-2.131-3.1-3.318-5.836-3.318-4.238 0-7.265 2.785-7.265 6.708s3.027 6.708 7.265 6.708zm13.343 0c1.162 0 2.3-.267 3.075-.824l-1.017-2.663c-.411.314-.968.484-1.525.484-1.017 0-1.623-.605-1.623-1.72v-5.303h3.245v-2.906h-3.245V16.09h-3.777v3.172h-2.01v2.906h2.01v5.352c0 3.1 1.792 4.674 4.867 4.674zm8.984-.194V14.032h-3.778V32h3.778zm5.158 4.892c2.35 0 4.141-.945 5.4-4.093l5.885-13.827h-3.632l-3.681 8.839-3.657-8.84h-3.899l5.643 13.126-.049.12c-.508 1.163-1.09 1.623-2.13 1.623-.752 0-1.55-.314-2.132-.823l-1.38 2.688c.847.75 2.3 1.187 3.632 1.187zm14.264-4.698c1.307 0 2.349-.993 2.349-2.373 0-1.405-1.042-2.325-2.35-2.325-1.307 0-2.348.92-2.348 2.325 0 1.38 1.04 2.373 2.349 2.373zm11.212 0c2.736 0 4.891-1.211 5.836-3.294l-2.93-1.598c-.703 1.26-1.744 1.792-2.93 1.792-1.914 0-3.415-1.332-3.415-3.608s1.501-3.608 3.414-3.608c1.187 0 2.228.557 2.93 1.792l2.93-1.574c-.944-2.131-3.099-3.318-5.835-3.318-4.238 0-7.265 2.785-7.265 6.708s3.027 6.708 7.265 6.708zm14.215 0c4.14 0 7.143-2.785 7.143-6.708s-3.002-6.708-7.143-6.708-7.168 2.785-7.168 6.708 3.027 6.708 7.168 6.708zm0-3.1c-1.89 0-3.342-1.356-3.342-3.608s1.453-3.608 3.342-3.608c1.888 0 3.317 1.356 3.317 3.608s-1.429 3.608-3.317 3.608zM226.422 32v-6.538c0-2.325 1.186-3.415 2.857-3.415 1.574 0 2.47.969 2.47 3.076V32h3.778v-6.538c0-2.325 1.187-3.415 2.882-3.415 1.525 0 2.47.969 2.47 3.076V32h3.777v-7.459c0-3.971-2.227-5.763-5.327-5.763-1.962 0-3.657.8-4.698 2.131-.92-1.429-2.47-2.131-4.286-2.131-1.671 0-3.124.581-4.093 1.695v-1.501h-3.608V32h3.778z" id="Shape" fill="#121125"/><path d="M40.58 32V18.245h5.424V15.05H31.232v3.196h5.424V32h3.923zm13.73.194c2.349 0 4.165-.727 5.376-2.107l-2.01-2.18c-.896.848-1.889 1.26-3.27 1.26-1.985 0-3.365-.993-3.728-2.616h9.856c.024-.314.072-.726.072-1.017 0-4.19-2.954-6.756-6.78-6.756-3.972 0-6.95 2.809-6.95 6.708 0 3.874 2.93 6.708 7.434 6.708zm2.736-7.846H50.63c.267-1.671 1.502-2.713 3.22-2.713 1.696 0 2.931 1.066 3.197 2.713zm10.462 7.846c3.899 0 6.15-1.72 6.15-4.141 0-5.134-7.87-2.979-7.87-5.207 0-.678.727-1.21 2.422-1.21 1.187 0 2.47.242 3.754.968l1.259-2.688c-1.235-.726-3.22-1.138-5.013-1.138-3.802 0-6.03 1.744-6.03 4.214 0 5.206 7.87 3.027 7.87 5.158 0 .726-.653 1.186-2.397 1.186-1.598 0-3.366-.508-4.528-1.259l-1.26 2.712c1.211.8 3.44 1.405 5.643 1.405zm13.803 0c1.163 0 2.3-.267 3.076-.824l-1.017-2.663c-.412.314-.97.484-1.526.484-1.017 0-1.623-.605-1.623-1.72v-5.303h3.245v-2.906h-3.245V16.09h-3.777v3.172h-2.01v2.906h2.01v5.352c0 3.1 1.792 4.674 4.867 4.674z" id="Shape" fill="#8B30B1"/><g id="Group" fill="#8B30B1"><g transform="translate(0 12.649)" id="path-1-link"><path d="M8.298 9.926l.102-5.05h5.678v4.629l2.892 5.4H5.58l2.718-4.979zM21.97 20.47L15.852 9.274V4.877h.05a2.444 2.444 0 002.439-2.44A2.44 2.44 0 0015.9 0H6.586a2.44 2.44 0 00-2.44 2.436 2.444 2.444 0 002.44 2.44h.044v4.398L.514 20.47a4.126 4.126 0 00.075 4.118 4.13 4.13 0 003.58 2.04h14.15a4.13 4.13 0 003.58-2.04 4.115 4.115 0 00.07-4.118z" id="path-1"/></g><circle id="Oval" cx="9.136" cy="7.73" r="2.109"/><circle id="Oval" cx="14.054" cy="4.216" r="1.405"/><circle id="Oval" cx="9.838" cy="1.405" r="1.405"/></g></g><text id="+" font-family="Gilroy-ExtraBold, Gilroy" font-size="28" font-weight="600" fill="#27293C"><tspan x="162.16" y="34">+</tspan></text></g></g></g></g></svg>