<svg width="127" height="48" xmlns="http://www.w3.org/2000/svg"><g id="design" stroke="none" stroke-width="1" fill="none" fill-rule="evenodd"><g id="Stopcorona_case_desktop" transform="translate(-572 -1409)"><g id="Group-43" transform="translate(227 1379)"><g id="Group-54" transform="translate(345 30)"><g id="diffcous_logo"><g id="Слой_2"><g id="Слой_1-2"><path d="M47.442 42.674a4.77 4.77 0 01-4.77 4.768H4.77A4.77 4.77 0 010 42.674V4.768A4.77 4.77 0 014.77 0h37.902a4.771 4.771 0 014.77 4.768v37.906z" id="Combined-Shape" fill="#F8B000"/><path d="M22.962 7.525l.507.003a19.727 19.727 0 017.724 1.434v16.726l-18.56 10.765v3.395H9.171v-5.432h.077l10.71-6.195-4.38-2.533V9.031a19.551 19.551 0 017.891-1.503zm5.922 21.872l9.404 5.438v5.013h-3.462v-3.025l-9.397-5.428 3.455-1.998zm-1.418-18.3a19.292 19.292 0 00-8.154.038l-.269.063v12.495l4.36 2.526 4.328-2.498.004-12.562z" id="Combined-Shape" fill="#FFF"/></g></g></g><g id="Group-41" transform="translate(56 7)" fill="#27293C" fill-rule="nonzero"><path d="M7.16 33c4.632 0 8.16-3.648 8.16-8.4 0-4.752-3.528-8.4-8.16-8.4H.44V33h6.72zm0-3.696H4.28v-9.408h2.88c2.64 0 4.464 1.824 4.464 4.704S9.8 29.304 7.16 29.304zm12-9.36c1.176 0 2.16-.984 2.16-2.16 0-1.176-.984-2.16-2.16-2.16-1.176 0-2.16.984-2.16 2.16 0 1.176.984 2.16 2.16 2.16zM20.96 33V21h-3.6v12h3.6zm7.008 0v-8.544H30.2V21h-2.232c0-1.392.888-1.8 2.232-1.68v-3.456c-3.984-.24-5.832 1.776-5.832 5.136H22.76v3.456h1.608V33h3.6zm7.92 0v-8.544h2.232V21h-2.232c0-1.392.888-1.8 2.232-1.68v-3.456c-3.984-.24-5.832 1.776-5.832 5.136H30.68v3.456h1.608V33h3.6zm9.312.336c2.352 0 4.392-1.224 5.424-3.096l-3.144-1.8c-.384.84-1.272 1.344-2.328 1.344-1.56 0-2.712-1.128-2.712-2.784s1.152-2.784 2.712-2.784c1.056 0 1.92.504 2.328 1.344l3.144-1.824c-1.032-1.848-3.096-3.072-5.424-3.072-3.648 0-6.36 2.76-6.36 6.336 0 3.576 2.712 6.336 6.36 6.336zm12.744 0c3.528 0 6.36-2.76 6.36-6.336 0-3.576-2.832-6.336-6.36-6.336-3.528 0-6.36 2.76-6.36 6.336 0 3.576 2.832 6.336 6.36 6.336zm0-3.504c-1.56 0-2.76-1.128-2.76-2.832s1.2-2.832 2.76-2.832c1.56 0 2.76 1.128 2.76 2.832s-1.2 2.832-2.76 2.832z" id="Diffco"/><path d="M2.24 9.8V6.72h1.47c1.932 0 3.43-1.498 3.43-3.36C7.14 1.498 5.642 0 3.71 0H0v9.8h2.24zm1.47-5.18H2.24V2.1h1.47c.686 0 1.19.546 1.19 1.26s-.504 1.26-1.19 1.26zm6.58 5.18V6.636c0-1.386 1.232-1.736 2.1-1.596V2.66c-.882 0-1.82.448-2.1 1.386V2.8h-2.1v7h2.1zm6.44.196c2.058 0 3.71-1.61 3.71-3.696 0-2.086-1.652-3.696-3.71-3.696s-3.71 1.61-3.71 3.696c0 2.086 1.652 3.696 3.71 3.696zm0-2.044c-.91 0-1.61-.658-1.61-1.652 0-.994.7-1.652 1.61-1.652.91 0 1.61.658 1.61 1.652 0 .994-.7 1.652-1.61 1.652zm7.896 2.044c.938 0 1.624-.322 2.086-.854V9.8h2.1V0h-2.1v3.458c-.462-.532-1.148-.854-2.086-.854-1.834 0-3.346 1.61-3.346 3.696 0 2.086 1.512 3.696 3.346 3.696zm.42-1.988c-.966 0-1.666-.658-1.666-1.708 0-1.05.7-1.708 1.666-1.708s1.666.658 1.666 1.708c0 1.05-.7 1.708-1.666 1.708zm7.826 1.988c.924 0 1.624-.336 2.002-.854V9.8h2.1v-7h-2.1v3.822c0 .994-.532 1.442-1.302 1.442-.672 0-1.218-.406-1.218-1.274V2.8h-2.1v4.298c0 1.89 1.204 2.898 2.618 2.898zm9.002 0c1.372 0 2.562-.714 3.164-1.806l-1.834-1.05c-.224.49-.742.784-1.358.784-.91 0-1.582-.658-1.582-1.624 0-.966.672-1.624 1.582-1.624.616 0 1.12.294 1.358.784l1.834-1.064c-.602-1.078-1.806-1.792-3.164-1.792-2.128 0-3.71 1.61-3.71 3.696 0 2.086 1.582 3.696 3.71 3.696zM50.05 9.8V7.896c-.924.056-1.442 0-1.442-.602V4.816h1.442V2.8h-1.442V.84l-2.1.63V2.8h-1.12v2.016h1.12v2.478c0 1.96.798 2.786 3.542 2.506zm9.016.196c1.834 0 3.346-1.61 3.346-3.696 0-2.086-1.512-3.696-3.346-3.696-.938 0-1.624.322-2.086.854V0h-2.1v9.8h2.1v-.658c.462.532 1.148.854 2.086.854zm-.42-1.988c-.966 0-1.666-.658-1.666-1.708 0-1.05.7-1.708 1.666-1.708s1.666.658 1.666 1.708c0 1.05-.7 1.708-1.666 1.708zm9.212 1.582l2.394-6.79h-2.24l-1.316 4.284L65.142 2.8h-2.31l2.786 6.678c-.308.854-.77 1.162-1.75 1.162v1.96c1.96.098 3.206-.784 3.99-3.01z" id="Productby"/></g></g></g></g></g></svg>