<svg width="225" height="40" xmlns="http://www.w3.org/2000/svg"><g id="design" stroke="none" stroke-width="1" fill="none" fill-rule="evenodd"><g id="Stopcorona_case_desktop" transform="translate(-529 -8106)"><g id="Group-26" transform="translate(121 7985)"><g id="logos-/-partners-/-HFM-API" transform="translate(360 101)"><path id="Rectangle" d="M0 0h320v80H0z"/><g id="Group" stroke-width="1" fill-rule="evenodd" transform="translate(48 20)" fill="#8F909D"><path d="M142.377 23.04v16h-2.514v-16h2.514zm-107.314 0l2.56 16h-2.537l-.435-2.903h-3.085l-.435 2.903h-2.308l2.56-16h3.68zm99.771 0c2.515 0 3.749 1.394 3.749 3.954v2.08c0 2.56-1.234 3.955-3.749 3.955h-1.188v6.011h-2.515v-16zm-7.428 0l2.56 16h-2.537l-.435-2.903h-3.085l-.435 2.903h-2.308l2.56-16h3.68zM7.143.469V39.04H4.286V.469h2.857zM41.92 23.04l2.583 9.577V23.04h2.24v16H44.16l-3.131-11.589V39.04h-2.263v-16h3.154zm75.269 0v2.286h-2.629V39.04h-2.514V25.326h-2.629V23.04h7.772zm-8.595 0v2.286h-4.343v4.457h3.452v2.286h-3.452v4.685h4.343v2.286h-6.857v-16h6.857zM14.286.469V39.04H10V.469h4.286zM94.789 23.04v6.971l3.291-6.971h2.514l-3.497 7.131 3.497 8.869h-2.583l-2.445-6.377-.777 1.463v4.914h-2.515v-16h2.515zm-42.263 0c2.514 0 3.748 1.394 3.748 3.954v8.092c0 2.56-1.234 3.954-3.748 3.954h-3.977v-16zm34.354 0c2.606 0 3.726 1.211 3.726 3.68v1.257c0 1.646-.526 2.72-1.646 3.246 1.257.526 1.669 1.737 1.669 3.406v2.468c0 .777.022 1.349.274 1.943h-2.56c-.137-.411-.229-.663-.229-1.966V34.56c0-1.486-.503-2.034-1.645-2.034H85.6v6.514h-2.514v-16zM22.857.469V39.04h-5.714V.469h5.714zM64.891 23.04l1.852 11.36 1.714-11.36h3.497v16h-2.377V27.566L67.84 39.04h-2.377l-1.874-11.314V39.04h-2.195v-16h3.497zm14.469 0l2.56 16h-2.537l-.434-2.903h-3.086l-.434 2.903H73.12l2.56-16h3.68zM1.429.469V39.04H0V.469h1.429zM52.48 25.326h-1.417v11.428h1.417c.8 0 1.28-.411 1.28-1.554v-8.32c0-1.143-.48-1.554-1.28-1.554zm24.914.548l-1.211 8.092h2.423l-1.212-8.092zm-44.297 0l-1.211 8.092h2.423l-1.212-8.092zm92.343 0l-1.211 8.092h2.422l-1.211-8.092zm9.394-.548h-1.188v5.417h1.188c.8 0 1.235-.366 1.235-1.509v-2.4c0-1.143-.435-1.508-1.235-1.508zm-48.023 0H85.6v4.914h.983c.937 0 1.508-.411 1.508-1.691V26.97c0-1.142-.388-1.645-1.28-1.645zm24.343-11.566v2.171l-1.097 2.538h-1.028l.662-2.286h-.96V13.76h2.423zM126.79.183v12.343c0 1.143.502 1.554 1.302 1.554s1.303-.411 1.303-1.554V.183h2.377v12.183c0 2.56-1.28 4.023-3.748 4.023-2.469 0-3.749-1.463-3.749-4.023V.183h2.515zM86.4 0c2.469 0 3.749 1.463 3.749 4.023v1.554H87.77V3.863c0-1.143-.502-1.577-1.302-1.577s-1.303.434-1.303 1.577v8.64c0 1.143.503 1.554 1.303 1.554.8 0 1.302-.411 1.302-1.554v-2.286h2.378v2.126c0 2.56-1.28 4.023-3.749 4.023-2.469 0-3.749-1.463-3.749-4.023v-8.32C82.651 1.463 83.931 0 86.4 0zM63.886 0c2.468 0 3.817 1.463 3.817 4.023v8.32c0 2.56-1.349 4.023-3.817 4.023-2.469 0-3.817-1.463-3.817-4.023v-8.32c0-2.56 1.348-4.023 3.817-4.023zM46.97 0c2.446 0 3.703 1.463 3.703 4.023v.503h-2.377v-.663c0-1.143-.457-1.577-1.257-1.577-.8 0-1.257.434-1.257 1.577 0 3.291 4.914 3.908 4.914 8.48 0 2.56-1.28 4.023-3.748 4.023-2.469 0-3.749-1.463-3.749-4.023v-.983h2.377v1.143c0 1.143.503 1.554 1.303 1.554.8 0 1.303-.411 1.303-1.554 0-3.292-4.914-3.909-4.914-8.48C43.269 1.463 44.526 0 46.97 0zm174.012 0c2.446 0 3.703 1.463 3.703 4.023v.503h-2.377v-.663c0-1.143-.458-1.577-1.258-1.577s-1.257.434-1.257 1.577c0 3.291 4.915 3.908 4.915 8.48 0 2.56-1.28 4.023-3.749 4.023-2.469 0-3.749-1.463-3.749-4.023v-.983h2.378v1.143c0 1.143.502 1.554 1.302 1.554s1.303-.411 1.303-1.554c0-3.292-4.914-3.909-4.914-8.48 0-2.56 1.257-4.023 3.703-4.023zM199.45.183v2.286h-2.628v13.714h-2.514V2.469h-2.629V.183h7.771zm-41.302 0l2.56 16h-2.538l-.434-2.903h-3.086l-.434 2.903h-2.308l2.56-16h3.68zM32 .183V7.04h2.857V.183h2.56v16h-2.56V9.326H32v6.857h-2.514v-16H32zm71.497 0v13.714h4.137v2.286h-6.651v-16h2.514zm61.852 0l1.851 11.36 1.714-11.36h3.497v16h-2.377V4.709l-1.737 11.474h-2.377l-1.874-11.314v11.314h-2.195v-16h3.498zm15.748 0v2.286h-4.343v4.457h3.452V9.21h-3.452v4.686h4.343v2.286h-6.857v-16h6.857zm-57.92 0v2.286h-4.137V7.29h3.246v2.286h-3.246v6.606h-2.514v-16h6.651zm62.606 0l2.583 9.577V.183h2.24v16h-2.583L184.89 4.594v11.589h-2.262v-16h3.154zm-88.526 0l2.56 16H97.28l-.434-2.903H93.76l-.434 2.903h-2.309l2.56-16h3.68zm108.869 0l2.56 16h-2.537l-.435-2.903h-3.085l-.435 2.903h-2.308l2.56-16h3.68zM41.76.183v16h-2.514v-16h2.514zm170.606 0v13.714h4.137v2.286h-6.652v-16h2.515zm-153.189 0v2.286H56.55v13.714h-2.515V2.469h-2.628V.183h7.771zm13.943 0c2.606 0 3.726 1.211 3.726 3.68V5.12c0 1.646-.526 2.72-1.646 3.246 1.257.525 1.669 1.737 1.669 3.405v2.469c0 .777.022 1.349.274 1.943h-2.56c-.137-.412-.229-.663-.229-1.966v-2.514c0-1.486-.503-2.034-1.645-2.034h-.869v6.514h-2.514v-16zm7.909 0v16h-2.515v-16h2.515zm66.194 0c2.514 0 3.748 1.394 3.748 3.954v8.092c0 2.56-1.234 3.954-3.748 3.954h-3.977v-16zm-10.606 0L139.2 9.76V.183h2.24v16h-2.583l-3.131-11.589v11.589h-2.263v-16h3.154zM63.886 2.286c-.8 0-1.303.434-1.303 1.577v8.64c0 1.143.503 1.577 1.303 1.577.8 0 1.303-.434 1.303-1.577v-8.64c0-1.143-.503-1.577-1.303-1.577zm83.291.183h-1.417v11.428h1.417c.8 0 1.28-.411 1.28-1.554v-8.32c0-1.143-.48-1.554-1.28-1.554zm-51.886.548L94.08 11.11h2.423L95.29 3.017zm60.892 0l-1.212 8.092h2.423l-1.211-8.092zm47.977 0l-1.211 8.092h2.422l-1.211-8.092zM73.051 2.47H71.84v4.914h.983c.937 0 1.508-.412 1.508-1.692V4.114c0-1.143-.388-1.645-1.28-1.645z" id="Combined-Shape" fill-rule="nonzero"/></g></g></g></g></g></svg>