<svg width="147" height="40" xmlns="http://www.w3.org/2000/svg"><g id="design" stroke="none" stroke-width="1" fill="none" fill-rule="evenodd"><g id="Stopcorona_case_desktop" transform="translate(-928 -8226)"><g id="Group-26" transform="translate(121 7985)"><g id="logos-/-partners-/-sqreen" transform="translate(720 221)"><path id="Rectangle" d="M0 0h320v80H0z"/><g id="logo-rgb-indigo" stroke-width="1" fill-rule="nonzero" transform="translate(87 20)"><path d="M57.422 16.378c-1.687-.952-3.279-1.376-4.87-1.376-1.315 0-2.156.548-2.156 1.388 0 2.52 9.503.402 9.503 7.231 0 3.105-2.741 5.625-7.127 5.625-1.97 0-4.382-.442-6.044-1.326a1.266 1.266 0 01-.139-.088.622.622 0 01-.206-.758l1.118-2.517a.622.622 0 01.816-.318c.068.03.127.055.179.076 1.444.591 2.94.913 4.276.913 2.083 0 2.741-.547 2.741-1.607 0-2.848-9.503-.767-9.503-7.231 0-2.922 2.559-5.406 6.543-5.406 2.015 0 4.736.703 6.525 1.732.049.028.104.06.165.099a.622.622 0 01.24.78l-1.125 2.53a.622.622 0 01-.879.286 7.298 7.298 0 00-.057-.033z" id="s" fill="#1E0936"/><path d="M75.287 11.532h2.996c.343 0 .622.279.622.622v24.323a.622.622 0 01-.622.621h-2.996a.622.622 0 01-.622-.621v-8.51c-1.133.731-2.741 1.279-4.386 1.279-5.117 0-8.991-4.054-8.991-9.13 0-5.077 3.874-9.132 8.991-9.132 1.645 0 3.253.548 4.386 1.279v-.109c0-.343.278-.622.622-.622zm-.622 11.651v-6.136c-1.206-1.241-2.668-1.972-4.24-1.972-2.741 0-4.788 2.155-4.788 5.04 0 2.886 2.047 5.04 4.788 5.04 1.572 0 3.034-.547 4.24-1.972z" id="q" fill="#1E0936"/><path d="M93.058 11.515c-.95-.393-1.901-.53-2.852-.53-1.645 0-3.29.547-4.569 1.278v-.222a.508.508 0 00-.508-.509h-3.224a.508.508 0 00-.507.509v16.696c0 .281.227.509.507.509h3.224c.28 0 .508-.228.508-.509V16.901c.987-1.132 2.668-1.826 4.35-1.826a7.058 7.058 0 011.416.143.622.622 0 00.696-.356l1.208-2.723a.469.469 0 00-.249-.624z" id="r" fill="#1E0936"/><path d="M108.547 27.388c-1.64.982-3.969 1.858-6.328 1.858-5.592 0-9.722-4.127-9.722-9.277 0-4.967 3.472-8.985 8.845-8.985 4.86 0 7.894 4.164 7.894 8.474a9.898 9.898 0 01-.084 1.182.622.622 0 01-.617.542l-11.725-.008c.511 2.667 2.595 4.237 5.409 4.237 1.573 0 3.237-.436 4.773-1.309a.532.532 0 01.748.247l1.087 2.445a.415.415 0 01-.16.52 8.716 8.716 0 01-.12.074zM96.956 17.96h8.004c-.183-1.716-1.754-3.14-3.618-3.14-2.412 0-3.838 1.424-4.386 3.14zm30.11 9.428c-1.64.982-3.968 1.858-6.328 1.858-5.592 0-9.722-4.127-9.722-9.277 0-4.967 3.472-8.985 8.845-8.985 4.861 0 7.895 4.164 7.895 8.474a9.898 9.898 0 01-.085 1.182.622.622 0 01-.617.542l-11.725-.008c.512 2.667 2.595 4.237 5.41 4.237 1.572 0 3.236-.436 4.773-1.309a.532.532 0 01.748.247l1.086 2.445a.415.415 0 01-.16.52 8.723 8.723 0 01-.12.074zm-11.59-9.428h8.004c-.183-1.716-1.755-3.14-3.619-3.14-2.412 0-3.837 1.424-4.386 3.14z" id="e" fill="#1E0936"/><path d="M129.704 12.154v16.47c0 .344.278.622.622.622h2.996a.622.622 0 00.622-.622V16.901c.986-1.132 2.668-1.826 4.349-1.826 2.741 0 4.203 1.497 4.203 4.42v9.13c0 .343.278.621.622.621h2.996a.622.622 0 00.622-.622V19.02c0-4.931-2.741-8.036-8.224-8.036-1.645 0-3.29.548-4.568 1.279v-.109a.622.622 0 00-.622-.622h-2.996a.622.622 0 00-.622.622z" id="n" fill="#1E0936"/><g id="nest-cmyk-indigo"><ellipse id="sqreen" fill="#B0ACFF" cx="17.617" cy="20" rx="9.486" ry="9.492"/><path d="M16.261 36.425V21.183l-13.538-7.82v13.41l4.811-2.779c.337.85.778 1.648 1.307 2.376L3.85 29.254l12.412 7.17zm2.71 0l12.413-7.17-4.992-2.885c.53-.728.97-1.526 1.307-2.376l4.81 2.78V13.361l-13.537 7.821v15.242zM3.732 10.814l13.886 8.02 13.884-8.02-12.53-7.239v5.661a10.941 10.941 0 00-2.71 0v-5.66l-12.53 7.238zM18.837.366l15.165 8.76a2.44 2.44 0 011.22 2.114v17.52A2.44 2.44 0 0134 30.874l-15.165 8.76a2.438 2.438 0 01-2.439 0l-15.164-8.76a2.44 2.44 0 01-1.22-2.114V11.24a2.44 2.44 0 011.22-2.114L16.397.366a2.438 2.438 0 012.44 0z" id="app" fill="#4842B7"/></g></g></g></g></g></g></svg>