<svg width="227" height="37" xmlns="http://www.w3.org/2000/svg"><g id="design" stroke="none" stroke-width="1" fill="none" fill-rule="evenodd"><g id="Stopcorona_case_desktop" transform="translate(-168 -8228)"><g id="Group-26" transform="translate(121 7985)"><g id="logos-/-partners-/-testdirectly" transform="translate(0 221)"><path id="Rectangle" d="M0 0h320v80H0z"/><g id="5e7bc2ab8ff25a0729451457_test-directly-SVG" stroke-width="1" fill-rule="nonzero" transform="translate(47 22)"><path d="M87.382 29.6c5.13 0 8.647-3.091 8.647-7.84s-3.517-7.84-8.647-7.84H80.26V29.6h7.123zm-.179-2.98h-3.315V16.9h3.315c3.114 0 5.152 1.858 5.152 4.86 0 3.002-2.038 4.86-5.152 4.86zm13.06-10.751c1.299 0 2.172-.851 2.172-2.016 0-1.075-.873-1.882-2.173-1.882-1.299 0-2.172.851-2.172 1.949s.873 1.949 2.172 1.949zM102.01 29.6V17.549h-3.495V29.6h3.495zm6.742 0v-5.69c0-2.307 1.277-3.36 3.203-3.36.269 0 .493.023.784.045V17.37c-1.859 0-3.293.604-4.144 1.77v-1.591h-3.337V29.6h3.494zm12.14.18c2.174 0 3.854-.673 4.974-1.95l-1.86-2.016c-.828.784-1.747 1.165-3.024 1.165-1.836 0-3.113-.918-3.45-2.419h9.118c.022-.291.067-.672.067-.94 0-3.876-2.733-6.25-6.272-6.25-3.674 0-6.429 2.598-6.429 6.204 0 3.584 2.71 6.205 6.877 6.205zm2.532-7.258h-5.936c.246-1.546 1.389-2.51 2.98-2.51 1.567 0 2.71.986 2.956 2.51zm11.446 7.257c2.532 0 4.525-1.12 5.399-3.046l-2.71-1.479c-.65 1.165-1.613 1.658-2.711 1.658-1.77 0-3.158-1.232-3.158-3.338 0-2.105 1.388-3.337 3.158-3.337 1.098 0 2.06.515 2.71 1.657l2.71-1.456c-.873-1.97-2.866-3.068-5.398-3.068-3.92 0-6.72 2.576-6.72 6.204 0 3.63 2.8 6.205 6.72 6.205zm12.343 0c1.075 0 2.128-.246 2.845-.761l-.941-2.464c-.381.29-.896.448-1.411.448-.941 0-1.501-.56-1.501-1.59v-4.906h3.001v-2.688h-3.001v-2.935h-3.495v2.935h-1.859v2.688h1.86v4.95c0 2.867 1.657 4.323 4.502 4.323zm8.31-.179V12.98h-3.494V29.6h3.494zm4.771 4.525c2.173 0 3.83-.874 4.996-3.786l5.443-12.79h-3.36l-3.405 8.176-3.382-8.176h-3.607l5.22 12.14-.045.113c-.47 1.075-1.008 1.5-1.972 1.5-.694 0-1.433-.29-1.97-.761l-1.278 2.486c.784.695 2.128 1.098 3.36 1.098zm13.194-4.346c1.21 0 2.173-.918 2.173-2.195 0-1.3-.963-2.15-2.173-2.15s-2.173.85-2.173 2.15c0 1.277.963 2.195 2.173 2.195zm10.371 0c2.531 0 4.525-1.12 5.399-3.046l-2.71-1.479c-.65 1.165-1.614 1.658-2.711 1.658-1.77 0-3.159-1.232-3.159-3.338 0-2.105 1.39-3.337 3.159-3.337 1.097 0 2.06.515 2.71 1.657l2.71-1.456c-.873-1.97-2.867-3.068-5.398-3.068-3.92 0-6.72 2.576-6.72 6.204 0 3.63 2.8 6.205 6.72 6.205zm13.149 0c3.83 0 6.608-2.576 6.608-6.205 0-3.628-2.778-6.204-6.608-6.204-3.83 0-6.63 2.576-6.63 6.204 0 3.63 2.8 6.205 6.63 6.205zm0-2.867c-1.747 0-3.091-1.254-3.091-3.338 0-2.083 1.344-3.337 3.091-3.337s3.069 1.254 3.069 3.337c0 2.084-1.322 3.338-3.069 3.338zM209.44 29.6v-6.048c0-2.15 1.098-3.158 2.643-3.158 1.456 0 2.285.896 2.285 2.844V29.6h3.494v-6.048c0-2.15 1.098-3.158 2.666-3.158 1.411 0 2.285.896 2.285 2.844V29.6h3.494v-6.9c0-3.673-2.06-5.33-4.928-5.33-1.814 0-3.382.739-4.345 1.97-.852-1.32-2.285-1.97-3.965-1.97-1.546 0-2.89.537-3.786 1.568v-1.39h-3.337V29.6h3.494z" id="Shape" fill="#121125"/><path d="M37.536 29.6V16.877h5.018V13.92H28.89v2.957h5.017V29.6h3.629zm12.7.18c2.174 0 3.854-.673 4.974-1.95l-1.86-2.016c-.828.784-1.747 1.165-3.024 1.165-1.836 0-3.113-.918-3.45-2.419h9.118c.022-.291.067-.672.067-.94 0-3.876-2.733-6.25-6.272-6.25-3.674 0-6.429 2.598-6.429 6.204 0 3.584 2.71 6.205 6.877 6.205zm2.532-7.258h-5.936c.246-1.546 1.389-2.51 2.98-2.51 1.567 0 2.71.986 2.956 2.51zm9.677 7.257c3.606 0 5.69-1.59 5.69-3.83 0-4.749-7.28-2.755-7.28-4.816 0-.627.671-1.12 2.24-1.12 1.097 0 2.284.224 3.471.896l1.165-2.487c-1.142-.672-2.979-1.052-4.637-1.052-3.516 0-5.577 1.612-5.577 3.897 0 4.816 7.28 2.8 7.28 4.771 0 .672-.605 1.098-2.218 1.098-1.478 0-3.113-.47-4.189-1.165l-1.164 2.509c1.12.74 3.18 1.3 5.219 1.3zm12.768 0c1.075 0 2.128-.246 2.845-.761l-.941-2.464c-.381.29-.896.448-1.411.448-.941 0-1.501-.56-1.501-1.59v-4.906h3.001v-2.688h-3.001v-2.935H70.71v2.935h-1.859v2.688h1.86v4.95c0 2.867 1.657 4.323 4.502 4.323z" id="Shape" fill="#8B30B1"/><g id="Group" fill="#8B30B1"><g transform="translate(0 11.7)" id="path-1-link"><path d="M7.676 9.182L7.77 4.51h5.252v4.281l2.675 4.995H5.161l2.515-4.605zm12.645 9.752L14.663 8.58V4.51h.045a2.261 2.261 0 002.257-2.258A2.258 2.258 0 0014.708 0H6.092a2.258 2.258 0 00-2.257 2.253 2.261 2.261 0 002.257 2.258h.041v4.068L.475 18.934a3.816 3.816 0 00.07 3.81 3.82 3.82 0 003.31 1.888h13.09a3.82 3.82 0 003.31-1.889 3.806 3.806 0 00.066-3.809z" id="path-1"/></g><circle id="Oval" cx="8.45" cy="7.15" r="1.95"/><circle id="Oval" cx="13" cy="3.9" r="1.3"/><circle id="Oval" cx="9.1" cy="1.3" r="1.3"/></g></g></g></g></g></g></svg>