<svg width="64" height="64" fill="none" xmlns="http://www.w3.org/2000/svg"><path d="M27.019 20.597c-5.227-.952-9.36.045-11.008 2.898-1.229 2.129-.878 4.951.852 7.969a.534.534 0 00.897.068.538.538 0 00.033-.602c-1.558-2.718-1.861-5.154-.853-6.9 1.368-2.37 5.054-3.258 9.886-2.378a.537.537 0 00.193-1.055zm-7.437 14.534c2.113 2.323 4.86 4.501 7.99 6.31 7.583 4.377 15.655 5.547 19.634 2.835a.537.537 0 00-.2-.976.536.536 0 00-.404.09c-3.56 2.428-11.229 1.316-18.493-2.878-3.038-1.754-5.697-3.864-7.734-6.102a.538.538 0 00-.884.131.536.536 0 00.09.59z" fill="#9FEAF9"/><path d="M45.937 34.48c3.422-4.044 4.617-8.11 2.973-10.958-1.21-2.095-3.766-3.201-7.164-3.245a.536.536 0 00-.014 1.072c3.056.04 5.259.992 6.25 2.71 1.365 2.364.3 5.99-2.864 9.727a.535.535 0 00.453.886.536.536 0 00.366-.193zM37.14 20.775c-3.094.663-6.388 1.96-9.552 3.786-7.827 4.519-12.933 11.183-12.224 16.015a.537.537 0 001.052.054.535.535 0 00.009-.21c-.63-4.29 4.21-10.607 11.7-14.93 3.068-1.773 6.258-3.028 9.24-3.667a.536.536 0 10-.225-1.048z" fill="#9FEAF9"/><path d="M24.46 43.926C26.25 48.923 29.176 52 32.468 52c2.4 0 4.622-1.637 6.354-4.518a.535.535 0 10-.919-.553c-1.556 2.59-3.468 3.999-5.435 3.999-2.735 0-5.346-2.744-7-7.363a.535.535 0 00-1.044.152.536.536 0 00.035.21zm16.345-.977c.927-2.96 1.425-6.376 1.425-9.934 0-8.88-3.109-16.535-7.535-18.501a.536.536 0 00-.435.98c3.948 1.753 6.897 9.018 6.897 17.52 0 3.453-.481 6.76-1.374 9.615a.535.535 0 101.023.32zm10.096-.525a2.565 2.565 0 10-5.131 0 2.565 2.565 0 005.13 0zm-1.072 0a1.493 1.493 0 11-2.986 0 1.493 1.493 0 012.986 0zm-33.264 2.565a2.565 2.565 0 100-5.13 2.565 2.565 0 000 5.13zm0-1.072a1.493 1.493 0 110-2.986 1.493 1.493 0 010 2.986z" fill="#9FEAF9"/><path d="M32.469 17.13a2.565 2.565 0 100-5.13 2.565 2.565 0 000 5.13zm0-1.071a1.493 1.493 0 110-2.987 1.493 1.493 0 010 2.987zm.392 18.77a1.856 1.856 0 11-.784-3.629 1.856 1.856 0 01.784 3.629z" fill="#9FEAF9"/></svg>