<svg width="80" height="80" fill="none" xmlns="http://www.w3.org/2000/svg"><g clip-path="url(#clip0_6484_28838)"><path d="M29.5 25.125a.875.875 0 100-1.75.875.875 0 000 1.75zm3.5 0a.875.875 0 100-1.75.875.875 0 000 1.75zm3.5 0a.875.875 0 100-1.75.875.875 0 000 1.75zm3.5 0a.875.875 0 100-1.75.875.875 0 000 1.75zm5.25 29.75a.875.875 0 100-1.75.875.875 0 000 1.75zm-9.625 8.75h8.75a.875.875 0 100-1.75h-8.75a.875.875 0 100 1.75z" fill="#fff"/><path fill-rule="evenodd" clip-rule="evenodd" d="M54.875 34.75a.875.875 0 00.875-.875V17.25a4.38 4.38 0 00-4.375-4.375h-22.75a4.38 4.38 0 00-4.375 4.375v45.5a4.38 4.38 0 004.375 4.375h22.75a4.38 4.38 0 004.375-4.375V57.5a.875.875 0 10-1.75 0v.875H26v-36.75h28v12.25c0 .484.392.875.875.875zm-.875 28v-2.625H26v2.625a2.628 2.628 0 002.625 2.625h22.75A2.628 2.628 0 0054 62.75zm-28-45.5v2.625h28V17.25a2.628 2.628 0 00-2.625-2.625h-22.75A2.628 2.628 0 0026 17.25z" fill="#fff"/><path d="M40 27.75c0-.484-.343-.875-.766-.875H28.516c-.423 0-.766.391-.766.875s.343.875.766.875h10.718c.423 0 .766-.391.766-.875zm5.25 22.75c0-.484-.327-.875-.73-.875h-2.916c-.402 0-.729.391-.729.875s.327.875.73.875h2.916c.402 0 .729-.391.729-.875z" fill="#fff"/><path fill-rule="evenodd" clip-rule="evenodd" d="M40.168 46.414l4.827 5.77a4.397 4.397 0 002.49 1.48l3.987.805 5.418 6.476c.31.37.861.42 1.233.11l9.395-7.862a.874.874 0 00.11-1.233l-5.46-6.524-.606-3.843a4.376 4.376 0 00-.967-2.127L55.602 33.5l-1.178-1.273a4.381 4.381 0 00-5.546.054l-5.054-6.04-1.226-1.211c-.823-.485-1.856-.526-2.676-.04a2.632 2.632 0 00-1.259 1.822 2.62 2.62 0 00.152 1.382l.983 1.417 2.808 3.355 1.16 1.386a2.67 2.67 0 00-1.08.751c-.66.765-.782 1.866-.371 2.798a2.659 2.659 0 00-1.19.79c-.679.786-.788 1.93-.335 2.877-.447.15-.849.417-1.166.783-.616.713-.76 1.72-.445 2.609l.989 1.455zm19.665-4.548a2.627 2.627 0 00-.58-1.277L53.7 33.951a2.628 2.628 0 00-3.7-.328l4.492 5.368a.874.874 0 11-1.342 1.123l-11.17-13.35c-.302-.36-.814-.479-1.168-.27a.876.876 0 00-.235 1.321l3.37 4.027 2.747 3.284 5.114 6.111a.874.874 0 11-1.342 1.123l-5.114-6.111a.875.875 0 00-1.343-.002c-.268.31-.241.836.061 1.197l1.063 1.27c.01.013.012.028.022.042.012.012.027.017.038.03l3.93 4.697a.874.874 0 11-1.342 1.123l-3.93-4.697c-.01-.013-.013-.03-.022-.042-.012-.012-.027-.017-.038-.03a.875.875 0 00-.665-.313.861.861 0 00-.678.312c-.268.31-.241.835.06 1.196l1.124 1.342 2.807 3.355a.874.874 0 11-1.342 1.123l-2.807-3.355a.873.873 0 00-1.342-.001c-.268.31-.242.835.06 1.196l5.328 6.368c.381.455.91.77 1.494.888l4.288.867c.195.04.37.144.498.296l5.054 6.04 8.052-6.739-5.053-6.04a.873.873 0 01-.194-.424l-.643-4.082z" fill="#F8B000"/><path d="M34.75 54.875a.875.875 0 100-1.75.875.875 0 000 1.75zm3.5 0a.875.875 0 100-1.75.875.875 0 000 1.75zm3.5 0a.875.875 0 100-1.75.875.875 0 000 1.75zm-3.5-5.25h-3.5a.875.875 0 100 1.75h3.5a.875.875 0 100-1.75z" fill="#fff"/></g><defs><clipPath id="clip0_6484_28838"><path fill="#fff" transform="translate(12 12)" d="M0 0h56v56H0z"/></clipPath></defs></svg>