<svg width="64" height="64" fill="none" xmlns="http://www.w3.org/2000/svg"><g clip-path="url(#clip0_6484_28621)"><path d="M12.07 12.07l34.878 36.944s1.189.839 2.097-.14c.909-.977.21-1.955.21-1.955L12.07 12.07zm11.044 3.492l26.56 28.634s1.189.838 2.097-.14c.909-.978.21-1.955.21-1.955L23.114 15.56zm-7.759 7.473l26.56 28.633s1.189.839 2.098-.14c.908-.977.21-1.955.21-1.955L15.354 23.035zm17.095-4.47L51.005 38.57s.83.585 1.465-.098c.635-.683.147-1.366.147-1.366L32.448 18.565zm-14.54 13.13l18.556 20.004s.83.586 1.465-.097c.635-.683.147-1.366.147-1.366L17.911 31.695zm24.075-8.8l8.41 9.094s.41.275.725-.046c.314-.32.072-.64.072-.64l-9.207-8.408zm-19.43 18.018l8.41 9.095s.41.274.724-.046c.315-.32.073-.64.073-.64l-9.207-8.409z" fill="#DF4F4F"/></g><defs><clipPath id="clip0_6484_28621"><path fill="#fff" transform="translate(12 12)" d="M0 0h40.8v40H0z"/></clipPath></defs></svg>