<svg width="64" height="64" fill="none" xmlns="http://www.w3.org/2000/svg"><g clip-path="url(#clip0_6484_28637)"><path fill-rule="evenodd" clip-rule="evenodd" d="M25.381 15.718c-1.103-.357-1.925-.293-2.511.045-.587.338-1.053 1.019-1.296 2.152-.242 1.134-.235 2.624.048 4.392.109.68.257 1.393.445 2.135a41.66 41.66 0 015.334-.83 41.643 41.643 0 013.386-4.205 24.626 24.626 0 00-1.626-1.452c-1.39-1.13-2.677-1.88-3.78-2.237zM32 18.16a26.34 26.34 0 00-1.742-1.556c-1.486-1.208-2.963-2.096-4.342-2.542-1.378-.446-2.755-.476-3.916.194-1.16.67-1.823 1.878-2.126 3.295-.303 1.417-.272 3.14.03 5.03.118.733.277 1.497.477 2.287-.784.222-1.526.467-2.218.731-1.79.683-3.297 1.518-4.373 2.489-1.075.97-1.79 2.148-1.79 3.488 0 1.34.715 2.518 1.79 3.49 1.076.97 2.584 1.805 4.373 2.488a26.47 26.47 0 002.218.73c-.2.79-.359 1.555-.476 2.287-.303 1.891-.334 3.614-.031 5.031.303 1.417.965 2.625 2.126 3.295 1.16.67 2.538.64 3.916.194 1.38-.446 2.856-1.334 4.342-2.542A26.37 26.37 0 0032 44.994a26.338 26.338 0 001.742 1.556c1.486 1.207 2.963 2.096 4.342 2.542 1.378.446 2.755.476 3.916-.194 1.16-.67 1.823-1.878 2.126-3.295.303-1.417.272-3.14-.03-5.03a26.36 26.36 0 00-.477-2.288 26.336 26.336 0 002.218-.73c1.79-.683 3.297-1.518 4.373-2.489 1.075-.97 1.79-2.148 1.79-3.489 0-1.34-.715-2.517-1.79-3.488-1.076-.971-2.584-1.806-4.373-2.489a26.336 26.336 0 00-2.218-.73c.2-.791.359-1.555.476-2.288.303-1.89.334-3.613.031-5.03-.303-1.417-.965-2.625-2.126-3.295-1.16-.67-2.538-.64-3.916-.194-1.38.446-2.856 1.334-4.342 2.542A26.37 26.37 0 0032 18.161zm0 2.496a38.452 38.452 0 00-2.33 2.8 51.26 51.26 0 014.66 0 38.478 38.478 0 00-2.33-2.8zm-5.868 4.842a38.49 38.49 0 00-3.59.618 38.464 38.464 0 001.26 3.417 51.093 51.093 0 012.33-4.035zm-1.407 6.078a48.726 48.726 0 011.702-3.217 48.77 48.77 0 011.935-3.083A48.759 48.759 0 0132 25.143c1.247 0 2.463.046 3.638.134a48.796 48.796 0 011.935 3.083 48.823 48.823 0 011.702 3.217 48.823 48.823 0 01-1.702 3.218 48.796 48.796 0 01-1.935 3.083 48.772 48.772 0 01-3.638.134c-1.247 0-2.463-.046-3.638-.134a48.796 48.796 0 01-1.935-3.083 48.728 48.728 0 01-1.702-3.218zm-1.923 0a41.658 41.658 0 01-1.948-5.034c-.736.208-1.428.436-2.071.682-1.673.639-2.967 1.378-3.827 2.155-.86.777-1.217 1.52-1.217 2.197s.356 1.421 1.217 2.198c.86.777 2.154 1.516 3.827 2.155.643.245 1.335.474 2.07.682a41.658 41.658 0 011.95-5.035zm-.26 5.46a38.485 38.485 0 011.26-3.416 51.096 51.096 0 002.33 4.034 38.452 38.452 0 01-3.59-.617zm-.475 1.676a24.598 24.598 0 00-.445 2.134c-.283 1.769-.29 3.259-.047 4.392.242 1.134.709 1.814 1.295 2.153.586.338 1.408.402 2.511.045 1.103-.357 2.39-1.107 3.78-2.237.534-.434 1.077-.92 1.626-1.452a41.657 41.657 0 01-3.386-4.205 41.657 41.657 0 01-5.334-.83zm11.146 5.035A24.598 24.598 0 0034.84 45.2c1.39 1.13 2.677 1.88 3.78 2.237 1.103.357 1.925.293 2.511-.045.587-.339 1.053-1.019 1.295-2.153.243-1.133.236-2.623-.047-4.392a24.636 24.636 0 00-.445-2.134 41.657 41.657 0 01-5.334.83 41.657 41.657 0 01-3.386 4.205zm1.117-4.05a38.476 38.476 0 01-2.33 2.8 38.476 38.476 0 01-2.33-2.8 51.26 51.26 0 004.66 0zm3.538-2.043a38.449 38.449 0 003.59-.617 38.485 38.485 0 00-1.26-3.417 51.096 51.096 0 01-2.33 4.034zm3.33-6.078a41.64 41.64 0 011.948 5.035 24.624 24.624 0 002.071-.682c1.673-.639 2.967-1.378 3.827-2.155.86-.777 1.217-1.52 1.217-2.198 0-.676-.356-1.42-1.217-2.197-.86-.777-2.154-1.516-3.827-2.155a24.633 24.633 0 00-2.07-.682 41.658 41.658 0 01-1.95 5.034zm.735-7.136a41.655 41.655 0 00-5.334-.829 41.657 41.657 0 00-3.386-4.205 24.626 24.626 0 011.626-1.452c1.39-1.13 2.677-1.88 3.78-2.237 1.103-.357 1.925-.293 2.511.045.587.338 1.053 1.019 1.295 2.152.243 1.134.236 2.624-.047 4.392-.109.68-.257 1.393-.445 2.135zm-.475 1.676a38.474 38.474 0 01-1.26 3.417 51.093 51.093 0 00-2.33-4.035c1.264.159 2.466.367 3.59.618zm-5.893 5.46a3.565 3.565 0 11-7.13 0 3.565 3.565 0 017.13 0z" fill="#61DAFB"/></g><defs><clipPath id="clip0_6484_28637"><path fill="#fff" transform="translate(12 12)" d="M0 0h40v40H0z"/></clipPath></defs></svg>