<svg width="80" height="80" fill="none" xmlns="http://www.w3.org/2000/svg"><g clip-path="url(#clip0_6484_28787)"><path d="M64.5 30.375H53.125V15.5a2.628 2.628 0 00-2.625-2.625h-35a2.628 2.628 0 00-2.625 2.625v26.25a2.628 2.628 0 002.625 2.625H26v3.5h-1.75a.875.875 0 000 1.75h17.5a.875.875 0 000-1.75H40v-3.5h4.375V64.5A2.628 2.628 0 0047 67.125h17.5a2.628 2.628 0 002.625-2.625V33a2.628 2.628 0 00-2.625-2.625zm-18.375 7h19.25v21h-19.25v-21zM65.375 33v2.625h-19.25V33c0-.482.393-.875.875-.875h17.5c.482 0 .875.393.875.875zM15.5 14.625h35c.482 0 .875.393.875.875v14.875H47A2.628 2.628 0 0044.375 33v4.375h-29.75V15.5c0-.482.393-.875.875-.875zm22.75 33.25h-10.5v-3.5h10.5v3.5zm-22.75-5.25a.876.876 0 01-.875-.875v-2.625h29.75v3.5H15.5zm49 22.75H47a.876.876 0 01-.875-.875v-4.375h19.25V64.5a.876.876 0 01-.875.875z" fill="#fff"/><path d="M58.375 61.875h-5.25a.875.875 0 000 1.75h5.25a.875.875 0 000-1.75zm4.375-5.25a.875.875 0 100-1.75.875.875 0 000 1.75zm-37.625-35a.875.875 0 100-1.75.875.875 0 000 1.75zm3.5 0a.875.875 0 100-1.75.875.875 0 000 1.75zm3.5 0h14.513l-1.132 1.131a.874.874 0 101.238 1.238l2.625-2.625a.874.874 0 000-1.238l-2.625-2.625a.874.874 0 10-1.238 1.238l1.132 1.131H32.125a.875.875 0 000 1.75zm8.75 8.75a.875.875 0 100-1.75.875.875 0 000 1.75zm-3.5 0a.875.875 0 100-1.75.875.875 0 000 1.75zm-18.119 2.369a.873.873 0 001.238 0 .874.874 0 000-1.238l-1.132-1.131h14.513a.875.875 0 000-1.75H19.362l1.132-1.131a.874.874 0 10-1.238-1.238l-2.625 2.625a.874.874 0 000 1.238l2.625 2.625zm43.494 6.381a.875.875 0 00-.875.875v12.25a.875.875 0 001.75 0V40a.875.875 0 00-.875-.875z" fill="#F8B000"/></g><defs><clipPath id="clip0_6484_28787"><path fill="#fff" transform="translate(12 12)" d="M0 0h56v56H0z"/></clipPath></defs></svg>