<svg width="80" height="80" fill="none" xmlns="http://www.w3.org/2000/svg"><g clip-path="url(#clip0_6484_28801)"><path d="M41.32 35.733a.876.876 0 001.735-.216l-.875-7a.874.874 0 10-1.736.217l.875 7z" fill="#F8B000"/><path d="M62.75 19.875h-3.5a.875.875 0 100 1.75h3.5a2.628 2.628 0 012.625 2.625v28.875h-50.75V24.25a2.628 2.628 0 012.625-2.625h3.5a.875.875 0 100-1.75h-3.5a4.38 4.38 0 00-4.375 4.375V57.5a4.38 4.38 0 004.375 4.375h10.5v3.5h-3.5a.875.875 0 100 1.75h31.5a.875.875 0 100-1.75h-3.5v-3.5h10.5a4.38 4.38 0 004.375-4.375V24.25a4.38 4.38 0 00-4.375-4.375zm-12.25 45.5h-21v-3.5h21v3.5zm12.25-5.25h-45.5a2.628 2.628 0 01-2.625-2.625v-2.625h50.75V57.5a2.628 2.628 0 01-2.625 2.625z" fill="#fff"/><path d="M27.75 21.625h2.625v1.75A2.628 2.628 0 0033 26h1.634l-1.532 12.25h-2.727a.875.875 0 00-.875.875v2.625h-.875a.875.875 0 00-.875.875v3.5c0 .483.391.875.875.875h22.75a.875.875 0 00.875-.875v-3.5a.875.875 0 00-.875-.875H50.5v-2.625a.875.875 0 00-.875-.875h-2.727L45.366 26H47a2.628 2.628 0 002.625-2.625v-1.75h2.625a.875.875 0 100-1.75h-2.625v-3.5a.875.875 0 00-.875-.875h-3.5a.875.875 0 00-.875.875v4.375h-1.75v-4.375a.875.875 0 00-.875-.875h-3.5a.875.875 0 00-.875.875v4.375h-1.75v-4.375a.875.875 0 00-.875-.875h-3.5a.875.875 0 00-.875.875v3.5H27.75a.875.875 0 100 1.75zM50.5 45.25h-21V43.5h21v1.75zm-1.75-3.5h-17.5V40h17.5v1.75zm-3.616-3.5H34.866L36.398 26h7.205l1.53 12.25zm-13.009-21h1.75v4.375c0 .483.391.875.875.875h3.5a.875.875 0 00.875-.875V17.25h1.75v4.375c0 .483.391.875.875.875h3.5a.875.875 0 00.875-.875V17.25h1.75v6.125a.876.876 0 01-.875.875H33a.876.876 0 01-.875-.875V17.25zm23.625-2.625a.875.875 0 100-1.75.875.875 0 000 1.75zm3.5 17.5a.875.875 0 100-1.75.875.875 0 000 1.75z" fill="#F8B000"/><path d="M47.875 27.75c0 .483.391.875.875.875h7a.875.875 0 00.875-.875v-10.5a.875.875 0 10-1.75 0v9.625H48.75a.875.875 0 00-.875.875zm7.875 18.375a.875.875 0 100-1.75.875.875 0 000 1.75zm.875-11.375a.875.875 0 00-.875-.875h-7a.875.875 0 100 1.75h6.125v6.125a.875.875 0 101.75 0v-7zm-.875-4.375h-7a.875.875 0 100 1.75h7a.875.875 0 100-1.75zm-31.5-15.75a.875.875 0 100-1.75.875.875 0 000 1.75zm-3.5 17.5a.875.875 0 100-1.75.875.875 0 000 1.75zm3.5-3.5h7a.875.875 0 100-1.75h-6.125V17.25a.875.875 0 10-1.75 0v10.5c0 .483.391.875.875.875zm0 17.5a.875.875 0 100-1.75.875.875 0 000 1.75zm0-3.5a.875.875 0 00.875-.875v-6.125h6.125a.875.875 0 100-1.75h-7a.875.875 0 00-.875.875v7c0 .483.391.875.875.875zm0-10.5h7a.875.875 0 100-1.75h-7a.875.875 0 100 1.75z" fill="#F8B000"/><path d="M47 56.625H33a.875.875 0 100 1.75h14a.875.875 0 100-1.75z" fill="#fff"/></g><defs><clipPath id="clip0_6484_28801"><path fill="#fff" transform="translate(12 12)" d="M0 0h56v56H0z"/></clipPath></defs></svg>