<svg width="80" height="80" fill="none" xmlns="http://www.w3.org/2000/svg"><g clip-path="url(#clip0_6484_28821)"><path d="M59.25 12.875h3.5a4.38 4.38 0 014.375 4.375V50.5a4.38 4.38 0 01-4.375 4.375h-10.5v3.5h3.5a.875.875 0 110 1.75H46.5v-1.75h4v-5.25h12.25a2.628 2.628 0 002.625-2.625v-2.625H48.687v-1.75h16.688V17.25a2.628 2.628 0 00-2.625-2.625h-45.5a2.628 2.628 0 00-2.625 2.625v28.875h15.688v1.75H14.624V50.5a2.628 2.628 0 002.625 2.625h11.375l.875 1.75v3.5h4v1.75h-9.25a.875.875 0 110-1.75h3.5v-3.5h-10.5a4.38 4.38 0 01-4.375-4.375V17.25a4.38 4.38 0 014.375-4.375h42z" fill="#fff"/><path d="M26.25 32h-7a.874.874 0 100 1.75h7a.874.874 0 100-1.75zm0-4h-7a.874.874 0 100 1.75h7a.874.874 0 100-1.75zm0-4h-7a.874.874 0 100 1.75h7a.874.874 0 100-1.75zm0 11.5h-7a.874.874 0 100 1.75h7a.874.874 0 100-1.75zm35.5-3.5h-4a.874.874 0 100 1.75h4a.874.874 0 100-1.75zm-35.5-13.875h-7a.874.874 0 100 1.75h7a.874.874 0 100-1.75zm32 0h-7a.874.874 0 100 1.75h7a.874.874 0 100-1.75zm3.5 17.375h-7a.874.874 0 100 1.75h7a.874.874 0 100-1.75zm0-15.625a.875.875 0 100-1.75.875.875 0 000 1.75zm-32 0a.875.875 0 100-1.75.875.875 0 000 1.75zm3.5 0a.875.875 0 100-1.75.875.875 0 000 1.75z" fill="#fff"/><path fill-rule="evenodd" clip-rule="evenodd" d="M29.5 45.375v7.522c0 .99.341 1.96.959 2.734L33 58.807v8.443c0 .484.391.875.875.875h12.25A.874.874 0 0047 67.25v-8.508l2.001-3.335c.409-.68.624-1.46.624-2.251v-7.781l-.087-1.733a4.381 4.381 0 00-4.288-3.517V32.25h7a.874.874 0 00.875-.875v-7a.874.874 0 00-.875-.875H33a.874.874 0 00-.875.875v7c0 .484.391.875.875.875h7v6.182a2.67 2.67 0 00-1.31-.117c-.996.163-1.797.93-2.08 1.908a2.658 2.658 0 00-1.42-.157c-1.024.167-1.842.973-2.102 1.991a2.657 2.657 0 00-1.398-.148c-.93.151-1.687.831-2.015 1.715l-.175 1.751zm18 9.132a2.63 2.63 0 00.375-1.351V44.5a2.628 2.628 0 00-2.625-2.625v7a.874.874 0 11-1.75 0V31.469c0-.471-.317-.89-.722-.957a.877.877 0 00-1.028.863v17.5a.874.874 0 11-1.75 0v-7.969a.875.875 0 00-1.029-.862c-.404.065-.721.485-.721.956v1.656c0 .01-.002.017-.005.025l-.005.022c0 .008.003.015.005.022a.085.085 0 01.005.025v6.125a.874.874 0 11-1.75 0V42.75a.07.07 0 01.005-.025.087.087 0 00.005-.021c0-.008-.003-.016-.005-.023a.07.07 0 01-.005-.025c0-.256-.113-.5-.309-.666a.861.861 0 00-.72-.196c-.404.065-.721.485-.721.956v6.125a.874.874 0 11-1.75 0V44.5a.874.874 0 00-1.028-.862c-.405.066-.722.486-.722.956v8.303c0 .594.204 1.175.576 1.64l2.732 3.416a.877.877 0 01.192.547v7.875h10.5V58.5c0-.16.043-.314.124-.45l2.127-3.543zm-4.44-25.721c.941.153 1.707.847 2.027 1.747.054-.011.105-.033.163-.033h6.125v-5.25h-17.5v5.25H40c.055 0 .103.022.156.032.15-.442.405-.846.77-1.156a2.633 2.633 0 012.134-.59z" fill="#F8B000"/></g><defs><clipPath id="clip0_6484_28821"><path fill="#fff" transform="translate(12 12)" d="M0 0h56v56H0z"/></clipPath></defs></svg>