<svg width="81" height="48" fill="none" xmlns="http://www.w3.org/2000/svg"><path d="M22.787 17.512c0 .976.105 1.767.29 2.347.21.58.475 1.213.844 1.9.132.21.184.421.184.606 0 .264-.158.527-.5.791l-1.662 1.108c-.238.158-.475.237-.686.237-.264 0-.527-.132-.791-.37a8.157 8.157 0 01-.95-1.239c-.263-.448-.527-.95-.817-1.556-2.057 2.427-4.642 3.64-7.754 3.64-2.215 0-3.982-.633-5.275-1.9-1.292-1.265-1.951-2.953-1.951-5.063 0-2.242.79-4.061 2.4-5.433 1.608-1.371 3.745-2.057 6.461-2.057.897 0 1.82.08 2.796.211.976.132 1.978.343 3.033.58V9.39c0-2.004-.422-3.402-1.24-4.22-.844-.817-2.268-1.213-4.299-1.213a12 12 0 00-2.848.343c-.976.237-1.925.527-2.848.897a7.54 7.54 0 01-.923.342c-.185.053-.317.08-.422.08-.37 0-.554-.264-.554-.818V3.508c0-.422.052-.739.184-.923.132-.185.37-.37.739-.554.923-.475 2.03-.87 3.323-1.187C10.813.5 12.185.343 13.635.343c3.139 0 5.433.712 6.91 2.136 1.45 1.424 2.19 3.587 2.19 6.488v8.545h.052zm-10.708 4.009c.87 0 1.767-.158 2.717-.475.95-.316 1.793-.897 2.505-1.688.422-.5.739-1.055.897-1.688a9.466 9.466 0 00.264-2.294v-1.108a22.006 22.006 0 00-2.427-.448 19.873 19.873 0 00-2.479-.159c-1.767 0-3.06.343-3.93 1.055-.87.713-1.292 1.715-1.292 3.033 0 1.24.317 2.163.976 2.796.633.66 1.556.976 2.77.976zm21.178 2.848c-.475 0-.791-.079-1.002-.264-.211-.158-.396-.527-.554-1.028L25.503 2.69c-.158-.527-.237-.87-.237-1.055 0-.422.21-.66.633-.66h2.584c.502 0 .845.08 1.03.264.21.159.368.528.527 1.03l4.43 17.458 4.115-17.459c.132-.527.29-.87.5-1.029.212-.158.58-.263 1.056-.263h2.11c.5 0 .843.079 1.055.263.21.159.395.528.5 1.03l4.168 17.67 4.562-17.67c.158-.528.343-.871.528-1.03.21-.158.554-.263 1.028-.263h2.453c.422 0 .66.21.66.66 0 .131-.027.263-.053.421a3.87 3.87 0 01-.185.66l-6.356 20.386c-.158.528-.343.87-.554 1.029-.21.158-.554.263-1.002.263h-2.268c-.501 0-.844-.079-1.055-.263-.211-.185-.396-.528-.501-1.055L41.143 6.066 37.08 23.05c-.132.527-.29.87-.5 1.054-.212.185-.581.264-1.056.264h-2.268zm33.89.712c-1.371 0-2.743-.158-4.061-.474-1.319-.317-2.347-.66-3.033-1.055-.422-.238-.712-.502-.818-.739a1.861 1.861 0 01-.158-.738V20.73c0-.554.21-.818.607-.818.158 0 .316.026.474.08.158.052.396.157.66.263.896.396 1.872.712 2.9.923 1.056.21 2.084.316 3.14.316 1.66 0 2.953-.29 3.85-.87.896-.58 1.371-1.424 1.371-2.505 0-.739-.237-1.345-.712-1.846-.475-.502-1.371-.95-2.664-1.372l-3.824-1.187c-1.925-.606-3.35-1.503-4.22-2.69-.87-1.16-1.318-2.453-1.318-3.824 0-1.108.237-2.084.712-2.928a6.78 6.78 0 011.899-2.162c.79-.607 1.688-1.055 2.743-1.372C65.75.422 66.857.29 68.017.29c.58 0 1.186.026 1.767.106.606.079 1.16.184 1.714.29a20.49 20.49 0 011.503.422c.475.158.844.316 1.108.474.37.211.633.422.791.66.158.21.237.5.237.87v1.24c0 .553-.21.844-.606.844-.211 0-.554-.106-1.002-.317-1.504-.686-3.192-1.029-5.064-1.029-1.503 0-2.69.238-3.508.739-.817.501-1.24 1.266-1.24 2.347 0 .739.264 1.372.792 1.873.527.5 1.503 1.002 2.901 1.45l3.745 1.187c1.899.607 3.27 1.45 4.088 2.532.817 1.081 1.213 2.32 1.213 3.692 0 1.134-.237 2.163-.686 3.06a7.094 7.094 0 01-1.925 2.32c-.817.66-1.793 1.134-2.927 1.477-1.187.37-2.427.554-3.772.554z" fill="#252F3E"/><path fill-rule="evenodd" clip-rule="evenodd" d="M72.132 37.899c-8.677 6.409-21.284 9.81-32.123 9.81-15.191 0-28.88-5.617-39.218-14.953-.817-.738-.079-1.74.897-1.16 11.182 6.488 24.976 10.417 39.244 10.417 9.626 0 20.202-2.004 29.934-6.118 1.45-.66 2.69.949 1.266 2.004z" fill="#F90"/><path fill-rule="evenodd" clip-rule="evenodd" d="M75.745 33.785c-1.108-1.424-7.332-.686-10.154-.343-.844.105-.976-.633-.21-1.187 4.957-3.481 13.107-2.479 14.056-1.319.95 1.187-.263 9.337-4.905 13.24-.712.606-1.398.29-1.081-.501 1.055-2.611 3.402-8.492 2.294-9.89z" fill="#F90"/></svg>