<svg width="49" height="48" fill="none" xmlns="http://www.w3.org/2000/svg"><path fill-rule="evenodd" clip-rule="evenodd" d="M24.998 3.362a20.558 20.558 0 0113.96 5.44c-1.801-.048-3.599 1.022-3.673 3.474-.151 4.955 5.926 6.01 2.651 15.979L35.227 36.5 27.85 14.769c-.114-.337.019-.528.432-.528h2.086a.202.202 0 00.197-.206V12.8c0-.114-.089-.21-.197-.206-3.95.173-7.876.174-11.779 0-.109-.005-.197.093-.197.206v1.236c0 .113.089.205.197.205h2.097c.467 0 .597.156.707.457l3.031 8.29-4.56 13.768-7.495-22.077c-.092-.277.02-.438.287-.438h2.39a.202.202 0 00.196-.206V12.8c0-.113-.089-.212-.197-.206-2.507.133-5.024.16-7.368.184 3.679-5.667 10.062-9.417 17.32-9.417H25zm18.15 10.81a20.536 20.536 0 012.486 9.825c0 7.806-4.337 14.6-10.731 18.107l6.436-18.229c.997-2.82 1.922-6.633 1.809-9.703zm-11.24 29.274a20.573 20.573 0 01-6.91 1.188 20.64 20.64 0 01-6.001-.888l6.357-18.218 6.553 17.919zm-15.74-.793c-6.979-3.31-11.806-10.42-11.806-18.655 0-3.053.664-5.95 1.854-8.558l9.952 27.213zm8.83-41.228c12.464 0 22.572 10.108 22.572 22.572 0 12.464-10.108 22.572-22.572 22.572-12.464 0-22.572-10.108-22.572-22.572 0-12.463 10.108-22.572 22.572-22.572zm0-1.426c13.252 0 24 10.747 24 23.999 0 13.252-10.748 24-24 24s-24-10.748-24-24 10.748-24 24-24z" fill="#2F6E91"/></svg>