<svg width="97" height="48" fill="none" xmlns="http://www.w3.org/2000/svg"><path d="M7.596 10.094h14.237c4.18.036 7.207 1.234 9.085 3.595 1.877 2.361 2.496 5.586 1.859 9.674-.248 1.868-.797 3.7-1.647 5.498a16.34 16.34 0 01-3.4 4.863c-1.77 1.833-3.665 2.996-5.684 3.49a26.33 26.33 0 01-6.269.74H9.402L7.384 47.997H-.001l7.597-37.904zm6.216 6.027L10.624 31.98c.213.035.425.053.638.053h.743c3.4.035 6.234-.3 8.5-1.005 2.267-.74 3.79-3.313 4.569-7.718.637-3.7 0-5.832-1.913-6.396-1.877-.564-4.232-.829-7.065-.793-.425.035-.832.053-1.222.053h-1.116l.054-.053zM41.19 0h7.332L46.45 10.097h6.587c3.613.07 6.304.81 8.075 2.22 1.806 1.41 2.337 4.088 1.594 8.035l-3.56 17.604H51.71l3.4-16.81c.354-1.763.248-3.014-.319-3.754-.566-.74-1.788-1.11-3.665-1.11l-5.897-.053-4.356 21.727H33.54L41.19 0zm29.389 10.094h14.237c4.18.036 7.207 1.234 9.084 3.595 1.877 2.361 2.497 5.586 1.86 9.674-.248 1.868-.797 3.7-1.647 5.498a16.34 16.34 0 01-3.4 4.863c-1.771 1.833-3.666 2.996-5.684 3.49-2.02.493-4.109.74-6.27.74h-6.374l-2.019 10.044h-7.384l7.597-37.904zm6.215 6.027L73.607 31.98c.212.035.425.053.637.053h.744c3.4.035 6.233-.3 8.5-1.005 2.266-.74 3.79-3.313 4.569-7.718.637-3.7 0-5.832-1.913-6.396-1.877-.564-4.232-.829-7.065-.793-.425.035-.833.053-1.222.053H76.74l.053-.053z" fill="#000"/></svg>