<svg width="67" height="48" fill="none" xmlns="http://www.w3.org/2000/svg"><g clip-path="url(#clip0)"><path d="M13.41 38.682c-1.898 0-3.622-1.552-3.622-3.449 0-1.897 1.552-3.449 3.621-3.449 2.07 0 3.621 1.552 3.621 3.45 0 1.896-1.724 3.448-3.62 3.448zM57.9 19.886c-.345-2.76-2.07-5.001-4.311-6.726l-.863-.69-.69.863c-1.379 1.552-1.896 4.31-1.724 6.38.173 1.552.69 3.104 1.552 4.311-.69.345-1.552.69-2.242 1.035-1.552.517-3.104.69-4.656.69H.304L.13 26.783a19.4 19.4 0 001.552 9.83l.69 1.207v.172C6.51 44.89 13.927 47.994 22.03 47.994c15.52 0 28.281-6.725 34.317-21.21 3.966.172 7.932-.863 9.829-4.657l.517-.862-.862-.517c-2.242-1.38-5.346-1.552-7.932-.862zm-22.246-2.76H28.93v6.726h6.725v-6.725zm0-8.45H28.93v6.726h6.725V8.677zm0-8.621H28.93V6.78h6.725V.055zm8.278 17.072h-6.726v6.725h6.726v-6.725zm-25.005 0h-6.725v6.725h6.725v-6.725zm8.45 0h-6.725v6.725h6.725v-6.725zm-16.727 0H3.925v6.725h6.725v-6.725zm16.727-8.45h-6.725v6.725h6.725V8.677zm-8.45 0h-6.725v6.725h6.725V8.677z" fill="#488FDF"/></g><defs><clipPath id="clip0"><path fill="#fff" d="M0 0h66.761v48H0z"/></clipPath></defs></svg>