<svg width="48" height="48" fill="none" xmlns="http://www.w3.org/2000/svg"><g clip-path="url(#clip0)" fill="#000"><path d="M35 22.628h.98c.209-.445.209-1.099 0-1.841-.207-1.099-.534-1.841-1.187-1.752-.654.118-.654.98-.446 2.079.09.653.327 1.188.654 1.514zm-5.761.978c.445.208.772.327.861.208.119-.119 0-.208-.119-.445-.208-.446-.772-.773-1.188-.98-1.099-.446-2.287-.327-3.267.445-.326.208-.653.535-.534.772 0 .119.118.119.207.119.208 0 1.188-.446 2.287-.535.654-.03 1.307.208 1.753.416zm-.98.536c-.654.12-.98.327-1.188.535-.208.208-.327.327-.327.445v.12h.119c.119 0 .445-.12.445-.12.861-.326 1.426-.326 1.96-.207.327 0 .446.118.535 0v-.208c-.03-.327-.683-.654-1.544-.565z"/><path d="M28.585 24.914c.208-.446.208-1.426 0-2.169-.208-1.098-.534-1.752-1.306-1.752-.654.119-.654.98-.446 2.168.119.773.446 1.188.535 1.515.564.891.89.654 1.217.238zm4.455 1.189c.446.208.862.119 1.1-.208.118-.327-.12-.772-.535-.98-.446-.208-.861-.119-1.1.208-.237.327.09.772.535.98zm2.703-2.376c-.327 0-.653.327-.653.862 0 .445.208.861.653.861.327 0 .654-.326.654-.861-.09-.446-.327-.861-.654-.861zM12.725 32.19c-.119-.118-.208-.118-.327 0h-.326c-.208 0-.446-.118-.535-.326-.089-.208-.119-.535 0-.98l.119-.208c.327-.653.772-1.633.208-2.613-.446-.773-.98-1.188-1.753-1.307a2.1 2.1 0 00-1.96.772c-.772.861-.861 1.96-.772 2.376 0 .119.119.208.208.208.119 0 .327-.119.445-.446v-.119c0-.207.12-.445.327-.772.208-.326.535-.534.861-.534.327-.12.773 0 1.1.208.534.326.772.98.534 1.633-.327.327-.445.861-.445 1.426.118.98.772 1.425 1.306 1.514.535 0 .98-.326.98-.534.12-.178.03-.178.03-.297z"/><path d="M44.327 30.35c0-.12-.119-.535-.327-1.188l-.446-.98c.773-1.1.773-2.169.654-2.703-.119-.654-.446-1.307-.98-1.96-.535-.654-1.842-1.307-3.475-1.753l-.861-.208s0-2.079-.12-2.94c0-.653-.118-1.634-.445-2.614-.326-1.307-.98-2.495-1.841-3.267 2.168-2.287 3.594-4.9 3.594-7.069 0-4.128-5.109-5.435-11.524-2.821l-1.307.534s-2.376-2.376-2.495-2.376c-7.04-6.296-29.523 18.8-22.365 24.89L3.904 27.2c-.446 1.1-.535 2.287-.446 3.594.208 1.634 1.1 3.267 2.377 4.574 1.306 1.188 3.029 1.96 4.781 1.96 2.822 6.535 9.237 10.425 16.722 10.663 8.049.208 14.88-3.594 17.702-10.336.208-.445.98-2.614.98-4.574.178-1.99-.921-2.732-1.693-2.732zM11.3 35.458c-.208 0-.535.119-.773 0-2.376-.119-5.108-2.287-5.316-4.9-.208-2.822 1.188-4.99 3.802-5.555.326-.118.653-.118 1.098-.118 1.426.118 3.594 1.188 4.129 4.336.416 2.97-.208 5.792-2.94 6.237zM8.597 23.281c-1.634.327-3.03 1.188-3.92 2.495-.535-.446-1.516-1.307-1.634-1.634-1.426-2.613 1.514-7.811 3.593-10.662C11.626 6.322 19.556.887 23.15 1.837c.654.208 2.614 2.495 2.614 2.495s-3.683 2.079-7.069 4.9c-4.574 3.386-8.049 8.495-10.098 14.049zm25.631 11.078l.12-.119c0-.118-.12-.118-.12-.118s-3.801.534-7.395-.773c.446-1.306 1.426-.86 3.03-.653 2.821.208 5.435-.208 7.276-.772 1.634-.446 3.802-1.426 5.435-2.703.535 1.188.773 2.614.773 2.614s.445-.12.772.118c.327.208.535.654.445 1.753-.326 2.168-1.306 3.801-2.702 5.435-.862.98-2.08 1.842-3.357 2.495-.653.327-1.425.653-2.168.861-5.88 1.842-11.732-.118-13.573-4.574-.119-.326-.327-.653-.327-1.099-.772-2.94-.119-6.415 2.08-8.583a.792.792 0 00.207-.535c0-.208-.119-.326-.208-.445-.772-1.1-3.356-2.94-2.821-6.534.326-2.614 2.613-4.337 4.663-4.248h.534c.862 0 1.753.208 2.377.208 1.188 0 2.376-.119 3.682-1.188.446-.326.773-.653 1.426-.772.119 0 .208-.119.535 0 .326 0 .653.119.86.327 1.1.772 1.189 2.376 1.308 3.683 0 .772.119 2.495.119 2.94.118 1.099.326 1.307.98 1.515.326.119.653.208 1.099.326 1.425.446 2.287.773 2.821 1.307.327.327.446.654.535.98.208 1.189-.98 2.703-3.92 4.129-3.268 1.515-7.07 1.841-9.772 1.515l-.98-.12c-2.168-.326-3.357 2.496-2.08 4.337.862 1.188 3.149 2.08 5.317 2.08 5.227 0 9.237-2.169 10.663-4.13l.118-.207c.12-.119 0-.208-.118-.119-1.188.861-6.624 4.128-12.386 3.148 0 0-.653-.119-1.306-.326-.535-.208-1.515-.654-1.753-1.753 4.871 1.426 7.811 0 7.811 0zM17.923 13.51c1.752-2.079 4.01-3.92 5.97-4.9.118 0 .118 0 .118.119-.118.326-.445.86-.534 1.306 0 .12.119.12.119.12 1.188-.862 3.356-1.753 5.227-1.842.119 0 .119.119.119.119-.327.207-.535.534-.862.86 0 0 0 .12.12.12 1.306 0 3.148.445 4.335 1.188.12 0 0 .208-.118.208-1.842-.446-4.782-.773-7.93 0-2.822.653-4.901 1.752-6.416 2.821-.148-.03-.237-.03-.148-.119z"/></g><defs><clipPath id="clip0"><path fill="#fff" d="M0 0h48v48H0z"/></clipPath></defs></svg>