<svg width="433" height="248" fill="none" xmlns="http://www.w3.org/2000/svg"><path d="M47 212.5H8.5a8 8 0 01-8-8v-81m98.5-89H8.5a8 8 0 00-8 8v81m0 0H76" stroke="#C4C4C4" stroke-linecap="round" stroke-linejoin="round" stroke-dasharray="4 4"/><rect x="99" width="333.305" height="72" rx="8" fill="#F7F3FA"/><path fill-rule="evenodd" clip-rule="evenodd" d="M167.491 28.165c-3.468-9.575-14.045-14.525-23.619-11.059-5.559 2.012-9.559 6.422-11.258 11.635a16.651 16.651 0 00-2.848-.247c-8.107 0-14.766 5.828-14.766 13.178 0 6.826 5.611 12.342 13.168 13.09l.033.003h2.834a.69.69 0 100-1.38h-2.765c-6.969-.704-11.891-5.734-11.891-11.713 0-6.44 5.885-11.798 13.387-11.798 1.094 0 2.16.12 3.182.336l.628.133.178-.616c1.463-5.07 5.248-9.391 10.588-11.324 8.857-3.206 18.643 1.373 21.852 10.23.565 1.565.898 3.15.997 4.72l.035.548.542.089c5.264.866 9.157 4.914 9.157 9.654 0 5.018-3.957 9.233-9.938 9.77h-15.692a.69.69 0 100 1.379h15.753l.03-.003c6.602-.578 11.227-5.301 11.227-11.146 0-5.378-4.25-9.782-9.78-10.917a18.532 18.532 0 00-1.034-4.562zm-11.427 12.113v7.273h1.318v-3.09h3.37v3.09h1.321v-7.273h-1.321v3.08h-3.37v-3.08h-1.318zm6.969 7.273h1.407l.601-1.793h2.735l.602 1.793h1.406l-2.564-7.273h-1.626l-2.561 7.273zm4.387-2.851l-.984-2.93h-.057l-.983 2.93h2.024zm-12.103-8.953c-.008 1.685-2.971 3.05-6.624 3.05l-.185-.001c.932.656 1.494 1.36 1.494 2.203 0 .095.001.19.004.285 3.029-.28 5.311-1.516 5.311-2.997v-2.54zm0-.014v-.057h-.002l.002.057zm-13.245-.057h-.002v.017h.001l.001-.017zm13.245-3.364c0 1.688-2.966 3.056-6.624 3.056-3.652 0-6.614-1.364-6.623-3.05v2.54c0 1.69 2.966 3.058 6.623 3.058 3.658 0 6.624-1.369 6.624-3.057v-2.547zm0 0v-.064h-.002l.002.064zm-13.245-.064a1.066 1.066 0 00-.002.056v-.056h.002zm13.245-3.36v-.068h-.002c-.073-1.659-3.01-2.993-6.622-2.993-3.611 0-6.548 1.335-6.621 2.993h-.002v2.611c0 1.689 2.966 3.057 6.623 3.057 3.658 0 6.624-1.368 6.624-3.057V28.89zm-6.464 20.45c0 2.006-3.526 3.633-7.874 3.633-4.343 0-7.865-1.622-7.875-3.625v3.02c0 2.007 3.526 3.634 7.875 3.634 4.348 0 7.874-1.627 7.874-3.634v-3.029zm0 0v-.077h-.002l.002.076zm-15.747-.077a1.499 1.499 0 00-.002.067v-.067h.002zm7.873-.366c4.348 0 7.874-1.627 7.874-3.634v3.029c0 2.007-3.526 3.634-7.874 3.634-4.349 0-7.875-1.627-7.875-3.634v-3.02c.01 2.003 3.532 3.625 7.875 3.625zm7.874-3.634l-.002-.076h.002v.076zm-15.749-.008l.002-.068h-.002v.068zm7.875-7.53c-4.169 0-7.58 1.495-7.857 3.386h-.018v3.105c0 2.007 3.526 3.634 7.875 3.634 4.348 0 7.874-1.627 7.874-3.634v-3.105h-.008l-.01-.002c-.279-1.89-3.69-3.384-7.856-3.384z" fill="#5E308C"/><path d="M195.743 43V29.91h8.118v1.7h-6.143v3.988h5.561v1.694h-5.561V43h-1.975zm12.304-13.09V43h-1.911V29.91h1.911zm5.429 13.307a4.013 4.013 0 01-1.688-.345 2.847 2.847 0 01-1.195-1.016c-.29-.443-.435-.987-.435-1.63 0-.554.107-1.01.32-1.368a2.36 2.36 0 01.863-.85 4.506 4.506 0 011.214-.473c.448-.107.904-.188 1.368-.243l1.432-.166c.367-.047.633-.122.799-.224.166-.102.249-.269.249-.499v-.044c0-.559-.157-.991-.473-1.298-.311-.307-.775-.46-1.393-.46-.643 0-1.151.143-1.521.428-.367.281-.62.595-.761.94l-1.796-.41c.213-.596.524-1.078.933-1.444.413-.37.889-.64 1.426-.805a5.555 5.555 0 011.693-.256c.392 0 .808.047 1.247.14.443.09.856.256 1.24.5.388.242.705.59.952 1.041.247.447.371 1.03.371 1.745V43h-1.866v-1.342h-.077c-.124.247-.309.49-.556.728a2.953 2.953 0 01-.953.595c-.387.157-.852.236-1.393.236zm.415-1.534c.529 0 .981-.104 1.356-.313a2.19 2.19 0 00.862-.818c.201-.341.301-.705.301-1.093v-1.266c-.068.068-.2.132-.396.192a6.219 6.219 0 01-.659.147 80.04 80.04 0 01-.722.109l-.588.076c-.371.047-.71.126-1.017.237-.302.11-.545.27-.728.48-.179.204-.269.477-.269.817 0 .473.175.831.524 1.074.35.239.795.358 1.336.358zm14.333-6.104l-1.732.307a2.078 2.078 0 00-.345-.633 1.717 1.717 0 00-.627-.492c-.264-.128-.594-.192-.991-.192-.541 0-.993.121-1.355.364-.362.239-.543.548-.543.927 0 .328.121.592.364.793.243.2.635.364 1.176.492l1.56.358c.903.209 1.577.53 2.02.965.443.435.665 1 .665 1.694 0 .588-.171 1.112-.512 1.572-.336.456-.807.814-1.412 1.074-.601.26-1.298.39-2.09.39-1.1 0-1.997-.234-2.692-.703-.694-.473-1.12-1.144-1.278-2.014l1.847-.28c.115.48.352.845.71 1.092.358.243.824.365 1.4.365.626 0 1.127-.13 1.502-.39.375-.264.562-.586.562-.965 0-.307-.115-.565-.345-.774-.226-.209-.573-.366-1.042-.473l-1.662-.364c-.916-.209-1.593-.541-2.032-.997-.435-.456-.652-1.034-.652-1.733 0-.58.162-1.086.485-1.52.324-.436.772-.774 1.343-1.017.571-.247 1.225-.371 1.962-.371 1.061 0 1.896.23 2.506.69.609.456 1.012 1.068 1.208 1.835zm4.204 1.591V43h-1.911V29.91h1.886v4.87h.121c.23-.529.582-.948 1.055-1.26.473-.31 1.091-.466 1.854-.466.673 0 1.261.139 1.764.415.507.277.899.69 1.176 1.24.281.546.422 1.228.422 2.046V43h-1.911v-6.015c0-.72-.186-1.278-.557-1.675-.37-.4-.886-.6-1.546-.6a2.53 2.53 0 00-1.215.287 2.068 2.068 0 00-.837.844c-.201.366-.301.81-.301 1.33zm17.93-3.125a4.006 4.006 0 00-.499-1.042 3.17 3.17 0 00-1.713-1.298 3.926 3.926 0 00-1.195-.172 3.62 3.62 0 00-1.994.569c-.593.379-1.061.935-1.407 1.668-.34.729-.511 1.621-.511 2.678 0 1.061.173 1.958.518 2.691.345.733.818 1.29 1.419 1.668.601.38 1.285.57 2.052.57.711 0 1.331-.146 1.86-.435.533-.29.944-.7 1.234-1.227.294-.533.441-1.16.441-1.88l.511.096h-3.746v-1.63h5.146v1.49c0 1.099-.235 2.053-.703 2.863a4.789 4.789 0 01-1.931 1.867c-.818.438-1.755.658-2.812.658-1.185 0-2.225-.273-3.12-.818-.89-.546-1.585-1.32-2.083-2.32-.499-1.006-.748-2.2-.748-3.58 0-1.044.145-1.982.434-2.813.29-.83.697-1.536 1.221-2.115a5.342 5.342 0 011.86-1.336 5.825 5.825 0 012.346-.467 6.05 6.05 0 011.975.313 5.334 5.334 0 011.637.889 5.032 5.032 0 011.834 3.113h-2.026zm4.47 8.955v-9.818h1.847v1.56h.102c.179-.529.495-.944.946-1.247.456-.307.972-.46 1.547-.46a8.214 8.214 0 01.812.045v1.828a3.424 3.424 0 00-.409-.07 3.894 3.894 0 00-.588-.045 2.49 2.49 0 00-1.208.287 2.13 2.13 0 00-.831.787 2.123 2.123 0 00-.307 1.137V43h-1.911zm6.908 0v-9.818h1.911V43h-1.911zm.965-11.333c-.332 0-.618-.11-.856-.333a1.079 1.079 0 01-.352-.805c0-.315.117-.584.352-.805.238-.226.524-.34.856-.34.332 0 .616.114.85.34.239.221.358.49.358.805 0 .311-.119.58-.358.805a1.192 1.192 0 01-.85.333zm7.193 11.525c-.793 0-1.5-.203-2.122-.608-.618-.409-1.104-.99-1.458-1.745-.349-.758-.524-1.668-.524-2.729 0-1.061.177-1.969.531-2.723.358-.754.848-1.332 1.47-1.732.622-.4 1.327-.601 2.115-.601.61 0 1.1.102 1.471.307.375.2.664.434.869.703.209.268.371.505.486.71h.115v-4.865h1.911V43h-1.866v-1.528h-.16a5.007 5.007 0 01-.499.716c-.213.269-.507.503-.882.703-.375.2-.861.3-1.457.3zm.422-1.63c.549 0 1.014-.145 1.393-.435.384-.294.673-.7.869-1.22.201-.52.301-1.126.301-1.816 0-.682-.098-1.279-.294-1.79-.196-.511-.484-.91-.863-1.195-.379-.286-.848-.428-1.406-.428-.576 0-1.055.149-1.439.447-.383.298-.673.705-.869 1.22-.192.517-.288 1.098-.288 1.746 0 .656.098 1.246.294 1.77.196.525.486.94.87 1.247.388.303.865.454 1.432.454zm16.606-8.38v1.534h-5.548v-1.534h5.548zM282.895 43V32.044c0-.614.134-1.123.403-1.528a2.472 2.472 0 011.067-.914 3.405 3.405 0 011.445-.306c.383 0 .712.031.984.095.273.06.475.115.608.167l-.448 1.546a8.661 8.661 0 00-.345-.09 1.97 1.97 0 00-.511-.057c-.465 0-.797.115-.998.346-.196.23-.294.562-.294.997V43h-1.911zm9.748.198c-.92 0-1.724-.21-2.41-.633a4.265 4.265 0 01-1.598-1.77c-.379-.759-.569-1.645-.569-2.66 0-1.018.19-1.908.569-2.671a4.257 4.257 0 011.598-1.777c.686-.422 1.49-.633 2.41-.633.92 0 1.724.21 2.41.633a4.257 4.257 0 011.598 1.777c.379.763.569 1.653.569 2.672 0 1.014-.19 1.9-.569 2.659a4.265 4.265 0 01-1.598 1.77c-.686.422-1.49.633-2.41.633zm.006-1.604c.597 0 1.091-.158 1.483-.473.392-.316.682-.735.87-1.26a5.026 5.026 0 00.287-1.732c0-.626-.096-1.201-.287-1.726-.188-.528-.478-.952-.87-1.272-.392-.32-.886-.479-1.483-.479-.6 0-1.099.16-1.495.48-.392.319-.684.743-.876 1.271a5.08 5.08 0 00-.281 1.726c0 .63.093 1.208.281 1.733.192.524.484.943.876 1.259.396.315.895.473 1.495.473zM299.353 43v-9.818h1.847v1.56h.103c.179-.529.494-.944.946-1.247.456-.307.971-.46 1.547-.46a8.178 8.178 0 01.811.045v1.828a3.386 3.386 0 00-.409-.07 3.894 3.894 0 00-.588-.045c-.452 0-.854.096-1.208.287a2.143 2.143 0 00-1.138 1.924V43h-1.911zm23.197-6.545c0 1.397-.256 2.599-.767 3.605-.512 1.001-1.213 1.772-2.103 2.314-.887.536-1.894.805-3.024.805-1.133 0-2.145-.269-3.036-.805-.886-.542-1.585-1.315-2.097-2.32-.511-1.006-.767-2.206-.767-3.6 0-1.397.256-2.597.767-3.598.512-1.006 1.211-1.777 2.097-2.314.891-.541 1.903-.812 3.036-.812 1.13 0 2.137.27 3.024.812.89.537 1.591 1.308 2.103 2.314.511 1.001.767 2.2.767 3.599zm-1.956 0c0-1.066-.173-1.963-.518-2.691-.341-.733-.81-1.287-1.406-1.662-.593-.38-1.264-.57-2.014-.57-.754 0-1.427.19-2.02.57-.592.375-1.061.929-1.406 1.662-.341.728-.511 1.625-.511 2.69 0 1.066.17 1.965.511 2.698.345.729.814 1.283 1.406 1.662.593.375 1.266.562 2.02.562.75 0 1.421-.187 2.014-.562.596-.38 1.065-.933 1.406-1.662.345-.733.518-1.632.518-2.697zM324.859 43v-9.818h1.847v1.56h.102c.179-.529.495-.944.946-1.247.456-.307.972-.46 1.547-.46a8.181 8.181 0 01.812.045v1.828a3.424 3.424 0 00-.409-.07 3.894 3.894 0 00-.588-.045c-.452 0-.854.096-1.208.287a2.13 2.13 0 00-.831.787 2.123 2.123 0 00-.307 1.137V43h-1.911zm9.677.217a4.008 4.008 0 01-1.687-.345 2.84 2.84 0 01-1.195-1.016c-.29-.443-.435-.987-.435-1.63 0-.554.107-1.01.32-1.368.213-.358.5-.641.863-.85a4.506 4.506 0 011.214-.473 11.85 11.85 0 011.368-.243l1.432-.166c.366-.047.633-.122.799-.224.166-.102.249-.269.249-.499v-.044c0-.559-.158-.991-.473-1.298-.311-.307-.776-.46-1.393-.46-.644 0-1.151.143-1.522.428-.366.281-.62.595-.76.94l-1.797-.41c.213-.596.525-1.078.934-1.444a3.78 3.78 0 011.425-.805 5.566 5.566 0 011.694-.256c.392 0 .807.047 1.246.14.444.09.857.256 1.24.5.388.242.706.59.953 1.041.247.447.371 1.03.371 1.745V43h-1.867v-1.342h-.077a2.7 2.7 0 01-.556.728 2.948 2.948 0 01-.952.595c-.388.157-.852.236-1.394.236zm.416-1.534c.528 0 .98-.104 1.355-.313.379-.209.667-.481.863-.818.2-.341.3-.705.3-1.093v-1.266c-.068.068-.2.132-.396.192a6.197 6.197 0 01-.658.147c-.247.038-.488.075-.723.109l-.588.076a4.75 4.75 0 00-1.016.237 1.73 1.73 0 00-.729.48c-.179.204-.268.477-.268.817 0 .473.175.831.524 1.074.349.239.795.358 1.336.358zm11.111 1.515c-.95 0-1.769-.215-2.455-.645a4.276 4.276 0 01-1.572-1.797c-.367-.762-.55-1.636-.55-2.62 0-.998.188-1.878.563-2.64.375-.767.903-1.366 1.585-1.796.682-.43 1.485-.646 2.41-.646.745 0 1.41.139 1.994.415a3.577 3.577 0 011.413 1.151c.362.494.577 1.072.645 1.732h-1.86a2.223 2.223 0 00-.703-1.189c-.362-.332-.848-.498-1.457-.498-.533 0-1 .14-1.4.422-.396.277-.705.673-.927 1.189-.222.51-.332 1.116-.332 1.815 0 .716.108 1.334.326 1.854.217.52.524.922.92 1.208.401.285.872.428 1.413.428.362 0 .69-.066.984-.198a2.01 2.01 0 00.748-.582c.204-.251.347-.554.428-.907h1.86a3.614 3.614 0 01-.62 1.7c-.345.498-.807.89-1.387 1.176-.575.285-1.251.428-2.026.428zm7.988-13.289V43h-1.911V29.91h1.911zm6.803 13.29c-.967 0-1.8-.207-2.499-.62a4.202 4.202 0 01-1.611-1.759c-.375-.758-.562-1.647-.562-2.665 0-1.006.187-1.892.562-2.66.379-.766.908-1.365 1.585-1.795.682-.43 1.479-.646 2.391-.646.554 0 1.091.092 1.611.275.52.183.986.47 1.4.863.413.392.739.901.978 1.527.238.623.357 1.379.357 2.27v.677h-7.804v-1.432h5.932c0-.503-.103-.948-.307-1.336a2.321 2.321 0 00-.863-.926c-.367-.226-.797-.34-1.291-.34-.537 0-1.006.133-1.407.397-.396.26-.703.601-.92 1.023a2.95 2.95 0 00-.32 1.361v1.119c0 .656.115 1.214.346 1.675.234.46.56.812.978 1.054.417.239.905.358 1.463.358.362 0 .693-.05.991-.153a2.047 2.047 0 001.272-1.246l1.809.325c-.145.533-.405 1-.78 1.4a3.778 3.778 0 01-1.4.927c-.558.218-1.195.326-1.911.326zm11.25-.199V29.91h4.666c1.015 0 1.856.174 2.525.523.673.35 1.176.833 1.509 1.451.332.614.498 1.323.498 2.129 0 .8-.168 1.506-.505 2.116-.332.605-.835 1.076-1.508 1.412-.669.337-1.511.505-2.525.505h-3.535v-1.7h3.356c.639 0 1.159-.092 1.56-.275.404-.183.701-.45.888-.799.188-.35.281-.77.281-1.26 0-.493-.096-.922-.287-1.284a1.86 1.86 0 00-.889-.831c-.4-.196-.927-.294-1.579-.294h-2.48V43h-1.975zm6.462-5.906L381.801 43h-2.25l-3.171-5.906h2.186zM384.811 43h-2.096l4.711-13.09h2.282L394.419 43h-2.097l-3.701-10.713h-.102L384.811 43zm.352-5.126h6.801v1.661h-6.801v-1.661zm21.404-3.708h-1.995a3.034 3.034 0 00-1.195-1.95 3.296 3.296 0 00-1.016-.51 3.97 3.97 0 00-1.183-.173 3.7 3.7 0 00-2.026.569c-.592.379-1.061.935-1.406 1.668-.341.733-.512 1.628-.512 2.684 0 1.066.171 1.965.512 2.698.345.733.816 1.287 1.412 1.662a3.707 3.707 0 002.014.562c.413 0 .805-.055 1.176-.166a3.38 3.38 0 001.016-.505 3.075 3.075 0 001.208-1.924l1.995.007a5.347 5.347 0 01-.62 1.777 4.915 4.915 0 01-1.17 1.393 5.285 5.285 0 01-1.624.901 6.003 6.003 0 01-1.994.32c-1.133 0-2.143-.269-3.03-.805-.886-.542-1.585-1.315-2.096-2.32-.507-1.006-.761-2.206-.761-3.6 0-1.397.256-2.597.767-3.598.511-1.006 1.21-1.777 2.097-2.314.886-.541 1.894-.812 3.023-.812.695 0 1.342.1 1.943.3a5.125 5.125 0 011.63.87c.482.38.88.844 1.196 1.393.315.546.528 1.17.639 1.873z" fill="#220F39"/><rect x="77" y="88" width="320.231" height="72" rx="8" fill="#F7F3FA"/><path fill-rule="evenodd" clip-rule="evenodd" d="M144.601 115.958c-3.409-9.411-13.807-14.278-23.218-10.871-5.466 1.978-9.397 6.313-11.068 11.438a16.384 16.384 0 00-2.8-.242c-7.968 0-14.515 5.728-14.515 12.953 0 6.711 5.515 12.133 12.944 12.868l.034.004h7.192a.678.678 0 100-1.356h-7.125c-6.85-.693-11.689-5.638-11.689-11.516 0-6.33 5.784-11.598 13.159-11.598 1.076 0 2.124.118 3.129.331l.617.131.175-.606c1.438-4.983 5.159-9.232 10.408-11.132 8.708-3.152 18.328 1.35 21.482 10.058.556 1.537.883 3.095.98 4.638l.034.539.533.088c5.175.851 9.002 4.831 9.002 9.49 0 4.933-3.89 9.077-9.77 9.604h-5.595a.679.679 0 000 1.356h5.655l.03-.002c6.49-.569 11.036-5.212 11.036-10.958 0-5.287-4.177-9.616-9.613-10.731a18.224 18.224 0 00-1.017-4.485v-.001zm-28.717 9.3c.11-2.483 4.505-4.479 9.909-4.479 5.405 0 9.799 1.996 9.909 4.478l.002.001v3.907c0 2.526-4.437 4.574-9.911 4.574-5.473 0-9.911-2.048-9.911-4.574v-3.907h.002zm19.82 5.225c0 2.526-4.437 4.574-9.911 4.574-5.466 0-9.898-2.042-9.911-4.563v3.801c0 2.526 4.438 4.574 9.911 4.574 5.474 0 9.911-2.048 9.911-4.574v-3.812zm0 0c0-.032 0-.064-.002-.096l.002.001v.095zm-19.82-.095a2.354 2.354 0 00-.002.084v-.084h.002zm19.82 5.226c0 2.526-4.437 4.574-9.911 4.574-5.466 0-9.898-2.042-9.911-4.564v3.802c0 2.526 4.438 4.574 9.911 4.574 5.474 0 9.911-2.048 9.911-4.574v-3.812zm0 0c0-.032 0-.064-.002-.096h.002v.096zm-19.82-.096a2.41 2.41 0 00-.002.085v-.085h.002z" fill="#5E308C"/><path d="M172.669 131v-13.091h8.118v1.7h-6.143v3.989h5.562v1.694h-5.562V131h-1.975zm12.305-13.091V131h-1.911v-13.091h1.911zm5.428 13.308a4.01 4.01 0 01-1.687-.345 2.839 2.839 0 01-1.195-1.016c-.29-.443-.435-.987-.435-1.63 0-.554.107-1.01.32-1.368.213-.358.5-.641.863-.85a4.483 4.483 0 011.214-.473 11.85 11.85 0 011.368-.243l1.432-.166c.366-.047.633-.122.799-.224.166-.102.249-.268.249-.499v-.044c0-.559-.158-.991-.473-1.298-.311-.307-.776-.46-1.393-.46-.644 0-1.151.143-1.522.428-.366.281-.62.595-.76.94l-1.797-.409c.214-.597.525-1.078.934-1.445a3.773 3.773 0 011.425-.805 5.55 5.55 0 011.694-.256c.392 0 .808.047 1.246.141.444.089.857.255 1.24.498.388.243.706.59.953 1.042.247.448.371 1.029.371 1.745V131h-1.867v-1.342h-.077a2.68 2.68 0 01-.556.728 2.949 2.949 0 01-.952.595c-.388.157-.852.236-1.394.236zm.416-1.534c.528 0 .98-.104 1.355-.313a2.2 2.2 0 00.863-.818c.2-.341.3-.705.3-1.093v-1.266c-.068.068-.2.132-.396.192a6.376 6.376 0 01-.658.147c-.247.038-.488.075-.723.109a64.2 64.2 0 00-.588.076c-.37.047-.709.126-1.016.237-.303.111-.545.27-.729.479-.179.205-.268.478-.268.818 0 .473.175.831.524 1.074.349.239.795.358 1.336.358zm14.333-6.104l-1.733.307a2.029 2.029 0 00-.345-.633 1.698 1.698 0 00-.626-.492c-.265-.128-.595-.192-.991-.192-.541 0-.993.121-1.355.364-.362.239-.544.548-.544.927 0 .328.122.592.365.793.243.2.635.364 1.176.492l1.56.358c.903.209 1.576.53 2.02.965.443.435.664.999.664 1.694 0 .588-.17 1.112-.511 1.572-.337.456-.808.814-1.413 1.074-.601.26-1.297.39-2.09.39-1.099 0-1.996-.234-2.691-.703-.695-.473-1.121-1.144-1.278-2.013l1.847-.282c.115.482.351.846.709 1.093.358.243.825.365 1.4.365.627 0 1.127-.13 1.502-.39.375-.264.563-.586.563-.965 0-.307-.115-.565-.345-.774-.226-.209-.573-.366-1.042-.473l-1.662-.364c-.916-.209-1.594-.541-2.033-.997-.434-.456-.652-1.034-.652-1.733 0-.579.162-1.086.486-1.521.324-.435.771-.773 1.342-1.016.571-.247 1.226-.371 1.963-.371 1.061 0 1.896.23 2.505.69.61.456 1.013 1.068 1.209 1.835zm4.204 1.591V131h-1.911v-13.091h1.885v4.871h.122c.23-.529.581-.948 1.054-1.259.473-.311 1.091-.467 1.854-.467.673 0 1.262.138 1.764.415.507.277.9.691 1.176 1.241.282.545.422 1.227.422 2.045V131h-1.911v-6.015c0-.72-.185-1.278-.556-1.675-.371-.4-.886-.6-1.547-.6-.452 0-.856.095-1.214.287a2.077 2.077 0 00-.838.844c-.2.366-.3.81-.3 1.329zm17.93-3.125a4.004 4.004 0 00-.499-1.042 3.22 3.22 0 00-.735-.793 3.11 3.11 0 00-.978-.505 3.934 3.934 0 00-1.195-.172c-.738 0-1.402.189-1.995.569-.592.379-1.061.935-1.406 1.668-.341.729-.511 1.621-.511 2.678 0 1.061.172 1.958.517 2.691.346.733.819 1.289 1.419 1.669.601.379 1.285.568 2.052.568.712 0 1.332-.144 1.86-.434.533-.29.944-.699 1.234-1.228.294-.532.441-1.159.441-1.879l.511.096h-3.745v-1.63h5.145v1.489c0 1.1-.234 2.054-.703 2.864a4.784 4.784 0 01-1.93 1.867c-.818.439-1.756.658-2.813.658-1.184 0-2.224-.273-3.119-.818-.891-.546-1.585-1.319-2.084-2.321-.498-1.005-.748-2.198-.748-3.579 0-1.044.145-1.982.435-2.813.29-.831.697-1.536 1.221-2.115a5.323 5.323 0 011.86-1.336 5.825 5.825 0 012.346-.467c.707 0 1.366.105 1.975.313a5.312 5.312 0 011.636.889 5.02 5.02 0 011.835 3.113h-2.026zm4.469 8.955v-9.818h1.848v1.559h.102c.179-.528.494-.943.946-1.246.456-.307.971-.46 1.547-.46a7.7 7.7 0 01.811.045v1.828a3.307 3.307 0 00-.409-.071 4.013 4.013 0 00-.588-.044c-.451 0-.854.095-1.208.287a2.134 2.134 0 00-1.138 1.924V131h-1.911zm6.908 0v-9.818h1.912V131h-1.912zm.966-11.333c-.333 0-.618-.111-.857-.332a1.083 1.083 0 01-.351-.806c0-.315.117-.584.351-.805.239-.226.524-.339.857-.339.332 0 .615.113.85.339.238.221.358.49.358.805 0 .311-.12.58-.358.806a1.196 1.196 0 01-.85.332zm7.192 11.525c-.792 0-1.5-.203-2.122-.607-.618-.41-1.104-.991-1.457-1.746-.35-.758-.524-1.668-.524-2.729 0-1.061.176-1.969.53-2.723.358-.754.848-1.332 1.47-1.732.622-.401 1.328-.601 2.116-.601.609 0 1.099.102 1.47.307.375.2.665.434.87.703.208.268.37.505.485.709h.115v-4.864h1.912V131h-1.867v-1.528h-.16a5.033 5.033 0 01-.498.716c-.213.269-.507.503-.882.703-.375.201-.861.301-1.458.301zm.422-1.63c.55 0 1.014-.145 1.394-.435.383-.294.673-.701.869-1.221.2-.52.3-1.125.3-1.815 0-.682-.098-1.279-.294-1.79-.196-.511-.483-.91-.863-1.195-.379-.286-.848-.428-1.406-.428-.575 0-1.055.149-1.438.447-.384.298-.673.705-.869 1.221-.192.516-.288 1.097-.288 1.745 0 .656.098 1.246.294 1.771.196.524.486.939.869 1.246.388.303.865.454 1.432.454zm16.607-8.38v1.534H258.3v-1.534h5.549zM259.822 131v-10.956c0-.614.134-1.123.402-1.528a2.48 2.48 0 011.068-.914 3.413 3.413 0 011.444-.307c.384 0 .712.032.985.096.273.06.475.115.607.167l-.447 1.546c-.09-.025-.205-.055-.346-.089a1.976 1.976 0 00-.511-.058c-.464 0-.797.115-.997.346-.196.23-.294.562-.294.997V131h-1.911zm9.748.198c-.921 0-1.724-.211-2.41-.633a4.268 4.268 0 01-1.598-1.77c-.38-.759-.569-1.645-.569-2.659 0-1.019.189-1.909.569-2.672a4.257 4.257 0 011.598-1.777c.686-.422 1.489-.633 2.41-.633.92 0 1.723.211 2.409.633a4.257 4.257 0 011.598 1.777c.38.763.569 1.653.569 2.672 0 1.014-.189 1.9-.569 2.659a4.268 4.268 0 01-1.598 1.77c-.686.422-1.489.633-2.409.633zm.006-1.604c.597 0 1.091-.158 1.483-.473.392-.316.682-.735.869-1.259a5.01 5.01 0 00.288-1.733 4.99 4.99 0 00-.288-1.726c-.187-.528-.477-.952-.869-1.272-.392-.319-.886-.479-1.483-.479-.601 0-1.099.16-1.496.479-.392.32-.684.744-.875 1.272a5.085 5.085 0 00-.282 1.726c0 .631.094 1.208.282 1.733.191.524.483.943.875 1.259.397.315.895.473 1.496.473zM276.28 131v-9.818h1.847v1.559h.102a2.38 2.38 0 01.946-1.246c.456-.307.972-.46 1.547-.46a7.7 7.7 0 01.812.045v1.828a3.344 3.344 0 00-.409-.071 4.013 4.013 0 00-.588-.044c-.452 0-.855.095-1.208.287a2.137 2.137 0 00-1.138 1.924V131h-1.911zm23.196-6.545c0 1.397-.255 2.599-.767 3.605-.511 1.001-1.212 1.772-2.103 2.314-.886.537-1.894.805-3.023.805-1.134 0-2.146-.268-3.036-.805-.887-.542-1.586-1.315-2.097-2.321-.511-1.005-.767-2.205-.767-3.598 0-1.398.256-2.598.767-3.599.511-1.006 1.21-1.777 2.097-2.314.89-.541 1.902-.812 3.036-.812 1.129 0 2.137.271 3.023.812.891.537 1.592 1.308 2.103 2.314.512 1.001.767 2.201.767 3.599zm-1.956 0c0-1.066-.172-1.963-.517-2.692-.341-.732-.81-1.286-1.407-1.661-.592-.38-1.263-.569-2.013-.569-.754 0-1.428.189-2.02.569-.592.375-1.061.929-1.406 1.661-.341.729-.512 1.626-.512 2.692 0 1.065.171 1.964.512 2.697.345.729.814 1.283 1.406 1.662.592.375 1.266.562 2.02.562.75 0 1.421-.187 2.013-.562.597-.379 1.066-.933 1.407-1.662.345-.733.517-1.632.517-2.697zm4.265 6.545v-9.818h1.848v1.559h.102c.179-.528.494-.943.946-1.246.456-.307.972-.46 1.547-.46a7.7 7.7 0 01.812.045v1.828a3.344 3.344 0 00-.409-.071 4.013 4.013 0 00-.588-.044c-.452 0-.855.095-1.209.287a2.141 2.141 0 00-1.137 1.924V131h-1.912zm9.678.217a4.006 4.006 0 01-1.687-.345 2.841 2.841 0 01-1.196-1.016c-.29-.443-.434-.987-.434-1.63 0-.554.106-1.01.319-1.368a2.36 2.36 0 01.863-.85 4.477 4.477 0 011.215-.473c.447-.107.903-.188 1.367-.243l1.432-.166c.367-.047.633-.122.799-.224.166-.102.25-.268.25-.499v-.044c0-.559-.158-.991-.473-1.298-.312-.307-.776-.46-1.394-.46-.643 0-1.15.143-1.521.428-.367.281-.62.595-.761.94l-1.796-.409c.213-.597.524-1.078.933-1.445a3.785 3.785 0 011.426-.805 5.546 5.546 0 011.694-.256c.392 0 .807.047 1.246.141.443.089.857.255 1.24.498.388.243.705.59.952 1.042.248.448.371 1.029.371 1.745V131h-1.866v-1.342h-.077c-.124.247-.309.49-.556.728a2.954 2.954 0 01-.953.595c-.387.157-.852.236-1.393.236zm.416-1.534c.528 0 .98-.104 1.355-.313a2.2 2.2 0 00.863-.818c.2-.341.3-.705.3-1.093v-1.266c-.068.068-.2.132-.396.192a6.4 6.4 0 01-.659.147c-.247.038-.488.075-.722.109a64.2 64.2 0 00-.588.076c-.371.047-.71.126-1.016.237-.303.111-.546.27-.729.479-.179.205-.269.478-.269.818 0 .473.175.831.525 1.074.349.239.794.358 1.336.358zm11.11 1.515c-.95 0-1.768-.215-2.454-.645a4.28 4.28 0 01-1.573-1.797c-.366-.762-.549-1.636-.549-2.62 0-.998.187-1.877.562-2.64.375-.767.904-1.366 1.586-1.796.681-.431 1.485-.646 2.409-.646.746 0 1.411.138 1.995.415a3.587 3.587 0 011.412 1.151c.362.494.578 1.072.646 1.732h-1.86a2.233 2.233 0 00-.703-1.189c-.363-.332-.848-.498-1.458-.498-.532 0-.999.14-1.4.422-.396.277-.705.673-.926 1.189-.222.511-.333 1.116-.333 1.815 0 .716.109 1.334.326 1.854.218.519.524.922.921 1.208.4.285.871.428 1.412.428.362 0 .691-.066.985-.198a2.02 2.02 0 00.748-.582c.204-.251.347-.554.428-.908h1.86a3.618 3.618 0 01-.62 1.701c-.345.498-.808.89-1.387 1.176-.576.285-1.251.428-2.027.428zm7.989-13.289V131h-1.911v-13.091h1.911zm6.803 13.289c-.968 0-1.801-.207-2.5-.62a4.199 4.199 0 01-1.61-1.758c-.375-.758-.563-1.647-.563-2.665 0-1.006.188-1.892.563-2.659.379-.767.907-1.366 1.585-1.796.682-.431 1.479-.646 2.39-.646.554 0 1.091.092 1.611.275.52.183.987.471 1.4.863.413.392.739.901.978 1.527.239.623.358 1.379.358 2.27v.677h-7.805v-1.432h5.932c0-.502-.102-.948-.307-1.336a2.307 2.307 0 00-.863-.926c-.366-.226-.796-.339-1.291-.339-.537 0-1.005.132-1.406.396-.396.26-.703.601-.92 1.023-.214.417-.32.871-.32 1.361v1.119c0 .656.115 1.214.345 1.675.234.46.56.811.978 1.054.418.239.906.358 1.464.358.362 0 .692-.051.991-.153.298-.107.556-.264.773-.473.217-.209.384-.467.499-.774l1.809.326c-.145.533-.405 1-.78 1.4a3.77 3.77 0 01-1.4.927c-.558.217-1.195.326-1.911.326zm15.488-.198h-4.238v-13.091h4.372c1.283 0 2.384.262 3.305.786.92.52 1.625 1.268 2.115 2.244.495.972.742 2.137.742 3.496 0 1.364-.25 2.536-.748 3.516a5.249 5.249 0 01-2.148 2.263c-.937.524-2.071.786-3.4.786zm-2.263-1.726h2.154c.997 0 1.826-.187 2.486-.562a3.545 3.545 0 001.483-1.643c.329-.72.493-1.598.493-2.634 0-1.027-.164-1.898-.493-2.614-.323-.716-.807-1.259-1.451-1.63-.643-.371-1.442-.556-2.397-.556h-2.275v9.639zM362.021 131v-13.091h4.794c.929 0 1.698.153 2.307.46.61.303 1.066.714 1.368 1.234a3.38 3.38 0 01.454 1.745c0 .545-.1 1.006-.3 1.381-.201.37-.469.669-.806.895a3.543 3.543 0 01-1.099.485v.128c.435.022.859.162 1.272.422.418.256.763.62 1.035 1.093.273.473.41 1.048.41 1.726 0 .669-.158 1.27-.473 1.803-.312.528-.793.948-1.445 1.259-.652.307-1.485.46-2.499.46h-5.018zm1.975-1.694h2.851c.946 0 1.623-.183 2.033-.55.409-.366.613-.824.613-1.374 0-.413-.104-.793-.313-1.138a2.234 2.234 0 00-.895-.824c-.383-.205-.839-.307-1.368-.307h-2.921v4.193zm0-5.734h2.646c.444 0 .842-.085 1.196-.255.358-.171.641-.409.85-.716a1.9 1.9 0 00.319-1.1c0-.541-.189-.995-.568-1.361-.38-.367-.961-.55-1.746-.55h-2.697v3.982z" fill="#220F39"/><rect x="47" y="176" width="311.86" height="72" rx="8" fill="#F7F3FA"/><path fill-rule="evenodd" clip-rule="evenodd" d="M87.256 192c-5.546 0-10.054 2.049-10.167 4.596h-.002v3.049c4.24.538 7.373 2.311 7.467 4.429h.002v1.057c.86.109 1.765.167 2.7.167 1.062 0 2.086-.075 3.048-.214v-1.01h.002c.091-2.059 3.056-3.793 7.12-4.381v-3.097l-.003-.001C97.31 194.049 92.801 192 87.256 192zm.174 15.13c-.998 0-1.963.067-2.874.19v-.837c.86.109 1.765.168 2.7.168 1.062 0 2.086-.076 3.048-.215v.884a21.545 21.545 0 00-2.874-.19zm14.261-7.13c-5.546 0-10.055 2.049-10.167 4.596h-.002v3.123c3.973.612 6.854 2.325 6.944 4.355h.003v.984a21.24 21.24 0 003.222.24c5.616 0 10.169-2.101 10.169-4.693v-4.009l-.002-.001c-.113-2.546-4.622-4.595-10.167-4.595zm0 23.826a21.27 21.27 0 01-3.225-.241c.002-.035.003-.071.003-.107v-3.804c1.012.156 2.096.241 3.222.241 5.616 0 10.169-2.102 10.169-4.694l-.002-.098.002.001v4.009c0 2.592-4.553 4.693-10.169 4.693zm0-5.264c-1.126 0-2.21-.085-3.222-.241v-3.911c1.012.156 2.096.241 3.222.241 5.616 0 10.169-2.102 10.169-4.694l-.002-.098h.002v4.009c0 2.592-4.553 4.694-10.169 4.694zm-25.648-5.454v-1.034h.003c.092-2.089 3.14-3.842 7.292-4.406v-3.072l-.002-.001C83.223 202.049 78.715 200 73.17 200s-10.054 2.049-10.167 4.596H63v4.009c0 2.592 4.553 4.693 10.17 4.693.997 0 1.962-.066 2.873-.19zm0 1.352a21.37 21.37 0 01-2.874.191c-5.608 0-10.156-2.096-10.169-4.683v3.9c0 2.592 4.553 4.694 10.17 4.694.997 0 1.962-.067 2.873-.19v-3.912zm0 5.265a21.54 21.54 0 01-2.874.19c-5.608 0-10.156-2.096-10.169-4.683v3.901c0 2.592 4.553 4.693 10.17 4.693 1 0 1.966-.067 2.879-.191a2.204 2.204 0 01-.006-.157v-3.753zm-13.04-9.866a2.296 2.296 0 00-.003.087v-.087h.002zm0 5.265a2.192 2.192 0 00-.003.086v-.086h.002zm24.253-6.95c-5.546 0-10.054 2.049-10.167 4.596h-.002v4.009c0 2.592 4.553 4.693 10.17 4.693 5.615 0 10.168-2.101 10.168-4.693v-4.009l-.002-.001c-.113-2.547-4.622-4.595-10.167-4.595zm0 14.651c5.616 0 10.17-2.102 10.17-4.694v3.911c0 2.592-4.554 4.694-10.17 4.694s-10.17-2.102-10.17-4.694v-3.9c.014 2.587 4.562 4.683 10.17 4.683zm10.17-4.694v-.098h-.003l.002.098zm-20.34-.011l.003-.087h-.002v.087zm10.17 9.969c5.616 0 10.17-2.102 10.17-4.694v3.912c0 2.592-4.554 4.693-10.17 4.693s-10.17-2.101-10.17-4.693v-3.901c.014 2.587 4.562 4.683 10.17 4.683zm10.17-4.694v-.097l-.003-.001.002.098zm-20.34-.011l.003-.086h-.002v.086z" fill="#5E308C"/><path d="M136.438 209.348c-.068-.605-.349-1.074-.844-1.406-.494-.337-1.116-.505-1.866-.505-.537 0-1.002.085-1.394.255-.392.167-.696.397-.914.691a1.63 1.63 0 00-.319.991c0 .311.072.579.217.805.149.226.343.415.582.569.243.149.503.275.78.377.277.098.543.179.799.243l1.278.332a9.81 9.81 0 011.285.416c.439.174.846.405 1.221.69.375.286.677.639.907 1.061.235.422.352.927.352 1.515 0 .742-.192 1.4-.575 1.975-.38.576-.932 1.029-1.656 1.362-.72.332-1.592.498-2.614.498-.98 0-1.828-.155-2.544-.466-.716-.311-1.277-.752-1.681-1.323-.405-.576-.629-1.258-.672-2.046h1.982c.038.473.192.867.46 1.183.273.311.62.543 1.042.696.426.15.893.224 1.4.224.558 0 1.055-.087 1.489-.262.439-.179.784-.426 1.036-.741.251-.32.377-.693.377-1.119 0-.388-.111-.705-.332-.952-.218-.248-.514-.452-.889-.614a8.604 8.604 0 00-1.259-.428l-1.547-.422c-1.048-.286-1.879-.706-2.493-1.259-.609-.554-.914-1.287-.914-2.199 0-.755.204-1.413.614-1.976.409-.562.963-.999 1.662-1.31.698-.315 1.487-.473 2.365-.473.886 0 1.668.156 2.345.467.682.311 1.219.739 1.611 1.285.392.541.597 1.163.614 1.866h-1.905zm8.874-.166v1.534h-5.363v-1.534h5.363zm-3.925-2.352h1.911v9.287c0 .371.056.65.167.838.11.183.253.308.428.377.179.064.373.096.581.096.154 0 .288-.011.403-.032l.269-.052.345 1.579a3.114 3.114 0 01-.473.128c-.205.047-.46.073-.767.077a3.37 3.37 0 01-1.407-.269 2.408 2.408 0 01-1.054-.869c-.269-.392-.403-.884-.403-1.477v-9.683zm10.069 12.368c-.92 0-1.724-.211-2.41-.633a4.275 4.275 0 01-1.598-1.77c-.379-.759-.569-1.645-.569-2.659 0-1.019.19-1.909.569-2.672.38-.763.912-1.355 1.598-1.777.686-.422 1.49-.633 2.41-.633.921 0 1.724.211 2.41.633a4.257 4.257 0 011.598 1.777c.379.763.569 1.653.569 2.672 0 1.014-.19 1.9-.569 2.659a4.268 4.268 0 01-1.598 1.77c-.686.422-1.489.633-2.41.633zm.007-1.604c.596 0 1.09-.158 1.483-.473.392-.316.681-.735.869-1.259a5.01 5.01 0 00.287-1.733 4.99 4.99 0 00-.287-1.726c-.188-.528-.477-.952-.869-1.272-.393-.319-.887-.479-1.483-.479-.601 0-1.1.16-1.496.479-.392.32-.684.744-.876 1.272a5.11 5.11 0 00-.281 1.726c0 .631.094 1.208.281 1.733.192.524.484.943.876 1.259.396.315.895.473 1.496.473zm6.703 1.406v-9.818h1.848v1.559h.102c.179-.528.494-.943.946-1.246.456-.307.971-.46 1.547-.46a7.7 7.7 0 01.811.045v1.828a3.307 3.307 0 00-.409-.071 4.013 4.013 0 00-.588-.044c-.451 0-.854.095-1.208.287a2.134 2.134 0 00-1.138 1.924V219h-1.911zm9.678.217a4.014 4.014 0 01-1.688-.345 2.839 2.839 0 01-1.195-1.016c-.29-.443-.435-.987-.435-1.63 0-.554.107-1.01.32-1.368a2.36 2.36 0 01.863-.85 4.483 4.483 0 011.214-.473c.448-.107.904-.188 1.368-.243l1.432-.166c.367-.047.633-.122.799-.224.166-.102.249-.268.249-.499v-.044c0-.559-.157-.991-.473-1.298-.311-.307-.775-.46-1.393-.46-.644 0-1.151.143-1.521.428-.367.281-.62.595-.761.94l-1.796-.409c.213-.597.524-1.078.933-1.445a3.773 3.773 0 011.425-.805 5.55 5.55 0 011.694-.256c.392 0 .808.047 1.247.141a3.64 3.64 0 011.24.498c.388.243.705.59.952 1.042.247.448.371 1.029.371 1.745V219h-1.867v-1.342h-.076c-.124.247-.309.49-.556.728a2.965 2.965 0 01-.953.595c-.388.157-.852.236-1.393.236zm.415-1.534c.529 0 .98-.104 1.355-.313.38-.209.667-.482.863-.818.201-.341.301-.705.301-1.093v-1.266c-.068.068-.201.132-.397.192a6.318 6.318 0 01-.658.147c-.247.038-.488.075-.722.109a56.2 56.2 0 00-.588.076c-.371.047-.71.126-1.017.237-.302.111-.545.27-.728.479-.179.205-.269.478-.269.818 0 .473.175.831.524 1.074.35.239.795.358 1.336.358zm11.092 5.184c-.78 0-1.451-.102-2.013-.307-.559-.204-1.015-.475-1.368-.811a3.394 3.394 0 01-.793-1.087l1.643-.678c.115.179.268.373.46.582.196.209.46.388.793.537.336.149.769.224 1.297.224.725 0 1.323-.175 1.796-.524.473-.35.71-.904.71-1.662v-1.931h-.122a4.372 4.372 0 01-.498.697c-.213.256-.507.477-.882.665-.375.187-.863.281-1.464.281-.776 0-1.474-.181-2.097-.543-.617-.367-1.108-.906-1.47-1.618-.358-.715-.537-1.595-.537-2.639 0-1.044.177-1.939.531-2.685.358-.746.848-1.317 1.47-1.713.622-.401 1.327-.601 2.116-.601.609 0 1.101.102 1.476.307.375.2.667.434.876.703.213.268.377.505.492.709h.141v-1.591h1.873v10.035c0 .836-.196 1.522-.588 2.059-.392.541-.923.941-1.592 1.201-.665.26-1.415.39-2.25.39zm-.019-5.599c.55 0 1.014-.128 1.393-.384.384-.26.674-.63.87-1.112.2-.486.3-1.067.3-1.745 0-.661-.098-1.242-.294-1.745-.196-.503-.484-.895-.863-1.176-.379-.286-.848-.428-1.406-.428-.575 0-1.055.149-1.438.447-.384.294-.674.695-.87 1.202a4.793 4.793 0 00-.287 1.7c0 .643.098 1.208.294 1.694.196.486.486.865.869 1.138.388.272.865.409 1.432.409zm11.243 1.93c-.967 0-1.8-.207-2.499-.62a4.207 4.207 0 01-1.611-1.758c-.375-.758-.562-1.647-.562-2.665 0-1.006.187-1.892.562-2.659.38-.767.908-1.366 1.586-1.796.681-.431 1.478-.646 2.39-.646.554 0 1.091.092 1.611.275.52.183.987.471 1.4.863.413.392.739.901.978 1.527.239.623.358 1.379.358 2.27v.677h-7.805v-1.432h5.932c0-.502-.102-.948-.307-1.336a2.307 2.307 0 00-.863-.926c-.366-.226-.797-.339-1.291-.339-.537 0-1.006.132-1.406.396-.397.26-.703.601-.921 1.023a2.949 2.949 0 00-.319 1.361v1.119c0 .656.115 1.214.345 1.675.234.46.56.811.978 1.054.417.239.905.358 1.464.358.362 0 .692-.051.99-.153.299-.107.557-.264.774-.473a2.06 2.06 0 00.498-.774l1.809.326a3.26 3.26 0 01-.779 1.4 3.77 3.77 0 01-1.4.927c-.559.217-1.196.326-1.912.326zm11.25-.198v-13.091h8.118v1.7h-6.142v3.989h5.561v1.694h-5.561V219h-1.976zm13.216.217a4.006 4.006 0 01-1.687-.345 2.841 2.841 0 01-1.196-1.016c-.29-.443-.434-.987-.434-1.63 0-.554.106-1.01.319-1.368a2.36 2.36 0 01.863-.85 4.477 4.477 0 011.215-.473c.447-.107.903-.188 1.367-.243l1.432-.166c.367-.047.633-.122.799-.224.166-.102.25-.268.25-.499v-.044c0-.559-.158-.991-.473-1.298-.312-.307-.776-.46-1.394-.46-.643 0-1.15.143-1.521.428-.367.281-.62.595-.761.94l-1.796-.409c.213-.597.524-1.078.933-1.445a3.785 3.785 0 011.426-.805 5.546 5.546 0 011.694-.256c.392 0 .807.047 1.246.141.443.089.857.255 1.24.498.388.243.705.59.952 1.042.248.448.371 1.029.371 1.745V219h-1.866v-1.342h-.077c-.124.247-.309.49-.556.728a2.954 2.954 0 01-.953.595c-.387.157-.852.236-1.393.236zm.416-1.534c.528 0 .98-.104 1.355-.313a2.2 2.2 0 00.863-.818c.2-.341.3-.705.3-1.093v-1.266c-.068.068-.2.132-.396.192a6.4 6.4 0 01-.659.147c-.247.038-.488.075-.722.109a64.2 64.2 0 00-.588.076c-.371.047-.71.126-1.016.237-.303.111-.546.27-.729.479-.179.205-.269.478-.269.818 0 .473.175.831.525 1.074.349.239.794.358 1.336.358zm7.128 1.317v-13.091h1.911v4.864h.116c.11-.204.27-.441.479-.709.209-.269.499-.503.869-.703.371-.205.861-.307 1.47-.307.793 0 1.5.2 2.123.601.622.4 1.11.978 1.463 1.732.358.754.537 1.662.537 2.723s-.177 1.971-.53 2.729c-.354.755-.84 1.336-1.458 1.746-.618.404-1.323.607-2.115.607-.597 0-1.085-.1-1.464-.301-.375-.2-.669-.434-.882-.703a5.279 5.279 0 01-.492-.716h-.16V219h-1.867zm1.873-4.909c0 .69.1 1.295.301 1.815.2.52.49.927.869 1.221.379.29.844.435 1.393.435.571 0 1.049-.151 1.432-.454.384-.307.673-.722.869-1.246.201-.525.301-1.115.301-1.771 0-.648-.098-1.229-.294-1.745-.192-.516-.482-.923-.869-1.221-.384-.298-.863-.447-1.439-.447-.554 0-1.022.142-1.406.428-.379.285-.667.684-.863 1.195-.196.511-.294 1.108-.294 1.79zm9.241 4.909v-9.818h1.848v1.559h.102c.179-.528.494-.943.946-1.246.456-.307.972-.46 1.547-.46a7.7 7.7 0 01.812.045v1.828a3.344 3.344 0 00-.409-.071 4.013 4.013 0 00-.588-.044c-.452 0-.855.095-1.209.287a2.133 2.133 0 00-1.137 1.924V219h-1.912zm6.909 0v-9.818h1.911V219h-1.911zm.965-11.333c-.333 0-.618-.111-.857-.332a1.083 1.083 0 01-.351-.806c0-.315.117-.584.351-.805.239-.226.524-.339.857-.339.332 0 .616.113.85.339.239.221.358.49.358.805 0 .311-.119.58-.358.806a1.195 1.195 0 01-.85.332zm7.653 11.531c-.951 0-1.769-.215-2.455-.645a4.272 4.272 0 01-1.572-1.797c-.367-.762-.55-1.636-.55-2.62 0-.998.187-1.877.562-2.64.375-.767.904-1.366 1.586-1.796.682-.431 1.485-.646 2.41-.646.745 0 1.41.138 1.994.415a3.573 3.573 0 011.412 1.151c.363.494.578 1.072.646 1.732h-1.86a2.233 2.233 0 00-.703-1.189c-.362-.332-.848-.498-1.458-.498-.532 0-.999.14-1.399.422-.397.277-.706.673-.927 1.189-.222.511-.333 1.116-.333 1.815 0 .716.109 1.334.326 1.854.218.519.525.922.921 1.208.4.285.871.428 1.412.428.363 0 .691-.066.985-.198a2.02 2.02 0 00.748-.582c.204-.251.347-.554.428-.908h1.86a3.618 3.618 0 01-.62 1.701c-.345.498-.807.89-1.387 1.176-.575.285-1.251.428-2.026.428zm18.198-7.619l-1.732.307a2.052 2.052 0 00-.346-.633 1.698 1.698 0 00-.626-.492c-.264-.128-.594-.192-.991-.192-.541 0-.993.121-1.355.364-.362.239-.543.548-.543.927 0 .328.121.592.364.793.243.2.635.364 1.176.492l1.56.358c.903.209 1.577.53 2.02.965.443.435.665.999.665 1.694 0 .588-.171 1.112-.512 1.572-.336.456-.807.814-1.412 1.074-.601.26-1.298.39-2.091.39-1.099 0-1.996-.234-2.691-.703-.694-.473-1.12-1.144-1.278-2.013l1.847-.282c.115.482.352.846.71 1.093.358.243.824.365 1.4.365.626 0 1.127-.13 1.502-.39.375-.264.562-.586.562-.965 0-.307-.115-.565-.345-.774-.226-.209-.573-.366-1.042-.473l-1.662-.364c-.916-.209-1.594-.541-2.032-.997-.435-.456-.652-1.034-.652-1.733 0-.579.162-1.086.485-1.521.324-.435.772-.773 1.343-1.016.571-.247 1.225-.371 1.962-.371 1.061 0 1.896.23 2.506.69.609.456 1.012 1.068 1.208 1.835zm6.429 7.619c-.921 0-1.724-.211-2.41-.633a4.268 4.268 0 01-1.598-1.77c-.379-.759-.569-1.645-.569-2.659 0-1.019.19-1.909.569-2.672a4.257 4.257 0 011.598-1.777c.686-.422 1.489-.633 2.41-.633.92 0 1.723.211 2.409.633.687.422 1.219 1.014 1.598 1.777.38.763.569 1.653.569 2.672 0 1.014-.189 1.9-.569 2.659a4.262 4.262 0 01-1.598 1.77c-.686.422-1.489.633-2.409.633zm.006-1.604c.597 0 1.091-.158 1.483-.473.392-.316.682-.735.869-1.259a5.01 5.01 0 00.288-1.733 4.99 4.99 0 00-.288-1.726c-.187-.528-.477-.952-.869-1.272-.392-.319-.886-.479-1.483-.479-.601 0-1.099.16-1.496.479-.392.32-.684.744-.875 1.272a5.085 5.085 0 00-.282 1.726c0 .631.094 1.208.282 1.733.191.524.483.943.875 1.259.397.315.895.473 1.496.473zm11.376-8.412v1.534h-5.548v-1.534h5.548zM281.208 219v-10.956c0-.614.135-1.123.403-1.528a2.472 2.472 0 011.067-.914 3.418 3.418 0 011.445-.307c.384 0 .712.032.984.096.273.06.476.115.608.167l-.448 1.546a9.779 9.779 0 00-.345-.089 1.981 1.981 0 00-.511-.058c-.465 0-.797.115-.997.346-.196.23-.294.562-.294.997V219h-1.912zm10.582-9.818v1.534h-5.363v-1.534h5.363zm-3.924-2.352h1.911v9.287c0 .371.055.65.166.838a.875.875 0 00.428.377c.179.064.373.096.582.096.153 0 .288-.011.403-.032l.268-.052.345 1.579c-.11.043-.268.086-.473.128-.204.047-.46.073-.767.077a3.365 3.365 0 01-1.406-.269 2.41 2.41 0 01-1.055-.869c-.268-.392-.402-.884-.402-1.477v-9.683zm8.167 12.17l-2.889-9.818h1.975l1.924 7.21h.096l1.93-7.21h1.975l1.918 7.178h.096l1.911-7.178h1.975L304.061 219h-1.949l-1.994-7.089h-.147L297.976 219h-1.943zm15.582.217a4.01 4.01 0 01-1.687-.345 2.841 2.841 0 01-1.196-1.016c-.289-.443-.434-.987-.434-1.63 0-.554.106-1.01.319-1.368a2.36 2.36 0 01.863-.85 4.49 4.49 0 011.215-.473 11.85 11.85 0 011.368-.243l1.432-.166c.366-.047.632-.122.799-.224.166-.102.249-.268.249-.499v-.044c0-.559-.158-.991-.473-1.298-.311-.307-.776-.46-1.394-.46-.643 0-1.15.143-1.521.428-.366.281-.62.595-.761.94l-1.796-.409c.213-.597.524-1.078.933-1.445a3.785 3.785 0 011.426-.805 5.546 5.546 0 011.694-.256c.392 0 .807.047 1.246.141.443.089.857.255 1.24.498.388.243.706.59.953 1.042.247.448.37 1.029.37 1.745V219h-1.866v-1.342h-.077a2.7 2.7 0 01-.556.728 2.949 2.949 0 01-.952.595c-.388.157-.853.236-1.394.236zm.416-1.534c.528 0 .98-.104 1.355-.313a2.2 2.2 0 00.863-.818c.2-.341.3-.705.3-1.093v-1.266c-.068.068-.2.132-.396.192a6.376 6.376 0 01-.658.147c-.248.038-.488.075-.723.109a64.2 64.2 0 00-.588.076 4.729 4.729 0 00-1.016.237c-.303.111-.546.27-.729.479-.179.205-.268.478-.268.818 0 .473.174.831.524 1.074.349.239.795.358 1.336.358zm6.975 1.317v-9.818h1.847v1.559h.103c.179-.528.494-.943.946-1.246.456-.307.971-.46 1.547-.46a7.667 7.667 0 01.811.045v1.828a3.307 3.307 0 00-.409-.071 4.013 4.013 0 00-.588-.044 2.49 2.49 0 00-1.208.287 2.134 2.134 0 00-1.138 1.924V219h-1.911zm10.788.198c-.967 0-1.8-.207-2.499-.62a4.194 4.194 0 01-1.611-1.758c-.375-.758-.562-1.647-.562-2.665 0-1.006.187-1.892.562-2.659.379-.767.908-1.366 1.585-1.796.682-.431 1.479-.646 2.391-.646.554 0 1.091.092 1.611.275.52.183.986.471 1.4.863.413.392.739.901.978 1.527.238.623.358 1.379.358 2.27v.677h-7.805v-1.432h5.932a2.83 2.83 0 00-.307-1.336 2.314 2.314 0 00-.863-.926c-.367-.226-.797-.339-1.291-.339-.537 0-1.006.132-1.406.396-.397.26-.704.601-.921 1.023a2.95 2.95 0 00-.32 1.361v1.119c0 .656.116 1.214.346 1.675.234.46.56.811.978 1.054.417.239.905.358 1.463.358.363 0 .693-.051.991-.153.298-.107.556-.264.774-.473a2.06 2.06 0 00.498-.774l1.809.326c-.145.533-.405 1-.78 1.4-.37.397-.837.706-1.4.927-.558.217-1.195.326-1.911.326z" fill="#220F39"/></svg>