<svg width="75" height="42" fill="none" xmlns="http://www.w3.org/2000/svg"><path fill-rule="evenodd" clip-rule="evenodd" d="M21.07 15.254c0 .864.1 1.565.273 2.079.2.514.448 1.074.796 1.682a.972.972 0 01.174.537c0 .233-.15.467-.472.7l-1.567.982c-.224.14-.448.21-.646.21-.25 0-.498-.117-.746-.327a7.297 7.297 0 01-.896-1.098 17.75 17.75 0 01-.77-1.378c-1.94 2.149-4.377 3.223-7.311 3.223-2.089 0-3.755-.56-4.973-1.681-1.219-1.122-1.84-2.617-1.84-4.486 0-1.985.745-3.597 2.262-4.811 1.517-1.215 3.531-1.823 6.093-1.823.845 0 1.715.07 2.635.187.92.117 1.865.304 2.86.514V8.06c0-1.775-.398-3.013-1.169-3.738-.795-.724-2.138-1.074-4.053-1.074-.87 0-1.765.093-2.686.304-.92.21-1.815.467-2.685.794a7.435 7.435 0 01-.87.304c-.174.046-.299.07-.398.07-.348 0-.522-.234-.522-.725V2.85c0-.374.05-.654.174-.818.124-.163.348-.327.696-.49.87-.42 1.915-.771 3.133-1.051C9.78.187 11.073.047 12.442.047c2.958 0 5.122.63 6.514 1.892C20.324 3.2 21.02 5.116 21.02 7.685v7.569h.05zm-10.096 3.55c.82 0 1.666-.14 2.561-.42.896-.28 1.691-.794 2.363-1.495.398-.444.696-.935.845-1.495.15-.56.249-1.238.249-2.032v-.982a21.943 21.943 0 00-2.288-.397 19.916 19.916 0 00-2.337-.14c-1.667 0-2.885.304-3.706.935-.82.63-1.218 1.518-1.218 2.686 0 1.098.298 1.915.92 2.476.597.584 1.467.864 2.611.864zm19.968 2.523c-.448 0-.746-.07-.945-.234-.2-.14-.373-.467-.522-.91L23.63 2.126c-.15-.467-.224-.771-.224-.935 0-.373.2-.584.597-.584h2.437c.472 0 .796.07.97.234.199.14.348.467.497.91l4.178 15.465 3.879-15.464c.124-.467.273-.77.472-.911.2-.14.547-.234.995-.234h1.99c.472 0 .795.07.994.234.199.14.373.467.472.91l3.93 15.652 4.301-15.651c.15-.467.323-.77.498-.911.198-.14.522-.234.97-.234h2.312c.398 0 .621.187.621.584 0 .1-.018.2-.038.314l-.011.06c-.025.14-.075.327-.174.584l-5.993 18.057c-.15.467-.323.77-.522.91-.2.141-.522.235-.945.235h-2.139c-.472 0-.795-.07-.994-.234-.2-.164-.373-.467-.473-.934L38.377 5.116l-3.83 15.043c-.124.467-.273.771-.472.934-.199.164-.547.234-.995.234h-2.138zm31.953.63a17.47 17.47 0 01-3.83-.42c-1.243-.28-2.212-.584-2.859-.934-.398-.21-.671-.444-.77-.654-.1-.21-.15-.444-.15-.654v-1.192c0-.49.199-.724.572-.724.15 0 .298.024.448.07.096.03.223.08.369.137l.252.097c.846.35 1.766.63 2.736.818.994.186 1.964.28 2.959.28 1.566 0 2.785-.257 3.63-.77.846-.515 1.293-1.262 1.293-2.22 0-.654-.224-1.191-.671-1.635-.448-.444-1.293-.841-2.512-1.215l-3.605-1.051c-1.816-.537-3.158-1.332-3.979-2.383-.82-1.028-1.243-2.172-1.243-3.387 0-.98.224-1.845.671-2.593a6.14 6.14 0 011.79-1.915c.746-.537 1.592-.935 2.587-1.215C61.577.117 62.622 0 63.716 0c.547 0 1.119.023 1.666.093.572.07 1.094.164 1.616.257.498.117.97.234 1.417.374.448.14.796.28 1.045.42.348.187.597.374.746.585.15.186.224.443.224.77v1.098c0 .49-.2.748-.572.748-.2 0-.522-.094-.945-.28-1.418-.608-3.009-.911-4.775-.911-1.417 0-2.536.21-3.307.654-.77.443-1.169 1.12-1.169 2.079 0 .654.25 1.214.746 1.658.498.444 1.418.888 2.736 1.285l3.53 1.051c1.791.537 3.084 1.285 3.855 2.242a5.077 5.077 0 011.144 3.27c0 1.005-.224 1.916-.647 2.71a6.389 6.389 0 01-1.815 2.056c-.77.584-1.69 1.005-2.76 1.308a12.53 12.53 0 01-3.556.49zm4.7 11.353C59.414 38.986 47.528 42 37.308 42 22.985 42 10.078 37.024.33 28.755c-.77-.654-.074-1.542.846-1.028 10.543 5.747 23.548 9.227 37 9.227 9.077 0 19.049-1.775 28.224-5.42 1.368-.583 2.537.842 1.194 1.776zm-6.167-3.947c2.66-.304 8.53-.958 9.574.303 1.044 1.238-1.17 6.448-2.164 8.76-.298.7.348.981 1.02.444 4.376-3.457 5.52-10.675 4.625-11.726-.895-1.028-8.579-1.916-13.254 1.167-.721.491-.597 1.145.199 1.052z" fill="#5E308C"/></svg>