<svg width="201" height="28" fill="none" xmlns="http://www.w3.org/2000/svg"><path d="M.5 3.832l11.42-1.57v11.021H.502L.5 3.833zm11.42 10.861V25.59L.503 24.022v-9.328H11.92zM13.185 2.09L28.38 0v13.283H13.184V2.089zM28.38 14.693V27.85l-15.196-2.088V14.693H28.38zm25.8 7.464h-2.64V11.95c0-.837.052-1.859.156-3.07h-.044c-.165.69-.31 1.184-.437 1.486l-4.787 11.791h-1.834l-4.8-11.703c-.134-.344-.276-.869-.424-1.573h-.044c.06.631.09 1.661.09 3.091v10.185h-2.462V6.384H40.7l4.217 10.505c.32.806.53 1.408.626 1.804h.056c.276-.83.5-1.446.671-1.849l4.296-10.46h3.613v15.773zm4.955-13.629c-.425 0-.79-.135-1.09-.406a1.329 1.329 0 01-.453-1.034c0-.418.15-.767.453-1.046a1.554 1.554 0 011.09-.418c.44 0 .813.14 1.119.418.305.28.459.627.459 1.046 0 .395-.154.735-.46 1.017a1.59 1.59 0 01-1.118.423zm1.286 13.63h-2.594V10.892h2.594v11.264zm11.6-.518c-.916.52-2.002.78-3.255.78-1.7 0-3.073-.522-4.117-1.566-1.043-1.044-1.566-2.4-1.566-4.065 0-1.855.561-3.345 1.684-4.471 1.122-1.126 2.622-1.689 4.502-1.689 1.044 0 1.965.18 2.763.54v2.375c-.799-.586-1.649-.88-2.55-.88-1.097 0-1.995.366-2.696 1.095-.7.73-1.052 1.684-1.052 2.865 0 1.166.33 2.087.99 2.761.66.675 1.545 1.012 2.656 1.012.933 0 1.812-.326 2.64-.978l.001 2.221zm9.228-8.316c-.314-.242-.764-.362-1.354-.362-.768 0-1.41.34-1.924 1.023-.515.68-.772 1.61-.772 2.782v5.39h-2.596V10.893h2.596v2.321h.044c.253-.792.643-1.41 1.169-1.853.525-.443 1.113-.666 1.761-.666.47 0 .828.07 1.075.21v2.42zm6.935 9.097c-1.767 0-3.178-.526-4.234-1.578-1.055-1.052-1.583-2.448-1.583-4.185 0-1.893.55-3.37 1.65-4.434 1.1-1.063 2.582-1.595 4.447-1.595 1.79 0 3.184.518 4.183 1.552 1 1.034 1.498 2.467 1.498 4.3 0 1.797-.538 3.236-1.616 4.317-1.077 1.083-2.525 1.623-4.345 1.623zm.123-9.757c-1.014 0-1.816.349-2.404 1.045-.59.697-.884 1.657-.884 2.881 0 1.181.298 2.11.895 2.788.596.678 1.395 1.018 2.394 1.018 1.023 0 1.807-.334 2.355-1 .547-.669.822-1.618.822-2.85 0-1.239-.273-2.196-.822-2.87-.549-.674-1.334-1.012-2.356-1.012zm7.775 9.141v-2.364c.97.726 2.04 1.089 3.21 1.089 1.566 0 2.349-.455 2.349-1.364 0-.257-.067-.474-.201-.654a1.887 1.887 0 00-.543-.478 4.43 4.43 0 00-.805-.374c-.31-.111-.655-.235-1.035-.375a10.95 10.95 0 01-1.27-.583 3.826 3.826 0 01-.94-.698 2.612 2.612 0 01-.564-.886 3.207 3.207 0 01-.19-1.155c0-.542.131-1.02.392-1.435a3.368 3.368 0 011.051-1.044 5.08 5.08 0 011.5-.638 6.969 6.969 0 011.733-.214c1.058 0 2.005.157 2.84.472v2.233c-.805-.543-1.73-.815-2.773-.815-.329 0-.625.034-.89.099a2.32 2.32 0 00-.677.275 1.367 1.367 0 00-.436.423.997.997 0 00-.157.544c0 .242.053.448.157.617.105.168.259.317.465.445.204.129.45.246.738.352.287.106.617.222.99.346.452.18.894.382 1.326.606.392.205.726.437 1.002.698.271.254.488.56.637.902.149.34.224.746.224 1.215 0 .572-.134 1.07-.403 1.496a3.33 3.33 0 01-1.074 1.056 5.046 5.046 0 01-1.549.62 8.145 8.145 0 01-1.851.204c-1.254 0-2.34-.204-3.256-.615zm15.683.616c-1.768 0-3.179-.526-4.235-1.578-1.055-1.052-1.582-2.448-1.582-4.185 0-1.893.55-3.37 1.651-4.434 1.099-1.063 2.581-1.595 4.445-1.595 1.79 0 3.184.518 4.184 1.552.999 1.034 1.499 2.467 1.499 4.3 0 1.797-.539 3.236-1.616 4.317-1.078 1.083-2.528 1.623-4.346 1.623zm.123-9.757c-1.015 0-1.817.349-2.406 1.045-.59.697-.884 1.657-.884 2.881 0 1.181.299 2.11.895 2.788.596.678 1.395 1.018 2.395 1.018 1.021 0 1.805-.334 2.354-1 .549-.669.822-1.618.822-2.85 0-1.239-.273-2.196-.822-2.87-.549-.674-1.333-1.012-2.354-1.012zm14.966-5.103a2.389 2.389 0 00-1.197-.297c-1.26 0-1.89.7-1.89 2.1v1.53h2.663v2.002h-2.651v9.261h-2.596v-9.261h-1.957v-2.002h1.957V9.068c0-1.188.396-2.125 1.186-2.81.791-.686 1.779-1.03 2.965-1.03.641 0 1.148.07 1.52.21V7.56zm7.484 14.476c-.507.249-1.175.374-2.003.374-2.222 0-3.333-1.049-3.333-3.145v-6.37h-1.912v-2h1.912V8.287l2.596-.726v3.333h2.741v2.002h-2.741v5.631c0 .667.122 1.144.369 1.43.247.286.656.429 1.23.429a1.8 1.8 0 001.141-.375v2.025zm22.014.12h-2.92l-1.442-4.015h-6.309l-1.387 4.015h-2.908l6.006-15.773h2.997l5.962 15.773h.001zm-5.067-6.148l-2.226-6.292a7.29 7.29 0 01-.212-.99h-.044a6.311 6.311 0 01-.224.99l-2.204 6.292h4.91zm15.447-4.048l-6.186 8.205h6.163v1.991h-9.799V21.2l6.32-8.316h-5.715v-1.991h9.217v1.068zm12.181 10.196h-2.594v-1.782h-.044c-.754 1.363-1.925 2.046-3.512 2.046-2.708 0-4.061-1.598-4.061-4.796v-6.732h2.595v6.468c0 2.024.794 3.036 2.383 3.036.768 0 1.399-.278 1.896-.835.496-.558.744-1.287.744-2.19v-6.48h2.595l-.002 11.265zm10.034-8.832c-.313-.243-.764-.363-1.354-.363-.768 0-1.409.34-1.924 1.023-.514.68-.772 1.61-.772 2.782v5.39h-2.595V10.893h2.595v2.321h.044c.253-.792.643-1.41 1.169-1.853.526-.443 1.113-.666 1.761-.666.47 0 .828.07 1.074.21l.002 2.42zm11.555 3.893h-7.808c.03 1.041.355 1.844.979 2.41.622.564 1.478.846 2.567.846 1.223 0 2.346-.36 3.367-1.078v2.056c-1.044.646-2.424.969-4.139.969-1.686 0-3.007-.512-3.966-1.535-.958-1.023-1.436-2.462-1.436-4.317 0-1.752.527-3.18 1.583-4.284 1.055-1.104 2.366-1.656 3.932-1.656 1.567 0 2.777.495 3.635 1.485.858.99 1.287 2.364 1.287 4.125l-.001.98zm-2.506-1.804c-.011-.917-.227-1.63-.659-2.139-.433-.509-1.029-.764-1.79-.764a2.54 2.54 0 00-1.896.804c-.518.534-.837 1.235-.957 2.1h5.302z" fill="#5E308C"/></svg>