<svg width="176" height="44" fill="none" xmlns="http://www.w3.org/2000/svg"><g clip-path="url(#clip0)"><mask id="mask0" maskUnits="userSpaceOnUse" x="0" y="0" width="45" height="44"><path fill="#C4C4C4" d="M.5 0h44v44H.5z"/></mask><g mask="url(#mask0)"><rect x="16.5" y="28" width="12" height="10" rx="2" fill="#5E308C"/><rect x="19.5" y="24" width="6" height="8" rx="3" stroke="#5E308C" stroke-width="2"/><path d="M30.01 32h5.645c4.069-.354 6.845-3.223 6.845-6.71 0-3.3-2.719-6.046-6.288-6.629a11.31 11.31 0 00-.67-3.15C33.385 9.6 26.809 6.543 20.856 8.683a11.401 11.401 0 00-7.116 7.557 10.426 10.426 0 00-2.148-.225c-5.04 0-9.092 3.587-9.092 8.01 0 4.11 3.407 7.495 8.104 7.957h4.147" stroke="#5E308C" stroke-width="3"/></g><path d="M60.5 28.417V15.529h4.536c.612 0 1.182.102 1.71.306.54.192 1.008.468 1.404.828.396.36.708.792.936 1.296.228.492.342 1.038.342 1.638 0 .612-.114 1.17-.342 1.674-.228.492-.54.918-.936 1.278s-.864.642-1.404.846a4.967 4.967 0 01-1.71.288H62.93v4.734H60.5zm4.572-7.038c.636 0 1.116-.18 1.44-.54.324-.36.486-.774.486-1.242 0-.228-.042-.45-.126-.666a1.32 1.32 0 00-.36-.558 1.614 1.614 0 00-.594-.396 2.27 2.27 0 00-.846-.144H62.93v3.546h2.142zm5.792-1.782h2.214v1.224h.144a2.28 2.28 0 01.432-.594c.18-.18.378-.336.594-.468a3.17 3.17 0 01.72-.306c.264-.072.522-.108.774-.108.312 0 .576.03.792.09.228.06.42.138.576.234l-.63 2.142a1.928 1.928 0 00-.486-.162 2.333 2.333 0 00-.63-.072c-.324 0-.618.066-.882.198a1.93 1.93 0 00-.684.522c-.18.228-.324.498-.432.81-.096.3-.144.63-.144.99v4.32h-2.358v-8.82zm8.644-1.278c-.204 0-.402-.036-.594-.108a1.91 1.91 0 01-.486-.324 1.91 1.91 0 01-.324-.486 1.586 1.586 0 01-.108-.594c0-.216.036-.414.108-.594a1.63 1.63 0 01.324-.468c.144-.144.306-.252.486-.324.192-.084.39-.126.594-.126.42 0 .78.15 1.08.45.3.288.45.642.45 1.062 0 .42-.15.78-.45 1.08-.3.288-.66.432-1.08.432zm-1.17 10.098v-8.82h2.358v8.82h-2.358zm3.579-8.82h2.682l2.196 5.616h.126l2.214-5.616h2.664L88 28.417h-2.322l-3.762-8.82zm16.215 7.883h-.144a3.919 3.919 0 01-1.008.865c-.384.24-.882.36-1.494.36-.456 0-.888-.078-1.296-.234a3.238 3.238 0 01-1.044-.612 2.777 2.777 0 01-.702-.954 2.94 2.94 0 01-.252-1.224c0-.456.09-.864.27-1.224.18-.372.432-.69.756-.954a3.3 3.3 0 011.134-.594 4.642 4.642 0 011.44-.216c.576 0 1.05.048 1.422.144.372.084.678.174.918.27v-.27c0-.468-.186-.852-.558-1.152-.372-.312-.834-.468-1.386-.468-.816 0-1.506.342-2.07 1.026l-1.71-1.17c.936-1.176 2.214-1.764 3.834-1.764 1.368 0 2.412.324 3.132.972.72.636 1.08 1.584 1.08 2.844v5.292h-2.322v-.936zm0-2.645a4.35 4.35 0 00-.864-.306 3.4 3.4 0 00-.954-.126c-.564 0-1.002.126-1.314.378-.3.24-.45.54-.45.9s.144.648.432.864c.3.216.642.324 1.026.324.312 0 .6-.054.864-.162.264-.12.486-.27.666-.45.192-.192.336-.408.432-.648.108-.252.162-.51.162-.774zm4.993-3.222h-1.548v-2.016h1.548v-2.7h2.358v2.7h2.16v2.016h-2.16v3.42c0 .204.018.396.054.576a.981.981 0 00.252.432c.168.192.408.288.72.288.204 0 .366-.018.486-.054a1.86 1.86 0 00.342-.18l.666 2.07a3.592 3.592 0 01-.9.288c-.312.072-.66.108-1.044.108-.444 0-.846-.066-1.206-.198a2.677 2.677 0 01-.882-.576c-.564-.54-.846-1.308-.846-2.304v-3.87zm14.517 4.68a4.914 4.914 0 01-1.656 1.746c-.684.444-1.524.666-2.52.666a5.04 5.04 0 01-1.872-.342 4.627 4.627 0 01-1.476-.99c-.42-.42-.75-.912-.99-1.476a5.09 5.09 0 01-.342-1.89c0-.636.114-1.236.342-1.8a4.488 4.488 0 01.954-1.494 4.57 4.57 0 011.44-1.026 4.493 4.493 0 011.854-.378c.708 0 1.338.12 1.89.36a3.714 3.714 0 011.386.972c.372.408.654.894.846 1.458.192.564.288 1.176.288 1.836v.216a1.212 1.212 0 00-.018.198c-.012.06-.018.126-.018.198h-6.642c.048.36.144.672.288.936.156.252.342.468.558.648.228.168.474.294.738.378.264.072.534.108.81.108.54 0 .984-.12 1.332-.36.36-.252.642-.564.846-.936l1.962.972zm-2.142-3.42a1.435 1.435 0 00-.162-.522 1.646 1.646 0 00-.396-.54 1.943 1.943 0 00-.648-.414c-.252-.108-.558-.162-.918-.162a2.16 2.16 0 00-1.332.432c-.384.288-.654.69-.81 1.206h4.266zm16.117 3.294a4.967 4.967 0 01-1.62 1.836c-.684.468-1.542.702-2.574.702a5.09 5.09 0 01-1.89-.342 4.627 4.627 0 01-1.476-.99 4.783 4.783 0 01-.972-1.476 5.09 5.09 0 01-.342-1.89c0-.684.114-1.314.342-1.89.24-.576.564-1.068.972-1.476a4.39 4.39 0 011.476-.972 4.866 4.866 0 011.89-.36c1.02 0 1.878.234 2.574.702a4.157 4.157 0 011.53 1.818l-2.16.9c-.204-.408-.468-.714-.792-.918-.312-.216-.708-.324-1.188-.324-.312 0-.606.06-.882.18s-.522.288-.738.504c-.204.216-.366.48-.486.792-.12.312-.18.66-.18 1.044s.06.732.18 1.044c.12.312.282.576.486.792.216.216.462.384.738.504.276.12.57.18.882.18.492 0 .906-.108 1.242-.324.348-.228.624-.552.828-.972l2.16.936zm1.439 2.25V15.529h2.358v12.888h-2.358zm8.465-9.108c.684 0 1.308.12 1.872.36a4.166 4.166 0 011.476.972c.42.408.744.9.972 1.476.24.576.36 1.206.36 1.89 0 .684-.12 1.314-.36 1.89a4.35 4.35 0 01-.972 1.494c-.408.408-.9.732-1.476.972a4.952 4.952 0 01-1.872.342 5.09 5.09 0 01-1.89-.342 4.783 4.783 0 01-1.476-.972 4.729 4.729 0 01-.972-1.494 5.09 5.09 0 01-.342-1.89c0-.684.114-1.314.342-1.89.24-.576.564-1.068.972-1.476a4.39 4.39 0 011.476-.972 4.866 4.866 0 011.89-.36zm0 7.218c.3 0 .588-.054.864-.162a2.24 2.24 0 001.26-1.296c.132-.312.198-.666.198-1.062s-.066-.75-.198-1.062a2.24 2.24 0 00-.504-.792 2.099 2.099 0 00-.756-.486 2.145 2.145 0 00-.864-.18c-.312 0-.606.06-.882.18-.276.108-.522.27-.738.486a2.46 2.46 0 00-.522.792c-.12.312-.18.666-.18 1.062s.06.75.18 1.062a2.375 2.375 0 001.26 1.296c.276.108.57.162.882.162zm12.209.738h-.144a3.06 3.06 0 01-1.116 1.062c-.468.252-1.002.378-1.602.378-1.116 0-1.95-.342-2.502-1.026-.54-.684-.81-1.596-.81-2.736v-5.346h2.358v5.058c0 .636.138 1.11.414 1.422.288.3.702.45 1.242.45.324 0 .606-.066.846-.198.252-.144.462-.33.63-.558.18-.24.312-.516.396-.828.096-.324.144-.666.144-1.026v-4.32h2.358v8.82h-2.214v-1.152zm10.716.09h-.144c-.216.372-.552.69-1.008.954-.456.264-1.02.396-1.692.396a3.966 3.966 0 01-1.62-.342 4.662 4.662 0 01-1.35-.972 4.814 4.814 0 01-.918-1.494 5.09 5.09 0 01-.342-1.89c0-.684.114-1.314.342-1.89a4.591 4.591 0 01.918-1.476c.396-.42.846-.744 1.35-.972a3.797 3.797 0 011.62-.36c.672 0 1.236.132 1.692.396.456.264.792.582 1.008.954h.144l-.144-1.26v-3.87h2.358v12.888h-2.214v-1.062zm-2.358-.828c.312 0 .606-.054.882-.162.288-.12.54-.288.756-.504.216-.216.39-.48.522-.792.132-.312.198-.666.198-1.062s-.066-.75-.198-1.062a2.46 2.46 0 00-.522-.792 2.099 2.099 0 00-.756-.486c-.276-.12-.57-.18-.882-.18-.312 0-.612.06-.9.18a2.375 2.375 0 00-1.26 1.296c-.132.312-.198.66-.198 1.044s.066.732.198 1.044a2.375 2.375 0 001.26 1.296c.288.12.588.18.9.18zm9.985 2.178a5.133 5.133 0 01-1.548-.216 4.596 4.596 0 01-1.17-.558c-.324-.24-.6-.51-.828-.81a4.071 4.071 0 01-.522-.936l2.106-.9c.204.456.474.798.81 1.026.348.216.732.324 1.152.324.432 0 .774-.078 1.026-.234.252-.156.378-.342.378-.558 0-.24-.108-.432-.324-.576-.204-.156-.564-.294-1.08-.414l-1.242-.27a4.559 4.559 0 01-.864-.288 3.412 3.412 0 01-.792-.504 2.555 2.555 0 01-.594-.738 2.084 2.084 0 01-.234-1.008c0-.432.09-.816.27-1.152.192-.336.45-.618.774-.846.324-.24.702-.42 1.134-.54a4.966 4.966 0 011.422-.198c.84 0 1.59.168 2.25.504.66.324 1.146.846 1.458 1.566l-2.034.828a1.56 1.56 0 00-.738-.756 2.224 2.224 0 00-.972-.234c-.336 0-.63.072-.882.216-.252.132-.378.306-.378.522 0 .204.102.366.306.486.216.12.504.228.864.324l1.35.324c.9.216 1.566.564 1.998 1.044.444.468.666 1.026.666 1.674 0 .384-.09.75-.27 1.098a2.99 2.99 0 01-.774.936c-.324.264-.72.474-1.188.63a4.707 4.707 0 01-1.53.234z" fill="#5E308C"/></g><defs><clipPath id="clip0"><path fill="#fff" transform="translate(.5)" d="M0 0h175.335v44H0z"/></clipPath></defs></svg>