<svg width="224" height="80" fill="none" xmlns="http://www.w3.org/2000/svg"><path d="M40.1 14.335l.017 1 .983-.018v-.982h-1zm-2.175 2.224l.5.866.5-.289v-.576h-1zm4.43-.041l-1 .014.009.631.574.264.417-.91zm-2.175-2.183h-1v.982l.982.018.018-1zm14.822 21.993h-1v1h1v-1zM40.268 21.023v-1l-.008 2 .008-1zm1.765 0v1h1v-1h-1zm0-2.578h1v-1h-1v1zm-3.706 0v-1h-1v1h1zm0 2.578h-1v1h1v-1zm1.684 0l.009 1-.009-2v1zM25.278 36.328v1h1v-1h-1zm-3.061 8.135h1v-1h-1v1zm0 9.184h-1v1h1v-1zm2.738 0v1h1v-1h-1zm0-7.452h1-1zm2.98 7.453h-1v1h1v-1zm3.867 0v1h1v-1h-1zm2.981-7.453h1-1zm0 7.453h-1v1h1v-1zm3.947 0v1h1v-1h-1zm2.98 0h-1v1h1v-1zm3.867 0v1h1v-1h-1zm0-7.453h1-1zm2.98 7.453h-1v1h1v-1zm3.706 0v1h1v-1h-1zm2.98 0h-1v1h1v-1zm2.981 0v1h1v-1h-1zm0-9.186l-.031-1-.969.031v.97h1zm6.686 15.065v-1h-1v1h1zm0 9.183v1h1v-1h-1zm-2.739 0h-1v1h1v-1zm-2.98 0v1h1v-1h-1zm-3.947 0h-1v1h1v-1zm-2.98 0v1h1v-1h-1zm-3.706 0h-1v1h1v-1zm-2.98-7.452h1-1zm0 7.452v1h1v-1h-1zm-3.867 0h-1v1h1v-1zm-2.98 0v1h1v-1h-1zm-3.948 0h-1v1h1v-1zm-2.98 0v1h1v-1h-1zm-3.867 0h-1v1h1v-1zm-2.98 0v1h1v-1h-1zm-3.787 0h-1v1h1v-1zm0-7.452h1-1zm-2.98 0h1-1zm0 7.452v1h1v-1h-1zm-2.659 0h-1v1h1v-1zm0-9.183h1v-1h-1v1zM41.1 12.04c0 .53-.43.96-.96.96v-2a1.04 1.04 0 00-1.04 1.04h2zm0 2.295V12.04h-2v2.295h2zm-2.175 2.215c0-.664.532-1.203 1.192-1.215l-.035-2a3.215 3.215 0 00-3.157 3.215h2zm0 .01v-.01h-2v.01h2zm-.484.837a.04.04 0 01-.005.018.03.03 0 01-.01.01l-1.002-1.731a1.966 1.966 0 00-.983 1.703h2zm-.033-.034c.018 0 .033.015.033.034h-2c0 1.086.88 1.966 1.967 1.966v-2zm3.544 0h-3.544v2h3.544v-2zm-.033.034c0-.019.015-.034.033-.034v2c1.086 0 1.967-.88 1.967-1.966h-2zm.019.03a.03.03 0 01-.013-.011.037.037 0 01-.006-.02h2c0-.795-.472-1.478-1.147-1.787l-.834 1.818zm-1.776-2.092a1.215 1.215 0 011.193 1.197l2-.029a3.215 3.215 0 00-3.157-3.168l-.036 2zm-.982-3.295v2.295h2V12.04h-2zm.96.96a.96.96 0 01-.96-.96h2A1.04 1.04 0 0040.14 11v2zM24.344 37.577c0-.138.111-.249.249-.249v-2a2.249 2.249 0 00-2.249 2.249h2zm.249.248a.249.249 0 01-.249-.248h-2a2.249 2.249 0 002.249 2.248v-2zm31.094 0H24.593v2h31.094v-2zm.248-.248a.249.249 0 01-.248.248v2a2.249 2.249 0 002.248-2.248h-2zm-.248-.249c.137 0 .248.111.248.249h2a2.249 2.249 0 00-2.248-2.249v2zm-.685 0h.685v-2h-.685v2zm-1-1.443v.443h2v-.443h-2zM40.26 22.023c7.6.064 13.742 6.246 13.742 13.862h2c0-8.715-7.028-15.788-15.725-15.862l-.017 2zm1.773-2h-1.765v2h1.765v-2zm-1-1.578v2.578h2v-2.578h-2zm-2.706 1h3.706v-2h-3.706v2zm1 1.578v-2.578h-2v2.578h2zm.684-1h-1.684v2h1.684v-2zM26.278 35.885c0-7.616 6.141-13.798 13.742-13.862l-.017-2c-8.698.074-15.725 7.147-15.725 15.862h2zm0 .443v-.443h-2v.443h2zm-1.685 1h.685v-2h-.685v2zm-2.746 5.886c0-.137.111-.248.249-.248v-2a2.249 2.249 0 00-2.249 2.248h2zm.249.249a.249.249 0 01-.249-.249h-2a2.249 2.249 0 002.249 2.249v-2zm.12 0h-.12v2h.12v-2zm1 10.184v-9.184h-2v9.184h2zm1.74-1h-2.74v2h2.74v-2zm-1-6.452v7.453h2v-7.453h-2zm2.49-2.49a2.49 2.49 0 00-2.49 2.49h2c0-.27.219-.49.49-.49v-2zm2.49 2.49a2.49 2.49 0 00-2.49-2.49v2c.27 0 .49.22.49.49h2zm0 7.453v-7.453h-2v7.453h2zm2.866-1h-3.866v2h3.866v-2zm-1-6.453v7.453h2v-7.453h-2zm2.49-2.49a2.49 2.49 0 00-2.49 2.49h2c0-.27.22-.49.49-.49v-2zm2.491 2.49a2.49 2.49 0 00-2.49-2.49v2c.27 0 .49.22.49.49h2zm0 7.453v-7.453h-2v7.453h2zm2.947-1h-3.947v2h3.947v-2zm-1-6.453v7.453h2v-7.453h-2zm2.49-2.49a2.49 2.49 0 00-2.49 2.49h2c0-.27.22-.49.49-.49v-2zm2.49 2.49a2.49 2.49 0 00-2.49-2.49v2c.271 0 .49.22.49.49h2zm0 7.453v-7.453h-2v7.453h2zm2.867-1h-3.866v2h3.866v-2zm-1-6.453v7.453h2v-7.453h-2zm2.49-2.49a2.49 2.49 0 00-2.49 2.49h2c0-.27.22-.49.49-.49v-2zm2.49 2.49a2.49 2.49 0 00-2.49-2.49v2c.271 0 .49.22.49.49h2zm0 7.453v-7.453h-2v7.453h2zm2.706-1h-3.705v2h3.705v-2zm-1-6.453v7.453h2v-7.453h-2zm2.49-2.49a2.49 2.49 0 00-2.49 2.49h2c0-.27.22-.49.49-.49v-2zm2.49 2.49a2.49 2.49 0 00-2.49-2.49v2c.271 0 .49.22.49.49h2zm0 7.453v-7.453h-2v7.453h2zm1.981-1h-2.98v2h2.98v-2zm-1-8.186v9.185h2v-9.185h-2zm1.209-1.248a.249.249 0 01-.24.249l.063 1.999a2.249 2.249 0 002.176-2.248h-2zm-.25-.248c.138 0 .25.11.25.248h2a2.249 2.249 0 00-2.25-2.248v2zm-36.087 0h36.088v-2H22.096v2zM15.249 56.03A2.249 2.249 0 0013 58.28h2c0-.138.111-.249.249-.249v-2zm49.782 0H15.25v2h49.78v-2zm2.249 2.249a2.249 2.249 0 00-2.249-2.249v2c.137 0 .249.111.249.249h2zm-2.249 2.248a2.249 2.249 0 002.249-2.248h-2a.249.249 0 01-.249.248v2zm-.12 0h.12v-2h-.12v2zm1 8.183v-9.183h-2v9.183h2zm-3.74 1h2.74v-2h-2.74v2zm-1-8.452v7.452h2v-7.452h-2zm-.49-.49c.27 0 .49.22.49.49h2a2.49 2.49 0 00-2.49-2.49v2zm-.49.49c0-.27.22-.49.49-.49v-2a2.49 2.49 0 00-2.49 2.49h2zm0 7.452v-7.452h-2v7.452h2zm-4.947 1h3.947v-2h-3.947v2zm-1-8.452v7.452h2v-7.452h-2zm-.49-.49c.27 0 .49.22.49.49h2a2.49 2.49 0 00-2.49-2.49v2zm-.49.49c0-.27.219-.49.49-.49v-2a2.49 2.49 0 00-2.49 2.49h2zm0 7.452v-7.452h-2v7.452h2zm-4.706 1h3.705v-2h-3.705v2zm-1-8.452v7.452h2v-7.452h-2zm-.49-.49c.27 0 .49.22.49.49h2a2.49 2.49 0 00-2.49-2.49v2zm-.49.49c0-.27.219-.49.49-.49v-2a2.49 2.49 0 00-2.49 2.49h2zm0 7.452v-7.452h-2v7.452h2zm-4.867 1h3.866v-2h-3.866v2zm-1-8.452v7.452h2v-7.452h-2zm-.49-.49c.27 0 .49.22.49.49h2a2.49 2.49 0 00-2.49-2.49v2zm-.49.49c0-.27.219-.49.49-.49v-2a2.49 2.49 0 00-2.49 2.49h2zm0 7.452v-7.452h-2v7.452h2zm-4.948 1h3.947v-2h-3.947v2zm-1-8.452v7.452h2v-7.452h-2zm-.49-.49c.27 0 .49.22.49.49h2a2.49 2.49 0 00-2.49-2.49v2zm-.49.49c0-.27.219-.49.49-.49v-2a2.49 2.49 0 00-2.49 2.49h2zm0 7.452v-7.452h-2v7.452h2zm-4.867 1h3.866v-2h-3.866v2zm-1-8.452v7.452h2v-7.452h-2zm-.49-.49c.27 0 .49.22.49.49h2a2.49 2.49 0 00-2.49-2.49v2zm-.49.49c0-.27.219-.49.49-.49v-2a2.49 2.49 0 00-2.49 2.49h2zm0 7.452v-7.452h-2v7.452h2zm-4.787 1h3.786v-2H21.17v2zm-1-8.452v7.452h2v-7.452h-2zm-.49-.49c.27 0 .49.22.49.49h2a2.49 2.49 0 00-2.49-2.49v2zm-.49.49c0-.27.22-.49.49-.49v-2a2.49 2.49 0 00-2.49 2.49h2zm0 7.452v-7.452h-2v7.452h2zm-3.659 1h2.659v-2H15.53v2zm-1-10.183v9.183h2v-9.183h-2zm.719 1h.281v-2h-.281v2zM13 58.28a2.249 2.249 0 002.249 2.248v-2A.249.249 0 0115 58.28h-2zM115.179 37.1a3.762 3.762 0 00-.49-1.03 3.175 3.175 0 00-.739-.789 2.98 2.98 0 00-.98-.49 4.088 4.088 0 00-1.207-.17c-.781 0-1.477.196-2.088.59-.611.392-1.092.97-1.442 1.732-.346.758-.519 1.681-.519 2.77 0 1.099.173 2.029.519 2.791.346.763.826 1.343 1.442 1.74.615.393 1.33.59 2.145.59.738 0 1.377-.142 1.917-.426a2.997 2.997 0 001.257-1.208c.294-.525.441-1.14.441-1.846l.596.092h-3.949v-2.06h5.902v1.747c0 1.246-.265 2.323-.795 3.232a5.434 5.434 0 01-2.188 2.102c-.928.488-1.993.732-3.196.732-1.34 0-2.516-.3-3.529-.902-1.009-.606-1.797-1.466-2.365-2.578-.564-1.118-.846-2.443-.846-3.977 0-1.175.166-2.223.497-3.147.337-.923.805-1.707 1.407-2.35a5.985 5.985 0 012.116-1.478 6.743 6.743 0 012.642-.511c.805 0 1.556.118 2.252.355a5.954 5.954 0 011.853.994c.545.431.992.942 1.343 1.534.35.592.58 1.245.689 1.96h-2.685zm9.998 10.113c-1.065 0-1.988-.234-2.77-.703a4.776 4.776 0 01-1.818-1.967c-.426-.843-.639-1.828-.639-2.955s.213-2.114.639-2.962a4.767 4.767 0 011.818-1.974c.782-.469 1.705-.703 2.77-.703 1.066 0 1.989.234 2.77.703a4.719 4.719 0 011.811 1.974c.431.848.646 1.835.646 2.962 0 1.127-.215 2.112-.646 2.955a4.728 4.728 0 01-1.811 1.967c-.781.469-1.704.703-2.77.703zm.014-2.06c.578 0 1.061-.158 1.449-.475.389-.322.677-.753.867-1.293.194-.54.291-1.141.291-1.804 0-.668-.097-1.271-.291-1.811-.19-.545-.478-.978-.867-1.3-.388-.322-.871-.483-1.449-.483-.591 0-1.084.161-1.477.483-.388.322-.679.755-.873 1.3a5.429 5.429 0 00-.285 1.811c0 .663.095 1.264.285 1.804.194.54.485.97.873 1.293.393.317.886.475 1.477.475zm16.769-9.062L138.075 47h-2.841l-3.885-10.91h2.742l2.507 8.105h.113l2.514-8.104h2.735zm6.237 11.122c-1.093 0-2.038-.227-2.833-.682a4.616 4.616 0 01-1.826-1.946c-.426-.843-.639-1.834-.639-2.976 0-1.122.213-2.107.639-2.954.431-.852 1.033-1.515 1.804-1.989.772-.478 1.679-.717 2.72-.717a5.51 5.51 0 011.904.327 4.302 4.302 0 011.591.994c.464.45.828 1.023 1.094 1.719.265.69.397 1.515.397 2.471v.789h-8.941v-1.733h6.477a2.76 2.76 0 00-.32-1.314 2.32 2.32 0 00-.873-.916c-.37-.223-.801-.334-1.293-.334-.526 0-.987.128-1.385.383a2.636 2.636 0 00-.93.995 2.863 2.863 0 00-.334 1.342v1.513c0 .634.116 1.179.348 1.633.232.45.556.796.973 1.037.417.237.904.355 1.463.355.374 0 .713-.052 1.016-.156.303-.109.565-.268.788-.476a1.98 1.98 0 00.504-.774l2.401.27a3.75 3.75 0 01-.867 1.662c-.421.469-.961.833-1.619 1.094-.658.255-1.411.383-2.259.383zm7.026-.213V36.09h2.493v1.82h.114c.199-.63.54-1.116 1.023-1.457a2.813 2.813 0 011.669-.518c.142 0 .3.007.476.021.179.01.329.026.447.05v2.365a2.715 2.715 0 00-.519-.1 4.765 4.765 0 00-.674-.05 2.6 2.6 0 00-1.264.306 2.23 2.23 0 00-.874.831c-.213.355-.32.765-.32 1.229V47h-2.571zm10.501-6.392V47h-2.571V36.09h2.457v1.855h.128a3.116 3.116 0 011.201-1.456c.554-.36 1.238-.54 2.052-.54.753 0 1.409.16 1.967.483.564.322 1 .788 1.307 1.399.313.61.467 1.352.462 2.223V47h-2.571v-6.548c0-.73-.189-1.3-.568-1.712-.374-.412-.893-.618-1.556-.618-.449 0-.85.1-1.2.298a2.067 2.067 0 00-.817.846c-.194.369-.291.816-.291 1.342zM175.341 47V36.09h2.457v1.855h.128a2.89 2.89 0 011.129-1.464c.526-.355 1.153-.532 1.882-.532.739 0 1.361.18 1.868.54.511.355.871.84 1.08 1.456h.113a2.985 2.985 0 011.222-1.45c.577-.364 1.262-.546 2.052-.546 1.004 0 1.823.317 2.458.952.634.634.951 1.56.951 2.777V47h-2.578v-6.925c0-.677-.18-1.172-.539-1.484-.36-.317-.801-.476-1.321-.476-.621 0-1.106.194-1.456.582-.346.384-.519.883-.519 1.499V47h-2.521v-7.031c0-.564-.171-1.014-.512-1.35-.336-.336-.776-.504-1.321-.504-.369 0-.705.095-1.008.284a1.984 1.984 0 00-.725.788c-.179.337-.269.73-.269 1.18V47h-2.571zm22.778.213c-1.093 0-2.038-.227-2.833-.682a4.616 4.616 0 01-1.826-1.946c-.426-.843-.639-1.834-.639-2.976 0-1.122.213-2.107.639-2.954.431-.852 1.032-1.515 1.804-1.989.772-.478 1.679-.717 2.72-.717a5.51 5.51 0 011.904.327 4.31 4.31 0 011.591.994c.464.45.828 1.023 1.093 1.719.266.69.398 1.515.398 2.471v.789h-8.942v-1.733h6.478a2.773 2.773 0 00-.32-1.314 2.316 2.316 0 00-.874-.916c-.369-.223-.8-.334-1.292-.334-.526 0-.987.128-1.385.383a2.636 2.636 0 00-.93.995 2.85 2.85 0 00-.334 1.342v1.513c0 .634.116 1.179.348 1.633.232.45.556.796.973 1.037.416.237.904.355 1.463.355.374 0 .712-.052 1.015-.156a2.26 2.26 0 00.789-.476c.222-.208.39-.466.504-.774l2.401.27a3.75 3.75 0 01-.867 1.662c-.421.469-.961.833-1.619 1.094-.658.255-1.411.383-2.259.383zm9.597-6.605V47h-2.571V36.09h2.458v1.855h.127a3.121 3.121 0 011.201-1.456c.554-.36 1.238-.54 2.052-.54.753 0 1.409.16 1.968.483a3.25 3.25 0 011.306 1.399c.313.61.467 1.352.462 2.223V47h-2.571v-6.548c0-.73-.189-1.3-.568-1.712-.374-.412-.893-.618-1.555-.618-.45 0-.85.1-1.201.298a2.073 2.073 0 00-.817.846c-.194.369-.291.816-.291 1.342zm15.064-4.517v1.989h-6.271v-1.99h6.271zm-4.723-2.614h2.571V43.72c0 .345.052.61.156.795.109.18.251.303.427.37.175.066.369.099.582.099a3.17 3.17 0 00.753-.1l.433 2.01a5.76 5.76 0 01-.589.157c-.251.056-.559.09-.924.1-.644.018-1.224-.079-1.74-.292a2.705 2.705 0 01-1.228-1.009c-.299-.454-.446-1.022-.441-1.704V33.477z" fill="#5E308C"/></svg>