<svg width="276" height="80" fill="none" xmlns="http://www.w3.org/2000/svg"><g clip-path="url(#clip0)" fill="#5E308C"><path d="M60.048 27.1h-.183v-.305a3.938 3.938 0 00-3.917-3.938H19.652a3.938 3.938 0 00-3.938 3.938v22.167a3.936 3.936 0 003.938 3.938h.305v.183a4.06 4.06 0 004.06 4.06h36.031a4.06 4.06 0 004.06-4.06V31.159a4.06 4.06 0 00-4.06-4.06zm-42.304 2.82h40.112v4.182H17.744V29.92zm1.908-5.034h36.296a1.908 1.908 0 011.908 1.908v1.096H17.744v-1.096a1.908 1.908 0 011.908-1.908zm-1.908 24.075v-12.83h40.112v12.83a1.908 1.908 0 01-1.908 1.908H19.652a1.908 1.908 0 01-1.908-1.908zm44.334 4.06a2.03 2.03 0 01-2.03 2.03H24.017a2.03 2.03 0 01-2.03-2.03V52.9h33.96a3.938 3.938 0 003.939-3.938V29.129h.182a2.03 2.03 0 012.03 2.03l-.02 21.863z"/><path d="M46.387 48.271a3.654 3.654 0 002.66-1.056 3.674 3.674 0 100-5.034 3.654 3.654 0 10-2.66 6.09zm5.298-5.298a1.644 1.644 0 110 3.288 1.644 1.644 0 010-3.288zm-5.298 0a1.644 1.644 0 110 3.288 1.644 1.644 0 010-3.288z"/></g><path d="M105.435 47V32.455h9.318v2.208h-6.683v3.95h6.044v2.208h-6.044V47h-2.635zm11.605 0V36.09h2.571V47h-2.571zm1.292-12.457c-.412 0-.764-.135-1.058-.405a1.314 1.314 0 01-.433-.987c0-.389.147-.718.44-.988a1.486 1.486 0 011.051-.412c.408 0 .756.138 1.044.412.294.27.441.6.441.988 0 .383-.147.712-.441.987-.288.27-.636.405-1.044.405zm6.494 6.065V47h-2.571V36.09h2.457v1.855h.128a3.12 3.12 0 011.2-1.456c.554-.36 1.238-.54 2.053-.54.753 0 1.408.16 1.967.483.563.322.999.788 1.307 1.399.312.61.466 1.352.461 2.223V47h-2.571v-6.548c0-.73-.189-1.3-.568-1.712-.374-.412-.892-.618-1.555-.618-.45 0-.85.1-1.2.298a2.067 2.067 0 00-.817.846c-.194.369-.291.816-.291 1.342zm12.755 6.612c-.691 0-1.314-.123-1.868-.37a3.048 3.048 0 01-1.306-1.107c-.318-.488-.476-1.09-.476-1.804 0-.616.113-1.125.341-1.527.227-.402.537-.724.93-.966a4.7 4.7 0 011.328-.547c.497-.128 1.011-.22 1.541-.277.64-.066 1.158-.125 1.556-.177.398-.057.686-.142.866-.256.185-.118.277-.3.277-.547v-.043c0-.535-.158-.949-.476-1.242-.317-.294-.774-.44-1.37-.44-.63 0-1.13.136-1.499.411-.365.275-.611.6-.739.973l-2.4-.34c.189-.664.502-1.218.937-1.663.436-.45.969-.786 1.598-1.008a6.114 6.114 0 012.088-.341c.526 0 1.049.061 1.57.184a4.44 4.44 0 011.428.611c.43.28.776.66 1.037 1.144.265.483.397 1.086.397 1.81V47h-2.471v-1.499h-.086a3.133 3.133 0 01-.66.853c-.279.26-.632.47-1.058.632-.422.156-.916.234-1.485.234zm.668-1.889c.516 0 .963-.102 1.342-.305.379-.209.67-.483.874-.824.208-.341.312-.713.312-1.115V41.8c-.08.066-.217.128-.412.185a5.792 5.792 0 01-.639.149c-.237.043-.471.08-.703.114l-.604.085a4.488 4.488 0 00-1.029.255 1.713 1.713 0 00-.718.498c-.175.208-.263.478-.263.81 0 .473.173.83.519 1.072.346.241.786.362 1.321.362zm10.249-4.723V47h-2.572V36.09h2.458v1.855h.128a3.12 3.12 0 011.2-1.456c.554-.36 1.238-.54 2.053-.54.752 0 1.408.16 1.967.483.563.322.999.788 1.307 1.399.312.61.466 1.352.461 2.223V47h-2.571v-6.548c0-.73-.189-1.3-.568-1.712-.374-.412-.892-.618-1.555-.618-.45 0-.85.1-1.201.298a2.071 2.071 0 00-.816.846c-.194.369-.291.816-.291 1.342zm14.375 6.605c-1.09 0-2.025-.239-2.806-.717a4.798 4.798 0 01-1.797-1.982c-.416-.847-.625-1.823-.625-2.926 0-1.108.213-2.086.639-2.933.427-.852 1.028-1.515 1.804-1.989.782-.478 1.705-.717 2.77-.717.886 0 1.669.163 2.351.49a4.013 4.013 0 011.641 1.37c.407.588.639 1.274.696 2.06h-2.458a2.347 2.347 0 00-.71-1.314c-.369-.355-.864-.532-1.484-.532-.526 0-.987.142-1.385.426-.398.28-.708.682-.931 1.207-.217.526-.326 1.156-.326 1.89 0 .743.109 1.382.326 1.917.218.53.524.94.917 1.229.397.284.864.426 1.399.426a2.33 2.33 0 001.015-.213c.303-.147.557-.358.76-.632.204-.275.344-.609.419-1.002h2.458c-.062.772-.289 1.456-.682 2.053a4.038 4.038 0 01-1.605 1.392c-.677.331-1.473.497-2.386.497zm6.784-.213V36.09h2.571V47h-2.571zm1.293-12.457a1.51 1.51 0 01-1.059-.405 1.317 1.317 0 01-.433-.987c0-.389.147-.718.44-.988a1.487 1.487 0 011.052-.412c.407 0 .755.138 1.044.412.293.27.44.6.44.988 0 .383-.147.712-.44.987-.289.27-.637.405-1.044.405zm7.061 12.677c-.691 0-1.314-.123-1.868-.37a3.05 3.05 0 01-1.307-1.107c-.317-.488-.476-1.09-.476-1.804 0-.616.114-1.125.341-1.527.228-.402.538-.724.931-.966a4.687 4.687 0 011.328-.547c.497-.128 1.011-.22 1.541-.277a60.33 60.33 0 001.555-.177c.398-.057.687-.142.867-.256.185-.118.277-.3.277-.547v-.043c0-.535-.159-.949-.476-1.242-.317-.294-.774-.44-1.371-.44-.629 0-1.129.136-1.498.411-.365.275-.611.6-.739.973l-2.4-.34c.189-.664.501-1.218.937-1.663a4.07 4.07 0 011.598-1.008 6.114 6.114 0 012.088-.341c.526 0 1.049.061 1.57.184.521.124.996.327 1.427.611.431.28.777.66 1.037 1.144.265.483.398 1.086.398 1.81V47h-2.472v-1.499h-.085a3.133 3.133 0 01-.66.853c-.28.26-.632.47-1.059.632-.421.156-.916.234-1.484.234zm.668-1.889c.516 0 .963-.102 1.342-.305.379-.209.67-.483.874-.824.208-.341.312-.713.312-1.115V41.8c-.08.066-.218.128-.412.185a5.792 5.792 0 01-.639.149c-.237.043-.471.08-.703.114l-.604.085a4.497 4.497 0 00-1.03.255 1.71 1.71 0 00-.717.498c-.175.208-.263.478-.263.81 0 .473.173.83.519 1.072.345.241.786.362 1.321.362zm10.248-12.877V47h-2.571V32.455h2.571zM196.532 47V36.09h2.571V47h-2.571zm1.293-12.457a1.51 1.51 0 01-1.059-.405 1.317 1.317 0 01-.433-.987c0-.389.147-.718.44-.988a1.487 1.487 0 011.052-.412c.407 0 .755.138 1.044.412.293.27.44.6.44.988 0 .383-.147.712-.44.987-.289.27-.637.405-1.044.405zm6.493 6.065V47h-2.571V36.09h2.457v1.855h.128a3.12 3.12 0 011.2-1.456c.554-.36 1.238-.54 2.053-.54.753 0 1.408.16 1.967.483a3.25 3.25 0 011.307 1.399c.313.61.466 1.352.462 2.223V47h-2.571v-6.548c0-.73-.19-1.3-.569-1.712-.374-.412-.892-.618-1.555-.618-.45 0-.85.1-1.2.298a2.067 2.067 0 00-.817.846c-.194.369-.291.816-.291 1.342zm13.665 6.584c-.857 0-1.624-.22-2.302-.66-.677-.441-1.212-1.08-1.605-1.918-.393-.838-.589-1.856-.589-3.054 0-1.213.199-2.235.596-3.069.403-.838.945-1.47 1.627-1.896a4.18 4.18 0 012.28-.646c.639 0 1.164.109 1.576.327.412.213.739.47.981.774.241.298.428.58.561.845h.106v-5.44h2.578V47h-2.528v-1.719h-.156a4.415 4.415 0 01-.576.845 3.163 3.163 0 01-.994.753c-.412.209-.93.313-1.555.313zm.717-2.11c.544 0 1.008-.146 1.392-.44.383-.298.675-.713.874-1.243.198-.53.298-1.148.298-1.854 0-.705-.1-1.318-.298-1.839-.195-.52-.483-.926-.867-1.215-.379-.288-.845-.433-1.399-.433-.573 0-1.051.15-1.435.448-.383.298-.672.71-.866 1.236-.194.525-.291 1.126-.291 1.803 0 .682.097 1.29.291 1.826.199.53.49.95.873 1.257.389.303.864.454 1.428.454zm14.785-2.67V36.09h2.571V47h-2.493v-1.939h-.113a3.283 3.283 0 01-1.215 1.499c-.559.388-1.248.582-2.067.582-.715 0-1.347-.159-1.896-.476-.544-.322-.971-.788-1.278-1.399-.308-.616-.462-1.359-.462-2.23V36.09h2.571v6.548c0 .691.189 1.24.568 1.648.379.407.876.61 1.492.61.378 0 .745-.092 1.1-.276a2.24 2.24 0 00.874-.824c.232-.37.348-.831.348-1.385zm13.837-3.438l-2.344.256a1.874 1.874 0 00-.348-.667 1.725 1.725 0 00-.653-.505c-.275-.128-.611-.191-1.009-.191-.535 0-.984.116-1.349.348-.36.231-.537.532-.533.901a.948.948 0 00.348.775c.242.199.64.362 1.193.49l1.861.397c1.032.223 1.8.576 2.301 1.059.507.483.763 1.115.767 1.896a2.966 2.966 0 01-.603 1.818c-.393.521-.94.928-1.641 1.222-.701.293-1.506.44-2.415.44-1.335 0-2.41-.28-3.224-.838-.814-.563-1.3-1.347-1.456-2.35l2.507-.242c.114.492.355.864.725 1.115.369.25.849.376 1.441.376.611 0 1.101-.125 1.47-.376.374-.251.562-.561.562-.93a.968.968 0 00-.363-.775c-.236-.203-.606-.36-1.108-.469l-1.86-.39c-1.047-.218-1.821-.585-2.323-1.101-.502-.52-.75-1.179-.746-1.974-.004-.673.178-1.255.547-1.748.374-.497.893-.88 1.556-1.15.667-.275 1.437-.412 2.308-.412 1.278 0 2.284.272 3.018.817.739.544 1.196 1.28 1.371 2.208zm7.802-2.883v1.989h-6.271v-1.99h6.271zm-4.723-2.614h2.571V43.72c0 .345.052.61.156.795.109.18.251.303.426.37.176.066.37.099.583.099a3.233 3.233 0 00.753-.1l.433 2.01c-.138.048-.334.1-.59.157-.251.056-.558.09-.923.1-.644.018-1.224-.079-1.74-.292a2.708 2.708 0 01-1.229-1.009c-.298-.454-.445-1.022-.44-1.704V33.477zM257.274 47V36.09h2.493v1.82h.114c.199-.63.539-1.116 1.022-1.457a2.816 2.816 0 011.669-.518c.142 0 .301.007.476.021.18.01.329.026.448.05v2.365a2.715 2.715 0 00-.519-.1 4.776 4.776 0 00-.674-.05c-.469 0-.891.102-1.265.306-.369.199-.66.476-.873.831-.213.355-.32.765-.32 1.229V47h-2.571zm9.86 4.07a5.2 5.2 0 01-.973-.086 3.236 3.236 0 01-.703-.191l.596-1.996c.559.16 1.028.187 1.407.078.383-.104.698-.457.944-1.058l.22-.59-3.956-11.136h2.728l2.514 8.239h.114l2.521-8.24 2.748.015-4.382 12.216a4.923 4.923 0 01-.809 1.47 3.326 3.326 0 01-1.236.945c-.483.222-1.061.334-1.733.334z" fill="#5E308C"/><defs><clipPath id="clip0"><path fill="#fff" transform="translate(15.714 22.857)" d="M0 0h48.394v34.286H0z"/></clipPath></defs></svg>