<svg width="159" height="80" fill="none" xmlns="http://www.w3.org/2000/svg"><path d="M63.365 18.379h-5.89c-.055 0-.103.026-.157.032-.113.011-.218.03-.324.065-.089.03-.169.066-.25.11a1.514 1.514 0 00-.738.913c-.016.055-.052.1-.063.158l-.892 4.875-38.12 2.228c-.145-.01-.274.01-.437.026a1.559 1.559 0 00-1.388 1.854l2.656 14.486c.608 2.246 2.479 4.513 5.293 4.513h27.768l-.595 3.25H26.863a5.373 5.373 0 00-5.366 5.365 5.373 5.373 0 005.366 5.367 5.373 5.373 0 005.366-5.367c0-.806-.192-1.563-.512-2.25h14.348a5.308 5.308 0 00-.512 2.25 5.373 5.373 0 005.366 5.367 5.373 5.373 0 005.366-5.367c0-2.103-1.229-3.91-2.995-4.789l5.484-29.97h4.591a1.558 1.558 0 000-3.116zM52.507 38.43l-6.6.104.359-3.825 6.96-.209-.719 3.93zM19.53 35.51l6.597-.198.431 3.526-6.4.1-.628-3.428zm8.68-.26l7.25-.217v3.665l-6.814.107-.436-3.555zm7.25-2.296l-7.503.225-.48-3.916 7.984-.467v4.158zm2.078-4.28l7.249-.423-.417 4.436-6.832.205v-4.217zM35.46 40.778v3.747h-6.115L28.9 40.88l6.56-.103zm2.077-.033l6.084-.096-.364 3.876h-5.72v-3.78zm0-2.077V34.97l6.636-.198-.357 3.795-6.28.099zm16.071-6.256l-7.147.214.422-4.496 7.59-.443-.865 4.725zM25.4 29.387l.472 3.856-6.721.202a163.765 163.765 0 00-.701-3.652l6.95-.406zM20.798 42.44l-.262-1.428 6.275-.099.442 3.612h-4.199c-1.334 0-2.078-1.446-2.256-2.085zm24.545 2.085l.367-3.908 6.415-.101-.733 4.009h-6.05zm-16.23 11.73a2.253 2.253 0 01-2.25 2.252 2.253 2.253 0 01-2.251-2.252c0-1.24 1.009-2.25 2.25-2.25s2.25 1.01 2.25 2.25zm21.805 2.252a2.253 2.253 0 01-2.25-2.252c0-1.24 1.009-2.25 2.25-2.25s2.25 1.01 2.25 2.25a2.253 2.253 0 01-2.25 2.252zM105.435 47V32.455h5.454c1.118 0 2.055.194 2.813.582.762.388 1.337.933 1.726 1.633.393.697.589 1.508.589 2.436 0 .933-.199 1.743-.597 2.43-.393.681-.973 1.21-1.74 1.583-.767.37-1.709.554-2.826.554h-3.885v-2.187h3.53c.653 0 1.188-.09 1.605-.27.416-.185.724-.452.923-.803.204-.355.305-.79.305-1.306 0-.517-.101-.957-.305-1.322a1.947 1.947 0 00-.93-.838c-.417-.194-.954-.29-1.613-.29h-2.414V47h-2.635zm7.514-6.59L116.55 47h-2.941l-3.537-6.59h2.877zm10.053 6.803c-1.094 0-2.038-.227-2.834-.682a4.62 4.62 0 01-1.825-1.946c-.426-.843-.639-1.834-.639-2.976 0-1.122.213-2.107.639-2.954.431-.852 1.032-1.515 1.804-1.989.772-.478 1.679-.717 2.72-.717a5.51 5.51 0 011.904.327 4.31 4.31 0 011.591.994c.464.45.828 1.023 1.093 1.719.265.69.398 1.515.398 2.471v.789h-8.942v-1.733h6.477a2.76 2.76 0 00-.319-1.314 2.322 2.322 0 00-.874-.916c-.369-.223-.8-.334-1.292-.334-.526 0-.988.128-1.385.383a2.646 2.646 0 00-.931.995 2.862 2.862 0 00-.333 1.342v1.513c0 .634.116 1.179.348 1.633.232.45.556.796.973 1.037.416.237.904.355 1.463.355.374 0 .712-.052 1.015-.156a2.26 2.26 0 00.789-.476c.222-.208.39-.466.504-.774l2.4.27a3.738 3.738 0 01-.866 1.662c-.421.469-.961.833-1.619 1.094-.658.255-1.411.383-2.259.383zm12.473-11.122v1.989h-6.271v-1.99h6.271zm-4.723-2.614h2.572V43.72c0 .345.052.61.156.795.109.18.251.303.426.37.175.066.369.099.582.099.161 0 .308-.012.441-.036a3.78 3.78 0 00.312-.064l.433 2.01a4.936 4.936 0 01-1.512.257c-.644.018-1.224-.079-1.74-.292a2.703 2.703 0 01-1.229-1.009c-.298-.454-.445-1.022-.441-1.704V33.477zm10.013 13.743c-.691 0-1.314-.123-1.868-.37a3.05 3.05 0 01-1.307-1.107c-.317-.488-.476-1.09-.476-1.804 0-.616.114-1.125.341-1.527.228-.402.538-.724.931-.966a4.687 4.687 0 011.328-.547c.497-.128 1.011-.22 1.541-.277a60.33 60.33 0 001.555-.177c.398-.057.687-.142.867-.256.185-.118.277-.3.277-.547v-.043c0-.535-.159-.949-.476-1.242-.317-.294-.774-.44-1.371-.44-.629 0-1.129.136-1.498.411-.365.275-.611.6-.739.973l-2.401-.34c.19-.664.502-1.218.938-1.663a4.07 4.07 0 011.598-1.008 6.114 6.114 0 012.088-.341c.526 0 1.049.061 1.57.184.52.124.996.327 1.427.611.431.28.777.66 1.037 1.144.265.483.398 1.086.398 1.81V47h-2.472v-1.499h-.085a3.133 3.133 0 01-.66.853c-.28.26-.633.47-1.059.632-.421.156-.916.234-1.484.234zm.668-1.889c.516 0 .963-.102 1.342-.305.379-.209.67-.483.873-.824.209-.341.313-.713.313-1.115V41.8c-.081.066-.218.128-.412.185a5.792 5.792 0 01-.639.149c-.237.043-.471.08-.703.114l-.604.085a4.484 4.484 0 00-1.03.255 1.71 1.71 0 00-.717.498c-.175.208-.263.478-.263.81 0 .473.173.83.519 1.072.345.241.785.362 1.321.362zM149.11 47V36.09h2.571V47h-2.571zm1.293-12.457a1.51 1.51 0 01-1.059-.405 1.317 1.317 0 01-.433-.987c0-.389.147-.718.441-.988a1.484 1.484 0 011.051-.412c.407 0 .755.138 1.044.412.293.27.44.6.44.988 0 .383-.147.712-.44.987-.289.27-.637.405-1.044.405zm6.493-2.088V47h-2.571V32.455h2.571z" fill="#5E308C"/></svg>