<svg width="187" height="80" fill="none" xmlns="http://www.w3.org/2000/svg"><g clip-path="url(#clip0)" fill="#5E308C"><path d="M56.606 58.544a5.244 5.244 0 01-7.408 0l-1.058 1.058a6.742 6.742 0 009.524 0 6.742 6.742 0 000-9.524l-1.058 1.059a5.244 5.244 0 010 7.407z"/><path d="M55.547 57.486a3.745 3.745 0 000-5.291l-1.058 1.058c.875.875.875 2.3 0 3.175s-2.3.875-3.174 0l-1.059 1.058a3.745 3.745 0 005.291 0zM42.32 14.63l-4.233 4.232a2.248 2.248 0 000 3.175l3.82 3.819-2.492 4.153a10.886 10.886 0 00-6.09-1.842h-.31l-.748.748-1.058-1.058-1.058 1.058 1.058 1.058-1.058 1.058-1.685-1.685a2.242 2.242 0 00-.431-2.548 2.248 2.248 0 00-3.175 0 2.248 2.248 0 000 3.175 2.242 2.242 0 002.548.432l1.685 1.684-1.058 1.058-1.059-1.058-1.058 1.058 1.058 1.059-.748.748v.31c0 2.2.644 4.302 1.843 6.09l-4.153 2.491-3.82-3.82a2.248 2.248 0 00-3.174 0l-4.233 4.233a2.247 2.247 0 000 3.175l13.756 13.756c.875.876 2.3.876 3.175 0l4.233-4.232c.875-.876.875-2.3 0-3.175l-3.82-3.82 2.399-3.997a10.854 10.854 0 006.554 2.712l.495 5.443 2.837 2.837 4.832-4.832 3.114 2.336a1.62 1.62 0 002.107-.15 1.62 1.62 0 00.15-2.106l-2.336-3.115 4.831-4.832-2.837-2.837-5.442-.494a10.856 10.856 0 00-2.713-6.555l3.998-2.399 3.82 3.82c.875.875 2.3.875 3.174 0l4.233-4.233c.875-.875.875-2.3 0-3.174L45.495 14.629a2.247 2.247 0 00-3.175 0zM25.918 27.855a.749.749 0 111.058 1.06.749.749 0 01-1.058-1.06zm18.519-12.169l1.587 1.588-2.117 2.116-2.116-2.116 1.587-1.588a.749.749 0 011.059 0zm.529 11.111l2.116-2.116 2.116 2.116-2.116 2.117-2.117-2.117zm-1.059-1.058l-2.116-2.116 2.116-2.117 2.117 2.117-2.117 2.116zm4.233 4.233l2.117-2.116 2.116 2.116-2.116 2.116-2.117-2.116zm3.175-3.175l2.116-2.116 2.116 2.116-2.116 2.117-2.116-2.117zm-1.058-1.058l-2.117-2.116 2.117-2.117 2.116 2.117-2.116 2.116zm-3.175-3.174l-2.116-2.117 2.116-2.116 2.116 2.116-2.116 2.117zm-7.937-2.646l1.588-1.587 2.116 2.116-2.116 2.117-1.587-1.588a.75.75 0 010-1.058zM27.73 35.57l5.902-5.902c.636.02 1.26.107 1.867.248l-7.52 7.52a9.485 9.485 0 01-.249-1.867zm-3.927 10.276l-2.116 2.116-2.117-2.116 2.117-2.117 2.116 2.117zm3.174 3.174l-2.116 2.117-2.116-2.117 2.116-2.116 2.116 2.116zm-6.349 0l-2.116 2.117-2.116-2.117 2.116-2.116 2.116 2.116zm1.059 1.058l2.116 2.117-2.116 2.116-2.117-2.116 2.117-2.117zm3.174 3.175l2.116 2.116-2.116 2.117-2.116-2.117 2.116-2.116zm1.058-1.058l2.117-2.117 2.116 2.117-2.116 2.116-2.117-2.116zM19.04 41.084l1.587 1.587-2.116 2.117-2.116-2.117 1.587-1.587a.75.75 0 011.058 0zm-5.29 4.233l1.586-1.588 2.117 2.117-2.117 2.116-1.587-1.587a.749.749 0 010-1.058zM27.505 60.13l-1.588-1.587 2.117-2.116 2.116 2.116-1.587 1.587a.75.75 0 01-1.058 0zm5.29-4.233l-1.587 1.588-2.116-2.117 2.116-2.116 1.587 1.587a.749.749 0 010 1.058zM25.01 44.936l3.996-2.397c.143.16.281.326.435.48l1.885 1.884-2.38 3.968-3.936-3.935zm15.443 3.307l5.853-5.853 3.88.352-9.38 9.38-.353-3.879zm4.514-6.63l-5.291 5.29-5.82-5.82a2.247 2.247 0 010-3.174l2.116-2.116a2.247 2.247 0 013.175 0l5.82 5.82zm6.36 11.49c.067.09-.07.229-.161.161l-2.944-2.208.896-.896 2.208 2.944zM42.32 54.84l-1.058-1.058L51.844 43.2l1.058 1.058L42.32 54.84zm.182-19.924a9.403 9.403 0 012.555 4.672l-4.853-4.853a3.745 3.745 0 00-5.291 0l-2.117 2.116a3.745 3.745 0 000 5.291l4.854 4.854a9.404 9.404 0 01-4.672-2.556l-2.48-2.48a9.466 9.466 0 01-1.997-2.93l8.592-8.591a9.478 9.478 0 012.93 1.998l2.479 2.48zm.463-1.653L41.08 31.38c-.154-.154-.318-.292-.48-.436l2.398-3.996 3.935 3.935-3.968 2.381zm9.937 1.472l-1.587-1.588 2.116-2.116 2.116 2.116-1.587 1.588a.749.749 0 01-1.058 0zm5.29-4.233l-1.586 1.587-2.117-2.116 2.117-2.116 1.587 1.587a.75.75 0 010 1.058z"/><path d="M35.971 37.91a2.247 2.247 0 000 3.174c.875.875 2.3.875 3.175 0s.875-2.3 0-3.175a2.247 2.247 0 00-3.175 0zm2.116 2.116a.749.749 0 11-1.058-1.06.749.749 0 011.058 1.06zm1.588 2.644l-1.059 1.059 1.059 1.058 1.058-1.058-1.058-1.058zm2.116-2.115l-1.058 1.058 1.058 1.058 1.058-1.058-1.058-1.058z"/></g><path d="M104.795 34.663v-2.208h11.606v2.208h-4.496V47h-2.614V34.663h-4.496zm16.977 12.55c-1.094 0-2.039-.227-2.834-.682a4.614 4.614 0 01-1.825-1.946c-.427-.843-.64-1.834-.64-2.976 0-1.122.213-2.107.64-2.954.43-.852 1.032-1.515 1.804-1.989.771-.478 1.678-.717 2.72-.717.672 0 1.307.109 1.903.327a4.302 4.302 0 011.591.994c.464.45.829 1.023 1.094 1.719.265.69.398 1.515.398 2.471v.789h-8.942v-1.733h6.477a2.76 2.76 0 00-.32-1.314 2.32 2.32 0 00-.873-.916c-.369-.223-.8-.334-1.293-.334-.525 0-.987.128-1.385.383a2.644 2.644 0 00-.93.995 2.863 2.863 0 00-.334 1.342v1.513c0 .634.116 1.179.348 1.633.232.45.556.796.973 1.037.417.237.904.355 1.463.355.374 0 .713-.052 1.016-.156.303-.109.566-.268.788-.476a1.97 1.97 0 00.504-.774l2.401.27a3.748 3.748 0 01-.866 1.662c-.422.469-.962.833-1.62 1.094-.658.255-1.411.383-2.258.383zm9.597-14.758V47h-2.571V32.455h2.571zm7.473 14.758c-1.094 0-2.038-.227-2.834-.682a4.614 4.614 0 01-1.825-1.946c-.426-.843-.639-1.834-.639-2.976 0-1.122.213-2.107.639-2.954.431-.852 1.032-1.515 1.804-1.989.772-.478 1.678-.717 2.72-.717.672 0 1.307.109 1.903.327a4.294 4.294 0 011.591.994c.464.45.829 1.023 1.094 1.719.265.69.398 1.515.398 2.471v.789h-8.942v-1.733h6.477a2.76 2.76 0 00-.319-1.314 2.33 2.33 0 00-.874-.916c-.369-.223-.8-.334-1.292-.334-.526 0-.988.128-1.385.383a2.646 2.646 0 00-.931.995 2.863 2.863 0 00-.334 1.342v1.513c0 .634.116 1.179.348 1.633.232.45.557.796.973 1.037.417.237.905.355 1.463.355a3.11 3.11 0 001.016-.156c.303-.109.566-.268.788-.476.223-.208.391-.466.505-.774l2.4.27a3.738 3.738 0 01-.866 1.662c-.422.469-.961.833-1.62 1.094-.658.255-1.41.383-2.258.383zm11.784 0c-1.089 0-2.024-.239-2.805-.717a4.798 4.798 0 01-1.797-1.982c-.417-.847-.625-1.823-.625-2.926 0-1.108.213-2.086.639-2.933a4.774 4.774 0 011.804-1.989c.782-.478 1.705-.717 2.77-.717.886 0 1.669.163 2.351.49a4.02 4.02 0 011.641 1.37c.407.588.639 1.274.696 2.06h-2.458a2.347 2.347 0 00-.71-1.314c-.369-.355-.864-.532-1.484-.532-.526 0-.987.142-1.385.426-.398.28-.708.682-.931 1.207-.217.526-.326 1.156-.326 1.89 0 .743.109 1.382.326 1.917.218.53.524.94.917 1.229.397.284.864.426 1.399.426a2.33 2.33 0 001.015-.213c.303-.147.557-.358.76-.632.204-.275.344-.609.419-1.002h2.458c-.062.772-.289 1.456-.682 2.053a4.038 4.038 0 01-1.605 1.392c-.677.331-1.473.497-2.387.497zm11.543 0c-1.065 0-1.988-.234-2.769-.703a4.772 4.772 0 01-1.819-1.967c-.426-.843-.639-1.828-.639-2.955s.213-2.114.639-2.962a4.762 4.762 0 011.819-1.974c.781-.469 1.704-.703 2.769-.703 1.066 0 1.989.234 2.77.703a4.712 4.712 0 011.811 1.974c.431.848.647 1.835.647 2.962 0 1.127-.216 2.112-.647 2.955a4.721 4.721 0 01-1.811 1.967c-.781.469-1.704.703-2.77.703zm.015-2.06c.577 0 1.06-.158 1.448-.475.389-.322.678-.753.867-1.293.194-.54.291-1.141.291-1.804 0-.668-.097-1.271-.291-1.811-.189-.545-.478-.978-.867-1.3-.388-.322-.871-.483-1.448-.483-.592 0-1.085.161-1.478.483-.388.322-.679.755-.873 1.3-.19.54-.284 1.143-.284 1.811 0 .663.094 1.264.284 1.804.194.54.485.97.873 1.293.393.317.886.475 1.478.475zM169.579 47V36.09h2.457v1.855h.128a2.895 2.895 0 011.129-1.464c.526-.355 1.153-.532 1.882-.532.739 0 1.362.18 1.868.54.512.355.872.84 1.08 1.456h.114a2.978 2.978 0 011.221-1.45c.578-.364 1.262-.546 2.053-.546 1.003 0 1.823.317 2.457.952.635.634.952 1.56.952 2.777V47h-2.578v-6.925c0-.677-.18-1.172-.54-1.484-.36-.317-.8-.476-1.321-.476-.62 0-1.106.194-1.456.582-.346.384-.519.883-.519 1.499V47h-2.521v-7.031c0-.564-.17-1.014-.511-1.35-.336-.336-.777-.504-1.321-.504-.37 0-.706.095-1.009.284a1.982 1.982 0 00-.724.788c-.18.337-.27.73-.27 1.18V47h-2.571z" fill="#5E308C"/><defs><clipPath id="clip0"><path fill="#fff" transform="rotate(-45 55.847 12.668)" d="M0 0h47.888v47.888H0z"/></clipPath></defs></svg>