<svg width="237" height="80" fill="none" xmlns="http://www.w3.org/2000/svg"><path d="M61.74 36.956c5.63.928 9.918 5.295 9.918 10.544 0 5.546-4.379 10.109-10.797 10.672H44.844l-2.354-.029H21.352c-7.408-.734-12.78-6.117-12.78-12.655 0-7.034 6.389-12.74 14.34-12.74 1.165 0 2.3.127 3.387.358 1.55-5.379 5.562-9.968 11.222-12.02 9.39-3.404 19.761 1.458 23.163 10.861.597 1.656.95 3.338 1.056 5.01z" stroke="#5E308C" stroke-width="3" stroke-linecap="round"/><path d="M28.808 43.411c-.05-.462-.256-.821-.62-1.079-.361-.257-.83-.386-1.408-.386-.407 0-.755.062-1.046.185a1.55 1.55 0 00-.667.503 1.227 1.227 0 00-.236.724c0 .226.05.422.152.587.105.166.247.307.425.423.18.113.377.208.594.286.217.077.436.143.657.196l1.009.253c.406.096.796.224 1.171.386.378.163.716.367 1.014.614.301.247.54.545.715.894.175.349.262.758.262 1.227 0 .634-.16 1.193-.483 1.676-.322.48-.788.855-1.398 1.127-.606.267-1.34.401-2.2.401-.838 0-1.565-.13-2.181-.39-.613-.262-1.093-.642-1.44-1.143-.343-.5-.529-1.11-.557-1.83h1.918c.028.377.144.691.347.941.203.25.467.438.793.561.33.123.697.185 1.103.185.424 0 .796-.063 1.114-.19.322-.13.575-.31.757-.54.182-.233.275-.504.278-.814a1.04 1.04 0 00-.247-.698 1.81 1.81 0 00-.678-.466 6.5 6.5 0 00-1.008-.338l-1.224-.317c-.887-.23-1.587-.577-2.102-1.042-.511-.47-.767-1.092-.767-1.867 0-.638.172-1.197.515-1.677.347-.479.818-.851 1.413-1.115.596-.268 1.27-.402 2.023-.402.764 0 1.432.134 2.007.402.578.264 1.031.632 1.36 1.105.33.469.5 1.008.51 1.618h-1.875zm5.998 8.017c-.511 0-.972-.091-1.382-.274a2.26 2.26 0 01-.966-.826c-.235-.363-.352-.81-.352-1.343 0-.458.084-.837.252-1.137.168-.3.397-.54.688-.719.29-.18.618-.316.983-.407a7.941 7.941 0 011.14-.206c.472-.05.856-.094 1.15-.133.294-.042.508-.105.641-.19.137-.088.205-.224.205-.407v-.032c0-.398-.117-.707-.352-.925-.235-.22-.573-.328-1.014-.328-.466 0-.835.102-1.108.306a1.52 1.52 0 00-.547.725l-1.776-.254a2.86 2.86 0 01.694-1.237 3.014 3.014 0 011.182-.752c.466-.169.98-.253 1.544-.253.39 0 .776.045 1.162.137.385.092.737.243 1.056.455.318.208.574.492.767.851.196.36.294.81.294 1.349v5.437h-1.828v-1.116h-.063a2.337 2.337 0 01-.49.634 2.34 2.34 0 01-.782.471 3.138 3.138 0 01-1.098.175zm.494-1.406c.382 0 .713-.076.993-.228.28-.155.495-.36.646-.613a1.57 1.57 0 00.231-.83v-.958a.892.892 0 01-.305.138c-.14.042-.297.08-.472.11-.175.033-.349.06-.52.086l-.447.063a3.307 3.307 0 00-.762.19 1.264 1.264 0 00-.53.37c-.13.156-.195.357-.195.603 0 .353.128.62.384.799.255.18.581.27.977.27zm8.001 1.406c-.511 0-.972-.091-1.381-.274a2.26 2.26 0 01-.967-.826c-.235-.363-.352-.81-.352-1.343 0-.458.084-.837.252-1.137.168-.3.398-.54.688-.719.291-.18.619-.316.983-.407a7.937 7.937 0 011.14-.206c.473-.05.856-.094 1.15-.133.295-.042.508-.105.641-.19.137-.088.205-.224.205-.407v-.032c0-.398-.117-.707-.352-.925-.234-.22-.572-.328-1.014-.328-.466 0-.835.102-1.108.306a1.52 1.52 0 00-.547.725l-1.775-.254a2.86 2.86 0 01.693-1.237 3.013 3.013 0 011.182-.752 4.5 4.5 0 011.545-.253c.389 0 .776.045 1.16.137.386.092.738.243 1.057.455.319.208.574.492.767.851.196.36.294.81.294 1.349v5.437h-1.828v-1.116h-.063a2.334 2.334 0 01-.489.634 2.345 2.345 0 01-.783.471 3.137 3.137 0 01-1.098.175zm.494-1.406c.382 0 .713-.076.993-.228.28-.155.496-.36.646-.613a1.57 1.57 0 00.232-.83v-.958a.892.892 0 01-.305.138c-.14.042-.298.08-.473.11-.175.033-.349.06-.52.086l-.447.063a3.305 3.305 0 00-.761.19 1.265 1.265 0 00-.531.37c-.13.156-.194.357-.194.603 0 .353.127.62.383.799.256.18.581.27.977.27zm11.611-6.611c-.05-.462-.256-.821-.62-1.079-.36-.257-.83-.386-1.408-.386-.406 0-.755.062-1.045.185a1.55 1.55 0 00-.668.503 1.227 1.227 0 00-.236.724c0 .226.05.422.152.587.105.166.247.307.426.423.178.113.376.208.593.286.218.077.436.143.657.196l1.009.253c.406.096.797.224 1.171.386.379.163.717.367 1.014.614.302.247.54.545.715.894.175.349.263.758.263 1.227 0 .634-.162 1.193-.484 1.676-.322.48-.788.855-1.397 1.127-.606.267-1.34.401-2.202.401-.837 0-1.563-.13-2.18-.39-.613-.262-1.093-.642-1.44-1.143-.343-.5-.528-1.11-.556-1.83h1.917c.028.377.144.691.347.941.203.25.468.438.793.561.33.123.697.185 1.104.185.423 0 .795-.063 1.113-.19.323-.13.575-.31.757-.54.182-.233.275-.504.279-.814a1.04 1.04 0 00-.247-.698 1.81 1.81 0 00-.678-.466 6.5 6.5 0 00-1.009-.338l-1.224-.317c-.886-.23-1.587-.577-2.102-1.042-.51-.47-.767-1.092-.767-1.867 0-.638.172-1.197.515-1.677.347-.479.818-.851 1.413-1.115.596-.268 1.27-.402 2.023-.402.764 0 1.433.134 2.007.402.578.264 1.032.632 1.36 1.105.33.469.5 1.008.51 1.618h-1.875zm57.933-6.958c-.066-.62-.345-1.103-.838-1.449-.487-.345-1.122-.518-1.903-.518-.549 0-1.02.083-1.413.248-.393.166-.694.391-.902.675a1.638 1.638 0 00-.32.973c0 .303.069.566.206.788.142.223.334.412.575.569.242.151.509.279.803.383.293.104.589.192.888.263l1.363.34c.55.129 1.077.301 1.584.52.511.217.968.492 1.371.823.407.332.729.732.966 1.2.236.47.355 1.018.355 1.648 0 .853-.218 1.603-.654 2.252-.435.644-1.065 1.148-1.889 1.512-.819.36-1.811.54-2.976.54-1.131 0-2.114-.175-2.947-.525-.829-.35-1.477-.862-1.946-1.535-.464-.672-.715-1.491-.753-2.457h2.592c.038.507.195.928.469 1.264a2.48 2.48 0 001.073.753 4.24 4.24 0 001.491.249c.573 0 1.075-.086 1.506-.256.435-.175.776-.417 1.022-.724.247-.313.372-.677.377-1.094-.005-.379-.116-.691-.334-.938-.218-.25-.523-.459-.916-.625a8.816 8.816 0 00-1.364-.454l-1.655-.426c-1.197-.308-2.144-.774-2.84-1.4-.692-.63-1.037-1.465-1.037-2.507 0-.857.232-1.607.696-2.251.468-.644 1.105-1.143 1.91-1.498.805-.36 1.717-.54 2.735-.54 1.032 0 1.936.18 2.713.54.781.355 1.394.85 1.839 1.484.445.63.675 1.354.689 2.173h-2.536zm8.11 10.767c-.692 0-1.314-.123-1.868-.37a3.045 3.045 0 01-1.307-1.107c-.317-.488-.476-1.09-.476-1.804 0-.616.114-1.125.341-1.527.227-.402.537-.724.93-.966a4.7 4.7 0 011.328-.547c.498-.128 1.011-.22 1.542-.277a60.855 60.855 0 001.555-.177c.398-.057.687-.142.866-.256.185-.118.277-.3.277-.547v-.043c0-.535-.158-.949-.475-1.242-.318-.294-.775-.44-1.371-.44-.63 0-1.129.136-1.499.411-.364.275-.611.6-.738.973l-2.401-.34c.189-.664.502-1.218.938-1.663.435-.45.968-.786 1.598-1.008a6.106 6.106 0 012.088-.341c.525 0 1.048.061 1.569.184a4.44 4.44 0 011.428.611c.431.28.776.66 1.037 1.144.265.483.397 1.086.397 1.81V47h-2.471v-1.499h-.085a3.158 3.158 0 01-.661.853c-.279.26-.632.47-1.058.632-.422.156-.916.234-1.484.234zm.667-1.889c.516 0 .964-.102 1.342-.305.379-.209.67-.483.874-.824.208-.341.313-.713.313-1.115V41.8c-.081.066-.218.128-.412.185-.19.057-.403.106-.64.149-.236.043-.471.08-.703.114l-.603.085a4.484 4.484 0 00-1.03.255 1.719 1.719 0 00-.718.498c-.175.208-.262.478-.262.81 0 .473.172.83.518 1.072.346.241.786.362 1.321.362zm10.817 1.89c-.691 0-1.314-.124-1.868-.37a3.05 3.05 0 01-1.307-1.108c-.317-.488-.476-1.09-.476-1.804 0-.616.114-1.125.341-1.527.227-.402.538-.724.931-.966a4.687 4.687 0 011.328-.547c.497-.128 1.011-.22 1.541-.277a60.33 60.33 0 001.555-.177c.398-.057.687-.142.867-.256.184-.118.277-.3.277-.547v-.043c0-.535-.159-.949-.476-1.242-.317-.294-.774-.44-1.371-.44-.63 0-1.129.136-1.498.411-.365.275-.611.6-.739.973l-2.401-.34c.19-.664.502-1.218.938-1.663a4.07 4.07 0 011.598-1.008 6.114 6.114 0 012.088-.341c.526 0 1.049.061 1.57.184.52.124.996.327 1.427.611.431.28.777.66 1.037 1.144.265.483.398 1.086.398 1.81V47h-2.472v-1.499h-.085a3.118 3.118 0 01-.661.853c-.279.26-.632.47-1.058.632-.421.156-.916.234-1.484.234zm.667-1.89c.517 0 .964-.102 1.343-.305.379-.209.67-.483.873-.824.209-.341.313-.713.313-1.115V41.8c-.081.066-.218.128-.412.185a5.792 5.792 0 01-.639.149c-.237.043-.471.08-.703.114l-.604.085a4.484 4.484 0 00-1.03.255 1.71 1.71 0 00-.717.498c-.175.208-.263.478-.263.81 0 .473.173.83.518 1.072.346.241.786.362 1.321.362zm15.697-8.878c-.067-.62-.346-1.103-.839-1.449-.487-.345-1.122-.518-1.903-.518-.549 0-1.02.083-1.413.248-.393.166-.694.391-.902.675a1.638 1.638 0 00-.32.973c0 .303.069.566.206.788.142.223.334.412.575.569.242.151.509.279.803.383.293.104.589.192.888.263l1.363.34c.55.129 1.078.301 1.584.52.511.217.968.492 1.371.823.407.332.729.732.966 1.2.237.47.355 1.018.355 1.648 0 .853-.218 1.603-.654 2.252-.435.644-1.065 1.148-1.889 1.512-.819.36-1.811.54-2.976.54-1.131 0-2.114-.175-2.947-.525-.829-.35-1.477-.862-1.946-1.535-.464-.672-.715-1.491-.753-2.457h2.592c.038.507.195.928.469 1.264a2.48 2.48 0 001.073.753 4.24 4.24 0 001.491.249c.573 0 1.075-.086 1.506-.256.435-.175.776-.417 1.023-.724.246-.313.371-.677.376-1.094-.005-.379-.116-.691-.334-.938-.218-.25-.523-.459-.916-.625a8.816 8.816 0 00-1.364-.454l-1.655-.426c-1.197-.308-2.144-.774-2.84-1.4-.692-.63-1.037-1.465-1.037-2.507 0-.857.232-1.607.696-2.251.468-.644 1.105-1.143 1.91-1.498.805-.36 1.717-.54 2.735-.54 1.032 0 1.936.18 2.713.54.781.355 1.394.85 1.839 1.484.445.63.675 1.354.689 2.173h-2.535zm19.675-.362L165.087 47h-2.841l-3.885-10.91h2.741l2.507 8.105h.114l2.514-8.104h2.735zm6.237 11.122c-1.094 0-2.038-.227-2.834-.682a4.62 4.62 0 01-1.825-1.946c-.426-.843-.639-1.834-.639-2.976 0-1.122.213-2.107.639-2.954.431-.852 1.032-1.515 1.804-1.989.772-.478 1.679-.717 2.72-.717a5.51 5.51 0 011.904.327 4.31 4.31 0 011.591.994c.464.45.828 1.023 1.093 1.719.265.69.398 1.515.398 2.471v.789h-8.942v-1.733h6.478a2.773 2.773 0 00-.32-1.314 2.322 2.322 0 00-.874-.916c-.369-.223-.8-.334-1.292-.334-.526 0-.987.128-1.385.383a2.646 2.646 0 00-.931.995 2.862 2.862 0 00-.333 1.342v1.513c0 .634.116 1.179.348 1.633.232.45.556.796.973 1.037.416.237.904.355 1.463.355.374 0 .712-.052 1.015-.156a2.26 2.26 0 00.789-.476c.222-.208.39-.466.504-.774l2.4.27a3.738 3.738 0 01-.866 1.662c-.421.469-.961.833-1.619 1.094-.658.255-1.411.383-2.259.383zm9.597-6.605V47h-2.571V36.09h2.457v1.855h.128a3.116 3.116 0 011.201-1.456c.554-.36 1.238-.54 2.052-.54.753 0 1.409.16 1.967.483.564.322 1 .788 1.307 1.399.313.61.467 1.352.462 2.223V47h-2.571v-6.548c0-.73-.189-1.3-.568-1.712-.374-.412-.893-.618-1.556-.618-.449 0-.85.1-1.2.298a2.067 2.067 0 00-.817.846c-.194.369-.291.816-.291 1.342zm13.665 6.584c-.857 0-1.624-.22-2.301-.66-.677-.441-1.212-1.08-1.605-1.918-.393-.838-.59-1.856-.59-3.054 0-1.213.199-2.235.597-3.069.402-.838.944-1.47 1.626-1.896a4.18 4.18 0 012.28-.646c.639 0 1.165.109 1.577.327.412.213.738.47.98.774.241.298.428.58.561.845h.106v-5.44h2.579V47h-2.529v-1.719h-.156a4.406 4.406 0 01-.575.845 3.168 3.168 0 01-.995.753c-.412.209-.93.313-1.555.313zm.717-2.11c.545 0 1.009-.146 1.392-.44.384-.298.675-.713.874-1.243.199-.53.298-1.148.298-1.854 0-.705-.099-1.318-.298-1.839-.194-.52-.483-.926-.867-1.215-.378-.288-.845-.433-1.399-.433-.573 0-1.051.15-1.434.448-.384.298-.673.71-.867 1.236-.194.525-.291 1.126-.291 1.803 0 .682.097 1.29.291 1.826.199.53.49.95.874 1.257.388.303.864.454 1.427.454zm12.591 2.131c-1.066 0-1.989-.234-2.77-.703a4.776 4.776 0 01-1.818-1.967c-.426-.843-.64-1.828-.64-2.955s.214-2.114.64-2.962a4.767 4.767 0 011.818-1.974c.781-.469 1.704-.703 2.77-.703 1.065 0 1.988.234 2.77.703a4.719 4.719 0 011.811 1.974c.431.848.646 1.835.646 2.962 0 1.127-.215 2.112-.646 2.955a4.728 4.728 0 01-1.811 1.967c-.782.469-1.705.703-2.77.703zm.014-2.06c.578 0 1.061-.158 1.449-.475.388-.322.677-.753.866-1.293.194-.54.292-1.141.292-1.804 0-.668-.098-1.271-.292-1.811-.189-.545-.478-.978-.866-1.3-.388-.322-.871-.483-1.449-.483-.592 0-1.084.161-1.477.483-.389.322-.68.755-.874 1.3a5.455 5.455 0 00-.284 1.811c0 .663.095 1.264.284 1.804.194.54.485.97.874 1.293.393.317.885.475 1.477.475zM219.188 47V36.09h2.493v1.82h.114c.199-.63.54-1.116 1.022-1.457a2.819 2.819 0 011.67-.518 6 6 0 01.475.021c.18.01.329.026.448.05v2.365a2.715 2.715 0 00-.519-.1 4.776 4.776 0 00-.674-.05c-.469 0-.891.102-1.265.306-.369.199-.66.476-.873.831-.213.355-.32.765-.32 1.229V47h-2.571zm16.552-8.026l-2.344.256a1.874 1.874 0 00-.348-.667 1.725 1.725 0 00-.653-.505c-.275-.128-.611-.191-1.009-.191-.535 0-.984.116-1.349.348-.36.231-.537.532-.533.901a.948.948 0 00.348.775c.242.199.639.362 1.193.49l1.861.397c1.032.223 1.799.576 2.301 1.059.507.483.763 1.115.767 1.896a2.966 2.966 0 01-.603 1.818c-.393.521-.94.928-1.641 1.222-.701.293-1.506.44-2.415.44-1.335 0-2.41-.28-3.224-.838-.814-.563-1.3-1.347-1.456-2.35l2.507-.242c.114.492.355.864.724 1.115.37.25.85.376 1.442.376.611 0 1.101-.125 1.47-.376.374-.251.561-.561.561-.93a.969.969 0 00-.362-.775c-.236-.203-.606-.36-1.108-.469l-1.86-.39c-1.047-.218-1.821-.585-2.323-1.101-.502-.52-.75-1.179-.746-1.974-.004-.673.178-1.255.547-1.748.374-.497.893-.88 1.556-1.15.667-.275 1.437-.412 2.308-.412 1.278 0 2.284.272 3.018.817.739.544 1.196 1.28 1.371 2.208z" fill="#5E308C"/></svg>