<svg width="210" height="80" fill="none" xmlns="http://www.w3.org/2000/svg"><path d="M40 24.5a3.875 3.875 0 100-7.75 3.875 3.875 0 000 7.75zM40 50v10m0-27.75v17.438" stroke="#5E308C" stroke-width="3" stroke-miterlimit="10" stroke-linecap="round" stroke-linejoin="round"/><path d="M51.625 19.656v.969c0 6.394-5.231 11.625-11.625 11.625s-11.625-5.231-11.625-11.625v-.969L14.812 32.25 40 40l25.188-7.75-13.563-12.594zM29.731 47.169c-.969-.775-1.356-1.55-1.356-2.325C28.375 42.13 33.606 40 40 40s11.625 2.131 11.625 4.844c0 2.712-5.231 4.843-11.625 4.843m-5.231 6.782c-1.55-.775-2.519-1.744-2.519-2.907 0-2.13 3.487-3.874 7.75-3.874m0 7.75c3.294 0 5.813 1.743 5.813 3.874 0 2.132-2.52 3.876-5.813 3.876-3.294 0-5.813-1.744-5.813-3.876" stroke="#5E308C" stroke-width="3" stroke-miterlimit="10" stroke-linecap="round" stroke-linejoin="round"/><path d="M105.435 47V32.455h2.635v6.157h6.74v-6.157h2.642V47h-2.642v-6.179h-6.74V47h-2.635zm19.598.213c-1.093 0-2.038-.227-2.833-.682a4.616 4.616 0 01-1.826-1.946c-.426-.843-.639-1.834-.639-2.976 0-1.122.213-2.107.639-2.954.431-.852 1.032-1.515 1.804-1.989.772-.478 1.679-.717 2.72-.717a5.51 5.51 0 011.904.327 4.31 4.31 0 011.591.994c.464.45.828 1.023 1.094 1.719.265.69.397 1.515.397 2.471v.789h-8.942v-1.733h6.478a2.773 2.773 0 00-.32-1.314 2.32 2.32 0 00-.873-.916c-.37-.223-.801-.334-1.293-.334-.526 0-.987.128-1.385.383a2.636 2.636 0 00-.93.995 2.863 2.863 0 00-.334 1.342v1.513c0 .634.116 1.179.348 1.633.232.45.556.796.973 1.037.416.237.904.355 1.463.355a3.12 3.12 0 001.016-.156c.303-.109.565-.268.788-.476.222-.208.39-.466.504-.774l2.401.27a3.75 3.75 0 01-.867 1.662c-.421.469-.961.833-1.619 1.094-.658.255-1.411.383-2.259.383zm10.166.007c-.692 0-1.314-.123-1.868-.37a3.045 3.045 0 01-1.307-1.107c-.317-.488-.476-1.09-.476-1.804 0-.616.114-1.125.341-1.527.227-.402.537-.724.93-.966a4.7 4.7 0 011.328-.547c.498-.128 1.011-.22 1.542-.277a60.855 60.855 0 001.555-.177c.398-.057.687-.142.866-.256.185-.118.277-.3.277-.547v-.043c0-.535-.158-.949-.475-1.242-.318-.294-.775-.44-1.371-.44-.63 0-1.129.136-1.499.411-.364.275-.611.6-.738.973l-2.401-.34c.189-.664.502-1.218.938-1.663.435-.45.968-.786 1.598-1.008a6.106 6.106 0 012.088-.341c.525 0 1.048.061 1.569.184a4.44 4.44 0 011.428.611c.431.28.776.66 1.037 1.144.265.483.397 1.086.397 1.81V47h-2.471v-1.499h-.085a3.158 3.158 0 01-.661.853c-.279.26-.632.47-1.058.632-.422.156-.916.234-1.484.234zm.667-1.889c.516 0 .964-.102 1.342-.305.379-.209.67-.483.874-.824.208-.341.313-.713.313-1.115V41.8c-.081.066-.218.128-.412.185-.19.057-.403.106-.64.149-.236.043-.471.08-.703.114l-.603.085a4.484 4.484 0 00-1.03.255 1.719 1.719 0 00-.718.498c-.175.208-.262.478-.262.81 0 .473.172.83.518 1.072.346.241.786.362 1.321.362zm10.249-12.877V47h-2.571V32.455h2.571zm8.091 3.637v1.989h-6.271v-1.99h6.271zm-4.723-2.614h2.571V43.72c0 .345.052.61.156.795.109.18.251.303.426.37.176.066.37.099.583.099a3.233 3.233 0 00.753-.1l.433 2.01a5.72 5.72 0 01-.59.157c-.251.056-.558.09-.923.1-.644.018-1.224-.079-1.74-.292a2.708 2.708 0 01-1.229-1.009c-.298-.454-.445-1.022-.44-1.704V33.477zm9.679 7.131V47h-2.571V32.455h2.514v5.49h.128a3.15 3.15 0 011.186-1.456c.539-.36 1.226-.54 2.059-.54.758 0 1.418.159 1.982.476.563.317.999.781 1.307 1.392.312.61.468 1.356.468 2.237V47h-2.571v-6.548c0-.734-.189-1.305-.568-1.712-.374-.412-.899-.618-1.576-.618-.455 0-.862.1-1.222.298a2.084 2.084 0 00-.838.846c-.199.369-.298.816-.298 1.342zm14.453 6.605c-1.089 0-2.024-.239-2.806-.717a4.798 4.798 0 01-1.797-1.982c-.416-.847-.625-1.823-.625-2.926 0-1.108.213-2.086.64-2.933.426-.852 1.027-1.515 1.804-1.989.781-.478 1.704-.717 2.769-.717.886 0 1.67.163 2.351.49a4.013 4.013 0 011.641 1.37c.407.588.639 1.274.696 2.06h-2.457a2.354 2.354 0 00-.711-1.314c-.369-.355-.864-.532-1.484-.532-.526 0-.987.142-1.385.426-.398.28-.708.682-.93 1.207-.218.526-.327 1.156-.327 1.89 0 .743.109 1.382.327 1.917.217.53.523.94.916 1.229.398.284.864.426 1.399.426.379 0 .717-.071 1.016-.213.303-.147.556-.358.76-.632.203-.275.343-.609.419-1.002h2.457c-.062.772-.289 1.456-.682 2.053a4.038 4.038 0 01-1.605 1.392c-.677.331-1.472.497-2.386.497zm9.923.007c-.691 0-1.314-.123-1.868-.37a3.048 3.048 0 01-1.306-1.107c-.318-.488-.476-1.09-.476-1.804 0-.616.113-1.125.341-1.527.227-.402.537-.724.93-.966a4.7 4.7 0 011.328-.547c.497-.128 1.011-.22 1.541-.277.64-.066 1.158-.125 1.556-.177.398-.057.686-.142.866-.256.185-.118.277-.3.277-.547v-.043c0-.535-.158-.949-.476-1.242-.317-.294-.774-.44-1.37-.44-.63 0-1.13.136-1.499.411-.364.275-.611.6-.739.973l-2.4-.34c.189-.664.502-1.218.937-1.663.436-.45.969-.786 1.598-1.008a6.114 6.114 0 012.088-.341c.526 0 1.049.061 1.57.184a4.44 4.44 0 011.428.611c.431.28.776.66 1.037 1.144.265.483.397 1.086.397 1.81V47h-2.471v-1.499h-.086a3.133 3.133 0 01-.66.853c-.279.26-.632.47-1.058.632-.422.156-.916.234-1.485.234zm.668-1.889c.516 0 .964-.102 1.342-.305.379-.209.67-.483.874-.824.208-.341.312-.713.312-1.115V41.8c-.08.066-.217.128-.412.185a5.792 5.792 0 01-.639.149c-.237.043-.471.08-.703.114l-.604.085a4.488 4.488 0 00-1.029.255 1.713 1.713 0 00-.718.498c-.175.208-.263.478-.263.81 0 .473.173.83.519 1.072.346.241.786.362 1.321.362zM191.884 47V36.09h2.492v1.82h.114c.199-.63.54-1.116 1.023-1.457a2.813 2.813 0 011.669-.518c.142 0 .3.007.476.021.18.01.329.026.447.05v2.365a2.717 2.717 0 00-.518-.1 4.779 4.779 0 00-.675-.05 2.6 2.6 0 00-1.264.306 2.23 2.23 0 00-.874.831 2.341 2.341 0 00-.319 1.229V47h-2.571zm12.31.213c-1.094 0-2.039-.227-2.834-.682a4.622 4.622 0 01-1.826-1.946c-.426-.843-.639-1.834-.639-2.976 0-1.122.213-2.107.639-2.954.431-.852 1.033-1.515 1.804-1.989.772-.478 1.679-.717 2.721-.717.672 0 1.306.109 1.903.327a4.302 4.302 0 011.591.994c.464.45.829 1.023 1.094 1.719.265.69.397 1.515.397 2.471v.789h-8.941v-1.733h6.477a2.76 2.76 0 00-.32-1.314 2.32 2.32 0 00-.873-.916c-.37-.223-.8-.334-1.293-.334-.525 0-.987.128-1.385.383a2.636 2.636 0 00-.93.995 2.863 2.863 0 00-.334 1.342v1.513c0 .634.116 1.179.348 1.633.232.45.556.796.973 1.037.417.237.904.355 1.463.355.374 0 .713-.052 1.016-.156.303-.109.565-.268.788-.476a1.97 1.97 0 00.504-.774l2.401.27a3.74 3.74 0 01-.867 1.662c-.421.469-.961.833-1.619 1.094-.658.255-1.411.383-2.258.383z" fill="#5E308C"/></svg>