<svg width="64" height="65" viewBox="0 0 64 65" fill="none" xmlns="http://www.w3.org/2000/svg">
<path d="M31.9997 5.84302C46.7271 5.84302 58.6663 17.7821 58.6663 32.5097C58.6663 47.2371 46.7271 59.1763 31.9997 59.1763C17.2721 59.1763 5.33301 47.2371 5.33301 32.5097C5.33301 17.7821 17.2721 5.84302 31.9997 5.84302ZM31.9997 9.84302C19.4812 9.84302 9.33301 19.9912 9.33301 32.5097C9.33301 45.0281 19.4812 55.1763 31.9997 55.1763C44.5181 55.1763 54.6663 45.0281 54.6663 32.5097C54.6663 19.9912 44.5181 9.84302 31.9997 9.84302ZM28.6663 36.3478L40.5855 24.4288C41.3666 23.6478 42.6327 23.6478 43.4138 24.4288C44.1239 25.1389 44.1885 26.2499 43.6074 27.0329L43.4138 27.2572L30.0805 40.5905C29.3706 41.3006 28.2594 41.3651 27.4765 40.7841L27.2522 40.5905L20.5855 33.9238C19.8044 33.1427 19.8044 31.8766 20.5855 31.0955C21.2955 30.3854 22.4066 30.3209 23.1896 30.902L23.4139 31.0955L28.6663 36.3478Z" fill="white"/>
</svg>
