<svg width="40" height="40" fill="none" xmlns="http://www.w3.org/2000/svg"><path d="M17.077 4c-7.18 0-13 5.82-13 13 0 2.302.599 4.467 1.65 6.344l-1.591 4.164c-.587 1.535.825 3.083 2.407 2.64l4.975-1.393A12.953 12.953 0 0017.077 30c7.18 0 13-5.82 13-13s-5.82-13-13-13zm-11 13c0-6.075 4.924-11 11-11 6.075 0 11 4.925 11 11s-4.925 11-11 11a10.95 10.95 0 01-5.005-1.201l-.348-.179-5.72 1.602 1.938-5.071-.257-.42A10.944 10.944 0 016.077 17zm16.925 19a12.97 12.97 0 01-9.854-4.52c1.127.305 2.305.482 3.52.515A10.95 10.95 0 0023.002 34a10.95 10.95 0 005.004-1.201l.349-.179 5.72 1.602-1.939-5.072.257-.419A10.943 10.943 0 0034.002 23c0-2.309-.712-4.452-1.927-6.221a15.021 15.021 0 00-.47-3.525A12.969 12.969 0 0136.002 23c0 2.302-.6 4.467-1.65 6.344l1.59 4.164c.587 1.535-.825 3.083-2.407 2.64l-4.975-1.393A12.953 12.953 0 0123.002 36z" fill="url(#paint0_linear_10559_5088)"/><defs><linearGradient id="paint0_linear_10559_5088" x1="4" y1="4" x2="38.469" y2="6.801" gradientUnits="userSpaceOnUse"><stop stop-color="#9935E8"/><stop offset="1" stop-color="#E85535"/></linearGradient></defs></svg>