<svg width="41" height="40" fill="none" xmlns="http://www.w3.org/2000/svg"><path fill-rule="evenodd" clip-rule="evenodd" d="M12.667 2a5.5 5.5 0 110 11 5.5 5.5 0 010-11zm0 2a3.5 3.5 0 100 7 3.5 3.5 0 000-7zm1.365 11H5.667a3 3 0 00-3 3v1c0 3.175 2.411 6.424 6.63 7.569a5.026 5.026 0 011.563-1.707C6.864 24.228 4.667 21.518 4.667 19v-1a1 1 0 011-1h7.65c.143-.708.387-1.38.715-2zm2.392 0a5.489 5.489 0 014.243-2c1.708 0 3.234.778 4.242 2a5.486 5.486 0 011.258 3.5 5.5 5.5 0 11-9.743-3.5zm1.08 2a3.501 3.501 0 106.328 3 3.501 3.501 0 00-6.328-3zm12.97 7.862a5.026 5.026 0 011.563 1.707c4.218-1.145 6.63-4.394 6.63-7.569v-1a3 3 0 00-3-3H27.3c.328.62.572 1.292.716 2h7.65a1 1 0 011 1v1c0 2.518-2.198 5.228-6.193 5.862zm-.833 1.88A2.988 2.988 0 0027.667 26h-14a2.99 2.99 0 00-2.19.95 2.99 2.99 0 00-.81 2.05v1c0 3.943 3.719 8 10 8 6.28 0 10-4.057 10-8v-1c0-.9-.397-1.709-1.026-2.259zM12.667 29a1 1 0 011-1h14a1 1 0 011 1v1c0 2.875-2.865 6-8 6-5.136 0-8-3.125-8-6v-1zm21.5-21.5a5.5 5.5 0 10-11 0 5.5 5.5 0 0011 0zm-9 0a3.5 3.5 0 117 0 3.5 3.5 0 01-7 0z" fill="url(#paint0_linear_10559_5059)"/><defs><linearGradient id="paint0_linear_10559_5059" x1="2.667" y1="2" x2="41.347" y2="5.158" gradientUnits="userSpaceOnUse"><stop stop-color="#9935E8"/><stop offset="1" stop-color="#E85535"/></linearGradient></defs></svg>