<svg width="41" height="40" fill="none" xmlns="http://www.w3.org/2000/svg"><path d="M11.334 6a1 1 0 00-.858.486l-6 10a1 1 0 00.09 1.154l15 18a1 1 0 001.536 0l15-18a1 1 0 00.09-1.155l-6-10A1 1 0 0029.333 6h-18zM7.1 16l4.8-8h3.957l-3.2 8H7.1zm5.55 2l4.533 11.657L7.469 18h5.18zm7.684 14.24L14.796 18h11.076l-5.538 14.24zM14.81 16l3.2-8h4.645l3.2 8H14.811zm13.2 0l-3.2-8h3.956l4.8 8H28.01zm.006 2H33.2l-9.715 11.657L28.017 18z" fill="url(#paint0_linear_10559_5080)"/><defs><linearGradient id="paint0_linear_10559_5080" x1="4.333" y1="6" x2="38.685" y2="8.991" gradientUnits="userSpaceOnUse"><stop stop-color="#9935E8"/><stop offset="1" stop-color="#E85535"/></linearGradient></defs></svg>