<?xml version="1.0" encoding="UTF-8"?>
<svg xmlns="http://www.w3.org/2000/svg" width="64" height="65" viewBox="0 0 64 65" fill="none">
  <g clip-path="url(#clip0_14911_25886)">
    <g clip-path="url(#clip1_14911_25886)">
      <path d="M15.5 16.4014H47.5V48.4014H15.5V16.4014Z" fill="#F0DB4F"></path>
      <path d="M44.8815 40.7693C44.6473 39.3092 43.6952 38.0834 40.8754 36.9397C39.8959 36.4895 38.8039 36.1671 38.4784 35.4248C38.3628 34.9929 38.3476 34.7495 38.4206 34.4879C38.6305 33.6393 39.6434 33.3746 40.4465 33.618C40.9636 33.7914 41.4533 34.1899 41.7484 34.8256C43.1294 33.9313 43.1263 33.9374 44.0906 33.323C43.7377 32.7754 43.5492 32.5229 43.318 32.2887C42.4876 31.361 41.356 30.8834 39.5461 30.9199C39.2328 30.9595 38.9165 31.002 38.6031 31.0416C37.6998 31.2697 36.8389 31.7443 36.3339 32.38C34.8191 34.0986 35.2511 37.107 37.0944 38.345C38.9104 39.7077 41.5781 40.018 41.9187 41.2925C42.2503 42.853 40.772 43.3579 39.3028 43.1785C38.2199 42.9534 37.6176 42.4028 36.9666 41.402C35.7682 42.0956 35.7682 42.0956 34.5363 42.8043C34.8283 43.4431 35.1355 43.7321 35.6252 44.2857C37.9431 46.637 43.7438 46.5214 44.7842 42.9625C44.8267 42.8408 45.1066 42.0256 44.8815 40.7693ZM32.8967 31.1085H29.9035C29.9035 33.694 29.8914 36.2613 29.8914 38.8469C29.8914 40.4925 29.9766 42.0013 29.7089 42.4636C29.2709 43.3731 28.1363 43.2606 27.6191 43.0841C27.0929 42.8256 26.8252 42.4575 26.515 41.9374C26.4298 41.7883 26.3659 41.6727 26.3446 41.6636C25.5325 42.1594 24.7233 42.6583 23.9111 43.1541C24.3157 43.9845 24.9119 44.7054 25.6754 45.1738C26.8161 45.8583 28.3492 46.0681 29.9522 45.7001C30.9956 45.3959 31.8959 44.7663 32.3674 43.8081C33.0488 42.5518 32.9028 41.0309 32.8967 39.3488C32.9119 36.6051 32.8967 33.8613 32.8967 31.1085Z" fill="#323330"></path>
    </g>
  </g>
  <defs>
    <clipPath id="clip0_14911_25886">
      <rect width="31.5077" height="32" fill="white" transform="translate(16.2461 16.4014)"></rect>
    </clipPath>
    <clipPath id="clip1_14911_25886">
      <rect width="32" height="32" fill="white" transform="translate(15.5 16.4014)"></rect>
    </clipPath>
  </defs>
</svg>
