<?xml version="1.0" encoding="UTF-8"?>
<svg xmlns="http://www.w3.org/2000/svg" width="64" height="65" viewBox="0 0 64 65" fill="none">
  <g clip-path="url(#clip0_14911_25894)">
    <path d="M31.9987 35.2532C33.5739 35.2532 34.8508 33.9762 34.8508 32.401C34.8508 30.8258 33.5739 29.5488 31.9987 29.5488C30.4234 29.5488 29.1465 30.8258 29.1465 32.401C29.1465 33.9762 30.4234 35.2532 31.9987 35.2532Z" fill="#61DAFB"></path>
    <path d="M31.9997 38.2446C40.452 38.2446 47.304 35.6284 47.304 32.4011C47.304 29.1738 40.452 26.5576 31.9997 26.5576C23.5473 26.5576 16.6953 29.1738 16.6953 32.4011C16.6953 35.6284 23.5473 38.2446 31.9997 38.2446Z" stroke="#61DAFB" stroke-width="1.3913"></path>
    <path d="M26.9392 35.323C31.1654 42.643 36.8571 47.2689 39.652 45.6552C42.4468 44.0416 41.2866 36.7995 37.0604 29.4795C32.8342 22.1596 27.1425 17.5337 24.3476 19.1473C21.5527 20.761 22.713 28.0031 26.9392 35.323Z" stroke="#61DAFB" stroke-width="1.3913"></path>
    <path d="M26.9376 29.4798C22.7114 36.7998 21.5511 44.0419 24.346 45.6555C27.1409 47.2691 32.8326 42.6432 37.0588 35.3233C41.2849 28.0033 42.4452 20.7612 39.6503 19.1476C36.8554 17.534 31.1637 22.1599 26.9376 29.4798Z" stroke="#61DAFB" stroke-width="1.3913"></path>
  </g>
  <defs>
    <clipPath id="clip0_14911_25894">
      <rect width="32" height="28.4709" fill="white" transform="translate(16 18.166)"></rect>
    </clipPath>
  </defs>
</svg>
