<?xml version="1.0" encoding="UTF-8"?>
<svg xmlns="http://www.w3.org/2000/svg" width="64" height="65" viewBox="0 0 64 65" fill="none">
  <path d="M47.9978 25.2647C47.9959 24.9429 47.9923 24.6212 47.9834 24.299C47.9647 23.5982 47.9233 22.8909 47.7987 22.1975C47.6723 21.4934 47.4656 20.8386 47.14 20.199C46.8203 19.5708 46.4024 18.9959 45.9039 18.4974C45.4055 17.9989 44.8307 17.5811 44.2022 17.2612C43.5631 16.936 42.9082 16.7294 42.2047 16.603C41.511 16.478 40.8037 16.4369 40.1023 16.4179C39.7803 16.4092 39.4585 16.4055 39.1366 16.4035C38.7545 16.4014 38.3721 16.4014 37.9901 16.4014H29.5192H26.01C25.6276 16.4014 25.2456 16.4014 24.8636 16.4036C24.5416 16.4056 24.2195 16.4092 23.8979 16.418C23.7226 16.4227 23.5469 16.4288 23.3711 16.4373C22.8437 16.4627 22.3155 16.5093 21.7954 16.603C21.2678 16.6979 20.7675 16.8377 20.2807 17.039C20.1185 17.106 19.9577 17.1799 19.7979 17.2612C19.3265 17.5011 18.8853 17.7961 18.4839 18.1389C18.3501 18.2532 18.2208 18.3727 18.0962 18.4974C17.5976 18.9959 17.1797 19.5707 16.86 20.1989C16.5344 20.8386 16.328 21.4933 16.2015 22.1975C16.077 22.8909 16.0356 23.5981 16.0168 24.299C16.0079 24.6212 16.0042 24.9429 16.0021 25.2647C15.9997 25.6469 16 26.0292 16 26.4113V31.6279V38.3913C16 38.7738 15.9996 39.1557 16.0021 39.5382C16.0042 39.86 16.0079 40.1817 16.0168 40.5033C16.0356 41.2046 16.077 41.912 16.2015 42.605C16.328 43.309 16.5344 43.9643 16.86 44.6038C17.1797 45.2322 17.5976 45.8069 18.0962 46.3052C18.5944 46.8039 19.1694 47.2217 19.7979 47.5417C20.4371 47.867 21.0919 48.0734 21.7956 48.1998C22.4889 48.3245 23.1967 48.366 23.898 48.3848C24.2195 48.3933 24.5416 48.3972 24.8637 48.399C25.2457 48.4018 25.6276 48.4014 26.01 48.4014H37.9901C38.3721 48.4014 38.7545 48.4018 39.1366 48.399C39.4585 48.3972 39.7802 48.3933 40.1023 48.3848C40.8037 48.366 41.5109 48.3245 42.2047 48.1998C42.9082 48.0734 43.563 47.867 44.2022 47.5417C44.8306 47.2217 45.4055 46.8039 45.9039 46.3052C46.4024 45.8068 46.8203 45.2322 47.1399 44.6038C47.4656 43.9643 47.6722 43.309 47.7986 42.605C47.9232 41.912 47.9646 41.2046 47.9834 40.5033C47.9922 40.1817 47.9958 39.8601 47.9977 39.5382C48.0002 39.1557 48 38.7738 48 38.3913V26.4113C48 26.0292 48.0002 25.6469 47.9978 25.2647Z" fill="#F05138"></path>
  <path d="M41.3553 36.1541C41.3545 36.1531 41.3538 36.1524 41.353 36.1515C41.3884 36.0311 41.4249 35.9113 41.4559 35.7878C42.7841 30.4963 39.5426 24.2403 34.0573 20.9463C36.461 24.2049 37.5239 28.1519 36.5796 31.6035C36.4954 31.9114 36.3941 32.2069 36.2822 32.4941C36.1608 32.4143 36.0077 32.3237 35.8022 32.2104C35.8022 32.2104 30.3458 28.8414 24.432 22.8825C24.2768 22.7261 27.5855 27.6116 31.3405 31.5788C29.5714 30.5859 24.6411 26.9987 21.5199 24.142C21.9034 24.7815 22.3595 25.3973 22.8608 25.9902C25.4673 29.2957 28.8665 33.3742 32.9388 36.506C30.0775 38.257 26.0345 38.3931 22.0091 36.5078C21.0134 36.0412 20.0774 35.4782 19.2109 34.8385C20.9149 37.5641 23.5393 39.9156 26.7333 41.2884C30.5424 42.9254 34.3302 42.8144 37.1514 41.3153L37.1492 41.3185C37.1621 41.3104 37.1785 41.3015 37.1918 41.2932C37.3077 41.2309 37.4226 41.1675 37.5351 41.1005C38.8906 40.397 41.5679 39.6832 43.0049 42.4792C43.3569 43.1635 44.1047 39.5372 41.3553 36.1541Z" fill="white"></path>
</svg>
