<?xml version="1.0" encoding="UTF-8"?>
<svg xmlns="http://www.w3.org/2000/svg" width="64" height="65" viewBox="0 0 64 65" fill="none">
  <g clip-path="url(#clip0_14911_25936)">
    <path d="M26.5289 43.3258C26.5289 43.3258 24.9914 44.2608 27.5976 44.5283C30.7351 44.9283 32.4064 44.862 35.8789 44.1945C36.5768 44.6219 37.3149 44.9799 38.0826 45.2633C30.2701 48.6033 20.3839 45.0633 26.5289 43.3258ZM25.5289 38.9845C25.5289 38.9845 23.8589 40.2533 26.4639 40.522C29.8701 40.8558 32.5414 40.922 37.1514 39.9883C37.5997 40.443 38.1486 40.7859 38.7539 40.9895C29.3364 43.7945 18.7839 41.2558 25.5289 38.9845ZM43.9626 46.597C43.9626 46.597 45.0976 47.532 42.6939 48.267C38.2189 49.6045 23.9264 50.0045 19.9189 48.267C18.5164 47.667 21.1876 46.7983 22.0439 46.6645C22.9126 46.4645 23.3814 46.4645 23.3814 46.4645C21.8439 45.3958 13.1626 48.6683 18.9739 49.602C34.9364 52.207 48.0939 48.467 43.9526 46.597H43.9626ZM27.2514 34.442C27.2514 34.442 19.9714 36.1795 24.6464 36.7795C26.6501 37.047 30.5901 36.9795 34.2639 36.7133C37.2689 36.4458 40.2764 35.9133 40.2764 35.9133C40.2764 35.9133 39.2076 36.3808 38.4726 36.8483C31.0601 38.7858 16.8326 37.917 20.9076 35.9133C24.3801 34.2433 27.2526 34.4445 27.2526 34.4445L27.2514 34.442ZM40.2764 41.722C47.7564 37.847 44.2839 34.1095 41.8789 34.5758C41.2789 34.7095 41.0101 34.8433 41.0101 34.8433C41.0101 34.8433 41.2101 34.4433 41.6776 34.3095C46.4201 32.6395 50.1601 39.3183 40.1401 41.922C40.1401 41.922 40.2064 41.8558 40.2739 41.722H40.2764ZM27.9889 52.2745C35.2014 52.742 46.2226 52.007 46.4889 48.5995C46.4889 48.5995 45.9551 49.937 40.5451 50.937C34.4001 52.072 26.7864 51.937 22.3114 51.2045C22.3114 51.2045 23.2464 52.0058 27.9889 52.2745Z" fill="#4E7896"></path>
    <path d="M35.7452 12.4023C35.7452 12.4023 39.8865 16.6098 31.8052 22.9548C25.3265 28.0973 30.3365 31.0361 31.8052 34.3761C27.9977 30.9698 25.2602 27.9636 27.1302 25.1598C29.8677 21.0173 37.4152 19.0261 35.7452 12.4023ZM33.6202 31.5711C35.5577 33.7748 33.0865 35.7786 33.0865 35.7786C33.0865 35.7786 38.029 33.2411 35.7577 30.1011C33.6877 27.0961 32.0827 25.6261 40.7665 20.6173C40.7665 20.6173 27.0752 24.0236 33.6202 31.5711Z" fill="#F58219"></path>
  </g>
  <defs>
    <clipPath id="clip0_14911_25936">
      <rect width="40" height="40" fill="white" transform="translate(12 12.4014)"></rect>
    </clipPath>
  </defs>
</svg>
