<?xml version="1.0" encoding="UTF-8"?>
<svg xmlns="http://www.w3.org/2000/svg" width="56" height="57" viewBox="0 0 56 57" fill="none">
  <g clip-path="url(#clip0_15300_3792)">
    <path d="M19.2507 33.7896L13.8611 28.4L31.3611 10.9014H42.1389M42.1389 27.049H31.3611L27.3238 31.0863L32.7134 36.4759" fill="#42A5F5" fill-opacity="0.8"></path>
    <path d="M27.324 41.8628L31.3612 45.9001H42.1391L32.7136 36.4746" fill="#0D47A1"></path>
    <path d="M21.947 36.4783L27.3282 31.0957L32.7093 36.4768L27.3282 41.8594L21.947 36.4783Z" fill="#42A5F5"></path>
    <path d="M27.3279 41.8587L32.709 36.4775L33.4602 37.2287L28.079 42.6098L27.3279 41.8587Z" fill="url(#paint0_linear_15300_3792)"></path>
    <path d="M27.324 41.8642L35.3207 39.1015L32.7136 36.4746" fill="url(#paint1_linear_15300_3792)"></path>
  </g>
  <defs>
    <linearGradient id="paint0_linear_15300_3792" x1="30.0195" y1="39.1671" x2="30.7707" y2="39.9183" gradientUnits="userSpaceOnUse">
      <stop offset="0.2" stop-opacity="0.15"></stop>
      <stop offset="0.85" stop-color="#616161" stop-opacity="0.01"></stop>
    </linearGradient>
    <linearGradient id="paint1_linear_15300_3792" x1="27.3259" y1="39.1696" x2="35.3225" y2="39.1696" gradientUnits="userSpaceOnUse">
      <stop offset="0.2" stop-opacity="0.55"></stop>
      <stop offset="0.85" stop-color="#616161" stop-opacity="0.01"></stop>
    </linearGradient>
    <clipPath id="clip0_15300_3792">
      <rect width="28.2778" height="35" fill="white" transform="translate(13.8611 10.9014)"></rect>
    </clipPath>
  </defs>
</svg>
