<?xml version="1.0" encoding="UTF-8"?>
<svg xmlns="http://www.w3.org/2000/svg" width="56" height="57" viewBox="0 0 56 57" fill="none">
  <g clip-path="url(#clip0_15300_3801)">
    <path d="M41.0882 27.0117C41.0882 25.2631 38.8985 23.606 35.5412 22.5784C36.316 19.1566 35.9716 16.4341 34.4543 15.5625C34.1046 15.3581 33.6958 15.2612 33.2492 15.2612V16.461C33.4967 16.461 33.6958 16.5095 33.8625 16.6009C34.5942 17.0206 34.9117 18.6185 34.6641 20.6738C34.6051 21.1795 34.5082 21.7122 34.3898 22.2556C33.3352 21.9973 32.1839 21.7983 30.9733 21.6691C30.247 20.6738 29.4938 19.7699 28.7351 18.979C30.4891 17.3488 32.1355 16.4557 33.2546 16.4557V15.2559C31.7749 15.2559 29.8381 16.3104 27.8797 18.1397C25.9212 16.3212 23.9844 15.2774 22.5048 15.2774V16.4772C23.6185 16.4772 25.2702 17.3649 27.0242 18.9844C26.271 19.7753 25.5177 20.6738 24.8021 21.6691C23.5862 21.7983 22.4348 21.9973 21.3803 22.261C21.2565 21.7229 21.1651 21.2011 21.1005 20.7007C20.8477 18.6454 21.1597 17.0475 21.8861 16.6225C22.0474 16.5256 22.2572 16.4826 22.5048 16.4826V15.2828C22.0528 15.2828 21.6439 15.3796 21.2889 15.5841C19.777 16.4557 19.4381 19.1727 20.2181 22.5838C16.8716 23.6168 14.6926 25.2686 14.6926 27.0117C14.6926 28.7604 16.8824 30.4175 20.2397 31.4451C19.4649 34.867 19.8092 37.5893 21.3265 38.4609C21.6763 38.6653 22.0851 38.7622 22.5371 38.7622C24.0166 38.7622 25.9536 37.7077 27.912 35.8784C29.8703 37.697 31.8073 38.7408 33.2868 38.7408C33.7387 38.7408 34.1476 38.6439 34.5028 38.4394C36.0146 37.5678 36.3536 34.8507 35.5734 31.4398C38.9092 30.4121 41.0882 28.755 41.0882 27.0117ZM34.0832 23.4231C33.884 24.1172 33.6366 24.8327 33.3567 25.5483C33.1362 25.1179 32.9049 24.6875 32.652 24.257C32.4045 23.8266 32.1408 23.407 31.8772 22.9981C32.6411 23.1111 33.3783 23.2509 34.0832 23.4231ZM31.6189 29.1531C31.1993 29.8795 30.7689 30.5681 30.3223 31.2084C29.5206 31.2783 28.7083 31.316 27.8904 31.316C27.078 31.316 26.2655 31.2783 25.4693 31.2137C25.0228 30.5734 24.5869 29.8902 24.1672 29.1692C23.7583 28.4644 23.3872 27.7488 23.0481 27.0279C23.3818 26.3069 23.7583 25.5859 24.162 24.8812C24.5816 24.1549 25.0119 23.4662 25.4585 22.8259C26.2602 22.7559 27.0726 22.7183 27.8904 22.7183C28.7029 22.7183 29.5153 22.7559 30.3115 22.8205C30.7581 23.4608 31.194 24.144 31.6136 24.865C32.0225 25.5698 32.3937 26.2854 32.7327 27.0064C32.3937 27.7273 32.0225 28.4483 31.6189 29.1531ZM33.3567 28.4537C33.6392 29.1549 33.887 29.8695 34.0993 30.595C33.3944 30.7671 32.652 30.9124 31.8826 31.0254C32.1462 30.6112 32.4098 30.1862 32.6574 29.7503C32.9049 29.3199 33.1362 28.8841 33.3567 28.4537ZM27.9011 34.1945C27.4008 33.6779 26.9004 33.1022 26.4055 32.4727C26.8897 32.4943 27.3846 32.5104 27.885 32.5104C28.3908 32.5104 28.8911 32.4997 29.3808 32.4727C28.919 33.0729 28.425 33.6476 27.9011 34.1945ZM23.8982 31.0254C23.1343 30.9124 22.3972 30.7725 21.6924 30.6004C21.8914 29.9063 22.139 29.1907 22.4187 28.4751C22.6393 28.9056 22.8707 29.3361 23.1235 29.7664C23.3763 30.1969 23.6346 30.6165 23.8982 31.0254ZM27.8743 19.8291C28.3747 20.3456 28.875 20.9213 29.37 21.5508C28.8857 21.5293 28.3908 21.5131 27.8904 21.5131C27.3846 21.5131 26.8843 21.5239 26.3948 21.5508C26.8565 20.9506 27.3505 20.3759 27.8743 19.8291ZM23.8928 22.9981C23.6292 23.4123 23.3656 23.8374 23.1182 24.2731C22.8707 24.7036 22.6393 25.1341 22.4187 25.5644C22.1362 24.8632 21.8885 24.1486 21.6763 23.4231C22.381 23.2563 23.1235 23.1111 23.8928 22.9981ZM19.0237 29.7342C17.1191 28.9217 15.887 27.8565 15.887 27.0117C15.887 26.167 17.1191 25.0964 19.0237 24.2894C19.4864 24.0903 19.9922 23.9127 20.5141 23.7459C20.8208 24.8004 21.2243 25.898 21.7246 27.0225C21.2297 28.1416 20.8315 29.2338 20.5302 30.283C19.9976 30.1161 19.4918 29.9333 19.0237 29.7342ZM21.9183 37.4226C21.1866 37.0029 20.8691 35.405 21.1167 33.3497C21.1759 32.844 21.2726 32.3113 21.391 31.7678C22.4456 32.0261 23.597 32.2253 24.8075 32.3543C25.5338 33.3497 26.2871 34.2535 27.0457 35.0444C25.2918 36.6747 23.6454 37.5678 22.5262 37.5678C22.2842 37.5625 22.0798 37.514 21.9183 37.4226ZM34.6804 33.3228C34.9331 35.378 34.6212 36.976 33.8948 37.401C33.7334 37.4979 33.5236 37.5409 33.276 37.5409C32.1623 37.5409 30.5106 36.6532 28.7566 35.0337C29.5099 34.2428 30.2631 33.3444 30.9787 32.3489C32.1947 32.2198 33.346 32.0207 34.4005 31.7571C34.5243 32.3006 34.6212 32.8225 34.6804 33.3228ZM36.7517 29.7342C36.289 29.9333 35.7832 30.1108 35.2613 30.2776C34.9547 29.2231 34.5512 28.1255 34.0508 27.001C34.5459 25.8819 34.944 24.7897 35.2452 23.7405C35.7779 23.9073 36.2836 24.0903 36.7571 24.2894C38.6617 25.1017 39.8938 26.167 39.8938 27.0117C39.8884 27.8565 38.6563 28.9271 36.7517 29.7342Z" fill="#61DAFB"></path>
    <path d="M27.8846 29.4703C29.2426 29.4703 30.3435 28.3695 30.3435 27.0115C30.3435 25.6536 29.2426 24.5527 27.8846 24.5527C26.5267 24.5527 25.4259 25.6536 25.4259 27.0115C25.4259 28.3695 26.5267 29.4703 27.8846 29.4703ZM15.8908 42.9955H15.0791V44.3933H14.6211V40.9379H15.765C16.1542 40.9379 16.4533 41.0265 16.6621 41.2037C16.8725 41.3808 16.9777 41.6388 16.9777 41.9773C16.9777 42.1925 16.9192 42.38 16.8021 42.5399C16.6866 42.6996 16.5252 42.8191 16.318 42.8981L17.1296 44.3648V44.3933H16.6407L15.8908 42.9955ZM15.0791 42.6229H15.7793C16.0055 42.6229 16.1851 42.5643 16.318 42.4472C16.4525 42.3302 16.5197 42.1735 16.5197 41.9773C16.5197 41.7638 16.4556 41.6 16.3275 41.4861C16.2009 41.3722 16.0174 41.3144 15.7769 41.3129H15.0791V42.6229ZM18.6153 44.4409C18.2672 44.4409 17.984 44.3269 17.7657 44.0991C17.5473 43.8696 17.4382 43.5635 17.4382 43.1806V43.0999C17.4382 42.8452 17.4864 42.6182 17.5829 42.4188C17.681 42.2178 17.8171 42.0612 17.9911 41.9489C18.1668 41.835 18.3566 41.778 18.5607 41.778C18.8946 41.778 19.1541 41.8879 19.3391 42.1078C19.5243 42.3278 19.6168 42.6426 19.6168 43.0524V43.2351H17.8772C17.8835 43.4884 17.9571 43.6933 18.0979 43.8499C18.2403 44.0049 18.4207 44.0825 18.639 44.0825C18.7941 44.0825 18.9254 44.0508 19.0329 43.9875C19.1406 43.9243 19.2347 43.8404 19.3154 43.736L19.5836 43.9448C19.3684 44.2754 19.0457 44.4409 18.6153 44.4409ZM18.5607 42.1388C18.3835 42.1388 18.2348 42.2036 18.1145 42.3333C17.9943 42.4616 17.9199 42.6419 17.8915 42.8744H19.1778V42.8412C19.1652 42.6182 19.105 42.4457 18.9974 42.3238C18.8898 42.2005 18.7442 42.1388 18.5607 42.1388ZM21.7124 44.3933C21.6871 44.3427 21.6665 44.2526 21.6507 44.1228C21.4466 44.3347 21.2029 44.4409 20.9197 44.4409C20.6666 44.4409 20.4586 44.3696 20.2956 44.2272C20.1342 44.0832 20.0535 43.9013 20.0535 43.6814C20.0535 43.414 20.1548 43.2067 20.3573 43.0596C20.5613 42.9108 20.8478 42.8364 21.2164 42.8364H21.6436V42.6348C21.6436 42.4813 21.5977 42.3594 21.506 42.2693C21.4142 42.1775 21.2788 42.1317 21.1001 42.1317C20.9434 42.1317 20.8122 42.1711 20.7062 42.2503C20.6002 42.3293 20.5471 42.4251 20.5471 42.5375H20.1057C20.1057 42.4093 20.1508 42.2859 20.2409 42.1672C20.3327 42.047 20.4562 41.952 20.6113 41.8824C20.7679 41.8129 20.9395 41.778 21.1262 41.778C21.4221 41.778 21.6538 41.8523 21.8216 42.0011C21.9893 42.1483 22.0762 42.3516 22.0826 42.611V43.7929C22.0826 44.0287 22.1127 44.2161 22.1729 44.3553V44.3933H21.7124ZM20.9839 44.0588C21.1215 44.0588 21.252 44.0232 21.3755 43.9519C21.4988 43.8807 21.5882 43.7882 21.6436 43.6743V43.1474H21.2994C20.7615 43.1474 20.4925 43.3048 20.4925 43.6196C20.4925 43.7573 20.5385 43.8649 20.6301 43.9424C20.7219 44.0199 20.8398 44.0588 20.9839 44.0588ZM23.8009 44.0825C23.9575 44.0825 24.0944 44.0349 24.2115 43.94C24.3285 43.8451 24.3934 43.7265 24.406 43.584H24.8214C24.8135 43.7312 24.7628 43.8712 24.6695 44.0041C24.5761 44.1371 24.4511 44.2431 24.2945 44.3221C24.1394 44.4013 23.975 44.4409 23.8009 44.4409C23.4512 44.4409 23.1727 44.3245 22.9654 44.092C22.7598 43.8577 22.657 43.5382 22.657 43.1331V43.0596C22.657 42.8096 22.7028 42.5873 22.7946 42.3927C22.8864 42.1981 23.0177 42.047 23.1886 41.9394C23.361 41.8317 23.5643 41.778 23.7985 41.778C24.0865 41.778 24.3254 41.8642 24.5153 42.0367C24.7067 42.2091 24.8087 42.433 24.8214 42.7083H24.406C24.3934 42.5422 24.3301 42.4061 24.2162 42.3001C24.1039 42.1925 23.9646 42.1388 23.7985 42.1388C23.5754 42.1388 23.4022 42.2194 23.2787 42.3808C23.157 42.5406 23.096 42.7724 23.096 43.0762V43.1592C23.096 43.4551 23.157 43.6829 23.2787 43.8427C23.4006 44.0026 23.5747 44.0825 23.8009 44.0825ZM25.9107 41.2037V41.8255H26.3901V42.1649H25.9107V43.7573C25.9107 43.8601 25.9321 43.9376 25.9748 43.9898C26.0175 44.0405 26.0903 44.0659 26.1932 44.0659C26.2437 44.0659 26.3134 44.0564 26.4019 44.0373V44.3933C26.2864 44.425 26.1742 44.4409 26.0649 44.4409C25.8688 44.4409 25.7209 44.3814 25.6211 44.2628C25.5215 44.1442 25.4717 43.9756 25.4717 43.7573V42.1649H25.0041V41.8255H25.4717V41.2037H25.9107ZM30.8353 44.3933H30.3771L28.6376 41.7306V44.3933H28.1796V40.9379H28.6376L30.382 43.6125V40.9379H30.8353V44.3933ZM33.1611 44.3933C33.1357 44.3427 33.1151 44.2526 33.0994 44.1228C32.8952 44.3347 32.6516 44.4409 32.3684 44.4409C32.1152 44.4409 31.9071 44.3696 31.7442 44.2272C31.5829 44.0832 31.5021 43.9013 31.5021 43.6814C31.5021 43.414 31.6033 43.2067 31.8059 43.0596C32.01 42.9108 32.2964 42.8364 32.665 42.8364H33.0923V42.6348C33.0923 42.4813 33.0463 42.3594 32.9545 42.2693C32.8628 42.1775 32.7275 42.1317 32.5487 42.1317C32.3921 42.1317 32.2608 42.1711 32.1548 42.2503C32.0488 42.3293 31.9958 42.4251 31.9958 42.5375H31.5544C31.5544 42.4093 31.5995 42.2859 31.6896 42.1672C31.7814 42.047 31.9048 41.952 32.0599 41.8824C32.2165 41.8129 32.3881 41.778 32.5748 41.778C32.8706 41.778 33.1025 41.8523 33.2702 42.0011C33.4379 42.1483 33.5249 42.3516 33.5313 42.611V43.7929C33.5313 44.0287 33.5613 44.2161 33.6215 44.3553V44.3933H33.1611ZM32.4325 44.0588C32.5701 44.0588 32.7007 44.0232 32.8241 43.9519C32.9474 43.8807 33.0368 43.7882 33.0923 43.6743V43.1474H32.7481C32.2102 43.1474 31.9412 43.3048 31.9412 43.6196C31.9412 43.7573 31.9871 43.8649 32.0788 43.9424C32.1706 44.0199 32.2885 44.0588 32.4325 44.0588ZM34.8152 41.2037V41.8255H35.2946V42.1649H34.8152V43.7573C34.8152 43.8601 34.8366 43.9376 34.8793 43.9898C34.922 44.0405 34.9948 44.0659 35.0977 44.0659C35.1482 44.0659 35.2179 44.0564 35.3065 44.0373V44.3933C35.1909 44.425 35.0787 44.4409 34.9694 44.4409C34.7733 44.4409 34.6253 44.3814 34.5256 44.2628C34.426 44.1442 34.3762 43.9756 34.3762 43.7573V42.1649H33.9087V41.8255H34.3762V41.2037H34.8152ZM36.2867 44.3933H35.8476V41.8255H36.2867V44.3933ZM35.8119 41.1443C35.8119 41.0732 35.8334 41.013 35.8761 40.964C35.9203 40.9149 35.9852 40.8905 36.0706 40.8905C36.1561 40.8905 36.221 40.9149 36.2653 40.964C36.3095 41.013 36.3317 41.0732 36.3317 41.1443C36.3317 41.2155 36.3095 41.2748 36.2653 41.3224C36.221 41.3698 36.1561 41.3936 36.0706 41.3936C35.9852 41.3936 35.9203 41.3698 35.8761 41.3224C35.8334 41.2748 35.8119 41.2155 35.8119 41.1443ZM37.8388 43.7977L38.4747 41.8255H38.9234L38.0025 44.3933H37.6678L36.7376 41.8255H37.1861L37.8388 43.7977ZM40.3781 44.4409C40.0301 44.4409 39.7469 44.3269 39.5285 44.0991C39.3101 43.8696 39.201 43.5635 39.201 43.1806V43.0999C39.201 42.8452 39.2493 42.6182 39.3458 42.4188C39.4438 42.2178 39.5799 42.0612 39.754 41.9489C39.9296 41.835 40.1195 41.778 40.3235 41.778C40.6573 41.778 40.9169 41.8879 41.102 42.1078C41.287 42.3278 41.3797 42.6426 41.3797 43.0524V43.2351H39.64C39.6464 43.4884 39.7199 43.6933 39.8608 43.8499C40.0031 44.0049 40.1836 44.0825 40.4018 44.0825C40.5569 44.0825 40.6883 44.0508 40.7958 43.9875C40.9034 43.9243 40.9976 43.8404 41.0783 43.736L41.3465 43.9448C41.1312 44.2754 40.8085 44.4409 40.3781 44.4409ZM40.3235 42.1388C40.1464 42.1388 39.9976 42.2036 39.8774 42.3333C39.7571 42.4616 39.6827 42.6419 39.6543 42.8744H40.9406V42.8412C40.9279 42.6182 40.8678 42.4457 40.7602 42.3238C40.6527 42.2005 40.5071 42.1388 40.3235 42.1388Z" fill="#61DAFB"></path>
  </g>
  <defs>
    <clipPath id="clip0_15300_3801">
      <rect width="40" height="32.08" fill="white" transform="translate(8 12.3613)"></rect>
    </clipPath>
  </defs>
</svg>
