<?xml version="1.0" encoding="UTF-8"?>
<svg xmlns="http://www.w3.org/2000/svg" width="56" height="57" viewBox="0 0 56 57" fill="none">
  <path d="M27.9397 50.3897C16.1272 50.3897 6.10843 40.4121 6.01568 28.5147C5.97456 22.7222 8.25393 17.1537 12.3454 13.0535C14.3845 10.9651 16.8181 9.30259 19.5051 8.16265C22.192 7.02271 25.0787 6.42801 27.9974 6.41309C33.7856 6.40784 39.3374 8.71434 43.4184 12.8181C45.4733 14.8209 47.1114 17.2107 48.2383 19.8496C49.3652 22.4884 49.9586 25.3243 49.9844 28.1936C50.0387 40.3447 40.2693 50.2585 28.1094 50.3818L27.9397 50.3897ZM28.0009 7.58034C25.2352 7.59646 22.5001 8.16174 19.9546 9.24338C17.4091 10.325 15.1037 11.9015 13.1723 13.8812C11.2513 15.802 9.73057 18.085 8.6984 20.5978C7.66622 23.1107 7.14308 25.8034 7.15931 28.52C7.24681 39.7865 16.7406 49.2356 27.9266 49.2356H28.0753C39.6061 49.1227 48.8784 39.7278 48.8259 28.2067C48.8001 25.4884 48.2366 22.802 47.168 20.3024C46.0993 17.8027 44.5467 15.5393 42.5994 13.6423C40.6897 11.7161 38.4169 10.1878 35.9126 9.14592C33.4082 8.10402 30.7221 7.56922 28.0097 7.57247L28.0009 7.58034ZM10.9384 34.8366V21.9916H14.0622V23.1422H12.4049V33.7078H14.0622V34.8585L10.9384 34.8366ZM21.5522 28.2872C21.5522 30.6296 20.1312 31.964 18.2036 31.964C16.2759 31.964 14.9923 30.4625 14.9923 28.408C14.9923 26.2616 16.3398 24.7478 18.3068 24.7478C20.2738 24.7478 21.5443 26.3246 21.5443 28.2863L21.5522 28.2872ZM16.3389 28.3905C16.3389 29.8115 17.0521 30.9393 18.2779 30.9393C19.5038 30.9393 20.2056 29.7887 20.2056 28.3388C20.2056 27.0211 19.5554 25.7786 18.2779 25.7786C17.0004 25.7786 16.3267 26.9808 16.3267 28.4211L16.3389 28.3905ZM22.6354 24.9902C23.2475 24.8844 23.8676 24.8323 24.4887 24.8345C25.1864 24.7661 25.8877 24.9211 26.4916 25.2772C26.9527 25.5397 27.2301 26.049 27.2178 26.5836C27.2003 27.2836 26.7366 27.8935 26.0672 28.0973C26.4652 28.1782 26.823 28.3943 27.0798 28.709C27.3366 29.0237 27.4766 29.4175 27.4759 29.8237C27.4804 30.0989 27.4222 30.3714 27.3056 30.6206C27.189 30.8699 27.0171 31.0893 26.8031 31.2622C26.3078 31.6997 25.4853 31.9123 24.2131 31.9123C23.6898 31.915 23.167 31.8843 22.6477 31.8205L22.6354 24.9902ZM23.9016 27.7465H24.5517C25.4319 27.7465 25.9272 27.3326 25.9272 26.7402C25.9272 26.1478 25.4319 25.7847 24.6208 25.7847C24.3776 25.776 24.1352 25.7935 23.8946 25.8372L23.9016 27.7465ZM23.9016 30.9577C24.1251 30.9808 24.3498 30.9905 24.5744 30.9866C25.3917 30.9866 26.1162 30.676 26.1162 29.836C26.1162 28.996 25.4144 28.6853 24.5342 28.6853H23.9016V30.9577ZM29.9889 24.8983H31.2603V29.4483C31.2603 31.376 30.3284 32.0208 28.9591 32.0208C28.5936 32.0165 28.2308 31.9575 27.8828 31.8458L28.0386 30.8221C28.2939 30.902 28.5594 30.9447 28.8269 30.949C29.5532 30.949 29.9776 30.6165 29.9776 29.4072L29.9889 24.8983ZM34.8889 28.6783V29.5586H32.2421V28.6783H34.8889ZM41.0603 31.6708C40.4883 31.8987 39.8749 32.0045 39.2596 31.9815C37.0441 31.9815 35.6983 30.5946 35.6983 28.471C35.672 27.9763 35.7507 27.4816 35.9293 27.0195C36.1079 26.5574 36.3823 26.1383 36.7345 25.7899C37.0867 25.4415 37.5087 25.1716 37.9728 24.9981C38.4368 24.8245 38.9323 24.7511 39.4267 24.7828C40.018 24.7582 40.6074 24.8643 41.1531 25.0935L40.8713 26.1058C40.4382 25.9308 39.9718 25.8293 39.5019 25.8433C38.0809 25.8433 37.0563 26.7358 37.0563 28.4158C37.0563 29.9471 37.9593 30.9358 39.4906 30.9358C39.9657 30.9428 40.4373 30.8545 40.8774 30.6768L41.0603 31.6708ZM45.0634 21.9566V34.8366H41.9397V33.686H43.5969V23.109H41.9309V21.9566H45.0634Z" fill="#F1592A"></path>
</svg>
