<?xml version="1.0" encoding="UTF-8"?>
<svg xmlns="http://www.w3.org/2000/svg" width="64" height="65" viewBox="0 0 64 65" fill="none">
  <g clip-path="url(#clip0_15300_3816)">
    <path d="M30.3211 12.9354C31.3211 12.3691 32.5961 12.3666 33.5711 12.9354L48.5011 21.3516C49.4349 21.8766 50.0599 22.9179 50.0511 23.9941V40.8691C50.0574 41.9904 49.3711 43.0541 48.3861 43.5691L33.5361 51.9466C33.0282 52.2273 32.4544 52.3669 31.8743 52.3509C31.2942 52.3348 30.729 52.1637 30.2374 51.8554L25.7811 49.2804C25.4774 49.0991 25.1361 48.9554 24.9211 48.6616C25.1111 48.4066 25.4486 48.3741 25.7236 48.2616C26.3436 48.0641 26.9111 47.7616 27.4811 47.4416C27.6249 47.3416 27.8011 47.3791 27.9386 47.4691L31.7386 49.6666C32.0099 49.8229 32.2849 49.6166 32.5174 49.4854L47.0986 41.2566C47.2786 41.1691 47.3786 40.9791 47.3636 40.7816V24.0691C47.3836 23.8441 47.2549 23.6391 47.0511 23.5479L32.2386 15.2066C32.1533 15.1476 32.052 15.1159 31.9482 15.1156C31.8444 15.1154 31.743 15.1467 31.6574 15.2054L16.8661 23.5641C16.6661 23.6554 16.5286 23.8579 16.5536 24.0829V40.7954C16.5361 40.9929 16.6411 41.1791 16.8224 41.2641L20.7749 43.4954C21.5174 43.8954 22.4286 44.1204 23.2461 43.8266C23.6039 43.6918 23.9119 43.4509 24.1288 43.1361C24.3457 42.8213 24.4613 42.4477 24.4599 42.0654L24.4636 25.4529C24.4461 25.2066 24.6786 25.0029 24.9174 25.0279H26.8174C27.0674 25.0216 27.2636 25.2866 27.2299 25.5341L27.2261 42.2516C27.2274 43.7366 26.6174 45.3516 25.2436 46.0804C23.5511 46.9554 21.4586 46.7716 19.7861 45.9304L15.5361 43.5804C14.5361 43.0804 13.8649 42.0004 13.8711 40.8804V24.0054C13.8753 23.4569 14.0261 22.9196 14.3078 22.449C14.5896 21.9784 14.9921 21.5918 15.4736 21.3291L30.3211 12.9354ZM34.6261 24.6329C36.7849 24.5079 39.0961 24.5504 41.0386 25.6141C42.5424 26.4291 43.3761 28.1391 43.4036 29.8116C43.3611 30.0366 43.1261 30.1616 42.9111 30.1454C42.2861 30.1441 41.6586 30.1541 41.0311 30.1416C40.7649 30.1516 40.6111 29.9066 40.5774 29.6716C40.3974 28.8716 39.9611 28.0804 39.2086 27.6941C38.0536 27.1154 36.7136 27.1441 35.4536 27.1566C34.5336 27.2066 33.5449 27.2854 32.7661 27.8254C32.1661 28.2354 31.9861 29.0754 32.1999 29.7279C32.3999 30.2066 32.9536 30.3604 33.4049 30.5029C36.0074 31.1829 38.7636 31.1279 41.3174 32.0116C42.3736 32.3766 43.4074 33.0866 43.7699 34.1929C44.2424 35.6754 44.0361 37.4479 42.9824 38.6379C42.1274 39.6179 40.8824 40.1379 39.6386 40.4404C37.9849 40.8091 36.2699 40.8179 34.5911 40.6529C33.0124 40.4729 31.3699 40.0579 30.1511 38.9829C29.1086 38.0779 28.6011 36.6679 28.6511 35.3079C28.6636 35.0779 28.8924 34.9179 29.1136 34.9366H30.9886C31.2411 34.9191 31.4261 35.1366 31.4386 35.3741C31.5549 36.1241 31.8411 36.9366 32.5061 37.3741C33.7886 38.2016 35.3974 38.1441 36.8649 38.1679C38.0811 38.1141 39.4461 38.0979 40.4399 37.2929C40.9649 36.8341 41.1186 36.0679 40.9774 35.4079C40.8236 34.8504 40.2274 34.5916 39.7274 34.4079C37.1586 33.5954 34.3711 33.8904 31.8274 32.9704C30.7949 32.6054 29.7961 31.9154 29.3999 30.8541C28.8461 29.3541 29.0999 27.4954 30.2661 26.3454C31.3911 25.2016 33.0411 24.7604 34.6036 24.6029L34.6261 24.6329Z" fill="#8CC84B"></path>
  </g>
  <defs>
    <clipPath id="clip0_15300_3816">
      <rect width="40" height="40" fill="white" transform="translate(12 12.4014)"></rect>
    </clipPath>
  </defs>
</svg>
