<?xml version="1.0" encoding="UTF-8"?>
<svg xmlns="http://www.w3.org/2000/svg" width="56" height="57" viewBox="0 0 56 57" fill="none">
  <g clip-path="url(#clip0_15558_8021)">
    <path d="M11.0316 22.8506H16.7132C18.3808 22.8646 19.5892 23.3454 20.3384 24.2922C21.0876 25.239 21.3348 26.5322 21.0804 28.1718C20.9816 28.921 20.7624 29.6558 20.4232 30.3766C20.098 31.0974 19.646 31.7474 19.0664 32.327C18.3596 33.0618 17.6036 33.5282 16.798 33.7262C15.9924 33.9242 15.1584 34.023 14.2964 34.023H11.7524L10.9468 38.051H8L11.0316 22.8506ZM13.512 25.2674L12.24 31.6274C12.3248 31.6414 12.4096 31.6486 12.4944 31.6486C12.5932 31.6486 12.6924 31.6486 12.7912 31.6486C14.148 31.6626 15.2788 31.5286 16.1832 31.2458C17.0876 30.949 17.6956 29.9174 18.0064 28.1506C18.2608 26.6666 18.0064 25.8114 17.2432 25.5854C16.494 25.3594 15.5544 25.2534 14.4236 25.2674C14.254 25.2814 14.0916 25.2886 13.936 25.2886C13.7948 25.2886 13.6464 25.2886 13.4908 25.2886L13.512 25.2674Z" fill="black"></path>
    <path d="M24.4373 18.8008H27.3629L26.5361 22.85H29.1649C30.6065 22.8784 31.6805 23.1752 32.3873 23.7404C33.1081 24.3056 33.3201 25.38 33.0233 26.9628L31.6029 34.0224H28.6349L29.9917 27.2808C30.1329 26.574 30.0905 26.0724 29.8645 25.7756C29.6385 25.4788 29.1509 25.3304 28.4017 25.3304L26.0485 25.3092L24.3101 34.0224H21.3845L24.4373 18.8008Z" fill="black"></path>
    <path d="M36.1649 22.8506H41.8465C43.5141 22.8646 44.7225 23.3454 45.4717 24.2922C46.2209 25.239 46.4681 26.5322 46.2137 28.1718C46.1149 28.921 45.8957 29.6558 45.5565 30.3766C45.2313 31.0974 44.7793 31.7474 44.1997 32.327C43.4929 33.0618 42.7369 33.5282 41.9313 33.7262C41.1257 33.9242 40.2917 34.023 39.4297 34.023H36.8857L36.0801 38.051H33.1333L36.1649 22.8506ZM38.6453 25.2674L37.3733 31.6274C37.4581 31.6414 37.5429 31.6486 37.6277 31.6486C37.7265 31.6486 37.8257 31.6486 37.9245 31.6486C39.2813 31.6626 40.4121 31.5286 41.3165 31.2458C42.2209 30.949 42.8289 29.9174 43.1397 28.1506C43.3941 26.6666 43.1397 25.8114 42.3765 25.5854C41.6273 25.3594 40.6877 25.2534 39.5569 25.2674C39.3873 25.2814 39.2249 25.2886 39.0693 25.2886C38.9281 25.2886 38.7797 25.2886 38.6241 25.2886L38.6453 25.2674Z" fill="black"></path>
  </g>
  <defs>
    <clipPath id="clip0_15558_8021">
      <rect width="40" height="20" fill="white" transform="translate(8 18.4014)"></rect>
    </clipPath>
  </defs>
</svg>
