<?xml version="1.0" encoding="UTF-8"?>
<svg xmlns="http://www.w3.org/2000/svg" width="56" height="57" viewBox="0 0 56 57" fill="none">
  <path d="M42 28.4005C42 36.1331 35.732 42.4016 27.9996 42.4016C20.2678 42.4016 14 36.1331 14 28.4005C14 20.6691 20.2675 14.4014 27.9996 14.4014C35.732 14.4014 42 20.6691 42 28.4005Z" fill="black"></path>
  <path d="M34.1211 19.5815C32.699 19.6302 31.4576 20.4153 30.5332 21.4987C29.5097 22.6882 28.8297 24.0976 28.3387 25.5377C27.4615 24.8183 26.7852 23.8874 25.377 23.4825C24.2889 23.1697 23.1463 23.2985 22.0954 24.0814C21.5981 24.4531 21.2548 25.0145 21.0918 25.544C20.6695 26.9164 21.5357 28.1391 21.9291 28.5773L22.7896 29.4986C22.9666 29.6796 23.3942 30.1509 23.185 30.8264C22.9603 31.5621 22.0739 32.0372 21.165 31.7578C20.7588 31.6333 20.1757 31.3309 20.3065 30.9058C20.3602 30.7313 20.485 30.6 20.5521 30.4512C20.613 30.3212 20.6427 30.2248 20.6615 30.1667C20.8275 29.6252 20.6003 28.92 20.0199 28.7405C19.478 28.5743 18.9238 28.7061 18.7088 29.4033C18.465 30.1956 18.8444 31.6337 20.8759 32.2593C23.2561 32.992 25.2687 31.6954 25.5545 30.0061C25.7345 28.948 25.2562 28.1609 24.381 27.1501L23.6673 26.3605C23.2354 25.9289 23.0871 25.193 23.5342 24.6276C23.9117 24.1503 24.4489 23.9471 25.3293 24.1862C26.6149 24.5347 27.1874 25.4266 28.1429 26.1461C27.749 27.4409 27.4907 28.7403 27.2575 29.9053L27.1142 30.7743C26.4312 34.357 25.9095 36.3248 24.554 37.4544C24.2809 37.6489 23.8905 37.9395 23.3023 37.9604C22.9933 37.9697 22.8937 37.7572 22.8894 37.6644C22.8827 37.4484 23.0649 37.3488 23.186 37.252C23.3675 37.1531 23.6413 36.9891 23.6224 36.4641C23.6029 35.844 23.0889 35.3061 22.3465 35.3306C21.7901 35.3493 20.9423 35.8725 20.9743 36.8311C21.007 37.8214 21.9296 38.563 23.3211 38.5161C24.0647 38.4906 25.7258 38.1886 27.3621 36.2432C29.267 34.0127 29.8 31.4565 30.2009 29.5853L30.6485 27.1147C30.8961 27.1444 31.1625 27.1646 31.4516 27.1716C33.8241 27.2217 35.0103 25.9933 35.0283 25.0991C35.0405 24.5582 34.6738 24.0252 34.1598 24.0379C33.7926 24.0482 33.3311 24.2931 33.2207 24.8011C33.1119 25.2991 33.9754 25.7492 33.3006 26.1873C32.8213 26.4973 31.9623 26.7155 30.7521 26.5385L30.972 25.3223C31.4211 23.0162 31.9751 20.1799 34.0765 20.1105C34.23 20.1032 34.7897 20.117 34.8029 20.4879C34.8064 20.611 34.7757 20.6434 34.6309 20.9265C34.4831 21.1472 34.4277 21.3359 34.4349 21.5516C34.4549 22.1397 34.9025 22.5272 35.551 22.5047C36.418 22.4757 36.6666 21.632 36.6524 21.1984C36.616 20.1786 35.5418 19.5346 34.1211 19.5815Z" fill="white"></path>
</svg>
