<?xml version="1.0" encoding="UTF-8"?>
<svg xmlns="http://www.w3.org/2000/svg" width="56" height="57" viewBox="0 0 56 57" fill="none">
  <g clip-path="url(#clip0_15300_4506)">
    <path fill-rule="evenodd" clip-rule="evenodd" d="M45.2382 18.2959C45.2511 18.3436 45.2577 18.3928 45.2578 18.4422V26.1226C45.2578 26.2212 45.2318 26.318 45.1824 26.4033C45.133 26.4886 45.0619 26.5593 44.9764 26.6084L38.5301 30.3198V37.6761C38.5301 37.8763 38.4237 38.0611 38.2501 38.1619L24.794 45.9081C24.7632 45.9256 24.7296 45.9368 24.696 45.9487C24.6834 45.9529 24.6715 45.9606 24.6582 45.9641C24.5641 45.9889 24.4653 45.9889 24.3712 45.9641C24.3558 45.9599 24.3418 45.9515 24.3271 45.9459C24.2963 45.9347 24.2641 45.9249 24.2347 45.9081L10.7814 38.1619C10.6959 38.1128 10.6249 38.042 10.5755 37.9567C10.5261 37.8715 10.5001 37.7746 10.5 37.6761V14.6349C10.5 14.5845 10.507 14.5355 10.5196 14.4879C10.5238 14.4718 10.5336 14.4571 10.5392 14.441C10.5497 14.4116 10.5595 14.3815 10.5749 14.3542C10.5854 14.336 10.6008 14.3213 10.6134 14.3045C10.6295 14.2821 10.6442 14.259 10.6631 14.2394C10.6792 14.2233 10.7002 14.2114 10.7184 14.1974C10.7387 14.1806 10.7569 14.1624 10.78 14.1491L17.5077 10.276C17.5929 10.227 17.6894 10.2012 17.7877 10.2012C17.886 10.2012 17.9825 10.227 18.0677 10.276L24.7947 14.1491H24.7961C24.8185 14.1631 24.8374 14.1806 24.8577 14.1967C24.8759 14.2107 24.8962 14.2233 24.9123 14.2387C24.9319 14.259 24.9459 14.2821 24.9627 14.3045C24.9746 14.3213 24.9907 14.336 25.0005 14.3542C25.0166 14.3822 25.0257 14.4116 25.0369 14.441C25.0425 14.4571 25.0523 14.4718 25.0565 14.4886C25.0694 14.5363 25.076 14.5855 25.0761 14.6349V29.0262L30.6817 25.7985V18.4415C30.6817 18.3925 30.6887 18.3428 30.7013 18.2959C30.7062 18.2791 30.7153 18.2644 30.7209 18.2483C30.7321 18.2189 30.7419 18.1888 30.7573 18.1615C30.7678 18.1433 30.7832 18.1286 30.7951 18.1118C30.8119 18.0894 30.8259 18.0663 30.8455 18.0467C30.8616 18.0306 30.8819 18.0187 30.9001 18.0047C30.9211 17.9879 30.9393 17.9697 30.9617 17.9564L37.6901 14.0833C37.7752 14.0342 37.8718 14.0084 37.9701 14.0084C38.0684 14.0084 38.1649 14.0342 38.2501 14.0833L44.9771 17.9564C45.0009 17.9704 45.0191 17.9879 45.0401 18.004C45.0576 18.018 45.0779 18.0306 45.094 18.046C45.1136 18.0663 45.1276 18.0894 45.1444 18.1118C45.157 18.1286 45.1724 18.1433 45.1822 18.1615C45.1983 18.1888 45.2074 18.2189 45.2186 18.2483C45.2249 18.2644 45.234 18.2791 45.2382 18.2959ZM44.1364 25.7985V19.4117L41.7823 20.7669L38.5301 22.6394V29.0262L44.1371 25.7985H44.1364ZM37.4094 37.352V30.961L34.2104 32.788L25.0754 38.0016V44.4528L37.4094 37.352ZM11.6214 15.6044V37.352L23.954 44.4521V38.0023L17.5112 34.356L17.5091 34.3546L17.5063 34.3532C17.4846 34.3406 17.4664 34.3224 17.4461 34.307C17.4286 34.293 17.4083 34.2818 17.3929 34.2664L17.3915 34.2643C17.3733 34.2468 17.3607 34.2251 17.3453 34.2055C17.3313 34.1866 17.3145 34.1705 17.3033 34.1509L17.3026 34.1488C17.29 34.1278 17.2823 34.1026 17.2732 34.0788C17.2641 34.0578 17.2522 34.0382 17.2466 34.0158C17.2396 33.9892 17.2382 33.9605 17.2354 33.9332C17.2326 33.9122 17.227 33.8912 17.227 33.8702V33.8688V18.8321L13.9755 16.9589L11.6214 15.6044ZM17.7884 11.4086L12.1835 14.6349L17.787 17.8612L23.3912 14.6342L17.787 11.4086H17.7884ZM20.7032 31.5434L23.9547 29.6716V15.6044L21.6006 16.9596L18.3484 18.8321V32.8993L20.7032 31.5434ZM37.9701 15.2159L32.3659 18.4422L37.9701 21.6685L43.5736 18.4415L37.9701 15.2159ZM37.4094 22.6394L34.1572 20.7669L31.8031 19.4117V25.7985L35.0546 27.6703L37.4094 29.0262V22.6394ZM24.514 37.0321L32.7341 32.3393L36.8431 29.9943L31.2431 26.7701L24.7954 30.4822L18.9189 33.8653L24.514 37.0321Z" fill="#FF2D20"></path>
  </g>
  <defs>
    <clipPath id="clip0_15300_4506">
      <rect width="35" height="36.4" fill="white" transform="translate(10.5 10.2012)"></rect>
    </clipPath>
  </defs>
</svg>
