<?xml version="1.0" encoding="UTF-8"?>
<svg xmlns="http://www.w3.org/2000/svg" width="56" height="57" viewBox="0 0 56 57" fill="none">
  <g clip-path="url(#clip0_15300_4511)">
    <path d="M34.8225 33.1495C34.5862 30.0319 33.5808 28.011 33.0911 26.8658C32.6017 25.7206 31.8492 24.6487 31.8487 24.6504C31.8473 24.6553 31.1712 28.2986 29.9556 30.9346C29.7527 31.3749 29.4832 31.9245 29.2113 32.3671L29.2114 32.3672C28.3721 33.8488 27.1546 35.2663 26.4287 36.703C25.7091 38.1269 25.5755 39.5372 25.6425 41.1405C25.71 42.7527 26.0824 44.3339 26.4399 45.9012C27.7879 45.6104 28.9612 45.1127 29.976 44.4765C32.647 42.802 34.2609 40.1238 34.7195 37.2384C34.7195 37.2384 34.7419 37.1212 34.7518 36.9783C34.9587 34.7482 34.8903 34.0447 34.8225 33.1495Z" fill="#40B3D8"></path>
    <path d="M34.823 33.149C34.5868 30.0313 33.5813 28.0105 33.0916 26.8652C32.6022 25.7201 31.8497 24.6482 31.8492 24.6499L31.8491 24.6507C31.8491 24.6502 31.8492 24.6496 31.8492 24.6496L31.6696 24.3826C27.7308 18.8534 20.1769 16.0928 13.7947 18.6515C13.4874 22.527 15.2842 29.1954 21.8392 31.0553C24.4892 31.8706 26.6113 31.6592 29.212 32.3664C29.2119 32.3664 29.2118 32.3665 29.2118 32.3666C29.2118 32.3666 31.8553 33.2879 33.3932 34.6695C34.085 35.2908 34.7777 36.1085 34.7429 37.081C34.9621 34.7664 34.8919 34.0583 34.823 33.149Z" fill="#83C933"></path>
    <path fill-rule="evenodd" clip-rule="evenodd" d="M31.9611 21.405C31.0297 18.6802 31.4244 16.8543 33.1283 14.3133C33.9409 13.101 35.3441 11.6947 36.5739 10.9004C41.5355 14.0096 43.3701 19.8008 41.5454 25.1793C40.2174 29.0927 38.9715 30.7336 35.8211 34.7601C36.1883 30.4477 34.6707 27.4582 33.1804 24.1363C32.8013 23.2911 32.2768 22.3289 31.9611 21.405Z" fill="#F18A2A"></path>
    <path d="M34.7433 37.0816C34.7781 36.109 34.0854 35.2914 33.3935 34.6701C31.8556 33.2885 29.2122 32.3672 29.2122 32.3672C29.4842 31.9245 29.7536 31.3749 29.9564 30.9346C31.1721 28.2986 31.8481 24.6553 31.8496 24.6504C31.8501 24.6487 32.6025 25.7207 33.092 26.8658C33.5817 28.0111 34.5872 30.0319 34.8234 33.1495C34.8922 34.0588 34.9624 34.767 34.7433 37.0816Z" fill="#7FB93C"></path>
  </g>
  <defs>
    <clipPath id="clip0_15300_4511">
      <rect width="28.4739" height="35" fill="white" transform="translate(13.7629 10.9014)"></rect>
    </clipPath>
  </defs>
</svg>
