<?xml version="1.0" encoding="UTF-8"?>
<svg xmlns="http://www.w3.org/2000/svg" width="56" height="57" viewBox="0 0 56 57" fill="none">
  <g clip-path="url(#clip0_15300_4523)">
    <path d="M4.22331 24.2715C4.11426 24.2715 4.08699 24.2169 4.14152 24.1351L4.71406 23.399C4.76859 23.3172 4.90491 23.2627 5.01397 23.2627H14.7472C14.8562 23.2627 14.8835 23.3445 14.829 23.4263L14.3655 24.1351C14.3109 24.2169 14.1746 24.2987 14.0928 24.2987L4.22331 24.2715Z" fill="#00ACD7"></path>
    <path d="M0.107102 26.7763C-0.00195312 26.7763 -0.029217 26.7218 0.0253108 26.64L0.597852 25.9039C0.65238 25.8221 0.788699 25.7676 0.897755 25.7676H13.3301C13.4391 25.7676 13.4937 25.8494 13.4664 25.9312L13.2483 26.5855C13.221 26.6945 13.112 26.7491 13.0029 26.7491L0.107102 26.7763Z" fill="#00ACD7"></path>
    <path d="M6.71062 29.2851C6.60156 29.2851 6.5743 29.2033 6.62883 29.1215L7.01052 28.44C7.06505 28.3582 7.1741 28.2764 7.28316 28.2764H12.7359C12.845 28.2764 12.8995 28.3582 12.8995 28.4672L12.845 29.1215C12.845 29.2306 12.7359 29.3124 12.6541 29.3124L6.71062 29.2851Z" fill="#00ACD7"></path>
    <path d="M35.0033 23.7774C33.2857 24.2136 32.1133 24.5408 30.423 24.977C30.014 25.0861 29.9868 25.1134 29.6323 24.7044C29.2234 24.2409 28.9235 23.941 28.3509 23.6684C26.6333 22.8232 24.9702 23.0686 23.4162 24.0773C21.5622 25.2769 20.608 27.0491 20.6352 29.2575C20.6625 31.4386 22.162 33.238 24.3159 33.5379C26.1698 33.7833 27.7239 33.1289 28.9507 31.7385C29.1961 31.4386 29.4142 31.1114 29.6869 30.7297C28.7054 30.7297 27.4785 30.7297 24.4249 30.7297C23.8524 30.7297 23.7161 30.3753 23.9069 29.9118C24.2613 29.0666 24.9157 27.6489 25.2974 26.94C25.3792 26.7764 25.57 26.5038 25.979 26.5038C27.3694 26.5038 32.495 26.5038 35.903 26.5038C35.8485 27.2399 35.8485 27.9761 35.7394 28.7122C35.4395 30.6752 34.7034 32.4746 33.5038 34.0559C31.5408 36.646 28.978 38.2545 25.7336 38.6908C23.0617 39.0452 20.5807 38.5272 18.3996 36.8913C16.3821 35.3646 15.237 33.347 14.9371 30.8388C14.5827 27.867 15.4551 25.1951 17.2545 22.8505C19.1903 20.3149 21.7531 18.7063 24.8884 18.1338C27.4512 17.6703 29.905 17.9702 32.1133 19.4697C33.5583 20.424 34.5943 21.7326 35.2759 23.3139C35.4395 23.5593 35.3305 23.6956 35.0033 23.7774Z" fill="#00ACD7"></path>
    <path d="M44.0242 38.8538C41.5432 38.7993 39.2803 38.0905 37.3718 36.4546C35.7633 35.0642 34.7545 33.292 34.4273 31.1927C33.9366 28.1119 34.7818 25.3855 36.6357 22.959C38.626 20.3417 41.0252 18.9785 44.2696 18.4059C47.0505 17.9152 49.6678 18.1878 52.0398 19.7964C54.1937 21.2686 55.5296 23.2589 55.884 25.8762C56.3475 29.5569 55.2842 32.5559 52.7487 35.1187C50.9493 36.9454 48.7409 38.0905 46.2053 38.6085C45.4692 38.7448 44.7331 38.772 44.0242 38.8538ZM50.513 27.8392C50.4858 27.4848 50.4858 27.2122 50.4312 26.9395C49.9405 24.2404 47.4595 22.7136 44.8694 23.3134C42.3339 23.886 40.698 25.4945 40.0982 28.0573C39.6075 30.1839 40.6435 32.3378 42.6065 33.2102C44.106 33.8646 45.6055 33.7828 47.0505 33.0466C49.2044 31.9288 50.3767 30.1839 50.513 27.8392Z" fill="#00ACD7"></path>
  </g>
  <defs>
    <clipPath id="clip0_15300_4523">
      <rect width="56" height="20.9114" fill="white" transform="translate(0 17.9453)"></rect>
    </clipPath>
  </defs>
</svg>
