<?xml version="1.0" encoding="UTF-8"?>
<svg xmlns="http://www.w3.org/2000/svg" width="56" height="57" viewBox="0 0 56 57" fill="none">
  <path d="M16.0249 39.4429C13.3166 36.573 11.732 32.6083 11.7361 27.8779C11.7323 23.6944 13.0468 20.0985 15.3065 17.3623L15.3028 17.3637H10.5532V39.4433H16.0216L16.0249 39.4429Z" fill="#A90533"></path>
  <path d="M41.0387 39.445C42.2053 38.1955 43.2507 36.7238 44.198 35.0409L38.9409 32.4123C37.0947 35.4139 34.3947 38.1767 30.6611 38.1951C25.2272 38.1767 23.0923 33.5302 23.1041 27.5495H43.4094C43.4366 26.8743 43.4366 26.5604 43.4094 26.2354C43.542 22.6773 42.599 19.6865 40.8836 17.3574L40.8747 17.3641H45.4466V39.4437H41.0287L41.0387 39.445Z" fill="#A90533"></path>
  <path d="M23.4331 22.4239C23.6579 19.7161 25.7928 17.8951 28.2959 17.8896C30.8161 17.8951 32.637 19.7161 32.6987 22.4239H23.4331Z" fill="#A90533"></path>
</svg>
