<?xml version="1.0" encoding="UTF-8"?>
<svg xmlns="http://www.w3.org/2000/svg" width="56" height="57" viewBox="0 0 56 57" fill="none">
  <g clip-path="url(#clip0_15300_4554)">
    <path d="M45.0535 20.44C45.0533 19.7944 44.9152 19.2238 44.6359 18.7341C44.3616 18.2526 43.9508 17.849 43.3998 17.5299C38.8513 14.9073 34.2984 12.2926 29.7514 9.66725C28.5255 8.95955 27.337 8.98535 26.1202 9.70321C24.3098 10.7709 15.2456 15.964 12.5445 17.5285C11.4322 18.1724 10.8909 19.1579 10.8907 20.4388C10.8889 25.7132 10.8907 30.9874 10.8889 36.2619C10.8889 36.8934 11.0214 37.4529 11.2884 37.9352C11.5628 38.4313 11.9793 38.846 12.5431 39.1723C15.2442 40.7368 24.3096 45.9294 26.1197 46.9974C27.337 47.7157 28.5255 47.7413 29.7518 47.0334C34.2989 44.4079 38.8521 41.7934 43.4012 39.1707C43.965 38.8445 44.3815 38.4296 44.656 37.9339C44.9225 37.4516 45.0553 36.8921 45.0553 36.2605C45.0553 36.2605 45.0553 25.7145 45.0535 20.44Z" fill="#A179DC"></path>
    <path d="M28.0243 28.2988L11.2883 37.9351C11.5628 38.4311 11.9793 38.8458 12.5431 39.1721C15.2442 40.7366 24.3096 45.9293 26.1197 46.9973C27.337 47.7155 28.5255 47.7412 29.7518 47.0332C34.2989 44.4077 38.8521 41.7932 43.4012 39.1705C43.9649 38.8444 44.3815 38.4294 44.6559 37.9337L28.0243 28.2988Z" fill="#280068"></path>
    <path d="M45.0528 20.4403C45.0526 19.7946 44.9145 19.224 44.6352 18.7344L28.0237 28.2992L44.6553 37.9341C44.9218 37.4518 45.0543 36.8923 45.0546 36.2607C45.0546 36.2607 45.0546 25.7148 45.0528 20.4403Z" fill="#390091"></path>
    <path d="M37.8778 24.6973V26.4984H39.679V24.6973H40.5795V26.4984H42.3807V27.399H40.5795V29.2002H42.3807V30.1008H40.5795V31.9019H39.679V30.1008H37.8778V31.9019H36.9772V30.1008H35.176V29.2002H36.9772V27.399H35.176V26.4984H36.9772V24.6973H37.8778ZM39.679 27.399H37.8778V29.2002H39.679V27.399Z" fill="white"></path>
    <path d="M28.0613 15.6504C32.7593 15.6504 36.8611 18.2019 39.0581 21.9943L39.0367 21.9578L33.5092 25.1405C32.4201 23.2966 30.4236 22.0522 28.1334 22.0266L28.0613 22.0262C24.5688 22.0262 21.7374 24.8575 21.7374 28.35C21.7374 29.4921 22.0419 30.5627 22.5714 31.4874C23.6615 33.3904 25.7106 34.6739 28.0613 34.6739C30.4265 34.6739 32.4873 33.374 33.5718 31.4507L33.5455 31.4969L39.0647 34.6943C36.8918 38.4546 32.8462 40.9982 28.2028 41.0489L28.0613 41.0497C23.3484 41.0497 19.235 38.4825 17.0435 34.67C15.9737 32.8088 15.3616 30.651 15.3616 28.35C15.3616 21.3363 21.0473 15.6504 28.0613 15.6504Z" fill="white"></path>
  </g>
  <defs>
    <clipPath id="clip0_15300_4554">
      <rect width="34.2222" height="38.5" fill="white" transform="translate(10.8889 9.15137)"></rect>
    </clipPath>
  </defs>
</svg>
