<?xml version="1.0" encoding="UTF-8"?>
<svg xmlns="http://www.w3.org/2000/svg" width="56" height="57" viewBox="0 0 56 57" fill="none">
  <g clip-path="url(#clip0_15300_4574)">
    <path d="M28.0197 9.65137C17.694 9.65137 9.29004 18.0593 9.29004 28.381C9.29004 38.7027 17.698 47.1106 28.0197 47.1106C38.3414 47.1106 46.7493 38.7027 46.7493 28.381C46.7493 18.0593 38.3414 9.65137 28.0197 9.65137ZM27.9919 11.3155C28.3122 11.3238 28.6165 11.4573 28.84 11.6875C29.0636 11.9177 29.1886 12.2264 29.1885 12.5478C29.1885 12.8746 29.0587 13.188 28.8276 13.4191C28.5965 13.6502 28.2831 13.78 27.9563 13.78C27.6294 13.78 27.316 13.6502 27.0849 13.4191C26.8538 13.188 26.724 12.8746 26.724 12.5478C26.7239 12.3829 26.7569 12.2197 26.8211 12.0678C26.8852 11.916 26.9792 11.7785 27.0974 11.6636C27.2157 11.5487 27.3558 11.4587 27.5094 11.3989C27.663 11.3391 27.8271 11.3107 27.9919 11.3155ZM30.8131 13.3442C32.9763 13.7494 35.0254 14.6206 36.8181 15.8974C38.6108 17.1742 40.1041 18.8259 41.1942 20.7378L39.74 24.0185C39.4904 24.5851 39.748 25.2508 40.3106 25.5044L43.108 26.7446C43.1947 27.619 43.2053 28.4993 43.1397 29.3755H41.5825C41.428 29.3755 41.3646 29.4785 41.3646 29.6291V30.3423C41.3646 32.0223 40.4176 32.3908 39.5855 32.4819C38.7931 32.5731 37.9174 32.1491 37.8065 31.6657C37.3389 29.0387 36.5623 28.48 35.334 27.5093C36.8595 26.5425 38.4444 25.1121 38.4444 23.2023C38.4444 21.138 37.0299 19.8383 36.067 19.2004C34.7119 18.3089 33.2142 18.1306 32.81 18.1306H16.7232C18.9477 15.6456 21.9293 13.9633 25.2065 13.3442L27.1044 15.3333C27.5323 15.781 28.2415 15.8008 28.6893 15.3689L30.8131 13.3442ZM13.2999 22.4653C13.6204 22.4746 13.9248 22.6085 14.1482 22.8386C14.3717 23.0687 14.4966 23.3769 14.4965 23.6976C14.4965 24.0244 14.3666 24.3378 14.1355 24.5689C13.9044 24.8 13.591 24.9299 13.2642 24.9299C12.9374 24.9299 12.6239 24.8 12.3928 24.5689C12.1618 24.3378 12.0319 24.0244 12.0319 23.6976C12.0319 23.5327 12.0649 23.3695 12.129 23.2176C12.1932 23.0658 12.2871 22.9283 12.4054 22.8134C12.5236 22.6985 12.6637 22.6085 12.8173 22.5487C12.971 22.4889 13.1351 22.4606 13.2999 22.4653ZM42.68 22.5208C43.0006 22.5301 43.305 22.664 43.5284 22.8941C43.7519 23.1242 43.8768 23.4323 43.8766 23.7531C43.8766 24.0799 43.7468 24.3933 43.5157 24.6244C43.2846 24.8555 42.9712 24.9853 42.6444 24.9853C42.3176 24.9853 42.0041 24.8555 41.773 24.6244C41.5419 24.3933 41.4121 24.0799 41.4121 23.7531C41.412 23.5882 41.4451 23.425 41.5092 23.2731C41.5733 23.1212 41.6673 22.9838 41.7855 22.8689C41.9038 22.754 42.0439 22.664 42.1975 22.6042C42.3512 22.5444 42.5152 22.516 42.68 22.5208ZM15.6217 22.7189H17.7693V32.4027H13.4346C12.8992 30.5228 12.7324 28.5571 12.9432 26.6138L15.598 25.4331C16.1646 25.1795 16.4221 24.5178 16.1685 23.9512L15.6217 22.7189ZM24.5844 22.8219H29.6997C29.9651 22.8219 31.5659 23.127 31.5659 24.3276C31.5659 25.3221 30.3376 25.6787 29.3272 25.6787H24.5804L24.5844 22.8219ZM24.5844 29.7797H28.5031C28.8597 29.7797 30.4168 29.8827 30.9121 31.8717C31.0666 32.4819 31.4114 34.471 31.6451 35.1089C31.8789 35.8221 32.8259 37.2485 33.8363 37.2485H40.2314C39.8028 37.8225 39.3341 38.3654 38.8287 38.8731L36.2255 38.3144C35.6193 38.1836 35.021 38.5719 34.8902 39.1782L34.2721 42.0627C32.2845 42.9631 30.1259 43.4239 27.9438 43.4136C25.7618 43.4034 23.6076 42.9223 21.6285 42.0033L21.0104 39.1187C20.8797 38.5125 20.2853 38.1242 19.6791 38.255L17.1314 38.8017C16.6586 38.3141 16.2191 37.7952 15.8159 37.2485H28.2059C28.3446 37.2485 28.4397 37.2248 28.4397 37.094V32.7117C28.4397 32.5849 28.3446 32.5572 28.2059 32.5572H24.5804L24.5844 29.7797ZM18.8668 39.8161C19.1874 39.8254 19.4918 39.9593 19.7152 40.1894C19.9386 40.4195 20.0636 40.7276 20.0634 41.0483C20.0634 41.3752 19.9336 41.6886 19.7025 41.9197C19.4714 42.1508 19.158 42.2806 18.8312 42.2806C18.5044 42.2806 18.1909 42.1508 17.9598 41.9197C17.7287 41.6886 17.5989 41.3752 17.5989 41.0483C17.5988 40.8835 17.6319 40.7203 17.696 40.5684C17.7601 40.4165 17.8541 40.2791 17.9723 40.1642C18.0906 40.0492 18.2307 39.9592 18.3843 39.8994C18.538 39.8397 18.702 39.8113 18.8668 39.8161ZM37.1131 39.8716C37.4337 39.8808 37.738 40.0147 37.9614 40.2448C38.1849 40.4749 38.3098 40.7831 38.3097 41.1038C38.3097 41.4306 38.1798 41.7441 37.9487 41.9752C37.7176 42.2063 37.4042 42.3361 37.0774 42.3361C36.7506 42.3361 36.4372 42.2063 36.2061 41.9752C35.975 41.7441 35.8451 41.4306 35.8451 41.1038C35.8451 40.9389 35.8781 40.7757 35.9422 40.6239C36.0064 40.472 36.1003 40.3345 36.2186 40.2196C36.3368 40.1047 36.4769 40.0147 36.6305 39.9549C36.7842 39.8951 36.9483 39.8668 37.1131 39.8716Z" fill="black"></path>
    <path fill-rule="evenodd" clip-rule="evenodd" d="M45.7042 28.3809C45.7042 33.0709 43.8411 37.5688 40.5248 40.8851C37.2085 44.2015 32.7106 46.0645 28.0206 46.0645C23.3306 46.0645 18.8327 44.2015 15.5164 40.8851C12.2001 37.5688 10.337 33.0709 10.337 28.3809C10.337 23.691 12.2001 19.1931 15.5164 15.8768C18.8327 12.5605 23.3306 10.6974 28.0206 10.6974C32.7106 10.6974 37.2085 12.5605 40.5248 15.8768C43.8411 19.1931 45.7042 23.691 45.7042 28.3809ZM45.3713 26.6732L48.1291 28.3809L45.3713 30.0887L47.7408 32.3036L44.7057 33.4408L46.5997 36.0757L43.3942 36.5987L44.7414 39.5545L41.4963 39.4396L42.2412 42.6015L39.0793 41.8566L39.1942 45.1017L36.2383 43.7545L35.7153 46.96L33.0804 45.066L31.9432 48.1011L29.7283 45.7317L28.0206 48.4894L26.3129 45.7317L24.098 48.1011L22.9608 45.066L20.3259 46.96L19.8029 43.7545L16.847 45.1017L16.9619 41.8566L13.8 42.6015L14.5449 39.4396L11.2998 39.5545L12.647 36.5987L9.44154 36.0757L11.3355 33.4408L8.30041 32.3036L10.6698 30.0887L7.91211 28.3809L10.6698 26.6732L8.30041 24.4583L11.3355 23.3211L9.44154 20.6862L12.647 20.1632L11.2998 17.2074L14.5449 17.3223L13.8 14.1604L16.9619 14.9053L16.847 11.6602L19.8029 13.0074L20.3259 9.80189L22.9608 11.6959L24.098 8.66076L26.3129 11.0302L28.0206 8.27246L29.7283 11.0302L31.9432 8.66076L33.0804 11.6959L35.7153 9.80189L36.2383 13.0074L39.1942 11.6602L39.0793 14.9053L42.2412 14.1604L41.4963 17.3223L44.7414 17.2074L43.3942 20.1632L46.5997 20.6862L44.7057 23.3211L47.7408 24.4583L45.3713 26.6732Z" fill="black" stroke="black" stroke-width="1.18868" stroke-linecap="round" stroke-linejoin="round"></path>
  </g>
  <defs>
    <clipPath id="clip0_15300_4574">
      <rect width="42" height="42" fill="white" transform="translate(7 7.40137)"></rect>
    </clipPath>
  </defs>
</svg>
