<?xml version="1.0" encoding="UTF-8"?>
<svg xmlns="http://www.w3.org/2000/svg" width="56" height="57" viewBox="0 0 56 57" fill="none">
  <g clip-path="url(#clip0_15558_7373)">
    <path fill-rule="evenodd" clip-rule="evenodd" d="M30.2274 15.3252C30.036 15.3252 29.8582 15.3662 29.694 15.4209C30.0428 15.6534 30.2343 15.9612 30.33 16.3099C30.3369 16.3578 30.3505 16.392 30.3574 16.4399C30.3642 16.4809 30.371 16.5219 30.371 16.563C30.3984 17.1647 30.2137 17.24 30.0838 17.5956C29.8855 18.0538 29.9402 18.5461 30.1796 18.9428C30.2001 18.9906 30.2274 19.0453 30.2616 19.0932C30.0018 17.3631 31.4447 17.1032 31.7114 16.563C31.7319 16.0911 31.3421 15.7765 31.0344 15.5577C30.7403 15.3799 30.4736 15.3252 30.2274 15.3252ZM32.4021 15.715C32.3747 15.8723 32.3952 15.8312 32.3884 15.9133C32.3816 15.968 32.3816 16.0364 32.3747 16.0911C32.3611 16.1458 32.3474 16.2005 32.3269 16.2552C32.3132 16.3099 32.2927 16.3646 32.2722 16.4194C32.2448 16.4741 32.2243 16.5219 32.1969 16.5766C32.1764 16.604 32.1627 16.6313 32.1422 16.6587C32.1286 16.6792 32.1149 16.6997 32.1012 16.7202C32.067 16.7681 32.0328 16.816 31.9986 16.857C31.9576 16.898 31.9234 16.9459 31.8755 16.9801V16.987C31.8345 17.0211 31.7935 17.0622 31.7456 17.0964C31.602 17.2058 31.4379 17.2878 31.2874 17.3904C31.2395 17.4246 31.1917 17.452 31.1506 17.493C31.1028 17.5272 31.0617 17.5614 31.0207 17.6024C30.9728 17.6434 30.9387 17.6845 30.8976 17.7324C30.8634 17.7734 30.8224 17.8213 30.795 17.8691C30.7608 17.917 30.7267 17.9649 30.6993 18.0127C30.6719 18.0674 30.6514 18.1153 30.6241 18.17C30.6036 18.2247 30.583 18.2726 30.5694 18.3273C30.5489 18.3888 30.5352 18.4436 30.5215 18.4983C30.5147 18.5256 30.5147 18.5598 30.5078 18.5872C30.501 18.6145 30.501 18.6419 30.4942 18.6692C30.4942 18.7239 30.4873 18.7855 30.4873 18.8402C30.4873 18.8812 30.4873 18.9222 30.4942 18.9633C30.4942 19.018 30.501 19.0727 30.5147 19.1342C30.5215 19.1889 30.5352 19.2437 30.5489 19.2984C30.5694 19.3531 30.5831 19.4078 30.6036 19.4625C30.6173 19.4967 30.6378 19.5309 30.6515 19.5582L29.0786 18.9496C28.8119 18.8744 28.552 18.806 28.2853 18.7444C28.1417 18.7103 27.9981 18.6761 27.8545 18.6419C27.4442 18.5598 27.0271 18.4983 26.6099 18.4572C26.5962 18.4572 26.5894 18.4504 26.5757 18.4504C26.1654 18.4094 25.7619 18.3888 25.3516 18.3888C25.0507 18.3888 24.7498 18.4025 24.4558 18.423C24.0386 18.4504 23.6215 18.5051 23.2043 18.5735C23.1018 18.5871 22.9992 18.6077 22.8966 18.6282C22.6846 18.6692 22.4795 18.7171 22.2812 18.765C22.1786 18.7923 22.076 18.8197 21.9734 18.847C21.8708 18.888 21.7751 18.9359 21.6794 18.9769C21.6041 19.0111 21.5289 19.0453 21.4537 19.0795C21.44 19.0864 21.4263 19.0864 21.4195 19.0932C21.3511 19.1274 21.2896 19.1547 21.228 19.1889C21.2075 19.1958 21.1938 19.2026 21.1802 19.2094C21.1049 19.2436 21.0297 19.2847 20.9682 19.3189C20.9203 19.3394 20.8724 19.3667 20.8314 19.3872C20.8109 19.4009 20.7835 19.4146 20.7698 19.4214C20.7083 19.4556 20.6468 19.4898 20.592 19.524C20.5305 19.5582 20.4758 19.5924 20.4279 19.6266C20.3801 19.6608 20.3322 19.6881 20.2912 19.7223C20.2843 19.7292 20.2775 19.7292 20.2706 19.736C20.2296 19.7634 20.1817 19.7975 20.1407 19.8317C20.1407 19.8317 20.1339 19.8386 20.127 19.8454C20.0929 19.8728 20.0587 19.9001 20.0245 19.9275C20.0108 19.9343 19.9971 19.948 19.9834 19.9548C19.9492 19.9822 19.9151 20.0164 19.8809 20.0437C19.874 20.0574 19.8603 20.0642 19.8535 20.0711C19.8125 20.1121 19.7714 20.1463 19.7304 20.1873C19.7236 20.1873 19.7236 20.1942 19.7167 20.201C19.6757 20.2352 19.6347 20.2762 19.5936 20.3173C19.5868 20.3241 19.5868 20.3309 19.58 20.3309C19.5458 20.3651 19.5116 20.3993 19.4774 20.4403C19.4637 20.454 19.4432 20.4677 19.4295 20.4814C19.3953 20.5224 19.3543 20.5634 19.3133 20.6045C19.3064 20.6181 19.2928 20.625 19.2859 20.6387C19.2312 20.6934 19.1833 20.7481 19.1286 20.8028C19.1218 20.8096 19.115 20.8165 19.1081 20.8233C18.9987 20.9396 18.8824 21.0558 18.7593 21.1584C18.6363 21.2678 18.5063 21.3704 18.3764 21.4593C18.2396 21.555 18.1097 21.6371 17.9661 21.7191C17.8293 21.7944 17.6857 21.8628 17.5353 21.9243C17.3916 21.9858 17.2412 22.0406 17.0908 22.0884C16.8035 22.15 16.5095 22.2662 16.2565 22.2867C16.2018 22.2867 16.1402 22.3004 16.0855 22.3073C16.024 22.3209 15.9692 22.3346 15.9145 22.3483C15.8598 22.3688 15.8051 22.3893 15.7504 22.4098C15.6957 22.4303 15.641 22.4577 15.5863 22.4851C15.5384 22.5192 15.4837 22.5466 15.4358 22.5808C15.388 22.615 15.3401 22.656 15.2991 22.697C15.2512 22.7312 15.2033 22.7791 15.1623 22.8201C15.1213 22.868 15.0802 22.909 15.0461 22.9569C15.0119 23.0116 14.9708 23.0595 14.9435 23.1142C14.9093 23.1621 14.8751 23.2168 14.8477 23.2715C14.8204 23.333 14.793 23.3877 14.7725 23.4493C14.752 23.504 14.7315 23.5655 14.711 23.6271C14.6973 23.6818 14.6836 23.7365 14.6768 23.7912C14.6768 23.7981 14.6699 23.8049 14.6699 23.8117C14.6563 23.8733 14.6563 23.9553 14.6494 23.9964C14.6426 24.0442 14.6357 24.0853 14.6357 24.1331C14.6357 24.1605 14.6357 24.1947 14.6426 24.222C14.6494 24.2699 14.6563 24.3109 14.67 24.352C14.6836 24.393 14.6973 24.434 14.7178 24.4751V24.4819C14.7383 24.5229 14.7657 24.564 14.793 24.605C14.8204 24.646 14.8478 24.6871 14.8819 24.7281C14.9161 24.7623 14.9572 24.8033 14.9982 24.8375C15.0392 24.8785 15.0803 24.9127 15.1281 24.9469C15.2923 25.0905 15.3333 25.1384 15.5453 25.2478C15.5795 25.2683 15.6137 25.282 15.6547 25.3025C15.6615 25.3025 15.6684 25.3094 15.6752 25.3094C15.6752 25.323 15.6752 25.3299 15.6821 25.3436C15.6889 25.3983 15.7026 25.453 15.7163 25.5077C15.7299 25.5692 15.7505 25.6239 15.771 25.6718C15.7915 25.7128 15.8052 25.7539 15.8257 25.7949C15.8325 25.8086 15.8393 25.8223 15.8462 25.8291C15.8736 25.8838 15.9009 25.9317 15.9282 25.9795C15.9624 26.0274 15.9966 26.0753 16.0308 26.1232C16.065 26.1642 16.106 26.2121 16.1471 26.2531C16.1881 26.2941 16.2291 26.3283 16.277 26.3693C16.277 26.3693 16.2839 26.3762 16.2907 26.3762C16.3317 26.4104 16.3727 26.4446 16.4138 26.4719C16.4616 26.5061 16.5095 26.5335 16.5642 26.5608C16.6121 26.5882 16.6668 26.6155 16.7215 26.6361C16.7625 26.6566 16.8104 26.6702 16.8583 26.6839C16.8651 26.6908 16.8719 26.6908 16.8856 26.6976C16.913 26.7045 16.9472 26.7113 16.9745 26.7181C16.954 27.0874 16.9472 27.4361 17.0019 27.5592C17.0634 27.696 17.3643 27.2789 17.6652 26.8002C17.6242 27.272 17.5968 27.8259 17.6652 27.9901C17.7405 28.161 18.1508 27.6276 18.5064 27.0395C23.3548 25.918 27.7793 29.2689 28.2444 34.0011C28.1555 33.2625 27.2459 32.8522 26.8288 32.9548C26.6236 33.4608 26.2749 34.1105 25.7141 34.514C25.762 34.0626 25.7415 33.5976 25.6457 33.1463C25.4953 33.7754 25.2012 34.3635 24.7978 34.8696C24.1481 34.9174 23.4985 34.6029 23.1565 34.131C23.1292 34.1105 23.1223 34.0695 23.1018 34.0421C23.0813 33.9942 23.0608 33.9464 23.0471 33.8985C23.0266 33.8506 23.0129 33.8028 23.0061 33.7549C22.9992 33.707 22.9992 33.6592 22.9992 33.6045C22.9992 33.5703 22.9992 33.5361 22.9992 33.5019C23.0061 33.454 23.0198 33.4061 23.0334 33.3583C23.0471 33.3104 23.0608 33.2625 23.0813 33.2147C23.1087 33.1668 23.1292 33.1189 23.1634 33.0711C23.2796 32.7428 23.2796 32.4761 23.0676 32.3188C23.0266 32.2915 22.9856 32.271 22.9377 32.2504C22.9103 32.2436 22.8761 32.2299 22.8488 32.2231C22.8283 32.2162 22.8146 32.2094 22.7941 32.2026C22.7462 32.1889 22.6983 32.1752 22.6505 32.1684C22.6026 32.1547 22.5547 32.1479 22.5069 32.1479C22.459 32.141 22.4043 32.1342 22.3564 32.1342C22.3222 32.1342 22.288 32.141 22.2538 32.141C22.1991 32.141 22.1513 32.1479 22.1034 32.1615C22.0555 32.1684 22.0077 32.1752 21.9598 32.1889C21.9119 32.2026 21.864 32.2163 21.8162 32.2368C21.7683 32.2573 21.7273 32.2778 21.6794 32.2983C21.6384 32.3188 21.5973 32.3462 21.5495 32.3667C19.9561 33.4062 20.9067 35.8407 21.994 36.545C21.5837 36.6202 21.1665 36.7091 21.0503 36.798C21.0434 36.8049 21.0366 36.8117 21.0366 36.8117C21.3307 36.9895 21.6384 37.14 21.9598 37.2699C22.3975 37.4135 22.8625 37.5434 23.0676 37.5981V37.605C23.6352 37.7212 24.2097 37.7623 24.7909 37.7281C27.8204 37.5161 30.3027 35.2115 30.7541 32.1752C30.7678 32.2368 30.7815 32.2915 30.7951 32.353C30.8156 32.4761 30.843 32.6061 30.8567 32.736V32.7428C30.8703 32.8044 30.8772 32.8659 30.884 32.9206V32.948C30.8909 33.0096 30.8977 33.0711 30.8977 33.1258C30.9045 33.201 30.9114 33.2763 30.9114 33.3515V33.4609C30.9114 33.4951 30.9182 33.5361 30.9182 33.5703C30.9182 33.6113 30.9114 33.6524 30.9114 33.6934V33.7891C30.9114 33.837 30.9045 33.878 30.9045 33.9259C30.9045 33.9533 30.9045 33.9806 30.8977 34.0148C30.8977 34.0627 30.8908 34.1105 30.8908 34.1653C30.884 34.1858 30.884 34.2063 30.884 34.2268C30.8771 34.2815 30.8703 34.3294 30.8634 34.3841C30.8634 34.4046 30.8634 34.4251 30.8566 34.4456C30.8497 34.514 30.8361 34.5756 30.8292 34.644V34.6508V34.6577C30.8156 34.7192 30.8019 34.7876 30.7882 34.8491V34.8696C30.7745 34.9312 30.7608 34.9927 30.7472 35.0543C30.7472 35.0611 30.7403 35.0748 30.7403 35.0816C30.7266 35.1432 30.7129 35.2047 30.6924 35.2663V35.2868C30.6719 35.3552 30.6514 35.4167 30.6377 35.4783C30.6309 35.4851 30.6309 35.4919 30.6309 35.4919C30.6104 35.5603 30.5899 35.6287 30.5693 35.6971C30.542 35.7655 30.5215 35.827 30.4941 35.8954C30.4668 35.9638 30.4463 36.0322 30.4189 36.0937C30.3915 36.1621 30.3642 36.2237 30.3368 36.2921H30.33C30.3026 36.3536 30.2753 36.422 30.2411 36.4835C30.2342 36.504 30.2274 36.5177 30.2206 36.5314C30.2137 36.5383 30.2137 36.5451 30.2069 36.5519C29.7624 37.4478 29.1059 38.2342 28.2853 38.8496C28.2306 38.8838 28.1759 38.9249 28.1212 38.9659C28.1075 38.9796 28.087 38.9864 28.0733 39.0001C28.0254 39.0343 27.9776 39.0685 27.9228 39.1027L27.9434 39.1437H27.9502C28.0459 39.13 28.1417 39.1163 28.2374 39.1027H28.2443C28.4221 39.0753 28.5999 39.0411 28.7777 39.0069C28.8255 39.0001 28.8803 38.9864 28.9281 38.9727C28.9623 38.9659 28.9897 38.9591 29.0239 38.9522C29.0717 38.9454 29.1196 38.9317 29.1675 38.9249C29.2085 38.9112 29.2495 38.9043 29.2906 38.8907C29.9744 38.7265 30.6377 38.5009 31.2737 38.2342C30.1864 39.7181 28.7298 40.9149 27.027 41.7013C27.8134 41.6466 28.5999 41.5166 29.3589 41.2978C32.1149 40.484 34.4331 38.6308 35.8213 36.1348C35.5409 37.7144 34.9118 39.2189 33.9818 40.5319C34.6451 40.0942 35.2537 39.5882 35.8076 39.0138C37.3395 37.4135 38.3447 35.3825 38.6866 33.201C38.9191 34.2815 38.9875 35.3962 38.8849 36.4972C43.8223 29.6108 39.2953 22.4715 37.401 20.5909C37.3941 20.5772 37.3873 20.5704 37.3873 20.5567C37.3805 20.5635 37.3805 20.5635 37.3805 20.5704C37.3805 20.5635 37.3805 20.5635 37.3736 20.5567C37.3736 20.6388 37.3668 20.7208 37.36 20.8029C37.3394 20.9602 37.3189 21.1106 37.2916 21.2611C37.2574 21.4115 37.2164 21.5619 37.1753 21.7124C37.1275 21.856 37.0727 22.0064 37.0112 22.1501C36.9497 22.2868 36.8813 22.4304 36.806 22.5672C36.7308 22.6971 36.6488 22.8339 36.5599 22.957C36.471 23.0869 36.3752 23.21 36.2795 23.3263C36.1769 23.4494 36.0675 23.5588 35.9581 23.6682C35.8897 23.7297 35.8281 23.7845 35.7598 23.8392C35.705 23.887 35.6572 23.9281 35.6025 23.9759C35.4794 24.0717 35.3563 24.1606 35.2195 24.2426C35.0896 24.3247 34.9528 24.4068 34.816 24.4751C34.6724 24.5435 34.5288 24.6051 34.3852 24.6666C34.2416 24.7213 34.0912 24.7692 33.9407 24.8102C33.7903 24.8513 33.633 24.8855 33.4825 24.9128C33.3253 24.9402 33.168 24.9538 33.0175 24.9675C32.9081 24.9744 32.7987 24.9812 32.6893 24.9812C32.532 24.9812 32.3747 24.9675 32.2243 24.9538C32.067 24.9402 31.9097 24.9196 31.7592 24.8854C31.602 24.8581 31.4515 24.817 31.3011 24.7692H31.2942C31.4447 24.7555 31.5951 24.7418 31.7456 24.7145C31.9028 24.6871 32.0533 24.6529 32.2037 24.6119C32.3542 24.5709 32.5046 24.523 32.6482 24.4683C32.7987 24.4136 32.9423 24.3452 33.0791 24.2768C33.2227 24.2084 33.3526 24.1332 33.4894 24.0511C33.6193 23.9622 33.7492 23.8733 33.8723 23.7776C33.9954 23.6819 34.1117 23.5793 34.2211 23.4699C34.3373 23.3673 34.4399 23.251 34.5425 23.1348C34.6451 23.0117 34.7408 22.8886 34.8297 22.7655C34.8434 22.745 34.8571 22.7176 34.8707 22.6971C34.9391 22.5877 35.0075 22.4783 35.0691 22.3689C35.1443 22.2321 35.2127 22.0953 35.2742 21.9517C35.3358 21.8081 35.3905 21.6645 35.4383 21.5141C35.4862 21.3704 35.5204 21.22 35.5546 21.0696C35.582 20.9123 35.6093 20.7618 35.623 20.6114C35.6366 20.4541 35.6503 20.2968 35.6503 20.1464C35.6503 20.0369 35.6435 19.9275 35.6367 19.8181C35.623 19.6608 35.6025 19.5104 35.582 19.3599C35.5546 19.2027 35.5204 19.0522 35.4794 18.9018C35.4315 18.7582 35.3837 18.6077 35.3289 18.4641C35.2742 18.3205 35.2059 18.1769 35.1375 18.0401C35.0622 17.9033 34.987 17.7666 34.905 17.6366C34.8161 17.5067 34.7272 17.3836 34.6314 17.2605C34.5288 17.1443 34.4263 17.028 34.3168 16.9118C34.2621 16.8571 34.2006 16.7955 34.139 16.7408C33.8313 16.5015 33.5099 16.2758 33.1885 16.0706C33.1406 16.0433 33.0996 16.0228 33.0517 16.0022C32.8261 15.8586 32.6141 15.7834 32.4021 15.715Z" fill="#E0234E"></path>
  </g>
  <defs>
    <clipPath id="clip0_15558_7373">
      <rect width="28" height="27.048" fill="white" transform="translate(14 14.877)"></rect>
    </clipPath>
  </defs>
</svg>
