<?xml version="1.0" encoding="UTF-8"?>
<svg xmlns="http://www.w3.org/2000/svg" width="56" height="57" viewBox="0 0 56 57" fill="none">
  <g clip-path="url(#clip0_15300_4584)">
    <path fill-rule="evenodd" clip-rule="evenodd" d="M27.9684 40.3184C16.4171 40.3184 7.05273 34.0469 7.05273 26.3106C7.05273 18.5743 16.4171 12.3027 27.9684 12.3027C39.5199 12.3027 48.8842 18.5743 48.8842 26.3106C48.8842 34.0469 39.5199 40.3184 27.9684 40.3184ZM31.17 17.7793C22.3899 17.7793 15.2722 22.0668 15.2722 27.3557C15.2722 32.6445 22.3899 36.932 31.17 36.932C39.95 36.932 46.4295 34.0008 46.4295 27.3557C46.4295 20.7127 39.95 17.7793 31.17 17.7793Z" fill="url(#paint0_linear_15300_4584)"></path>
    <path fill-rule="evenodd" clip-rule="evenodd" d="M38.9059 33.999C38.9059 33.999 40.1718 34.3811 40.9073 34.7532C41.1625 34.8823 41.604 35.14 41.9225 35.4783C42.2345 35.8097 42.3866 36.1455 42.3866 36.1455L47.3755 44.5571L39.312 44.5607L35.5413 37.4797C35.5413 37.4797 34.7691 36.1531 34.294 35.7684C33.8977 35.4475 33.7287 35.3333 33.3368 35.3333C33.0641 35.3333 31.421 35.3333 31.421 35.3333L31.4225 44.5556L24.2871 44.5586V21.001H38.6158C38.6158 21.001 45.1421 21.1187 45.1421 27.3278C45.1421 33.5369 38.9059 33.999 38.9059 33.999ZM35.8023 26.1109L31.4826 26.1082L31.4805 30.1138L35.8023 30.1124C35.8023 30.1124 37.8037 30.1062 37.8037 28.0748C37.8037 26.0025 35.8023 26.1109 35.8023 26.1109Z" fill="black"></path>
  </g>
  <defs>
    <linearGradient id="paint0_linear_15300_4584" x1="7.05273" y1="12.3027" x2="32.9587" y2="50.9841" gradientUnits="userSpaceOnUse">
      <stop stop-color="#CBCED0"></stop>
      <stop offset="1" stop-color="#84838B"></stop>
    </linearGradient>
    <clipPath id="clip0_15300_4584">
      <rect width="42" height="32.5442" fill="white" transform="translate(7 12.1289)"></rect>
    </clipPath>
  </defs>
</svg>
