<?xml version="1.0" encoding="UTF-8"?>
<svg xmlns="http://www.w3.org/2000/svg" width="64" height="65" viewBox="0 0 64 65" fill="none">
  <g clip-path="url(#clip0_15558_7356)">
    <path d="M52 43.4027C50.545 43.7726 49.645 43.4189 48.8377 42.2066L43.0951 34.2617L42.265 33.1616L35.5588 42.233C34.7926 43.3244 33.9889 43.799 32.5588 43.4129L41.1463 31.8854L33.1513 21.4727C34.5262 21.2053 35.4763 21.3412 36.3199 22.5728L42.2761 30.6167L48.2761 22.6166C49.0447 21.5252 49.8712 21.1105 51.2512 21.5126L48.1513 25.6226L43.9513 31.0913C43.4512 31.7162 43.5199 32.144 43.9801 32.7473L52 43.4027ZM12.0102 31.6928L12.7125 28.2377C14.625 21.4001 22.4625 18.5587 27.8676 22.7837C31.0263 25.2686 31.8114 28.7837 31.6551 32.7212H13.8501C13.5828 39.8087 18.684 44.0861 25.1874 41.9039C27.4686 41.1377 28.8123 39.3512 29.4849 37.1165C29.8263 35.9966 30.3909 35.8214 31.4436 36.1415C30.9063 38.9366 29.6937 41.2715 27.1311 42.7328C23.3025 44.9201 17.8371 44.2127 14.9625 41.1728C13.2498 39.4088 12.5424 37.1741 12.225 34.784C12.1749 34.3889 12.075 34.0127 12 33.6341C12.0066 32.9873 12.0102 32.3408 12.0102 31.694V31.6928ZM13.8825 31.2179H29.9724C29.8674 26.093 26.6763 22.4528 22.3149 22.4219C17.5275 22.3844 14.0898 25.9379 13.8822 31.2179H13.8825Z" fill="black"></path>
  </g>
  <defs>
    <clipPath id="clip0_15558_7356">
      <rect width="40" height="23.2066" fill="white" transform="translate(12 20.7979)"></rect>
    </clipPath>
  </defs>
</svg>
