<?xml version="1.0" encoding="UTF-8"?>
<svg xmlns="http://www.w3.org/2000/svg" width="64" height="65" viewBox="0 0 64 65" fill="none">
  <g clip-path="url(#clip0_15300_3821)">
    <path d="M51.0522 43.4012C51.359 42.8698 51.5496 42.2711 51.5496 41.7334V23.0691C51.5496 22.5314 51.3592 21.9328 51.0523 21.4014L31.9998 32.4013L51.0522 43.4012Z" fill="#00599C"></path>
    <path d="M33.6928 53.998L49.8565 44.6659C50.3222 44.3971 50.7454 43.9329 51.0521 43.4013L31.9997 32.4014L12.9473 43.4014C13.2541 43.9329 13.6774 44.3972 14.1429 44.6659L30.3067 53.998C31.2378 54.5357 32.7616 54.5357 33.6928 53.998Z" fill="#004482"></path>
    <path d="M51.0536 21.4013C50.7467 20.8698 50.3234 20.4055 49.8579 20.1367L33.6941 10.8046C32.763 10.2669 31.2391 10.2669 30.308 10.8046L14.1442 20.1367C13.213 20.6743 12.4512 21.9939 12.4512 23.0692V41.7334C12.4512 42.2711 12.6417 42.8699 12.9486 43.4013L32.001 32.4014L51.0536 21.4013Z" fill="#659AD2"></path>
    <path d="M32.0008 45.4347C24.8142 45.4347 18.9675 39.588 18.9675 32.4014C18.9675 25.2149 24.8142 19.3682 32.0008 19.3682C36.6381 19.3682 40.9629 21.8636 43.2874 25.8807L37.647 29.1446C36.4836 27.1339 34.3199 25.8848 32.0008 25.8848C28.4074 25.8848 25.4842 28.8081 25.4842 32.4014C25.4842 35.9946 28.4074 38.918 32.0008 38.918C34.3202 38.918 36.4838 37.6689 37.6474 35.6578L43.2878 38.9216C40.9633 42.9391 36.6383 45.4347 32.0008 45.4347Z" fill="white"></path>
    <path d="M45.0346 31.6776H43.5864V30.2295H42.1384V31.6776H40.6902V33.1257H42.1384V34.5739H43.5864V33.1257H45.0346V31.6776Z" fill="white"></path>
    <path d="M50.4643 31.6776H49.0161V30.2295H47.5681V31.6776H46.1199V33.1257H47.5681V34.5739H49.0161V33.1257H50.4643V31.6776Z" fill="white"></path>
  </g>
  <defs>
    <clipPath id="clip0_15300_3821">
      <rect width="39.0998" height="44" fill="white" transform="translate(12.4502 10.4014)"></rect>
    </clipPath>
  </defs>
</svg>
