<?xml version="1.0" encoding="UTF-8"?>
<svg xmlns="http://www.w3.org/2000/svg" width="64" height="65" viewBox="0 0 64 65" fill="none">
  <g clip-path="url(#clip0_15558_7378)">
    <path d="M32.0809 15.803C30.7194 15.8093 29.4193 15.9254 28.2752 16.1279C24.9051 16.7233 24.2932 17.9695 24.2932 20.2677V23.3029H32.2573V24.3147H24.2932H21.3044C18.9898 24.3147 16.9631 25.7059 16.3292 28.3524C15.598 31.3859 15.5655 33.2789 16.3292 36.4464C16.8953 38.8041 18.2473 40.4841 20.5618 40.4841H23.3V36.8455C23.3 34.2168 25.5744 31.8981 28.2752 31.8981H36.23C38.4443 31.8981 40.212 30.0749 40.212 27.8511V20.2677C40.212 18.1094 38.3912 16.4881 36.23 16.1279C34.8619 15.9001 33.4424 15.7967 32.0809 15.803ZM27.774 18.2442C28.5966 18.2442 29.2684 18.927 29.2684 19.7665C29.2684 20.603 28.5966 21.2794 27.774 21.2794C26.9484 21.2794 26.2796 20.603 26.2796 19.7665C26.2796 18.927 26.9484 18.2442 27.774 18.2442Z" fill="url(#paint0_linear_15558_7378)"></path>
    <path d="M41.2052 24.3145V27.8509C41.2052 30.5927 38.8807 32.9004 36.23 32.9004H28.2752C26.0963 32.9004 24.2932 34.7653 24.2932 36.9474V44.5308C24.2932 46.6891 26.17 47.9586 28.2752 48.5778C30.7962 49.3191 33.2137 49.453 36.23 48.5778C38.2349 47.9973 40.212 46.829 40.212 44.5308V41.4956H32.2572V40.4838H40.212H44.194C46.5086 40.4838 47.3711 38.8694 48.176 36.4461C49.0075 33.9514 48.9721 31.5524 48.176 28.3522C47.604 26.048 46.5115 24.3145 44.194 24.3145H41.2052ZM36.7312 43.5191C37.5568 43.5191 38.2256 44.1955 38.2256 45.0321C38.2256 45.8716 37.5568 46.5543 36.7312 46.5543C35.9086 46.5543 35.2368 45.8716 35.2368 45.0321C35.2368 44.1955 35.9086 43.5191 36.7312 43.5191Z" fill="url(#paint1_linear_15558_7378)"></path>
  </g>
  <defs>
    <linearGradient id="paint0_linear_15558_7378" x1="15.7686" y1="15.8027" x2="34.1327" y2="31.4516" gradientUnits="userSpaceOnUse">
      <stop stop-color="#5A9FD4"></stop>
      <stop offset="1" stop-color="#306998"></stop>
    </linearGradient>
    <linearGradient id="paint1_linear_15558_7378" x1="36.5398" y1="44.7769" x2="29.9514" y2="35.5446" gradientUnits="userSpaceOnUse">
      <stop stop-color="#FFD43B"></stop>
      <stop offset="1" stop-color="#FFE873"></stop>
    </linearGradient>
    <clipPath id="clip0_15558_7378">
      <rect width="34" height="34" fill="white" transform="translate(15 15.4014)"></rect>
    </clipPath>
  </defs>
</svg>
