<?xml version="1.0" encoding="UTF-8"?>
<svg xmlns="http://www.w3.org/2000/svg" width="64" height="65" viewBox="0 0 64 65" fill="none">
  <g clip-path="url(#clip0_15300_4469)">
    <path d="M30.7014 16.4014H35.9306V40.3687C33.2521 40.8754 31.2802 41.0747 29.1468 41.0747C22.7599 41.068 19.4353 38.2147 19.4353 32.7347C19.4353 27.4547 22.9618 24.028 28.4266 24.028C29.2746 24.028 29.9207 24.0948 30.7014 24.2947V16.4014ZM30.8846 28.6139C30.2721 28.4138 29.7675 28.3472 29.1213 28.3472C26.4765 28.3472 24.9488 29.9605 24.9488 32.7878C24.9488 35.5405 26.4093 37.0605 29.0878 37.0605C29.6665 37.0605 30.1376 37.0279 30.8846 36.9279V28.6139Z" fill="#2BA977"></path>
    <path d="M44.4827 24.6715V36.6716C44.4827 40.8042 44.1731 42.7915 43.2646 44.5049C42.4165 46.1522 41.2994 47.1909 38.991 48.3382L34.1387 46.0516C36.4471 44.9788 37.5642 44.0309 38.2777 42.5843C39.0246 41.1049 39.2601 39.3915 39.2601 34.8849V24.6716L44.4827 24.6715ZM38.7332 16.4014H43.9624V21.7147H38.7332V16.4014Z" fill="#2BA977"></path>
  </g>
  <defs>
    <clipPath id="clip0_15300_4469">
      <rect width="25.1264" height="32" fill="white" transform="translate(19.4368 16.4014)"></rect>
    </clipPath>
  </defs>
</svg>
