<?xml version="1.0" encoding="UTF-8"?>
<svg xmlns="http://www.w3.org/2000/svg" width="56" height="57" viewBox="0 0 56 57" fill="none">
  <path d="M22.3672 38.1539C21.3006 37.3149 20.1627 36.5105 19.3852 35.3779C17.7492 33.3804 16.4895 31.0678 15.6283 28.6376C15.1078 27.0573 14.9295 25.3631 14.2585 23.8439C13.5566 22.7405 14.3788 21.5343 15.5875 21.1836C16.1256 21.0803 17.0717 20.5727 15.9296 20.9355C14.9057 21.6868 14.8066 20.2536 15.8565 20.1628C16.5731 20.0676 16.8369 19.481 16.5918 18.9529C15.8227 18.4513 18.457 17.9 17.1315 17.1516C15.7507 15.6618 19.063 15.3751 18.2458 17.067C18.0502 18.368 20.5603 16.8285 19.9779 18.3309C20.5698 19.0524 22.1946 18.4951 22.1543 19.5073C23.0166 19.5666 23.3125 20.2921 24.122 20.3478C24.9609 20.7267 26.4818 21.0252 26.7673 21.9706C25.935 22.6296 24.0076 20.6095 23.915 22.4335C24.1664 25.1281 24.1024 27.9039 25.0882 30.4699C25.5545 32.0236 26.685 33.2467 27.7059 34.4568C28.6827 35.642 30.0058 36.4763 31.3544 37.1788C32.5374 37.7368 33.8128 38.1068 35.1021 38.339C35.625 37.939 36.5483 36.452 37.364 37.079C37.4027 37.7836 35.7449 38.5519 37.286 38.474C38.191 38.201 38.8186 39.1738 39.5639 38.2963C40.2504 39.1096 42.4175 37.7767 41.929 39.439C41.2684 39.8652 40.305 39.6077 39.6434 40.1939C38.5525 39.6491 37.684 40.6815 36.4763 40.5509C35.1351 40.7911 33.7707 40.8881 32.4109 40.8902C30.1802 40.7139 27.9022 40.6397 25.7801 39.863C24.5846 39.5156 23.4179 38.8349 22.3672 38.1539ZM24.2512 38.9702C25.4186 39.475 26.56 40.007 27.8393 40.1675C29.869 40.4498 31.965 40.884 34.002 40.488C33.0801 40.0717 32.127 40.6501 31.2086 40.1903C30.107 40.4273 28.925 40.1299 27.8051 39.9835C26.5317 39.4162 25.1574 39.0262 23.9649 38.2899C22.4748 37.7456 24.7355 38.9879 25.138 39.0885C26.0695 39.6172 24.1136 38.8175 23.8379 38.5977C23.0577 38.16 22.9582 38.2515 23.7606 38.6959C23.9222 38.7905 24.0819 38.8896 24.2512 38.9702ZM22.03 37.4004C23.1612 37.8194 22.025 36.6049 21.5066 36.6755C21.277 36.2771 20.6292 36.0254 21.0861 35.8113C20.2642 36.0967 20.2251 34.7262 19.8388 34.922C18.9692 34.6474 19.5003 33.6748 18.4645 33.0775C18.37 32.4481 17.4354 31.9022 17.1374 30.9528C17.0057 30.4668 16.0815 29.0709 16.6492 30.37C17.1326 31.6205 17.9831 32.6914 18.6909 33.7611C19.2405 34.7796 19.8894 35.844 20.8903 36.4794C21.2277 36.803 21.5535 37.2989 22.03 37.4004ZM18.7712 33.8226C18.8107 33.6517 18.9781 34.1923 18.7712 33.8226V33.8226ZM23.3847 37.9027C23.0245 37.7614 23.6352 37.7905 23.3847 37.9027V37.9027ZM23.9987 38.1267C23.7184 38.2996 23.9351 37.8174 23.9987 38.1267V38.1267ZM24.7674 38.4473C24.2034 38.2276 25.1333 38.0989 24.7674 38.4473V38.4473ZM26.0847 39.1815C25.3731 39.0575 26.3071 38.8528 26.0847 39.1815V39.1815ZM23.555 37.4181C22.8209 37.413 24.1234 37.0504 23.555 37.4181V37.4181ZM24.1316 37.7056C23.9261 37.7926 24.1155 37.5112 24.1316 37.7056V37.7056ZM27.0135 39.5043C27.4768 39.7967 29.7188 40.1451 28.3149 39.6242C28.08 39.6737 25.7116 38.9543 27.0135 39.5043ZM22.4384 35.9411C21.7193 35.7259 22.3934 35.7462 22.4384 35.9411V35.9411ZM23.7801 36.723C23.0554 36.5352 24.1292 36.4795 23.7801 36.723V36.723ZM24.9085 37.415C24.0957 37.2252 25.4096 37.2261 24.9085 37.415V37.415ZM21.8925 35.3466C22.4361 35.7635 24.0849 35.4 22.7251 35.0977C22.1061 34.7678 20.7112 34.542 21.662 35.2966L21.8925 35.3466ZM25.6729 37.6539C24.7233 37.4336 25.8993 37.2681 25.6729 37.6539V37.6539ZM24.5241 36.7409C25.8534 37.1169 23.4063 35.9003 24.1962 36.6025L24.3712 36.6818L24.5241 36.7409ZM26.8272 38.072C25.6901 37.8985 28.0861 38.0841 26.8272 38.072V38.072ZM21.4081 34.6182C21.0975 34.6379 21.359 34.3837 21.4081 34.6182V34.6182ZM28.9568 39.2666C28.5459 39.5817 28.9904 38.8431 28.9568 39.2666V39.2666ZM23.5565 35.9339C23.1632 35.9247 23.4804 35.7108 23.5565 35.9339V35.9339ZM21.5275 34.4711C20.538 34.1526 22.2503 34.4277 21.5275 34.4711V34.4711ZM19.1239 32.9174C18.3375 32.2946 19.034 32.5709 19.1239 32.9174V32.9174ZM25.434 36.922C25.3016 36.771 25.3717 36.955 25.434 36.922V36.922ZM29.3616 39.3322C29.1476 39.4195 29.349 39.1015 29.3616 39.3322V39.3322ZM25.0864 36.563C24.4701 36.473 25.1571 36.2658 25.0864 36.563V36.563ZM22.1604 34.7086C21.299 34.3452 22.6981 34.6511 22.1604 34.7086V34.7086ZM27.11 37.7842C26.2933 37.6221 27.9479 37.4522 27.11 37.7842V37.7842ZM24.5354 36.0365C25.5011 36.161 23.3864 35.3797 24.3235 35.9666L24.5354 36.0365ZM27.8916 38.1002C28.7931 37.5612 28.4959 39.3623 29.4211 38.2523C30.3338 37.5859 28.633 39.0762 29.7578 38.3711C30.5713 37.8271 31.7728 38.629 32.5318 38.8907C33.0777 38.8639 33.6083 39.3627 34.1679 39.0592C35.2451 38.7691 32.0614 38.6289 32.896 38.1141C31.9103 38.401 31.1821 37.7722 30.6971 37.1408C29.5915 36.8855 28.3131 36.3203 27.7614 35.3418C27.5364 34.9745 28.0864 35.3936 27.5672 34.7931C26.9009 34.2005 26.5683 33.5279 26.121 32.8076C25.5868 32.5226 25.5245 31.6836 25.4705 32.7795C25.4747 32.0879 24.8254 31.6224 24.667 31.8159C24.6641 31.1498 25.3618 31.4837 24.8734 30.9909C24.7683 30.3005 24.4221 29.5812 24.3181 28.8018C24.1565 28.426 24.2953 27.6214 23.7664 28.4719C23.5737 29.3708 23.7024 27.3673 24.0021 28.028C24.3955 27.3538 23.8609 27.4331 23.839 27.5267C24.0952 26.9579 24.0012 26.1511 23.7721 26.4589C23.9087 25.856 23.9878 24.2401 23.5678 24.5265C23.8224 23.8961 24.0507 21.6418 22.9453 22.5013C22.4974 22.5076 21.7216 22.6639 21.3549 22.8463C22.5047 23.48 21.2393 23.0751 20.7712 22.9744C20.7102 23.5608 20.2467 23.3072 19.6675 23.313C20.5926 23.4274 19.2171 24.259 18.6864 23.936C17.9972 24.2654 19.2812 25.0876 18.7002 25.3418C18.7716 25.7251 17.6444 25.2034 17.7329 26.0885C17.0639 25.807 17.6408 27.1384 17.9755 26.6881C19.1135 26.9961 18.7766 27.6983 18.8056 28.3652C18.6202 28.7539 17.8902 27.4517 18.643 27.512C18.0491 26.5472 17.9861 27.1633 17.4925 27.6115C17.3777 27.644 18.7514 28.2492 17.8893 28.5484C18.6478 28.6655 18.6694 29.3292 18.8238 29.7491C19.2796 30.2239 19.1863 29.2249 19.7318 29.7955C19.3866 29.2871 17.9035 28.3632 19.0976 28.6595C19.0912 28.1479 18.8816 27.7353 19.2475 27.7453C19.6098 27.0892 18.868 29.363 19.6847 28.5292C19.9107 28.4304 19.9667 27.8722 20.373 28.5819C20.9632 29.1624 20.5862 29.5831 19.7537 29.0515C19.9026 29.5568 20.8674 29.7374 20.6861 30.5275C20.8783 31.2224 21.1471 30.9665 21.3815 30.9263C21.5654 31.6015 21.6698 31.105 21.6785 30.7837C22.5204 30.9639 22.3232 31.4615 22.5866 31.8092C23.1667 32.071 21.7563 30.0343 22.7522 31.1968C23.8 32.1428 23.1451 32.5377 22.2048 32.3862C22.8 32.3381 22.9919 33.1907 23.7363 33.1608C24.4152 33.4837 24.8748 34.7241 23.7047 34.2078C23.2988 33.8418 21.8626 33.3904 23.0357 34.0864C24.1191 34.5882 24.9796 34.8883 26.0245 35.5181C26.7723 36.0519 27.0954 36.6634 27.3788 36.7844C26.7503 37.0846 25.4847 36.5447 26.4245 36.3792C25.8383 36.2725 25.1791 35.976 25.7405 36.7064C26.2179 37.1049 27.4319 37.0627 27.6495 37.1079C27.465 37.5143 27.1484 37.5467 27.657 37.5782C27.0896 37.8806 27.839 37.9274 27.8916 38.1002ZM26.7313 34.8235C26.3861 34.4625 26.2968 33.7863 26.67 34.3747C26.8613 34.4515 27.283 35.4797 26.7313 34.8235ZM30.5099 37.2238C30.5162 37.3874 30.7253 37.2099 30.5099 37.2238V37.2238ZM26.1862 33.9383C26.173 33.3925 26.3111 34.3593 26.1862 33.9383V33.9383ZM25.8106 33.433C25.3764 32.594 26.3581 33.6706 25.8106 33.433V33.433ZM21.2596 30.2919C21.3851 30.7282 21.5147 30.2239 21.2596 30.2919V30.2919ZM24.8816 32.2552C25.0383 31.6668 25.0657 32.7488 24.8816 32.2552V32.2552ZM22.3228 30.4759C22.1424 30.1512 22.7001 30.7803 22.3228 30.4759V30.4759ZM24.5188 31.1799C24.1074 30.2582 24.8101 30.6764 24.6098 31.3309L24.5188 31.1799ZM20.7317 28.6542C20.5478 28.3518 20.2435 27.4646 20.3415 27.1938C20.4301 27.6349 21.2795 29.0921 20.7581 27.7974C20.182 26.7122 21.4468 28.1497 21.5769 28.4204C21.6375 28.6896 21.2215 28.3468 21.5034 28.9782C20.9893 28.2593 21.1999 29.3753 20.7317 28.6542ZM19.5612 27.8477C19.6094 27.1447 19.8292 28.3298 19.5612 27.8477V27.8477ZM20.0877 28.0289C20.339 27.4983 20.5137 28.7687 20.0877 28.0289V28.0289ZM18.8213 27.0492C18.3855 26.6162 18.0702 26.2171 18.8417 26.7805C19.1389 26.7921 18.1812 25.8728 18.9133 26.4886C19.683 26.6289 19.2934 27.7507 18.8213 27.0492ZM19.4865 27.0319C19.6209 27.2787 19.7396 26.7811 19.4865 27.0319V27.0319ZM19.8959 27.1631C19.5122 26.444 20.3615 27.4646 19.8959 27.1631V27.1631ZM19.0821 26.3854C17.8153 25.2581 20.6739 26.9749 19.2891 26.5944L19.0821 26.3854ZM22.7116 28.4943C22.1635 28.1656 22.5664 26.1803 22.7533 27.5381C23.2862 27.3657 22.7239 28.2393 23.1214 28.2312C23.0587 28.7824 22.8809 28.9806 22.7116 28.4943ZM24.0541 29.2877C24.1079 28.6894 24.1673 29.6967 24.0541 29.2877V29.2877ZM23.8209 29.0573C23.8272 29.3583 23.8813 28.8017 23.8209 29.0573V29.0573ZM19.3306 26.015C18.5168 24.8922 21.6958 27.1508 19.8519 26.2998C19.6592 26.2494 19.4274 26.2314 19.3306 26.015ZM21.9158 27.3856C21.8388 26.4402 22.0878 27.5423 21.9158 27.3856V27.3856ZM23.8785 28.6447C23.8898 29.001 24.0304 28.1062 23.8785 28.6447V28.6447ZM19.4553 25.5865C19.939 25.483 21.4598 26.4359 20.0632 25.8587C19.908 25.6869 19.5772 25.7649 19.4553 25.5865ZM23.6088 27.6566C23.6605 26.6899 23.8976 27.0792 23.6106 27.795L23.6088 27.6566ZM19.8153 25.2501C20.0124 24.961 19.2922 23.9431 19.9192 24.8849C20.1901 25.1002 20.7036 25.2455 20.2502 25.3361C20.9632 25.9651 20.0763 25.5065 19.8153 25.2501ZM23.4034 27.3546C23.5235 27.9998 23.5396 26.2534 23.4034 27.3546V27.3546ZM19.4037 24.2329C19.4832 24.4335 19.5543 24.1686 19.4037 24.2329V24.2329ZM20.3397 24.79C20.5805 24.2846 20.784 25.3537 20.3397 24.79V24.79ZM22.9797 26.2586C22.9771 26.0645 23.0295 26.5409 22.9797 26.2586V26.2586ZM22.8267 25.92C22.4603 25.016 23.1676 26.3986 22.8267 25.92V25.92ZM22.6018 25.3273C22.5402 24.9538 22.8108 25.7966 22.6018 25.3273V25.3273ZM22.9679 24.7321C22.7165 24.289 23.2854 22.7794 23.3489 23.7157C23.0835 24.4451 23.2724 24.8532 23.4575 23.8748C23.7994 23.1047 23.3837 25.3943 22.9679 24.7321ZM23.3442 22.4871C23.3685 22.6493 23.4538 22.3525 23.3442 22.4871V22.4871ZM22.7158 34.8693C22.5668 34.7392 22.7345 34.9521 22.7158 34.8693V34.8693ZM24.0103 35.5241C24.7304 35.7089 24.7267 35.4121 24.0759 35.3239C23.7259 34.9983 22.6213 34.6529 23.6099 35.2835C23.6754 35.4494 23.8823 35.4455 24.0103 35.5241ZM21.4537 33.826C21.8504 34.1219 22.9479 34.6644 22.0188 33.9386C22.3321 33.5747 21.4193 33.381 21.7221 33.1375C20.9519 32.6662 21.1145 32.7082 21.6541 32.723C20.7285 32.3093 21.7877 32.3402 21.7378 32.1282C21.3809 32.0577 19.965 31.4989 20.798 32.1741C19.9512 31.7424 20.5962 32.3349 20.3403 32.2723C19.4744 32.0362 21.1114 32.9318 20.2027 32.7094C20.6995 33.1031 21.5398 33.7178 20.4128 33.126C20.2643 33.3398 21.2193 33.6638 21.4537 33.826ZM22.8076 34.6038C22.0005 33.9558 24.4538 35.1343 22.8076 34.6038V34.6038ZM29.7383 38.8024C29.5133 39.081 29.7595 38.4759 29.7383 38.8024V38.8024ZM30.4506 39.1023C30.8304 38.7342 30.4661 39.6885 31.0799 39.0122C31.0866 38.528 31.061 38.242 30.3746 38.8302C30.1853 38.9351 30.1009 39.3813 30.4506 39.1023ZM19.143 32.0008C18.3253 31.5447 19.0263 31.5423 19.143 32.0008V32.0008ZM19.9036 32.4993C18.8958 32.0753 19.6212 32.0309 19.9036 32.4993V32.4993ZM24.231 35.109C24.6535 35.4843 26.1714 35.3844 24.7441 35.1552C24.5327 34.8426 23.4018 34.9179 24.231 35.109ZM30.1797 38.7828C29.5496 39.0263 30.8299 38.2372 30.1797 38.7828V38.7828ZM31.532 39.7122C31.2518 39.7888 31.5361 39.5371 31.532 39.7122V39.7122ZM31.5341 39.467C30.8364 39.5122 32.2542 38.7041 31.5341 39.467V39.467ZM17.2721 30.4346C16.6584 29.5589 16.8906 29.1653 16.2988 28.4503C16.1867 27.9036 15.2834 26.6629 15.8316 27.9773C16.3336 28.746 16.4828 29.9363 17.2721 30.4346ZM31.3083 39.2245C30.7645 38.8515 32.633 38.3683 31.3083 39.2245V39.2245ZM32.3195 39.6207C31.8999 39.5015 32.9829 39.0511 32.3195 39.6207V39.6207ZM18.9175 31.0329C18.4272 30.9968 19.1074 30.7505 18.9175 31.0329V31.0329ZM32.1084 39.3502C32.7507 38.936 31.9604 38.9996 31.992 39.3883L32.1084 39.3502ZM23.3911 33.8556C23.0519 33.8794 23.369 33.576 23.3911 33.8556V33.8556ZM23.9298 34.1656C23.6666 34.22 23.7586 33.8195 23.9298 34.1656V34.1656ZM33.1391 39.6301C33.962 39.0364 32.6402 39.5164 32.9663 39.7425L33.1391 39.6301ZM32.824 39.4778C32.1162 39.7267 33.4943 38.916 32.824 39.4778V39.4778ZM34.434 40.5499C33.8871 40.4524 34.884 40.2485 34.434 40.5499V40.5499ZM19.3303 30.8293C19.9336 30.9644 21.7413 32.3151 20.6748 30.9227C20.1286 30.761 20.4562 29.4258 19.8991 29.6621C20.273 30.2868 20.2068 30.5527 19.4216 30.1589C18.4349 29.6772 18.8671 30.3976 19.0599 30.5961C18.7971 30.6559 19.4076 30.8242 19.3303 30.8293ZM16.5816 28.6585C16.6896 28.2117 15.587 26.2008 16.0609 27.6508C16.232 27.9546 16.2146 28.5302 16.5816 28.6585ZM21.6267 31.7689C21.316 31.5091 21.6119 31.7321 21.6267 31.7689V31.7689ZM22.3917 31.9469C21.5461 31.7547 22.3913 31.4737 22.3917 31.9469V31.9469ZM29.0214 36.1263C28.5215 36.1188 28.8949 35.803 29.0214 36.1263V36.1263ZM29.3397 36.3589C29.1561 36.3938 29.2927 36.1779 29.3397 36.3589V36.3589ZM31.9675 38.014C31.6521 37.9902 32.2202 37.8273 31.9675 38.014V38.014ZM17.9546 29.009C17.18 28.8094 18.6775 28.7291 17.9546 29.009V29.009ZM28.4377 35.6134C27.9769 35.7295 28.4297 35.1455 28.4377 35.6134V35.6134ZM17.669 28.3434C17.2394 28.2401 18.1333 28.1866 17.669 28.3434V28.3434ZM19.0167 28.9963C18.8742 29.0545 19.0083 28.8425 19.0167 28.9963V28.9963ZM35.4558 39.077C36.0529 38.9559 37.4136 39.3809 37.6336 38.9186C36.9084 38.901 35.1248 38.4071 35.0404 39.0365L35.1992 39.0615L35.4558 39.077ZM19.4451 29.1042C19.0753 29.0865 19.4555 28.63 19.4451 29.1042V29.1042ZM15.9014 26.6461C15.2893 26.5093 15.7405 25.7425 15.9014 26.6461V26.6461ZM16.7465 26.8585C15.973 26.5974 16.7568 26.5683 16.7465 26.8585V26.8585ZM17.2294 27.0956C17.0898 26.9826 17.1201 27.2385 17.2294 27.0956V27.0956ZM20.268 29.0449C19.9293 28.9476 20.411 28.9135 20.268 29.0449V29.0449ZM16.9077 26.5607C15.929 26.4585 16.8261 25.8783 16.9077 26.5607V26.5607ZM15.1753 25.4366C15.0064 25.5554 15.1506 25.1217 15.1753 25.4366V25.4366ZM15.433 25.242C15.2117 25.2895 15.3909 24.8685 15.433 25.242V25.242ZM16.8568 26.0919C17.4589 25.8554 15.7601 25.6027 16.7338 26.0472L16.8568 26.0919ZM35.9128 37.8625C35.4231 37.7533 36.2982 37.5092 35.9128 37.8625V37.8625ZM38.2149 39.0558C37.8261 39.116 38.3694 38.599 38.2149 39.0558V39.0558ZM17.0023 25.3456C16.525 25.4334 17.0658 24.9037 17.0023 25.3456V25.3456ZM14.9765 23.9883C14.8677 23.3645 14.8826 22.2695 15.9235 22.6395C14.5341 22.9154 16.8852 24.3665 16.5883 23.2208C17.1725 23.2494 17.7312 22.8755 17.4246 23.4429C18.5757 23.3158 19.3737 22.3176 20.4856 22.4575C21.3517 22.3429 22.2987 22.2559 23.2321 21.9073C23.9995 21.852 24.7382 21.0258 24.3175 20.5361C23.271 20.4475 22.1756 20.5785 21.0189 20.8084C19.7372 21.0748 18.5729 21.5811 17.2797 21.7984C16.0191 21.9677 17.5332 22.2649 17.1722 22.3311C16.5144 22.5594 17.9566 22.7133 17.0869 22.9539C16.5498 22.8517 15.9907 22.6672 16.2201 22.1012C15.0126 22.2578 13.9516 22.759 14.9056 23.9878L14.9765 23.9883ZM17.8862 22.5065C18.1693 21.4635 19.4029 23.3647 18.3502 22.645C18.2244 22.5509 18.0176 22.4741 17.8862 22.5065ZM17.9412 22.0008C18.1584 22.1715 18.3498 21.6964 17.9412 22.0008V22.0008ZM18.4601 22.0091C18.497 21.5291 19.6478 22.2631 18.6498 22.1818L18.4601 22.0091ZM19.1698 21.7237C19.2443 21.9931 19.429 21.4209 19.1698 21.7237V21.7237ZM19.3514 21.6021C19.7829 21.0836 21.7954 21.2712 20.3224 21.5516C19.9275 21.2543 19.6249 21.7268 19.3514 21.6021ZM21.9777 21.1973C21.912 19.7808 23.2824 21.7006 21.9777 21.1973V21.1973ZM22.7229 21.1932C22.9953 20.4793 23.7801 20.9067 22.8489 21.0497C22.8692 21.1257 22.8216 21.4183 22.7229 21.1932ZM16.7085 24.9792C15.8443 24.5467 17.5225 24.4807 16.7085 24.9792V24.9792ZM17.3104 25.1464C16.6902 25.0233 17.5958 24.843 17.3104 25.1464V25.1464ZM15.5369 23.8878C14.9865 23.7519 16.002 23.5305 15.5369 23.8878V23.8878ZM39.5738 38.9253C39.2183 39.1121 39.5872 38.5107 39.5738 38.9253V38.9253ZM37.1313 37.2585C36.8175 37.3001 37.2008 36.7812 37.1313 37.2585V37.2585ZM40.2454 39.086C40.8958 39.0882 42.2159 38.884 40.8009 38.8847C40.5788 38.9193 39.507 38.9119 40.2454 39.086ZM17.8398 24.8539C18.3661 24.8177 18.6633 24.2733 17.738 24.3046C16.304 24.1562 19.0032 24.7956 17.5541 24.6128C17.3593 24.7417 17.8285 24.8896 17.8398 24.8539ZM18.3033 25.0885C18.1406 25.268 18.2484 24.7506 18.3033 25.0885V25.0885ZM18.8532 23.6223C18.5372 23.5466 19.0816 23.339 18.8532 23.6223V23.6223ZM17.1028 20.6964C18.0421 20.3769 19.3266 20.0178 19.7702 20.8538C19.3188 20.3105 19.588 19.7757 20.0143 20.57C20.6172 21.3737 20.9189 20.2045 20.5269 19.9349C20.9737 20.4901 21.4819 20.7524 20.826 19.97C21.5387 19.1127 19.399 20.0823 18.9126 20.0725C18.6786 20.1775 16.4967 20.6289 17.1028 20.6964ZM17.6533 19.6421C18.189 19.2378 19.5061 19.8826 18.6609 19.2403C18.5783 19.1673 16.81 19.7274 17.6533 19.6421ZM19.6063 19.7228C20.2333 19.7388 19.3359 18.8805 20.083 19.2694C19.9603 18.8686 19.2132 18.7935 18.8479 18.6334C18.6413 18.9999 19.2684 19.7277 19.6063 19.7228ZM17.9958 17.9499C17.6156 18.099 18.2127 17.6559 17.9958 17.9499V17.9499ZM18.794 18.141C19.8044 18.007 18.5364 17.7059 18.5904 18.1302L18.794 18.141ZM17.3035 16.9747C16.5921 16.046 18.6414 17.1308 17.9186 16.1585C17.3103 15.674 16.7257 16.7036 17.3035 16.9747ZM26.4333 21.8923C26.7596 21.3139 25.0862 21.1126 26.2135 21.6873C26.3173 21.722 26.2938 21.9323 26.4333 21.8923Z" fill="black"></path>
</svg>
