<?xml version="1.0" encoding="UTF-8"?>
<svg xmlns="http://www.w3.org/2000/svg" width="56" height="57" viewBox="0 0 56 57" fill="none">
  <path fill-rule="evenodd" clip-rule="evenodd" d="M6.5979 42.4008H22.4887C22.4887 42.4008 19.4513 28.5416 29.5088 22.9295C31.7013 21.8634 38.6812 17.8807 50.1065 26.3289C50.4686 26.0272 50.8105 25.7858 50.8105 25.7858C50.8105 25.7858 40.3507 15.3462 28.7042 16.5129C22.8508 17.0358 15.6496 22.3663 11.4255 29.4065C7.20135 36.4467 6.5979 42.4008 6.5979 42.4008Z" fill="#CC0000"></path>
  <path fill-rule="evenodd" clip-rule="evenodd" d="M6.5979 42.4008H22.4887C22.4887 42.4008 19.4513 28.5416 29.5088 22.9295C31.7013 21.8634 38.6812 17.8807 50.1065 26.3289C50.4686 26.0272 50.8105 25.7858 50.8105 25.7858C50.8105 25.7858 40.3507 15.3462 28.7042 16.5129C22.8508 17.0358 15.6496 22.3663 11.4255 29.4065C7.20135 36.4467 6.5979 42.4008 6.5979 42.4008Z" fill="#CC0000"></path>
  <path fill-rule="evenodd" clip-rule="evenodd" d="M6.5979 42.4011H22.4887C22.4887 42.4011 19.4513 28.5419 29.5088 22.9298C31.7013 21.8637 38.6812 17.881 50.1065 26.3293C50.4686 26.0275 50.8105 25.7862 50.8105 25.7862C50.8105 25.7862 40.3507 15.3465 28.7042 16.5132C22.8306 17.0362 15.6295 22.3666 11.4054 29.4068C7.18123 36.4471 6.5979 42.4011 6.5979 42.4011ZM39.7071 17.6396L39.7875 16.2919C39.6065 16.1913 39.1036 15.95 37.8364 15.5879L37.7559 16.9155C38.4197 17.1367 39.0634 17.3781 39.7071 17.6396Z" fill="#CC0000"></path>
  <path fill-rule="evenodd" clip-rule="evenodd" d="M37.796 21.9042L37.7155 23.1715C38.3793 23.1916 39.0431 23.272 39.7069 23.4129L39.7874 22.1657C39.1035 22.0249 38.4397 21.9445 37.796 21.9042ZM30.3535 15.6284H30.5546L30.1523 14.4014C29.5288 14.4014 28.8851 14.4416 28.2213 14.5221L28.6035 15.7088C29.1868 15.6485 29.7701 15.6284 30.3535 15.6284ZM31.319 23.0307L31.7816 24.4186C32.365 24.137 32.9483 23.8956 33.5316 23.7146L33.0891 22.387C32.4052 22.5881 31.8219 22.8094 31.319 23.0307ZM22.1868 17.7404L21.2816 16.3525C20.7788 16.614 20.2558 16.8956 19.7127 17.2175L20.638 18.6255C21.1609 18.3037 21.6638 18.0019 22.1868 17.7404ZM26.3104 26.7922L27.2759 28.2404C27.6178 27.7376 28.0201 27.2749 28.4627 26.8123L27.5575 25.4445C27.0948 25.8669 26.6724 26.3295 26.3104 26.7922ZM23.3937 33.2692L25.023 34.5565C25.1035 33.772 25.2443 32.9876 25.4454 32.2031L23.9972 31.0565C23.7357 31.8008 23.5546 32.545 23.3937 33.2692ZM14.5834 23.7146L13.1552 22.4675C12.6322 22.9703 12.1293 23.4732 11.6667 23.9761L13.2156 25.3037C13.638 24.7606 14.1006 24.2174 14.5834 23.7146ZM8.50866 32.7059L6.19544 31.8611C5.81326 32.7261 5.39085 33.7318 5.1897 34.2749L7.50291 35.1197C7.76441 34.4358 8.18682 33.4502 8.50866 32.7059ZM23.092 38.3784C23.1322 39.4444 23.2328 40.3094 23.3334 40.9128L25.7471 41.7778C25.5661 40.9933 25.3851 40.1082 25.2644 39.1628L23.092 38.3784Z" fill="#CC0000"></path>
</svg>
