<?xml version="1.0" encoding="UTF-8"?>
<svg xmlns="http://www.w3.org/2000/svg" width="64" height="65" viewBox="0 0 64 65" fill="none">
  <g clip-path="url(#clip0_14911_26640)">
    <path d="M47.7851 12.4019C47.8825 12.3957 47.9749 12.4455 48.0234 12.5303C48.0718 12.615 48.0678 12.72 48.013 12.8008L38.1546 26.1922C38.0824 26.2738 37.9786 26.3205 37.8697 26.3205C37.7607 26.3205 37.657 26.2738 37.5848 26.1922L34.1087 22.3172C34.0238 22.2291 33.9035 22.1843 33.7816 22.1954C33.6597 22.2064 33.5495 22.2722 33.4819 22.3742L31.3734 25.0525C31.3067 25.2033 31.3286 25.3787 31.4304 25.5084L37.6987 32.0047C37.771 32.0862 37.8747 32.1329 37.9837 32.1329C38.0926 32.1329 38.1963 32.0862 38.2686 32.0047L50.5773 18.1574C50.65 18.0792 50.7626 18.0527 50.8625 18.0902C50.9624 18.1276 51.0298 18.2217 51.0332 18.3283V52.0064C51.0379 52.0833 51.0094 52.1585 50.9549 52.213C50.9004 52.2675 50.8252 52.296 50.7483 52.2913H13.2522C13.1753 52.296 13.1001 52.2675 13.0456 52.213C12.9911 52.1585 12.9626 52.0833 12.9673 52.0064V12.6868C12.9626 12.6099 12.9911 12.5346 13.0456 12.4802C13.1001 12.4257 13.1753 12.3972 13.2522 12.4019H47.7851ZM38.0976 35.1388C36.4011 35.109 34.7661 35.7738 33.5717 36.9789C32.3773 38.1841 31.7273 39.825 31.7723 41.5212C31.7723 45.4531 34.6216 47.9605 38.3256 47.9605C40.0402 48.0031 41.7216 47.4827 43.1123 46.4788C43.2412 46.3618 43.2654 46.1682 43.1693 46.023L42.1436 44.4844C42.0282 44.3521 41.832 44.3276 41.6877 44.4274C40.7961 45.0362 39.7468 45.3728 38.6675 45.3961C36.673 45.3961 35.4193 44.1425 35.1914 42.6609C35.1955 42.5997 35.2442 42.551 35.3054 42.5469H43.9101C44.0935 42.5345 44.2396 42.3884 44.252 42.205V41.8631C44.252 37.8741 41.7447 35.1388 38.0976 35.1388ZM29.6069 32.9734C27.8761 31.5587 25.686 30.8286 23.4525 30.922C19.5775 30.922 17.1842 33.2014 17.1842 35.9366C17.1842 42.148 26.6437 40.1535 26.6437 43.0597C26.6437 43.9715 25.7319 44.8833 23.7944 44.8833C21.9543 44.8985 20.179 44.2046 18.8367 42.9458C18.7566 42.8709 18.6481 42.8342 18.5389 42.8451C18.4297 42.856 18.3306 42.9135 18.2669 43.0028L16.7853 45.0542C16.6892 45.1994 16.7134 45.393 16.8423 45.5101C18.3809 46.9347 20.5463 47.9035 23.5665 47.9035C28.0113 47.9035 30.1767 45.6241 30.2907 42.6609C30.2907 36.5065 20.8312 38.273 20.8312 35.6517C20.8312 34.683 21.686 33.9992 23.1676 33.9992C24.8008 33.9768 26.3915 34.5204 27.6694 35.5377C27.7445 35.5993 27.8413 35.6279 27.9378 35.6172C28.0344 35.6065 28.1225 35.5573 28.1823 35.4808L29.6639 33.4863C29.7254 33.4112 29.7541 33.3144 29.7434 33.2179C29.7326 33.1213 29.6834 33.0332 29.6069 32.9734ZM38.1546 37.6462C39.7046 37.5595 41.0426 38.7208 41.1748 40.2675C41.1707 40.3286 41.122 40.3773 41.0609 40.3815H35.2484C35.1872 40.3773 35.1386 40.3286 35.1344 40.2675C35.325 38.7512 36.6266 37.6215 38.1546 37.6462Z" fill="#2CB134"></path>
  </g>
  <defs>
    <clipPath id="clip0_14911_26640">
      <rect width="40" height="40" fill="white" transform="translate(12 12.4014)"></rect>
    </clipPath>
  </defs>
</svg>
