<?xml version="1.0" encoding="UTF-8"?>
<svg xmlns="http://www.w3.org/2000/svg" width="64" height="65" viewBox="0 0 64 65" fill="none">
  <path d="M9.20835 22.0304C8.87811 22.1956 8.3002 22.7735 7.63973 23.5991L8.21764 24.7549C8.63044 24.177 9.12579 23.5991 9.53859 23.1037C9.37347 23.2688 8.96067 23.7642 8.3002 24.7549C8.96067 24.7549 9.86882 24.5898 10.6944 24.4246C10.9421 23.1037 10.4467 22.5258 10.4467 22.5258C10.4467 22.5258 9.86882 21.6176 9.20835 22.0304Z" fill="url(#paint0_linear_14222_26355)"></path>
  <path d="M7.31136 30.7783H7.47544C7.47544 30.6963 7.3934 30.6963 7.31136 30.7783Z" fill="#BE202E"></path>
  <path opacity="0.35" d="M7.31136 30.7783H7.47544C7.47544 30.6963 7.3934 30.6963 7.31136 30.7783Z" fill="#BE202E"></path>
  <path d="M6.4013 27.7256C6.56642 27.3954 6.8141 27.0651 6.97921 26.7349C7.14433 26.4047 7.39201 26.0744 7.55713 25.7442V25.6616C7.72225 25.3314 7.96992 25.0012 8.13504 24.7535L7.55713 23.5977L7.39201 23.7628C7.22689 24.0105 7.06178 24.2581 6.8141 24.5058C6.56642 24.7535 6.4013 25.0837 6.15363 25.414C5.98851 25.7442 5.74083 25.9919 5.49315 26.3221C5.32804 26.5698 5.16292 26.9 4.9978 27.1477L5.82339 28.7163C6.07107 28.3861 6.23619 28.0558 6.4013 27.7256Z" fill="url(#paint1_linear_14222_26355)"></path>
  <path d="M2.76895 36.6435C2.68639 36.9737 2.52127 37.2214 2.43872 37.5516C2.43872 37.6342 2.43872 37.6342 2.35616 37.7168C2.2736 37.8819 2.19104 38.1296 2.10848 38.5424C2.35616 38.6249 2.52128 38.9551 2.6864 39.2854C2.6864 38.9551 2.52128 38.6249 2.2736 38.3772C3.42943 38.4598 4.42013 38.1296 4.91548 37.304C4.99804 37.2214 4.99804 37.1389 5.0806 37.0563C4.83292 37.3865 4.58525 37.4691 4.00734 37.4691C4.83293 37.1389 5.24572 36.7261 5.57596 36.1481C5.65852 35.983 5.74107 35.9005 5.82363 35.7354C5.0806 36.4784 4.33757 36.6435 3.42942 36.4784L2.76895 36.5609C2.85151 36.5609 2.76895 36.5609 2.76895 36.6435Z" fill="url(#paint2_linear_14222_26355)"></path>
  <path d="M3.09784 35.2387C3.26296 34.9084 3.34552 34.4957 3.51064 34.1654C3.67575 33.8352 3.75831 33.4224 3.92343 33.0922C4.08855 32.7619 4.25367 32.3491 4.33623 32.0189C4.50134 31.6887 4.66646 31.2759 4.83158 30.9456C4.9967 30.6154 5.16181 30.2026 5.32693 29.8724C5.40949 29.7072 5.40949 29.6247 5.49205 29.4596C5.57461 29.2119 5.73973 29.0468 5.82229 28.7991L4.9967 27.2305V27.313C4.83158 27.6433 4.5839 27.8909 4.41878 28.2212C4.25367 28.5514 4.08855 28.8816 3.84087 29.2119C3.67575 29.4596 3.51064 29.7898 3.42808 30.0375C3.42808 30.12 3.34552 30.12 3.34552 30.2026C3.1804 30.5328 3.01528 30.9456 2.85016 31.2759C2.68505 31.6887 2.51993 32.0189 2.43737 32.3491C2.43737 32.5142 2.35481 32.7619 2.35481 32.927C2.27225 33.0922 2.27225 33.2573 2.18969 33.4224C2.10713 33.8352 1.94202 34.248 1.85946 34.6608L2.68505 36.2294C2.76761 35.9817 2.93272 35.6515 3.01528 35.4038C3.01528 35.4038 3.01528 35.3212 3.09784 35.2387Z" fill="url(#paint3_linear_14222_26355)"></path>
  <path d="M1.86097 34.7451L1.6133 36.2312V36.3137C1.36562 35.9009 0.705148 35.4881 0.705148 35.4881C1.2005 36.1486 1.53074 36.8916 1.6133 37.5521C1.36562 37.6347 1.03539 37.5521 0.622591 37.387C1.03539 37.7998 1.36562 37.8824 1.53074 37.8824C1.11794 37.8824 0.705148 38.2126 0.292354 38.4603C0.870266 38.2126 1.36562 38.13 1.69586 38.2126C1.11794 39.7812 0.62259 41.5149 0.0446777 43.3312C0.209796 43.2487 0.292353 43.1661 0.374911 43.001C0.45747 42.6708 1.11794 40.5242 2.10865 37.6347C2.10865 37.5521 2.19121 37.4696 2.19121 37.387V37.3044C2.27377 36.9742 2.43889 36.7265 2.52144 36.3963C2.52144 36.3137 2.604 36.2312 2.604 36.1486L1.86097 34.7451Z" fill="url(#paint4_linear_14222_26355)"></path>
  <path d="M5.98795 28.8812C5.98795 28.9637 5.90539 28.9638 5.90539 29.0463C5.82283 29.2114 5.74027 29.3765 5.65771 29.4591L5.41004 29.9545C5.41004 30.037 5.32747 30.1196 5.32747 30.2021C5.24492 30.4498 5.0798 30.6975 4.99724 31.0277C4.83212 31.358 4.667 31.6882 4.50189 32.101C4.33677 32.4312 4.17165 32.844 4.08909 33.1743C3.92397 33.5045 3.75886 33.9173 3.6763 34.2475C3.51118 34.5778 3.42862 34.908 3.2635 35.3208V35.4033C3.09838 35.7336 3.01583 36.1464 2.85071 36.4766L3.51118 36.3941C4.25421 36.3115 5.32748 35.7336 5.98795 34.9906C6.31818 34.6603 6.56586 34.2475 6.81354 33.8347C6.97866 33.5045 7.14377 33.0917 7.39145 32.6789C7.55656 32.3487 7.72168 31.9359 7.80424 31.5231C7.63912 31.6056 7.39145 31.6882 7.22633 31.7708H6.97865C7.72168 31.5231 8.13448 30.9452 8.46472 30.2847C8.2996 30.4498 7.96936 30.6149 7.55657 30.6975H7.39145C7.63912 30.6149 7.8868 30.4498 8.05192 30.3673L8.13448 30.2847L8.2996 30.1196L8.38215 30.037C8.46471 29.9545 8.54727 29.8719 8.54727 29.7893C8.54727 29.7893 8.54727 29.7068 8.62983 29.7068C8.62983 29.6242 8.71239 29.6242 8.71239 29.5417C8.79495 29.3765 8.87751 29.1289 8.96007 28.9638C8.96007 28.8812 9.04262 28.7986 9.04262 28.7161V28.6335C9.04262 28.551 9.12519 28.4684 9.12519 28.4684C9.12519 28.3858 9.12518 28.3033 9.20774 28.2207C9.2903 28.1382 9.12519 28.2207 9.12519 28.3033C8.87751 28.4684 8.54727 28.551 8.21704 28.6335L8.79495 28.551L8.13448 28.6335H8.05192L5.98795 28.8812Z" fill="url(#paint5_linear_14222_26355)"></path>
  <path d="M8.30046 24.7532C8.13535 25.0008 7.88767 25.3311 7.72255 25.6613V25.7439C7.55743 26.0741 7.30976 26.4043 7.14464 26.7346C6.97952 27.0648 6.8144 27.3951 6.56673 27.8078L6.07137 28.7986L8.13535 28.5509C8.71326 28.3032 8.96093 28.0555 9.20861 27.6427C9.29117 27.5602 9.37373 27.4776 9.37373 27.3125C9.62141 26.9823 9.78652 26.652 9.95164 26.2392C10.1168 25.909 10.2819 25.5788 10.3644 25.2485C10.447 25.0834 10.5296 24.8357 10.5296 24.6706C10.5296 24.5055 10.6121 24.4229 10.6121 24.2578C9.95164 24.588 8.96094 24.7532 8.30046 24.7532Z" fill="url(#paint6_linear_14222_26355)"></path>
  <path d="M8.28351 28.6183V28.9321H8.22198V28.6183H8.09481V28.5547H8.40863V28.6162L8.28351 28.6183Z" fill="#B0AFB0"></path>
  <path d="M8.72252 28.6798L8.5974 28.8685H8.53587L8.4087 28.6798V28.9321H8.34717V28.5547H8.47023L8.5974 28.7434L8.72252 28.5547H8.84969V28.9321H8.7861L8.72252 28.6798Z" fill="#B0AFB0"></path>
  <path d="M11.6615 42.887H10.841C10.6359 42.887 10.4308 42.887 10.2257 42.6819V40.6308C10.4308 40.6308 10.6359 40.6308 10.841 40.8359H12.0717C12.2768 40.8359 12.4819 40.6308 12.687 40.6308L13.0972 40.2206C13.0972 40.0155 13.3023 39.8104 13.3023 39.4002V28.3242H15.7637V39.4002C15.7637 40.0155 15.7637 40.6308 15.5585 41.041C15.3534 41.4513 15.1483 41.8615 14.7381 42.2717C14.3279 42.6819 13.9177 42.887 13.5074 42.887C12.687 42.6819 12.0717 42.887 11.6615 42.887Z" fill="url(#paint7_linear_14222_26355)"></path>
  <path d="M21.3026 39.4002L18.8413 30.3754V39.4002H16.585V27.9141H19.8668L22.3281 36.7338L24.9946 27.9141H28.2763V39.4002H26.0201V34.0674V33.6571V33.0418V32.4265V31.8112V30.3754L23.3537 39.4002H21.3026ZM33.4041 32.2214C32.9939 32.2214 32.5836 32.4265 32.3785 32.6316C32.1734 32.8367 31.9683 33.452 31.9683 34.0674H35.045V33.2469C35.045 33.0418 34.8399 32.8367 34.8399 32.6316L34.4296 32.2214H33.4041ZM33.6092 39.6053C32.9939 39.6053 32.3785 39.6053 31.9683 39.4002C31.353 39.1951 30.9428 38.99 30.5325 38.5798C30.1223 38.1696 29.9172 37.7594 29.7121 37.144C29.507 36.5287 29.3019 35.9134 29.3019 35.0929C29.3019 34.2725 29.3019 33.6571 29.507 33.0418C29.7121 32.4265 29.9172 32.0163 30.3274 31.606C30.7376 31.1958 31.1479 30.9907 31.5581 30.7856C31.9683 30.5805 32.5836 30.5805 33.199 30.5805C33.8143 30.5805 34.2245 30.5805 34.8399 30.7856C35.2501 30.9907 35.6603 31.1958 36.0705 31.606C36.4807 32.0163 36.6858 32.4265 36.891 32.8367C37.0961 33.2469 37.0961 33.8623 37.0961 34.4776V35.7083H31.7632C31.7632 36.1185 31.7632 36.3236 31.9683 36.5287C31.9683 36.7338 32.1734 36.9389 32.3785 37.144C32.5836 37.3491 32.7887 37.5542 32.9939 37.5542C33.199 37.5542 33.6092 37.7594 33.8143 37.7594H34.6347C34.8398 37.7594 35.045 37.7594 35.2501 37.5542C35.4552 37.5542 35.6603 37.3491 35.8654 37.3491C36.0705 37.3491 36.2756 37.144 36.4807 37.144V38.99C36.2756 39.1951 36.0705 39.1951 35.8654 39.1951C35.6603 39.1951 35.4552 39.4002 35.2501 39.4002C35.045 39.4002 34.8398 39.4002 34.4296 39.6053H33.6092ZM42.0187 37.7594H42.634C42.8391 37.7594 43.0443 37.5542 43.2494 37.5542V39.4002C43.0443 39.6053 42.8391 39.6053 42.4289 39.6053C42.0187 39.6053 41.8136 39.8105 41.4034 39.8105C40.9932 39.8105 40.5829 39.8105 40.3778 39.6053C40.1727 39.4002 39.7625 39.4002 39.5574 39.1951C39.3523 38.99 39.1472 38.5798 38.9421 38.3747C38.7369 37.9645 38.7369 37.5542 38.7369 36.9389V32.4265H37.5063V31.4009L38.7369 30.5805L39.3523 28.7345H40.788V30.5805H42.8391V32.4265H40.788V36.7338C40.788 37.144 40.788 37.3491 40.9932 37.5542C41.4034 37.5542 41.6085 37.7594 42.0187 37.7594ZM47.7618 32.2214C47.3516 32.2214 46.9413 32.4265 46.7362 32.6316C46.5311 32.8367 46.326 33.452 46.326 34.0674H49.4027V33.2469C49.4027 33.0418 49.1976 32.8367 49.1976 32.6316L48.7873 32.2214H47.7618ZM47.9669 39.6053C47.3516 39.6053 46.7362 39.6053 46.326 39.4002C45.9158 39.1951 45.3005 38.99 44.8902 38.5798C44.48 38.1696 44.2749 37.7594 44.0698 37.144C43.8647 36.5287 43.6596 35.9134 43.6596 35.0929C43.6596 34.2725 43.6596 33.6571 43.8647 33.0418C44.0698 32.4265 44.2749 32.0163 44.6851 31.606C45.0954 31.1958 45.5056 30.9907 45.9158 30.7856C46.326 30.5805 46.9413 30.5805 47.5567 30.5805C48.172 30.5805 48.5822 30.5805 49.1976 30.7856C49.6078 30.9907 50.018 31.1958 50.4282 31.606C50.8384 32.0163 51.0436 32.4265 51.2487 32.8367C51.4538 33.2469 51.4538 33.8623 51.4538 34.4776V35.7083H46.1209C46.1209 36.1185 46.1209 36.3236 46.326 36.5287C46.326 36.7338 46.5311 36.9389 46.7362 37.144C46.9413 37.3491 47.1465 37.5542 47.3516 37.5542C47.5567 37.5542 47.9669 37.7594 48.172 37.7594H48.9925C49.1976 37.7594 49.4027 37.7594 49.6078 37.5542C49.8129 37.5542 50.018 37.3491 50.2231 37.3491C50.4282 37.3491 50.6333 37.144 50.8384 37.144V38.99C50.6333 39.1951 50.4282 39.1951 50.2231 39.1951C50.018 39.1951 49.8129 39.4002 49.6078 39.4002C49.4027 39.4002 49.1976 39.4002 48.7873 39.6053H47.9669ZM56.7866 30.5805H57.6071V32.8367H56.7866C56.3764 32.8367 56.1713 32.8367 55.9662 33.0418C55.7611 33.0418 55.556 33.2469 55.3509 33.452C55.1458 33.6571 54.9406 33.8623 54.9406 34.0674C54.9406 34.2725 54.7355 34.6827 54.7355 35.0929V39.6053H52.2742V30.7856H53.9151L54.3253 32.0163H54.5304C54.7355 31.8112 54.7355 31.606 54.9406 31.4009L55.3509 30.9907C55.556 30.7856 55.7611 30.7856 55.9662 30.7856C56.1713 30.5805 56.3764 30.5805 56.7866 30.5805Z" fill="black"></path>
  <path d="M58.6325 30.5814H58.0172V28.5303H57.4019V28.1201H59.2479V28.5303H58.6325V30.5814Z" fill="url(#paint8_linear_14222_26355)"></path>
  <path d="M60.6819 30.5804L60.0665 28.5293V30.7855H59.6563V28.3242H60.4768L61.0921 30.1702L61.7074 28.3242H62.1176V30.7855H61.7074V29.5549V29.3498V29.1447V28.7344L61.0921 30.7855H60.6819" fill="url(#paint9_linear_14222_26355)"></path>
  <path d="M13.0129 26.3115L14.7297 22.2359H15.0866L16.8034 26.3115H16.3726L15.8742 25.0234H14.0139L13.5134 26.3115H13.0129ZM14.8733 22.6646L14.0139 24.6665H15.6589L14.8733 22.6646ZM17.2321 26.3115V22.2359H18.9488C19.6626 22.2359 20.1631 22.88 20.1631 23.522C20.1631 24.164 19.6626 24.8101 19.0186 24.8101H17.6607V26.3115H17.2321ZM17.5889 24.3814H18.877C19.3775 24.3814 19.6626 23.9507 19.6626 23.4502C19.6626 22.9497 19.3057 22.5211 18.8053 22.5211H17.5172V24.3814H17.5889ZM19.878 26.3115L21.5927 22.2359H21.9496L23.6664 26.3115H23.2356L22.7372 25.0234H20.8789L20.3784 26.3115H19.878ZM21.806 22.6646L20.9487 24.6665H22.5936L21.806 22.6646ZM25.5964 22.1642C26.3123 22.1642 26.8845 22.5211 27.0979 23.0215L26.741 23.2369C26.4538 22.6646 25.9533 22.5211 25.5247 22.5211C24.5237 22.5211 24.0233 23.3805 24.0233 24.2378C24.0233 25.167 24.6673 25.9525 25.5247 25.9525C25.9554 25.9525 26.5256 25.7392 26.8128 25.167L27.1696 25.3106C26.8825 25.9525 26.1687 26.2397 25.5247 26.2397C24.3822 26.2397 23.5966 25.167 23.5966 24.0942C23.6664 23.2369 24.3822 22.1642 25.5964 22.1642ZM30.958 22.1642V26.2397H30.5294V24.3096H28.1706V26.2376H27.7399V22.1662H28.1706V23.9527H30.6011V22.1683L30.958 22.1642ZM34.6767 25.8828V26.2397H31.959V22.1621H34.6767V22.519H32.3856V24.0204H34.3875V24.3794H32.3856V25.9505H34.6746L34.6767 25.8828Z" fill="#D22128"></path>
  <defs>
    <linearGradient id="paint0_linear_14222_26355" x1="8.15858" y1="23.781" x2="9.97085" y2="23.2772" gradientUnits="userSpaceOnUse">
      <stop stop-color="#F69923"></stop>
      <stop offset="0.312" stop-color="#F79A23"></stop>
      <stop offset="0.838" stop-color="#E97826"></stop>
    </linearGradient>
    <linearGradient id="paint1_linear_14222_26355" x1="-1.7047" y1="43.9825" x2="1.98132" y2="36.0774" gradientUnits="userSpaceOnUse">
      <stop offset="0.323" stop-color="#9E2064"></stop>
      <stop offset="0.63" stop-color="#C92037"></stop>
      <stop offset="0.751" stop-color="#CD2335"></stop>
      <stop offset="1" stop-color="#E97826"></stop>
    </linearGradient>
    <linearGradient id="paint2_linear_14222_26355" x1="1.3747" y1="42.5332" x2="3.57118" y2="37.8226" gradientUnits="userSpaceOnUse">
      <stop stop-color="#282662"></stop>
      <stop offset="0.095" stop-color="#662E8D"></stop>
      <stop offset="0.788" stop-color="#9F2064"></stop>
      <stop offset="0.949" stop-color="#CD2032"></stop>
    </linearGradient>
    <linearGradient id="paint3_linear_14222_26355" x1="-1.37288" y1="42.7946" x2="2.31315" y2="34.8895" gradientUnits="userSpaceOnUse">
      <stop offset="0.323" stop-color="#9E2064"></stop>
      <stop offset="0.63" stop-color="#C92037"></stop>
      <stop offset="0.751" stop-color="#CD2335"></stop>
      <stop offset="1" stop-color="#E97826"></stop>
    </linearGradient>
    <linearGradient id="paint4_linear_14222_26355" x1="-0.434229" y1="41.4895" x2="1.50273" y2="37.3355" gradientUnits="userSpaceOnUse">
      <stop stop-color="#282662"></stop>
      <stop offset="0.095" stop-color="#662E8D"></stop>
      <stop offset="0.788" stop-color="#9F2064"></stop>
      <stop offset="0.949" stop-color="#CD2032"></stop>
    </linearGradient>
    <linearGradient id="paint5_linear_14222_26355" x1="0.660249" y1="43.7419" x2="4.34627" y2="35.8368" gradientUnits="userSpaceOnUse">
      <stop offset="0.323" stop-color="#9E2064"></stop>
      <stop offset="0.63" stop-color="#C92037"></stop>
      <stop offset="0.751" stop-color="#CD2335"></stop>
      <stop offset="1" stop-color="#E97826"></stop>
    </linearGradient>
    <linearGradient id="paint6_linear_14222_26355" x1="-0.00540575" y1="44.9141" x2="3.68034" y2="37.0096" gradientUnits="userSpaceOnUse">
      <stop offset="0.323" stop-color="#9E2064"></stop>
      <stop offset="0.63" stop-color="#C92037"></stop>
      <stop offset="0.751" stop-color="#CD2335"></stop>
      <stop offset="1" stop-color="#E97826"></stop>
    </linearGradient>
    <linearGradient id="paint7_linear_14222_26355" x1="352.226" y1="-690.592" x2="354.519" y2="-695.509" gradientUnits="userSpaceOnUse">
      <stop stop-color="#F69923"></stop>
      <stop offset="0.312" stop-color="#F79A23"></stop>
      <stop offset="0.838" stop-color="#E97826"></stop>
    </linearGradient>
    <linearGradient id="paint8_linear_14222_26355" x1="57.4224" y1="29.2851" x2="59.213" y2="29.2851" gradientUnits="userSpaceOnUse">
      <stop offset="0.323" stop-color="#9E2064"></stop>
      <stop offset="0.63" stop-color="#C92037"></stop>
      <stop offset="0.751" stop-color="#CD2335"></stop>
      <stop offset="1" stop-color="#E97826"></stop>
    </linearGradient>
    <linearGradient id="paint9_linear_14222_26355" x1="59.5968" y1="29.2841" x2="62.1771" y2="29.2841" gradientUnits="userSpaceOnUse">
      <stop offset="0.323" stop-color="#9E2064"></stop>
      <stop offset="0.63" stop-color="#C92037"></stop>
      <stop offset="0.751" stop-color="#CD2335"></stop>
      <stop offset="1" stop-color="#E97826"></stop>
    </linearGradient>
  </defs>
</svg>
