<?xml version="1.0" encoding="UTF-8"?>
<svg xmlns="http://www.w3.org/2000/svg" width="64" height="65" viewBox="0 0 64 65" fill="none">
  <g clip-path="url(#clip0_14911_26646)">
    <path d="M12.0461 31.0572C15.9233 39.9641 25.7614 41.4576 37.5031 33.9081C42.9188 38.9205 44.268 44.8628 39.7491 50.8444C37.3658 51.8469 34.7478 52.4012 32 52.4012C20.9544 52.4012 12 43.447 12 32.4012C12 31.9495 12.0166 31.5016 12.0461 31.0572ZM30.3365 27.1908C32.0873 19.8947 36.9762 15.7097 44.6612 16.9194C49.1409 20.5872 52.0001 26.1601 52.0001 32.4013C52.0001 40.2755 47.449 47.0855 40.8345 50.3477C46.8432 41.7877 41.9329 32.7565 30.3365 27.1908ZM32.0001 12.4014C36.2868 12.4014 40.2581 13.7506 43.5137 16.0467C32.5838 14.7761 27.4224 23.8865 28.1434 36.4676C21.0415 38.6459 15.2559 37.0409 12.1984 29.5853C13.5673 19.8731 21.9104 12.4014 32.0001 12.4014Z" fill="#662D91"></path>
  </g>
  <defs>
    <clipPath id="clip0_14911_26646">
      <rect width="40" height="40" fill="white" transform="translate(12 12.4014)"></rect>
    </clipPath>
  </defs>
</svg>
