<?xml version="1.0" encoding="UTF-8"?>
<svg xmlns="http://www.w3.org/2000/svg" width="64" height="65" viewBox="0 0 64 65" fill="none">
  <g clip-path="url(#clip0_14911_26652)">
    <path d="M31.9967 12.4014C20.9433 12.4014 12 21.3464 12 32.4014C11.9983 35.0283 12.5144 37.6298 13.5188 40.0571C14.5233 42.4844 15.9964 44.6899 17.854 46.5474C19.7115 48.4049 21.917 49.8781 24.3443 50.8825C26.7716 51.887 29.3731 52.4031 32 52.4014C43.055 52.4014 52 43.4564 52 32.4014C51.9983 21.3464 42.98 12.4014 31.9967 12.4014ZM22.6167 36.693C23.27 37.5647 24.1433 37.9297 25.3783 37.9297C25.9617 37.9297 26.5433 37.8564 27.0517 37.638C27.5617 37.4214 28.1433 37.128 28.8683 36.693L30.9067 39.6014C29.235 40.9847 27.3433 41.638 25.1617 41.638C23.415 41.638 21.9617 41.2747 20.6533 40.548C19.3832 39.7988 18.3689 38.6834 17.7433 37.348C17.09 35.9647 16.725 34.3647 16.725 32.473C16.725 30.6564 17.09 28.983 17.7417 27.6014C18.3639 26.2249 19.377 25.0617 20.655 24.2564C21.89 23.4564 23.4167 23.093 25.09 23.093C26.255 23.093 27.345 23.238 28.2183 23.6014C29.1981 23.9806 30.1074 24.5215 30.9083 25.2014L28.8717 27.9647C28.3546 27.583 27.7933 27.2651 27.2 27.018C26.6917 26.8014 26.0367 26.728 25.4533 26.728C22.9817 26.728 21.745 28.618 21.745 32.4714C21.6733 34.438 22.0367 35.818 22.6183 36.6914L22.6167 36.693ZM42.6167 41.2014C41.89 43.4564 40.7983 45.1297 39.27 46.3647C37.7433 47.603 35.7067 48.2564 33.1617 48.4747L32.6533 45.058C34.325 44.838 35.5617 44.4747 36.3617 43.8914C36.6517 43.6747 37.235 43.0197 37.235 43.0197L31.1983 23.6747H36.215L39.7067 38.1464L43.4167 23.6747H48.2883L42.6167 41.2014Z" fill="black"></path>
  </g>
  <defs>
    <clipPath id="clip0_14911_26652">
      <rect width="40" height="40" fill="white" transform="translate(12 12.4014)"></rect>
    </clipPath>
  </defs>
</svg>
