<?xml version="1.0" encoding="UTF-8"?>
<svg xmlns="http://www.w3.org/2000/svg" width="64" height="65" viewBox="0 0 64 65" fill="none">
  <path d="M32.0521 13.0866C27.2699 12.9954 22.7083 14.2572 18.8052 17.8657C10.6374 25.42 10.3943 38.3544 18.2833 46.1875C19.7033 47.5975 21.3933 48.9019 23.249 49.6963C23.7337 48.0666 23.6393 46.0991 23.4858 44.165C23.449 44.1269 23.4108 44.0891 23.3827 44.0469C22.8643 43.2741 23.249 41.2566 23.249 40.3388C26.5102 40.9169 29.1665 42.7107 32.6577 41.6688C36.0743 40.6491 37.4983 35.7219 34.4862 33.3894C32.6671 31.98 29.9683 32.1722 27.823 32.4307C26.5346 32.5863 24.9258 33.0619 24.0365 31.6916C23.5115 30.885 24.0533 28.9054 24.1415 27.9929C24.1633 27.7629 24.1874 27.5285 24.2102 27.2975C24.4387 24.4638 24.8177 21.5994 24.8177 18.7641H38.669V13.9566C36.4452 13.4488 34.2258 13.1288 32.0521 13.0866Z" fill="#DC514A"></path>
  <path d="M38.557 13.9473V22.4098H28.4779L27.9541 28.9182C30.1907 28.7429 32.2641 28.3482 34.4991 28.8735C36.0313 29.2345 37.4695 29.9579 38.5335 31.132C41.5032 34.4045 40.9188 40.5476 37.5095 43.3076C36.5501 44.0845 35.4538 44.5948 34.2963 44.9229C33.2276 45.2645 32.1538 45.4091 31.0763 45.4191C30.6904 45.4401 30.304 45.4509 29.9176 45.4516C28.2395 45.4516 26.561 45.2335 24.9435 44.781C24.5323 44.6657 23.896 44.5054 23.496 44.206C23.4113 44.1879 23.3263 44.1682 23.2416 44.1498L23.1113 49.6176C33.4988 55.1257 46.7316 49.2323 50.4576 38.4223C53.6073 29.287 48.7295 16.3451 38.557 13.9473Z" fill="#23A161"></path>
</svg>
