<?xml version="1.0" encoding="UTF-8"?>
<svg xmlns="http://www.w3.org/2000/svg" width="64" height="65" viewBox="0 0 64 65" fill="none">
  <g clip-path="url(#clip0_14911_26663)">
    <path d="M16.4302 15.6826H47.8681C48.277 15.6826 48.669 15.845 48.9581 16.1341C49.2472 16.4232 49.4096 16.8153 49.4096 17.2242C49.4096 17.633 49.2472 18.0251 48.9581 18.3142C48.669 18.6033 48.277 18.7657 47.8681 18.7657H16.4302C16.0217 18.7653 15.6301 18.6029 15.3413 18.314C15.0525 18.0252 14.8901 17.6336 14.8896 17.2252C14.8896 16.8164 15.0519 16.4244 15.3407 16.1351C15.6296 15.8459 16.0214 15.6832 16.4302 15.6826Z" fill="#696969"></path>
    <path d="M16.7041 12.5654H23.0236V14.0239H16.7041V12.5654Z" fill="#009FE3"></path>
    <path d="M24.9717 12.5654H31.2917V14.0239H24.9717V12.5654Z" fill="#C7D302"></path>
    <path d="M33.126 12.5654H39.448V14.0239H33.126V12.5654Z" fill="#F07E16"></path>
    <path d="M41.249 12.5654H47.569V14.0239H41.249V12.5654ZM41.249 20.3706H47.569V31.0552H41.249V20.3706Z" fill="#DF2815"></path>
    <path d="M33.126 20.3711H39.4603V37.7285H33.126V20.3711Z" fill="#F07E16"></path>
    <path d="M24.9717 20.3711H31.2917V46.3701H24.9717V20.3711Z" fill="#C7D302"></path>
    <path d="M16.7041 20.3711H23.0236V52.0593H16.7041V20.3711Z" fill="#009FE3"></path>
  </g>
  <defs>
    <clipPath id="clip0_14911_26663">
      <rect width="34.8718" height="40" fill="white" transform="translate(14.5645 12.4014)"></rect>
    </clipPath>
  </defs>
</svg>
