<?xml version="1.0" encoding="UTF-8"?>
<svg xmlns="http://www.w3.org/2000/svg" width="64" height="65" viewBox="0 0 64 65" fill="none">
  <g clip-path="url(#clip0_14222_26320)">
    <path d="M26.7829 51.7397C21.7451 50.4187 17.8132 47.4722 14.8882 42.8247C13.8129 41.1172 13.7944 40.514 14.7819 39.309C15.5266 38.3997 15.5694 38.3903 17.2797 38.7856C18.6529 39.1015 19.1557 39.4081 19.6697 40.2394C20.6682 41.8544 23.7016 44.5728 25.5279 45.4884C31.1676 48.3156 38.0388 47.1509 42.4638 42.6184C43.4269 41.6334 44.4097 40.3565 44.6479 39.7803C44.8857 39.2053 45.1897 38.7344 45.3229 38.7344C45.456 38.7344 45.8441 39.3519 46.1847 40.1062L46.8022 41.4781L48.4319 41.2856C50.3351 41.0597 50.3363 41.1134 48.4651 43.9331C46.0516 47.5684 41.4276 50.7387 36.8463 51.8984C34.1569 52.5797 29.7185 52.5087 26.7829 51.7397Z" fill="#6DE1FA"></path>
    <path d="M27.0072 37.6966C24.4219 34.5581 22 31.3881 21.6241 30.6497L20.9391 29.3091L23.7125 26.5225L26.485 23.7344H37.1819L39.9725 26.5406L42.7641 29.3469L42.0122 30.6241C41.1053 32.1631 32.2638 43.3606 31.9366 43.385C31.8097 43.3938 29.5916 40.8337 27.0072 37.6966Z" fill="#FE405F"></path>
    <path d="M46.7363 38.8994C46.082 37.5516 46.0395 37.205 46.3726 35.8853C46.5788 35.065 46.6838 33.0644 46.607 31.4385C46.4885 28.9738 46.292 28.1316 45.4195 26.3591C43.382 22.2197 40.0101 19.3535 35.8601 18.2291L33.7017 17.6457L34.571 16.5057C35.4279 15.3825 35.4313 15.3485 34.8723 14.1753C34.5598 13.521 34.3854 12.9057 34.4842 12.8066C34.8445 12.446 38.5688 13.4953 40.9626 14.6335C44.387 16.2616 48.1051 19.9553 49.7885 23.4016C52.0029 27.9366 52.5217 32.59 51.3326 37.2385C50.9663 38.6738 50.6282 39.8788 50.5832 39.9153C50.5379 39.9532 49.8201 40.0813 48.9876 40.2022L47.4763 40.4219L46.7363 38.8994Z" fill="#97F0FF"></path>
    <path d="M13.0401 39.0064C11.7522 35.6189 11.7291 29.7814 12.9901 26.0679C15.5682 18.4742 22.5541 13.0101 30.3338 12.5023L32.8338 12.3389L33.5979 13.712L34.3635 15.0854L33.4466 16.3611C32.5935 17.5476 32.3613 17.6623 30.0822 18.0164C26.696 18.5436 24.2229 19.7961 21.8097 22.2107C17.7288 26.2914 16.5594 31.2279 18.2207 37.367C18.4176 38.0957 18.3588 38.147 17.5519 37.9504L15.9001 37.5489C15.291 37.4011 14.9516 37.6182 14.2485 38.607L13.3626 39.8536L13.0401 39.0064Z" fill="#40DAF4"></path>
  </g>
  <defs>
    <clipPath id="clip0_14222_26320">
      <rect width="40" height="40" fill="white" transform="translate(12 12.4014)"></rect>
    </clipPath>
  </defs>
</svg>
