<?xml version="1.0" encoding="UTF-8"?>
<svg xmlns="http://www.w3.org/2000/svg" width="64" height="65" viewBox="0 0 64 65" fill="none">
  <g clip-path="url(#clip0_14222_26328)">
    <path d="M41.144 24.6094H37.992V27.4414H41.144V24.6094Z" fill="#356388"></path>
    <path d="M55.2241 24.6094H52.1361V27.6174H55.2241V24.6094Z" fill="#39B54A"></path>
    <path d="M45.8161 36.8018H42.7281V39.8098H45.8161V36.8018Z" fill="#39B54A"></path>
    <path d="M41.1439 28.3369H37.9919V31.3449H41.1439V28.3369Z" fill="#39B54A"></path>
    <path d="M37.9921 32.2414V35.7934C37.9921 36.6254 37.5441 37.1374 36.7921 37.1374C36.0881 37.1374 35.5761 36.6894 35.5761 35.7774V24.6094H35.1281C33.2401 24.6094 32.2321 25.8254 32.2321 28.1934V35.8734C32.2321 38.7534 33.8801 40.0494 36.6001 40.0494C39.1601 40.0494 41.1601 38.5774 41.1441 35.8094V32.2574H37.9921V32.2414Z" fill="#356388"></path>
    <path d="M27.048 24.6094H25.048C23.16 24.6094 22.152 25.8254 22.152 28.1934V39.8254H25.48V34.4174H26.952C29.704 34.4174 30.872 32.4974 30.872 29.3134C30.872 26.2094 29.544 24.6094 27.048 24.6094ZM26.44 31.7134H25.48V27.3454H26.456C27.24 27.3454 27.624 27.9374 27.624 29.4094C27.624 30.9774 27.208 31.7134 26.44 31.7134Z" fill="#3C9CD7"></path>
    <path d="M6.53602 24.6094H4.53602C2.64802 24.6094 1.64001 25.8254 1.64001 28.1934V39.8254H4.96801V34.4174H6.44001C9.19201 34.4174 10.36 32.4974 10.36 29.3134C10.36 26.2094 9.03201 24.6094 6.53602 24.6094ZM5.91201 31.7134H4.95201V27.3454H5.92801C6.71201 27.3454 7.09601 27.9374 7.09601 29.4094C7.11201 30.9774 6.68001 31.7134 5.91201 31.7134Z" fill="#3C9CD7"></path>
    <path d="M20.0721 24.6094C18.1841 24.6094 17.1761 25.8254 17.1761 28.1934V30.3694V30.6734H14.8081V30.3694V24.6094H14.3761C12.4881 24.6094 11.4801 25.8254 11.4801 28.1934V39.8254H14.8081V33.9854V33.6814H17.1761V33.9854V39.8254H20.4881V24.6254H20.0721V24.6094Z" fill="#3C9CD7"></path>
    <path d="M62.1361 30.833V28.449H60.5841V25.873H59.6081C58.2481 25.873 57.5121 26.753 57.5121 28.449H56.5041V30.833H57.5121V37.553C57.5121 39.233 58.7121 39.985 60.2161 39.985C60.8081 39.985 61.5601 39.873 62.1201 39.681V37.233C61.8801 37.281 61.5441 37.297 61.2241 37.297C60.7281 37.297 60.5841 37.057 60.5841 36.641V30.833H62.1361Z" fill="#356388"></path>
    <path d="M48.1841 28.0811C47.1761 28.0811 46.3761 28.5131 45.8161 29.3131V28.3371H44.8081C43.4481 28.3371 42.7121 29.2171 42.7121 30.9131V35.9051H45.8001V31.8571C45.8001 31.1691 46.1361 30.6571 46.6481 30.6571C47.3361 30.6571 47.4801 31.1851 47.4801 31.6651V39.8091H50.5521V30.5131C50.5841 29.0091 49.5121 28.0811 48.1841 28.0811Z" fill="#356388"></path>
    <path d="M54.2321 28.4502C52.8721 28.4502 52.1361 29.3302 52.1361 31.0262V39.8102H55.2241V28.4502H54.2321Z" fill="#356388"></path>
  </g>
  <defs>
    <clipPath id="clip0_14222_26328">
      <rect width="60.8" height="16" fill="white" transform="translate(1.59998 24.4014)"></rect>
    </clipPath>
  </defs>
</svg>
