<?xml version="1.0" encoding="UTF-8"?>
<svg xmlns="http://www.w3.org/2000/svg" width="64" height="65" viewBox="0 0 64 65" fill="none">
  <g clip-path="url(#clip0_14222_26344)">
    <path d="M51.8391 45.3349L33.2882 56.0532C32.8971 56.2809 32.4526 56.4009 32.0001 56.4009C31.5475 56.4009 31.103 56.2809 30.7119 56.0532L12.161 45.3353C11.3623 44.8714 10.8729 44.0213 10.8729 43.119V21.6833C10.8729 20.7559 11.3623 19.9313 12.161 19.4674L30.7119 8.74915C31.103 8.52137 31.5475 8.40137 32.0001 8.40137C32.4526 8.40137 32.8971 8.52137 33.2882 8.74915L51.8391 19.467C52.6378 19.9309 53.1272 20.781 53.1272 21.6833V43.1194C53.1017 44.0213 52.6119 44.871 51.8391 45.3349Z" fill="#8D6748"></path>
    <path d="M31.9741 11.6602C31.5878 11.6602 31.2012 11.764 30.866 11.9699L14.8403 21.2197C14.1447 21.6059 13.733 22.3529 13.733 23.1262V41.6249C13.733 42.4237 14.1447 43.1455 14.8403 43.5322L30.866 52.7815C31.2012 52.9878 31.5875 53.0905 31.9741 53.0905C32.3603 53.0905 32.7473 52.9878 33.0822 52.7815L49.1078 43.5322C49.8035 43.1459 50.216 42.3982 50.216 41.6253V23.1262C50.216 22.3274 49.8035 21.6059 49.1078 21.2197L33.0822 11.9699C32.7485 11.7665 32.3649 11.6594 31.9741 11.6605V11.6602ZM31.9741 12.4334C32.2317 12.4334 32.4638 12.511 32.6956 12.6397L48.7212 21.8894C48.9398 22.0201 49.1211 22.205 49.2474 22.4262C49.3738 22.6473 49.4411 22.8973 49.4427 23.152V41.6508C49.4427 42.1664 49.1592 42.6558 48.7212 42.9134L32.6956 52.1632C32.4638 52.2918 32.2317 52.3694 31.9741 52.3694C31.7192 52.3683 31.4695 52.297 31.2526 52.1632L15.227 42.9134C15.0084 42.7827 14.8272 42.5979 14.7008 42.3768C14.5745 42.1557 14.5072 41.9058 14.5055 41.6512V23.152C14.5055 22.6364 14.789 22.147 15.227 21.8894L31.2526 12.6397C31.4847 12.511 31.7423 12.4334 31.9741 12.4334ZM32.0641 19.699C31.7292 20.1115 31.1626 20.5495 31.781 21.4769C31.9872 21.7087 32.09 22.1984 32.0645 22.3529C32.0645 22.3529 32.9918 21.8122 32.4248 20.833C32.09 20.3178 31.9351 19.8794 32.0641 19.699ZM31.034 20.6527C30.8018 20.9362 30.4415 21.2193 30.8536 21.8635C30.9822 21.9922 31.0336 22.3274 31.0336 22.4305C31.0336 22.4305 31.6523 22.0698 31.2661 21.4C31.034 21.0652 30.9312 20.7558 31.034 20.6527ZM29.1526 22.8689C29.0844 22.869 29.019 22.8961 28.9708 22.9444C28.9226 22.9926 28.8954 23.058 28.8953 23.1262C28.8953 24.0022 29.024 27.0164 30.3125 28.4849C30.3351 28.5101 30.3629 28.5301 30.394 28.5435C30.425 28.5569 30.4586 28.5634 30.4925 28.5625H32.657C32.6908 28.5635 32.7245 28.557 32.7556 28.5437C32.7868 28.5304 32.8146 28.5104 32.8373 28.4853C34.1258 27.0423 34.2545 24.0277 34.2545 23.1262C34.2544 23.0578 34.2271 22.9923 34.1788 22.944C34.1304 22.8957 34.0648 22.8685 33.9965 22.8685L29.1526 22.8689ZM29.9 23.6669H33.3012C33.3695 23.6672 33.4349 23.6945 33.4832 23.7428C33.5315 23.7912 33.5586 23.8566 33.5588 23.9249C33.5588 24.6464 33.4298 26.6812 32.5538 27.7379C32.4766 27.7893 32.4252 27.8155 32.348 27.8155H30.8277C30.7938 27.8164 30.7601 27.81 30.729 27.7966C30.6979 27.7832 30.67 27.7631 30.6473 27.7379C29.7713 26.7074 29.6686 24.6464 29.6423 23.9249C29.6425 23.8566 29.6697 23.7912 29.718 23.7428C29.7663 23.6945 29.8317 23.6672 29.9 23.6669ZM33.1463 25.4189C33.1463 25.4189 33.1208 25.6514 32.5025 25.8832C31.6523 26.1922 30.158 25.9859 30.158 25.9859C30.2866 26.527 30.4925 27.0423 30.8018 27.4289C30.8277 27.4803 30.9046 27.5058 30.9563 27.5058H32.2448C32.2962 27.5058 32.3476 27.4803 32.3993 27.4289C32.8373 26.9137 33.0436 26.1145 33.1463 25.4189ZM15.575 26.6815V26.9654H28.7412C28.7412 26.8623 28.7153 26.7847 28.7153 26.6815H15.575ZM34.4607 26.6815C34.4607 26.7847 34.4348 26.8623 34.4348 26.9654H48.425V26.6815H34.4607ZM25.958 29.4899C25.5717 29.4899 25.2106 29.5413 24.8757 29.6962C24.5408 29.8248 24.2573 30.031 24.0256 30.2628C23.782 30.5056 23.5892 30.7947 23.4586 31.1129C23.33 31.4482 23.2531 31.7827 23.2531 32.1434V32.1697C23.2531 32.53 23.33 32.8912 23.4586 33.2005C23.5876 33.5354 23.768 33.8185 23.9997 34.0507C24.2315 34.2824 24.5153 34.4887 24.8502 34.6173C25.1951 34.7522 25.5621 34.822 25.9325 34.8232C26.3187 34.8232 26.6791 34.7722 27.0143 34.6173C27.3492 34.4887 27.6331 34.2824 27.8648 34.0507C28.1085 33.8078 28.3012 33.5188 28.4318 33.2005C28.5605 32.8653 28.6373 32.53 28.6373 32.1693V32.1434C28.6364 31.7898 28.5666 31.4398 28.4318 31.1129C28.3028 30.778 28.1225 30.4949 27.8907 30.2628C27.659 30.031 27.3751 29.8248 27.0402 29.6962C26.6953 29.5611 26.3284 29.4911 25.958 29.4899ZM33.0691 29.4899C32.6566 29.4899 32.3221 29.5672 31.9872 29.6962C31.6523 29.8248 31.3685 30.031 31.1367 30.2628C30.9093 30.5133 30.7263 30.8008 30.5956 31.1129C30.4607 31.4398 30.3908 31.7898 30.3897 32.1434V32.1697C30.3897 32.53 30.4666 32.8653 30.5956 33.2005C30.7242 33.5354 30.9046 33.8185 31.1367 34.0507C31.3685 34.2824 31.6523 34.4887 31.9617 34.6173C32.2877 34.7546 32.6381 34.8246 32.9918 34.8232C33.224 34.8232 33.4557 34.8232 33.6875 34.7718C33.8678 34.7463 34.0737 34.669 34.2286 34.5918C34.3831 34.5142 34.5376 34.4365 34.6921 34.3079C34.847 34.1789 34.9756 34.0758 35.1046 33.9213L34.5121 33.3288C34.28 33.535 34.0482 33.6895 33.842 33.8185C33.6357 33.9472 33.353 33.9985 33.0436 33.9985C32.8118 33.9985 32.5793 33.9217 32.3735 33.8444C32.1672 33.7672 31.9868 33.6123 31.8323 33.4578C31.6778 33.2774 31.5488 33.097 31.4716 32.8653C31.3943 32.6328 31.343 32.401 31.343 32.1434V32.1183C31.343 31.8862 31.3943 31.654 31.4716 31.4219C31.5747 31.2157 31.6778 31.0102 31.8323 30.8557C31.9907 30.6985 32.1734 30.5681 32.3735 30.4694C32.5797 30.3659 32.786 30.3145 33.0436 30.3145C33.353 30.3145 33.6098 30.3663 33.8423 30.4949C34.0731 30.6259 34.2891 30.7813 34.4866 30.9584L35.0791 30.2887C34.9501 30.16 34.8211 30.0569 34.6921 29.9538C34.5635 29.8507 34.409 29.7734 34.2545 29.6962C34.0745 29.6444 33.9196 29.593 33.7133 29.5417C33.5071 29.5154 33.3008 29.4899 33.0691 29.4899ZM45.179 29.5672L42.9113 34.7459H43.8391L44.3798 33.5095H46.8016L47.3176 34.7463H48.2701L46.0032 29.5675L45.179 29.5672ZM16.2188 29.5934V34.7722H17.1207V31.087L18.7182 33.4833H18.7441L20.3671 31.0619V34.7463H21.269V29.5927H20.3157L18.7437 32.0152L17.1721 29.5934H16.2188ZM36.9083 29.5934V34.7459H37.8098V32.5818H40.2833V34.7463H41.1852V29.5927H40.2833V31.7313H37.8098V29.5927L36.9083 29.5934ZM25.9325 30.3142C26.1901 30.3142 26.4222 30.3655 26.6281 30.4687C26.8281 30.5675 27.0109 30.6981 27.1692 30.8553C27.3237 31.0357 27.4527 31.2157 27.53 31.4478C27.6072 31.6795 27.6586 31.9113 27.6586 32.1689V32.1952C27.6586 32.4265 27.6072 32.6587 27.53 32.8904C27.4268 33.0967 27.3237 33.3029 27.1692 33.4574C27.0109 33.6146 26.8282 33.745 26.6281 33.8437C26.4218 33.9472 26.1901 33.9985 25.9325 33.9985C25.7007 33.9985 25.4427 33.9472 25.2365 33.844C25.0365 33.7453 24.8539 33.6147 24.6957 33.4574C24.5412 33.277 24.4126 33.0967 24.3353 32.8649C24.2577 32.6324 24.206 32.4007 24.206 32.143V32.1179C24.206 31.8858 24.2577 31.6537 24.3353 31.4215C24.4381 31.2153 24.5416 31.0098 24.6957 30.8553C24.8539 30.6981 25.0365 30.5677 25.2365 30.469C25.4427 30.3655 25.6752 30.3142 25.9325 30.3142ZM45.5907 30.649L46.4667 32.71H44.7147L45.5907 30.649ZM15.575 36.3693V36.6524H48.425V36.3693H15.575Z" fill="white"></path>
  </g>
  <defs>
    <clipPath id="clip0_14222_26344">
      <rect width="48" height="48" fill="white" transform="translate(8 8.40137)"></rect>
    </clipPath>
  </defs>
</svg>
