<?xml version="1.0" encoding="UTF-8"?>
<svg xmlns="http://www.w3.org/2000/svg" width="64" height="65" viewBox="0 0 64 65" fill="none">
  <g clip-path="url(#clip0_14222_26350)">
    <path d="M50.7902 32.0959C50.7902 29.6922 48.969 27.6694 46.524 27.0922L51.9999 12.4375H24.8624L30.3509 27.1384C27.9827 27.7622 26.2371 29.7497 26.2371 32.1081C26.2371 33.8412 27.1927 35.3781 28.6443 36.3256C28.0718 37.0653 27.409 37.7475 26.6581 38.3944C25.2446 39.5969 23.6771 40.5209 21.984 41.1337C20.4559 40.1975 19.794 38.5447 20.3921 37.065C22.7224 36.4181 24.4171 34.4419 24.4171 32.1191C24.4171 29.265 21.8571 26.9528 18.7234 26.9528C15.5777 26.9528 13.0193 29.2759 13.0193 32.1309C13.0193 33.5412 13.6553 34.835 14.6746 35.7591C14.5853 35.9216 14.4965 36.0825 14.4071 36.2559C13.554 37.8516 12.5859 39.6544 12.2159 41.6772C11.4774 45.7212 12.6871 48.9697 15.6034 50.8069C17.2465 51.8359 19.0556 52.3559 21.004 52.3559C24.3521 52.3559 27.7531 50.83 31.0381 49.3503C33.3818 48.2994 35.8012 47.2006 38.1827 46.6697C39.0618 46.4731 39.9784 46.3572 40.9465 46.2303C42.9068 45.9762 44.9321 45.7103 46.7534 44.7509C48.8799 43.6303 50.3315 41.7575 50.7524 39.6081C51.0696 37.955 50.7524 36.2912 49.9368 34.835C50.4939 34.0304 50.7919 33.0746 50.7902 32.0959ZM48.3074 32.0959C48.3074 33.7022 46.8681 35.0084 45.0981 35.0084C43.3281 35.0084 41.8887 33.7022 41.8887 32.0959C41.8887 31.5756 42.0415 31.0791 42.3087 30.6516C42.4102 30.4891 42.5384 30.3281 42.6649 30.1891C42.7991 30.046 42.9486 29.9183 43.1109 29.8081L43.1243 29.7959C43.2256 29.7266 43.3402 29.6569 43.4549 29.5884C43.4549 29.5884 43.4674 29.5884 43.4674 29.5762C43.5184 29.5531 43.5696 29.5187 43.6212 29.4956C43.6334 29.4956 43.6456 29.4834 43.6587 29.4834C43.7102 29.4616 43.7737 29.4384 43.8368 29.415C43.8971 29.394 43.9566 29.3708 44.0152 29.3456C44.0277 29.3456 44.0409 29.3331 44.0531 29.3331C44.1043 29.3225 44.1556 29.2991 44.2059 29.2881C44.2193 29.2881 44.2449 29.2759 44.2571 29.2759C44.3206 29.265 44.3718 29.2528 44.4352 29.2416H44.4487L44.6393 29.2062C44.6524 29.2062 44.6768 29.2062 44.6902 29.1953C44.7415 29.1953 44.7918 29.1831 44.8431 29.1831H44.9065C44.9699 29.1831 45.0346 29.1722 45.1102 29.1722H45.2762C45.3262 29.1722 45.3656 29.1722 45.4156 29.1831H45.4412C45.5437 29.1956 45.6449 29.2062 45.7474 29.2297C47.199 29.5066 48.3074 30.6859 48.3074 32.0959ZM28.4146 14.7484H48.4465L43.8493 27.0569C43.6587 27.0922 43.4671 27.1494 43.2768 27.2069L38.4381 18.2506L33.5856 27.1491C33.394 27.0919 33.1903 27.0566 32.9874 27.0222L28.4146 14.7484ZM37.5199 31.0897C37.2784 30.0031 36.6668 29.0328 35.8012 28.3162L38.4381 23.4859L41.099 28.42C40.3093 29.1366 39.7365 30.0497 39.5071 31.0897H37.5199ZM31.1406 29.2647C31.204 29.2522 31.2552 29.2416 31.3187 29.2294H31.3565C31.4077 29.2184 31.4593 29.2184 31.5093 29.2059H31.5606C31.6118 29.2059 31.6496 29.195 31.7009 29.195H32.1978C32.2477 29.195 32.2868 29.2059 32.3246 29.2059C32.3502 29.2059 32.3624 29.2059 32.3881 29.2184C32.4393 29.2294 32.4771 29.2294 32.5287 29.2416C32.5406 29.2416 32.554 29.2416 32.5796 29.2525C32.6434 29.2647 32.7068 29.2756 32.7577 29.2878H32.7702C32.8215 29.2987 32.8727 29.3097 32.9227 29.3331C32.9362 29.3331 32.9484 29.3453 32.974 29.3453C33.0118 29.3562 33.0631 29.3684 33.1009 29.3916C33.1143 29.3916 33.1265 29.4025 33.1399 29.4025C33.1899 29.4259 33.2415 29.4381 33.2927 29.4612H33.3049C33.3684 29.4831 33.4196 29.5062 33.4709 29.5419H33.4834C33.5343 29.565 33.5856 29.5991 33.6368 29.6222C33.6493 29.6222 33.6493 29.6347 33.6612 29.6347C33.7124 29.6566 33.7506 29.6919 33.8018 29.715L33.8152 29.7259C33.9677 29.83 34.1081 29.9459 34.2471 30.0619L34.2606 30.0728C34.3877 30.1997 34.5146 30.3387 34.6171 30.4891C34.9481 30.9516 35.1396 31.495 35.1396 32.0844C35.1396 33.6909 33.7002 34.9959 31.9302 34.9959C30.1602 34.9959 28.7209 33.6909 28.7209 32.0844C28.7077 30.7319 29.7393 29.5881 31.1406 29.2647ZM18.6087 29.1828C20.379 29.1828 21.8181 30.4891 21.8181 32.0953C21.8181 33.7019 20.379 35.0078 18.6087 35.0078C16.8387 35.0078 15.3993 33.7019 15.3993 32.0953C15.3993 30.4891 16.8387 29.1828 18.6087 29.1828ZM48.2306 39.2037C47.9509 40.6819 46.9437 41.9772 45.4668 42.7509C44.0787 43.4797 42.3721 43.7103 40.5765 43.9412C39.5965 44.0681 38.5649 44.2072 37.5712 44.4269C34.9224 45.0166 32.3759 46.1725 29.9052 47.2809C26.7471 48.7031 23.7662 50.0434 21.004 50.0434C19.5646 50.0434 18.2781 49.6737 17.0562 48.8997C14.2546 47.1431 14.3937 43.8497 14.7259 42.0466C15.0309 40.3584 15.8843 38.7753 16.6996 37.2616C16.7496 37.1687 16.7887 37.0881 16.8387 36.9953C17.1196 37.0881 17.4124 37.1578 17.7178 37.2041C17.2343 39.6541 18.6087 42.1847 21.2834 43.4334L21.7677 43.6641L22.2893 43.4906C24.5184 42.7741 26.5812 41.6072 28.4024 40.0469C29.434 39.1681 30.3131 38.2209 31.0515 37.1919C31.3443 37.2384 31.6374 37.2506 31.9302 37.2506C34.5793 37.2506 36.8071 35.5975 37.4443 33.3784H39.5831C40.2202 35.6087 42.449 37.2503 45.0981 37.2503C46.1552 37.2503 47.1356 36.9847 47.9752 36.5341C48.3074 37.4006 48.4087 38.3016 48.2306 39.2037Z" fill="#99425B"></path>
  </g>
  <defs>
    <clipPath id="clip0_14222_26350">
      <rect width="40" height="40" fill="white" transform="translate(12 12.4014)"></rect>
    </clipPath>
  </defs>
</svg>
