<?xml version="1.0" encoding="UTF-8"?>
<svg xmlns="http://www.w3.org/2000/svg" width="64" height="65" viewBox="0 0 64 65" fill="none">
  <g clip-path="url(#clip0_14911_26685)">
    <path d="M45.6841 29.4725C46.4066 27.2967 46.1565 24.915 44.9978 22.9367C43.2555 19.904 39.7537 18.344 36.3338 19.077C34.4066 16.9332 31.4824 15.98 28.662 16.576C25.8416 17.172 23.553 19.2269 22.6579 21.9671C20.4115 22.4278 18.4726 23.8343 17.3374 25.8268C15.5761 28.8547 15.9759 32.674 18.3259 35.2715C17.6007 37.4464 17.8485 39.8283 19.0059 41.8073C20.7504 44.841 24.2545 46.4009 27.6762 45.667C29.1982 47.3808 31.3847 48.3559 33.6767 48.3431C37.1821 48.3462 40.2876 46.0833 41.3584 42.7454C43.6045 42.284 45.5431 40.8776 46.679 38.8857C48.4189 35.8632 48.0175 32.0645 45.6841 29.4725ZM33.6767 46.2526C32.2776 46.2548 30.9223 45.7644 29.8485 44.8674L30.0374 44.7603L36.3968 41.0895C36.7188 40.9006 36.9174 40.556 36.9194 40.1828V31.2166L39.608 32.7718C39.6349 32.7855 39.6536 32.8113 39.6584 32.8411V40.2709C39.6515 43.5716 36.9774 46.2457 33.6767 46.2526ZM20.8193 40.7621C20.1177 39.5505 19.8657 38.1302 20.1078 36.7512L20.2967 36.8645L26.6625 40.5354C26.9832 40.7236 27.3807 40.7236 27.7014 40.5354L35.4775 36.0523V39.1565C35.4761 39.189 35.4598 39.2192 35.4335 39.2383L28.9922 42.9532C26.1298 44.6022 22.4729 43.6217 20.8193 40.7621ZM19.1445 26.9098C19.851 25.6904 20.9662 24.7603 22.2927 24.2842V31.84C22.2878 32.2118 22.4857 32.5568 22.809 32.7403L30.5474 37.2045L27.8588 38.7598C27.8293 38.7754 27.7939 38.7754 27.7643 38.7598L21.3356 35.0512C18.4789 33.3953 17.4992 29.7411 19.1445 26.8783V26.9098ZM41.2325 32.0414L33.469 27.5332L36.1513 25.9842C36.1808 25.9686 36.2162 25.9686 36.2457 25.9842L42.6744 29.6992C44.6808 30.857 45.8384 33.0692 45.6457 35.3777C45.453 37.6862 43.9446 39.6759 41.774 40.485V32.9292C41.7627 32.5585 41.5569 32.2212 41.2325 32.0414ZM43.9085 28.018L43.7196 27.9047L37.3665 24.2023C37.0438 24.013 36.6439 24.013 36.3213 24.2023L28.5514 28.6854V25.5813C28.548 25.5491 28.5625 25.5177 28.5892 25.4994L35.0179 21.7908C37.0292 20.6321 39.5291 20.7402 41.4329 22.0683C43.3367 23.3963 44.3014 25.705 43.9085 27.9928V28.018ZM27.0843 33.5211L24.3957 31.9722C24.3686 31.9557 24.3501 31.928 24.3454 31.8966V24.4857C24.3484 22.1649 25.6923 20.0549 27.794 19.0707C29.8958 18.0865 32.377 18.4055 34.1616 19.8892L33.9727 19.9963L27.6132 23.6671C27.2913 23.856 27.0926 24.2006 27.0906 24.5738L27.0843 33.5211ZM28.5451 30.3729L32.0082 28.3769L35.4775 30.3729V34.3648L32.0208 36.3608L28.5514 34.3648L28.5451 30.3729Z" fill="#131426"></path>
  </g>
  <defs>
    <clipPath id="clip0_14911_26685">
      <rect width="31.5077" height="32" fill="white" transform="translate(16.2461 16.4014)"></rect>
    </clipPath>
  </defs>
</svg>
