<?xml version="1.0" encoding="UTF-8"?>
<svg xmlns="http://www.w3.org/2000/svg" width="64" height="65" viewBox="0 0 64 65" fill="none">
  <g clip-path="url(#clip0_14911_26711)">
    <path d="M34.1331 21.3242V26.2475L42.6599 31.1708V26.2475L34.1331 21.3242ZM17.0791 26.2475V31.1708L21.3425 33.632V28.7092L17.0791 26.2475ZM29.8692 28.7092L25.6059 31.1708V45.9398L29.8692 48.4014V38.5553L34.1331 41.017V36.0936L29.8692 33.632V28.7092Z" fill="#E55B2D"></path>
    <path d="M34.1334 21.3242L21.3428 28.7092V33.632L29.8695 28.7092V33.632L34.1334 31.1708V21.3242ZM46.924 23.7859L42.6602 26.2475V31.1708L46.924 28.7092V23.7859ZM38.3968 33.632L34.1334 36.0936V41.017L38.3968 38.5553V33.632ZM34.1334 41.017L29.8695 38.5553V48.4014L34.1334 45.9398V41.017Z" fill="#ED8E24"></path>
    <path d="M34.1331 16.4014L17.0791 26.2475L21.3425 28.7091L34.1331 21.3242L42.6599 26.2475L46.9237 23.7858L34.1331 16.4014ZM34.1331 31.1708L29.8692 33.6319L34.1331 36.0936L38.3965 33.6319L34.1331 31.1708Z" fill="#F8BF3C"></path>
  </g>
  <defs>
    <clipPath id="clip0_14911_26711">
      <rect width="29.8446" height="32" fill="white" transform="translate(17.0781 16.4014)"></rect>
    </clipPath>
  </defs>
</svg>
