<?xml version="1.0" encoding="UTF-8"?>
<svg xmlns="http://www.w3.org/2000/svg" width="64" height="65" viewBox="0 0 64 65" fill="none">
  <path d="M45.5371 22.7639L42.0871 26.2139C47.7496 31.8764 47.7496 40.9889 42.0871 46.5764C36.4246 52.2389 27.3121 52.2389 21.7246 46.5764C16.0621 40.9139 16.0621 31.8014 21.7246 26.2139L30.7246 17.2139L31.9996 15.9389V9.15137L18.4246 22.7264C10.8871 30.2639 10.8871 42.4514 18.4246 50.0264C25.9621 57.6014 38.1496 57.5639 45.5746 50.0264C53.1121 42.4514 53.1121 30.3389 45.5371 22.7639Z" fill="#EE4C2C"></path>
  <path d="M41.2883 19.4619C41.314 18.0746 40.2101 16.9291 38.8228 16.9034C37.4355 16.8777 36.29 17.9815 36.2643 19.3689C36.2386 20.7562 37.3424 21.9017 38.7298 21.9274C40.1171 21.9531 41.2626 20.8492 41.2883 19.4619Z" fill="#EE4C2C"></path>
</svg>
