<?xml version="1.0" encoding="UTF-8"?>
<svg xmlns="http://www.w3.org/2000/svg" width="64" height="65" viewBox="0 0 64 65" fill="none">
  <path d="M50.3266 33.377C53.7031 35.3558 55.9723 39.0121 55.9794 43.1986C55.9914 49.5005 50.873 54.6185 44.5494 54.6286C38.2258 54.6406 33.0898 49.5398 33.0781 43.238C33.0706 39.0515 35.3266 35.3881 38.6971 33.3957L41.9874 38.9375C42.0695 39.0762 42.0226 39.2551 41.8891 39.3462C40.6441 40.19 39.8281 41.6135 39.8311 43.2263C39.8356 45.812 41.9435 47.9052 44.5374 47.8992C47.132 47.8947 49.2309 45.7955 49.2264 43.2102C49.2238 41.5977 48.4033 40.1765 47.1553 39.3372C47.0221 39.2465 46.9738 39.0676 47.0555 38.9285L50.3266 33.377Z" fill="#128DFF"></path>
  <path d="M25.0534 33.3095C23.3448 32.3558 21.4201 31.8565 19.4633 31.8594C13.1382 31.8594 8.0127 36.9688 8.0127 43.2706C8.0127 49.5721 13.1382 54.6819 19.4633 54.6819C25.8181 54.6819 31.0696 49.3055 30.9098 42.9774H24.4643C24.2944 42.9774 24.1613 43.121 24.1598 43.2894C24.1437 45.8105 22.0328 47.9521 19.4633 47.9521C16.8676 47.9521 14.7657 45.8559 14.7657 43.2703C14.7657 40.685 16.8676 38.5888 19.4633 38.5888C20.1417 38.5888 20.7878 38.7324 21.3706 38.9915C21.5142 39.0545 21.6841 39.0065 21.7632 38.873L25.0534 33.3095Z" fill="#8BDA67"></path>
  <path d="M25.9789 31.5194C22.6069 29.5345 20.3438 25.8741 20.3438 21.6876C20.3438 15.3857 25.4707 10.2764 31.7944 10.2764C38.118 10.2764 43.245 15.3857 43.245 21.6876C43.245 25.8741 40.9819 29.5345 37.6099 31.5194L34.3282 25.9739C34.2461 25.8351 34.293 25.6562 34.428 25.5651C35.673 24.7229 36.4916 23.3005 36.4916 21.6876C36.4916 19.1024 34.3882 17.0061 31.794 17.0061C29.1997 17.0061 27.0964 19.1024 27.0964 21.688C27.0964 23.3005 27.915 24.7229 29.1604 25.5655C29.2954 25.6562 29.3419 25.8347 29.2597 25.9742L25.9789 31.5194Z" fill="#FF2A44"></path>
</svg>
