<?xml version="1.0" encoding="UTF-8"?>
<svg xmlns="http://www.w3.org/2000/svg" width="64" height="65" viewBox="0 0 64 65" fill="none">
  <path d="M51.4599 29.7055C50.4734 29.0419 47.8823 28.7592 45.9984 29.2659C45.8971 27.3902 44.9293 25.8094 43.1585 24.431L42.5034 23.9915L42.0667 24.651C41.2086 25.9531 40.8467 27.6886 40.9744 29.2665C41.0756 30.2387 41.4137 31.3311 42.0667 32.1238C39.6144 33.5455 37.3543 33.2226 27.3444 33.2226H11.8902C11.8451 35.4821 12.2084 39.8271 14.9732 43.3646C15.2784 43.7553 15.6132 44.1337 15.9769 44.4977C18.2247 46.7472 21.6214 48.3973 26.7001 48.4014C34.4478 48.4086 41.0864 44.2225 45.1245 34.102C46.4537 34.1238 49.9609 34.3397 51.6772 31.0248C51.7191 30.9689 52.1142 30.1457 52.1142 30.1457L51.4599 29.7055ZM21.9766 27.3736H17.6307V31.7169H21.9766V27.3736ZM27.5905 27.3736H23.2446V31.7169H27.5905V27.3736ZM33.2051 27.3736H28.8595V31.7169H33.2051V27.3736ZM38.8193 27.3736H34.474V31.7169H38.8199V27.3736H38.8193ZM16.3617 27.3736H12.0161V31.7169H16.3617V27.3736ZM21.9766 21.8879H17.6307V26.2312H21.9766V21.8879ZM27.5905 21.8879H23.2446V26.2312H27.5905V21.8879ZM33.2051 21.8879H28.8595V26.2312H33.2051V21.8879ZM33.2051 16.4014H28.8595V20.7446H33.2051V16.4014Z" fill="#1D63ED"></path>
</svg>
