<?xml version="1.0" encoding="UTF-8"?>
<svg xmlns="http://www.w3.org/2000/svg" width="64" height="65" viewBox="0 0 64 65" fill="none">
  <g clip-path="url(#clip0_14911_26741)">
    <path d="M45.135 23.88C44.9534 23.299 44.5176 22.8269 43.9729 22.5364L32.8967 17.2343C32.6062 17.089 32.2793 17.0527 31.9888 17.0527C31.6983 17.0527 31.3715 17.0527 31.0809 17.1254L20.0047 22.4637C19.46 22.7179 19.0605 23.19 18.9153 23.8074L16.1916 35.7551C16.0827 36.3725 16.2279 36.9899 16.5911 37.4983L24.2536 46.9766C24.6894 47.4124 25.3068 47.7029 25.9241 47.7392H38.1261C38.7798 47.8118 39.3971 47.5213 39.7966 46.9766L47.4592 37.4983C47.8223 36.9899 47.9676 36.3725 47.8949 35.7551L45.135 23.88Z" fill="#326DE6"></path>
    <path d="M43.4291 35.2832C43.3928 35.2832 43.3565 35.2832 43.3565 35.2468C43.3565 35.2105 43.2839 35.2105 43.2112 35.2105C43.066 35.1742 42.9207 35.1742 42.7754 35.1742C42.7028 35.1742 42.6302 35.1742 42.5575 35.1379H42.5212C42.1218 35.1016 41.686 35.029 41.2865 34.92C41.1776 34.8837 41.0686 34.7747 41.0323 34.6658L40.7418 34.5932C40.887 33.54 40.8144 32.4506 40.5965 31.3974C40.3423 30.3443 39.9065 29.3274 39.3255 28.4196L39.5434 28.2017V28.1654C39.5434 28.0564 39.5797 27.9111 39.6523 27.8385C39.9792 27.548 40.306 27.3301 40.6691 27.1122C40.7418 27.0759 40.8144 27.0396 40.887 27.0033C41.0323 26.9306 41.1412 26.858 41.2865 26.7854C41.3228 26.7491 41.3591 26.7491 41.3955 26.7127C41.4318 26.6764 41.3955 26.6764 41.3955 26.6401C41.7223 26.3859 41.7949 25.9501 41.5407 25.6233C41.4318 25.478 41.2139 25.3691 41.0323 25.3691C40.8507 25.3691 40.6691 25.4417 40.5239 25.5506L40.4876 25.587C40.4513 25.6233 40.4149 25.6596 40.3786 25.6596C40.2697 25.7685 40.1607 25.8775 40.0881 25.9864C40.0518 26.0591 39.9792 26.0954 39.9428 26.1317C39.6886 26.4222 39.3618 26.7127 39.035 26.9306C38.9623 26.9669 38.8897 27.0033 38.8171 27.0033C38.7808 27.0033 38.7081 27.0033 38.6718 26.9669H38.6355L38.345 27.1485C38.0544 26.858 37.7276 26.5675 37.4371 26.277C36.0934 25.2238 34.4229 24.5701 32.7161 24.3886L32.6798 24.098V24.1344C32.5708 24.0617 32.5345 23.9528 32.4982 23.8438C32.4982 23.4444 32.4982 23.0449 32.5708 22.6091V22.5728C32.5708 22.5002 32.6071 22.4275 32.6071 22.3549C32.6435 22.2096 32.6435 22.0644 32.6798 21.9191V21.7012C32.7161 21.3381 32.4256 20.9749 32.0624 20.9386C31.8445 20.9023 31.6266 21.0112 31.445 21.1928C31.2998 21.3381 31.2272 21.5196 31.2272 21.7012V21.8828C31.2272 22.0281 31.2635 22.1733 31.2998 22.3186C31.3361 22.3912 31.3361 22.4638 31.3361 22.5365V22.5728C31.4087 22.9723 31.4087 23.3717 31.4087 23.8075C31.3724 23.9165 31.3361 24.0254 31.2272 24.098V24.1707L31.1908 24.4612C30.7914 24.4975 30.3919 24.5701 29.9561 24.6428C28.2493 25.0059 26.6877 25.9138 25.4893 27.1848L25.2714 27.0396H25.2351C25.1988 27.0396 25.1625 27.0759 25.0899 27.0759C25.0172 27.0759 24.9446 27.0396 24.872 27.0033C24.5451 26.7491 24.2183 26.4585 23.9641 26.168C23.9278 26.0954 23.8551 26.0591 23.8188 26.0227C23.7099 25.9138 23.6372 25.8049 23.5283 25.6959C23.492 25.6596 23.4557 25.6596 23.4194 25.6233C23.383 25.587 23.383 25.587 23.383 25.587C23.2378 25.478 23.0562 25.4054 22.8746 25.4054C22.6567 25.4054 22.4752 25.478 22.3662 25.6596C22.1483 25.9864 22.2209 26.4222 22.5115 26.6764C22.5478 26.6764 22.5478 26.7127 22.5478 26.7127C22.5478 26.7127 22.6204 26.7854 22.6567 26.7854C22.7657 26.858 22.9109 26.9306 23.0562 27.0033C23.1288 27.0396 23.2015 27.0759 23.2741 27.1122C23.6372 27.3301 24.0004 27.548 24.2909 27.8385C24.3636 27.9111 24.4362 28.0564 24.3999 28.1654V28.129L24.6178 28.3469C24.5814 28.4196 24.5451 28.4559 24.5088 28.5285C23.383 30.308 22.9109 32.4143 23.2378 34.4842L22.9473 34.5569C22.9473 34.5932 22.9109 34.5932 22.9109 34.5932C22.8746 34.7021 22.7657 34.7747 22.6567 34.8474C22.2573 34.9563 21.8578 35.029 21.422 35.0653C21.3494 35.0653 21.2768 35.0653 21.2041 35.1016C21.0589 35.1016 20.9136 35.1379 20.7683 35.1379C20.732 35.1379 20.6957 35.1742 20.6231 35.1742C20.5868 35.1742 20.5868 35.1742 20.5504 35.2105C20.151 35.2832 19.8968 35.6463 19.9694 36.0458C20.042 36.3726 20.3689 36.5905 20.6957 36.5542C20.7683 36.5542 20.8047 36.5542 20.8773 36.5179C20.9136 36.5179 20.9136 36.5179 20.9136 36.4816C20.9136 36.4453 21.0225 36.4816 21.0589 36.4816C21.2041 36.4453 21.3494 36.3726 21.4583 36.3363C21.531 36.3 21.6036 36.2637 21.6762 36.2637H21.7125C22.112 36.1184 22.4752 36.0095 22.9109 35.9368H22.9473C23.0562 35.9368 23.1651 35.9732 23.2378 36.0458C23.2741 36.0458 23.2741 36.0821 23.2741 36.0821L23.6009 36.0458C24.1457 37.7163 25.1625 39.2052 26.5788 40.2947C26.9056 40.5489 27.1962 40.7668 27.5593 40.9484L27.3777 41.2026C27.3777 41.2389 27.414 41.2389 27.414 41.2389C27.4867 41.3478 27.4867 41.4931 27.4504 41.602C27.3051 41.9652 27.0872 42.3283 26.8693 42.6552V42.6915C26.833 42.7641 26.7967 42.8004 26.7241 42.8731C26.6514 42.9457 26.5788 43.091 26.4698 43.2362C26.4335 43.2725 26.4335 43.3089 26.3972 43.3452C26.3972 43.3452 26.3972 43.3815 26.3609 43.3815C26.1793 43.7446 26.3246 44.1804 26.6514 44.362C26.7241 44.3983 26.833 44.4346 26.9056 44.4346C27.1962 44.4346 27.4504 44.2531 27.5956 43.9988C27.5956 43.9988 27.5956 43.9625 27.6319 43.9625C27.6319 43.9262 27.6683 43.8899 27.7046 43.8536C27.7409 43.7083 27.8135 43.5994 27.8498 43.4541L27.9225 43.2362C28.0314 42.8368 28.213 42.4736 28.3946 42.1105C28.4672 42.0015 28.5761 41.9289 28.6851 41.8926C28.7214 41.8926 28.7214 41.8926 28.7214 41.8562L28.8667 41.5657C29.8835 41.9652 30.9366 42.1468 32.0261 42.1468C32.6798 42.1468 33.3334 42.0741 33.9871 41.8926C34.3866 41.8199 34.7861 41.6747 35.1492 41.5657L35.2945 41.8199C35.3308 41.8199 35.3308 41.8199 35.3308 41.8562C35.4397 41.8926 35.5487 41.9652 35.6213 42.0741C35.8029 42.4373 35.9845 42.8004 36.0934 43.1999V43.2362L36.166 43.4541C36.2024 43.5994 36.2387 43.7446 36.3113 43.8536C36.3476 43.8899 36.3476 43.9262 36.3839 43.9625C36.3839 43.9625 36.3839 43.9988 36.4203 43.9988C36.5655 44.2531 36.8197 44.4346 37.1102 44.4346C37.2192 44.4346 37.2918 44.3983 37.4008 44.362C37.546 44.2894 37.6913 44.1441 37.7276 43.9625C37.7639 43.781 37.7639 43.5994 37.6913 43.4178C37.6913 43.3815 37.655 43.3815 37.655 43.3815C37.655 43.3452 37.6187 43.3089 37.5823 43.2725C37.5097 43.1273 37.4371 43.0183 37.3281 42.9094C37.2918 42.8368 37.2555 42.8004 37.1829 42.7278V42.6552C36.9287 42.3283 36.7471 41.9652 36.6018 41.602C36.5655 41.4931 36.5655 41.3478 36.6381 41.2389C36.6381 41.2026 36.6745 41.2026 36.6745 41.2026L36.5655 40.912C38.4176 39.7863 39.8339 38.0431 40.4876 35.9732L40.7781 36.0095C40.8144 36.0095 40.8144 35.9732 40.8144 35.9732C40.887 35.9005 40.996 35.8642 41.1049 35.8642H41.1412C41.5407 35.9368 41.9402 36.0458 42.3033 36.191H42.3397C42.4123 36.2274 42.4849 36.2637 42.5575 36.2637C42.7028 36.3363 42.8118 36.4089 42.957 36.4453C42.9933 36.4453 43.0296 36.4816 43.1023 36.4816C43.1386 36.4816 43.1386 36.4816 43.1749 36.5179C43.2475 36.5542 43.2839 36.5542 43.3565 36.5542C43.6833 36.5542 43.9738 36.3363 44.0828 36.0458C44.0465 35.6463 43.756 35.3558 43.4291 35.2832ZM32.934 34.1574L31.9535 34.6295L30.9729 34.1574L30.7187 33.1042L31.4087 32.2327H32.4982L33.1882 33.1042L32.934 34.1574ZM38.8534 31.7969C39.035 32.5595 39.0713 33.3221 38.9986 34.0848L35.5487 33.1042C35.2218 33.0316 35.0403 32.7048 35.1129 32.3779C35.1492 32.269 35.1855 32.1964 35.2582 32.1237L37.9818 29.6543C38.3813 30.308 38.6718 31.0343 38.8534 31.7969ZM36.8924 28.3106L33.9145 30.4169C33.6603 30.5622 33.2971 30.5259 33.1156 30.2716C33.0429 30.199 33.0066 30.1264 33.0066 30.0174L32.7887 26.3496C34.3866 26.5312 35.8029 27.2212 36.8924 28.3106ZM30.3193 26.4585L31.0456 26.3133L30.864 29.9448C30.864 30.2716 30.5735 30.5259 30.2466 30.5259C30.1377 30.5259 30.0651 30.4895 29.9561 30.4532L26.9419 28.3106C27.8861 27.4027 29.0482 26.7491 30.3193 26.4585ZM25.8888 29.6543L28.5761 32.0511C28.8303 32.269 28.8667 32.6321 28.6488 32.8863C28.5761 32.9953 28.5035 33.0316 28.3582 33.0679L24.8357 34.0848C24.7267 32.5595 25.0899 30.998 25.8888 29.6543ZM25.2714 35.7916L28.8667 35.1742C29.1572 35.1742 29.4477 35.3558 29.484 35.6463C29.5203 35.7553 29.5203 35.9005 29.4477 36.0095L28.0677 39.3505C26.7967 38.5152 25.7799 37.2442 25.2714 35.7916ZM33.515 40.2947C33.0066 40.4036 32.4982 40.4763 31.9535 40.4763C31.1908 40.4763 30.3919 40.331 29.6656 40.1131L31.445 36.881C31.6266 36.6631 31.9171 36.5905 32.1714 36.7358C32.2803 36.8084 32.3529 36.881 32.4619 36.99L34.205 40.1494C33.9871 40.1857 33.7692 40.2221 33.515 40.2947ZM37.9455 37.1352C37.4008 38.0068 36.6381 38.7694 35.7666 39.3142L34.3503 35.9005C34.2776 35.61 34.4229 35.3195 34.6771 35.2105C34.7861 35.1742 34.895 35.1379 35.004 35.1379L38.6355 35.7553C38.4539 36.2637 38.236 36.7358 37.9455 37.1352Z" fill="white"></path>
  </g>
  <defs>
    <clipPath id="clip0_14911_26741">
      <rect width="32" height="30.7416" fill="white" transform="translate(16 17.0303)"></rect>
    </clipPath>
  </defs>
</svg>
