<?xml version="1.0" encoding="UTF-8"?>
<svg xmlns="http://www.w3.org/2000/svg" width="64" height="65" viewBox="0 0 64 65" fill="none">
  <g clip-path="url(#clip0_14911_26747)">
    <path d="M20.4289 28.0741C20.4289 28.7246 20.4992 29.2521 20.6223 29.6389C20.763 30.0257 20.9388 30.4477 21.1849 30.9049C21.2728 31.0455 21.308 31.1862 21.308 31.3093C21.308 31.4851 21.2025 31.6609 20.9739 31.8367L19.8662 32.5752C19.708 32.6807 19.5498 32.7334 19.4091 32.7334C19.2333 32.7334 19.0575 32.6455 18.8816 32.4873C18.6355 32.2235 18.4245 31.9422 18.2487 31.6609C18.0728 31.362 17.897 31.0279 17.7036 30.6235C16.3322 32.2411 14.6091 33.0499 12.5344 33.0499C11.0575 33.0499 9.87943 32.6279 9.0179 31.784C8.15636 30.94 7.7168 29.8148 7.7168 28.4082C7.7168 26.9137 8.24427 25.7005 9.3168 24.7862C10.3893 23.8719 11.8135 23.4148 13.6245 23.4148C14.2223 23.4148 14.8377 23.4675 15.4882 23.5554C16.1388 23.6433 16.8069 23.784 17.5102 23.9422V22.6587C17.5102 21.3224 17.2289 20.3906 16.6838 19.8455C16.1212 19.3005 15.1717 19.0367 13.8179 19.0367C13.2025 19.0367 12.5695 19.1071 11.919 19.2653C11.2684 19.4235 10.6355 19.6169 10.0201 19.8631C9.73878 19.9862 9.52779 20.0565 9.40471 20.0917C9.28163 20.1268 9.19372 20.1444 9.12339 20.1444C8.87724 20.1444 8.75416 19.9686 8.75416 19.5994V18.7378C8.75416 18.4565 8.78932 18.2455 8.87724 18.1224C8.96515 17.9994 9.12339 17.8763 9.36954 17.7532C9.98493 17.4367 10.7234 17.173 11.5849 16.962C12.4465 16.7334 13.3608 16.6279 14.3278 16.6279C16.4201 16.6279 17.9498 17.1027 18.9344 18.0521C19.9014 19.0016 20.3937 20.4433 20.3937 22.3774V28.0741H20.4289ZM13.2904 30.7466C13.8706 30.7466 14.4684 30.6411 15.1014 30.4301C15.7344 30.2191 16.297 29.8323 16.7717 29.3049C17.0531 28.9708 17.2641 28.6016 17.3695 28.1796C17.475 27.7576 17.5454 27.2477 17.5454 26.6499V25.9115C17.0355 25.7884 16.4904 25.6829 15.9278 25.6126C15.3651 25.5422 14.8201 25.5071 14.275 25.5071C13.097 25.5071 12.2355 25.7356 11.6553 26.2104C11.075 26.6851 10.7937 27.3532 10.7937 28.2323C10.7937 29.0587 11.0047 29.6741 11.4443 30.0961C11.8662 30.5356 12.4816 30.7466 13.2904 30.7466ZM27.4091 32.6455C27.0926 32.6455 26.8816 32.5928 26.741 32.4697C26.6003 32.3642 26.4772 32.118 26.3717 31.784L22.2399 18.1928C22.1344 17.8411 22.0816 17.6126 22.0816 17.4895C22.0816 17.2082 22.2223 17.0499 22.5036 17.0499H24.2267C24.5608 17.0499 24.7893 17.1027 24.9124 17.2257C25.0531 17.3312 25.1586 17.5774 25.2641 17.9115L28.2179 29.551L30.9608 17.9115C31.0487 17.5598 31.1542 17.3312 31.2948 17.2257C31.4355 17.1202 31.6816 17.0499 31.9981 17.0499H33.4047C33.7388 17.0499 33.9673 17.1027 34.108 17.2257C34.2487 17.3312 34.3717 17.5774 34.4421 17.9115L37.2201 29.6917L40.2619 17.9115C40.3673 17.5598 40.4904 17.3312 40.6135 17.2257C40.7542 17.1202 40.9827 17.0499 41.2992 17.0499H42.9344C43.2157 17.0499 43.3739 17.1906 43.3739 17.4895C43.3739 17.5774 43.3564 17.6653 43.3388 17.7708C43.3212 17.8763 43.286 18.0169 43.2157 18.2104L38.9783 31.8016C38.8728 32.1532 38.7498 32.3818 38.6091 32.4873C38.4684 32.5928 38.2399 32.6631 37.941 32.6631H36.4289C36.0948 32.6631 35.8662 32.6104 35.7256 32.4873C35.5849 32.3642 35.4619 32.1356 35.3915 31.784L32.6662 20.4433L29.9586 31.7664C29.8706 32.118 29.7651 32.3466 29.6245 32.4697C29.4838 32.5928 29.2377 32.6455 28.9212 32.6455H27.4091ZM50.0025 33.1202C49.0882 33.1202 48.1739 33.0148 47.2948 32.8038C46.4157 32.5928 45.73 32.3642 45.2728 32.1005C44.9915 31.9422 44.7981 31.7664 44.7278 31.6082C44.6575 31.4499 44.6223 31.2741 44.6223 31.1158V30.2191C44.6223 29.8499 44.763 29.6741 45.0267 29.6741C45.1322 29.6741 45.2377 29.6917 45.3432 29.7268C45.4487 29.762 45.6069 29.8323 45.7827 29.9027C46.3805 30.1664 47.0311 30.3774 47.7168 30.518C48.4201 30.6587 49.1058 30.729 49.8091 30.729C50.9168 30.729 51.7783 30.5356 52.3761 30.1488C52.9739 29.762 53.2904 29.1994 53.2904 28.4785C53.2904 27.9862 53.1322 27.5818 52.8157 27.2477C52.4992 26.9137 51.9014 26.6148 51.0399 26.3334L48.4904 25.5422C47.2069 25.1378 46.2575 24.54 45.6772 23.7488C45.097 22.9752 44.7981 22.1137 44.7981 21.1994C44.7981 20.4609 44.9564 19.8104 45.2728 19.2477C45.5893 18.6851 46.0113 18.1928 46.5388 17.806C47.0662 17.4016 47.6641 17.1027 48.3673 16.8917C49.0706 16.6807 49.8091 16.5928 50.5827 16.5928C50.9695 16.5928 51.3739 16.6104 51.7608 16.6631C52.1651 16.7159 52.5344 16.7862 52.9036 16.8565C53.2553 16.9444 53.5893 17.0323 53.9058 17.1378C54.2223 17.2433 54.4684 17.3488 54.6443 17.4543C54.8904 17.595 55.0662 17.7356 55.1717 17.8939C55.2772 18.0345 55.33 18.2279 55.33 18.4741V19.3005C55.33 19.6697 55.1893 19.8631 54.9256 19.8631C54.7849 19.8631 54.5564 19.7928 54.2575 19.6521C53.2553 19.195 52.13 18.9664 50.8816 18.9664C49.8794 18.9664 49.0882 19.1246 48.5432 19.4587C47.9981 19.7928 47.7168 20.3027 47.7168 21.0235C47.7168 21.5159 47.8926 21.9378 48.2443 22.2719C48.5959 22.606 49.2465 22.94 50.1783 23.2389L52.675 24.0301C53.941 24.4345 54.8553 24.9972 55.4003 25.718C55.9454 26.4389 56.2091 27.2653 56.2091 28.1796C56.2091 28.9356 56.0509 29.6213 55.752 30.2191C55.4355 30.8169 55.0135 31.3444 54.4684 31.7664C53.9234 32.206 53.2728 32.5224 52.5168 32.751C51.7256 32.9972 50.8992 33.1202 50.0025 33.1202Z" fill="#252F3E"></path>
    <path fill-rule="evenodd" clip-rule="evenodd" d="M53.3249 41.6634C47.5403 45.936 39.1359 48.2041 31.9095 48.2041C21.7821 48.2041 12.6568 44.459 5.76447 38.2349C5.21942 37.7425 5.71173 37.0744 6.36228 37.4612C13.8172 41.7865 23.0128 44.4063 32.5249 44.4063C38.9425 44.4063 45.993 43.07 52.481 40.3272C53.448 39.8876 54.2744 40.9601 53.3249 41.6634Z" fill="#FF9900"></path>
    <path fill-rule="evenodd" clip-rule="evenodd" d="M55.7375 38.919C54.9991 37.9695 50.8496 38.4619 48.9683 38.6904C48.4056 38.7608 48.3177 38.2684 48.8276 37.8992C52.1331 35.5783 57.5661 36.2465 58.1991 37.0201C58.832 37.8113 58.0232 43.2443 54.9287 45.8465C54.454 46.2509 53.9969 46.0399 54.2078 45.5124C54.9111 43.7717 56.476 39.8509 55.7375 38.919Z" fill="#FF9900"></path>
  </g>
  <defs>
    <clipPath id="clip0_14911_26747">
      <rect width="53.4506" height="32" fill="white" transform="translate(5.27441 16.4014)"></rect>
    </clipPath>
  </defs>
</svg>
