<?xml version="1.0" encoding="UTF-8"?>
<svg xmlns="http://www.w3.org/2000/svg" width="64" height="65" viewBox="0 0 64 65" fill="none">
  <path d="M27.1131 18.5824H35.7925L26.7825 45.278C26.6899 45.5523 26.5136 45.7907 26.2784 45.9596C26.0432 46.1284 25.761 46.2193 25.4715 46.2194H18.7168C18.4974 46.2194 18.2812 46.1672 18.086 46.0671C17.8908 45.9669 17.7223 45.8218 17.5943 45.6436C17.4664 45.4654 17.3827 45.2593 17.3502 45.0424C17.3177 44.8255 17.3373 44.6039 17.4075 44.396L25.8018 19.5237C25.8944 19.2493 26.0707 19.0108 26.3059 18.8419C26.5412 18.6729 26.8235 18.5824 27.1131 18.5824Z" fill="url(#paint0_linear_14911_26756)"></path>
  <path d="M39.7253 36.4883H25.9619C25.834 36.4881 25.7089 36.5265 25.6031 36.5985C25.4973 36.6704 25.4156 36.7725 25.3686 36.8916C25.3217 37.0106 25.3117 37.141 25.3399 37.2658C25.3682 37.3906 25.4333 37.504 25.5269 37.5913L34.3709 45.8459C34.6284 46.0861 34.9675 46.2197 35.3196 46.2196H43.1129L39.7253 36.4883Z" fill="#0078D4"></path>
  <path d="M27.1123 18.583C26.8196 18.5819 26.5341 18.6744 26.2976 18.8471C26.0612 19.0197 25.8861 19.2635 25.798 19.5427L17.417 44.374C17.3422 44.5826 17.3187 44.8062 17.3485 45.0258C17.3783 45.2454 17.4606 45.4546 17.5884 45.6357C17.7162 45.8168 17.8857 45.9644 18.0826 46.0661C18.2795 46.1678 18.498 46.2206 18.7197 46.22H25.6487C25.9067 46.1739 26.1479 46.0601 26.3476 45.8903C26.5473 45.7205 26.6984 45.5007 26.7853 45.2533L28.4567 40.3277L34.4267 45.896C34.6768 46.103 34.9907 46.2174 35.3153 46.22H43.0797L39.6743 36.4887L29.7473 36.491L35.823 18.583H27.1123Z" fill="url(#paint1_linear_14911_26756)"></path>
  <path d="M38.1982 19.523C38.1057 19.249 37.9297 19.0109 37.6948 18.8423C37.4599 18.6737 37.178 18.583 36.8888 18.583H27.2158C27.505 18.583 27.7868 18.6737 28.0217 18.8424C28.2566 19.011 28.4327 19.249 28.5252 19.523L36.9198 44.3963C36.99 44.6042 37.0097 44.8258 36.9772 45.0429C36.9447 45.2599 36.8611 45.466 36.7331 45.6442C36.6051 45.8225 36.4366 45.9677 36.2414 46.0679C36.0462 46.1681 35.8299 46.2203 35.6105 46.2203H45.2838C45.5032 46.2203 45.7194 46.168 45.9146 46.0678C46.1098 45.9676 46.2783 45.8224 46.4062 45.6441C46.5341 45.4659 46.6178 45.2597 46.6502 45.0428C46.6827 44.8258 46.663 44.6042 46.5928 44.3963L38.1982 19.523Z" fill="url(#paint2_linear_14911_26756)"></path>
  <defs>
    <linearGradient id="paint0_linear_14911_26756" x1="30.2765" y1="20.6304" x2="21.2628" y2="47.259" gradientUnits="userSpaceOnUse">
      <stop stop-color="#114A8B"></stop>
      <stop offset="1" stop-color="#0669BC"></stop>
    </linearGradient>
    <linearGradient id="paint1_linear_14911_26756" x1="33.0913" y1="33.0407" x2="31.0063" y2="33.7457" gradientUnits="userSpaceOnUse">
      <stop stop-opacity="0.3"></stop>
      <stop offset="0.071" stop-opacity="0.2"></stop>
      <stop offset="0.321" stop-opacity="0.1"></stop>
      <stop offset="0.623" stop-opacity="0.05"></stop>
      <stop offset="1" stop-opacity="0"></stop>
    </linearGradient>
    <linearGradient id="paint2_linear_14911_26756" x1="31.9448" y1="19.8543" x2="41.8392" y2="46.2147" gradientUnits="userSpaceOnUse">
      <stop stop-color="#3CCBF4"></stop>
      <stop offset="1" stop-color="#2892DF"></stop>
    </linearGradient>
  </defs>
</svg>
