<?xml version="1.0" encoding="UTF-8"?>
<svg xmlns="http://www.w3.org/2000/svg" width="64" height="65" viewBox="0 0 64 65" fill="none">
  <g clip-path="url(#clip0_14911_26765)">
    <path d="M36.35 26.3118H37.35L40.2 23.4618L40.34 22.2518C38.7073 20.8108 36.7343 19.8097 34.6072 19.3433C32.48 18.8768 30.2691 18.9603 28.1833 19.5858C26.0974 20.2114 24.2054 21.3584 22.6861 22.9184C21.1667 24.4785 20.0702 26.4001 19.5 28.5018C19.8175 28.3717 20.1692 28.3506 20.5 28.4418L26.2 27.5018C26.2 27.5018 26.49 27.0218 26.64 27.0518C27.8613 25.7105 29.5492 24.8867 31.358 24.7492C33.1669 24.6116 34.9599 25.1706 36.37 26.3118H36.35Z" fill="#EA4335"></path>
    <path d="M44.2599 28.5017C43.6048 26.0894 42.2598 23.9207 40.3899 22.2617L36.3899 26.2617C37.2236 26.9429 37.8916 27.8045 38.3438 28.7815C38.7959 29.7585 39.0202 30.8254 38.9999 31.9017V32.6117C39.4674 32.6117 39.9304 32.7038 40.3623 32.8827C40.7942 33.0616 41.1866 33.3238 41.5172 33.6544C41.8478 33.985 42.11 34.3774 42.2889 34.8094C42.4678 35.2413 42.5599 35.7042 42.5599 36.1717C42.5599 36.6392 42.4678 37.1022 42.2889 37.5341C42.11 37.966 41.8478 38.3584 41.5172 38.689C41.1866 39.0196 40.7942 39.2818 40.3623 39.4607C39.9304 39.6396 39.4674 39.7317 38.9999 39.7317H31.8799L31.1699 40.4517V44.7217L31.8799 45.4317H38.9999C40.9882 45.4472 42.9286 44.8223 44.5341 43.6495C46.1397 42.4767 47.3251 40.8182 47.915 38.9194C48.505 37.0207 48.4681 34.9825 47.8098 33.1063C47.1515 31.2301 45.9069 29.6157 44.2599 28.5017Z" fill="#4285F4"></path>
    <path d="M24.7502 45.3911H31.8702V39.6911H24.7502C24.2429 39.691 23.7416 39.5819 23.2802 39.3711L22.2802 39.6811L19.4102 42.5311L19.1602 43.5311C20.7696 44.7464 22.7334 45.3998 24.7502 45.3911Z" fill="#34A853"></path>
    <path d="M24.7496 26.9014C22.8204 26.913 20.943 27.5267 19.3796 28.657C17.8162 29.7873 16.6448 31.3777 16.0291 33.206C15.4135 35.0344 15.3842 37.0094 15.9454 38.8551C16.5067 40.7009 17.6304 42.3253 19.1596 43.5014L23.2896 39.3714C22.7648 39.1343 22.3053 38.7734 21.9506 38.3197C21.5959 37.8659 21.3566 37.3329 21.2532 36.7664C21.1498 36.1998 21.1854 35.6166 21.3569 35.0668C21.5285 34.5171 21.8308 34.0171 22.2381 33.6099C22.6453 33.2026 23.1452 32.9003 23.695 32.7287C24.2448 32.5572 24.828 32.5216 25.3945 32.625C25.9611 32.7284 26.4941 32.9677 26.9478 33.3224C27.4016 33.6771 27.7625 34.1366 27.9996 34.6614L32.1296 30.5314C31.2628 29.3982 30.1455 28.4808 28.8652 27.8511C27.585 27.2214 26.1764 26.8963 24.7496 26.9014Z" fill="#FBBC05"></path>
  </g>
  <defs>
    <clipPath id="clip0_14911_26765">
      <rect width="33" height="27" fill="white" transform="translate(15.5 18.9014)"></rect>
    </clipPath>
  </defs>
</svg>
