<?xml version="1.0" encoding="UTF-8"?>
<svg xmlns="http://www.w3.org/2000/svg" width="64" height="65" viewBox="0 0 64 65" fill="none">
  <g clip-path="url(#clip0_14222_26483)">
    <path d="M39.2442 27.6602H30.9874C31.0269 27.8577 31.1059 28.0552 31.1455 28.2132C31.422 29.1614 31.58 30.149 31.659 31.1762C31.6985 31.5713 31.6985 32.0058 31.6985 32.4009C31.6985 32.796 31.6985 33.2305 31.659 33.6256C31.58 34.6528 31.422 35.6404 31.1455 36.5886C31.1059 36.7861 31.0269 36.9836 30.9874 37.1416H39.2442C41.8516 37.1416 43.9454 35.0083 43.9454 32.4009C43.9454 29.7935 41.8516 27.6602 39.2442 27.6602Z" fill="#00A9E5"></path>
    <path d="M31.6599 33.6256C31.6994 33.2305 31.6994 32.796 31.6994 32.4009C31.6994 32.0058 31.6994 31.5713 31.6599 31.1762C31.5809 30.149 31.4229 29.1614 31.1464 28.2132C31.1068 28.0157 31.0278 27.8182 30.9883 27.6602H18.2278C17.7538 29.1614 17.5167 30.7416 17.5167 32.4009C17.5167 34.0602 17.7538 35.6404 18.2278 37.1416H30.9883C31.0278 36.9441 31.1068 36.7466 31.1464 36.5886C31.4229 35.6404 31.5809 34.6528 31.6599 33.6256Z" fill="#353535"></path>
    <path d="M40.666 38.7227H30.3944C30.0784 39.4338 29.7228 40.1054 29.3278 40.7375C28.7352 41.7251 28.0241 42.5943 27.234 43.4239C26.9574 43.7004 26.6809 43.9375 26.4043 44.214C25.8512 44.7276 25.2191 45.1622 24.587 45.5967C27.0759 47.256 30.0784 48.2041 33.2784 48.2041C38.7698 48.2041 43.5895 45.3992 46.434 41.172C44.9722 39.6708 42.9179 38.7227 40.666 38.7227Z" fill="#00BFB3"></path>
    <path d="M29.3281 40.7375C29.7232 40.1054 30.0787 39.4338 30.3948 38.7227H18.8195C20.0441 41.5276 22.059 43.9375 24.6269 45.5967C25.259 45.1622 25.8516 44.7276 26.4442 44.214C26.7207 43.977 26.9972 43.7004 27.2738 43.4239C28.0244 42.6338 28.7355 41.7251 29.3281 40.7375Z" fill="#019B8F"></path>
    <path d="M27.2347 21.3789C26.9582 21.1024 26.6816 20.8653 26.4051 20.5888C25.852 20.0752 25.2199 19.6406 24.5878 19.2061C22.0594 20.8653 20.0446 23.2752 18.7804 26.0801H30.3557C30.0397 25.369 29.6841 24.6974 29.289 24.0653C28.736 23.0777 28.0248 22.169 27.2347 21.3789Z" fill="#F9B110"></path>
    <path d="M33.2784 16.5986C30.0784 16.5986 27.0759 17.5468 24.587 19.206C25.2191 19.6406 25.8117 20.0752 26.4043 20.5888C26.6809 20.8258 26.9574 21.1023 27.234 21.3789C28.0241 22.2085 28.7352 23.0776 29.3278 24.0653C29.7228 24.6974 30.0784 25.369 30.3944 26.0801H40.666C42.9179 26.0801 44.9722 25.132 46.434 23.6307C43.5895 19.4036 38.7698 16.5986 33.2784 16.5986Z" fill="#FED10A"></path>
  </g>
  <defs>
    <clipPath id="clip0_14222_26483">
      <rect width="29" height="32" fill="white" transform="translate(17.5 16.4014)"></rect>
    </clipPath>
  </defs>
</svg>
