<?xml version="1.0" encoding="UTF-8"?>
<svg xmlns="http://www.w3.org/2000/svg" width="64" height="65" viewBox="0 0 64 65" fill="none">
  <g clip-path="url(#clip0_14222_26493)">
    <path d="M37.6775 34.1103C36.4324 34.1103 35.3162 34.6619 34.5518 35.5304L32.5931 34.1438C32.801 33.5713 32.9204 32.9566 32.9204 32.3132C32.9204 31.681 32.8052 31.0766 32.6041 30.5126L34.5584 29.1407C35.3227 30.0048 36.436 30.5534 37.6775 30.5534C39.9756 30.5534 41.8455 28.6838 41.8455 26.3854C41.8455 24.087 39.9756 22.2174 37.6775 22.2174C35.3794 22.2174 33.5095 24.087 33.5095 26.3854C33.5095 26.7968 33.5717 27.1934 33.6832 27.5691L31.7276 28.9418C30.9107 27.9283 29.7344 27.2207 28.3943 27.0047V24.6478C30.2823 24.2512 31.7048 22.5738 31.7048 20.5694C31.7048 18.271 29.8349 16.4014 27.5368 16.4014C25.2387 16.4014 23.3688 18.271 23.3688 20.5694C23.3688 22.5469 24.7545 24.2037 26.6047 24.6285V27.0161C24.0797 27.4593 22.1532 29.663 22.1532 32.3132C22.1532 34.9764 24.0987 37.1881 26.642 37.6163V40.1374C24.7729 40.5482 23.3688 42.2151 23.3688 44.2061C23.3688 46.5045 25.2387 48.3741 27.5368 48.3741C29.8349 48.3741 31.7048 46.5045 31.7048 44.2061C31.7048 42.2151 30.3007 40.5482 28.4316 40.1374V37.6162C29.7189 37.3994 30.8835 36.722 31.7085 35.7104L33.6803 37.106C33.5708 37.4783 33.5095 37.8711 33.5095 38.2783C33.5095 40.5767 35.3794 42.4463 37.6775 42.4463C39.9756 42.4463 41.8455 40.5767 41.8455 38.2783C41.8455 35.9799 39.9756 34.1103 37.6775 34.1103ZM37.6775 24.3645C38.7919 24.3645 39.6983 25.2713 39.6983 26.3854C39.6983 27.4994 38.7919 28.4061 37.6775 28.4061C36.5631 28.4061 35.6567 27.4994 35.6567 26.3854C35.6567 25.2713 36.5631 24.3645 37.6775 24.3645ZM25.516 20.5694C25.516 19.4553 26.4224 18.5486 27.5368 18.5486C28.6512 18.5486 29.5576 19.4553 29.5576 20.5694C29.5576 21.6834 28.6512 22.5901 27.5368 22.5901C26.4224 22.5901 25.516 21.6834 25.516 20.5694ZM29.5576 44.2061C29.5576 45.3202 28.6512 46.2269 27.5368 46.2269C26.4224 46.2269 25.516 45.3202 25.516 44.2061C25.516 43.0921 26.4224 42.1854 27.5368 42.1854C28.6512 42.1854 29.5576 43.0921 29.5576 44.2061ZM27.5367 35.1315C25.9824 35.1315 24.718 33.8674 24.718 32.3132C24.718 30.759 25.9824 29.4946 27.5367 29.4946C29.0908 29.4946 30.3552 30.759 30.3552 32.3132C30.3552 33.8674 29.0908 35.1315 27.5367 35.1315ZM37.6775 40.2991C36.5631 40.2991 35.6567 39.3924 35.6567 38.2783C35.6567 37.1642 36.5631 36.2575 37.6775 36.2575C38.7919 36.2575 39.6983 37.1642 39.6983 38.2783C39.6983 39.3924 38.7919 40.2991 37.6775 40.2991Z" fill="#231F20"></path>
  </g>
  <defs>
    <clipPath id="clip0_14222_26493">
      <rect width="19.712" height="32" fill="white" transform="translate(22.144 16.4014)"></rect>
    </clipPath>
  </defs>
</svg>
