<?xml version="1.0" encoding="UTF-8"?>
<svg xmlns="http://www.w3.org/2000/svg" width="158" height="101" viewBox="0 0 158 101" fill="none">
  <path d="M21.2237 38.1719H78.022V100.364H6C2.6863 100.364 0 97.6776 0 94.3639V59.3954C0 53.7666 2.23606 48.3683 6.21626 44.3881C10.1965 40.4079 15.5948 38.1719 21.2237 38.1719Z" fill="url(#paint0_linear_14911_26882)"></path>
  <path d="M8.0918 100.364V57.1644C8.0918 46.8586 16.4842 38.5059 26.8511 38.5059" stroke="url(#paint1_linear_14911_26882)" stroke-width="0.915534" stroke-linecap="round" stroke-linejoin="round"></path>
  <path d="M57.1526 42.668L37.728 50.8803C32.6666 53.0198 28.5812 56.9643 26.2654 61.9475C26.2654 61.9475 7.81128 86.4304 14.159 99.9619H119.336L104.2 58.9782C103.274 56.4693 101.396 54.4263 98.9743 53.2912L80.2806 44.9232L57.1526 42.668Z" fill="#5D21D1"></path>
  <path d="M42.5771 49.1641L46.5613 59.5233L54.4959 60.6921L48.255 63.8522C48.255 63.8522 55.0101 74.2542 58.2008 80.582" stroke="#2E186A" stroke-width="0.915534" stroke-linecap="round" stroke-linejoin="round"></path>
  <path d="M95.5402 52.1611L94.0143 61.2554L86.4703 63.9852L93.2102 65.8346C93.2102 65.8346 85.9454 85.5628 85.6631 89.4507" stroke="#2E186A" stroke-width="0.915534" stroke-linecap="round" stroke-linejoin="round"></path>
  <path d="M29.7139 79.6618C35.3292 78.7463 62.6442 80.9664 62.6442 80.9664L61.3746 83.1759" stroke="#2E186A" stroke-width="0.915534" stroke-linecap="round" stroke-linejoin="round"></path>
  <path d="M42.5771 79.3639L44.9224 71.3164" stroke="#2E186A" stroke-width="0.915534" stroke-linecap="round" stroke-linejoin="round"></path>
  <path d="M39.7691 100.364C39.7691 100.364 38.8383 86.6232 49.6599 80.0527" stroke="#2E186A" stroke-width="0.915534" stroke-linecap="round" stroke-linejoin="round"></path>
  <path d="M55.8399 43.082L51.6025 45.0184C51.6025 45.0184 68.2806 68.3034 65.9475 91.6494C68.7933 97.2403 81.4429 91.6494 81.4429 91.6494L84.5359 46.825L79.4532 44.524L55.8399 43.082Z" fill="white"></path>
  <path d="M82.1215 81.6762C79.2964 82.1212 76.4315 82.2604 73.5765 82.0912C70.9602 81.9395 68.3611 81.5689 65.8066 80.9834C65.887 81.6741 65.9552 82.3684 66.0111 83.0662C68.4454 83.5875 70.9158 83.9226 73.401 84.0687C74.2738 84.1186 75.1385 84.144 75.995 84.145C77.9988 84.1494 80.0001 84.0055 81.9826 83.7147L82.1215 81.6762Z" fill="#968BB4"></path>
  <path d="M75.836 80.0522C77.9832 80.0544 80.1284 79.9194 82.2585 79.6478L82.3973 77.6138C78.3388 78.1534 74.2303 78.2047 70.1597 77.7664C68.3789 77.5787 66.7157 77.3178 65.2051 77.0264C65.3333 77.7181 65.4497 78.4134 65.5545 79.1123C66.8973 79.3533 68.3484 79.57 69.8896 79.7318C71.8647 79.9435 73.8496 80.0504 75.836 80.0522Z" fill="#968BB4"></path>
  <path d="M68.441 71.8643C66.8128 71.7117 65.2808 71.4935 63.8633 71.2539C64.0555 71.9477 64.2386 72.6491 64.4126 73.3581C65.5982 73.5443 66.854 73.7075 68.1861 73.8357C70.1098 74.0198 72.009 74.1124 73.8838 74.1134C76.7134 74.1192 79.5388 73.8973 82.3327 73.4497L82.6821 73.3886L82.821 71.3363C77.4681 72.2991 72.4403 72.2442 68.441 71.8643Z" fill="#968BB4"></path>
  <path d="M74.1717 68.9641C77.1548 68.9708 80.1304 68.664 83.0493 68.0486L83.1897 65.9841C77.2815 67.3391 71.686 67.1071 67.412 66.4754C65.5843 66.2041 63.7725 65.8348 61.9844 65.3691C62.2519 66.1036 62.5113 66.8498 62.7626 67.6076C64.0825 67.9128 65.5199 68.1997 67.058 68.4285C69.4128 68.7816 71.7905 68.9606 74.1717 68.9641Z" fill="#968BB4"></path>
  <path d="M83.5793 60.2444C77.1476 61.8313 70.7786 61.575 65.9277 60.8898C63.8298 60.5913 61.7483 60.1864 59.6914 59.6768C60.0169 60.4102 60.3389 61.165 60.6573 61.9412C62.1969 62.2845 63.8708 62.6034 65.65 62.8567C68.2358 63.2266 70.8444 63.4147 73.4565 63.4198C75.3618 63.4224 77.2655 63.3098 79.1572 63.0825C80.5962 62.9068 82.0249 62.6552 83.4374 62.3287L83.5793 60.2444Z" fill="#968BB4"></path>
  <path d="M83.9264 55.1313C77.0598 56.7548 70.2589 56.3825 65.1136 55.5784C62.3076 55.1362 59.5329 54.5144 56.8066 53.7168C57.2064 54.4747 57.6133 55.2727 58.0274 56.1109C59.892 56.6022 62.0511 57.0905 64.4056 57.4735C67.514 57.9888 70.6589 58.2526 73.8097 58.2624C75.4561 58.2624 77.0705 58.1846 78.6437 58.029C80.3726 57.8601 82.0898 57.5875 83.786 57.2126L83.9264 55.1313Z" fill="#968BB4"></path>
  <path d="M84.1753 51.5014L84.3172 49.4125C71.9086 53.0426 59.3032 49.8596 53.4941 47.9141C53.9519 48.645 54.4616 49.4995 55.02 50.4684C57.8506 51.2996 60.734 51.9393 63.6505 52.3834C66.4544 52.8094 69.2862 53.0261 72.1223 53.0319C76.1898 53.0544 80.2425 52.5398 84.1753 51.5014Z" fill="#968BB4"></path>
  <path d="M61.3321 31.5156L59.9725 40.0743L55.7168 43.5228C55.7168 43.5228 61.6296 52.3867 69.6711 54.4039C72.3963 55.0875 76.6902 54.3444 78.0895 51.9106C79.4383 49.5684 79.8686 46.2648 80.1265 42.3342C80.2577 40.3475 61.3321 31.5156 61.3321 31.5156Z" fill="white" stroke="#2E186A" stroke-width="0.915534" stroke-linecap="round" stroke-linejoin="round"></path>
  <path d="M85.177 13.6243C83.8541 6.27108 74.7414 7.22934 73.4124 7.39566C61.1625 8.92154 60.5949 19.2136 60.6696 22.1021L60.1356 22.1678C60.1356 22.1678 60.1966 22.6606 60.3004 23.4571C58.715 23.8432 55.86 25.0944 56.7908 29.0495C57.4973 32.0479 59.7404 32.3179 61.5913 31.9685C61.8385 33.2945 62.0918 34.4267 62.3252 35.0935C63.2682 37.7852 63.9152 38.9723 67.5774 41.3649C71.2395 43.7575 78.8919 44.6105 82.2946 40.2159C85.4471 36.1464 85.7019 28.8145 85.7218 27.7525C86.0407 23.6799 86.0483 18.466 85.177 13.6243Z" fill="white" stroke="#2E186A" stroke-width="0.915534" stroke-linecap="round" stroke-linejoin="round"></path>
  <path d="M90.6193 25.3736C90.5109 22.9322 88.9683 20.9806 86.9083 19.9766C86.739 20.2337 86.5403 20.4703 86.3163 20.6815C86.3651 24.0476 86.0996 30.1664 85.8097 31.9502C85.9623 31.9105 86.1148 31.8632 86.2552 31.8113C86.1316 32.8932 85.7975 34.1398 84.9887 35.0432C84.2914 35.8214 83.327 36.2562 82.0636 36.363C81.8355 36.1619 81.5536 36.0317 81.2525 35.9885C80.9515 35.9452 80.6444 35.9908 80.3688 36.1195C80.0933 36.2483 79.8613 36.4546 79.7014 36.7133C79.5414 36.972 79.4604 37.2717 79.4683 37.5757C79.4762 37.8797 79.5727 38.1749 79.7459 38.4249C79.919 38.6749 80.1614 38.8689 80.4433 38.9832C80.7252 39.0974 81.0342 39.1269 81.3326 39.0681C81.631 39.0092 81.9057 38.8646 82.1231 38.6519C84.0381 38.5161 85.5732 37.8187 86.6932 36.569C88.4189 34.6449 88.6433 31.9181 88.6112 30.3663C89.283 29.7257 89.8098 28.9487 90.1562 28.0875C90.5025 27.2263 90.6605 26.3009 90.6193 25.3736Z" fill="#5D21D1"></path>
  <path d="M79.6136 24.4307L80.7428 31.5245L78.2021 30.992" stroke="#2E186A" stroke-width="0.915534" stroke-linecap="round" stroke-linejoin="round"></path>
  <path d="M82.8068 25.8248C83.2101 25.8072 83.5148 25.2871 83.4875 24.6632C83.4601 24.0394 83.111 23.548 82.7077 23.5656C82.3045 23.5833 81.9997 24.1034 82.0271 24.7273C82.0544 25.3511 82.4035 25.8425 82.8068 25.8248Z" fill="#2E186A"></path>
  <path d="M75.6447 25.7916C76.048 25.774 76.3527 25.2539 76.3254 24.63C76.298 24.0062 75.9489 23.5148 75.5456 23.5324C75.1424 23.5501 74.8376 24.0702 74.8649 24.694C74.8923 25.3179 75.2414 25.8093 75.6447 25.7916Z" fill="#2E186A"></path>
  <path d="M70.8877 20.5726C71.3064 20.1437 71.8324 19.8347 72.4109 19.6777C72.9894 19.5207 73.5994 19.5215 74.1775 19.68" stroke="#2E186A" stroke-width="0.915534" stroke-linecap="round" stroke-linejoin="round"></path>
  <path d="M80.4072 18.9801C80.4072 18.9801 82.4107 18.3698 82.989 19.9994" stroke="#2E186A" stroke-width="0.915534" stroke-linecap="round" stroke-linejoin="round"></path>
  <path d="M78.2027 34.331C75.984 36.7571 74.7496 34.5888 73.6952 33.0035C73.6351 32.915 73.6035 32.8104 73.6045 32.7035C73.6055 32.5967 73.6391 32.4927 73.7008 32.4054C73.7625 32.3182 73.8494 32.2518 73.9498 32.2153C74.0503 32.1787 74.1595 32.1737 74.2628 32.2008C76.2526 32.7242 78.9519 33.5131 78.2027 34.331Z" fill="#2E186A"></path>
  <path d="M87.617 11.1904C86.909 9.6706 86.0423 9.23572 85.2794 9.2403C85.2489 8.9619 85.2035 8.68532 85.1436 8.41175C84.8751 7.21951 84.3661 6.09462 83.6477 5.10598C82.9293 4.11735 82.0167 3.28578 80.9657 2.66221C80.9657 2.66221 78.3762 -0.104222 70.2127 0.483244C62.0492 1.07071 61.8386 5.74145 61.8386 5.74145C58.1307 8.24542 55.4481 11.3872 55.2482 14.0652C54.6898 21.5801 57.8423 23.4051 59.1561 23.8308C59.298 23.7683 59.4368 23.7149 59.5741 23.6645C59.6069 23.767 59.6493 23.8661 59.7008 23.9605C64.8461 23.6111 65.1192 16.3662 66.7458 12.8841C66.7878 12.797 66.8472 12.7194 66.9204 12.6563C66.9936 12.5931 67.0791 12.5457 67.1715 12.5171C67.2638 12.4885 67.3611 12.4792 67.4572 12.4898C67.5533 12.5005 67.6462 12.5308 67.7301 12.5789C70.0189 13.8714 73.1241 14.294 76.8091 13.7829C80.7917 13.232 82.5739 11.3765 83.3705 9.90864C83.3964 9.93458 83.4223 9.96204 83.4468 9.98951L83.5551 10.1101L83.6055 10.1665L83.697 10.2764L83.7596 10.3542C83.7855 10.3878 83.8114 10.4229 83.8389 10.4564L83.9076 10.5495C83.932 10.5816 83.9549 10.6136 83.9778 10.6472L84.051 10.7525C84.0724 10.783 84.0922 10.8135 84.112 10.8455L84.1899 10.9661L84.2418 11.0515C84.2692 11.0973 84.2967 11.1431 84.3226 11.1889L84.3669 11.2682L84.4493 11.4208C84.4615 11.4452 84.4737 11.4681 84.4844 11.491C84.5134 11.549 84.5423 11.6085 84.5698 11.6665C84.8575 12.2865 85.0627 12.9416 85.1802 13.615C85.5951 16.0205 85.8322 18.4532 85.8897 20.8935C85.9425 20.8985 85.9958 20.8926 86.0463 20.8761C86.0967 20.8595 86.1431 20.8327 86.1827 20.7974C87.8123 19.4958 89.3001 14.8052 87.617 11.1904Z" fill="#2E186A"></path>
  <path d="M78.2397 21.5145C78.2397 21.5145 79.9349 28.2513 71.8645 28.3413C67.8804 28.2726 66.887 24.8668 66.7207 21.0674L78.2397 21.5145Z" stroke="#FE7624" stroke-width="0.915534" stroke-linecap="round" stroke-linejoin="round"></path>
  <path d="M66.7215 21.0674L63.627 22.4865" stroke="#FE7624" stroke-width="0.915534" stroke-linecap="round" stroke-linejoin="round"></path>
  <path d="M79.9707 24.2168L78.3594 24.2427" stroke="#FE7624" stroke-width="0.915534" stroke-linecap="round" stroke-linejoin="round"></path>
  <path d="M79.6992 21.585C79.6992 21.585 80.2623 27.896 85.3069 27.7526C90.3515 27.6092 89.3978 25.006 89.9639 21.2432L79.6992 21.585Z" stroke="#FE7624" stroke-width="0.915534" stroke-linecap="round" stroke-linejoin="round"></path>
  <path d="M65.9412 27.3537C65.8956 26.3021 65.5958 25.2772 65.0675 24.3667C64.5392 23.4563 63.7981 22.6874 62.9077 22.126L62.1448 4.78125L61.5924 4.80566C60.8867 4.83656 60.2221 5.14647 59.7448 5.66724C59.2675 6.18802 59.0166 6.87703 59.0472 7.58278L59.6439 21.125C59.4775 21.125 59.3112 21.125 59.1434 21.125C57.8554 21.1815 56.6131 21.6185 55.5736 22.381C54.534 23.1434 53.7439 24.197 53.3031 25.4085C52.8623 26.6199 52.7906 27.9349 53.0971 29.1871C53.4036 30.4393 54.0745 31.5726 55.025 32.4435C55.9755 33.3144 57.1629 33.8839 58.4371 34.0801C59.7113 34.2762 61.015 34.0901 62.1834 33.5453C63.3519 33.0005 64.3325 32.1215 65.0014 31.0194C65.6703 29.9173 65.9973 28.6416 65.9412 27.3537Z" fill="#5D21D1"></path>
  <path d="M58.0893 23.7847C59.78 23.7847 61.1853 25.3106 61.2601 27.2576C61.3364 29.2611 59.9783 30.9563 58.2266 31.0433C58.1793 31.0433 58.132 31.0433 58.0847 31.0433C56.3955 31.0433 54.9886 29.5174 54.9139 27.5719C54.8376 25.5684 56.1956 23.8732 57.9489 23.7862C57.9962 23.7862 58.042 23.7862 58.0893 23.7862M58.0893 22.8707C58.0267 22.8707 57.9657 22.8707 57.9031 22.8707C55.6555 22.9836 53.9037 25.1076 53.9999 27.6009C54.0929 30.0423 55.8874 31.9527 58.0847 31.9527C58.1478 31.9527 58.2103 31.9527 58.2724 31.9527C60.52 31.8413 62.2702 29.7158 62.1741 27.2225C62.081 24.7811 60.2865 22.8691 58.0893 22.8691V22.8707Z" fill="white"></path>
  <path d="M89.475 84.3939C89.475 84.3939 74.9363 83.6431 61.4092 83.1289C59.2242 86.4859 55.0371 93.7491 55.0371 99.9625H55.8397L78.3467 94.1183C78.6091 94.2053 92.9952 94.1183 92.9952 94.1183L89.475 84.3939Z" fill="white" stroke="#2E186A" stroke-width="0.915534" stroke-linecap="round" stroke-linejoin="round"></path>
  <path d="M127.499 30.2188C124.981 30.2192 122.566 31.2198 120.786 33.0005C119.005 34.7812 118.005 37.1962 118.005 39.7143C118.005 39.8486 118.005 39.9829 118.016 40.1156L118.005 40.105V49.1702H126.678C126.95 49.1931 127.223 49.2084 127.499 49.2084C129.996 49.1767 132.381 48.1625 134.135 46.3853C135.89 44.6081 136.874 42.2111 136.874 39.7136C136.874 37.216 135.89 34.8191 134.135 33.0419C132.381 31.2647 129.996 30.2504 127.499 30.2188Z" fill="#5D21D1"></path>
  <path d="M122.838 40.499C122.838 39.9191 123.23 39.5117 123.778 39.5117C124.326 39.5117 124.703 39.9191 124.703 40.499C124.703 41.0788 124.342 41.4862 123.763 41.4862C123.213 41.4862 122.838 41.0635 122.838 40.499Z" fill="white"></path>
  <path d="M126.082 40.499C126.082 39.9191 126.473 39.5117 127.022 39.5117C127.571 39.5117 127.947 39.9191 127.947 40.499C127.947 41.0788 127.587 41.4862 127.007 41.4862C126.457 41.4862 126.082 41.0635 126.082 40.499Z" fill="white"></path>
  <path d="M129.324 40.499C129.324 39.9191 129.716 39.5117 130.266 39.5117C130.815 39.5117 131.19 39.9191 131.19 40.499C131.19 41.0788 130.829 41.4862 130.249 41.4862C129.701 41.4862 129.324 41.0635 129.324 40.499Z" fill="white"></path>
  <path d="M141.941 40.0358C138.97 40.0348 136.065 39.1577 133.59 37.5143C131.115 35.8708 129.179 33.534 128.026 30.7961C126.872 28.0582 126.551 25.0408 127.103 22.1215C127.655 19.2022 129.056 16.5106 131.13 14.3834C133.205 12.2562 135.86 10.7878 138.765 10.1621C141.669 9.53634 144.694 9.78096 147.46 10.8654C150.226 11.9497 152.611 13.8257 154.316 16.2587C156.022 18.6916 156.972 21.5733 157.048 24.5435C157.069 24.5983 157.081 24.6568 157.081 24.7159V39.578C157.081 39.6994 157.033 39.8159 156.947 39.9017C156.861 39.9875 156.745 40.0358 156.623 40.0358H141.941Z" fill="#FE7624"></path>
  <path d="M141.94 10.2798C145.793 10.2795 149.492 11.7979 152.234 14.5058C154.976 17.2138 156.54 20.8932 156.588 24.7467L156.619 24.7162V39.5783H141.941C138.056 39.5783 134.33 38.035 131.583 35.2879C128.836 32.5407 127.292 28.8148 127.292 24.9298C127.292 21.0448 128.836 17.3189 131.583 14.5718C134.33 11.8246 138.056 10.2813 141.941 10.2813M141.941 9.36579C137.813 9.36579 133.854 11.0056 130.936 13.9244C128.017 16.8432 126.377 20.802 126.377 24.9298C126.377 29.0577 128.017 33.0164 130.936 35.9353C133.854 38.8541 137.813 40.4939 141.941 40.4939H156.619C156.861 40.4939 157.094 40.3974 157.266 40.2257C157.438 40.054 157.534 39.8211 157.534 39.5783V24.7162C157.534 24.6306 157.522 24.5453 157.499 24.4629C157.378 20.4163 155.685 16.576 152.779 13.7571C149.873 10.9382 145.983 9.36245 141.935 9.36426L141.941 9.36579Z" fill="white"></path>
  <path d="M141.454 29.3185C141.338 29.3183 141.223 29.2951 141.116 29.2502C141.009 29.2053 140.912 29.1395 140.83 29.0568C140.749 28.9741 140.684 28.876 140.641 28.7682C140.597 28.6604 140.576 28.5451 140.577 28.4289C140.586 27.666 140.601 27.1594 140.624 26.9244C140.656 26.5955 140.745 26.2746 140.888 25.9769C141.008 25.7019 141.177 25.4511 141.387 25.2368C141.572 25.0618 142.009 24.7811 142.698 24.3945C143.238 24.1091 143.755 23.7816 144.244 23.4149C144.574 23.1226 144.839 22.7635 145.021 22.3613C145.202 21.9592 145.296 21.523 145.297 21.0818C145.297 20.1469 144.958 19.4125 144.28 18.8784C143.599 18.3429 142.753 18.0598 141.886 18.0773C140.055 18.0773 138.852 19.0066 138.278 20.8651C138.209 21.092 138.058 21.2849 137.855 21.4058C137.651 21.5268 137.409 21.5669 137.177 21.5182C137.05 21.4906 136.929 21.4367 136.823 21.3601C136.717 21.2834 136.629 21.1856 136.562 21.0729C136.496 20.9602 136.454 20.835 136.439 20.7052C136.424 20.5754 136.436 20.4438 136.474 20.3189C137.272 17.674 139.109 16.3516 141.984 16.3516C143.626 16.3516 144.951 16.8007 145.96 17.6989C146.97 18.5972 147.475 19.7487 147.476 21.1535C147.476 22.9846 146.425 24.4454 144.323 25.5359C143.408 26.0211 142.848 26.4005 142.645 26.6742C142.441 26.9478 142.339 27.3771 142.339 27.962V28.4289C142.341 28.5458 142.319 28.6617 142.275 28.77C142.231 28.8783 142.166 28.9767 142.084 29.0595C142.001 29.1424 141.903 29.2079 141.795 29.2524C141.687 29.2969 141.571 29.3194 141.454 29.3185ZM142.761 32.2925C142.759 32.6149 142.629 32.9235 142.4 33.1507C142.172 33.378 141.862 33.5056 141.54 33.5056H141.477C141.318 33.5056 141.16 33.4742 141.013 33.4132C140.866 33.3522 140.733 33.2628 140.62 33.1502C140.508 33.0375 140.418 32.9038 140.358 32.7566C140.297 32.6094 140.266 32.4517 140.266 32.2925C140.266 32.1333 140.297 31.9755 140.358 31.8284C140.418 31.6812 140.508 31.5475 140.62 31.4348C140.733 31.3221 140.866 31.2328 141.013 31.1718C141.16 31.1108 141.318 31.0794 141.477 31.0794H141.54C141.862 31.0794 142.172 31.207 142.4 31.4342C142.629 31.6615 142.759 31.9701 142.761 32.2925Z" fill="white"></path>
  <path d="M143.919 62.5205H91.482C91.1477 62.5203 90.8232 62.633 90.5612 62.8405C90.2991 63.048 90.1149 63.338 90.0385 63.6634L82.9476 93.676H61.9178C61.9178 93.676 60.6971 99.9627 67.7986 99.9627H135.776C136.11 99.9627 136.434 99.8501 136.696 99.6429C136.958 99.4358 137.142 99.1463 137.219 98.8213L145.363 64.3455C145.414 64.1277 145.415 63.9011 145.367 63.6827C145.318 63.4642 145.221 63.2596 145.082 63.0841C144.943 62.9086 144.767 62.7668 144.565 62.6692C144.364 62.5716 144.143 62.5208 143.919 62.5205Z" fill="#FEBA91"></path>
  <path d="M85.3496 99.9634L94.0854 63.9891C94.1641 63.666 94.3493 63.3787 94.6112 63.1736C94.873 62.9685 95.1962 62.8575 95.5288 62.8584" stroke="#ECA57A" stroke-width="0.915534" stroke-linecap="round" stroke-linejoin="round"></path>
  <path d="M116.542 85.4803C118.57 85.4803 120.214 83.8366 120.214 81.809C120.214 79.7814 118.57 78.1377 116.542 78.1377C114.515 78.1377 112.871 79.7814 112.871 81.809C112.871 83.8366 114.515 85.4803 116.542 85.4803Z" fill="white"></path>
  <path d="M130.856 86.0571C131.563 86.0568 132.255 86.2663 132.843 86.659C133.431 87.0517 133.889 87.6101 134.16 88.2634C134.431 88.9168 134.502 89.6357 134.364 90.3294C134.226 91.023 133.886 91.6602 133.385 92.1603C132.885 92.6604 132.248 93.0009 131.555 93.1388C130.861 93.2767 130.142 93.2058 129.489 92.935C128.835 92.6642 128.277 92.2057 127.884 91.6176C127.491 91.0294 127.282 90.338 127.282 89.6308C127.283 88.6831 127.659 87.7744 128.329 87.1043C129 86.4342 129.908 86.0575 130.856 86.0571ZM130.856 85.1416C129.968 85.1416 129.099 85.405 128.361 85.8985C127.622 86.392 127.047 87.0935 126.707 87.9141C126.367 88.7348 126.278 89.6378 126.452 90.5089C126.625 91.3801 127.053 92.1802 127.681 92.8082C128.309 93.4362 129.11 93.8638 129.981 94.0369C130.852 94.21 131.755 94.1208 132.576 93.7807C133.396 93.4406 134.097 92.8648 134.591 92.1261C135.084 91.3874 135.347 90.519 135.347 89.6308C135.345 88.4404 134.871 87.2993 134.029 86.4577C133.188 85.6161 132.046 85.1428 130.856 85.1416Z" fill="white"></path>
  <path d="M131.785 84.7832H146.702V95.8245C146.702 97.0386 146.22 98.2029 145.362 99.0614C144.503 99.9199 143.339 100.402 142.125 100.402H136.363C135.149 100.402 133.984 99.9199 133.126 99.0614C132.267 98.2029 131.785 97.0386 131.785 95.8245V84.7832Z" fill="#FE7624"></path>
  <path d="M14.9141 100L125.914 100" stroke="#2E186A" stroke-width="1.22071" stroke-linecap="round" stroke-linejoin="round"></path>
  <defs>
    <linearGradient id="paint0_linear_14911_26882" x1="39.011" y1="38.1719" x2="39.011" y2="100.364" gradientUnits="userSpaceOnUse">
      <stop offset="0.415" stop-color="#FE7624"></stop>
      <stop offset="1" stop-color="#6A24FE"></stop>
    </linearGradient>
    <linearGradient id="paint1_linear_14911_26882" x1="17.4715" y1="38.5059" x2="17.4715" y2="100.364" gradientUnits="userSpaceOnUse">
      <stop stop-color="#E36418"></stop>
      <stop offset="1" stop-color="#7D370D" stop-opacity="0"></stop>
    </linearGradient>
  </defs>
</svg>
