<?xml version="1.0" encoding="UTF-8"?>
<svg xmlns="http://www.w3.org/2000/svg" width="320" height="320" viewBox="0 0 320 320" fill="none">
  <g clip-path="url(#clip0_13976_19287)">
    <rect width="320" height="320" fill="url(#paint0_radial_13976_19287)"></rect>
    <g clip-path="url(#clip1_13976_19287)">
      <path d="M243.723 155.849C241.235 155.85 238.77 156.322 236.458 157.241L209.555 145.698L188.317 132.955L181.081 120.121C181.139 109.823 177.281 94.077 134.857 101.929C113.123 105.784 111.331 115.395 115.993 124.63L24.6121 118.268C23.2788 117.989 19.2232 117.878 19.2232 117.878C8.49817 118.551 0 127.773 0 139.054C0 149.715 7.58795 158.538 17.4751 160.044L17.1494 167.899L93.285 169.649L88.965 234.35L220.184 233.022L206.701 158.073L240.513 198.088L240.213 195.079C242.907 195.549 245.669 195.456 248.325 194.804C250.981 194.152 253.473 192.956 255.643 191.291C257.813 189.626 259.613 187.53 260.931 185.133C262.249 182.737 263.055 180.093 263.298 177.37C263.542 174.646 263.217 171.901 262.345 169.309C261.473 166.717 260.072 164.334 258.232 162.312C256.391 160.289 254.151 158.67 251.652 157.558C249.154 156.445 246.452 155.864 243.717 155.849H243.723Z" fill="url(#paint1_linear_13976_19287)"></path>
      <path d="M134.576 121.87L128.708 124.264C128.708 124.264 147.656 134.086 148.836 173.622C151.027 199.035 150.412 233.682 150.412 233.682L163.369 233.54C163.369 233.54 159.945 159.989 165.649 147.23C171.352 134.471 168.552 128.637 165.707 125.967C162.862 123.298 134.576 121.87 134.576 121.87Z" fill="white"></path>
      <path d="M134.055 106.021V120.113C134.023 121.251 134.248 122.382 134.715 123.421C135.181 124.46 135.877 125.379 136.75 126.111C140.09 128.92 147.344 134.016 155.04 142.773C155.04 142.773 167.032 133.96 165.788 120.21L134.055 106.021Z" fill="white" stroke="#2E186A" stroke-width="1.67009" stroke-linecap="round" stroke-linejoin="round"></path>
      <path d="M181.167 119.167V120.121C181.167 122.039 181.008 123.771 180.949 125.132C180.543 134.595 175.956 139.625 174.146 143.402C185.211 141.367 196.651 129.413 198.903 120.13C196.626 118.028 185.211 116.973 181.167 119.167Z" fill="#2E186A"></path>
      <path d="M133.571 145.468C130.32 143.973 119.375 134.676 115.233 122.788C111.651 120.84 102.521 121.87 99.6146 123.532C110.994 147.018 133.588 145.501 133.571 145.468Z" fill="#2E186A"></path>
      <path d="M138.229 143.98C138.229 143.98 143.12 163.951 143.42 173.615" stroke="#2E186A" stroke-width="2.22678" stroke-linecap="round" stroke-linejoin="round"></path>
      <path d="M170.695 143.215C170.695 143.215 166.242 164.012 167.386 173.615" stroke="#2E186A" stroke-width="2.22678" stroke-linecap="round" stroke-linejoin="round"></path>
      <path d="M131.925 96.0986C131.925 96.0986 124.037 96.2517 125.451 103.31C126.865 110.369 135.577 106.286 135.577 106.286L134.411 96.2656L131.925 96.0986Z" fill="white" stroke="#2E186A" stroke-width="1.67009" stroke-linecap="round" stroke-linejoin="round"></path>
      <path d="M154.389 73.8485C156.469 73.6759 170.712 72.7796 172.268 84.662C173.824 96.5444 172.145 109.663 170.829 115.652C169.512 121.642 142.245 118.867 140.7 118.336C139.155 117.804 137.318 115.992 137.318 115.992L133.574 97.744C133.574 97.744 132.057 75.7022 154.389 73.8485Z" fill="white" stroke="#2E186A" stroke-width="1.67009" stroke-linecap="round" stroke-linejoin="round"></path>
      <path d="M136.24 97.5908C137.573 98.899 141.15 106.448 142.024 109.969C142.024 109.969 150.878 107.01 163.563 106.829C163.563 106.829 170.477 106.968 173.236 107.781C173.236 107.781 172.637 120.242 167.031 126.708C161.425 133.174 149.567 131.356 144.008 127.476C138.45 123.596 137.528 121.745 136.24 117.595C134.951 113.445 131.552 97.9666 131.552 97.9666L136.24 97.5908Z" fill="#968BB4"></path>
      <path d="M132.621 100.255C132.621 100.255 128.916 94.518 127.486 88.5643C126.141 82.9585 128.747 77.0855 133.935 74.5749C138.277 72.4734 141.498 74.1212 141.498 74.1212C141.498 74.1212 136.888 66.2775 143.803 59.3468C145.013 58.1353 146.458 57.1833 148.049 56.5492C149.64 55.9151 151.343 55.6121 153.055 55.6588C155.416 55.6815 157.719 56.3924 159.682 57.7046C161.645 59.0167 163.183 60.8731 164.106 63.046C164.106 63.046 173.147 46.4402 191.663 56.2684C193.534 57.2593 195.638 60.0232 196.646 61.8825C202.769 73.1581 182.597 86.5185 172.095 87.5734C160.565 88.7341 153.815 86.8247 150.105 84.0023C152.877 85.6584 149.771 102.91 132.621 100.255Z" fill="#2E186A"></path>
      <path d="M155.042 115.457C155.042 115.457 155.565 118.75 158.593 118.215" stroke="#2E186A" stroke-width="2.22678" stroke-linecap="round" stroke-linejoin="round"></path>
      <path d="M163.5 102.03L164.744 112.891L160.917 111.911" stroke="#2E186A" stroke-width="2.22678" stroke-linecap="round" stroke-linejoin="round"></path>
      <path d="M167.384 103.18C167.999 103.18 168.498 102.409 168.498 101.459C168.498 100.509 167.999 99.7393 167.384 99.7393C166.769 99.7393 166.271 100.509 166.271 101.459C166.271 102.409 166.769 103.18 167.384 103.18Z" fill="#2E186A"></path>
      <path d="M156.676 102.993C157.291 102.993 157.789 102.223 157.789 101.273C157.789 100.323 157.291 99.5527 156.676 99.5527C156.061 99.5527 155.562 100.323 155.562 101.273C155.562 102.223 156.061 102.993 156.676 102.993Z" fill="#2E186A"></path>
      <path d="M151.979 94.0695C152.54 93.3497 153.283 92.7937 154.132 92.4597C154.982 92.1258 155.905 92.0261 156.806 92.1713" stroke="#2E186A" stroke-width="2.22678" stroke-linecap="round" stroke-linejoin="round"></path>
      <path d="M167.021 91.9902C167.021 91.9902 170.105 91.1886 170.876 93.7104" stroke="#2E186A" stroke-width="2.22678" stroke-linecap="round" stroke-linejoin="round"></path>
      <path d="M33.2196 172.831L10.0104 151.54C10.0104 151.54 16.5267 138.275 35.4158 129.089C45.7595 124.063 88.0053 134.269 95.4207 137.398C102.836 140.526 112.559 169.04 112.559 169.04L99.7964 173.46C99.7964 173.46 93.6726 187.502 94.2071 189.645C95.2175 193.773 96.4924 234.004 96.4924 234.004H61.4936C44.2549 234.004 30.5624 219.51 31.5421 202.299L33.2196 172.831Z" fill="#5D21D1"></path>
      <path d="M93.2831 150.403C93.2831 150.403 106.736 166.269 95.6547 185.694" stroke="white" stroke-width="1.67009" stroke-linecap="round" stroke-linejoin="round"></path>
      <path d="M47.6509 163.135L36.8145 175.446L33.0846 171.61" stroke="white" stroke-width="1.67009" stroke-linecap="round" stroke-linejoin="round"></path>
      <path d="M37.7475 219.984C37.7475 219.984 33.4747 226.386 26.4546 228.248C22.2793 229.362 16.7317 230.662 15.7268 229.743C13.8479 228.026 19.8465 225.437 20.7372 224.958" fill="white"></path>
      <path d="M37.7475 219.984C37.7475 219.984 33.4747 226.386 26.4546 228.248C22.2793 229.362 16.7317 230.662 15.7268 229.743C13.8479 228.026 19.8465 225.437 20.7372 224.958" stroke="#2E186A" stroke-width="1.67009" stroke-linecap="round" stroke-linejoin="round"></path>
      <path d="M21.5661 221.298C15.7596 220.505 11.3727 223.066 13.697 225.07C14.571 225.821 27.6147 226.609 31.2333 225.331C34.0336 224.34 34.8018 223.428 39.2861 219.67" fill="white"></path>
      <path d="M21.5661 221.298C15.7596 220.505 11.3727 223.066 13.697 225.07C14.571 225.821 27.6147 226.609 31.2333 225.331C34.0336 224.34 34.8018 223.428 39.2861 219.67" stroke="#2E186A" stroke-width="1.68679" stroke-linecap="round" stroke-linejoin="round"></path>
      <path d="M38.3771 220.758C40.0472 218.732 41.0966 216.931 41.645 215.341C41.645 215.341 42.7305 212.082 42.3102 210.523C40.2671 202.961 37.6033 188.256 28.0028 175.383L31.4266 171.191L11.6773 153.065C9.23056 156.684 6.90073 160.119 4.93555 162.994C3.31047 165.373 2.50449 168.216 2.63959 171.094C2.77469 173.971 3.84352 176.727 5.68432 178.943L28.3897 206.29L26.9478 210.827C24.7962 211.84 19.3209 214.657 19.3209 214.657C13.392 216.767 16.5986 218.526 19.371 218.364C22.1434 218.203 26.3633 216.238 26.9283 215.795C26.9283 215.795 20.9799 218.821 17.353 218.272C14.9981 218.328 13.456 220.658 13.5618 221.384C13.6675 222.111 16.2896 222.033 20.0669 222.28C23.8442 222.528 27.5296 220.352 27.5296 220.352" fill="white"></path>
      <path d="M38.3771 220.758C40.0472 218.732 41.0966 216.931 41.645 215.341C41.645 215.341 42.7305 212.082 42.3102 210.523C40.2671 202.961 37.6033 188.256 28.0028 175.383L31.4266 171.191L11.6773 153.065C9.23056 156.684 6.90073 160.119 4.93555 162.994C3.31047 165.373 2.50449 168.216 2.63959 171.094C2.77469 173.971 3.84352 176.727 5.68433 178.943L28.3897 206.29L26.9478 210.827C24.7962 211.84 19.3209 214.657 19.3209 214.657C13.392 216.767 16.5986 218.526 19.371 218.364C22.1434 218.203 26.3633 216.238 26.9283 215.795C26.9283 215.795 20.9799 218.821 17.353 218.272C14.9981 218.328 13.456 220.658 13.5618 221.384C13.6675 222.111 16.2896 222.033 20.0669 222.28C23.8442 222.528 27.5296 220.352 27.5296 220.352" stroke="#2E186A" stroke-width="1.67009" stroke-linecap="round" stroke-linejoin="round"></path>
      <path d="M68.7886 213.095L79.5832 213.388L88.819 169.966C88.8941 169.519 89.1228 169.112 89.4658 168.815C89.8087 168.519 90.2445 168.351 90.6979 168.341L158.984 169.379C160.231 169.399 161.149 170.707 160.866 172.051L152.198 218.364C151.594 221.228 147.975 223.455 145.389 223.411C128.613 223.132 78.2805 222.175 76.3042 222.147C67.2354 222.008 68.7886 213.095 68.7886 213.095Z" fill="#2E186A"></path>
      <path d="M133.97 215.279C133.97 215.279 140.018 211.608 141.299 214.622C142.579 217.636 132.177 222.268 132.177 222.268" fill="white"></path>
      <path d="M133.97 215.279C133.97 215.279 140.018 211.608 141.299 214.622C142.579 217.636 132.177 222.268 132.177 222.268" stroke="#2E186A" stroke-width="1.67009" stroke-linecap="round" stroke-linejoin="round"></path>
      <path d="M107.125 222.269C121.766 229.088 130.114 228.169 134.707 219.583C138.134 213.181 142.32 203.177 139.503 202.818C136.544 203.211 133.198 213.395 133.198 213.395C133.198 213.395 138.949 201.131 135.885 201.499C133.51 201.83 131.526 205.117 129.065 212.666C129.065 212.666 132.789 204.349 132.723 202.824C132.53 198.498 128.87 196.088 125.007 212.34L127.075 204.288C127.715 200.6 124.216 202.325 122.318 206.102C120.288 210.141 116.667 216.551 115.359 220.437" fill="white"></path>
      <path d="M107.125 222.269C121.766 229.088 130.114 228.169 134.707 219.583C138.134 213.181 142.32 203.177 139.503 202.818C136.544 203.211 133.198 213.395 133.198 213.395C133.198 213.395 138.949 201.131 135.885 201.499C133.51 201.83 131.526 205.117 129.065 212.666C129.065 212.666 132.789 204.349 132.723 202.824C132.53 198.498 128.87 196.088 125.007 212.34L127.075 204.288C127.715 200.6 124.216 202.325 122.318 206.102C120.288 210.141 116.667 216.551 115.359 220.437" stroke="#2E186A" stroke-width="1.67009" stroke-linecap="round" stroke-linejoin="round"></path>
      <path d="M64.5877 71.1963L69.1146 69.8184L66.6894 61.8513L62.1624 63.2292L64.5877 71.1963Z" fill="#FE7624"></path>
      <path d="M62.0187 64.6615C66.6198 64.6615 70.3498 60.9317 70.3498 56.3307C70.3498 51.7298 66.6198 48 62.0187 48C57.4175 48 53.6875 51.7298 53.6875 56.3307C53.6875 60.9317 57.4175 64.6615 62.0187 64.6615Z" fill="#2E186A"></path>
      <path d="M65.6409 66.5146C72.9728 65.0171 82.5983 65.4903 89.3734 69.0196C109.869 80.8936 109.769 95.3841 100.814 101.608C101.479 90.4157 99.9481 85.965 96.207 82.9589C91.8397 89.2077 76.6833 95.1308 64.3466 93.8643C64.3466 93.8198 63.1858 104.953 64.2603 104.998C64.3828 105.677 65.9304 111.856 65.9304 111.856L63.0049 123.527L33.7693 115.636C32.1131 115.408 31.0164 113.624 31.5926 112.096C35.1889 102.526 42.0671 71.6806 65.6409 66.5146Z" fill="#2E186A"></path>
      <path d="M83.0532 123.457L81.9259 133.238L85.3246 134.387C85.8034 135.339 90.335 149.075 75.2092 148.279C65.3527 147.759 53.2916 136.388 52 129.383L54.8782 129.319C59.1287 128.965 61.9206 126.363 63.162 122.282L66.5496 111.148L83.0532 123.457Z" fill="white" stroke="#2E186A" stroke-width="1.67009" stroke-linecap="round" stroke-linejoin="round"></path>
      <path d="M66.3568 108.573L64.6867 108.721C64.6867 108.721 55.0194 108.762 55.8295 99.886C56.4446 93.1529 63.0305 94.3191 66.1759 95.2739" fill="white"></path>
      <path d="M66.3568 108.573L64.6867 108.721C64.6867 108.721 55.0194 108.762 55.8295 99.886C56.4446 93.1529 63.0305 94.3191 66.1759 95.2739" stroke="#2E186A" stroke-width="1.67009" stroke-linecap="round" stroke-linejoin="round"></path>
      <path d="M100.802 101.618C101.467 90.4259 99.9393 86.4011 96.201 83.4033C91.9004 89.5519 78.3862 95.5112 64.6383 93.9218C64.1595 95.4193 64.5548 94.0805 64.2904 95.7589C64.1289 97.5124 63.9731 99.4998 63.9062 101.184C64.0816 107.602 65.9104 111.861 65.9104 111.861C68.4156 118.444 73.2952 123.849 80.5546 125.55C93.2253 128.514 99.2044 110.917 100.062 106.945C100.485 104.975 100.811 101.607 100.811 101.607L100.802 101.618Z" fill="white" stroke="#2E186A" stroke-width="1.67009" stroke-linecap="round" stroke-linejoin="round"></path>
      <path d="M88.5 110.083L92.2049 110.606L91.7261 95.6367" stroke="#2E186A" stroke-width="1.67009" stroke-linecap="round" stroke-linejoin="round"></path>
      <path d="M81 94.443C81 94.443 83.739 91.7793 86.041 93.8028" stroke="#2E186A" stroke-width="1.67009" stroke-linecap="round" stroke-linejoin="round"></path>
      <path d="M85.932 116.398C85.932 116.398 82.1408 116.86 81.5312 113.854" stroke="#2E186A" stroke-width="1.67009" stroke-linecap="round" stroke-linejoin="round"></path>
      <path d="M96.1354 96.1183C96.1354 96.1183 99.6399 94.5958 101.079 97.3013" stroke="#2E186A" stroke-width="1.67009" stroke-linecap="round" stroke-linejoin="round"></path>
      <path d="M85.0282 101.31C85.212 100.266 84.8137 99.3225 84.1384 99.2036C83.4631 99.0848 82.7667 99.8354 82.5829 100.88C82.399 101.925 82.7974 102.868 83.4727 102.987C84.1479 103.105 84.8444 102.355 85.0282 101.31Z" fill="#2E186A"></path>
      <path d="M98.0282 103.521C98.212 102.477 97.8137 101.533 97.1384 101.415C96.4631 101.296 95.7667 102.046 95.5829 103.091C95.399 104.136 95.7974 105.079 96.4727 105.198C97.1479 105.316 97.8444 104.566 98.0282 103.521Z" fill="#2E186A"></path>
      <path d="M89.3052 99.5588C90.2752 93.9075 87.5857 88.7297 83.2978 87.9937C79.0099 87.2577 74.7475 91.2423 73.7774 96.8935C72.8073 102.545 75.4969 107.723 79.7848 108.459C84.0726 109.195 88.3351 105.21 89.3052 99.5588Z" stroke="#FE7624" stroke-width="1.67009" stroke-linecap="round" stroke-linejoin="round"></path>
      <path d="M109.826 103.831C110.796 98.18 108.106 93.0021 103.819 92.2661C99.5307 91.5301 95.2682 95.5147 94.2981 101.166C93.328 106.817 96.0176 111.995 100.306 112.731C104.593 113.467 108.856 109.482 109.826 103.831Z" stroke="#FE7624" stroke-width="1.67009" stroke-linecap="round" stroke-linejoin="round"></path>
      <path d="M94.2532 99.6218L89.3541 98.9482" stroke="#FE7624" stroke-width="1.67009" stroke-linecap="round" stroke-linejoin="round"></path>
      <path d="M74.1242 95.1036L63.4688 94.7529" stroke="#FE7624" stroke-width="1.67009" stroke-linecap="round" stroke-linejoin="round"></path>
      <path d="M30.2366 156.816L44.6415 151.987L36.6193 136.024L20.5443 144.408L30.2366 156.816Z" fill="white"></path>
      <path d="M37.9193 137.518C37.9193 137.518 42.874 144.612 44.4328 146.875C46.938 150.522 46.231 154.702 42.0557 153.063" fill="white"></path>
      <path d="M37.9193 137.518C37.9193 137.518 42.874 144.612 44.4328 146.875C46.938 150.522 46.231 154.702 42.0557 153.063" stroke="#2E186A" stroke-width="1.67009" stroke-linecap="round" stroke-linejoin="round"></path>
      <path d="M34.2109 142.699C34.2109 142.699 43.1183 153.059 43.7585 156.04C44.3987 159.021 40.6966 160.867 37.6347 156.202" fill="white"></path>
      <path d="M34.2109 142.699C34.2109 142.699 43.1183 153.059 43.7585 156.04C44.3987 159.021 40.6966 160.867 37.6347 156.202" stroke="#2E186A" stroke-width="1.67009" stroke-linecap="round" stroke-linejoin="round"></path>
      <path d="M30.6804 145.474C30.6804 145.474 39.1284 155.461 38.1236 158.834C36.9962 162.617 31.6268 154.971 29.7006 152.766" fill="white"></path>
      <path d="M30.6804 145.474C30.6804 145.474 39.1284 155.461 38.1236 158.834C36.9962 162.617 31.6268 154.971 29.7006 152.766" stroke="#2E186A" stroke-width="1.67009" stroke-linecap="round" stroke-linejoin="round"></path>
      <path d="M37.9127 137.518L42.4638 139.723C42.5898 139.783 42.719 139.836 42.8507 139.882C45.6844 140.811 46.7477 139.845 47.1235 138.721C47.3019 138.141 47.3105 137.523 47.1482 136.939C46.9858 136.355 46.6594 135.83 46.2077 135.425C40.8633 130.474 27.3491 129.023 27.3491 129.023C24.0506 128.642 15.4216 132.255 16.9943 139.514C18.5671 146.773 23.6749 156.031 28.5043 158.72C33.3338 161.408 34.4695 158.238 29.7012 152.771C29.64 152.699 26.1717 148.335 26.1717 148.335" fill="white"></path>
      <path d="M37.9127 137.518L42.4638 139.723C42.5898 139.783 42.719 139.836 42.8507 139.882C45.6844 140.811 46.7477 139.845 47.1235 138.721C47.3019 138.141 47.3105 137.523 47.1482 136.939C46.9858 136.355 46.6594 135.83 46.2077 135.425C40.8633 130.474 27.3491 129.023 27.3491 129.023C24.0506 128.642 15.4216 132.255 16.9943 139.514C18.5671 146.773 23.6749 156.031 28.5043 158.72C33.3338 161.408 34.4695 158.238 29.7012 152.771C29.64 152.699 26.1717 148.335 26.1717 148.335" stroke="#2E186A" stroke-width="1.67009" stroke-linecap="round" stroke-linejoin="round"></path>
      <path d="M284.073 186.066L289.484 179.305C289.484 179.305 291.394 170.064 292.738 166.835C294.083 163.607 298.954 161.032 297.409 165.705C295.864 170.379 296.398 172.333 296.398 172.333C296.398 172.333 303.357 164.932 306.272 159.334C309.256 153.606 311.207 159.259 311.207 159.259C311.207 159.259 315.037 157.661 314.761 160.286C314.761 160.286 318.416 160.239 316.626 163.406C316.626 163.406 320.735 161.533 319.883 165.154C320.214 169.396 312.721 182.23 305.562 185.768L302.72 189.715L299.296 194.948" fill="white"></path>
      <path d="M284.073 186.066L289.484 179.305C289.484 179.305 291.394 170.064 292.738 166.835C294.083 163.607 298.954 161.032 297.409 165.705C295.864 170.379 296.398 172.333 296.398 172.333C296.398 172.333 303.357 164.932 306.272 159.334C309.256 153.606 311.207 159.259 311.207 159.259C311.207 159.259 315.037 157.661 314.761 160.286C314.761 160.286 318.416 160.239 316.626 163.406C316.626 163.406 320.735 161.533 319.883 165.154C320.214 169.396 312.721 182.23 305.562 185.768L302.72 189.715L299.296 194.948" stroke="#2E186A" stroke-width="1.67009" stroke-linecap="round" stroke-linejoin="round"></path>
      <path d="M302.74 170.88C302.74 170.88 310.008 163.752 311.213 159.26L302.74 170.88Z" fill="white"></path>
      <path d="M302.74 170.88C302.74 170.88 310.008 163.752 311.213 159.26" stroke="#2E186A" stroke-width="1.67009" stroke-linecap="round" stroke-linejoin="round"></path>
      <path d="M305.573 173.138C306.255 172.186 312.315 166.925 314.174 160.226L305.573 173.138Z" fill="white"></path>
      <path d="M305.573 173.138C306.255 172.186 312.315 166.925 314.174 160.226" stroke="#2E186A" stroke-width="1.67009" stroke-linecap="round" stroke-linejoin="round"></path>
      <path d="M308.458 175.523C309.903 173.575 314.287 171.306 316.781 163.624L308.458 175.523Z" fill="white"></path>
      <path d="M308.458 175.523C309.903 173.575 314.287 171.306 316.781 163.624" stroke="#2E186A" stroke-width="1.67009" stroke-linecap="round" stroke-linejoin="round"></path>
      <path d="M138.803 236.226L161.795 188.123C164.301 181.721 167.961 175.144 174.636 173.499C190.185 169.672 214.905 166.39 233.427 165.825C235.923 165.747 238.402 166.255 240.666 167.307C242.93 168.359 244.916 169.927 246.465 171.885L269.995 199.568L286.696 178.749L306.668 191.488L277.997 230.807C275.41 233.443 271.92 235.001 268.23 235.167C264.54 235.332 260.925 234.094 258.112 231.7L246.421 220.686L247.172 229.894C249.073 253.191 230.679 273.148 207.305 273.148H177.99L178.285 259.868L138.803 236.226Z" fill="#2E186A"></path>
      <path d="M216.337 167.962L210.007 151.796L190.731 164.079L192.468 176.151C199.68 196.347 217.729 171.516 216.337 167.962Z" fill="white" stroke="#2E186A" stroke-width="1.67009" stroke-linecap="round" stroke-linejoin="round"></path>
      <path d="M179.001 123.241C179.001 123.241 196.342 131.842 189.422 142.288C189.422 142.288 186.308 146.678 183.298 146.185C183.298 146.185 185.088 142.55 182.438 141.027C182.438 141.027 182.717 151.365 174.11 150.132C174.11 150.132 176.732 145.275 175.351 139.917C172.484 128.728 174.416 121.641 179.001 123.241Z" fill="#2E186A"></path>
      <path d="M214.437 136.034C214.437 136.034 215.551 115.693 194.952 114.265C193.034 114.131 179.888 113.485 178.602 124.46C177.744 131.792 178.226 139.611 179.025 145.637C179.025 145.67 180.361 157.049 185.494 162.919C190.627 168.789 200.525 167.208 205.502 163.562C210.479 159.915 211.267 158.198 212.375 154.354C213.482 150.51 214.432 136.076 214.432 136.076L214.437 136.034Z" fill="white" stroke="#2E186A" stroke-width="1.67009" stroke-linecap="round" stroke-linejoin="round"></path>
      <path d="M186.909 140.364L185.898 150.393L189.414 149.441" stroke="#2E186A" stroke-width="1.67009" stroke-linecap="round" stroke-linejoin="round"></path>
      <path d="M184.973 138.581C184.99 137.705 184.544 136.986 183.977 136.975C183.41 136.964 182.936 137.665 182.919 138.541C182.902 139.417 183.348 140.136 183.915 140.147C184.482 140.158 184.956 139.457 184.973 138.581Z" fill="#2E186A"></path>
      <path d="M194.026 140.518C194.585 140.423 194.919 139.646 194.773 138.782C194.626 137.918 194.054 137.295 193.494 137.39C192.935 137.485 192.601 138.262 192.747 139.126C192.894 139.99 193.466 140.613 194.026 140.518Z" fill="#2E186A"></path>
      <path d="M197.085 132.469C196.523 131.843 195.803 131.38 195.001 131.127C194.198 130.875 193.343 130.842 192.523 131.033" stroke="#2E186A" stroke-width="1.67009" stroke-linecap="round" stroke-linejoin="round"></path>
      <path d="M183.523 131.152C183.523 131.152 179.852 129.924 178.513 132.201" stroke="#2E186A" stroke-width="1.67009" stroke-linecap="round" stroke-linejoin="round"></path>
      <path d="M197.044 122.693C197.044 122.693 192.069 150.296 210.199 151.27C210.199 151.27 220.776 152.072 222.789 148.158C222.789 148.158 214.853 144.91 215.373 140.515C215.373 140.515 224.773 148.957 231.479 141.551C231.479 141.551 218.97 140.732 218.953 129.548C218.942 121.527 199.142 115.979 197.044 122.693Z" fill="#2E186A"></path>
      <path d="M230.053 123.21L219.022 122.654C217.165 115.442 211.852 105.397 196.667 105.143C172.943 104.765 174.524 127.656 174.524 127.656L229.694 130.325C230.168 130.36 230.644 130.301 231.094 130.149C231.545 129.998 231.96 129.758 232.317 129.444C232.673 129.129 232.963 128.747 233.169 128.319C233.375 127.891 233.494 127.426 233.518 126.952C233.542 126.477 233.471 126.003 233.309 125.556C233.146 125.109 232.897 124.7 232.574 124.351C232.251 124.003 231.862 123.722 231.429 123.526C230.996 123.33 230.528 123.223 230.053 123.21Z" fill="#FE7624"></path>
      <path d="M196.845 151.075C196.845 151.075 195.709 154.694 190.721 154.415" stroke="#2E186A" stroke-width="1.67009" stroke-linecap="round" stroke-linejoin="round"></path>
      <path d="M163.198 253.6L176.882 216.939" stroke="white" stroke-width="1.67009" stroke-linecap="round" stroke-linejoin="round"></path>
      <path d="M268.854 200.274C268.854 200.274 261.873 204.277 263.104 211.055" stroke="white" stroke-width="1.67009" stroke-linecap="round" stroke-linejoin="round"></path>
      <path d="M268.074 199.762C268.074 199.762 260.836 196.834 258 205.607" stroke="white" stroke-width="1.67009" stroke-linecap="round" stroke-linejoin="round"></path>
      <path d="M186.97 263.386H150.828C150.382 263.386 149.943 263.281 149.545 263.079C149.148 262.877 148.803 262.585 148.54 262.225L123.413 227.909C123.104 227.486 122.919 226.986 122.876 226.464C122.834 225.942 122.937 225.419 123.174 224.952C123.411 224.486 123.773 224.093 124.218 223.819C124.664 223.545 125.178 223.4 125.701 223.399H161.845C162.291 223.4 162.73 223.505 163.127 223.707C163.524 223.908 163.868 224.201 164.131 224.56L189.258 258.877C189.567 259.299 189.752 259.799 189.795 260.321C189.837 260.843 189.734 261.366 189.497 261.833C189.26 262.3 188.898 262.692 188.452 262.966C188.006 263.24 187.493 263.385 186.97 263.386Z" fill="#5D21D1"></path>
      <path d="M152.381 242.491C152.381 242.491 144.142 249.196 144.003 249.319C143.864 249.441 152.885 259.242 152.885 259.242L162.274 249.578L152.381 242.491Z" fill="white"></path>
      <path d="M155.178 244.482C156.57 243.978 160.932 241.281 162.185 241.765C164.779 242.767 160.963 245.383 158.212 247.777" fill="white"></path>
      <path d="M155.178 244.482C156.57 243.978 160.932 241.281 162.185 241.765C164.779 242.767 160.963 245.383 158.212 247.777" stroke="#2E186A" stroke-width="1.67009" stroke-linecap="round" stroke-linejoin="round"></path>
      <path d="M158.584 253.196C158.584 253.196 163.472 249.347 164.987 252.729C165.61 254.12 160.255 258.39 155.186 259.91C150.342 261.363 134.588 266.765 134.543 251.972C134.543 249.544 135.1 246.31 136.834 240.749C139.061 233.696 142.958 236.68 142.638 239.235C142.317 241.79 142.509 246.653 142.509 246.653C142.509 246.653 150.443 240.287 155.225 240.173C161.101 240.014 156.455 244.331 146.98 250.09" fill="white"></path>
      <path d="M158.584 253.196C158.584 253.196 163.472 249.347 164.987 252.729C165.61 254.12 160.255 258.39 155.186 259.91C150.342 261.363 134.588 266.765 134.543 251.972C134.543 249.544 135.1 246.31 136.834 240.749C139.061 233.696 142.958 236.68 142.638 239.235C142.317 241.79 142.509 246.653 142.509 246.653C142.509 246.653 150.443 240.287 155.225 240.173C161.101 240.014 156.455 244.331 146.98 250.09" stroke="#2E186A" stroke-width="1.67009" stroke-linecap="round" stroke-linejoin="round"></path>
      <path d="M151.355 252.729C151.355 252.729 155.45 250.16 158.197 247.778L158.935 247.059C158.935 247.059 163.11 244.056 165.337 245.668C167.564 247.279 162.47 251.574 156.669 254.981" fill="white"></path>
      <path d="M151.355 252.729C151.355 252.729 155.45 250.16 158.197 247.778L158.935 247.059C158.935 247.059 163.11 244.056 165.337 245.668C167.564 247.279 162.47 251.574 156.669 254.981" stroke="#2E186A" stroke-width="1.67009" stroke-linecap="round" stroke-linejoin="round"></path>
      <path d="M243.099 191.954L228.415 188.038L235.422 171.602L251.989 178.961L243.099 191.954Z" fill="white"></path>
      <path d="M234.221 173.188C234.221 173.188 229.722 180.58 228.308 182.929C226.026 186.726 227.006 190.851 231.07 188.956" fill="white"></path>
      <path d="M234.221 173.188C234.221 173.188 229.722 180.58 228.308 182.929C226.026 186.726 227.006 190.851 231.07 188.956" stroke="#2E186A" stroke-width="1.67009" stroke-linecap="round" stroke-linejoin="round"></path>
      <path d="M238.259 178.115C238.259 178.115 230.015 189.012 229.566 192.032C229.118 195.052 232.907 196.656 235.69 191.81" fill="white"></path>
      <path d="M238.259 178.115C238.259 178.115 230.015 189.012 229.566 192.032C229.118 195.052 232.907 196.656 235.69 191.81" stroke="#2E186A" stroke-width="1.67009" stroke-linecap="round" stroke-linejoin="round"></path>
      <path d="M241.956 180.661C241.956 180.661 234.162 191.157 235.364 194.456C236.726 198.16 241.608 190.192 243.389 187.87" fill="white"></path>
      <path d="M241.956 180.661C241.956 180.661 234.162 191.157 235.364 194.456C236.726 198.16 241.608 190.192 243.389 187.87" stroke="#2E186A" stroke-width="1.67009" stroke-linecap="round" stroke-linejoin="round"></path>
      <path d="M234.229 173.188L229.831 175.663C229.709 175.73 229.584 175.79 229.455 175.844C226.672 176.957 225.558 176.055 225.119 174.956C224.906 174.389 224.859 173.774 224.984 173.182C225.109 172.59 225.401 172.047 225.826 171.616C230.85 166.327 244.244 164.036 244.244 164.036C247.512 163.449 256.35 166.514 255.237 173.856C254.123 181.199 249.608 190.763 244.954 193.741C240.3 196.719 238.972 193.635 243.387 187.879C243.446 187.804 246.633 183.231 246.633 183.231" fill="white"></path>
      <path d="M234.229 173.188L229.831 175.663C229.709 175.73 229.584 175.79 229.455 175.844C226.672 176.957 225.558 176.055 225.119 174.956C224.906 174.389 224.859 173.774 224.984 173.182C225.109 172.59 225.401 172.047 225.826 171.616C230.85 166.327 244.244 164.036 244.244 164.036C247.512 163.449 256.35 166.514 255.237 173.856C254.123 181.199 249.608 190.763 244.954 193.741C240.3 196.719 238.972 193.635 243.387 187.879C243.446 187.804 246.633 183.231 246.633 183.231" stroke="#2E186A" stroke-width="1.67009" stroke-linecap="round" stroke-linejoin="round"></path>
    </g>
  </g>
  <defs>
    <radialGradient id="paint0_radial_13976_19287" cx="0" cy="0" r="1" gradientUnits="userSpaceOnUse" gradientTransform="translate(160 160) rotate(90) scale(160)">
      <stop stop-color="#FEBA91"></stop>
      <stop offset="1" stop-color="white" stop-opacity="0"></stop>
    </radialGradient>
    <linearGradient id="paint1_linear_13976_19287" x1="131.688" y1="99.8096" x2="131.688" y2="234.35" gradientUnits="userSpaceOnUse">
      <stop offset="0.415" stop-color="#FE7624"></stop>
      <stop offset="1" stop-color="#6A24FE"></stop>
    </linearGradient>
    <clipPath id="clip0_13976_19287">
      <rect width="320" height="320" fill="white"></rect>
    </clipPath>
    <clipPath id="clip1_13976_19287">
      <rect width="320" height="320" fill="white"></rect>
    </clipPath>
  </defs>
</svg>
