<?xml version="1.0" encoding="UTF-8"?>
<svg xmlns="http://www.w3.org/2000/svg" width="320" height="320" viewBox="0 0 320 320" fill="none">
  <rect width="320" height="320" fill="url(#paint0_radial_13927_12306)"></rect>
  <path d="M244.314 64H74.2422C70.2831 64 67.0736 67.2095 67.0736 71.1685V247.549C67.0736 251.509 70.2831 254.718 74.2422 254.718H244.314C248.273 254.718 251.483 251.509 251.483 247.549V71.1685C251.483 67.2095 248.273 64 244.314 64Z" fill="#FEBA91"></path>
  <path d="M75.8291 247.378V71.548C75.8291 67.8609 78.6985 64.8691 82.2387 64.8691" stroke="white" stroke-width="1.46896" stroke-linecap="round" stroke-linejoin="round"></path>
  <path d="M137.998 64.3633V227.12" stroke="white" stroke-width="1.46896" stroke-linecap="round" stroke-linejoin="round"></path>
  <path d="M175.935 75.8438H174.615C173.939 75.8438 173.391 76.3918 173.391 77.0679V79.6655C173.391 80.3416 173.939 80.8896 174.615 80.8896H175.935C176.611 80.8896 177.159 80.3416 177.159 79.6655V77.0679C177.159 76.3918 176.611 75.8438 175.935 75.8438Z" fill="white"></path>
  <path d="M170.72 75.8438H147.261C146.584 75.8438 146.036 76.3918 146.036 77.0679V79.6655C146.036 80.3416 146.584 80.8896 147.261 80.8896H170.72C171.396 80.8896 171.944 80.3416 171.944 79.6655V77.0679C171.944 76.3918 171.396 75.8438 170.72 75.8438Z" fill="white"></path>
  <path d="M173.065 99.2832H147.261C146.584 99.2832 146.036 99.8313 146.036 100.507V103.105C146.036 103.781 146.584 104.329 147.261 104.329H173.065C173.741 104.329 174.289 103.781 174.289 103.105V100.507C174.289 99.8313 173.741 99.2832 173.065 99.2832Z" fill="white"></path>
  <path d="M195.776 91.4805H154.405C153.728 91.4805 153.18 92.0285 153.18 92.7046V95.3022C153.18 95.9783 153.728 96.5264 154.405 96.5264H195.776C196.452 96.5264 197 95.9783 197 95.3022V92.7046C197 92.0285 196.452 91.4805 195.776 91.4805Z" fill="white"></path>
  <path d="M218.114 91.4805H200.675C199.999 91.4805 199.451 92.0285 199.451 92.7046V95.3022C199.451 95.9783 199.999 96.5264 200.675 96.5264H218.114C218.79 96.5264 219.338 95.9783 219.338 95.3022V92.7046C219.338 92.0285 218.79 91.4805 218.114 91.4805Z" fill="white"></path>
  <path d="M237.002 119.916H235.683C235.006 119.916 234.458 120.464 234.458 121.14V123.738C234.458 124.414 235.006 124.962 235.683 124.962H237.002C237.678 124.962 238.226 124.414 238.226 123.738V121.14C238.226 120.464 237.678 119.916 237.002 119.916Z" fill="white"></path>
  <path d="M229.058 127.859H227.738C227.062 127.859 226.514 128.407 226.514 129.084V131.681C226.514 132.357 227.062 132.905 227.738 132.905H229.058C229.734 132.905 230.282 132.357 230.282 131.681V129.084C230.282 128.407 229.734 127.859 229.058 127.859Z" fill="white"></path>
  <path d="M190.125 83.6602H147.261C146.584 83.6602 146.036 84.2082 146.036 84.8843V87.4819C146.036 88.158 146.584 88.706 147.261 88.706H190.125C190.801 88.706 191.349 88.158 191.349 87.4819V84.8843C191.349 84.2082 190.801 83.6602 190.125 83.6602Z" fill="white"></path>
  <path d="M203.505 75.8438H180.045C179.369 75.8438 178.821 76.3918 178.821 77.0679V79.6655C178.821 80.3416 179.369 80.8896 180.045 80.8896H203.505C204.181 80.8896 204.729 80.3416 204.729 79.6655V77.0679C204.729 76.3918 204.181 75.8438 203.505 75.8438Z" fill="white"></path>
  <path d="M222.19 83.6465H194.598C193.922 83.6465 193.374 84.1945 193.374 84.8706V87.5001C193.374 88.1761 193.922 88.7242 194.598 88.7242H222.19C222.866 88.7242 223.414 88.1761 223.414 87.5001V84.8706C223.414 84.1945 222.866 83.6465 222.19 83.6465Z" fill="white"></path>
  <path d="M170.72 119.875H147.261C146.584 119.875 146.036 120.423 146.036 121.099V123.697C146.036 124.373 146.584 124.921 147.261 124.921H170.72C171.396 124.921 171.944 124.373 171.944 123.697V121.099C171.944 120.423 171.396 119.875 170.72 119.875Z" fill="white"></path>
  <path d="M221.897 135.51H200.675C199.999 135.51 199.451 136.058 199.451 136.734V139.332C199.451 140.008 199.999 140.556 200.675 140.556H221.897C222.573 140.556 223.121 140.008 223.121 139.332V136.734C223.121 136.058 222.573 135.51 221.897 135.51Z" fill="white"></path>
  <path d="M190.125 127.693H147.261C146.584 127.693 146.036 128.241 146.036 128.917V131.515C146.036 132.191 146.584 132.739 147.261 132.739H190.125C190.801 132.739 191.349 132.191 191.349 131.515V128.917C191.349 128.241 190.801 127.693 190.125 127.693Z" fill="white"></path>
  <path d="M203.505 119.875H174.615C173.939 119.875 173.391 120.423 173.391 121.099V123.697C173.391 124.373 173.939 124.921 174.615 124.921H203.505C204.181 124.921 204.729 124.373 204.729 123.697V121.099C204.729 120.423 204.181 119.875 203.505 119.875Z" fill="white"></path>
  <path d="M231.408 119.875H207.948C207.272 119.875 206.724 120.423 206.724 121.099V123.697C206.724 124.373 207.272 124.921 207.948 124.921H231.408C232.084 124.921 232.632 124.373 232.632 123.697V121.099C232.632 120.423 232.084 119.875 231.408 119.875Z" fill="white"></path>
  <path d="M175.935 112.312H174.615C173.939 112.312 173.391 112.861 173.391 113.537V116.134C173.391 116.81 173.939 117.358 174.615 117.358H175.935C176.611 117.358 177.159 116.81 177.159 116.134V113.537C177.159 112.861 176.611 112.312 175.935 112.312Z" fill="white"></path>
  <path d="M170.72 112.312H147.261C146.584 112.312 146.036 112.861 146.036 113.537V116.134C146.036 116.81 146.584 117.358 147.261 117.358H170.72C171.396 117.358 171.944 116.81 171.944 116.134V113.537C171.944 112.861 171.396 112.312 170.72 112.312Z" fill="white"></path>
  <path d="M203.505 112.312H180.045C179.369 112.312 178.821 112.861 178.821 113.537V116.134C178.821 116.81 179.369 117.358 180.045 117.358H203.505C204.181 117.358 204.729 116.81 204.729 116.134V113.537C204.729 112.861 204.181 112.312 203.505 112.312Z" fill="white"></path>
  <path d="M224.112 127.678H194.598C193.922 127.678 193.374 128.226 193.374 128.902V131.531C193.374 132.207 193.922 132.755 194.598 132.755H224.112C224.788 132.755 225.336 132.207 225.336 131.531V128.902C225.336 128.226 224.788 127.678 224.112 127.678Z" fill="white"></path>
  <path d="M118.094 122.699H90.7178C90.0417 122.699 89.4937 123.247 89.4937 123.923V126.506C89.4937 127.182 90.0417 127.73 90.7178 127.73H118.094C118.77 127.73 119.319 127.182 119.319 126.506V123.923C119.319 123.247 118.77 122.699 118.094 122.699Z" fill="white"></path>
  <path d="M95.5899 115.352H90.7178C90.0417 115.352 89.4937 115.9 89.4937 116.576V119.159C89.4937 119.835 90.0417 120.383 90.7178 120.383H95.5899C96.2659 120.383 96.814 119.835 96.814 119.159V116.576C96.814 115.9 96.2659 115.352 95.5899 115.352Z" fill="white"></path>
  <path d="M105.131 106.74H90.7178C90.0417 106.74 89.4937 107.288 89.4937 107.964V110.547C89.4937 111.223 90.0417 111.771 90.7178 111.771H105.131C105.807 111.771 106.355 111.223 106.355 110.547V107.964C106.355 107.288 105.807 106.74 105.131 106.74Z" fill="white"></path>
  <path d="M110.524 99.2031H90.7178C90.0417 99.2031 89.4937 99.7512 89.4937 100.427V103.01C89.4937 103.686 90.0417 104.234 90.7178 104.234H110.524C111.2 104.234 111.748 103.686 111.748 103.01V100.427C111.748 99.7512 111.2 99.2031 110.524 99.2031Z" fill="white"></path>
  <path d="M105.131 91.541H90.7178C90.0417 91.541 89.4937 92.0891 89.4937 92.7652V95.3481C89.4937 96.0242 90.0417 96.5722 90.7178 96.5722H105.131C105.807 96.5722 106.355 96.0242 106.355 95.3481V92.7652C106.355 92.0891 105.807 91.541 105.131 91.541Z" fill="white"></path>
  <path d="M99.3235 83.4316H90.7178C90.0417 83.4316 89.4937 83.9797 89.4937 84.6558V87.2387C89.4937 87.9148 90.0417 88.4628 90.7178 88.4628H99.3235C99.9996 88.4628 100.548 87.9148 100.548 87.2387V84.6558C100.548 83.9797 99.9996 83.4316 99.3235 83.4316Z" fill="white"></path>
  <path d="M105.47 83.4316H103.394C102.948 83.4316 102.586 83.7934 102.586 84.2396V87.6549C102.586 88.1011 102.948 88.4628 103.394 88.4628H105.47C105.916 88.4628 106.278 88.1011 106.278 87.6549V84.2396C106.278 83.7934 105.916 83.4316 105.47 83.4316Z" fill="white"></path>
  <path d="M111.079 91.4434H109.003C108.557 91.4434 108.195 91.8051 108.195 92.2513V95.6666C108.195 96.1128 108.557 96.4746 109.003 96.4746H111.079C111.525 96.4746 111.887 96.1128 111.887 95.6666V92.2513C111.887 91.8051 111.525 91.4434 111.079 91.4434Z" fill="white"></path>
  <path d="M117.06 99.2109H114.984C114.538 99.2109 114.176 99.5727 114.176 100.019V103.434C114.176 103.88 114.538 104.242 114.984 104.242H117.06C117.507 104.242 117.868 103.88 117.868 103.434V100.019C117.868 99.5727 117.507 99.2109 117.06 99.2109Z" fill="white"></path>
  <path d="M111.269 106.803H109.192C108.746 106.803 108.385 107.164 108.385 107.611V111.026C108.385 111.472 108.746 111.834 109.192 111.834H111.269C111.715 111.834 112.077 111.472 112.077 111.026V107.611C112.077 107.164 111.715 106.803 111.269 106.803Z" fill="white"></path>
  <path d="M101.492 115.367H99.4156C98.9694 115.367 98.6077 115.729 98.6077 116.175V119.59C98.6077 120.037 98.9694 120.398 99.4156 120.398H101.492C101.938 120.398 102.3 120.037 102.3 119.59V116.175C102.3 115.729 101.938 115.367 101.492 115.367Z" fill="white"></path>
  <path d="M123.515 122.689H121.439C120.992 122.689 120.631 123.051 120.631 123.497V126.913C120.631 127.359 120.992 127.721 121.439 127.721H123.515C123.961 127.721 124.323 127.359 124.323 126.913V123.497C124.323 123.051 123.961 122.689 123.515 122.689Z" fill="white"></path>
  <path d="M108.35 75.3184H90.4088C89.7328 75.3184 89.1847 75.8664 89.1847 76.5425V79.1254C89.1847 79.8015 89.7328 80.3496 90.4088 80.3496H108.35C109.026 80.3496 109.574 79.8015 109.574 79.1254V76.5425C109.574 75.8664 109.026 75.3184 108.35 75.3184Z" fill="white"></path>
  <path d="M72.999 192H1.99902V255H72.999V192Z" fill="white" stroke="#2E186A" stroke-width="1.46896" stroke-linecap="round" stroke-linejoin="round"></path>
  <path d="M97.1224 131.551C97.1224 131.551 101.708 130.312 104.311 127.822C105.863 126.338 107.856 124.335 107.819 123.682C107.753 122.458 105.187 124.338 104.771 124.597" fill="white"></path>
  <path d="M97.1224 131.551C97.1224 131.551 101.708 130.312 104.311 127.822C105.863 126.338 107.856 124.335 107.819 123.682C107.753 122.458 105.187 124.338 104.771 124.597" stroke="#2E186A" stroke-width="1.46896" stroke-linecap="round" stroke-linejoin="round"></path>
  <path d="M99.6121 127.496C99.6121 127.496 101.784 125.615 102.55 124.053C103.316 122.491 103.833 121.287 103.568 121.076C103.304 120.866 101.904 121.243 101.338 122.168C100.714 123.738 98.17 125.86 98.17 125.86C98.4785 125.738 100.043 124.007 100.755 122.922C101.468 121.838 101.502 120.17 99.2865 122.043C99.2865 122.043 96.9484 124.127 96.0474 124.749C96.0474 124.749 91.9612 126.284 90.9427 128.022C90.2548 129.195 84.8539 138.178 80.5939 144.039C77.9742 146.781 73.0213 163.573 81.0835 161.715C82.7655 161.38 84.6507 159.771 85.2138 158.349L95.925 132.118C98.3977 131.092 100.07 129.998 101.142 129.036C102.53 127.787 106.431 122.602 106.396 122.048C106.308 120.579 103.909 121.196 102.67 123.87" fill="white"></path>
  <path d="M99.6121 127.496C99.6121 127.496 101.784 125.615 102.55 124.053C103.316 122.491 103.833 121.287 103.568 121.076C103.304 120.866 101.904 121.243 101.338 122.168C100.714 123.738 98.17 125.86 98.17 125.86C98.4785 125.738 100.043 124.007 100.755 122.922C101.468 121.838 101.502 120.17 99.2865 122.043C99.2865 122.043 96.9484 124.127 96.0474 124.749C96.0474 124.749 91.9612 126.284 90.9427 128.022C90.2548 129.195 84.8539 138.178 80.5939 144.039C77.9742 146.781 73.0213 163.573 81.0835 161.715C82.7655 161.38 84.6507 159.771 85.2138 158.349L95.925 132.118C98.3977 131.092 100.07 129.998 101.142 129.036C102.53 127.787 106.431 122.602 106.396 122.048C106.308 120.579 103.909 121.196 102.67 123.87" stroke="#2E186A" stroke-width="1.46896" stroke-linecap="round" stroke-linejoin="round"></path>
  <path d="M80.9282 141.915L86.8775 131.094L96.2446 133.309L88.2118 153.236L80.9282 141.915Z" fill="#5D21D1"></path>
  <path d="M42.6941 221.179L42.9977 255.007H48.0411L48.3398 244.465C48.3398 244.465 50.3841 254.779 57.4303 255.237C64.4764 255.695 70.5628 253.768 70.5163 253.496C70.4918 253.357 70.7269 251.293 70.9619 249.271C71.1675 247.518 69.4929 245.802 67.6861 245.907C64.9783 246.066 61.4258 245.85 59.2689 244.053C55.4178 240.844 55.9074 217.512 55.9074 217.512L42.6941 221.179Z" fill="#2E186A"></path>
  <path d="M51.3242 221.179L56.1889 255.007H61.2299L61.4332 248.974C61.4332 248.974 63.5754 254.779 70.6215 255.237C77.6677 255.695 83.7541 253.768 83.7051 253.496C83.6831 253.357 83.9157 251.293 84.1532 249.271C84.3588 247.518 82.6842 245.802 80.8774 245.907C78.1696 246.066 75.8511 242.369 73.6966 240.574C69.8454 237.365 69.0987 217.512 69.0987 217.512L51.3242 221.179Z" fill="#2E186A"></path>
  <path d="M82.9475 186.506C81.1481 182.376 59.1625 170.178 59.1625 170.178C59.1625 170.178 68.8822 144.077 63.3883 136.392C58.6117 129.936 49.9962 130.254 49.9962 130.254L34.266 129.676V129.605H31.7027C28.9312 129.605 25.156 132.558 24.7422 135.758C23.9832 141.634 21.7063 149.73 20.137 156.49C16.4646 167.752 12.753 184.552 20.2056 191.576C20.2668 191.664 39.2874 191.576 39.2874 191.576L39.3119 243.852H77.2455C77.2455 243.852 84.747 190.636 82.9475 186.506Z" fill="#5D21D1"></path>
  <path d="M41.2198 129.067C39.817 129.241 38.4068 127.584 38.0591 125.329C37.8679 124.244 38.0043 123.126 38.4508 122.119" stroke="#FE7624" stroke-width="1.46896" stroke-linecap="round" stroke-linejoin="round"></path>
  <path d="M60.6521 128.384C59.2467 128.558 57.839 126.898 57.4913 124.645C57.2969 123.561 57.4299 122.444 57.8733 121.436" stroke="#FE7624" stroke-width="1.46896" stroke-linecap="round" stroke-linejoin="round"></path>
  <path d="M39.6562 105.839C42.648 103.636 44.6311 92.0529 36.5151 84.2943C28.2987 76.4354 21.4582 84.4657 19.9378 86.5835C18.4174 88.7012 17.2741 94.5183 24.379 100.015C31.4839 105.511 36.2458 108.363 39.6562 105.839Z" fill="#2E186A"></path>
  <path d="M43.999 110.966L43.8129 111.086C43.2616 111.429 42.6007 111.549 41.9641 111.422C41.3276 111.295 40.7631 110.931 40.3853 110.403L38.2039 107.345C38.0174 107.094 37.8844 106.807 37.813 106.503C37.7417 106.199 37.7335 105.883 37.789 105.575C37.8446 105.267 37.9626 104.974 38.1359 104.714C38.3091 104.454 38.5339 104.232 38.7964 104.062L38.9824 103.942C39.5338 103.599 40.1952 103.479 40.8319 103.606C41.4686 103.734 42.033 104.099 42.41 104.627L44.5914 107.698C44.7762 107.948 44.9078 108.233 44.9782 108.536C45.0486 108.839 45.0563 109.154 45.0008 109.46C44.9454 109.766 44.8279 110.057 44.6556 110.316C44.4833 110.575 44.2598 110.796 43.999 110.966Z" fill="#FE7624"></path>
  <path d="M42.519 120.652C43.1445 119.34 42.5336 117.743 41.1544 117.086C39.7752 116.428 38.15 116.959 37.5245 118.271C36.8989 119.583 37.5099 121.18 38.8891 121.837C40.2683 122.495 41.8935 121.964 42.519 120.652Z" fill="white" stroke="#2E186A" stroke-width="1.46896" stroke-linecap="round" stroke-linejoin="round"></path>
  <path d="M61.5151 119.761C62.1406 118.449 61.5297 116.853 60.1505 116.195C58.7713 115.537 57.1461 116.068 56.5206 117.38C55.895 118.692 56.506 120.289 57.8852 120.946C59.2644 121.604 60.8896 121.073 61.5151 119.761Z" fill="white" stroke="#2E186A" stroke-width="1.46896" stroke-linecap="round" stroke-linejoin="round"></path>
  <path d="M51.2565 127.283L51.4083 131.201L54.6963 131.935C54.8824 132.469 55.0856 141.728 46.617 140.585C41.0594 139.828 38.4618 134.856 36.9733 130.302L41.6862 130.633L41.7107 119.576L51.2565 127.283Z" fill="white" stroke="#2E186A" stroke-width="1.46896" stroke-linecap="round" stroke-linejoin="round"></path>
  <path d="M51.6609 129.494C56.4073 128.622 59.3465 122.97 58.2258 116.87C57.1051 110.77 52.3489 106.532 47.6025 107.404C42.8561 108.276 39.9169 113.928 41.0376 120.028C42.1583 126.128 46.9145 130.366 51.6609 129.494Z" fill="white" stroke="#2E186A" stroke-width="1.46896" stroke-linecap="round" stroke-linejoin="round"></path>
  <path d="M50.4235 121.114L52.0883 121.06C52.1281 121.058 52.1669 121.047 52.2019 121.028C52.237 121.01 52.2674 120.983 52.2908 120.951C52.3143 120.919 52.3303 120.882 52.3376 120.843C52.3449 120.803 52.3434 120.763 52.3331 120.725L51.1335 116.186" stroke="#2E186A" stroke-width="1.46896" stroke-linecap="round" stroke-linejoin="round"></path>
  <path d="M45.7938 113.977C45.7938 113.977 47.2628 112.655 48.4869 113.757" stroke="#2E186A" stroke-width="1.46896" stroke-linecap="round" stroke-linejoin="round"></path>
  <path d="M52.5294 113.574C52.5294 113.574 54.4146 112.866 55.1736 114.308" stroke="#2E186A" stroke-width="1.46896" stroke-linecap="round" stroke-linejoin="round"></path>
  <path d="M48.959 117.706C48.9768 117.157 48.6933 116.703 48.3257 116.691C47.9581 116.679 47.6457 117.114 47.6278 117.663C47.61 118.211 47.8936 118.666 48.2612 118.678C48.6288 118.69 48.9412 118.255 48.959 117.706Z" fill="#2E186A"></path>
  <path d="M54.5787 118.923C54.9442 118.897 55.2081 118.429 55.1683 117.879C55.1285 117.329 54.7999 116.904 54.4345 116.931C54.069 116.957 53.805 117.425 53.8448 117.975C53.8846 118.525 54.2132 118.95 54.5787 118.923Z" fill="#2E186A"></path>
  <path d="M59.6721 119.9C61.0946 119.68 62.282 121.568 62.6345 123.849C62.9871 126.131 62.1204 128.156 60.6979 128.376H60.649" stroke="#FE7624" stroke-width="1.46896" stroke-linecap="round" stroke-linejoin="round"></path>
  <path d="M39.9932 120.801C41.4132 120.58 42.8503 122.253 43.2029 124.532C43.5554 126.811 42.6887 128.841 41.2687 129.059H41.2173" stroke="#FE7624" stroke-width="1.46896" stroke-linecap="round" stroke-linejoin="round"></path>
  <path d="M50.747 124.4C50.747 124.4 46.9473 126.756 46.7539 121.639L50.747 124.4Z" stroke="#2E186A" stroke-width="1.46896" stroke-linecap="round" stroke-linejoin="round"></path>
  <path d="M46.4768 104.796L46.4572 104.82C43.6147 105.237 40.4393 106.534 38.6717 108.439C35.5403 111.808 36.9799 119.037 40.17 119.53C40.4295 119.569 40.6964 119.591 40.9657 119.605C40.9388 119.424 40.9143 119.241 40.8922 119.057C40.8178 118.4 40.7892 117.739 40.8066 117.079C45.1547 115.456 45.1474 108.938 45.1376 108.395C46.0606 109.129 47.27 110.388 46.9566 111.766L56.5661 112.373C57.5377 114.051 58.1496 115.913 58.3631 117.84V117.919C59.2641 116.631 59.3033 114.626 58.5468 112.498L61.7981 112.704C61.7981 112.704 64.7899 101.718 46.4768 104.796Z" fill="#2E186A"></path>
  <path d="M56.2933 154.113L35.8354 154.067L36.9739 145.238" stroke="white" stroke-width="1.46896" stroke-linecap="round" stroke-linejoin="round"></path>
  <path d="M19.9169 157.396C19.0061 160.978 21.9857 165.285 25.6777 165.363L55.3728 165.348" stroke="white" stroke-width="1.46896" stroke-linecap="round" stroke-linejoin="round"></path>
  <path d="M36.0244 154.099C36.0244 154.099 32.9567 152.738 30.741 156.029" stroke="white" stroke-width="1.46896" stroke-linecap="round" stroke-linejoin="round"></path>
  <path d="M35.9607 153.052C35.9607 153.052 33.1133 150.489 29.5388 153.432" stroke="white" stroke-width="1.46896" stroke-linecap="round" stroke-linejoin="round"></path>
  <path d="M31.6667 161.958L46.6844 162.115L51.6299 138.856C51.6697 138.614 51.7936 138.394 51.9799 138.234C52.1662 138.074 52.4029 137.985 52.6484 137.982L89.2085 138.546C89.8769 138.546 90.369 139.256 90.2172 139.978L85.5655 164.789C85.2423 166.321 83.3033 167.513 81.92 167.482C72.9324 167.335 36.742 166.821 35.6843 166.803C30.8367 166.732 31.6667 161.958 31.6667 161.958Z" fill="#FE7624"></path>
  <path d="M11.6105 253.8V166.906H94.7735V253.8" stroke="#2E186A" stroke-width="1.46896" stroke-linecap="round" stroke-linejoin="round"></path>
  <path d="M71.2562 254.372H65.7427C65.2016 254.414 62.3714 254.301 64.7977 252.774C65.2873 252.563 69.349 249.956 70.9722 249.662C72.5954 249.368 78.7724 249.366 78.9071 249.366C79.0417 249.366 81.184 243.245 81.2281 242.912L89.9904 243.306C89.5228 244.474 86.793 253.114 84.7683 253.893C82.7435 254.671 71.2293 254.262 71.2293 254.262C71.2293 254.262 71.435 252.549 73.6923 252.304C75.9496 252.059 76.9264 252.059 76.9264 252.059" fill="white"></path>
  <path d="M71.2562 254.372H65.7427C65.2016 254.414 62.3714 254.301 64.7977 252.774C65.2873 252.563 69.349 249.956 70.9722 249.662C72.5954 249.368 78.7724 249.366 78.9071 249.366C79.0417 249.366 81.184 243.245 81.2281 242.912L89.9904 243.306C89.5228 244.474 86.793 253.114 84.7683 253.893C82.7435 254.671 71.2293 254.262 71.2293 254.262C71.2293 254.262 71.435 252.549 73.6923 252.304C75.9496 252.059 76.9264 252.059 76.9264 252.059" stroke="#2E186A" stroke-width="1.46896" stroke-linecap="round" stroke-linejoin="round"></path>
  <path d="M160.573 195.266C157.773 191.638 146.263 177.908 146.263 177.908L136.668 186.134L138.333 188.404C130.274 186.47 122.263 185.53 120.25 186.394L120.88 188.088C112.311 185.826 98.8769 183.608 96.1128 190.918C93.1871 196.356 80.0325 244.908 80.0325 244.908L96.9623 245.356L98.6761 238.628C99.107 243 99.604 246.969 100.187 250.066C100.982 254.304 109.671 255.276 113.983 255.222L125.142 255.083L141.79 235.149L133.319 207.295C140.01 208.561 150.815 210.118 156.167 208.245C156.426 208.232 156.685 208.201 156.94 208.154C162.699 207.057 165.024 201.512 160.573 195.266Z" fill="#2E186A"></path>
  <path d="M107.699 186.96L113.313 175.773L123.008 181.95L121.743 187.234C122.553 191.641 117.458 194.708 113.942 191.917L107.699 186.96Z" fill="white" stroke="#2E186A" stroke-width="1.46896" stroke-linecap="round" stroke-linejoin="round"></path>
  <path d="M114.111 160.253C114.111 160.253 117.512 173.397 125.682 170.156C125.682 170.156 129.146 168.65 129.237 166.523C129.237 166.523 126.483 167.225 125.809 165.188C125.809 165.188 131.734 166.611 133.183 162.006C133.183 162.006 127.797 163.653 126.069 160.172C124.34 156.69 113.673 156.874 114.111 160.253Z" fill="#2E186A"></path>
  <path d="M108.713 172.576C108.713 172.576 103.123 163.985 111.756 158.197C112.559 157.659 118.122 154.082 121.441 158.547C123.645 161.529 125.403 165.06 126.566 167.887C126.566 167.905 128.84 173.195 128.074 177.046C127.308 180.898 122.587 182.677 119.505 182.342C116.422 182.007 115.646 181.446 114.199 180.048C112.752 178.65 108.713 172.595 108.713 172.595V172.576Z" fill="white" stroke="#2E186A" stroke-width="1.46896" stroke-linecap="round" stroke-linejoin="round"></path>
  <path d="M121.791 167.24L124.626 171.082L122.996 172.085" stroke="#2E186A" stroke-width="1.46896" stroke-linecap="round" stroke-linejoin="round"></path>
  <path d="M123.767 166.177C124.016 166.038 124.044 165.613 123.83 165.228C123.616 164.843 123.24 164.643 122.99 164.782C122.741 164.921 122.713 165.345 122.927 165.731C123.142 166.116 123.517 166.316 123.767 166.177Z" fill="#2E186A"></path>
  <path d="M120.16 169.304C120.431 169.214 120.538 168.803 120.4 168.384C120.261 167.966 119.929 167.699 119.658 167.789C119.387 167.878 119.28 168.29 119.419 168.709C119.557 169.127 119.889 169.394 120.16 169.304Z" fill="#2E186A"></path>
  <path d="M115.675 167.287C115.763 166.873 115.961 166.491 116.248 166.18C116.535 165.869 116.9 165.641 117.306 165.52" stroke="#2E186A" stroke-width="1.46896" stroke-linecap="round" stroke-linejoin="round"></path>
  <path d="M120.954 162.705C120.954 162.705 122.247 161.249 123.403 161.907" stroke="#2E186A" stroke-width="1.46896" stroke-linecap="round" stroke-linejoin="round"></path>
  <path d="M111.651 162.648C111.651 162.648 121.512 174.358 113.198 179.752C113.198 179.752 109.55 181.955 107.537 180.645C107.537 180.645 109.986 178.574 108.539 176.633C108.539 176.633 105.98 182.998 100.792 181.326C100.792 181.326 105.829 177.443 103.752 173.589C101.676 169.736 108.838 160.041 111.651 162.648Z" fill="#2E186A"></path>
  <path d="M122.22 158.059C122.22 158.059 114.936 148.457 105.682 156.806C100.354 161.612 100.93 166.797 102.379 170.335L97.972 174.987C97.5562 175.477 97.3437 176.107 97.378 176.749C97.4122 177.391 97.6907 177.995 98.1562 178.438C98.6218 178.881 99.2392 179.129 99.8819 179.132C100.525 179.134 101.144 178.891 101.613 178.451L122.22 158.059Z" fill="#FE7624"></path>
  <path d="M122.075 174.659L124.232 174.066" stroke="#2E186A" stroke-width="1.46896" stroke-linecap="round" stroke-linejoin="round"></path>
  <path d="M145.896 182.427C143.572 180.931 141.591 179.467 140.38 178.197C139.337 177.198 138.475 176.419 137.765 175.812C136.928 175.095 135.953 174.558 134.9 174.234C133.847 173.911 132.739 173.808 131.644 173.932C129.95 174.12 127.989 174.404 127.071 174.769C125.281 175.484 119.41 177.724 119.79 178.652C120.056 179.311 123.288 178.792 124.943 178.463L128.263 182.432C128.263 182.432 129.732 181.942 130.579 181.994C132.335 182.097 134.305 182.706 135.258 182.121C136.503 184.092 137.885 185.974 139.393 187.752" fill="white"></path>
  <path d="M145.896 182.427C143.572 180.931 141.591 179.467 140.38 178.197C139.337 177.198 138.475 176.419 137.765 175.812C136.928 175.095 135.953 174.558 134.9 174.234C133.847 173.911 132.739 173.808 131.644 173.932C129.95 174.12 127.989 174.404 127.071 174.769C125.281 175.484 119.41 177.724 119.79 178.652C120.056 179.311 123.288 178.792 124.943 178.463L128.263 182.432C128.263 182.432 129.732 181.942 130.579 181.994C132.335 182.097 134.305 182.706 135.258 182.121C136.503 184.092 137.885 185.974 139.393 187.752" stroke="#2E186A" stroke-width="1.46896" stroke-linecap="round" stroke-linejoin="round"></path>
  <path d="M127.842 176.068C127.842 176.068 123.984 178.517 124.327 180.042C124.669 181.567 125.867 181.092 125.867 181.092" fill="white"></path>
  <path d="M127.842 176.068C127.842 176.068 123.984 178.517 124.327 180.042C124.669 181.567 125.867 181.092 125.867 181.092" stroke="#2E186A" stroke-width="1.46896" stroke-linecap="round" stroke-linejoin="round"></path>
  <path d="M128.772 177.641C128.772 177.641 125.526 180.118 125.979 181.609C126.432 183.1 127.592 182.542 127.592 182.542" fill="white"></path>
  <path d="M128.772 177.641C128.772 177.641 125.526 180.118 125.979 181.609C126.432 183.1 127.592 182.542 127.592 182.542" stroke="#2E186A" stroke-width="1.46896" stroke-linecap="round" stroke-linejoin="round"></path>
  <path d="M129.972 179.555C129.972 179.555 126.114 182.613 128.496 183.347C130.878 184.082 131.635 183.531 131.635 183.531C131.635 183.531 132.462 182.216 129.994 181.947" fill="white"></path>
  <path d="M129.972 179.555C129.972 179.555 126.114 182.613 128.496 183.347C130.878 184.082 131.635 183.531 131.635 183.531C131.635 183.531 132.462 182.216 129.994 181.947" stroke="#2E186A" stroke-width="1.46896" stroke-linecap="round" stroke-linejoin="round"></path>
  <path d="M126.024 235.836C126.024 235.836 154.079 206.163 160.189 199.284C166.3 192.404 177.553 193.53 182.026 199.161C186.499 204.792 209.432 240.86 209.432 240.86L183.181 247.076L173.662 220.011L158.858 247.693L126.024 235.836Z" fill="white" stroke="#2E186A" stroke-width="1.46896" stroke-linecap="round" stroke-linejoin="round"></path>
  <path d="M126.026 235.838L168.974 229.752C170.82 229.587 172.677 229.596 174.521 229.779L215.564 234.866L215.457 254.8L113.976 254.881L126.026 235.838Z" fill="white" stroke="#2E186A" stroke-width="1.46896" stroke-linecap="round" stroke-linejoin="round"></path>
  <path d="M170.33 195.871C169.904 195.784 169.461 195.87 169.098 196.11C168.736 196.349 168.483 196.723 168.396 197.149L162.52 227.226L132.631 231.268L132.722 231.927C132.805 232.541 133.129 233.097 133.622 233.472C134.115 233.848 134.737 234.012 135.351 233.929L163.817 230.081C164.122 230.04 164.415 229.94 164.681 229.785C164.946 229.631 165.179 229.426 165.365 229.182C165.551 228.937 165.687 228.659 165.765 228.362C165.843 228.065 165.862 227.755 165.82 227.451L171.605 197.81C171.649 197.599 171.651 197.381 171.611 197.169C171.571 196.957 171.489 196.756 171.37 196.575C171.252 196.395 171.099 196.24 170.92 196.119C170.742 195.998 170.541 195.914 170.33 195.871Z" fill="#FE7624"></path>
  <path d="M303.504 232.148L302.704 243.526C302.704 243.526 314.7 249.48 313.628 255.615L288.315 255.525L288.756 233.593L303.504 232.148Z" fill="#FE7624"></path>
  <path d="M279.523 136.998C290.741 138.829 290.389 143.635 294.179 150.841C297.969 158.046 308.09 243.576 308.09 243.576L278.38 243.993L276.666 181.716L265.037 237.419L230.073 237.737C230.073 237.737 259.967 155.074 262.545 149.582C265.123 144.091 268.002 141.86 271.794 140.832C275.587 139.804 279.523 136.998 279.523 136.998Z" fill="#5D21D1"></path>
  <path d="M318.619 138.027C312.702 127.421 300.257 109.815 294.594 107.93C294.472 107.886 294.35 107.845 294.213 107.808L288.662 106.745C285.546 110.814 279.249 115.047 273.774 113.796C265.112 111.816 268.689 104.099 268.99 103.563L271.75 104.165L271.426 103.447L269.321 103.046C267.196 102.527 264.424 102.671 260.975 103.832C252.32 106.738 232.173 113.637 232.173 113.637L240.774 125.891C240.774 125.891 243.616 124.459 252.771 121.457C254.59 120.862 256.585 120.284 258.605 119.687C258.955 123.834 261.104 128.652 266.407 134.031C269.101 137.388 279.809 138.798 279.809 138.798C282.963 139.694 289.463 134.653 291.177 131.794C291.735 130.866 292.325 129.801 292.912 128.648C299.05 136.764 308.743 148.753 308.743 148.753L311.306 148.089C317.163 145.604 321.469 143.119 318.619 138.027Z" fill="#2E186A"></path>
  <path d="M281.162 93.4282L281.968 93.957C281.968 93.957 286.813 96.5938 288.333 91.6997C289.489 87.9857 285.929 86.8203 284.142 86.4727" fill="white"></path>
  <path d="M281.162 93.4282L281.968 93.957C281.968 93.957 286.813 96.5938 288.333 91.6997C289.489 87.9857 285.929 86.8203 284.142 86.4727" stroke="#2E186A" stroke-width="1.46896" stroke-linecap="round" stroke-linejoin="round"></path>
  <path d="M269.898 100.047L271.754 104.165L268.995 103.563C268.694 104.099 265.117 111.816 273.779 113.797C279.464 115.094 286.04 110.479 289.014 106.276L284.211 105.404L280.294 95.9609L269.898 100.047Z" fill="white" stroke="#2E186A" stroke-width="1.46896" stroke-linecap="round" stroke-linejoin="round"></path>
  <path d="M290.13 107.263C293.882 105.847 295.924 102.052 294.692 98.7869C293.46 95.5219 289.419 94.0232 285.667 95.4395C281.915 96.8558 279.872 100.651 281.105 103.916C282.337 107.181 286.378 108.679 290.13 107.263Z" fill="#2E186A"></path>
  <path d="M297.21 112.669C300.137 111.564 301.731 108.603 300.769 106.055C299.807 103.507 296.655 102.338 293.727 103.443C290.8 104.548 289.207 107.509 290.168 110.056C291.13 112.604 294.283 113.774 297.21 112.669Z" fill="#2E186A"></path>
  <path d="M303.406 117.725C306.019 116.739 307.443 114.096 306.584 111.823C305.726 109.55 302.912 108.506 300.299 109.493C297.685 110.48 296.262 113.122 297.12 115.395C297.978 117.669 300.792 118.712 303.406 117.725Z" fill="#2E186A"></path>
  <path d="M310.064 119.13C310.713 121.032 309.469 123.192 307.29 123.953C305.111 124.715 302.817 123.789 302.169 121.887C301.52 119.985 302.658 117.725 304.849 116.968C307.041 116.212 309.418 117.228 310.064 119.13Z" fill="#2E186A"></path>
  <path d="M314.082 124.277C314.141 126.326 315.164 127.161 316.148 127.489C316.248 127.523 316.336 127.587 316.399 127.672C316.462 127.757 316.499 127.859 316.503 127.965C316.508 128.07 316.48 128.175 316.424 128.265C316.368 128.355 316.287 128.426 316.19 128.468C313.592 129.502 308.923 130.743 307.462 127.107C306.774 125.393 307.609 123.322 309.526 122.402C311.443 121.481 314.03 122.426 314.082 124.277Z" fill="#2E186A"></path>
  <path d="M293.866 103.455L290.145 107.287" stroke="#FE7624" stroke-width="1.95862" stroke-linecap="round" stroke-linejoin="round"></path>
  <path d="M300.672 109.396L297.328 112.425" stroke="#FE7624" stroke-width="1.95862" stroke-linecap="round" stroke-linejoin="round"></path>
  <path d="M304.795 117.09L303.635 117.881" stroke="#FE7624" stroke-width="1.95862" stroke-linecap="round" stroke-linejoin="round"></path>
  <path d="M309.087 122.508L307.968 123.36" stroke="#FE7624" stroke-width="1.95862" stroke-linecap="round" stroke-linejoin="round"></path>
  <path d="M263.812 84.1932C263.151 86.4383 261.263 97.0932 268.094 99.7349C274.924 102.377 281.334 97.0736 283.763 90.5147C286.191 83.9557 284.671 77.5388 280.384 75.7663C276.097 73.9937 268.598 67.9391 263.812 84.1932Z" fill="white" stroke="#2E186A" stroke-width="1.46896" stroke-linecap="round" stroke-linejoin="round"></path>
  <path d="M270.79 92.8438C269.759 93.0306 268.696 92.8785 267.759 92.4104C267.697 92.3799 267.629 92.3644 267.561 92.3653C267.492 92.3661 267.424 92.3833 267.364 92.4153C267.303 92.4473 267.251 92.4934 267.211 92.5495C267.172 92.6057 267.146 92.6705 267.137 92.7385C266.992 93.5783 267.031 95.0472 268.875 95.4904C270.799 95.9531 271.206 94.2662 271.287 93.3212C271.294 93.255 271.285 93.1882 271.263 93.1257C271.24 93.0632 271.203 93.0067 271.155 92.9606C271.107 92.9145 271.049 92.88 270.986 92.8598C270.923 92.8395 270.855 92.8341 270.79 92.8438Z" fill="#2E186A"></path>
  <path d="M269.607 89.8097L267.491 89.2564L271.071 81.0645" stroke="#2E186A" stroke-width="1.46896" stroke-linecap="round" stroke-linejoin="round"></path>
  <path d="M275.75 83.6446C275.75 83.6446 274.692 81.6297 273.056 82.374" stroke="#2E186A" stroke-width="1.46896" stroke-linecap="round" stroke-linejoin="round"></path>
  <path d="M270.111 78.9781C270.111 78.9781 268.789 77.1345 267.269 78.104" stroke="#2E186A" stroke-width="1.46896" stroke-linecap="round" stroke-linejoin="round"></path>
  <path d="M273.183 87.4019C273.311 86.7808 273.097 86.2118 272.705 86.1311C272.313 86.0504 271.891 86.4886 271.763 87.1097C271.636 87.7309 271.85 88.2998 272.242 88.3805C272.634 88.4611 273.055 88.023 273.183 87.4019Z" fill="#2E186A"></path>
  <path d="M266.205 86.0718C266.332 85.4507 266.118 84.8817 265.726 84.8011C265.334 84.7204 264.913 85.1585 264.785 85.7796C264.657 86.4008 264.871 86.9697 265.263 87.0504C265.655 87.1311 266.077 86.693 266.205 86.0718Z" fill="#2E186A"></path>
  <path d="M279.463 86.9057C280.038 83.5183 278.473 80.4278 275.968 80.0027C273.463 79.5777 270.967 81.9792 270.392 85.3666C269.817 88.754 271.382 91.8445 273.887 92.2696C276.392 92.6946 278.888 90.2931 279.463 86.9057Z" stroke="#FE7624" stroke-width="1.10172" stroke-linecap="round" stroke-linejoin="round"></path>
  <path d="M267.533 84.6088C268.108 81.2215 266.544 78.1309 264.039 77.7059C261.534 77.2809 259.037 79.6823 258.462 83.0697C257.888 86.4571 259.452 89.5477 261.957 89.9727C264.462 90.3977 266.959 87.9962 267.533 84.6088Z" stroke="#FE7624" stroke-width="1.10172" stroke-linecap="round" stroke-linejoin="round"></path>
  <path d="M267.815 83.1016L270.641 83.6377" stroke="#FE7624" stroke-width="1.10172" stroke-linecap="round" stroke-linejoin="round"></path>
  <path d="M279.67 84.7734L286.065 86.9279" stroke="#FE7624" stroke-width="1.10172" stroke-linecap="round" stroke-linejoin="round"></path>
  <path d="M292.128 83.0772C291.626 79.679 286.571 74.0455 281.943 74.092C275.96 68.0129 267.009 61.9339 261.809 72.623C261.68 72.8857 261.611 73.1736 261.607 73.4662C261.603 73.7587 261.664 74.0484 261.786 74.3144C261.908 74.5804 262.088 74.8159 262.312 75.004C262.536 75.192 262.799 75.3279 263.082 75.4018L280.08 79.8087C280.553 82.3696 281.858 86.446 285.437 88.0716C286.47 88.5417 287.166 88.4805 287.614 88.0716C288.417 88.8673 288.855 90.0303 288.333 91.7C286.909 96.2856 282.565 94.2609 282.024 93.9867C281.151 95.3532 280.078 96.5812 278.841 97.6297C282.536 99.652 286.568 100.612 289.002 97.3971C292.175 93.2057 292.824 87.8219 292.128 83.0772Z" fill="#2E186A"></path>
  <path d="M212.256 93.2538L211.362 95.1389L212.469 97.952L214.673 98.4735C214.673 98.4735 216.288 97.6729 214.878 96.7401C213.468 95.8073 213.59 96.1819 213.59 96.1819L213.835 94.7766L216.756 93.1289" fill="white"></path>
  <path d="M212.256 93.2538L211.362 95.1389L212.469 97.952L214.673 98.4735C214.673 98.4735 216.288 97.6729 214.878 96.7401C213.468 95.8073 213.59 96.1819 213.59 96.1819L213.835 94.7766L216.756 93.1289" stroke="#2E186A" stroke-width="1.46896" stroke-linecap="round" stroke-linejoin="round"></path>
  <path d="M210.677 94.0604L209.785 95.9456L210.892 98.7586L213.095 99.2801C213.095 99.2801 214.709 98.4795 213.299 97.5467C211.888 96.614 212.013 96.9885 212.013 96.9885L212.258 95.5832L215.179 93.9355" fill="white"></path>
  <path d="M210.677 94.0604L209.785 95.9456L210.892 98.7586L213.095 99.2801C213.095 99.2801 214.709 98.4795 213.299 97.5467C211.888 96.614 212.013 96.9885 212.013 96.9885L212.258 95.5832L215.179 93.9355" stroke="#2E186A" stroke-width="1.46896" stroke-linecap="round" stroke-linejoin="round"></path>
  <path d="M208.916 94.3456L207.937 96.3972L209.139 99.4576L211.528 100.026C211.528 100.026 213.286 99.1565 211.751 98.1404C210.216 97.1244 210.351 97.5332 210.351 97.5332L210.61 96.0055L213.793 94.2109" fill="white"></path>
  <path d="M208.916 94.3456L207.937 96.3972L209.139 99.4576L211.528 100.026C211.528 100.026 213.286 99.1565 211.751 98.1404C210.216 97.1244 210.351 97.5332 210.351 97.5332L210.61 96.0055L213.793 94.2109" stroke="#2E186A" stroke-width="1.46896" stroke-linecap="round" stroke-linejoin="round"></path>
  <path d="M218.342 91.7133C216.361 91.7378 214.033 91.7574 214.033 91.7574C214.033 91.7574 209.35 92.6657 208.625 92.7808C207.9 92.8958 204.279 94.7124 204.429 95.1189C204.793 96.0982 207.829 95.4739 209.384 94.8373C210.939 94.2008 214.4 94.8618 214.4 94.8618C214.4 94.8618 215.365 97.7679 214.726 97.7752C214.087 97.7826 210.588 97.4986 210.074 98.5783C209.56 99.658 209.778 100.488 211.129 100.329C212.481 100.17 214.373 101.063 214.373 101.063C214.373 101.063 219.27 100.226 220.472 99.6212C221.674 99.0165 226.671 110.714 231.475 118.377C236.278 126.041 239.461 126.831 243.43 123.764C247.266 120.799 242.174 113.77 239.823 111.221C237.955 109.196 227.464 98.2845 223.048 93.694C222.441 93.0589 221.71 92.5554 220.901 92.2147C220.091 91.874 219.22 91.7033 218.342 91.7133Z" fill="white" stroke="#2E186A" stroke-width="1.46896" stroke-linecap="round" stroke-linejoin="round"></path>
  <path d="M286.623 158.804C286.623 158.804 311.03 150.698 318.184 144.063C321.611 140.88 314.465 131.202 300.635 142.866C286.804 154.53 274.707 151.952 274.707 151.952L286.623 158.804Z" fill="white" stroke="#2E186A" stroke-width="1.46896" stroke-linecap="round" stroke-linejoin="round"></path>
  <path d="M305.452 150.542L299.672 150.699L294.724 127.44C294.684 127.2 294.562 126.982 294.378 126.823C294.194 126.664 293.961 126.574 293.718 126.568L257.146 127.124C256.477 127.136 255.985 127.837 256.139 128.556L260.779 153.367C261.102 154.902 263.041 156.095 264.427 156.06C273.412 155.913 300.37 155.399 301.428 155.382C306.29 155.321 305.452 150.542 305.452 150.542Z" fill="#FE7624"></path>
  <path d="M289.074 157.913C280.917 161.341 276.099 158.621 273.633 154.023C271.797 150.595 269.652 145.997 271.094 145.292C272.612 144.979 274.441 150.703 274.441 150.703C274.441 150.703 271.376 144.244 272.945 143.899C274.169 143.654 275.337 146.274 276.654 150.311C276.654 150.311 274.541 144.937 274.571 144.073C274.654 141.625 276.76 141.431 278.828 150.137L277.026 144.017C276.686 142.07 278.464 142.34 279.448 144.112C280.501 146.005 283.294 152.392 283.989 154.471" fill="white"></path>
  <path d="M289.074 157.913C280.917 161.341 276.099 158.621 273.633 154.023C271.797 150.595 269.652 145.997 271.094 145.292C272.612 144.979 274.441 150.703 274.441 150.703C274.441 150.703 271.376 144.244 272.945 143.899C274.169 143.654 275.337 146.274 276.654 150.311C276.654 150.311 274.541 144.937 274.571 144.073C274.654 141.625 276.76 141.431 278.828 150.137L277.026 144.017C276.686 142.07 278.464 142.34 279.448 144.112C280.501 146.005 283.294 152.392 283.989 154.471" stroke="#2E186A" stroke-width="1.46896" stroke-linecap="round" stroke-linejoin="round"></path>
  <path d="M282.068 150.886C282.068 150.886 283.691 147.458 285.153 148.438C286.614 149.417 283.324 154.558 283.324 154.558" fill="white"></path>
  <path d="M282.068 150.886C282.068 150.886 283.691 147.458 285.153 148.438C286.614 149.417 283.324 154.558 283.324 154.558" stroke="#2E186A" stroke-width="1.46896" stroke-linecap="round" stroke-linejoin="round"></path>
  <path d="M247.753 189.057L247.572 188.89C243.342 185.093 239.275 180.368 235.331 178.505C234.31 173.197 229.835 167.223 211.923 170.538C200.661 173.324 198.173 177.471 199.424 181.528C195.568 183.844 187.673 189.522 180.605 200.468C170.811 215.647 202.414 239.64 207.984 239.64C213.553 239.64 252.831 224.3 252.831 224.3L255.137 217.307C256.768 212.388 256.938 207.103 255.627 202.089C254.317 197.075 251.582 192.549 247.753 189.057Z" fill="url(#paint1_linear_13927_12306)"></path>
  <path d="M235.331 178.469C235.759 180.672 235.593 182.758 235.539 184.029C235.309 189.337 232.467 191.863 231.867 193.846C235.74 191.538 239.322 186.222 241.065 182.743C239.951 181.698 237.265 179.414 235.331 178.469Z" fill="#2E186A"></path>
  <path d="M213.306 194.253C211.389 193.372 201.001 187.398 199.35 181.277C197.392 182.333 194.944 183.88 193.046 186.157C195.25 187.494 207.689 194.885 213.188 194.481L213.408 194.461C213.377 194.378 213.337 194.309 213.306 194.253Z" fill="#2E186A"></path>
  <path d="M209.786 178.478L207.558 180.767C207.558 180.767 218.159 188.829 221.609 208.256C223.849 220.879 225 232.739 225 232.739L231.573 232.386C231.573 232.386 225.984 200.953 228.275 194.311C230.567 187.669 228.471 180.209 226.929 179.002C225.386 177.795 209.786 178.478 209.786 178.478Z" fill="white"></path>
  <path d="M207.696 164.791C207.696 164.791 203.867 165.817 205.407 169.09C206.946 172.364 210.707 169.323 210.707 169.323L208.927 164.568L207.696 164.791Z" fill="white" stroke="#2E186A" stroke-width="1.46896" stroke-linecap="round" stroke-linejoin="round"></path>
  <path d="M215.978 151.228C216.972 150.893 223.812 148.738 226.015 154.347C228.219 159.956 228.968 166.561 229.046 169.644C229.125 172.726 215.488 174.658 214.67 174.582C213.852 174.506 212.738 173.848 212.738 173.848L208.716 165.396C208.716 165.396 205.305 154.822 215.978 151.228Z" fill="white" stroke="#2E186A" stroke-width="1.46896" stroke-linecap="round" stroke-linejoin="round"></path>
  <path d="M212.367 171.998L212.122 176.248L210.019 178.665C214.531 181.646 218.625 185.217 222.192 189.283C222.192 189.283 227.062 184.141 227.914 176.087L216.507 177.502L215.611 173.046L212.367 171.998Z" fill="white" stroke="#2E186A" stroke-width="1.46896" stroke-linecap="round" stroke-linejoin="round"></path>
  <path d="M209.997 164.986C210.81 165.464 213.476 168.713 214.328 170.324C214.328 170.324 218.321 167.807 224.528 166.179C224.528 166.179 227.941 165.407 229.392 165.469C229.392 165.469 230.602 171.624 228.626 175.453C226.65 179.282 220.61 179.838 217.411 178.618C214.211 177.399 213.537 176.608 212.406 174.74C211.275 172.872 207.737 165.731 207.737 165.731L209.997 164.986Z" fill="#968BB4"></path>
  <path d="M208.533 166.737C208.533 166.737 206.033 164.385 204.615 161.647C203.958 160.402 203.745 158.97 204.012 157.588C204.279 156.205 205.01 154.956 206.084 154.045C207.95 152.496 209.72 152.912 209.72 152.912C209.72 152.912 206.537 149.641 209.064 145.425C209.509 144.689 210.099 144.05 210.799 143.549C211.498 143.049 212.292 142.695 213.133 142.512C214.288 142.238 215.497 142.307 216.613 142.71C217.729 143.114 218.703 143.835 219.415 144.784C219.415 144.784 221.824 135.593 232.051 138.154C233.082 138.411 234.44 139.508 235.158 140.294C239.503 145.058 231.272 154.004 226.275 155.789C220.791 157.747 217.266 157.625 215.116 156.697C216.656 157.172 217.219 165.966 208.533 166.737Z" fill="#2E186A"></path>
  <path d="M223.82 163.881L225.74 169.03L223.752 169.012" stroke="#2E186A" stroke-width="1.46896" stroke-linecap="round" stroke-linejoin="round"></path>
  <path d="M226.413 164.155C226.713 164.081 226.862 163.646 226.748 163.183C226.633 162.719 226.298 162.403 225.999 162.477C225.699 162.551 225.55 162.987 225.664 163.45C225.779 163.914 226.114 164.229 226.413 164.155Z" fill="#2E186A"></path>
  <path d="M221.513 165.346C221.821 165.329 222.05 164.93 222.024 164.453C221.998 163.976 221.728 163.604 221.42 163.62C221.112 163.637 220.883 164.037 220.909 164.513C220.935 164.99 221.205 165.363 221.513 165.346Z" fill="#2E186A"></path>
  <path d="M217.724 162.442C217.934 162.036 218.249 161.692 218.636 161.449C219.024 161.205 219.469 161.07 219.927 161.057" stroke="#2E186A" stroke-width="1.46896" stroke-linecap="round" stroke-linejoin="round"></path>
  <path d="M224.326 158.557C224.326 158.557 226.092 157.401 227.108 158.42" stroke="#2E186A" stroke-width="1.46896" stroke-linecap="round" stroke-linejoin="round"></path>
  <path d="M223.742 172.642C222.001 172.478 221.404 171.604 221.404 171.604L224.413 171.41C224.413 171.41 224.895 172.615 223.742 172.642Z" fill="#2E186A" stroke="#2E186A" stroke-width="1.46896" stroke-linecap="round" stroke-linejoin="round"></path>
  <path d="M214.493 192.799C214.493 192.799 217.448 199.654 217.921 204.489" stroke="#2E186A" stroke-width="1.46896" stroke-linecap="round" stroke-linejoin="round"></path>
  <path d="M230.358 193.111C230.358 193.111 230.882 199.085 231.399 203.918" stroke="#2E186A" stroke-width="1.46896" stroke-linecap="round" stroke-linejoin="round"></path>
  <path d="M194.195 207.395C194.195 207.395 197.336 203.931 202.462 207.119L207.036 203.055" stroke="#2E186A" stroke-width="1.46896" stroke-linecap="round" stroke-linejoin="round"></path>
  <path d="M214.011 213.678C213.455 213.401 202.046 206.889 202.046 206.889" stroke="#2E186A" stroke-width="1.46896" stroke-linecap="round" stroke-linejoin="round"></path>
  <path d="M242.308 206.753L240.036 201.59" stroke="#2E186A" stroke-width="1.46896" stroke-linecap="round" stroke-linejoin="round"></path>
  <path d="M213.443 233.815C213.443 233.815 202.076 229.09 188.018 219.346C173.96 209.602 165.021 224.691 168.789 230.846C172.126 236.291 190.836 254.988 190.836 254.988L254.54 254.472C254.54 254.472 269.511 235.62 271.862 232.682C279.806 222.703 273.242 217.429 264.517 216.665C256.295 215.946 234.116 232.107 231.389 234.188L213.443 233.815Z" fill="#2E186A"></path>
  <path d="M252.425 206.221H211.473C211.212 206.221 210.959 206.309 210.754 206.472C210.55 206.634 210.406 206.86 210.347 207.114L204.801 230.601H194.519C194.519 230.601 193.586 235.416 199.023 235.416H204.792C204.899 235.448 205.01 235.464 205.122 235.465H246.06C246.32 235.465 246.573 235.377 246.778 235.215C246.982 235.054 247.126 234.828 247.186 234.574L253.551 207.643C253.591 207.473 253.592 207.297 253.554 207.126C253.516 206.956 253.44 206.797 253.332 206.66C253.224 206.523 253.086 206.413 252.929 206.337C252.772 206.26 252.6 206.221 252.425 206.221Z" fill="#5D21D1"></path>
  <path d="M1.99902 255L254.999 255" stroke="#2E186A" stroke-width="1.46896" stroke-linecap="round" stroke-linejoin="round"></path>
  <defs>
    <radialGradient id="paint0_radial_13927_12306" cx="0" cy="0" r="1" gradientUnits="userSpaceOnUse" gradientTransform="translate(160 160) rotate(90) scale(160)">
      <stop stop-color="#FEBA91"></stop>
      <stop offset="1" stop-color="white" stop-opacity="0"></stop>
    </radialGradient>
    <linearGradient id="paint1_linear_13927_12306" x1="217.617" y1="169.584" x2="217.617" y2="239.64" gradientUnits="userSpaceOnUse">
      <stop offset="0.415" stop-color="#FE7624"></stop>
      <stop offset="1" stop-color="#6A24FE"></stop>
    </linearGradient>
  </defs>
</svg>
