<?xml version="1.0" encoding="UTF-8"?>
<svg xmlns="http://www.w3.org/2000/svg" width="320" height="320" viewBox="0 0 320 320" fill="none">
  <g clip-path="url(#clip0_13976_18826)">
    <rect width="320" height="320" fill="url(#paint0_radial_13976_18826)" fill-opacity="0.6"></rect>
    <path d="M39.6422 135.567H103.04C108.21 135.567 113.329 136.586 118.106 138.564C122.882 140.543 127.222 143.442 130.878 147.098C134.534 150.754 137.434 155.094 139.412 159.87C141.391 164.647 142.409 169.766 142.409 174.936V272.905H20.2735C9.22776 272.905 0.273438 263.951 0.273438 252.905V174.936C0.273438 164.495 4.42121 154.481 11.8043 147.098C19.1874 139.715 29.201 135.567 39.6422 135.567Z" fill="#5D21D1"></path>
    <path d="M176.026 154.346C176.109 140.127 170.784 118.401 112.232 129.234C82.2325 134.556 79.7571 147.826 86.1949 160.571C74.5401 166.411 53.5018 180.037 35.2563 208.329C8.34956 250.023 34.3358 273.058 49.6301 273.058C64.9244 273.058 235.003 271.713 235.003 271.713C235.003 271.713 241.625 206.091 176.026 154.346Z" fill="#FE7624"></path>
    <path d="M105.004 146.018L98.8889 152.306C98.8889 152.306 127.999 174.446 137.47 227.795C143.625 262.459 141.523 266.351 141.523 266.351L159.576 265.388C159.576 265.388 149.519 207.742 155.784 189.5C162.049 171.257 156.322 150.771 152.082 147.454C147.842 144.138 105.004 146.018 105.004 146.018Z" fill="white"></path>
    <path d="M112.096 128.215L111.422 139.887L105.647 146.52C105.647 146.52 122.722 157.076 139.068 175.692C139.068 175.692 152.439 161.576 154.784 139.459L123.459 143.325L121.003 131.09L112.096 128.215Z" fill="white" stroke="#2E186A" stroke-width="1.69937" stroke-linecap="round" stroke-linejoin="round"></path>
    <path d="M155.814 238.634C160.442 239.699 164.133 240.73 165.161 241.5C168.48 244.007 182.257 257.503 182.761 259.703C183.265 261.904 179.226 263.128 175.893 259.737L166.067 250.368C166.067 250.368 176.077 261.76 176.85 263.502C177.623 265.243 173.717 268.316 167.934 260.992C162.15 253.668 161.23 253.6 161.23 253.6C161.23 253.6 167.843 262.816 168.721 264.904C169.599 266.991 164.02 268.968 158.907 259.31L128.339 257.967L130.128 233.703C130.128 233.703 145.361 236.252 155.814 238.657" fill="white"></path>
    <path d="M155.814 238.634C160.442 239.699 164.133 240.73 165.161 241.5C168.48 244.007 182.257 257.503 182.761 259.703C183.265 261.904 179.226 263.128 175.893 259.737L166.067 250.368C166.067 250.368 176.077 261.76 176.85 263.502C177.623 265.243 173.717 268.316 167.934 260.992C162.15 253.668 161.23 253.6 161.23 253.6C161.23 253.6 167.843 262.816 168.721 264.904C169.599 266.991 164.02 268.968 158.907 259.31L128.339 257.967L130.128 233.703C130.128 233.703 145.361 236.252 155.814 238.657" stroke="#2E186A" stroke-width="1.69937" stroke-linecap="round" stroke-linejoin="round"></path>
    <path d="M76.5005 271.5C76.5005 271.5 125.543 269.579 131.037 268.169C136.532 266.759 134.496 262.74 138.475 261.207C142.454 259.675 143.729 258.446 143.729 258.446C138.569 250.215 143.729 236.581 143.729 236.581C143.729 236.581 142.378 236.212 138.2 235.351C134.023 234.49 135.368 230.191 129.723 229.687C124.079 229.183 75.5474 234.723 75.5474 234.723" fill="#FE7624"></path>
    <path d="M76.5005 271.5C76.5005 271.5 125.543 269.579 131.037 268.169C136.532 266.759 134.496 262.74 138.475 261.207C142.454 259.675 143.729 258.446 143.729 258.446C138.569 250.215 143.729 236.581 143.729 236.581C143.729 236.581 142.378 236.212 138.2 235.351C134.023 234.49 135.368 230.191 129.723 229.687C124.079 229.183 75.5474 234.723 75.5474 234.723" stroke="#2E186A" stroke-width="1.69937" stroke-linecap="round" stroke-linejoin="round"></path>
    <path d="M78.8665 220.105C78.8665 220.105 88.0685 221.003 90.408 233.086" stroke="#2E186A" stroke-width="1.69937" stroke-linecap="round" stroke-linejoin="round"></path>
    <path d="M139.149 261.765C143.457 260.145 144.834 258.842 144.834 258.842C139.251 250.127 144.834 235.691 144.834 235.691C144.834 235.691 143.372 235.3 138.852 234.388C137.034 234.023 136.184 233.066 135.416 232.021C126.16 242.517 131.717 260.961 134.19 267.645C136.36 265.739 135.884 262.992 139.149 261.765Z" fill="#2E186A"></path>
    <path d="M176.026 154.346C176.026 156.994 175.811 159.382 175.743 161.251C175.176 174.319 168.852 181.255 166.354 186.458C174.701 181.303 182.351 170.212 186.126 162.896C182.959 160.019 179.593 157.169 176.026 154.346Z" fill="#2E186A"></path>
    <path d="M114.676 189.333C110.187 187.268 93.0854 174.217 86.1945 160.571C80.2501 163.586 74.5883 167.128 69.2772 171.156C74.1289 173.937 101.976 189.582 114.758 189.48L114.676 189.333Z" fill="#2E186A"></path>
    <path d="M117.931 185.339C117.931 185.339 127.328 204.899 128.62 218.193" stroke="#2E186A" stroke-width="2.26583" stroke-linecap="round" stroke-linejoin="round"></path>
    <path d="M161.497 186.194C161.497 186.194 157.175 204.91 158.594 218.182" stroke="#2E186A" stroke-width="2.26583" stroke-linecap="round" stroke-linejoin="round"></path>
    <path d="M251.222 136.029H249.333C248.55 136.029 247.916 136.663 247.916 137.445V141.082C247.916 141.864 248.55 142.498 249.333 142.498H251.222C252.004 142.498 252.638 141.864 252.638 141.082V137.445C252.638 136.663 252.004 136.029 251.222 136.029Z" fill="#FEBA91"></path>
    <path d="M244.685 136.029H215.047C214.265 136.029 213.631 136.663 213.631 137.445V141.082C213.631 141.864 214.265 142.498 215.047 142.498H244.685C245.467 142.498 246.101 141.864 246.101 141.082V137.445C246.101 136.663 245.467 136.029 244.685 136.029Z" fill="#5D21D1"></path>
    <path d="M247.624 166.074H215.047C214.265 166.074 213.631 166.708 213.631 167.49V171.127C213.631 171.909 214.265 172.543 215.047 172.543H247.624C248.407 172.543 249.041 171.909 249.041 171.127V167.49C249.041 166.708 248.407 166.074 247.624 166.074Z" fill="#5D21D1"></path>
    <path d="M276.086 156.073H224C223.218 156.073 222.584 156.707 222.584 157.489V161.126C222.584 161.908 223.218 162.542 224 162.542H276.086C276.868 162.542 277.502 161.908 277.502 161.126V157.489C277.502 156.707 276.868 156.073 276.086 156.073Z" fill="#FEBA91"></path>
    <path d="M308.821 156.073H281.991C281.209 156.073 280.575 156.707 280.575 157.489V161.126C280.575 161.908 281.209 162.542 281.991 162.542H308.821C309.604 162.542 310.238 161.908 310.238 161.126V157.489C310.238 156.707 309.604 156.073 308.821 156.073Z" fill="#FEBA91"></path>
    <path d="M318.859 146.069H316.97C316.188 146.069 315.554 146.703 315.554 147.485V151.122C315.554 151.904 316.188 152.538 316.97 152.538H318.859C319.641 152.538 320.275 151.904 320.275 151.122V147.485C320.275 146.703 319.641 146.069 318.859 146.069Z" fill="#5D21D1"></path>
    <path d="M269.003 146.05H215.047C214.265 146.05 213.631 146.684 213.631 147.466V151.103C213.631 151.885 214.265 152.519 215.047 152.519H269.003C269.785 152.519 270.419 151.885 270.419 151.103V147.466C270.419 146.684 269.785 146.05 269.003 146.05Z" fill="#5D21D1"></path>
    <path d="M285.773 136.029H256.136C255.353 136.029 254.719 136.663 254.719 137.445V141.082C254.719 141.864 255.353 142.498 256.136 142.498H285.773C286.555 142.498 287.189 141.864 287.189 141.082V137.445C287.189 136.663 286.555 136.029 285.773 136.029Z" fill="#5D21D1"></path>
    <path d="M311.6 146.03H274.375C273.593 146.03 272.959 146.664 272.959 147.446V151.123C272.959 151.905 273.593 152.539 274.375 152.539H311.6C312.382 152.539 313.016 151.905 313.016 151.123V147.446C313.016 146.664 312.382 146.03 311.6 146.03Z" fill="#FE7624"></path>
    <path d="M269.355 272.622C270.057 272.622 270.739 272.386 271.289 271.95C271.84 271.515 272.227 270.906 272.388 270.223L289.49 197.824C289.598 197.367 289.601 196.891 289.499 196.432C289.397 195.974 289.193 195.544 288.902 195.175C288.61 194.807 288.239 194.509 287.816 194.304C287.393 194.099 286.929 193.992 286.459 193.992H176.34C175.638 193.992 174.957 194.229 174.406 194.664C173.856 195.099 173.468 195.708 173.307 196.391L158.012 261.197H118.077C118.077 261.197 115.865 272.622 128.758 272.622" fill="#5D21D1"></path>
    <path d="M223.417 221.856C223.417 221.856 228.478 220.627 228.798 225.006C228.804 225.006 224.774 226.626 223.417 221.856Z" fill="white"></path>
    <path d="M232.67 233.145C232.164 232.821 231.617 232.566 231.044 232.386C231.781 231.614 232.198 230.591 232.211 229.523C232.23 229.005 232.109 228.491 231.859 228.036C231.61 227.581 231.242 227.202 230.795 226.94C231.276 225.498 232.055 223.425 232.675 222.692C232.748 222.606 232.802 222.508 232.836 222.401C232.87 222.295 232.883 222.183 232.874 222.072C232.865 221.961 232.834 221.852 232.783 221.753C232.732 221.654 232.662 221.566 232.576 221.493C232.491 221.421 232.393 221.367 232.286 221.333C232.18 221.298 232.068 221.286 231.957 221.295C231.846 221.304 231.737 221.335 231.638 221.386C231.539 221.437 231.45 221.507 231.378 221.593C230.48 222.652 229.549 225.275 229.095 226.657H228.999C227.24 226.977 225.821 228.778 225.833 230.673C225.831 231.238 225.98 231.794 226.266 232.282C224.216 232.782 222.354 233.863 220.905 235.397C217.704 238.796 217.789 243.328 221.077 245.483C224.366 247.638 229.636 246.633 232.837 243.217C236.037 239.801 235.967 235.306 232.67 233.145Z" fill="white"></path>
    <path d="M15.7955 257.226C19.9407 257.226 23.301 253.866 23.301 249.72C23.301 245.575 19.9407 242.215 15.7955 242.215C11.6503 242.215 8.28992 245.575 8.28992 249.72C8.28992 253.866 11.6503 257.226 15.7955 257.226Z" stroke="white" stroke-width="1.69937" stroke-linecap="round" stroke-linejoin="round"></path>
    <path d="M17.7328 239.532H49.0579V263.842C49.0579 266.095 48.1627 268.256 46.5692 269.85C44.9757 271.443 42.8145 272.339 40.561 272.339H26.2296C23.9761 272.339 21.8149 271.443 20.2215 269.85C18.628 268.256 17.7328 266.095 17.7328 263.842V239.532Z" fill="#FEBA91"></path>
    <path d="M24.1832 253.891L29.8478 250.493C29.935 250.446 30.0323 250.422 30.131 250.422C30.2813 250.422 30.4254 250.482 30.5316 250.588C30.6378 250.694 30.6975 250.838 30.6975 250.988C30.6972 251.089 30.671 251.187 30.6213 251.275C30.5717 251.362 30.5004 251.435 30.4143 251.487L25.5399 254.407L30.4171 257.327C30.5032 257.379 30.5745 257.452 30.6242 257.539C30.6738 257.626 30.7 257.725 30.7003 257.825C30.7003 257.976 30.6406 258.12 30.5344 258.226C30.4282 258.332 30.2841 258.392 30.1339 258.392C30.0351 258.392 29.9378 258.368 29.8506 258.321L24.1861 254.922C24.0888 254.877 24.0065 254.804 23.9488 254.713C23.8912 254.623 23.8606 254.517 23.8606 254.41C23.8606 254.302 23.8912 254.197 23.9488 254.106C24.0065 254.015 24.0888 253.943 24.1861 253.897L24.1832 253.891Z" fill="#2E186A"></path>
    <path d="M36.5802 248.298C36.6317 248.245 36.6934 248.203 36.7615 248.175C36.8297 248.147 36.9029 248.133 36.9767 248.134C37.1269 248.134 37.271 248.194 37.3772 248.3C37.4835 248.406 37.5431 248.55 37.5431 248.7C37.5435 248.783 37.5261 248.865 37.4922 248.941L32.9322 260.341C32.8836 260.437 32.8097 260.519 32.7184 260.577C32.6271 260.635 32.5219 260.667 32.4139 260.67C32.2636 260.67 32.1196 260.61 32.0133 260.504C31.9071 260.397 31.8474 260.253 31.8474 260.103C31.8473 260.025 31.8627 259.948 31.8927 259.876L36.4527 248.477C36.4845 248.41 36.5276 248.35 36.5802 248.298Z" fill="#2E186A"></path>
    <path d="M45.5273 254.405C45.5255 254.511 45.4954 254.614 45.4401 254.704C45.3848 254.794 45.3064 254.868 45.2129 254.918L39.5484 258.316C39.4612 258.363 39.3639 258.387 39.2651 258.387C39.1149 258.387 38.9708 258.327 38.8646 258.221C38.7584 258.115 38.6987 257.971 38.6987 257.821C38.699 257.72 38.7252 257.622 38.7748 257.534C38.8245 257.447 38.8958 257.374 38.9819 257.322L43.8563 254.402L38.9734 251.485C38.8873 251.433 38.816 251.36 38.7663 251.273C38.7167 251.185 38.6905 251.087 38.6902 250.986C38.6902 250.836 38.7499 250.692 38.8561 250.586C38.9623 250.48 39.1064 250.42 39.2566 250.42C39.3554 250.42 39.4527 250.444 39.5399 250.491L45.2044 253.889C45.2999 253.938 45.3803 254.012 45.4372 254.103C45.494 254.193 45.5252 254.298 45.5273 254.405Z" fill="#2E186A"></path>
    <path d="M33.5936 230.891C34.3838 239.456 18.9762 219.562 21.1315 208.057C23.2869 196.552 31.5487 197.011 35.0097 190.534C37.0971 186.639 36.9385 184.082 36.4797 182.663C36.4456 182.561 36.4429 182.452 36.4719 182.349C36.5009 182.246 36.5602 182.154 36.6421 182.086C36.724 182.017 36.8247 181.974 36.9312 181.964C37.0376 181.953 37.1448 181.974 37.2387 182.026C41.2776 184.223 51.8873 191.426 48.3668 205.044C42.5719 225.289 31.9792 213.478 33.5936 230.891Z" fill="white"></path>
    <path d="M108.06 106.165C108.06 106.165 97.1758 106.375 99.1244 116.118C101.073 125.861 113.102 120.227 113.102 120.227L111.493 106.366L108.06 106.165Z" fill="white" stroke="#2E186A" stroke-width="1.69937" stroke-linecap="round" stroke-linejoin="round"></path>
    <path d="M139.074 75.4517C141.943 75.2138 161.605 73.9789 163.755 90.3778C165.904 106.777 163.585 124.884 161.772 133.145C159.959 141.407 122.321 137.584 120.191 136.847C118.061 136.111 115.524 133.613 115.524 133.613L110.346 108.436C110.346 108.436 108.253 78.0121 139.074 75.4517Z" fill="white" stroke="#2E186A" stroke-width="1.69937" stroke-linecap="round" stroke-linejoin="round"></path>
    <path d="M113.938 108.225C115.756 110.032 120.633 120.452 121.823 125.309C121.823 125.309 133.891 121.225 151.182 120.976C151.182 120.976 160.608 121.168 164.367 122.287C164.367 122.287 163.554 139.49 155.909 148.395C148.265 157.3 132.118 154.81 124.525 149.454C116.931 144.098 115.694 141.544 113.938 135.822C112.182 130.101 107.548 108.732 107.548 108.732L113.938 108.225Z" fill="#968BB4"></path>
    <path d="M109.012 111.901C109.012 111.901 103.896 103.985 101.931 95.7568C100.076 88.0218 103.673 79.9158 110.833 76.4491C116.826 73.5489 121.27 75.8232 121.27 75.8232C121.27 75.8232 114.908 64.9954 124.45 55.4307C126.121 53.7573 128.114 52.4422 130.31 51.5656C132.506 50.689 134.858 50.2695 137.221 50.3326C148.873 50.6753 152.473 60.5289 152.473 60.5289C152.473 60.5289 164.935 37.6128 190.522 51.1823C193.102 52.5503 196.008 56.3654 197.399 58.9343C205.847 74.5118 178.009 92.9217 163.516 94.3945C147.604 95.9947 138.286 93.3579 133.162 89.4663C136.969 91.752 132.678 115.566 109.012 111.901Z" fill="#2E186A"></path>
    <path d="M139.955 132.885C139.955 132.885 140.68 137.416 144.857 136.691" stroke="#2E186A" stroke-width="2.26583" stroke-linecap="round" stroke-linejoin="round"></path>
    <path d="M151.652 114.354L153.374 129.342L148.089 127.991" stroke="#2E186A" stroke-width="2.26583" stroke-linecap="round" stroke-linejoin="round"></path>
    <path d="M157.467 116.991C158.314 116.991 159.002 115.927 159.002 114.615C159.002 113.302 158.314 112.238 157.467 112.238C156.619 112.238 155.932 113.302 155.932 114.615C155.932 115.927 156.619 116.991 157.467 116.991Z" fill="#2E186A"></path>
    <path d="M142.685 116.73C143.532 116.73 144.22 115.666 144.22 114.354C144.22 113.041 143.532 111.978 142.685 111.978C141.837 111.978 141.149 113.041 141.149 114.354C141.149 115.666 141.837 116.73 142.685 116.73Z" fill="#2E186A"></path>
    <path d="M135.743 103.364C136.517 102.371 137.544 101.604 138.717 101.142C139.889 100.681 141.163 100.543 142.407 100.742" stroke="#2E186A" stroke-width="2.26583" stroke-linecap="round" stroke-linejoin="round"></path>
    <path d="M156.512 100.496C156.512 100.496 160.761 99.3882 161.834 102.869" stroke="#2E186A" stroke-width="2.26583" stroke-linecap="round" stroke-linejoin="round"></path>
  </g>
  <defs>
    <radialGradient id="paint0_radial_13976_18826" cx="0" cy="0" r="1" gradientUnits="userSpaceOnUse" gradientTransform="translate(160 160) rotate(90) scale(160)">
      <stop stop-color="#FEBA91"></stop>
      <stop offset="1" stop-color="white" stop-opacity="0"></stop>
    </radialGradient>
    <clipPath id="clip0_13976_18826">
      <rect width="320" height="320" fill="white"></rect>
    </clipPath>
  </defs>
</svg>
