<?xml version="1.0" encoding="UTF-8"?>
<svg xmlns="http://www.w3.org/2000/svg" width="320" height="320" viewBox="0 0 320 320" fill="none">
  <rect width="320" height="320" fill="url(#paint0_radial_13975_18462)" fill-opacity="0.6"></rect>
  <path d="M249.049 174.595C292.666 172.078 298.894 198.306 297.268 218.233C296.107 232.452 293.606 263.832 292.196 281.555C291.543 289.763 286.528 294.509 278.294 294.547C250.546 294.674 187.639 294.624 187.88 294.394C187.88 294.394 192.047 238.639 193.71 218.233C195.336 198.306 205.842 172.069 249.049 174.595Z" fill="#FE7624"></path>
  <path d="M275.998 293.5C277.644 273.326 280.774 233.006 281.978 218.232C283.38 201.08 278.96 179.259 249.881 175.119" stroke="black" stroke-opacity="0.26" stroke-width="1.76681" stroke-linecap="round" stroke-linejoin="round"></path>
  <path d="M193.706 244.321C193.706 244.282 170.196 247.993 170.196 247.993L167.696 271.468L168.579 289.89C174.056 290.01 179.531 289.572 184.919 288.582C188.571 287.914 192.484 284.79 193.544 281.221C195.299 275.349 195.712 259.015 193.706 244.321Z" fill="white" stroke="#2E186A" stroke-width="1.76681" stroke-linecap="round" stroke-linejoin="round"></path>
  <path d="M177.63 295.278L182.357 267.81C182.357 267.81 177.94 262.3 178.284 254.532C178.308 254.023 178.352 253.501 178.417 252.971C178.375 252.865 169.111 249.853 168.584 248.74C168.935 242.417 174.088 225.603 183.16 221.699C186.07 220.35 193.125 218.333 194.545 217.85C201.247 215.568 215.352 211.878 227.616 214.316C227.616 214.316 246.335 217.373 250.537 219.858C252.814 221.204 264.142 228.539 266.306 248.834C266.338 249.143 246.721 256.031 246.721 256.031L244.766 295.284" fill="#5D21D1"></path>
  <path d="M206.267 204.991L206.079 215.798L202.251 216.523C201.588 217.474 194.344 228.522 210.725 229.95C221.412 230.881 233.19 224.615 239.53 217.182L229.038 214.317L225.882 194.252L206.267 204.991Z" fill="white" stroke="#2E186A" stroke-width="1.76681" stroke-linecap="round" stroke-linejoin="round"></path>
  <path d="M249.018 152.403L245.224 149.274L239.716 155.954L243.51 159.082L249.018 152.403Z" fill="#FE7624"></path>
  <path d="M252.292 153.224C257.075 153.224 260.952 149.347 260.952 144.564C260.952 139.781 257.075 135.903 252.292 135.903C247.509 135.903 243.632 139.781 243.632 144.564C243.632 149.347 247.509 153.224 252.292 153.224Z" fill="#2E186A"></path>
  <path d="M242.623 152.635C236.186 148.271 228.742 144.978 220.833 145.659C196.419 148.877 190.503 164.269 196.601 173.819C200.429 162.809 203.668 159.151 208.462 157.764C210.161 165.506 222.346 177.24 234.693 180.951C234.693 180.951 231.381 192.061 230.338 191.661C229.949 192.25 225.998 197.579 225.998 197.579L228.492 210.015L256.31 213.413C257.991 213.855 259.755 212.583 259.814 210.884C260.173 200.286 263.189 167.016 242.623 152.635Z" fill="#2E186A"></path>
  <path d="M226.885 194.255L228.428 195.065C228.428 195.065 237.692 198.964 240.457 190.121C242.554 183.413 235.766 181.902 232.368 181.563" fill="white"></path>
  <path d="M226.885 194.255L228.428 195.065C228.428 195.065 237.692 198.964 240.457 190.121C242.554 183.413 235.766 181.902 232.368 181.563" stroke="#2E186A" stroke-width="1.76681" stroke-linecap="round" stroke-linejoin="round"></path>
  <path d="M196.608 173.837C200.436 162.826 203.508 159.575 208.296 158.188C209.968 165.809 220.572 176.929 234.391 180.889C234.253 182.518 234.409 181.072 233.994 182.788C233.446 184.538 232.816 186.508 232.198 188.151C229.465 194.243 226.014 197.6 226.014 197.6C220.975 202.915 214.138 206.16 206.494 204.894C193.148 202.683 194.42 183.398 195.198 179.249C195.575 177.188 196.608 173.825 196.608 173.825V173.837Z" fill="white" stroke="#2E186A" stroke-width="1.76681" stroke-linecap="round" stroke-linejoin="round"></path>
  <path d="M205.027 186.867L201.26 185.89L207.698 171.714" stroke="#2E186A" stroke-width="1.76681" stroke-linecap="round" stroke-linejoin="round"></path>
  <path d="M217.72 174.85C217.72 174.85 216.154 171.202 213.136 172.224" stroke="#2E186A" stroke-width="1.76681" stroke-linecap="round" stroke-linejoin="round"></path>
  <path d="M203.731 193.015C203.731 193.015 207.115 194.252 208.973 192.329" stroke="#2E186A" stroke-width="1.76681" stroke-linecap="round" stroke-linejoin="round"></path>
  <path d="M203.275 170.415C203.275 170.415 200.522 167.553 198.057 169.576" stroke="#2E186A" stroke-width="1.76681" stroke-linecap="round" stroke-linejoin="round"></path>
  <path d="M212.436 178.004C212.677 176.928 212.309 175.93 211.614 175.775C210.919 175.619 210.16 176.365 209.919 177.441C209.678 178.517 210.047 179.516 210.742 179.671C211.437 179.827 212.196 179.081 212.436 178.004Z" fill="#2E186A"></path>
  <path d="M200.366 175.704C200.607 174.628 200.238 173.629 199.543 173.474C198.848 173.318 198.09 174.064 197.849 175.141C197.608 176.217 197.976 177.215 198.672 177.37C199.367 177.526 200.125 176.78 200.366 175.704Z" fill="#2E186A"></path>
  <path d="M224.404 180.077C225.729 174.264 223.228 168.737 218.818 167.732C214.409 166.727 209.76 170.625 208.435 176.438C207.11 182.251 209.611 187.778 214.02 188.783C218.43 189.788 223.079 185.89 224.404 180.077Z" stroke="#FE7624" stroke-width="1.76681" stroke-linecap="round" stroke-linejoin="round"></path>
  <path d="M203.018 175.996C204.343 170.183 201.842 164.656 197.433 163.651C193.023 162.646 188.374 166.544 187.049 172.357C185.724 178.17 188.225 183.697 192.635 184.702C197.044 185.707 201.693 181.809 203.018 175.996Z" stroke="#FE7624" stroke-width="1.76681" stroke-linecap="round" stroke-linejoin="round"></path>
  <path d="M203.663 174.526L208.634 175.834" stroke="#FE7624" stroke-width="1.76681" stroke-linecap="round" stroke-linejoin="round"></path>
  <path d="M224.806 178.228L235.171 182.144" stroke="#FE7624" stroke-width="1.76681" stroke-linecap="round" stroke-linejoin="round"></path>
  <path d="M28.9634 133.627C28.9634 133.038 24.2785 126.18 22.8385 123.877C21.3986 121.574 24.8762 119.533 27.1878 122.97C28.5941 125.064 29.8829 127.235 31.0482 129.472" fill="white"></path>
  <path d="M28.9634 133.627C28.9634 133.038 24.2785 126.18 22.8385 123.877C21.3986 121.574 24.8762 119.533 27.1878 122.97C28.5941 125.064 29.8829 127.235 31.0482 129.472" stroke="#2E186A" stroke-width="1.76681" stroke-linecap="round" stroke-linejoin="round"></path>
  <path d="M33.5577 143.615C33.5577 143.615 29.4351 136.807 29.0523 134.015C28.6695 131.224 28.2367 117.973 28.8197 116.642C29.4028 115.311 31.8468 115.302 31.9234 118.538C31.9999 121.774 31.9234 128.597 31.9234 128.597" fill="white"></path>
  <path d="M33.5577 143.615C33.5577 143.615 29.4351 136.807 29.0523 134.015C28.6695 131.224 28.2367 117.973 28.8197 116.642C29.4028 115.311 31.8468 115.302 31.9234 118.538C31.9999 121.774 31.9234 128.597 31.9234 128.597" stroke="#2E186A" stroke-width="1.76681" stroke-linecap="round" stroke-linejoin="round"></path>
  <path d="M30.6098 138.863C29.6793 135.579 29.0462 132.903 29.1522 132.019C29.4997 129.134 32.727 116.227 33.8372 115.235C34.9473 114.242 37.0056 116.457 36.1517 119.622L33.9991 128.751C33.9991 128.751 37.2648 118.892 38.0186 117.855C38.7724 116.819 41.8673 118.397 39.541 124.334C37.2147 130.27 37.4797 130.865 37.4797 130.865C37.4797 130.865 40.6187 123.839 41.5375 122.643C42.4562 121.448 45.4598 124.41 41.5551 130.624L51.0075 150.574L36.3195 156.787C36.3195 156.787 32.7094 146.269 30.6098 138.851" fill="white"></path>
  <path d="M30.6098 138.863C29.6793 135.579 29.0462 132.903 29.1522 132.019C29.4997 129.134 32.727 116.227 33.8372 115.235C34.9473 114.242 37.0056 116.457 36.1517 119.622L33.9991 128.751C33.9991 128.751 37.2648 118.892 38.0186 117.855C38.7724 116.819 41.8673 118.397 39.541 124.334C37.2147 130.27 37.4797 130.865 37.4797 130.865C37.4797 130.865 40.6187 123.839 41.5375 122.643C42.4562 121.448 45.4598 124.41 41.5551 130.624L51.0075 150.574L36.3195 156.787C36.3195 156.787 32.7094 146.269 30.6098 138.851" stroke="#2E186A" stroke-width="1.76681" stroke-linecap="round" stroke-linejoin="round"></path>
  <path d="M172.139 216.906C172.139 216.906 178.004 214.068 180.307 213.962C182.61 213.856 193.496 214.577 194.527 215.163C195.558 215.749 195.357 217.743 192.716 217.519C190.075 217.295 184.53 216.665 184.53 216.665" fill="white"></path>
  <path d="M172.139 216.906C172.139 216.906 178.004 214.068 180.307 213.962C182.61 213.856 193.496 214.577 194.527 215.163C195.558 215.749 195.357 217.743 192.716 217.519C190.075 217.295 184.53 216.665 184.53 216.665" stroke="#2E186A" stroke-width="1.76681" stroke-linecap="round" stroke-linejoin="round"></path>
  <path d="M163.418 216.732C163.418 216.732 170.032 216.014 176.233 214.868L163.418 216.732Z" fill="white"></path>
  <path d="M163.418 216.732C163.418 216.732 170.032 216.014 176.233 214.868" stroke="#2E186A" stroke-width="1.76681" stroke-linecap="round" stroke-linejoin="round"></path>
  <path d="M172.506 215.899C175.25 215.392 181.272 213.97 181.982 214.132C184.299 214.659 194.532 218.387 195.233 219.377C195.933 220.366 193.969 221.85 191.466 220.887L184.223 218.355C184.223 218.355 191.97 221.853 192.739 222.554C193.507 223.255 191.97 225.64 187.344 223.243C182.718 220.846 182.203 221.017 182.203 221.017C182.203 221.017 187.653 224.174 188.548 225.022C189.443 225.87 186.781 228.063 182.07 224.356L172.768 227.816C170.615 227.737 154.699 222.622 155.689 221.199C156.678 219.777 163.613 210.057 163.613 210.057L172.506 215.899Z" fill="white" stroke="#2E186A" stroke-width="1.76681" stroke-linecap="round" stroke-linejoin="round"></path>
  <path d="M144.951 100.615C144.951 100.615 127.189 87.5577 124.977 88.3028L115.051 87.4135C109.49 86.9173 103.96 88.65 99.6775 92.2306C95.3945 95.8112 92.7091 100.946 92.2119 106.507L79.3555 170.407L138.019 178.181L143.387 118.109C143.779 117.939 144.155 117.733 144.509 117.494C148.72 114.605 148.738 107.514 144.951 100.615Z" fill="#2E186A"></path>
  <path d="M170.529 211.405L150.682 197.462L156.498 178.378C158.765 168.569 156.816 156.175 146.256 152.544C141.177 150.798 139.451 150.323 138.862 150.132C138.862 150.132 105.661 141.168 101.521 139.631C98.6823 138.58 86.7976 139.042 78.0873 147.349L58.8733 162.073L49.209 134.187L26.3672 143.536L41.435 188.331C41.435 188.331 46.3939 205.678 59.6066 199.25L79.8718 187.509C80.0249 194.255 80.0808 203.611 76.6091 213.39C71.4899 227.781 68.8841 242.946 68.9058 258.22C68.9412 276.568 68.9853 293.486 68.9853 293.486L155.644 294.248C155.644 294.248 141.359 228.75 141.359 223.096C141.312 222.678 141.289 222.239 141.277 221.785C148.639 226.435 157.702 230.569 157.702 230.569L170.529 211.405Z" fill="url(#paint1_linear_13975_18462)"></path>
  <path d="M142.234 164.884C147.24 180.679 152.246 190.582 137.246 204.081L143.459 235.969" stroke="#2E186A" stroke-width="1.76681" stroke-linecap="round" stroke-linejoin="round"></path>
  <path d="M80.9277 187.622L98.3219 176.81" stroke="#2E186A" stroke-width="1.76681" stroke-linecap="round" stroke-linejoin="round"></path>
  <path d="M64.0712 175.573C66.0206 170.355 59.8633 162.478 59.8633 162.478" stroke="#2E186A" stroke-width="1.76681" stroke-linecap="round" stroke-linejoin="round"></path>
  <path d="M131.018 135.441L131.203 148.398L138.014 150.409C138.309 151.56 135.679 171.201 118.403 166.16C107.066 162.853 102.875 150.294 102.207 140.247L111.648 143.386L111.041 119.065L131.018 135.441Z" fill="white" stroke="#2E186A" stroke-width="1.76681" stroke-linecap="round" stroke-linejoin="round"></path>
  <path d="M109.849 139.043C106.886 139.384 103.959 135.868 103.253 131.115C102.876 128.539 103.232 126.109 104.107 124.366" stroke="#FE7624" stroke-width="1.76681" stroke-linecap="round" stroke-linejoin="round"></path>
  <path d="M149.926 137.912C146.967 138.253 144.037 134.737 143.33 129.985C142.953 127.408 143.313 124.979 144.187 123.235" stroke="#FE7624" stroke-width="1.76681" stroke-linecap="round" stroke-linejoin="round"></path>
  <path d="M112.399 121.984C113.913 118.871 112.486 115.055 109.211 113.463C105.936 111.871 102.054 113.104 100.54 116.218C99.0262 119.332 100.453 123.147 103.728 124.739C107.003 126.332 110.885 125.098 112.399 121.984Z" fill="white" stroke="#2E186A" stroke-width="1.76681" stroke-linecap="round" stroke-linejoin="round"></path>
  <path d="M151.869 119.768C153.207 117.017 151.946 113.646 149.053 112.24C146.16 110.833 142.73 111.923 141.393 114.674C140.055 117.425 141.316 120.796 144.209 122.202C147.102 123.609 150.531 122.519 151.869 119.768Z" fill="white" stroke="#2E186A" stroke-width="1.76681" stroke-linecap="round" stroke-linejoin="round"></path>
  <path d="M131.214 139.407C140.96 137.695 147.062 126.058 144.842 113.415C142.622 100.772 132.92 91.9109 123.174 93.6225C113.427 95.3341 107.325 106.971 109.545 119.614C111.766 132.257 121.467 141.118 131.214 139.407Z" fill="white" stroke="#2E186A" stroke-width="1.76681" stroke-linecap="round" stroke-linejoin="round"></path>
  <path d="M129.363 122.448L132.87 122.357C132.955 122.355 133.038 122.335 133.113 122.296C133.189 122.258 133.254 122.203 133.305 122.135C133.356 122.068 133.391 121.99 133.408 121.907C133.424 121.824 133.422 121.738 133.4 121.656L130.945 112.08" stroke="#2E186A" stroke-width="1.76681" stroke-linecap="round" stroke-linejoin="round"></path>
  <path d="M119.754 107.343C119.754 107.343 122.878 104.584 125.452 106.925" stroke="#2E186A" stroke-width="1.76681" stroke-linecap="round" stroke-linejoin="round"></path>
  <path d="M133.924 106.574C133.924 106.574 137.902 105.119 139.486 108.17" stroke="#2E186A" stroke-width="1.76681" stroke-linecap="round" stroke-linejoin="round"></path>
  <path d="M127.206 116.239C127.252 115.084 126.662 114.122 125.887 114.09C125.112 114.059 124.445 114.97 124.399 116.126C124.352 117.281 124.943 118.243 125.718 118.274C126.493 118.306 127.159 117.394 127.206 116.239Z" fill="#2E186A"></path>
  <path d="M137.72 118.541C138.49 118.491 139.055 117.511 138.98 116.352C138.905 115.193 138.219 114.294 137.448 114.344C136.677 114.394 136.113 115.374 136.188 116.533C136.263 117.691 136.949 118.59 137.72 118.541Z" fill="#2E186A"></path>
  <path d="M129.992 129.372C129.992 129.372 121.953 134.272 121.629 123.482L129.992 129.372Z" stroke="#2E186A" stroke-width="1.76681" stroke-linecap="round" stroke-linejoin="round"></path>
  <path d="M148.023 120.04C151.021 119.601 153.495 123.597 154.207 128.406C154.92 133.214 153.029 137.467 150.035 137.911L149.929 137.926" stroke="#FE7624" stroke-width="1.76681" stroke-linecap="round" stroke-linejoin="round"></path>
  <path d="M107.408 121.615C110.406 121.176 113.404 124.719 114.11 129.527C114.817 134.336 112.956 138.588 109.958 139.027L109.855 139.042" stroke="#FE7624" stroke-width="1.76681" stroke-linecap="round" stroke-linejoin="round"></path>
  <path d="M121.314 88.0192L121.272 88.0722C115.283 88.8997 108.575 91.6059 104.821 95.5665C100.404 100.243 100.206 108.547 102.541 113.912C103.516 113.255 104.648 112.868 105.821 112.79C106.994 112.712 108.167 112.947 109.22 113.47C109.332 113.526 109.444 113.585 109.55 113.644C118.34 110.069 118.446 96.7502 118.437 95.5724C120.368 97.133 122.892 99.8039 122.212 102.701L153.481 104.931C153.481 104.931 159.927 81.8413 121.314 88.0192ZM117.012 96.3144C117.419 96.007 117.842 95.72 118.278 95.4546C118.308 95.4765 118.336 95.5001 118.363 95.5252L117.012 96.3144Z" fill="#2E186A"></path>
  <path d="M211.498 285.824H173.58L162.685 238.055C162.58 237.559 162.309 237.114 161.917 236.793C161.525 236.472 161.036 236.294 160.529 236.288H79.3124C78.9714 236.296 78.6366 236.381 78.3327 236.536C78.0288 236.69 77.7636 236.912 77.5567 237.183C77.3498 237.454 77.2064 237.768 77.1372 238.102C77.068 238.436 77.0747 238.781 77.1569 239.112L89.3154 292.476C89.4204 292.971 89.6912 293.416 90.083 293.738C90.4748 294.059 90.9643 294.237 91.4709 294.243H203.901C213.071 294.243 211.498 285.824 211.498 285.824Z" fill="#5D21D1"></path>
  <path d="M239.014 250.399L241.158 269.449C241.158 269.449 209.403 273.662 195.254 274.893C194.618 274.949 182.674 282.479 183.988 283.103C191.661 286.746 183.019 290.147 193.157 288.781C193.157 288.781 225.914 292.402 256.297 286.837C259.948 286.169 263.862 283.044 264.922 279.475C266.688 273.586 267.086 257.258 265.084 242.564C265.092 242.537 239.014 250.399 239.014 250.399Z" fill="white" stroke="#2E186A" stroke-width="1.76681" stroke-linecap="round" stroke-linejoin="round"></path>
  <path d="M181.892 286.03C178.358 290.091 174.174 291.284 174.763 288.663C174.984 287.676 183.373 279.14 186.436 277.659C188.791 276.513 192.325 275.27 197.178 274.714" fill="white"></path>
  <path d="M181.892 286.03C178.358 290.091 174.174 291.284 174.763 288.663C174.984 287.676 183.373 279.14 186.436 277.659C188.791 276.513 192.325 275.27 197.178 274.714" stroke="#2E186A" stroke-width="1.76681" stroke-linecap="round" stroke-linejoin="round"></path>
  <path d="M187.834 282.62C187.834 282.62 184.333 283.436 182.181 285.783C180.028 288.13 178.394 289.611 178.75 290.106C179.106 290.6 181.4 291.127 182.873 289.793C184.757 287.355 190.128 285.736 190.128 285.736C189.539 285.795 185.838 287.04 184.045 288.565C182.251 290.091 181.344 293.009 186.171 290.845C186.171 290.845 191.132 289.372 193.026 288.745" fill="white"></path>
  <path d="M187.834 282.62C187.834 282.62 184.333 283.436 182.181 285.783C180.028 288.13 178.394 289.611 178.75 290.106C179.106 290.6 181.4 291.127 182.873 289.793C184.757 287.355 190.128 285.736 190.128 285.736C189.539 285.795 185.838 287.04 184.045 288.565C182.251 290.091 181.344 293.009 186.171 290.845C186.171 290.845 191.132 289.372 193.026 288.745" stroke="#2E186A" stroke-width="1.76681" stroke-linecap="round" stroke-linejoin="round"></path>
  <path d="M100.329 278.644H37.3806C36.6016 278.644 35.9701 279.275 35.9701 280.054V292.831C35.9701 293.61 36.6016 294.242 37.3806 294.242H100.329C101.108 294.242 101.739 293.61 101.739 292.831V280.054C101.739 279.275 101.108 278.644 100.329 278.644Z" fill="#2E186A"></path>
  <path d="M93.0337 290.696C94.8259 290.696 96.2787 289.19 96.2787 287.331C96.2787 285.472 94.8259 283.965 93.0337 283.965C91.2415 283.965 89.7887 285.472 89.7887 287.331C89.7887 289.19 91.2415 290.696 93.0337 290.696Z" fill="white"></path>
  <path d="M75.198 283.968H42.0293C41.3528 283.968 40.8043 284.516 40.8043 285.193V289.471C40.8043 290.148 41.3528 290.696 42.0293 290.696H75.198C75.8745 290.696 76.423 290.148 76.423 289.471V285.193C76.423 284.516 75.8745 283.968 75.198 283.968Z" fill="white"></path>
  <path d="M110.7 262.975H47.752C46.9731 262.975 46.3416 263.606 46.3416 264.385V277.162C46.3416 277.941 46.9731 278.573 47.752 278.573H110.7C111.479 278.573 112.111 277.941 112.111 277.162V264.385C112.111 263.606 111.479 262.975 110.7 262.975Z" fill="#FEBA91"></path>
  <path d="M103.405 275.027C105.197 275.027 106.65 273.521 106.65 271.662C106.65 269.803 105.197 268.296 103.405 268.296C101.613 268.296 100.16 269.803 100.16 271.662C100.16 273.521 101.613 275.027 103.405 275.027Z" fill="white"></path>
  <path d="M85.5692 268.296H52.4005C51.724 268.296 51.1755 268.844 51.1755 269.521V273.8C51.1755 274.476 51.724 275.025 52.4005 275.025H85.5692C86.2458 275.025 86.7942 274.476 86.7942 273.8V269.521C86.7942 268.844 86.2458 268.296 85.5692 268.296Z" fill="white"></path>
  <defs>
    <radialGradient id="paint0_radial_13975_18462" cx="0" cy="0" r="1" gradientUnits="userSpaceOnUse" gradientTransform="translate(160 160) rotate(90) scale(160)">
      <stop stop-color="#FEBA91"></stop>
      <stop offset="1" stop-color="white" stop-opacity="0"></stop>
    </radialGradient>
    <linearGradient id="paint1_linear_13975_18462" x1="98.4482" y1="134.187" x2="98.4482" y2="294.248" gradientUnits="userSpaceOnUse">
      <stop offset="0.415" stop-color="#FE7624"></stop>
      <stop offset="1" stop-color="#6A24FE"></stop>
    </linearGradient>
  </defs>
</svg>
