<?xml version="1.0" encoding="UTF-8"?>
<svg xmlns="http://www.w3.org/2000/svg" width="320" height="320" viewBox="0 0 320 320" fill="none">
  <rect width="320" height="320" fill="url(#paint0_radial_13927_12730)"></rect>
  <path d="M180.026 106.956L157.079 103.34L154.613 95.5441C158.896 92.8174 173.336 94.1155 184.58 98.2674L180.026 106.973" fill="#2E186A"></path>
  <path d="M217.659 150.346L200.585 110.438C199.489 107.965 197.188 106.135 194.403 105.396C192.965 104.73 191.422 104.32 189.843 104.184L184.053 103.7L184.571 98.2497C184.571 98.2497 183.764 100.211 177.394 101.406C168.781 103.023 154.605 95.5264 154.605 95.5264V103.974L145.824 103.724C142.046 103.614 134.714 103.315 130.469 111.722L109.827 163.55C106.169 170.244 108.061 180.151 114.14 185.254L126.194 191.941L125.074 205.334L216.296 205.021L215.788 193.136C243.498 175.927 217.659 150.346 217.659 150.346Z" fill="#5D21D1"></path>
  <path d="M143.018 165.302C143.018 165.302 133.966 154.107 120.147 163.994" stroke="white" stroke-width="2.0605" stroke-linecap="round" stroke-linejoin="round"></path>
  <path d="M143.019 163.335C142.871 163.037 137.524 150.914 122.5 158.723" stroke="white" stroke-width="2.0605" stroke-linecap="round" stroke-linejoin="round"></path>
  <path d="M196.309 165.302C196.309 165.302 204.551 150.618 220.3 160.773" stroke="white" stroke-width="2.0605" stroke-linecap="round" stroke-linejoin="round"></path>
  <path d="M195.277 162.518C195.277 162.518 199.68 151.14 214.268 153.802" stroke="white" stroke-width="2.0605" stroke-linecap="round" stroke-linejoin="round"></path>
  <path d="M154.933 97.603L157.215 74.6523L176.156 88.7976L174.458 101.08L154.933 97.603Z" fill="white" stroke="#2E186A" stroke-width="2.0605" stroke-linecap="round" stroke-linejoin="round"></path>
  <path d="M186.342 52.7009C178.705 46.2057 171.517 43.3892 158.471 57.0698L155.918 66.6757C151.201 64.7261 148.402 66.8428 149.04 71.1891C149.724 75.8712 152.168 78.1884 156.701 77.4382C158.334 82.4321 161.778 88.3343 169.037 90.6782C180.406 94.3521 183.803 87.4288 185.38 84.7315C186.956 82.0342 193.979 59.1994 186.342 52.7009Z" fill="white" stroke="#2E186A" stroke-width="2.0605" stroke-linecap="round" stroke-linejoin="round"></path>
  <path d="M180.686 70.2025L180.822 79.0439L177.563 78.637" stroke="#2E186A" stroke-width="2.0605" stroke-linecap="round" stroke-linejoin="round"></path>
  <path d="M184.34 72.0631C184.878 72.1166 185.381 71.4852 185.464 70.6529C185.547 69.8206 185.178 69.1025 184.64 69.049C184.102 68.9955 183.599 69.6269 183.516 70.4592C183.433 71.2915 183.802 72.0096 184.34 72.0631Z" fill="#2E186A"></path>
  <path d="M174.965 70.9654C175.503 71.0189 176.006 70.3875 176.089 69.5552C176.172 68.7229 175.803 68.0048 175.265 67.9513C174.727 67.8979 174.224 68.5292 174.141 69.3615C174.058 70.1938 174.427 70.9119 174.965 70.9654Z" fill="#2E186A"></path>
  <path d="M184.644 61.7052C184.644 61.7052 187.42 61.2703 187.877 63.5486" stroke="#2E186A" stroke-width="2.0605" stroke-linecap="round" stroke-linejoin="round"></path>
  <path d="M173.226 80.096C173.226 80.096 176.246 81.5456 178.943 81.3548C178.943 81.3548 177.498 85.7907 174.997 84.9863C172.495 84.1819 173.226 80.096 173.226 80.096Z" fill="#2E186A"></path>
  <path d="M144.594 37.9616C140.397 27.2427 132.1 25.5168 122.231 26.4784C112.362 27.44 105.665 39.9125 105.207 41.0851C99.8609 54.7617 103.59 70.3209 114.313 80.3531C115.504 81.462 116.693 82.5879 117.831 83.6743C124.134 89.6952 108.558 92.7605 108.558 92.7605C137.269 97.9587 133.838 68.3557 133.477 65.7384C143.09 63.1223 148.507 47.9275 144.594 37.9616Z" fill="#2E186A"></path>
  <path d="M140.055 45.3304C137.784 44.174 135.005 45.0774 133.849 47.3483C132.693 49.6191 133.597 52.3974 135.869 53.5538L151.979 61.7549C154.251 62.9113 157.03 62.0079 158.186 59.7371C159.342 57.4662 158.437 54.6879 156.165 53.5315L140.055 45.3304Z" fill="#FE7624"></path>
  <path d="M193.477 63.4838C194.081 56.3725 192.995 49.9765 189.114 45.4493C188.514 44.6011 187.76 43.8739 186.89 43.3059C183.616 40.6923 178.987 39.0068 172.663 38.6057C172.528 38.6009 172.393 38.6227 172.267 38.6698C171.271 38.6618 170.275 38.7103 169.284 38.815C168.744 38.846 168.206 38.9171 167.676 39.0278C165.891 39.3254 164.135 39.7791 162.43 40.3835C147.691 45.0574 141.038 55.4669 145.844 71.2367C148.328 79.366 152.309 82.2985 156.398 82.7121L156.868 77.9859C156.601 77.2001 155.988 77.4325 155.988 77.4325C151.468 78.184 149.711 75.8695 149.017 71.1864C148.683 68.9238 149.286 67.2685 150.6 66.4744L150.703 66.4121C150.754 66.3827 150.809 66.357 150.863 66.3314L150.968 66.2797L151.144 66.2075L151.248 66.1729C151.312 66.1482 151.377 66.1271 151.444 66.1096L151.54 66.0846C151.61 66.0675 151.685 66.0473 151.759 66.0339L151.824 66.0404C152.233 65.9668 152.65 65.9445 153.066 65.9741L153.096 65.9771C153.199 65.9873 153.305 65.9979 153.414 66.0087L153.476 66.0149C153.582 66.0254 153.691 66.0363 153.797 66.0468L153.869 66.0539L154.207 66.1221L154.258 66.1272C154.819 66.2618 155.368 66.441 155.9 66.6631C156.264 66.8133 155.97 66.9634 156.36 67.1645L157.393 67.1947C157.734 67.2287 158.107 67.2312 158.487 67.2241C167.517 67.0384 182.012 62.0331 187.766 54.3226C190.831 58.893 190.382 67.2587 189.046 74.2109C191.555 71.1544 193.098 67.4202 193.477 63.4838Z" fill="#2E186A"></path>
  <path d="M172.184 60.4287C172.739 59.8468 173.439 59.4245 174.212 59.2058C174.986 58.987 175.804 58.9799 176.58 59.1852" stroke="#FFFDFD" stroke-width="2.0605" stroke-linecap="round" stroke-linejoin="round"></path>
  <path d="M198.763 127.722L196.603 116.259C196.397 115.148 195.973 114.088 195.356 113.141C194.74 112.193 193.942 111.377 193.009 110.739C192.076 110.101 191.026 109.653 189.92 109.422C188.813 109.191 187.672 109.18 186.562 109.391L183.265 110.012C182.762 107.235 181.715 104.585 180.184 102.214C178.652 99.8431 176.667 97.7989 174.342 96.1989C172.017 94.599 169.398 93.4749 166.637 92.8916C163.875 92.3082 161.026 92.2771 158.252 92.8C155.479 93.3229 152.836 94.3895 150.477 95.9382C148.117 97.487 146.088 99.4874 144.505 101.824C142.922 104.161 141.817 106.788 141.254 109.553C140.691 112.319 140.681 115.169 141.224 117.938L137.927 118.56C136.816 118.766 135.756 119.19 134.809 119.807C133.862 120.423 133.045 121.221 132.407 122.154C131.769 123.087 131.322 124.137 131.09 125.243C130.859 126.35 130.848 127.491 131.059 128.601L133.219 140.065C138.775 139.059 144.503 140.291 149.154 143.492C153.806 146.693 157.003 151.603 158.049 157.151C159.095 162.699 157.905 168.436 154.738 173.111C151.572 177.786 146.685 181.019 141.145 182.106L142.577 189.692C142.783 190.803 143.207 191.863 143.824 192.81C144.44 193.757 145.238 194.573 146.171 195.211C147.104 195.85 148.154 196.297 149.26 196.529C150.367 196.76 151.508 196.771 152.618 196.56L201.253 187.391C202.364 187.185 203.424 186.761 204.371 186.144C205.318 185.527 206.135 184.729 206.773 183.797C207.411 182.864 207.858 181.814 208.09 180.707C208.321 179.601 208.332 178.46 208.121 177.349L206.693 169.76C203.933 170.28 201.097 170.252 198.347 169.677C195.598 169.102 192.989 167.991 190.669 166.407C188.349 164.823 186.364 162.798 184.826 160.447C183.289 158.097 182.23 155.466 181.709 152.706C181.189 149.945 181.217 147.11 181.792 144.36C182.367 141.611 183.478 139.002 185.062 136.682C186.646 134.362 188.671 132.377 191.022 130.839C193.372 129.302 196.003 128.243 198.763 127.722Z" fill="#FEBA91"></path>
  <path d="M152.69 188.527C157.33 191.821 157.934 189.324 156.574 187.727C154.857 185.732 146.79 179.368 146.79 179.368C146.79 179.368 153.271 181.298 154.857 177.651C156.444 174.004 154.709 173.286 152.268 174.526C149.826 175.766 142.24 171.295 142.24 171.295L139.754 169.011C139.754 169.011 131.409 166.325 129.262 175.556C128.777 177.072 128.688 178.687 129.004 180.248C129.32 181.808 130.031 183.261 131.069 184.468C132.061 185.591 135.499 190.066 146.395 195.509C146.395 195.509 151.505 197.408 147.68 193.716C146.731 192.806 145.722 191.959 144.661 191.182" fill="white"></path>
  <path d="M152.69 188.527C157.33 191.821 157.934 189.324 156.574 187.727C154.857 185.732 146.79 179.368 146.79 179.368C146.79 179.368 153.271 181.298 154.857 177.651C156.444 174.004 154.709 173.286 152.268 174.526C149.826 175.766 142.24 171.295 142.24 171.295L139.754 169.011C139.754 169.011 131.409 166.325 129.262 175.556C128.777 177.072 128.688 178.687 129.004 180.248C129.32 181.808 130.031 183.261 131.069 184.468C132.061 185.591 135.499 190.066 146.395 195.509C146.395 195.509 151.505 197.408 147.68 193.716C146.731 192.806 145.722 191.959 144.661 191.182" stroke="#2E186A" stroke-width="2" stroke-linecap="round" stroke-linejoin="round"></path>
  <path d="M145.438 183.568C147.062 184.774 153.848 188.586 155.469 191.017C157.09 193.448 155.06 194.259 149.26 190.066" fill="white"></path>
  <path d="M145.438 183.568C147.062 184.774 153.848 188.586 155.469 191.017C157.09 193.448 155.06 194.259 149.26 190.066" stroke="#2E186A" stroke-width="2" stroke-linecap="round" stroke-linejoin="round"></path>
  <path d="M142.929 186.178C143.108 186.473 154.238 192.497 153.517 194.076C152.923 195.368 151.336 195.45 145.182 191.535L140.24 188.101" fill="white"></path>
  <path d="M142.929 186.178C143.108 186.473 154.238 192.497 153.517 194.076C152.923 195.368 151.336 195.45 145.182 191.535L140.24 188.101" stroke="#2E186A" stroke-width="2" stroke-linecap="round" stroke-linejoin="round"></path>
  <path d="M193.324 178.225C187.915 179.983 188.083 177.421 189.855 176.301C192.091 174.904 201.707 171.246 201.707 171.246C201.707 171.246 194.945 171.15 194.523 167.184C194.1 163.217 195.968 163.063 197.929 164.972C199.89 166.881 208.465 164.886 208.465 164.886L211.522 163.447C211.522 163.447 220.286 163.372 219.578 172.823C219.589 174.415 219.192 175.984 218.424 177.379C217.656 178.775 216.544 179.95 215.193 180.793C213.912 181.569 209.296 184.811 197.27 186.752C197.27 186.752 191.823 187.04 196.583 184.657C197.762 184.072 198.978 183.566 200.223 183.142" fill="white"></path>
  <path d="M193.324 178.225C187.915 179.983 188.083 177.421 189.855 176.301C192.091 174.904 201.707 171.246 201.707 171.246C201.707 171.246 194.945 171.15 194.523 167.184C194.1 163.217 195.968 163.063 197.929 164.972C199.89 166.881 208.465 164.886 208.465 164.886L211.522 163.447C211.522 163.447 220.286 163.372 219.578 172.823C219.589 174.415 219.192 175.984 218.424 177.379C217.656 178.775 216.544 179.95 215.193 180.793C213.912 181.569 209.296 184.811 197.27 186.752C197.27 186.752 191.823 187.04 196.583 184.657C197.762 184.072 198.978 183.566 200.223 183.142" stroke="#2E186A" stroke-width="2" stroke-linecap="round" stroke-linejoin="round"></path>
  <path d="M201.729 175.655C199.82 176.322 192.203 177.932 189.933 179.776C187.663 181.62 189.356 182.991 196.142 180.724" fill="white"></path>
  <path d="M201.729 175.655C199.82 176.322 192.203 177.932 189.933 179.776C187.663 181.62 189.356 182.991 196.142 180.724" stroke="#2E186A" stroke-width="2" stroke-linecap="round" stroke-linejoin="round"></path>
  <path d="M203.344 178.891C203.083 179.117 190.665 181.545 190.882 183.266C191.06 184.674 192.558 185.209 199.594 183.328L205.343 181.511" fill="white"></path>
  <path d="M203.344 178.891C203.083 179.117 190.665 181.545 190.882 183.266C191.06 184.674 192.558 185.209 199.594 183.328L205.343 181.511" stroke="#2E186A" stroke-width="2" stroke-linecap="round" stroke-linejoin="round"></path>
  <path d="M112.453 274.289C120.399 274.256 126.378 267.453 124.203 259.81C120.615 247.193 115.017 232.438 113.395 218.121C128.852 203.659 112.144 161.539 102.93 161.084C93.6398 159.378 85.5895 157.671 70.7285 157.152C52.3778 156.512 35.778 158.718 29.6316 159.603C6.65992 170.974 -5.83823 237.691 9.30044 250.85C12.1664 253.341 16.7832 255.837 22.4386 258.164C22.3568 259.118 22.2796 260.073 22.2078 261.025C21.6416 268.537 27.757 274.641 35.2901 274.61L112.453 274.289Z" fill="#2E186A"></path>
  <path d="M53.632 159.442L56.9528 139.461L81.9089 148.828L82.8669 163.028C79.4938 187.823 52.8995 163.837 53.632 159.442Z" fill="white" stroke="#2E186A" stroke-width="2.4151" stroke-linecap="round" stroke-linejoin="round"></path>
  <path d="M90.749 104.119C90.749 104.119 70.7222 114.566 79.057 126.588C79.057 126.588 82.7963 131.633 86.2761 130.98C86.2761 130.98 84.106 126.77 87.1578 124.944C87.1578 124.944 87.0708 137.006 97.0895 135.361C97.0895 135.361 93.8992 129.758 95.394 123.477C98.4714 110.364 96.0535 102.145 90.749 104.119Z" fill="#2E186A"></path>
  <path d="M49.7334 119.894C49.7334 119.894 47.952 96.1927 71.9464 94.0267C74.1832 93.8243 89.4983 92.7557 91.261 105.525C92.4387 114.058 92.0672 123.186 91.2826 130.238C91.2794 130.278 89.9967 143.57 84.1506 150.549C78.3045 157.527 66.7025 155.914 60.8276 151.783C54.9528 147.651 53.9755 145.664 52.5923 141.206C51.2091 136.748 49.7503 119.936 49.7503 119.936L49.7334 119.894Z" fill="white" stroke="#2E186A" stroke-width="2.4151" stroke-linecap="round" stroke-linejoin="round"></path>
  <path d="M81.9475 124.286L83.2836 135.254L79.2429 134.934" stroke="#2E186A" stroke-width="2.4151" stroke-linecap="round" stroke-linejoin="round"></path>
  <path d="M88.1685 123.871C88.2592 122.852 87.7996 121.979 87.142 121.92C86.4843 121.862 85.8777 122.64 85.787 123.659C85.6963 124.677 86.1559 125.55 86.8136 125.609C87.4712 125.667 88.0778 124.889 88.1685 123.871Z" fill="#2E186A"></path>
  <path d="M76.7319 123.306C77.0115 122.323 76.7233 121.379 76.0882 121.198C75.4531 121.018 74.7116 121.669 74.432 122.653C74.1524 123.636 74.4406 124.58 75.0757 124.76C75.7108 124.941 76.4523 124.29 76.7319 123.306Z" fill="#2E186A"></path>
  <path d="M69.8835 115.316C70.5239 114.573 71.3523 114.015 72.2821 113.702C73.2119 113.388 74.2089 113.33 75.1687 113.534" stroke="#2E186A" stroke-width="2.4151" stroke-linecap="round" stroke-linejoin="round"></path>
  <path d="M85.6604 113.455C85.6604 113.455 89.9112 111.939 91.5211 114.554" stroke="#2E186A" stroke-width="2.4151" stroke-linecap="round" stroke-linejoin="round"></path>
  <path d="M69.6921 103.914C69.6921 103.914 76.1561 135.993 55.0351 137.567C55.0351 137.567 42.7109 138.751 40.2741 134.238C40.2741 134.238 49.4523 130.257 48.743 125.141C48.743 125.141 37.98 135.215 29.978 126.74C29.978 126.74 44.5538 125.472 44.3022 112.434C44.1223 103.08 67.0821 96.1326 69.6921 103.914Z" fill="#2E186A"></path>
  <path d="M31.2067 105.312L44.0709 104.397C46.0648 95.9422 52.0188 84.0823 69.723 83.4371C97.3855 82.4216 96.0917 109.162 96.0917 109.162L31.8061 113.601C31.2619 113.64 30.7154 113.571 30.1978 113.399C29.6802 113.226 29.2016 112.954 28.7893 112.596C28.377 112.239 28.0392 111.804 27.7951 111.316C27.551 110.828 27.4053 110.297 27.3665 109.753C27.3277 109.208 27.3964 108.662 27.5688 108.144C27.7412 107.627 28.0138 107.148 28.3711 106.736C28.7285 106.324 29.1635 105.986 29.6514 105.742C30.1393 105.497 30.6706 105.352 31.2148 105.313L31.2067 105.312Z" fill="#FE7624"></path>
  <path d="M72.2439 137.146C72.2439 137.146 73.6558 141.344 79.4533 140.894" stroke="#2E186A" stroke-width="2.4151" stroke-linecap="round" stroke-linejoin="round"></path>
  <path d="M134.751 185.625V171.827C134.751 169.129 133.679 166.542 131.771 164.634C129.864 162.727 127.277 161.655 124.579 161.655H120.61C120.652 165.005 120.029 168.33 118.776 171.437C117.524 174.544 115.667 177.372 113.313 179.755C110.959 182.139 108.155 184.032 105.064 185.324C101.973 186.615 98.6561 187.281 95.306 187.281C91.9558 187.281 88.6391 186.615 85.548 185.324C82.457 184.032 79.6532 182.139 77.2993 179.755C74.9454 177.372 73.0882 174.544 71.8355 171.437C70.5828 168.33 69.9595 165.005 70.0017 161.655H66.0329C63.3356 161.656 60.749 162.728 58.8417 164.636C56.9344 166.543 55.8624 169.13 55.8613 171.827V245.367C55.8645 248.062 56.9376 250.646 58.8448 252.551C60.752 254.456 63.3374 255.526 66.0329 255.526H124.579C127.277 255.526 129.864 254.455 131.771 252.547C133.679 250.64 134.751 248.052 134.751 245.355V236.234C141.406 236.15 147.761 233.447 152.438 228.71C157.115 223.974 159.738 217.586 159.738 210.929C159.738 204.273 157.115 197.885 152.438 193.148C147.761 188.412 141.406 185.709 134.751 185.625Z" fill="#FEBA91"></path>
  <path d="M127.795 252.089C127.738 251.916 118.907 241.624 118.609 241.841C118.311 242.059 106.212 247.477 105.946 247.899C105.68 248.322 105.217 250.753 106.437 253.023C107.657 255.293 108.997 260.47 114.467 260.876C119.938 261.283 127.795 252.089 127.795 252.089Z" fill="white"></path>
  <path d="M111.646 244.216C111.646 244.216 110.616 237.103 112.25 235.401C113.884 233.698 123.118 249.489 126.294 250.584" fill="white"></path>
  <path d="M111.646 244.216C111.646 244.216 110.616 237.103 112.25 235.401C113.884 233.698 123.118 249.489 126.294 250.584" stroke="#2E186A" stroke-width="2" stroke-linecap="round" stroke-linejoin="round"></path>
  <path d="M106.743 245.464C106.743 245.464 104.545 240.271 107.455 237.76C110.365 235.248 117.542 249.457 120.694 251.296" fill="white"></path>
  <path d="M106.743 245.464C106.743 245.464 104.545 240.271 107.455 237.76C110.365 235.248 117.542 249.457 120.694 251.296" stroke="#2E186A" stroke-width="2" stroke-linecap="round" stroke-linejoin="round"></path>
  <path d="M105.44 251.425C105.44 251.425 101.721 242.123 104.313 240.154C106.905 238.186 111.107 250.25 116.147 253.035" fill="white"></path>
  <path d="M105.44 251.425C105.44 251.425 101.721 242.123 104.313 240.154C106.905 238.186 111.107 250.25 116.147 253.035" stroke="#2E186A" stroke-width="2" stroke-linecap="round" stroke-linejoin="round"></path>
  <path d="M125.637 250.229C126.052 248.225 125.846 246.141 125.045 244.256C124.132 242.103 123.033 239.172 122.936 237.301C122.755 234.04 128.088 235.57 128.31 237.594C128.531 239.619 129.545 239.502 131.88 241.563C134.215 243.624 133.788 251.844 133.788 251.844C133.788 251.844 135.841 256.058 129.223 261.101C122.606 266.145 115.538 262.22 115.538 262.22C115.538 262.22 102.75 257.495 102.754 248.281C102.758 239.068 106.147 252.5 112.547 256.279" fill="white"></path>
  <path d="M125.637 250.229C126.052 248.225 125.846 246.141 125.045 244.256C124.132 242.103 123.033 239.172 122.936 237.301C122.755 234.04 128.088 235.57 128.31 237.594C128.531 239.619 129.545 239.502 131.88 241.563C134.215 243.624 133.788 251.844 133.788 251.844C133.788 251.844 135.841 256.058 129.223 261.101C122.606 266.145 115.538 262.22 115.538 262.22C115.538 262.22 102.75 257.495 102.754 248.281C102.758 239.068 106.147 252.5 112.547 256.279" stroke="#2E186A" stroke-width="2" stroke-linecap="round" stroke-linejoin="round"></path>
  <path d="M56.4531 252.09C56.5135 251.917 65.3407 241.625 65.6386 241.842C65.9364 242.06 78.0361 247.477 78.3017 247.9C78.5674 248.323 79.0343 250.754 77.8107 253.024C76.587 255.294 75.2507 260.471 69.7805 260.877C64.3103 261.284 56.4531 252.09 56.4531 252.09Z" fill="white"></path>
  <path d="M72.6066 244.217C72.6066 244.217 73.633 237.104 72.0028 235.402C70.3726 233.699 61.1348 249.49 57.959 250.585" fill="white"></path>
  <path d="M72.6066 244.217C72.6066 244.217 73.633 237.104 72.0028 235.402C70.3726 233.699 61.1348 249.49 57.959 250.585" stroke="#2E186A" stroke-width="2" stroke-linecap="round" stroke-linejoin="round"></path>
  <path d="M77.5021 245.465C77.5021 245.465 79.7039 240.272 76.7897 237.761C73.8755 235.249 66.7026 249.454 63.5469 251.293" fill="white"></path>
  <path d="M77.5021 245.465C77.5021 245.465 79.7039 240.272 76.7897 237.761C73.8755 235.249 66.7026 249.454 63.5469 251.293" stroke="#2E186A" stroke-width="2" stroke-linecap="round" stroke-linejoin="round"></path>
  <path d="M78.8064 251.426C78.8064 251.426 82.5257 242.124 79.9375 240.155C77.3493 238.187 73.139 250.25 68.1035 253.036" fill="white"></path>
  <path d="M78.8064 251.426C78.8064 251.426 82.5257 242.124 79.9375 240.155C77.3493 238.187 73.139 250.25 68.1035 253.036" stroke="#2E186A" stroke-width="2" stroke-linecap="round" stroke-linejoin="round"></path>
  <path d="M58.6082 250.23C58.1952 248.225 58.4015 246.142 59.1999 244.257C60.1136 242.104 61.2124 239.173 61.309 237.302C61.4902 234.041 56.1609 235.571 55.9354 237.595C55.71 239.62 54.6997 239.503 52.3651 241.564C50.0305 243.625 50.4572 251.845 50.4572 251.845C50.4572 251.845 48.4044 256.059 55.0217 261.102C61.6391 266.146 68.7073 262.221 68.7073 262.221C68.7073 262.221 81.4993 257.496 81.4953 248.282C81.4912 239.069 78.098 252.501 71.698 256.28" fill="white"></path>
  <path d="M58.6082 250.23C58.1952 248.225 58.4015 246.142 59.1999 244.257C60.1136 242.104 61.2124 239.173 61.309 237.302C61.4902 234.041 56.1609 235.571 55.9354 237.595C55.71 239.62 54.6997 239.503 52.3651 241.564C50.0305 243.625 50.4572 251.845 50.4572 251.845C50.4572 251.845 48.4044 256.059 55.0217 261.102C61.6391 266.146 68.7073 262.221 68.7073 262.221C68.7073 262.221 81.4993 257.496 81.4953 248.282C81.4912 239.069 78.098 252.501 71.698 256.28" stroke="#2E186A" stroke-width="2" stroke-linecap="round" stroke-linejoin="round"></path>
  <path d="M318.339 223.688C318.428 205.096 291.314 198.704 291.314 198.704C293.356 189.467 292.42 166.655 253.777 173.632C233.985 177.057 228.386 187.448 232.593 195.872C224.893 199.691 205.676 227.238 205.676 227.238L206.037 250.914C204.571 250.608 203.079 250.451 201.581 250.444C195.739 250.421 190.126 252.718 185.977 256.832C181.829 260.946 179.483 266.539 179.457 272.381C179.406 284.55 190.261 295.435 202.429 295.486C203.869 295.493 205.306 295.343 206.714 295.04V295.489L282.552 295.293C298.815 295.25 312.075 282.238 311.012 266.011C310.714 261.475 310.311 256.674 309.765 251.813C314.163 241.727 318.309 230.447 318.339 223.688Z" fill="url(#paint1_linear_13927_12730)"></path>
  <path d="M274.283 187.377L281.294 191.261C281.294 191.261 263.054 199.137 259.759 235.509C257.618 259.141 259.32 296 259.32 296L247.264 295.813C247.264 295.813 250.514 222.731 245.259 210.839C240.004 198.946 245.8 198.197 248.455 195.726C251.11 193.255 274.283 187.377 274.283 187.377Z" fill="white"></path>
  <path d="M197.655 287.892C207.311 287.892 215.14 280.063 215.14 270.407C215.14 260.75 207.311 252.922 197.655 252.922C187.998 252.922 180.17 260.75 180.17 270.407C180.17 280.063 187.998 287.892 197.655 287.892Z" fill="#2E186A"></path>
  <path d="M261.448 287.099C269.856 287.099 276.672 280.283 276.672 271.874C276.672 263.466 269.856 256.649 261.448 256.649C253.039 256.649 246.223 263.466 246.223 271.874C246.223 280.283 253.039 287.099 261.448 287.099Z" fill="#2E186A"></path>
  <path d="M273.936 220.217C276.965 218.838 286.604 207.814 291.295 198.634C295.209 198.576 300.866 201.255 303.32 203.157C292.19 220.751 273.919 220.244 273.936 220.217Z" fill="#2E186A"></path>
  <path d="M271.812 251.814C271.812 251.814 285.254 246.198 295.251 261.872" stroke="#2E186A" stroke-width="2.04223" stroke-linecap="round" stroke-linejoin="round"></path>
  <path d="M270.85 252C270.85 252 281.445 241.251 295.894 254.768" stroke="#2E186A" stroke-width="2.04223" stroke-linecap="round" stroke-linejoin="round"></path>
  <path d="M309.289 252.919C309.289 252.919 296.318 299.21 262.291 289.465C262.291 289.465 256.246 287.957 253.359 284.019" stroke="#2E186A" stroke-width="2.04223" stroke-linecap="round" stroke-linejoin="round"></path>
  <path d="M267.037 257.725C269.647 254.315 271.916 250.657 273.811 246.803C277.16 240.121 281.486 229.386 281.486 229.386" stroke="#2E186A" stroke-width="2.04223" stroke-linecap="round" stroke-linejoin="round"></path>
  <path d="M274.83 172.632L274.309 188.762C274.336 189.821 274.122 190.873 273.684 191.838C273.245 192.802 272.593 193.655 271.777 194.331C268.652 196.931 262.927 202.06 255.735 210.178C255.735 210.178 246.763 200.624 245.248 185.706L274.83 172.632Z" fill="white" stroke="#2E186A" stroke-width="2.04223" stroke-linecap="round" stroke-linejoin="round"></path>
  <path d="M276.969 162.022C276.969 162.022 284.099 162.562 282.45 168.86C280.801 175.159 273.159 171.034 273.159 171.034L274.719 162.035L276.969 162.022Z" fill="white" stroke="#2E186A" stroke-width="2.04223" stroke-linecap="round" stroke-linejoin="round"></path>
  <path d="M257.813 140.799C255.945 140.538 243.134 139.016 241.127 149.655C239.121 160.294 239.958 172.225 240.857 177.701C241.756 183.177 266.493 182.052 267.919 181.649C269.344 181.246 271.087 179.704 271.087 179.704L275.386 163.434C275.386 163.434 277.879 143.604 257.813 140.799Z" fill="white" stroke="#2E186A" stroke-width="2.04223" stroke-linecap="round" stroke-linejoin="round"></path>
  <path d="M273.016 163.15C271.749 164.264 268.136 170.896 267.17 174.03C267.17 174.03 259.329 170.897 247.891 170.107C247.891 170.107 241.642 169.882 239.113 170.473C239.113 170.473 239.019 181.753 243.754 187.861C248.489 193.968 259.278 192.939 264.496 189.719C269.714 186.5 270.633 184.874 272.007 181.192C273.38 177.511 277.23 163.716 277.23 163.716L273.016 163.15Z" fill="#968BB4"></path>
  <path d="M276.139 165.738C276.139 165.738 279.772 160.749 281.365 155.444C282.861 150.453 280.808 145.019 276.242 142.492C272.433 140.373 269.443 141.697 269.443 141.697C269.443 141.697 273.997 134.851 268.095 128.246C267.066 127.096 265.813 126.168 264.414 125.517C263.014 124.866 261.497 124.507 259.954 124.461C257.822 124.361 255.708 124.886 253.87 125.97C252.032 127.055 250.55 128.653 249.607 130.567C249.607 130.567 242.289 115.12 225.069 123.052C223.323 123.851 221.291 126.241 220.286 127.869C214.192 137.737 231.708 150.816 241.143 152.3C251.492 153.933 257.678 152.55 261.174 150.192C258.596 151.537 260.532 167.265 276.139 165.738Z" fill="#2E186A"></path>
  <path d="M255.131 178.324C255.131 178.324 253.327 181.83 249.694 180.108" stroke="#2E186A" stroke-width="2.72298" stroke-linecap="round" stroke-linejoin="round"></path>
  <path d="M248.159 165.779L245.634 174.138L249.991 174.824" stroke="#2E186A" stroke-width="2.72298" stroke-linecap="round" stroke-linejoin="round"></path>
  <path d="M245.03 164.33C245.078 163.472 244.668 162.752 244.115 162.721C243.561 162.69 243.073 163.36 243.025 164.217C242.977 165.075 243.386 165.796 243.94 165.827C244.494 165.858 244.982 165.188 245.03 164.33Z" fill="#2E186A"></path>
  <path d="M254.706 164.701C254.754 163.843 254.344 163.123 253.79 163.092C253.237 163.061 252.749 163.731 252.701 164.589C252.652 165.446 253.062 166.167 253.616 166.198C254.169 166.229 254.657 165.559 254.706 164.701Z" fill="#2E186A"></path>
  <path d="M258.971 159.174C258.501 158.496 257.858 157.957 257.108 157.612C256.359 157.267 255.531 157.13 254.71 157.215" stroke="#2E186A" stroke-width="2.72298" stroke-linecap="round" stroke-linejoin="round"></path>
  <path d="M245.497 156.537C245.497 156.537 242.755 155.655 241.93 157.893" stroke="#2E186A" stroke-width="2.72298" stroke-linecap="round" stroke-linejoin="round"></path>
  <path d="M253.139 194.879L203.404 194.664C202.269 194.659 201.144 194.878 200.094 195.308C199.043 195.737 198.088 196.37 197.282 197.169C196.476 197.968 195.835 198.918 195.397 199.964C194.958 201.011 194.729 202.134 194.724 203.269L194.673 214.991C189.016 215.034 183.603 217.305 179.61 221.312C175.616 225.319 173.362 230.739 173.338 236.397C173.314 242.054 175.521 247.493 179.48 251.534C183.44 255.575 188.833 257.892 194.489 257.984L194.455 265.741C194.449 268.03 195.352 270.228 196.965 271.853C198.579 273.477 200.771 274.394 203.06 274.403L252.795 274.618C253.93 274.623 255.054 274.404 256.104 273.974C257.154 273.545 258.109 272.913 258.915 272.114C259.72 271.315 260.361 270.366 260.799 269.319C261.238 268.273 261.466 267.151 261.471 266.016L261.74 203.544C261.747 201.255 260.846 199.056 259.233 197.432C257.62 195.807 255.428 194.888 253.139 194.879Z" fill="#FEBA91"></path>
  <path d="M190.963 270.087C191.011 269.938 198.478 261.217 198.73 261.422C198.982 261.626 209.21 266.187 209.435 266.544C209.66 266.902 210.054 268.954 209.023 270.874C207.992 272.793 206.858 277.174 202.216 277.518C197.573 277.861 190.963 270.087 190.963 270.087Z" fill="white"></path>
  <path d="M204.621 263.427C204.621 263.427 205.493 257.416 204.104 255.989C202.715 254.563 194.914 267.902 192.229 268.828" fill="white"></path>
  <path d="M204.621 263.427C204.621 263.427 205.493 257.416 204.104 255.989C202.715 254.563 194.914 267.902 192.229 268.828" stroke="#2E186A" stroke-width="2" stroke-linecap="round" stroke-linejoin="round"></path>
  <path d="M208.763 264.482C208.763 264.482 210.624 260.088 208.164 257.964C205.703 255.84 199.634 267.855 196.969 269.41" fill="white"></path>
  <path d="M208.763 264.482C208.763 264.482 210.624 260.088 208.164 257.964C205.703 255.84 199.634 267.855 196.969 269.41" stroke="#2E186A" stroke-width="2" stroke-linecap="round" stroke-linejoin="round"></path>
  <path d="M209.872 269.526C209.872 269.526 213.017 261.66 210.825 259.996C208.633 258.332 205.08 268.536 200.818 270.888" fill="white"></path>
  <path d="M209.872 269.526C209.872 269.526 213.017 261.66 210.825 259.996C208.633 258.332 205.08 268.536 200.818 270.888" stroke="#2E186A" stroke-width="2" stroke-linecap="round" stroke-linejoin="round"></path>
  <path d="M192.803 268.515C192.452 266.82 192.627 265.057 193.304 263.464C194.076 261.639 195.005 259.165 195.087 257.579C195.24 254.822 190.73 256.119 190.543 257.827C190.356 259.536 189.498 259.444 187.521 261.183C185.543 262.923 185.911 269.877 185.911 269.877C185.911 269.877 184.175 273.44 189.771 277.705C195.366 281.97 201.343 278.651 201.343 278.651C201.343 278.651 212.17 274.659 212.167 266.868C212.164 259.076 209.298 270.435 203.886 273.634" fill="white"></path>
  <path d="M192.803 268.515C192.452 266.82 192.627 265.057 193.304 263.464C194.076 261.639 195.005 259.165 195.087 257.579C195.24 254.822 190.73 256.119 190.543 257.827C190.356 259.536 189.498 259.444 187.521 261.183C185.543 262.923 185.911 269.877 185.911 269.877C185.911 269.877 184.175 273.44 189.771 277.705C195.366 281.97 201.343 278.651 201.343 278.651C201.343 278.651 212.17 274.659 212.167 266.868C212.164 259.076 209.298 270.435 203.886 273.634" stroke="#2E186A" stroke-width="2" stroke-linecap="round" stroke-linejoin="round"></path>
  <path d="M260.809 271.084C260.762 270.935 253.297 262.214 253.042 262.419C252.787 262.623 242.562 267.184 242.337 267.524C242.113 267.865 241.718 269.934 242.749 271.854C243.781 273.773 244.917 278.154 249.557 278.498C254.196 278.842 260.809 271.084 260.809 271.084Z" fill="white"></path>
  <path d="M247.149 264.424C247.149 264.424 246.277 258.413 247.666 256.986C249.055 255.56 256.856 268.9 259.542 269.825" fill="white"></path>
  <path d="M247.149 264.424C247.149 264.424 246.277 258.413 247.666 256.986C249.055 255.56 256.856 268.9 259.542 269.825" stroke="#2E186A" stroke-width="2" stroke-linecap="round" stroke-linejoin="round"></path>
  <path d="M243.006 265.479C243.006 265.479 241.144 261.085 243.609 258.961C246.073 256.837 252.118 268.852 254.804 270.408" fill="white"></path>
  <path d="M243.006 265.479C243.006 265.479 241.144 261.085 243.609 258.961C246.073 256.837 252.118 268.852 254.804 270.408" stroke="#2E186A" stroke-width="2" stroke-linecap="round" stroke-linejoin="round"></path>
  <path d="M241.901 270.524C241.901 270.524 238.756 262.658 240.948 260.993C243.14 259.329 246.697 269.53 250.955 271.885" fill="white"></path>
  <path d="M241.901 270.524C241.901 270.524 238.756 262.658 240.948 260.993C243.14 259.329 246.697 269.53 250.955 271.885" stroke="#2E186A" stroke-width="2" stroke-linecap="round" stroke-linejoin="round"></path>
  <path d="M258.983 269.512C259.334 267.817 259.159 266.055 258.483 264.461C257.713 262.637 256.781 260.162 256.699 258.58C256.546 255.819 261.056 257.116 261.246 258.825C261.437 260.533 262.288 260.441 264.265 262.184C266.243 263.927 265.875 270.877 265.875 270.877C265.875 270.877 267.611 274.441 262.016 278.706C256.42 282.971 250.443 279.655 250.443 279.655C250.443 279.655 239.616 275.66 239.619 267.868C239.623 260.077 242.488 271.435 247.9 274.635" fill="white"></path>
  <path d="M258.983 269.512C259.334 267.817 259.159 266.055 258.483 264.461C257.713 262.637 256.781 260.162 256.699 258.58C256.546 255.819 261.056 257.116 261.246 258.825C261.437 260.533 262.288 260.441 264.265 262.184C266.243 263.927 265.875 270.877 265.875 270.877C265.875 270.877 267.611 274.441 262.016 278.706C256.42 282.971 250.443 279.655 250.443 279.655C250.443 279.655 239.616 275.66 239.619 267.868C239.623 260.077 242.488 271.435 247.9 274.635" stroke="#2E186A" stroke-width="2" stroke-linecap="round" stroke-linejoin="round"></path>
  <defs>
    <radialGradient id="paint0_radial_13927_12730" cx="0" cy="0" r="1" gradientUnits="userSpaceOnUse" gradientTransform="translate(160 160) rotate(90) scale(160)">
      <stop stop-color="#FEBA91"></stop>
      <stop offset="1" stop-color="white" stop-opacity="0"></stop>
    </radialGradient>
    <linearGradient id="paint1_linear_13927_12730" x1="248.898" y1="172.326" x2="248.898" y2="295.489" gradientUnits="userSpaceOnUse">
      <stop offset="0.415" stop-color="#FE7624"></stop>
      <stop offset="1" stop-color="#6A24FE"></stop>
    </linearGradient>
  </defs>
</svg>
