<?xml version="1.0" encoding="UTF-8"?>
<svg xmlns="http://www.w3.org/2000/svg" width="320" height="320" viewBox="0 0 320 320" fill="none">
  <rect width="320" height="320" fill="url(#paint0_radial_13976_19571)" fill-opacity="0.6"></rect>
  <path d="M104.592 195.33C101.653 193.757 99.1605 194.514 96.3931 197.428C97.6577 190.351 97.6149 181.768 92.0037 180.323C86.2245 178.829 82.9501 182.427 79.5626 191.124C79.6909 183.661 78.2155 174.037 72.0362 173.646C65.0871 173.206 62.7901 178.921 61.0643 191.597C58.9047 184.507 52.9392 172.091 45.929 174.553C39.0563 176.963 39.4992 183.588 43.3174 197.095C39.5511 191.264 32.0155 182.595 26.9725 185.891C22.1738 189.019 23.4873 194.117 28.8052 203.589C25.2955 202.062 21.6454 201.912 18.7252 204.796C12.1702 211.271 15.3225 217.405 24.4189 228.789C33.5153 240.173 98.8581 220.035 101.959 214.885C105.059 209.735 109.931 198.183 104.592 195.33Z" fill="white" stroke="#FE7624" stroke-width="1.83272" stroke-linecap="round" stroke-linejoin="round"></path>
  <path d="M105.104 214.671L105.156 214.503L17.2887 214.775L17.3437 214.943C15.0392 215.392 12.9982 216.716 11.6491 218.638C10.2999 220.559 9.7474 222.929 10.1075 225.249L16.6839 267.639L105.761 267.367L112.34 224.977C112.699 222.657 112.146 220.288 110.797 218.367C109.448 216.445 107.408 215.121 105.104 214.671Z" fill="#FEBA92"></path>
  <path d="M249.038 199.389C247.674 199.389 246.311 199.469 244.957 199.627C237.663 189.547 229.29 180.995 220.493 175.564C197.584 161.455 166.122 165.484 136.759 176.355C116.577 183.823 90.9955 207.868 74.5926 224.922C53.2108 226.528 36.7743 241.083 37.7609 257.733C37.9781 261.31 38.9792 264.795 40.6933 267.941L112.457 268.418C112.582 268.226 112.701 268.027 112.82 267.831L219.256 267.465C219.372 267.627 219.491 267.77 219.61 267.941L278.538 267.841C283.994 260.611 287.271 251.346 287.271 241.23C287.262 218.119 270.145 199.389 249.038 199.389Z" fill="#5D21D1"></path>
  <path d="M222.58 176.921C195.498 193.705 171.147 194.075 155.407 191.375C140.8 188.87 130.281 183.235 126.838 181.044C126.254 181.374 125.668 181.712 125.082 182.059C127.889 183.992 138.885 190.339 154.769 193.122C159.941 194.03 165.182 194.487 170.433 194.487C175.8 194.484 181.157 194.011 186.441 193.073C199.271 190.795 211.987 185.742 224.205 178.06C223.655 177.669 223.113 177.289 222.58 176.921Z" fill="white"></path>
  <path d="M219.772 205.814C224.079 199.766 229.406 196.366 235.61 195.706C237.858 195.466 240.13 195.607 242.33 196.125C241.758 195.386 241.18 194.658 240.595 193.941C238.911 193.723 237.208 193.701 235.519 193.874C230.854 194.35 224.079 196.623 218.291 204.751C218.151 204.949 218.095 205.195 218.135 205.434C218.176 205.674 218.31 205.887 218.508 206.028C218.663 206.139 218.849 206.198 219.039 206.199C219.183 206.197 219.325 206.161 219.452 206.094C219.579 206.027 219.689 205.931 219.772 205.814Z" fill="white"></path>
  <path d="M220.101 227.28H220.119C220.36 227.28 220.59 227.186 220.762 227.017C220.933 226.849 221.032 226.62 221.036 226.379C221.087 223.685 222.175 217.591 225.923 211.846C230.273 205.172 236.672 201.057 244.934 199.6C244.534 199.051 244.131 198.501 243.712 197.957C235.465 199.637 228.791 204.066 224.377 210.844C220.666 216.541 219.267 222.757 219.185 226.346C219.182 226.468 219.204 226.589 219.249 226.702C219.294 226.815 219.361 226.918 219.446 227.006C219.532 227.093 219.634 227.162 219.746 227.209C219.858 227.256 219.979 227.28 220.101 227.28Z" fill="white"></path>
  <path d="M90.6828 218.249C87.215 218.105 83.7422 218.371 80.3371 219.043C79.4146 219.968 78.5115 220.884 77.6277 221.792C81.0152 219.932 100.32 217.614 108.292 226.679C108.379 226.776 108.485 226.853 108.603 226.906C108.722 226.959 108.85 226.986 108.98 226.985C109.204 226.986 109.422 226.905 109.59 226.756C109.773 226.595 109.883 226.369 109.899 226.127C109.914 225.885 109.833 225.646 109.673 225.464C104.538 219.62 95.5701 218.438 90.6828 218.249Z" fill="white"></path>
  <path d="M106.391 231.367C95.5967 223.224 82.172 222.738 76.4783 222.955L74.5845 224.913C77.8467 224.647 93.4768 223.917 105.286 232.83C105.48 232.977 105.724 233.04 105.965 233.007C106.206 232.973 106.424 232.846 106.57 232.652C106.717 232.458 106.78 232.213 106.747 231.972C106.713 231.731 106.585 231.514 106.391 231.367Z" fill="white"></path>
  <path d="M59.8198 267.639C59.8198 267.639 69.8296 238.01 98.023 243.389C126.216 248.768 164.783 260.323 164.783 260.323V267.749L59.8198 267.639Z" fill="white" stroke="#2E186A" stroke-width="1.83272" stroke-linecap="round" stroke-linejoin="round"></path>
  <path d="M282.42 158.215C281.733 157.834 281.144 157.297 280.701 156.648C280.258 155.999 279.974 155.255 279.87 154.476C279.564 151.855 281.324 140.566 284.146 138.99C286.968 137.413 299.895 130.403 302.281 130.565C304.666 130.727 305.671 151.458 282.42 158.215Z" fill="white"></path>
  <path d="M283.79 140.251C288.616 123.357 292.569 119.584 294.845 121.228C296.906 122.718 292.706 133.482 291.485 139.069" fill="white"></path>
  <path d="M283.79 140.251C288.616 123.357 292.569 119.584 294.845 121.228C296.906 122.718 292.706 133.482 291.485 139.069" stroke="#2E186A" stroke-width="1.83272" stroke-linecap="round" stroke-linejoin="round"></path>
  <path d="M305.089 136.57C307.508 132.642 311.504 132.837 309.418 139.533C307.383 146.06 305.874 154.573 302.056 158.419C298.238 162.265 296.863 163.987 296.863 163.987C296.863 163.987 289.227 192.486 284.893 216.18C278.619 250.445 266.788 257.037 255.728 253.112C244.667 249.187 242.624 233.697 257.729 203.589C272.833 173.481 280.796 155.939 280.796 155.939" fill="white"></path>
  <path d="M305.089 136.57C307.509 132.642 311.504 132.837 309.418 139.533C307.383 146.06 305.874 154.573 302.056 158.419C298.238 162.265 296.863 163.987 296.863 163.987C296.863 163.987 289.227 192.486 284.893 216.18C278.619 250.445 266.788 257.037 255.728 253.112C244.667 249.187 242.624 233.697 257.729 203.589C272.833 173.481 280.796 155.939 280.796 155.939" stroke="#2E186A" stroke-width="1.83272" stroke-linecap="round" stroke-linejoin="round"></path>
  <path d="M281.051 156.48C278.861 154.999 279.124 146.382 276.665 142.628C273.61 137.948 270.623 133.098 276.277 133.825C281.125 134.451 282.667 138.712 283.791 140.239" fill="white"></path>
  <path d="M281.051 156.48C278.861 154.999 279.124 146.382 276.665 142.628C273.61 137.948 270.623 133.098 276.277 133.825C281.125 134.451 282.667 138.712 283.791 140.239" stroke="#2E186A" stroke-width="1.83272" stroke-linecap="round" stroke-linejoin="round"></path>
  <path d="M302.264 143.736C302.264 143.736 306.559 133.274 308.001 128.436C309.58 123.139 304.03 122.394 301.354 129.978" fill="white"></path>
  <path d="M302.264 143.736C302.264 143.736 306.559 133.274 308.001 128.436C309.58 123.139 304.03 122.394 301.354 129.978" stroke="#2E186A" stroke-width="1.83272" stroke-linecap="round" stroke-linejoin="round"></path>
  <path d="M297.223 140.99C297.223 140.99 305.678 121.832 301.896 120.128C298.448 118.573 295.818 125.562 291.477 139.066" fill="white"></path>
  <path d="M297.223 140.99C297.223 140.99 305.678 121.832 301.896 120.128C298.448 118.573 295.818 125.562 291.477 139.066" stroke="#2E186A" stroke-width="1.83272" stroke-linecap="round" stroke-linejoin="round"></path>
  <path d="M158.933 154.9L160.118 176.501C160.118 176.501 158.111 188.157 174.303 185.998C190.431 183.844 188.452 174.296 188.452 174.296L183.461 147.462L158.933 154.9Z" fill="white" stroke="#2E186A" stroke-width="1.83272" stroke-linecap="round" stroke-linejoin="round"></path>
  <path d="M189.658 120.249C189.658 120.249 202.182 115.552 202.671 128.594C203.159 141.637 189.658 138.259 189.658 138.259" fill="white"></path>
  <path d="M189.658 120.249C189.658 120.249 202.182 115.552 202.671 128.594C203.159 141.637 189.658 138.259 189.658 138.259" stroke="#2E186A" stroke-width="1.83272" stroke-linecap="round" stroke-linejoin="round"></path>
  <path d="M157.346 99.7383H178.843C182.003 99.7383 185.033 100.993 187.267 103.227C189.501 105.461 190.756 108.491 190.756 111.651V136.893C190.756 143.41 188.167 149.66 183.56 154.267C178.952 158.875 172.702 161.464 166.185 161.464C162.959 161.464 159.764 160.828 156.783 159.594C153.802 158.359 151.093 156.549 148.811 154.267C146.53 151.986 144.72 149.277 143.485 146.296C142.25 143.315 141.615 140.12 141.615 136.893V115.466C141.615 111.295 143.272 107.294 146.221 104.345C149.171 101.395 153.171 99.7383 157.342 99.7383H157.346Z" fill="white" stroke="#2E186A" stroke-width="1.83272" stroke-linecap="round" stroke-linejoin="round"></path>
  <path d="M196.473 148.541C196.48 143.192 195.979 137.855 194.976 132.602C194.976 132.501 194.976 132.394 194.976 132.297C194.972 131.374 194.604 130.491 193.952 129.839C193.3 129.187 192.416 128.818 191.494 128.814V132.297L191.586 135.779C192.292 135.757 192.975 135.521 193.543 135.101C194.671 142.126 196.903 163.074 187.505 180.882C185.779 184.147 184.16 187.165 182.596 190.082C173.738 206.613 167.873 217.533 168.011 227.286C168.011 227.529 168.107 227.762 168.279 227.934C168.451 228.106 168.684 228.202 168.927 228.202C169.17 228.202 169.403 228.106 169.575 227.934C169.747 227.762 169.843 227.529 169.843 227.286C169.712 218.009 175.482 207.254 184.2 190.974C185.767 188.057 187.386 185.036 189.111 181.764C195.282 170.081 196.519 157.252 196.473 148.541Z" fill="#FE7624"></path>
  <path d="M139.225 136.145C139.655 136.387 140.131 136.534 140.621 136.576V129.648C139.845 129.719 139.114 130.049 138.547 130.584C137.98 131.12 137.609 131.831 137.494 132.602C137.392 132.753 137.338 132.931 137.338 133.112C137.338 134.505 137.338 167.414 147.112 182.262C157.107 197.474 160.198 206.137 160.885 220.887C160.896 221.122 160.998 221.345 161.168 221.507C161.339 221.67 161.566 221.761 161.802 221.76H161.844C162.087 221.749 162.315 221.642 162.479 221.463C162.643 221.284 162.729 221.047 162.718 220.804C162.012 205.666 158.857 196.796 148.649 181.261C140.863 169.427 139.473 144.741 139.225 136.145Z" fill="#FE7624"></path>
  <path d="M158.669 122.155L158.993 141.964C158.993 141.964 160.453 144.071 162.802 139.777" stroke="#2E186A" stroke-width="1.83272" stroke-linecap="round" stroke-linejoin="round"></path>
  <path d="M158.669 146.176C160.453 148.263 164.644 147.921 168.798 145.205C168.798 145.205 170.417 150.511 162.356 151.314" stroke="#2E186A" stroke-width="1.83272" stroke-linecap="round" stroke-linejoin="round"></path>
  <path d="M166.466 115.775C166.71 115.714 169.322 111.948 173.333 115.164" stroke="#2E186A" stroke-width="1.83272" stroke-linecap="round" stroke-linejoin="round"></path>
  <path d="M173.334 130.338C174.173 130.338 174.853 129.287 174.853 127.99C174.853 126.692 174.173 125.641 173.334 125.641C172.496 125.641 171.816 126.692 171.816 127.99C171.816 129.287 172.496 130.338 173.334 130.338Z" fill="#2E186A"></path>
  <path d="M151.127 130.944C151.966 130.944 152.645 129.892 152.645 128.595C152.645 127.298 151.966 126.246 151.127 126.246C150.289 126.246 149.609 127.298 149.609 128.595C149.609 129.892 150.289 130.944 151.127 130.944Z" fill="#2E186A"></path>
  <path d="M146.273 115.601C146.517 115.549 149.825 111.019 153.158 115.295" stroke="#2E186A" stroke-width="1.83272" stroke-linecap="round" stroke-linejoin="round"></path>
  <path d="M172.308 94.399C166.361 94.4754 161.846 94.7747 159.14 95.2695C137.279 100.242 140.813 116.443 140.813 116.443C140.813 116.443 151.504 118.481 160.206 105.597C160.206 105.597 172.159 115.35 189.835 119.278C190.119 119.211 190.446 119.122 190.752 119.025V119.919C192.208 119.533 193.716 119.375 195.22 119.452C195.025 113.065 193.883 105.017 188.62 99.8208C184.896 96.1309 179.398 94.3043 172.308 94.399Z" fill="#2E186A"></path>
  <path d="M196.144 117.895C195.447 109.837 193.523 93.6631 173.336 93.4584C168.803 93.4127 164.273 93.6637 159.773 94.2098" stroke="white" stroke-width="1.83272" stroke-linecap="round" stroke-linejoin="round"></path>
  <path d="M229.697 81.1C222.161 59.5382 200.761 47.4087 181.908 54.0034C166.413 59.4221 157.472 75.8066 158.95 93.4403C161.788 92.9393 166.263 92.6431 172.284 92.5667C179.88 92.4689 185.809 94.4697 189.911 98.5169C195.715 104.256 196.894 112.98 197.065 119.755C199.872 120.516 202.456 122.809 202.673 128.595C202.695 129.181 202.181 133.665 202.307 133.65C202.287 135.42 202.768 137.16 203.693 138.669C205.795 142.059 210.081 144.167 216.437 144.906H216.544C216.787 144.92 217.026 144.837 217.208 144.675C217.389 144.513 217.5 144.286 217.514 144.043C217.528 143.8 217.445 143.561 217.283 143.379C217.121 143.197 216.894 143.087 216.651 143.073C210.893 142.395 207.063 140.593 205.267 137.712C204.632 136.683 204.255 135.516 204.17 134.31C205.74 136.142 208.446 138.119 212.759 138.119C213.896 138.112 215.029 137.989 216.141 137.749C216.262 137.729 216.379 137.684 216.483 137.618C216.587 137.551 216.676 137.465 216.746 137.363C216.815 137.261 216.864 137.146 216.888 137.025C216.912 136.904 216.912 136.78 216.887 136.659C216.861 136.538 216.812 136.424 216.742 136.322C216.671 136.221 216.581 136.135 216.477 136.069C216.372 136.004 216.256 135.96 216.134 135.94C216.012 135.921 215.888 135.926 215.768 135.956C210.212 137.111 207.108 134.994 205.511 133.106C206.763 132.832 207.997 132.482 209.207 132.059C228.06 125.479 237.232 102.659 229.697 81.1Z" fill="#2E186A"></path>
  <path d="M174.673 139.774C180.847 139.774 185.852 134.769 185.852 128.595C185.852 122.42 180.847 117.415 174.673 117.415C168.498 117.415 163.493 122.42 163.493 128.595C163.493 134.769 168.498 139.774 174.673 139.774Z" stroke="#2E186A" stroke-width="1.83272" stroke-linecap="round" stroke-linejoin="round"></path>
  <path d="M155.956 128.292H163.251" stroke="#2E186A" stroke-width="1.83272" stroke-linecap="round" stroke-linejoin="round"></path>
  <path d="M184.448 123.167L190.755 119.603" stroke="#2E186A" stroke-width="1.83272" stroke-linecap="round" stroke-linejoin="round"></path>
  <path d="M144.412 139.774C150.587 139.774 155.592 134.769 155.592 128.595C155.592 122.42 150.587 117.415 144.412 117.415C138.238 117.415 133.233 122.42 133.233 128.595C133.233 134.769 138.238 139.774 144.412 139.774Z" stroke="#2E186A" stroke-width="1.83272" stroke-linecap="round" stroke-linejoin="round"></path>
  <path d="M221.287 256.213H214.936L211.815 210.007C211.688 208.423 210.975 206.942 209.814 205.855C208.654 204.769 207.13 204.153 205.541 204.13H117.023C116.266 204.12 115.515 204.267 114.819 204.564C114.123 204.861 113.497 205.301 112.98 205.854C112.464 206.408 112.07 207.063 111.822 207.779C111.575 208.494 111.479 209.253 111.543 210.007L114.998 261.161C115.124 262.746 115.837 264.227 116.997 265.314C118.158 266.401 119.682 267.016 121.272 267.038L221.287 266.91C221.722 266.91 222.152 266.824 222.554 266.658C222.956 266.491 223.321 266.248 223.628 265.94C223.936 265.633 224.179 265.268 224.346 264.866C224.512 264.464 224.598 264.034 224.598 263.599V259.524C224.598 259.089 224.512 258.659 224.346 258.257C224.179 257.855 223.936 257.49 223.628 257.183C223.321 256.875 222.956 256.631 222.554 256.465C222.152 256.299 221.722 256.213 221.287 256.213Z" fill="#FE7624"></path>
  <path d="M167.543 234.684C166.274 233.369 164.629 232.478 162.833 232.134C163.124 231.716 163.301 231.23 163.347 230.723C163.417 229.928 163.185 229.136 162.698 228.504C162.211 227.872 161.503 227.448 160.717 227.314C160.683 227.314 160.646 227.314 160.613 227.314C160.271 226.052 159.626 223.988 158.887 223.105C158.751 222.94 158.564 222.826 158.356 222.781C158.148 222.735 157.93 222.761 157.738 222.854C157.655 222.901 157.583 222.967 157.53 223.047C157.477 223.127 157.443 223.218 157.431 223.313C157.42 223.408 157.431 223.505 157.463 223.595C157.496 223.685 157.549 223.766 157.619 223.832C158.105 224.412 158.697 226.22 159.067 227.598C158.643 227.823 158.284 228.153 158.022 228.555C157.76 228.957 157.605 229.419 157.57 229.898C157.535 230.346 157.593 230.797 157.743 231.221C157.892 231.645 158.129 232.033 158.438 232.36C157.895 232.532 157.375 232.769 156.889 233.066C153.706 235.042 153.315 238.976 156.016 241.85C158.716 244.725 163.487 245.455 166.67 243.478C169.853 241.502 170.247 237.559 167.543 234.684Z" fill="white"></path>
  <path d="M166.203 222.955C166.203 222.955 161.621 222.039 161.01 225.854C161.023 225.86 164.624 227.152 166.203 222.955Z" fill="white"></path>
  <defs>
    <radialGradient id="paint0_radial_13976_19571" cx="0" cy="0" r="1" gradientUnits="userSpaceOnUse" gradientTransform="translate(160 160) rotate(90) scale(160)">
      <stop stop-color="#FEBA91"></stop>
      <stop offset="1" stop-color="white" stop-opacity="0"></stop>
    </radialGradient>
  </defs>
</svg>
