<?xml version="1.0" encoding="UTF-8"?>
<svg xmlns="http://www.w3.org/2000/svg" width="120" height="120" viewBox="0 0 120 120" fill="none">
  <path d="M102.85 40.1819C101.385 42.6636 99.1661 44.6129 96.5164 45.746C93.8666 46.8791 90.9243 47.1368 88.1179 46.4817C85.3115 45.8266 82.7874 44.2928 80.9132 42.1037C79.0389 39.9145 77.9123 37.1843 77.6974 34.3104C77.4825 31.4366 78.1905 28.5691 79.7183 26.1256C81.2461 23.682 83.514 21.7899 86.1918 20.7247C88.8696 19.6594 91.8174 19.4767 94.6063 20.2031C97.3951 20.9295 99.8793 22.5271 101.697 24.7633L108.398 19.6473C106.343 17.054 103.728 14.9594 100.749 13.5207C97.7692 12.082 94.5027 11.3364 91.1941 11.3399C79.0641 11.3399 69.2305 21.1722 69.2305 33.2963C69.2305 45.4203 79.0689 55.2587 91.1941 55.2587C95.3028 55.2593 99.3294 54.1074 102.816 51.9339C106.303 49.7604 109.11 46.6524 110.919 42.9631L102.85 40.1819Z" fill="#5D21D1"></path>
  <path d="M112.445 41.2249C114.018 38.1392 114.702 34.6769 114.42 31.225C114.138 27.7731 112.902 24.4675 110.85 21.6777L104.194 25.8087C105.585 27.4868 106.439 29.5443 106.646 31.7141C106.852 33.8838 106.401 36.0655 105.352 37.9759L112.445 41.2249Z" fill="#FEBA91"></path>
  <path d="M91.1938 46.8384C93.4704 46.8414 95.7106 46.2672 97.7051 45.1694L98.359 32.2176L86.0634 31.9608L86.5301 30.941L78.0811 29.9355C77.5694 31.9351 77.5214 34.0251 77.9408 36.046C78.3601 38.0669 79.2358 39.9652 80.5009 41.5959C81.766 43.2267 83.3871 44.5468 85.2403 45.4554C87.0935 46.364 89.1298 46.837 91.1938 46.8384Z" fill="#FE7624"></path>
  <path d="M69.798 28.324L57.6296 24.1055L53.4219 31.4243L69.7656 38.1348C69.0413 34.9038 69.0524 31.5513 69.798 28.3252V28.324Z" fill="#FE7624"></path>
  <path d="M62.1518 22.2285C62.1518 22.2285 64.741 22.2717 64.5514 21.2171C64.3618 20.1625 62.0954 21.0431 59.4894 19.6034C57.4342 18.4696 51.0308 19.1235 51.4268 24.1626C51.7687 28.5083 56.4167 32.6344 56.4167 32.6344L64.8802 31.4574C64.8802 31.4574 58.8055 25.9551 60.2009 25.1333C61.5963 24.3114 62.1518 22.2285 62.1518 22.2285Z" fill="white" stroke="#2E186A" stroke-width="0.719882" stroke-linecap="round" stroke-linejoin="round"></path>
  <path d="M66.9534 23.3027H12V35.8227H66.9534V23.3027Z" fill="#FEBA91"></path>
  <path d="M18.4006 33.1547C20.3838 33.1547 21.9916 31.5469 21.9916 29.5637C21.9916 27.5804 20.3838 25.9727 18.4006 25.9727C16.4173 25.9727 14.8096 27.5804 14.8096 29.5637C14.8096 31.5469 16.4173 33.1547 18.4006 33.1547Z" fill="white"></path>
  <path d="M26.9883 26.9453H61.6794" stroke="white" stroke-width="0.719882" stroke-linecap="round" stroke-linejoin="round"></path>
  <path d="M26.9883 28.8613H61.6794" stroke="white" stroke-width="0.719882" stroke-linecap="round" stroke-linejoin="round"></path>
  <path d="M26.9883 30.7793H61.6794" stroke="white" stroke-width="0.719882" stroke-linecap="round" stroke-linejoin="round"></path>
  <path d="M26.9883 32.6973H41.4555" stroke="white" stroke-width="0.719882" stroke-linecap="round" stroke-linejoin="round"></path>
  <path d="M59.6021 19.6543C61.5374 20.4162 63.7834 22.8518 63.961 23.3305C64.1385 23.8092 63.5806 24.5903 62.8055 23.8992C62.0305 23.2081 60.6459 21.6832 60.6459 21.6832C61.5614 23.0161 62.628 24.7283 62.6316 25.099C62.6316 25.6665 61.6465 25.8957 61.0514 24.9718L59.2577 22.4042C59.2577 22.4042 60.983 25.4865 61.073 25.9437C61.163 26.4008 60.1132 27.1027 59.1533 25.1302C58.1935 23.1577 57.9859 23.1265 57.9859 23.1265C57.9859 23.1265 59.0406 25.5909 59.1365 26.1368C59.2325 26.6827 57.3788 26.8207 56.6913 24.2711C56.6913 24.2711 55.3716 25.2418 54.2773 23.4073" fill="white"></path>
  <path d="M59.6021 19.6543C61.5374 20.4162 63.7834 22.8518 63.961 23.3305C64.1385 23.8092 63.5806 24.5903 62.8055 23.8992C62.0305 23.2081 60.6459 21.6832 60.6459 21.6832C61.5614 23.0161 62.628 24.7283 62.6316 25.099C62.6316 25.6665 61.6465 25.8957 61.0514 24.9718L59.2577 22.4042C59.2577 22.4042 60.983 25.4865 61.073 25.9437C61.163 26.4008 60.1132 27.1027 59.1533 25.1302C58.1935 23.1577 57.9859 23.1265 57.9859 23.1265C57.9859 23.1265 59.0406 25.5909 59.1365 26.1368C59.2325 26.6827 57.3788 26.8207 56.6913 24.2711C56.6913 24.2711 55.3716 25.2418 54.2773 23.4073" stroke="#2E186A" stroke-width="0.719882" stroke-linecap="round" stroke-linejoin="round"></path>
  <path d="M86.4639 71.1934V109.891" stroke="#FE7624" stroke-width="0.719882" stroke-linecap="round" stroke-linejoin="round" stroke-dasharray="1.44 1.44"></path>
  <path d="M68.1924 91.4043V109.891" stroke="#FE7624" stroke-width="0.719882" stroke-linecap="round" stroke-linejoin="round" stroke-dasharray="1.44 1.44"></path>
  <path d="M53.0059 102.223V109.891" stroke="#FE7624" stroke-width="0.719882" stroke-linecap="round" stroke-linejoin="round" stroke-dasharray="1.44 1.44"></path>
  <path d="M107.379 63.1406V109.891" stroke="#FE7624" stroke-width="0.719882" stroke-linecap="round" stroke-linejoin="round" stroke-dasharray="1.44 1.44"></path>
  <path opacity="0.41" d="M111.465 62.5898C77.6386 65.8425 76.5192 88.5548 68.5765 91.4043C60.6338 94.2539 60.7634 98.4304 53.9545 101.105C49.7408 102.76 45.2451 110.144 42.668 109.722L42.9823 110H111.591L111.465 62.5898Z" fill="#FEBA91"></path>
  <path d="M93.7762 66.6653C93.8566 66.6977 92.8572 64.3796 91.5482 63.9213C90.2392 63.463 91.7306 61.9356 93.2063 62.9027C94.6821 63.8697 94.9796 64.9543 94.9796 64.9543" fill="white"></path>
  <path d="M93.7762 66.6653C93.8566 66.6977 92.8572 64.3796 91.5482 63.9213C90.2392 63.463 91.7306 61.9356 93.2063 62.9027C94.6821 63.8697 94.9796 64.9543 94.9796 64.9543" stroke="#2E186A" stroke-width="0.719882" stroke-linecap="round" stroke-linejoin="round"></path>
  <path d="M94.8279 62.8338C93.988 63.5129 92.7618 64.865 92.8722 65.9437C93.0294 67.5034 94.5519 68.9972 97.9486 69.008C103.498 69.0248 103.027 61.502 103.027 61.502L103.035 57.2715L96.2436 58.2565L96.0505 62.8338" fill="white"></path>
  <path d="M94.8279 62.8338C93.988 63.5129 92.7618 64.865 92.8722 65.9437C93.0294 67.5034 94.5519 68.9972 97.9486 69.008C103.498 69.0248 103.027 61.502 103.027 61.502L103.035 57.2715L96.2436 58.2565L96.0505 62.8338" stroke="#2E186A" stroke-width="0.719882" stroke-linecap="round" stroke-linejoin="round"></path>
  <path d="M43.1094 109.72C45.6854 110.142 49.7407 102.761 53.9544 101.103C60.7633 98.4284 60.6337 94.2519 68.5764 91.4024C76.5191 88.5528 77.6385 65.8406 111.465 62.5879" stroke="#FE7624" stroke-width="0.719882" stroke-linecap="round" stroke-linejoin="round"></path>
  <path d="M53.0051 102.221C53.4868 102.221 53.8773 101.831 53.8773 101.349C53.8773 100.867 53.4868 100.477 53.0051 100.477C52.5233 100.477 52.1328 100.867 52.1328 101.349C52.1328 101.831 52.5233 102.221 53.0051 102.221Z" fill="#5D21D1"></path>
  <path d="M86.4641 72.0648C86.9458 72.0648 87.3363 71.6743 87.3363 71.1926C87.3363 70.7108 86.9458 70.3203 86.4641 70.3203C85.9823 70.3203 85.5918 70.7108 85.5918 71.1926C85.5918 71.6743 85.9823 72.0648 86.4641 72.0648Z" fill="#5D21D1"></path>
  <path d="M68.1926 92.2758C68.6743 92.2758 69.0648 91.8852 69.0648 91.4035C69.0648 90.9218 68.6743 90.5312 68.1926 90.5312C67.7108 90.5312 67.3203 90.9218 67.3203 91.4035C67.3203 91.8852 67.7108 92.2758 68.1926 92.2758Z" fill="#5D21D1"></path>
  <path d="M107.379 63.8793C107.861 63.8793 108.251 63.4888 108.251 63.007C108.251 62.5253 107.861 62.1348 107.379 62.1348C106.897 62.1348 106.507 62.5253 106.507 63.007C106.507 63.4888 106.897 63.8793 107.379 63.8793Z" fill="#5D21D1"></path>
  <path d="M96.1696 63.6241C96.1972 62.3751 95.3297 62.2396 94.2499 63.3026C93.71 63.8341 93.0501 64.7424 92.8701 65.5582" fill="white"></path>
  <path d="M96.1696 63.6241C96.1972 62.3751 95.3297 62.2396 94.2499 63.3026C93.71 63.8341 93.0501 64.7424 92.8701 65.5582" stroke="#2E186A" stroke-width="0.719882" stroke-linecap="round" stroke-linejoin="round"></path>
  <path d="M94.6298 66.1553C94.4703 65.3347 94.8914 64.4384 95.4493 63.8337C96.4355 62.7683 97.0198 62.4923 97.3042 63.6561" fill="white"></path>
  <path d="M94.6298 66.1553C94.4703 65.3347 94.8914 64.4384 95.4493 63.8337C96.4355 62.7683 97.0198 62.4923 97.3042 63.6561" stroke="#2E186A" stroke-width="0.719882" stroke-linecap="round" stroke-linejoin="round"></path>
  <path d="M96.7171 67.4041C96.7171 67.4041 95.9912 66.2895 96.3763 64.9961C96.7615 63.7027 97.9361 62.8461 98.446 63.8323" fill="white"></path>
  <path d="M96.7171 67.4041C96.7171 67.4041 95.9912 66.2895 96.3763 64.9961C96.7615 63.7027 97.9361 62.8461 98.446 63.8323" stroke="#2E186A" stroke-width="0.719882" stroke-linecap="round" stroke-linejoin="round"></path>
  <path d="M98.4457 67.4051C98.4457 67.4051 97.6562 66.2617 97.8458 65.1458C98.0354 64.03 98.9076 63.2718 99.4403 64.036C99.4403 64.036 99.3983 65.309 100.085 65.459" fill="white"></path>
  <path d="M98.4457 67.4051C98.4457 67.4051 97.6562 66.2617 97.8458 65.1458C98.0354 64.03 98.9076 63.2718 99.4403 64.036C99.4403 64.036 99.3983 65.309 100.085 65.459" stroke="#2E186A" stroke-width="0.719882" stroke-linecap="round" stroke-linejoin="round"></path>
  <path d="M94.4121 31.4492L94.9076 46.4108L95.6467 61.7814L103.765 61.5643L103.071 45.4233L102.571 36.3696C101.829 33.6941 100.234 32.2279 98.4327 31.9867L94.4121 31.4492Z" fill="#FE7624"></path>
  <path d="M83.871 28.7916L84.9184 31.1204L83.3586 30.7797C83.1895 31.082 81.169 35.4397 86.0594 36.5579C89.2689 37.291 92.9823 34.685 94.6608 32.3118L91.948 31.8199L89.7332 26.4844L83.871 28.7916Z" fill="white" stroke="#2E186A" stroke-width="0.719882" stroke-linecap="round" stroke-linejoin="round"></path>
  <path d="M90.2295 25.0571L90.6854 25.3558C90.6854 25.3558 93.4198 26.8424 94.2788 24.0792C94.9303 21.9844 92.9206 21.3197 91.9116 21.1289" fill="white"></path>
  <path d="M90.2295 25.0571L90.6854 25.3558C90.6854 25.3558 93.4198 26.8424 94.2788 24.0792C94.9303 21.9844 92.9206 21.3197 91.9116 21.1289" stroke="#2E186A" stroke-width="0.719882" stroke-linecap="round" stroke-linejoin="round"></path>
  <path d="M80.4342 19.8437C80.0611 21.1107 78.9945 27.1265 82.8518 28.6179C86.7092 30.1092 90.3266 27.1157 91.6992 23.4119C93.0718 19.7081 92.2115 16.0931 89.7915 15.0865C87.3715 14.0798 83.1338 10.6664 80.4342 19.8437Z" fill="white" stroke="#2E186A" stroke-width="0.719882" stroke-linecap="round" stroke-linejoin="round"></path>
  <path d="M84.3754 24.7253C83.7938 24.8322 83.1931 24.7481 82.6633 24.4854C82.6288 24.4669 82.5902 24.4572 82.551 24.457C82.5119 24.4569 82.4732 24.4664 82.4386 24.4846C82.4039 24.5028 82.3742 24.5292 82.3521 24.5616C82.33 24.5939 82.3162 24.6312 82.3118 24.6701C82.2314 25.15 82.2542 25.9731 83.2932 26.2239C84.3802 26.4854 84.613 25.5316 84.655 24.9989C84.6609 24.9611 84.6578 24.9224 84.6457 24.886C84.6337 24.8497 84.6131 24.8167 84.5858 24.79C84.5584 24.7632 84.525 24.7434 84.4885 24.7321C84.4519 24.7209 84.4131 24.7185 84.3754 24.7253Z" fill="#2E186A"></path>
  <path d="M83.7065 23.0134L82.5127 22.7002L84.5332 18.0762" stroke="#2E186A" stroke-width="0.719882" stroke-linecap="round" stroke-linejoin="round"></path>
  <path d="M87.1749 19.5331C87.1749 19.5331 86.575 18.3945 85.6523 18.8132" stroke="#2E186A" stroke-width="0.719882" stroke-linecap="round" stroke-linejoin="round"></path>
  <path d="M83.1796 18.142C83.1796 18.142 82.4333 17.0993 81.5742 17.6476" stroke="#2E186A" stroke-width="0.719882" stroke-linecap="round" stroke-linejoin="round"></path>
  <path d="M85.7224 21.6522C85.7946 21.3011 85.6738 20.9795 85.4525 20.934C85.2312 20.8884 84.9932 21.1362 84.9209 21.4873C84.8486 21.8384 84.9695 22.16 85.1908 22.2055C85.4121 22.2511 85.6501 22.0034 85.7224 21.6522Z" fill="#2E186A"></path>
  <path d="M81.7819 20.9022C81.8542 20.5511 81.7334 20.2295 81.512 20.184C81.2907 20.1384 81.0527 20.3862 80.9805 20.7373C80.9082 21.0884 81.029 21.41 81.2503 21.4555C81.4717 21.5011 81.7097 21.2534 81.7819 20.9022Z" fill="#2E186A"></path>
  <path d="M95.316 35.9065C96.3844 34.7474 96.1707 32.8123 94.8387 31.5845C93.5066 30.3566 91.5607 30.3008 90.4922 31.4599C89.4238 32.619 89.6375 34.554 90.9695 35.7819C92.3015 37.0098 94.2475 37.0655 95.316 35.9065Z" fill="#2E186A"></path>
  <path d="M93.8418 40.413C94.7958 39.3782 94.6053 37.6509 93.4165 36.5551C92.2277 35.4592 90.4907 35.4098 89.5368 36.4446C88.5829 37.4795 88.7733 39.2067 89.9621 40.3026C91.1509 41.3984 92.8879 41.4479 93.8418 40.413Z" fill="#2E186A"></path>
  <path d="M90.9504 44.1208C90.1345 44.9499 88.6936 44.8683 87.7337 43.9373C86.7739 43.0062 86.6539 41.5809 87.4734 40.7506C88.2928 39.9203 89.753 39.9299 90.7128 40.861C91.6727 41.792 91.7735 43.2918 90.9504 44.1208Z" fill="#2E186A"></path>
  <path d="M89.3302 47.5354C88.2852 48.0981 88.1184 48.8456 88.2048 49.4395C88.2135 49.5006 88.2034 49.5629 88.1759 49.6181C88.1484 49.6733 88.1048 49.7189 88.0508 49.7488C87.9969 49.7787 87.9351 49.7915 87.8737 49.7856C87.8123 49.7796 87.7541 49.7552 87.7069 49.7155C86.4987 48.6356 84.6438 46.5468 86.1472 44.8467C86.8562 44.044 88.1424 43.9384 89.1179 44.6919C90.0933 45.4454 90.2745 47.0279 89.3302 47.5354Z" fill="#2E186A"></path>
  <path d="M94.8561 31.6693L91.9082 30.7383" stroke="#FE7624" stroke-width="0.959843" stroke-linecap="round" stroke-linejoin="round"></path>
  <path d="M93.5501 36.7333L91.1133 35.7891" stroke="#FE7624" stroke-width="0.959843" stroke-linecap="round" stroke-linejoin="round"></path>
  <path d="M90.6392 40.8647L89.9277 40.4688" stroke="#FE7624" stroke-width="0.959843" stroke-linecap="round" stroke-linejoin="round"></path>
  <path d="M88.9497 44.4923L88.2178 44.1348" stroke="#FE7624" stroke-width="0.959843" stroke-linecap="round" stroke-linejoin="round"></path>
  <path d="M96.9745 25.4179C96.242 24.6944 95.2865 24.2394 94.263 24.127C93.5839 26.2158 91.8094 25.8067 91.0451 25.5127C90.0193 26.9789 90.3252 29.1613 91.8406 30.6323C93.5071 32.2472 96.0087 32.39 97.4269 30.9502C98.845 29.5105 98.6423 27.0329 96.9745 25.4179Z" fill="#2E186A"></path>
  <path d="M96.9416 19.1233C96.6584 17.2036 93.3002 14.1057 90.6714 14.1345C87.2928 10.7031 82.2464 7.27165 79.3033 13.2947C79.2305 13.443 79.1917 13.6056 79.1895 13.7708C79.1874 13.9359 79.2221 14.0995 79.291 14.2496C79.3599 14.3997 79.4614 14.5326 79.588 14.6387C79.7146 14.7448 79.8633 14.8213 80.0232 14.8628L92.2216 18.491C92.3822 19.3883 92.3956 20.3058 92.2612 21.2074C93.3158 21.4797 94.8623 22.2044 94.2792 24.0785C93.4754 26.6677 91.0242 25.5255 90.7182 25.3707C90.225 26.1441 89.6183 26.8389 88.9185 27.4319C91.3061 28.8453 93.9901 29.7116 95.4598 27.7667C97.2463 25.4019 97.3375 21.8049 96.9416 19.1233Z" fill="#2E186A"></path>
  <path d="M89.2778 21.3735C89.6022 19.4613 88.7187 17.7166 87.3043 17.4767C85.8899 17.2367 84.4803 18.5923 84.1558 20.5045C83.8314 22.4167 84.7149 24.1613 86.1293 24.4013C87.5437 24.6413 88.9533 23.2857 89.2778 21.3735Z" stroke="#FE7624" stroke-width="0.539912" stroke-linecap="round" stroke-linejoin="round"></path>
  <path d="M82.5434 20.0767C82.8679 18.1645 81.9843 16.4198 80.5699 16.1798C79.1555 15.9398 77.7459 17.2954 77.4215 19.2076C77.097 21.1198 77.9806 22.8645 79.395 23.1045C80.8093 23.3444 82.2189 21.9889 82.5434 20.0767Z" stroke="#FE7624" stroke-width="0.539912" stroke-linecap="round" stroke-linejoin="round"></path>
  <path d="M82.6943 19.2246L84.2901 19.527" stroke="#FE7624" stroke-width="0.539912" stroke-linecap="round" stroke-linejoin="round"></path>
  <path d="M89.3887 20.168L92.9989 21.3858" stroke="#FE7624" stroke-width="0.539912" stroke-linecap="round" stroke-linejoin="round"></path>
  <path opacity="0.5" d="M28.665 76.7383H76.4259" stroke="#2E186A" stroke-width="0.640069" stroke-linecap="round" stroke-linejoin="round"></path>
  <path opacity="0.5" d="M28.665 71.0293H76.4259" stroke="#2E186A" stroke-width="0.640069" stroke-linecap="round" stroke-linejoin="round"></path>
  <path opacity="0.5" d="M28.665 65.3223H76.4259" stroke="#2E186A" stroke-width="0.640069" stroke-linecap="round" stroke-linejoin="round"></path>
  <path opacity="0.5" d="M28.665 59.6172H76.4259" stroke="#2E186A" stroke-width="0.640069" stroke-linecap="round" stroke-linejoin="round"></path>
  <path d="M61.6906 55.937L54.999 56.0059L55.2673 82.0585L61.9589 81.9896L61.6906 55.937Z" fill="#FE7624"></path>
  <path d="M73.1204 65.2823L66.3926 65.3516L66.5646 82.0554L73.2924 81.9862L73.1204 65.2823Z" fill="#FE7624"></path>
  <path d="M50.5169 65.2842L43.7891 65.3535L43.9611 82.0574L50.6889 81.9881L50.5169 65.2842Z" fill="#FE7624"></path>
  <path d="M39.4729 81.9936L32.7809 82.0619L32.6807 74.0557L39.3726 73.9863L39.4729 81.9936Z" fill="#FE7624"></path>
  <path d="M28.665 54V82.0617H76.4259" stroke="#2E186A" stroke-width="0.640069" stroke-linecap="round" stroke-linejoin="round"></path>
  <path d="M33.7783 83.7207H37.7115" stroke="#FE7624" stroke-width="0.640069" stroke-linecap="round" stroke-linejoin="round"></path>
  <path d="M45.2949 83.7207H49.2281" stroke="#FE7624" stroke-width="0.640069" stroke-linecap="round" stroke-linejoin="round"></path>
  <path d="M56.583 83.7207H60.5162" stroke="#FE7624" stroke-width="0.640069" stroke-linecap="round" stroke-linejoin="round"></path>
  <path d="M67.8975 83.7207H71.8307" stroke="#FE7624" stroke-width="0.640069" stroke-linecap="round" stroke-linejoin="round"></path>
  <path d="M26.6943 59.4727V60.1554" stroke="#2E186A" stroke-width="0.640069" stroke-linecap="round" stroke-linejoin="round"></path>
  <path d="M26.6943 64.9824V65.6662" stroke="#2E186A" stroke-width="0.640069" stroke-linecap="round" stroke-linejoin="round"></path>
  <path d="M26.6943 71.0293V71.7131" stroke="#2E186A" stroke-width="0.640069" stroke-linecap="round" stroke-linejoin="round"></path>
  <path d="M26.6943 76.7383V77.421" stroke="#2E186A" stroke-width="0.640069" stroke-linecap="round" stroke-linejoin="round"></path>
  <path d="M35.5054 65.4359L35.5288 69.8705L41.1753 70.2044V65.9938C41.1753 65.9938 42.4469 65.2727 42.0149 62.9727C41.5828 60.6727 34.988 61.4387 34.6242 62.834C34.2604 64.2294 35.5054 65.4359 35.5054 65.4359Z" fill="white" stroke="#2E186A" stroke-width="0.640069" stroke-linecap="round" stroke-linejoin="round"></path>
  <path d="M41.4339 55.7812H35.2754V63.9966H41.4339V55.7812Z" fill="#FE7624"></path>
  <path d="M35.4992 65.3977C34.3375 65.0467 34.6031 62.7403 34.7706 62.1728C34.8847 61.7834 35.1493 60.8767 35.1365 60.1832C35.1312 59.8824 35.5504 59.5432 35.8427 59.6605C36.1937 59.8045 36.5286 60.3945 36.5894 62.2635C37.1331 62.8832 37.549 63.6043 37.813 64.3853" fill="white"></path>
  <path d="M35.4992 65.3977C34.3375 65.0467 34.6031 62.7403 34.7706 62.1728C34.8847 61.7834 35.1493 60.8767 35.1365 60.1832C35.1312 59.8824 35.5504 59.5432 35.8427 59.6605C36.1937 59.8045 36.5286 60.3945 36.5894 62.2635C37.1331 62.8832 37.549 63.6043 37.813 64.3853" stroke="#2E186A" stroke-width="0.640069" stroke-linecap="round" stroke-linejoin="round"></path>
  <path d="M39.1774 61.0311C38.5534 59.6657 41.2598 58.5327 41.2598 58.5327C41.807 58.2778 42.8525 59.1205 41.2214 59.9068" fill="white"></path>
  <path d="M39.1774 61.0311C38.5534 59.6657 41.2598 58.5327 41.2598 58.5327C41.807 58.2778 42.8525 59.1205 41.2214 59.9068" stroke="#2E186A" stroke-width="0.640069" stroke-linecap="round" stroke-linejoin="round"></path>
  <path d="M39.0878 62.499C38.4637 61.1346 41.264 59.8886 41.264 59.8886C41.264 59.8886 42.1665 59.3808 42.3916 60.2321C42.5708 60.9084 41.5478 61.157 41.5382 61.1922" fill="white"></path>
  <path d="M39.0878 62.499C38.4637 61.1346 41.264 59.8886 41.264 59.8886C41.264 59.8886 42.1665 59.3808 42.3916 60.2321C42.5708 60.9084 41.5478 61.157 41.5382 61.1922" stroke="#2E186A" stroke-width="0.640069" stroke-linecap="round" stroke-linejoin="round"></path>
  <path d="M39.5809 64.0385C39.2417 63.9809 39.12 63.6171 39.12 63.6171C38.4949 62.2517 41.8777 61.0312 41.8777 61.0312C41.8777 61.0312 43.225 61.4761 42.1977 62.4661" fill="white"></path>
  <path d="M39.5809 64.0385C39.2417 63.9809 39.12 63.6171 39.12 63.6171C38.4949 62.2517 41.8777 61.0312 41.8777 61.0312C41.8777 61.0312 43.225 61.4761 42.1977 62.4661" stroke="#2E186A" stroke-width="0.640069" stroke-linecap="round" stroke-linejoin="round"></path>
  <path d="M42.1546 62.5234C42.1546 62.5234 38.9766 63.8655 39.9559 64.7733C40.596 65.2875 42.5941 64.0265 42.5824 63.4057C42.5706 62.7848 42.4127 62.5778 42.1546 62.5234Z" fill="white" stroke="#2E186A" stroke-width="0.640069" stroke-linecap="round" stroke-linejoin="round"></path>
  <path d="M34.4525 67.082L32.9686 76.2105L26.9573 78.8668L26.9487 78.8519L10.7742 85.4371C8.78038 86.458 7.75627 89.1175 7.50877 91.3439L5.04024 106.469C4.9745 106.871 4.98943 107.282 5.08417 107.678C5.17891 108.074 5.35156 108.447 5.59206 108.776C5.83256 109.104 6.13608 109.382 6.48494 109.592C6.8338 109.802 7.22101 109.941 7.62399 110L28.1158 109.66C28.1158 109.66 28.2289 109.061 28.4145 108.244L35.4552 109.399L31.8367 88.9266L40.1117 84.4877C41.0644 83.9767 41.49 82.3541 41.538 81.2756L42.1717 67.0874L34.4525 67.082Z" fill="#5D21D1"></path>
  <path d="M21.9128 86.443C23.6538 86.0568 24.7856 84.5047 24.4005 82.7626L23.2825 77.6922C23.0971 76.8562 22.5873 76.128 21.8651 75.6679C21.1429 75.2078 20.2675 75.0533 19.4314 75.2386C18.5954 75.424 17.8673 75.9338 17.4072 76.656C16.947 77.3782 16.7926 78.2536 16.9778 79.0897L18.0628 83.9894C18.2482 84.8252 18.7579 85.5531 19.4798 86.0132C20.2018 86.4733 21.0769 86.6279 21.9128 86.443Z" fill="white" stroke="#2E186A" stroke-width="0.640069" stroke-linecap="round" stroke-linejoin="round"></path>
  <path d="M22.2305 68.278C22.2305 68.278 19.5017 72.9025 22.6914 74.2894C22.6914 74.2894 24.0782 74.8377 24.7012 74.268C24.7012 74.268 23.7347 73.6941 24.1209 72.9399C24.1209 72.9399 25.6144 75.386 27.4354 73.7933C27.4354 73.7933 26.0902 73.0604 25.5994 71.6064C24.5743 68.5682 23.0541 67.2123 22.2305 68.278Z" fill="#2E186A"></path>
  <path d="M14.7974 75.2948C14.7974 75.2948 12.2168 70.2671 17.2787 67.5788C17.7502 67.3292 21.0124 65.682 22.5721 68.3181C23.6175 70.0783 24.3781 72.1137 24.856 73.7309C24.856 73.7405 25.8044 76.7713 25.1665 78.8408C24.5285 80.9104 21.8381 81.6262 20.1697 81.2624C18.5012 80.8986 18.1033 80.553 17.3886 79.7049C16.6738 78.8568 14.8038 75.3044 14.8038 75.3044L14.7974 75.2948Z" fill="white" stroke="#2E186A" stroke-width="0.640069" stroke-linecap="round" stroke-linejoin="round"></path>
  <path d="M22.4619 72.7969L23.5522 75.5374L22.6529 75.866" stroke="#2E186A" stroke-width="0.640069" stroke-linecap="round" stroke-linejoin="round"></path>
  <path d="M23.6297 72.9065C23.7742 72.8444 23.8137 72.6129 23.7177 72.3893C23.6218 72.1657 23.4268 72.0347 23.2823 72.0967C23.1377 72.1587 23.0983 72.3903 23.1942 72.6139C23.2901 72.8375 23.4851 72.9685 23.6297 72.9065Z" fill="#2E186A"></path>
  <path d="M21.0755 74.049C21.2291 74.0151 21.3111 73.795 21.2587 73.5574C21.2062 73.3198 21.0392 73.1547 20.8856 73.1886C20.7319 73.2225 20.6499 73.4426 20.7024 73.6802C20.7549 73.9178 20.9219 74.0829 21.0755 74.049Z" fill="#2E186A"></path>
  <path d="M18.791 72.797C18.8631 72.575 18.9933 72.3763 19.1681 72.2218C19.343 72.0672 19.5561 71.9623 19.7853 71.918" stroke="#2E186A" stroke-width="0.640069" stroke-linecap="round" stroke-linejoin="round"></path>
  <path d="M22.165 70.7847C22.165 70.7847 22.9577 70.0593 23.5519 70.486" stroke="#2E186A" stroke-width="0.640069" stroke-linecap="round" stroke-linejoin="round"></path>
  <path d="M17.7744 70.3727C17.7744 70.3727 20.9683 77.4679 16.155 78.9486C16.155 78.9486 13.36 79.8745 12.5578 78.956C12.5578 78.956 14.478 77.5489 14.0396 76.3957C14.0396 76.3957 12.0767 79.2995 9.77246 77.757C9.77246 77.757 13.0795 76.6955 12.3327 73.684C11.8036 71.5301 16.7599 68.7064 17.7744 70.3727Z" fill="#2E186A"></path>
  <path d="M9.39263 73.8068L12.1257 72.42C11.7822 70.3824 11.9934 67.2344 15.8136 65.4592C21.7822 62.6856 23.9649 68.6596 23.9649 68.6596L10.2866 75.5702C10.1709 75.6289 10.0447 75.6642 9.91536 75.6742C9.78599 75.6841 9.65593 75.6685 9.5326 75.6282C9.40927 75.5879 9.29509 75.5237 9.19658 75.4392C9.09806 75.3548 9.01715 75.2517 8.95845 75.136C8.89975 75.0203 8.86442 74.8942 8.85447 74.7648C8.84452 74.6354 8.86015 74.5054 8.90047 74.382C8.94079 74.2587 9.005 74.1445 9.08945 74.046C9.17389 73.9475 9.27691 73.8666 9.39263 73.8079V73.8068Z" fill="#FE7624"></path>
  <path d="M21.2637 77.2715C21.2637 77.2715 21.9603 78.0609 23.1892 77.4283" stroke="#2E186A" stroke-width="0.640069" stroke-linecap="round" stroke-linejoin="round"></path>
  <path d="M32.3652 105.172C33.6324 105.123 34.9013 105.203 36.1523 105.411C37.3162 105.615 39.2929 105.953 39.4913 106.253C39.9586 106.961 38.1781 107.319 37.3354 106.734" fill="white"></path>
  <path d="M32.3652 105.172C33.6324 105.123 34.9013 105.203 36.1523 105.411C37.3162 105.615 39.2929 105.953 39.4913 106.253C39.9586 106.961 38.1781 107.319 37.3354 106.734" stroke="#2E186A" stroke-width="0.640069" stroke-linecap="round" stroke-linejoin="round"></path>
  <path d="M37.2773 107.728C38.9265 108.224 39.1132 107.851 38.7601 107.131C38.5564 106.716 35.8116 105.591 35.2718 105.431C34.732 105.27 31.793 105.058 31.793 105.058L29.5922 104.82C28.9756 106.192 28.4582 108.631 28.2939 109.45C31.4271 109.356 35.7091 109.389 35.7091 109.389C37.3573 109.496 36.8079 108.758 36.1358 108.516C35.4638 108.273 34.2156 107.694 34.0343 107.74C34.0343 107.74 35.8094 108.247 36.601 108.741C37.1632 108.966 37.8011 108.576 37.8619 108.395C37.9227 108.214 37.4043 107.726 36.5412 107.287C35.8978 106.974 35.2363 106.7 34.5602 106.465" fill="white"></path>
  <path d="M37.2773 107.728C38.9265 108.224 39.1132 107.851 38.7601 107.131C38.5564 106.716 35.8116 105.591 35.2718 105.431C34.732 105.27 31.793 105.058 31.793 105.058L29.5922 104.82C28.9756 106.192 28.4582 108.631 28.2939 109.45C31.4271 109.356 35.7091 109.389 35.7091 109.389C37.3573 109.496 36.8079 108.758 36.1358 108.516C35.4638 108.273 34.2156 107.694 34.0343 107.74C34.0343 107.74 35.8094 108.247 36.601 108.741C37.1632 108.966 37.8011 108.576 37.8619 108.395C37.9227 108.214 37.4043 107.726 36.5412 107.287C35.8978 106.974 35.2363 106.7 34.5602 106.465" stroke="#2E186A" stroke-width="0.640069" stroke-linecap="round" stroke-linejoin="round"></path>
  <path d="M29.717 103.196L17.5898 101.765L18.0272 95.6797" stroke="#FFFDFD" stroke-width="0.640069" stroke-linecap="round" stroke-linejoin="round"></path>
</svg>
