<?xml version="1.0" encoding="UTF-8"?>
<svg xmlns="http://www.w3.org/2000/svg" width="120" height="120" viewBox="0 0 120 120" fill="none">
  <path d="M95.6194 53.8373C113.066 52.8303 115.557 63.3216 114.907 71.2923C114.24 79.455 112.47 101.757 112.47 101.757C112.576 101.875 71.028 101.875 71.1516 101.757C71.1516 101.757 72.8183 79.455 73.4838 71.2923C74.134 63.3216 78.3366 52.8267 95.6194 53.8373Z" fill="#FE7624"></path>
  <path d="M106.399 101.819C107.057 93.7496 108.308 77.2016 108.79 71.2922C109.351 64.431 107.583 55.703 95.9512 54.0469" stroke="#2E186A" stroke-width="0.706723" stroke-linecap="round" stroke-linejoin="round"></path>
  <path d="M73.4822 81.7286C73.4822 81.7133 64.0781 83.1975 64.0781 83.1975L63.0781 92.5875L63.4315 99.9563C65.6222 100.004 67.8122 99.829 69.9675 99.4333C71.428 99.1659 72.9934 97.9162 73.4174 96.4886C74.1194 94.1399 74.2843 87.6062 73.4822 81.7286Z" fill="white" stroke="#2E186A" stroke-width="0.706723" stroke-linecap="round" stroke-linejoin="round"></path>
  <path d="M67.051 102.111L68.9415 91.1242C68.9415 91.1242 67.1747 88.9204 67.3125 85.8132C67.3219 85.6094 67.3396 85.4009 67.3655 85.1889C67.349 85.1465 63.6435 83.9415 63.4326 83.4963C63.5728 80.9674 65.634 74.2417 69.2631 72.6798C70.4268 72.1404 73.249 71.3335 73.8167 71.1403C76.4975 70.2275 82.1395 68.7516 87.0453 69.7269C87.0453 69.7269 94.533 70.9495 96.2138 71.9437C97.1243 72.4819 101.656 75.416 102.521 83.534C102.534 83.6577 94.6873 86.4127 94.6873 86.4127L93.9052 102.114" fill="#5D21D1"></path>
  <path d="M78.5068 65.9969L78.4314 70.3197L76.9002 70.6095C76.6352 70.9899 73.7376 75.4093 80.2901 75.9806C84.5645 76.3528 89.276 73.8463 91.812 70.8733L87.6152 69.7272L86.3525 61.7012L78.5068 65.9969Z" fill="white" stroke="#2E186A" stroke-width="0.706723" stroke-linecap="round" stroke-linejoin="round"></path>
  <path d="M95.6055 44.9605L94.0879 43.709L91.8847 46.3807L93.4023 47.6322L95.6055 44.9605Z" fill="#FE7624"></path>
  <path d="M96.9143 45.2896C98.8275 45.2896 100.378 43.7387 100.378 41.8255C100.378 39.9123 98.8275 38.3613 96.9143 38.3613C95.0011 38.3613 93.4502 39.9123 93.4502 41.8255C93.4502 43.7387 95.0011 45.2896 96.9143 45.2896Z" fill="#2E186A"></path>
  <path d="M93.048 45.0546C90.4732 43.309 87.4955 41.9921 84.3318 42.2642C74.5661 43.5516 72.1998 49.7084 74.6391 53.5283C76.1703 49.1242 77.466 47.6613 79.3836 47.1065C80.0632 50.2031 84.9372 54.897 89.876 56.3811C89.876 56.3811 88.5509 60.8252 88.1339 60.665C87.9785 60.9006 86.3978 63.0326 86.3978 63.0326L87.3954 68.0067L98.5227 69.366C99.1953 69.5427 99.9008 69.0339 99.9244 68.3542C100.068 64.115 101.274 50.8074 93.048 45.0546Z" fill="#2E186A"></path>
  <path d="M86.7539 61.7017L87.3711 62.0256C87.3711 62.0256 91.0767 63.5851 92.1827 60.0479C93.0213 57.3647 90.3063 56.7605 88.9471 56.625" fill="white"></path>
  <path d="M86.7539 61.7017L87.3711 62.0256C87.3711 62.0256 91.0767 63.5851 92.1827 60.0479C93.0213 57.3647 90.3063 56.7605 88.9471 56.625" stroke="#2E186A" stroke-width="0.706723" stroke-linecap="round" stroke-linejoin="round"></path>
  <path d="M74.6449 53.5346C76.1762 49.1305 77.4047 47.8302 79.3199 47.2754C79.9889 50.3237 84.2304 54.7714 89.7581 56.3557C89.7028 57.007 89.7652 56.4287 89.5991 57.1154C89.38 57.815 89.128 58.603 88.8806 59.2603C87.7876 61.6973 86.4071 63.0401 86.4071 63.0401C84.3918 65.1662 81.6568 66.4642 78.599 65.9577C73.2609 65.0731 73.7698 57.3592 74.0807 55.6996C74.2315 54.8751 74.6449 53.5299 74.6449 53.5299V53.5346Z" fill="white" stroke="#2E186A" stroke-width="0.706723" stroke-linecap="round" stroke-linejoin="round"></path>
  <path d="M78.0104 58.7469L76.5039 58.3558L79.0787 52.6855" stroke="#2E186A" stroke-width="0.706723" stroke-linecap="round" stroke-linejoin="round"></path>
  <path d="M83.0888 53.9393C83.0888 53.9393 82.4622 52.4799 81.2549 52.8886" stroke="#2E186A" stroke-width="0.706723" stroke-linecap="round" stroke-linejoin="round"></path>
  <path d="M77.4922 61.2061C77.4922 61.2061 78.8456 61.7008 79.5888 60.9316" stroke="#2E186A" stroke-width="0.706723" stroke-linecap="round" stroke-linejoin="round"></path>
  <path d="M77.3089 52.1661C77.3089 52.1661 76.2076 51.0212 75.2217 51.8304" stroke="#2E186A" stroke-width="0.706723" stroke-linecap="round" stroke-linejoin="round"></path>
  <path d="M80.9752 55.2018C81.0715 54.7714 80.9241 54.372 80.6461 54.3098C80.368 54.2476 80.0646 54.5461 79.9683 54.9765C79.872 55.4069 80.0194 55.8063 80.2974 55.8685C80.5755 55.9307 80.8789 55.6322 80.9752 55.2018Z" fill="#2E186A"></path>
  <path d="M76.1471 54.2819C76.2434 53.8514 76.096 53.4521 75.818 53.3899C75.5399 53.3277 75.2365 53.6262 75.1402 54.0566C75.0439 54.487 75.1912 54.8864 75.4693 54.9486C75.7473 55.0108 76.0508 54.7123 76.1471 54.2819Z" fill="#2E186A"></path>
  <path d="M85.7611 56.0309C86.2911 53.7058 85.2908 51.4949 83.527 51.0929C81.7631 50.6908 79.9036 52.2498 79.3737 54.575C78.8437 56.9002 79.8439 59.1111 81.6078 59.5131C83.3716 59.9151 85.2312 58.3561 85.7611 56.0309Z" stroke="#FE7624" stroke-width="0.706723" stroke-linecap="round" stroke-linejoin="round"></path>
  <path d="M77.2064 54.3981C77.7364 52.0729 76.7362 49.8621 74.9723 49.46C73.2085 49.058 71.3489 50.617 70.819 52.9422C70.289 55.2674 71.2893 57.4783 73.0531 57.8803C74.817 58.2823 76.6765 56.7233 77.2064 54.3981Z" stroke="#FE7624" stroke-width="0.706723" stroke-linecap="round" stroke-linejoin="round"></path>
  <path d="M77.4668 53.8105L79.455 54.3335" stroke="#FE7624" stroke-width="0.706723" stroke-linecap="round" stroke-linejoin="round"></path>
  <path d="M85.9209 55.291L90.067 56.8576" stroke="#FE7624" stroke-width="0.706723" stroke-linecap="round" stroke-linejoin="round"></path>
  <path d="M7.58536 37.4503C7.58536 37.2147 5.71138 34.4714 5.1354 33.5503C4.55943 32.6292 5.95049 31.813 6.87511 33.1876C7.43764 34.0252 7.95317 34.8934 8.4193 35.7883" fill="white"></path>
  <path d="M7.58536 37.4503C7.58536 37.2147 5.71138 34.4714 5.1354 33.5503C4.55943 32.6292 5.95049 31.813 6.87511 33.1876C7.43764 34.0252 7.95317 34.8934 8.4193 35.7883" stroke="#2E186A" stroke-width="0.706723" stroke-linecap="round" stroke-linejoin="round"></path>
  <path d="M9.42405 41.4456C9.42405 41.4456 7.77504 38.7224 7.62191 37.6058C7.46879 36.4891 7.29565 31.1887 7.52886 30.6563C7.76208 30.1239 8.73971 30.1203 8.77033 31.4148C8.80096 32.7093 8.77033 35.4385 8.77033 35.4385" fill="white"></path>
  <path d="M9.42405 41.4456C9.42405 41.4456 7.77504 38.7224 7.62191 37.6058C7.46879 36.4891 7.29565 31.1887 7.52886 30.6563C7.76208 30.1239 8.73971 30.1203 8.77033 31.4148C8.80096 32.7093 8.77033 35.4385 8.77033 35.4385" stroke="#2E186A" stroke-width="0.706723" stroke-linecap="round" stroke-linejoin="round"></path>
  <path d="M8.2449 39.5451C7.87269 38.2318 7.61945 37.1611 7.66186 36.8077C7.80084 35.6534 9.09178 30.4908 9.53584 30.0938C9.9799 29.6969 10.8032 30.5826 10.4616 31.8489L9.60063 35.5003C9.60063 35.5003 10.9069 31.5567 11.2084 31.1421C11.5099 30.7275 12.7479 31.3589 11.8174 33.7335C10.8869 36.1081 10.9929 36.346 10.9929 36.346C10.9929 36.346 12.2485 33.5356 12.616 33.0574C12.9835 32.5791 14.1849 33.7641 12.623 36.2494L16.404 44.2295L10.5288 46.7149C10.5288 46.7149 9.08472 42.5075 8.2449 39.5404" fill="white"></path>
  <path d="M8.2449 39.5451C7.87269 38.2318 7.61945 37.1611 7.66186 36.8077C7.80084 35.6534 9.09179 30.4908 9.53584 30.0938C9.9799 29.6969 10.8032 30.5826 10.4616 31.8489L9.60063 35.5003C9.60063 35.5003 10.9069 31.5567 11.2084 31.1421C11.5099 30.7275 12.7479 31.3589 11.8174 33.7335C10.8869 36.1081 10.9929 36.346 10.9929 36.346C10.9929 36.346 12.2485 33.5356 12.616 33.0574C12.9835 32.5791 14.1849 33.7641 12.623 36.2494L16.404 44.2295L10.5288 46.7149C10.5288 46.7149 9.08472 42.5075 8.2449 39.5404" stroke="#2E186A" stroke-width="0.706723" stroke-linecap="round" stroke-linejoin="round"></path>
  <path d="M64.8516 70.7602C64.8516 70.7602 67.1979 69.6247 68.119 69.5823C69.0401 69.5399 73.3946 69.8285 73.8069 70.0629C74.2191 70.2973 74.139 71.0947 73.0825 71.0052C72.0259 70.9157 69.808 70.6636 69.808 70.6636" fill="white"></path>
  <path d="M64.8516 70.7602C64.8516 70.7602 67.1979 69.6247 68.119 69.5823C69.0401 69.5399 73.3946 69.8285 73.8069 70.0629C74.2191 70.2973 74.139 71.0947 73.0825 71.0052C72.0259 70.9157 69.808 70.6636 69.808 70.6636" stroke="#2E186A" stroke-width="0.706723" stroke-linecap="round" stroke-linejoin="round"></path>
  <path d="M61.3662 70.6909C61.3662 70.6909 64.0117 70.4035 66.4923 69.9453L61.3662 70.6909Z" fill="white"></path>
  <path d="M61.3662 70.6909C61.3662 70.6909 64.0117 70.4035 66.4923 69.9453" stroke="#2E186A" stroke-width="0.706723" stroke-linecap="round" stroke-linejoin="round"></path>
  <path d="M65.0003 70.3584C66.0981 70.1558 68.5068 69.5869 68.7907 69.6517C69.7177 69.8625 73.8108 71.3537 74.0911 71.7495C74.3714 72.1452 73.5858 72.7389 72.5846 72.3537L69.6871 71.3407C69.6871 71.3407 72.786 72.7401 73.0935 73.0204C73.4009 73.3007 72.786 74.2548 70.9356 73.296C69.0852 72.3372 68.8791 72.4055 68.8791 72.4055C68.8791 72.4055 71.0593 73.6682 71.4174 74.0075C71.7754 74.3467 70.7106 75.2242 68.8261 73.7413L65.1052 75.1253C64.2442 75.0935 57.8778 73.0475 58.2736 72.4786C58.6693 71.9097 61.4432 68.0215 61.4432 68.0215L65.0003 70.3584Z" fill="white" stroke="#2E186A" stroke-width="0.706723" stroke-linecap="round" stroke-linejoin="round"></path>
  <path d="M53.9794 24.2454C53.9794 24.2454 46.8745 19.0227 45.9899 19.3207L42.0193 18.965C39.7951 18.7665 37.5832 19.4596 35.87 20.8919C34.1568 22.3241 33.0827 24.3782 32.8838 26.6024L27.7412 52.1623L51.2067 55.2719L53.3539 31.2432C53.5108 31.1751 53.661 31.0927 53.8027 30.997C55.487 29.8415 55.4941 27.0052 53.9794 24.2454Z" fill="#2E186A"></path>
  <path d="M64.2097 68.5613L56.2709 62.9841L58.5972 55.3502C59.5041 51.4267 58.7244 46.469 54.5006 45.0167C52.4687 44.3182 51.7785 44.1286 51.5429 44.052C51.5429 44.052 38.2625 40.4666 36.6064 39.8517C35.471 39.4312 30.7171 39.6161 27.233 42.9389L19.5474 48.8283L15.6816 37.6738L6.54492 41.4136L12.5721 59.3315C12.5721 59.3315 14.5556 66.2703 19.8407 63.699L27.9467 59.0028C28.008 61.7014 28.0304 65.4435 26.6417 69.3552C24.594 75.1117 23.5517 81.1774 23.5604 87.2872C23.5745 94.6266 23.5922 101.393 23.5922 101.393L58.2556 101.699C58.2556 101.699 52.5418 75.499 52.5418 73.2375C52.5229 73.0702 52.5135 72.8947 52.5088 72.7133C55.4535 74.5732 59.0789 76.227 59.0789 76.227L64.2097 68.5613Z" fill="url(#paint0_linear_14911_24805)"></path>
  <path d="M52.8937 49.9531C54.8961 56.2713 56.8985 60.2325 50.8984 65.6319L53.3837 78.3871" stroke="#2E186A" stroke-width="0.706723" stroke-linecap="round" stroke-linejoin="round"></path>
  <path d="M28.373 59.0478L35.3307 54.7227" stroke="#2E186A" stroke-width="0.706723" stroke-linecap="round" stroke-linejoin="round"></path>
  <path d="M21.6295 54.2283C22.4092 52.1411 19.9463 48.9902 19.9463 48.9902" stroke="#2E186A" stroke-width="0.706723" stroke-linecap="round" stroke-linejoin="round"></path>
  <path d="M48.409 38.1752L48.4832 43.3578L51.2076 44.1623C51.3254 44.6229 50.2736 52.4793 43.363 50.4628C38.8282 49.14 37.1521 44.1164 36.8848 40.0975L40.661 41.3531L40.4184 31.625L48.409 38.1752Z" fill="white" stroke="#2E186A" stroke-width="0.706723" stroke-linecap="round" stroke-linejoin="round"></path>
  <path d="M39.9422 39.6166C38.7573 39.7533 37.5865 38.3469 37.3038 36.4458C37.153 35.4151 37.2956 34.4434 37.6454 33.7461" stroke="#FE7624" stroke-width="0.706723" stroke-linecap="round" stroke-linejoin="round"></path>
  <path d="M55.9733 39.1635C54.7895 39.3001 53.6175 37.8938 53.3349 35.9927C53.1841 34.962 53.3278 33.9903 53.6776 33.293" stroke="#FE7624" stroke-width="0.706723" stroke-linecap="round" stroke-linejoin="round"></path>
  <path d="M40.9621 32.7934C41.5677 31.5478 40.9968 30.0218 39.6869 29.3849C38.377 28.748 36.8242 29.2414 36.2186 30.4869C35.613 31.7325 36.1839 33.2585 37.4938 33.8954C38.8037 34.5323 40.3565 34.0389 40.9621 32.7934Z" fill="white" stroke="#2E186A" stroke-width="0.706723" stroke-linecap="round" stroke-linejoin="round"></path>
  <path d="M56.7512 31.9063C57.2862 30.8059 56.7819 29.4577 55.6247 28.895C54.4675 28.3324 53.0957 28.7683 52.5606 29.8688C52.0255 30.9692 52.5299 32.3174 53.6871 32.8801C54.8443 33.4428 56.2161 33.0068 56.7512 31.9063Z" fill="white" stroke="#2E186A" stroke-width="0.706723" stroke-linecap="round" stroke-linejoin="round"></path>
  <path d="M48.4882 39.7616C52.3869 39.0769 54.8276 34.4222 53.9395 29.365C53.0514 24.3078 49.1709 20.7632 45.2722 21.4478C41.3734 22.1325 38.9328 26.7872 39.8209 31.8444C40.709 36.9016 44.5894 40.4462 48.4882 39.7616Z" fill="white" stroke="#2E186A" stroke-width="0.706723" stroke-linecap="round" stroke-linejoin="round"></path>
  <path d="M47.7461 32.9793L49.1489 32.9428C49.1828 32.9421 49.216 32.9338 49.2461 32.9184C49.2763 32.9031 49.3025 32.8811 49.3229 32.8541C49.3433 32.8271 49.3573 32.7958 49.3639 32.7626C49.3705 32.7295 49.3695 32.6952 49.361 32.6625L48.3786 28.832" stroke="#2E186A" stroke-width="0.706723" stroke-linecap="round" stroke-linejoin="round"></path>
  <path d="M43.9043 26.9367C43.9043 26.9367 45.154 25.833 46.1835 26.7694" stroke="#2E186A" stroke-width="0.706723" stroke-linecap="round" stroke-linejoin="round"></path>
  <path d="M49.5703 26.6289C49.5703 26.6289 51.1616 26.047 51.7953 27.2673" stroke="#2E186A" stroke-width="0.706723" stroke-linecap="round" stroke-linejoin="round"></path>
  <path d="M46.885 30.4956C46.9037 30.0335 46.6675 29.6487 46.3574 29.6362C46.0474 29.6237 45.7809 29.9882 45.7623 30.4503C45.7436 30.9125 45.9799 31.2972 46.2899 31.3098C46.5999 31.3223 46.8664 30.9578 46.885 30.4956Z" fill="#2E186A"></path>
  <path d="M51.0897 31.4158C51.3981 31.3959 51.6237 31.004 51.5938 30.5405C51.5638 30.077 51.2895 29.7174 50.9812 29.7373C50.6728 29.7573 50.4471 30.1492 50.4771 30.6127C50.5071 31.0762 50.7814 31.4358 51.0897 31.4158Z" fill="#2E186A"></path>
  <path d="M47.9975 35.7483C47.9975 35.7483 44.7819 37.7083 44.6523 33.3926L47.9975 35.7483Z" stroke="#2E186A" stroke-width="0.706723" stroke-linecap="round" stroke-linejoin="round"></path>
  <path d="M55.2119 32.0152C56.411 31.8397 57.4004 33.438 57.6854 35.3615C57.9705 37.285 57.2143 38.9858 56.0164 39.1637L55.974 39.1696" stroke="#FE7624" stroke-width="0.706723" stroke-linecap="round" stroke-linejoin="round"></path>
  <path d="M38.9648 32.6456C40.1639 32.47 41.363 33.887 41.6457 35.8105C41.9284 37.734 41.1839 39.4348 39.9849 39.6103L39.9437 39.6162" stroke="#FE7624" stroke-width="0.706723" stroke-linecap="round" stroke-linejoin="round"></path>
  <path d="M44.5282 19.2073L44.5117 19.2285C42.1159 19.5595 39.4328 20.642 37.931 22.2262C36.1642 24.0967 36.0853 27.4183 37.0193 29.5644C37.4093 29.3015 37.8619 29.1466 38.3312 29.1156C38.8004 29.0845 39.2695 29.1784 39.6907 29.3877C39.7355 29.4101 39.7802 29.4336 39.8226 29.4572C43.3386 28.0272 43.381 22.6997 43.3774 22.2286C44.1501 22.8528 45.1595 23.9212 44.8875 25.0802L57.3952 25.9719C57.3952 25.9719 59.9736 16.7361 44.5282 19.2073ZM42.8074 22.5254C42.9704 22.4024 43.1394 22.2876 43.3138 22.1814C43.3257 22.1902 43.3371 22.1997 43.348 22.2097L42.8074 22.5254Z" fill="#2E186A"></path>
  <path d="M80.5984 98.3299H65.431L61.0729 79.2224C61.0309 79.0241 60.9226 78.8461 60.7659 78.7176C60.6091 78.5892 60.4133 78.5179 60.2107 78.5156H27.724C27.5876 78.5188 27.4537 78.5527 27.3321 78.6146C27.2106 78.6765 27.1045 78.765 27.0217 78.8734C26.9389 78.9819 26.8816 79.1075 26.8539 79.2411C26.8262 79.3747 26.8289 79.5128 26.8618 79.6452L31.7252 100.991C31.7672 101.189 31.8755 101.367 32.0322 101.495C32.1889 101.624 32.3847 101.695 32.5874 101.697H77.5595C81.2274 101.697 80.5984 98.3299 80.5984 98.3299Z" fill="#5D21D1"></path>
  <path d="M91.6097 84.1597L92.4672 91.7794C92.4672 91.7794 79.7651 93.465 74.1054 93.9573C73.851 93.9797 69.0736 96.9916 69.5989 97.2413C72.6684 98.6983 69.2114 100.059 73.2668 99.5122C73.2668 99.5122 86.3694 100.961 98.5226 98.7348C99.9831 98.4674 101.549 97.2177 101.973 95.7901C102.679 93.4344 102.838 86.903 102.037 81.0254C102.041 81.0148 91.6097 84.1597 91.6097 84.1597Z" fill="white" stroke="#2E186A" stroke-width="0.706723" stroke-linecap="round" stroke-linejoin="round"></path>
  <path d="M68.7587 98.4113C67.3453 100.036 65.6715 100.513 65.9071 99.4644C65.9954 99.0698 69.3512 95.6551 70.5762 95.0626C71.5185 94.6044 72.9319 94.1074 74.873 93.8848" fill="white"></path>
  <path d="M68.7587 98.4113C67.3453 100.036 65.6715 100.513 65.9071 99.4644C65.9954 99.0698 69.3512 95.6551 70.5762 95.0626C71.5185 94.6044 72.9319 94.1074 74.873 93.8848" stroke="#2E186A" stroke-width="0.706723" stroke-linecap="round" stroke-linejoin="round"></path>
  <path d="M71.1347 97.0488C71.1347 97.0488 69.7343 97.3751 68.8732 98.3139C68.0122 99.2526 67.3585 99.8451 67.501 100.043C67.6435 100.241 68.5611 100.452 69.15 99.9181C69.9039 98.9429 72.0523 98.295 72.0523 98.295C71.8167 98.3186 70.3361 98.8168 69.6188 99.427C68.9015 100.037 68.5387 101.204 70.4692 100.339C70.4692 100.339 72.4539 99.7497 73.2113 99.4988" fill="white"></path>
  <path d="M71.1347 97.0488C71.1347 97.0488 69.7343 97.3751 68.8732 98.3139C68.0122 99.2526 67.3585 99.8451 67.501 100.043C67.6435 100.241 68.5611 100.452 69.15 99.9181C69.9039 98.9429 72.0523 98.295 72.0523 98.295C71.8167 98.3186 70.3361 98.8168 69.6188 99.427C68.9015 100.037 68.5387 101.204 70.4692 100.339C70.4692 100.339 72.4539 99.7497 73.2113 99.4988" stroke="#2E186A" stroke-width="0.706723" stroke-linecap="round" stroke-linejoin="round"></path>
  <path d="M36.1302 95.457H10.9509C10.6393 95.457 10.3867 95.7096 10.3867 96.0212V101.132C10.3867 101.444 10.6393 101.696 10.9509 101.696H36.1302C36.4418 101.696 36.6944 101.444 36.6944 101.132V96.0212C36.6944 95.7096 36.4418 95.457 36.1302 95.457Z" fill="#2E186A"></path>
  <path d="M33.214 100.279C33.9309 100.279 34.512 99.6758 34.512 98.9323C34.512 98.1887 33.9309 97.5859 33.214 97.5859C32.4971 97.5859 31.916 98.1887 31.916 98.9323C31.916 99.6758 32.4971 100.279 33.214 100.279Z" fill="white"></path>
  <path d="M26.0758 97.5859H12.8084C12.5377 97.5859 12.3184 97.8053 12.3184 98.0759V99.7874C12.3184 100.058 12.5377 100.277 12.8084 100.277H26.0758C26.3464 100.277 26.5658 100.058 26.5658 99.7874V98.0759C26.5658 97.8053 26.3464 97.5859 26.0758 97.5859Z" fill="white"></path>
  <path d="M40.2786 89.1895H15.0994C14.7878 89.1895 14.5352 89.4421 14.5352 89.7537V94.8645C14.5352 95.1761 14.7878 95.4287 15.0994 95.4287H40.2786C40.5902 95.4287 40.8428 95.1761 40.8428 94.8645V89.7537C40.8428 89.4421 40.5902 89.1895 40.2786 89.1895Z" fill="#FEBA91"></path>
  <path d="M37.3625 94.011C38.0793 94.011 38.6605 93.4082 38.6605 92.6647C38.6605 91.9211 38.0793 91.3184 37.3625 91.3184C36.6456 91.3184 36.0645 91.9211 36.0645 92.6647C36.0645 93.4082 36.6456 94.011 37.3625 94.011Z" fill="white"></path>
  <path d="M30.2243 91.3184H16.9568C16.6862 91.3184 16.4668 91.5377 16.4668 91.8084V93.5198C16.4668 93.7904 16.6862 94.0098 16.9568 94.0098H30.2243C30.4949 94.0098 30.7143 93.7904 30.7143 93.5198V91.8084C30.7143 91.5377 30.4949 91.3184 30.2243 91.3184Z" fill="white"></path>
  <defs>
    <linearGradient id="paint0_linear_14911_24805" x1="35.3773" y1="37.6738" x2="35.3773" y2="101.699" gradientUnits="userSpaceOnUse">
      <stop offset="0.415" stop-color="#FE7624"></stop>
      <stop offset="1" stop-color="#6A24FE"></stop>
    </linearGradient>
  </defs>
</svg>
