<?xml version="1.0" encoding="UTF-8"?>
<svg xmlns="http://www.w3.org/2000/svg" width="120" height="120" viewBox="0 0 120 120" fill="none">
  <g clip-path="url(#clip0_14911_25009)">
    <path d="M91.396 58.4426C90.4631 58.4429 89.5386 58.62 88.6717 58.9645L78.5833 54.6361L70.6187 49.8573L67.9053 45.0446C67.9272 41.1827 66.4805 35.278 50.5715 38.2225C42.4213 39.6681 41.749 43.2723 43.4974 46.7356L9.22955 44.3495C8.72955 44.2451 7.20869 44.2034 7.20869 44.2034C3.18681 44.456 0 47.914 0 52.1444C0 56.1421 2.84548 59.4509 6.55316 60.0156L6.43104 62.9611L34.9819 63.6176L33.3619 87.8803L82.5691 87.3824L77.5127 59.2766L90.1925 74.282L90.0798 73.1537C91.0901 73.3301 92.126 73.295 93.1219 73.0505C94.1179 72.806 95.0523 72.3575 95.866 71.7333C96.6797 71.1091 97.355 70.3228 97.8492 69.4242C98.3433 68.5256 98.6456 67.5342 98.7369 66.5127C98.8281 65.4913 98.7064 64.462 98.3793 63.4901C98.0523 62.5181 97.527 61.6246 96.8368 60.866C96.1467 60.1075 95.3066 59.5005 94.3697 59.0833C93.4328 58.6662 92.4195 58.448 91.394 58.4426H91.396Z" fill="#FE7624"></path>
    <path d="M50.465 45.7012L48.2646 46.5988C48.2646 46.5988 55.37 50.2823 55.8126 65.1081C56.6341 74.6378 56.4034 87.6308 56.4034 87.6308L61.2624 87.5776C61.2624 87.5776 59.9785 59.9957 62.1173 55.211C64.2561 50.4264 63.206 48.2386 62.1392 47.2376C61.0724 46.2366 50.465 45.7012 50.465 45.7012Z" fill="white"></path>
    <path d="M50.2687 39.7578V45.0425C50.2565 45.4693 50.3411 45.8934 50.516 46.283C50.691 46.6725 50.9519 47.0174 51.2792 47.2918C52.5318 48.345 55.252 50.2561 58.1382 53.5399C58.1382 53.5399 62.635 50.2353 62.1684 45.079L50.2687 39.7578Z" fill="white" stroke="#2E186A" stroke-width="0.626283" stroke-linecap="round" stroke-linejoin="round"></path>
    <path d="M67.9372 44.686V45.044C67.9372 45.7631 67.8777 46.4124 67.8558 46.9228C67.7034 50.4716 65.9832 52.3577 65.3047 53.7741C69.4539 53.0111 73.7441 48.5281 74.5885 45.0471C73.7347 44.259 69.4539 43.8635 67.9372 44.686Z" fill="#2E186A"></path>
    <path d="M50.0882 54.5487C48.869 53.9882 44.7646 50.5019 43.2114 46.044C41.868 45.3133 38.4443 45.6995 37.3545 46.3226C41.6217 55.1301 50.0944 54.5612 50.0882 54.5487Z" fill="#2E186A"></path>
    <path d="M51.8379 53.9922C51.8379 53.9922 53.6719 61.4813 53.7846 65.1053" stroke="#2E186A" stroke-width="0.835043" stroke-linecap="round" stroke-linejoin="round"></path>
    <path d="M64.0118 53.7051C64.0118 53.7051 62.3416 61.5042 62.7707 65.1052" stroke="#2E186A" stroke-width="0.835043" stroke-linecap="round" stroke-linejoin="round"></path>
    <path d="M49.474 36.0371C49.474 36.0371 46.5158 36.0945 47.0461 38.7415C47.5763 41.3886 50.8435 39.8573 50.8435 39.8573L50.4061 36.0997L49.474 36.0371Z" fill="white" stroke="#2E186A" stroke-width="0.626283" stroke-linecap="round" stroke-linejoin="round"></path>
    <path d="M57.8989 27.692C58.6786 27.6272 64.0199 27.2911 64.6034 31.747C65.1869 36.2029 64.5575 41.1223 64.0637 43.3685C63.57 45.6147 53.3446 44.574 52.7653 44.3747C52.186 44.1753 51.4971 43.4958 51.4971 43.4958L50.0931 36.6528C50.0931 36.6528 49.5242 28.3871 57.8989 27.692Z" fill="white" stroke="#2E186A" stroke-width="0.626283" stroke-linecap="round" stroke-linejoin="round"></path>
    <path d="M51.0898 36.5957C51.5898 37.0863 52.9312 39.917 53.2589 41.2374C53.2589 41.2374 56.5793 40.1278 61.3361 40.06C61.3361 40.06 63.9289 40.1122 64.9634 40.417C64.9634 40.417 64.739 45.09 62.6367 47.5147C60.5344 49.9394 56.0877 49.2578 54.0032 47.8028C51.9186 46.3477 51.5731 45.6536 51.0898 44.0973C50.6065 42.5411 49.332 36.7366 49.332 36.7366L51.0898 36.5957Z" fill="#968BB4"></path>
    <path d="M49.734 37.5947C49.734 37.5947 48.3446 35.4435 47.8081 33.2109C47.3039 31.1087 48.281 28.9063 50.2267 27.9648C51.855 27.1768 53.0627 27.7947 53.0627 27.7947C53.0627 27.7947 51.3342 24.8533 53.927 22.2543C54.3809 21.8 54.9227 21.443 55.5193 21.2052C56.1159 20.9674 56.7547 20.8538 57.3967 20.8713C58.2821 20.8798 59.1458 21.1464 59.8819 21.6385C60.6179 22.1305 61.1945 22.8267 61.5407 23.6415C61.5407 23.6415 64.9311 17.4143 71.8747 21.0999C72.5761 21.4715 73.3652 22.508 73.7431 23.2052C76.0395 27.4336 68.4749 32.4437 64.5365 32.8393C60.213 33.2745 57.6817 32.5585 56.2903 31.5001C57.3299 32.1212 56.165 38.5905 49.734 37.5947Z" fill="#2E186A"></path>
    <path d="M58.1406 43.2949C58.1406 43.2949 58.3369 44.5297 59.4726 44.3293" stroke="#2E186A" stroke-width="0.835043" stroke-linecap="round" stroke-linejoin="round"></path>
    <path d="M61.3144 38.2598L61.781 42.3326L60.3457 41.9652" stroke="#2E186A" stroke-width="0.835043" stroke-linecap="round" stroke-linejoin="round"></path>
    <path d="M62.771 38.6925C63.0016 38.6925 63.1886 38.4037 63.1886 38.0474C63.1886 37.6911 63.0016 37.4023 62.771 37.4023C62.5405 37.4023 62.3535 37.6911 62.3535 38.0474C62.3535 38.4037 62.5405 38.6925 62.771 38.6925Z" fill="#2E186A"></path>
    <path d="M58.7554 38.6221C58.986 38.6221 59.173 38.3333 59.173 37.9771C59.173 37.6208 58.986 37.332 58.7554 37.332C58.5248 37.332 58.3379 37.6208 58.3379 37.9771C58.3379 38.3333 58.5248 38.6221 58.7554 38.6221Z" fill="#2E186A"></path>
    <path d="M56.9941 35.2752C57.2044 35.0053 57.4833 34.7968 57.8017 34.6715C58.1201 34.5463 58.4663 34.5089 58.8041 34.5634" stroke="#2E186A" stroke-width="0.835043" stroke-linecap="round" stroke-linejoin="round"></path>
    <path d="M62.6357 34.4966C62.6357 34.4966 63.7923 34.196 64.0814 35.1416" stroke="#2E186A" stroke-width="0.835043" stroke-linecap="round" stroke-linejoin="round"></path>
    <path d="M12.4564 64.8108L3.75293 56.8269C3.75293 56.8269 6.19653 51.8522 13.28 48.4078C17.1588 46.5227 33.001 50.3503 35.7818 51.5235C38.5626 52.6967 42.2087 63.3891 42.2087 63.3891L37.4227 65.0467C37.4227 65.0467 35.1263 70.3125 35.3267 71.1162C35.7056 72.6641 36.1837 87.7509 36.1837 87.7509H11.1506L12.4564 64.8108Z" fill="#5D21D1"></path>
    <path d="M34.9795 56.4004C34.9795 56.4004 40.0243 62.3499 35.8688 69.6345" stroke="white" stroke-width="0.626283" stroke-linecap="round" stroke-linejoin="round"></path>
    <path d="M17.8676 61.1738L13.804 65.7905L12.4053 64.3521" stroke="white" stroke-width="0.626283" stroke-linecap="round" stroke-linejoin="round"></path>
    <path d="M14.1553 82.4941C14.1553 82.4941 12.553 84.8948 9.92047 85.5931C8.35473 86.0106 6.27437 86.4981 5.89755 86.1536C5.19297 85.5096 7.44242 84.5389 7.77644 84.3594" fill="white"></path>
    <path d="M14.1553 82.4941C14.1553 82.4941 12.553 84.8948 9.92047 85.5931C8.35473 86.0106 6.27437 86.4981 5.89755 86.1536C5.19297 85.5096 7.44242 84.5389 7.77644 84.3594" stroke="#2E186A" stroke-width="0.626283" stroke-linecap="round" stroke-linejoin="round"></path>
    <path d="M8.08825 82.9876C5.91082 82.6901 4.26574 83.6504 5.13734 84.4019C5.4651 84.6837 10.3565 84.9791 11.7135 84.5C12.7636 84.1284 13.0517 83.7861 14.7333 82.377" fill="white"></path>
    <path d="M8.08825 82.9876C5.91082 82.6901 4.26574 83.6504 5.13734 84.4019C5.4651 84.6837 10.3565 84.9791 11.7135 84.5C12.7636 84.1284 13.0517 83.7861 14.7333 82.377" stroke="#2E186A" stroke-width="0.632545" stroke-linecap="round" stroke-linejoin="round"></path>
    <path d="M14.3904 82.7851C15.0167 82.0252 15.4102 81.3499 15.6159 80.7539C15.6159 80.7539 16.023 79.5316 15.8654 78.9471C15.0992 76.1112 14.1002 70.5969 10.5001 65.7694L11.784 64.1975L4.37801 57.4004C3.46048 58.7573 2.5868 60.0453 1.84985 61.1235C1.24045 62.0156 0.938207 63.0819 0.98887 64.161C1.03953 65.2401 1.44034 66.2734 2.13065 67.1044L10.6452 77.3595L10.1045 79.0609C9.29758 79.4408 7.24437 80.4971 7.24437 80.4971C5.02101 81.2883 6.2235 81.948 7.26316 81.8874C8.30281 81.8269 9.88526 81.09 10.0972 80.924C10.0972 80.924 7.86649 82.0586 6.50638 81.853C5.6233 81.8739 5.04502 82.7475 5.08468 83.0199C5.12435 83.2924 6.10764 83.2631 7.52411 83.356C8.94059 83.4489 10.3226 82.6327 10.3226 82.6327" fill="white"></path>
    <path d="M14.3904 82.7851C15.0167 82.0252 15.4102 81.3499 15.6159 80.7539C15.6159 80.7539 16.023 79.5316 15.8654 78.9471C15.0992 76.1112 14.1002 70.5969 10.5001 65.7694L11.784 64.1975L4.37801 57.4004C3.46048 58.7573 2.5868 60.0453 1.84985 61.1235C1.24045 62.0156 0.938207 63.0819 0.98887 64.161C1.03953 65.2401 1.44034 66.2734 2.13065 67.1044L10.6452 77.3595L10.1045 79.0609C9.29758 79.4408 7.24437 80.4971 7.24437 80.4971C5.02101 81.2883 6.2235 81.948 7.26316 81.8874C8.30281 81.8269 9.88526 81.09 10.0972 80.924C10.0972 80.924 7.86649 82.0586 6.50638 81.853C5.6233 81.8739 5.04502 82.7475 5.08468 83.0199C5.12435 83.2924 6.10764 83.2631 7.52411 83.356C8.94059 83.4489 10.3226 82.6327 10.3226 82.6327" stroke="#2E186A" stroke-width="0.626283" stroke-linecap="round" stroke-linejoin="round"></path>
    <path d="M25.7948 79.9099L29.8427 80.0195L33.3062 63.7365C33.3343 63.5688 33.4201 63.4161 33.5487 63.3049C33.6773 63.1936 33.8407 63.1307 34.0107 63.127L59.618 63.5163C60.0856 63.5236 60.4301 64.0142 60.3236 64.5183L57.0731 81.8857C56.8466 82.9598 55.4896 83.7948 54.5199 83.7781C48.2287 83.6737 29.3542 83.3147 28.6131 83.3042C25.2123 83.252 25.7948 79.9099 25.7948 79.9099Z" fill="#2E186A"></path>
    <path d="M50.2357 80.731C50.2357 80.731 52.5039 79.3543 52.9841 80.4847C53.4643 81.6151 49.5635 83.352 49.5635 83.352" fill="white"></path>
    <path d="M50.2357 80.731C50.2357 80.731 52.5039 79.3543 52.9841 80.4847C53.4643 81.6151 49.5635 83.352 49.5635 83.352" stroke="#2E186A" stroke-width="0.626283" stroke-linecap="round" stroke-linejoin="round"></path>
    <path d="M40.1699 83.3514C45.6605 85.9087 48.7909 85.5642 50.5132 82.3442C51.7982 79.9435 53.3681 76.1921 52.3118 76.0575C51.2022 76.2047 49.9475 80.0239 49.9475 80.0239C49.9475 80.0239 52.104 75.425 50.9548 75.5628C50.0644 75.687 49.3201 76.9197 48.3974 79.7504C48.3974 79.7504 49.794 76.6316 49.769 76.0596C49.697 74.4376 48.3243 73.5336 46.8755 79.6283L47.651 76.6086C47.8911 75.2256 46.579 75.8728 45.8671 77.2892C45.1062 78.8037 43.7482 81.2075 43.2576 82.6646" fill="white"></path>
    <path d="M40.1699 83.3514C45.6605 85.9087 48.7909 85.5642 50.5132 82.3442C51.7982 79.9435 53.3681 76.1921 52.3118 76.0575C51.2022 76.2047 49.9475 80.0239 49.9475 80.0239C49.9475 80.0239 52.104 75.425 50.9548 75.5628C50.0644 75.687 49.3201 76.9197 48.3974 79.7504C48.3974 79.7504 49.794 76.6316 49.769 76.0596C49.697 74.4376 48.3243 73.5336 46.8755 79.6283L47.651 76.6086C47.8911 75.2256 46.579 75.8728 45.8671 77.2892C45.1062 78.8037 43.7482 81.2075 43.2576 82.6646" stroke="#2E186A" stroke-width="0.626283" stroke-linecap="round" stroke-linejoin="round"></path>
    <path d="M24.2204 26.6984L25.918 26.1816L25.0085 23.194L23.3109 23.7107L24.2204 26.6984Z" fill="#FE7624"></path>
    <path d="M23.258 24.2481C24.9834 24.2481 26.3822 22.8494 26.3822 21.124C26.3822 19.3987 24.9834 18 23.258 18C21.5325 18 20.1338 19.3987 20.1338 21.124C20.1338 22.8494 21.5325 24.2481 23.258 24.2481Z" fill="#2E186A"></path>
    <path d="M24.6153 24.9432C27.3648 24.3816 30.9744 24.5591 33.515 25.8826C41.2008 30.3354 41.1632 35.7693 37.8052 38.1032C38.0547 33.9061 37.4805 32.2371 36.0776 31.1098C34.4399 33.4531 28.7562 35.6743 24.13 35.1994C24.13 35.1827 23.6947 39.3578 24.0976 39.3745C24.1435 39.6292 24.7239 41.9464 24.7239 41.9464L23.6268 46.3229L12.6635 43.3638C12.0424 43.2782 11.6311 42.6092 11.8472 42.0361C13.1958 38.4476 15.7752 26.8805 24.6153 24.9432Z" fill="#2E186A"></path>
    <path d="M31.145 46.2953L30.7222 49.9631L31.9967 50.3942C32.1763 50.7512 33.8756 55.9022 28.2035 55.6037C24.5072 55.4085 19.9843 51.1447 19.5 48.5175L20.5793 48.4935C22.1732 48.3609 23.2202 47.385 23.6858 45.8548L24.9561 41.6797L31.145 46.2953Z" fill="white" stroke="#2E186A" stroke-width="0.626283" stroke-linecap="round" stroke-linejoin="round"></path>
    <path d="M24.8848 40.7143L24.2585 40.7696C24.2585 40.7696 20.6333 40.7852 20.937 37.4566C21.1677 34.9317 23.6374 35.3691 24.8169 35.7271" fill="white"></path>
    <path d="M24.8848 40.7143L24.2585 40.7696C24.2585 40.7696 20.6333 40.7852 20.937 37.4566C21.1677 34.9317 23.6374 35.3691 24.8169 35.7271" stroke="#2E186A" stroke-width="0.626283" stroke-linecap="round" stroke-linejoin="round"></path>
    <path d="M37.8018 38.1059C38.0513 33.9088 37.4782 32.3995 36.0763 31.2754C34.4636 33.5811 29.3958 35.8158 24.2403 35.2198C24.0608 35.7814 24.209 35.2793 24.1099 35.9087C24.0493 36.5663 23.9909 37.3116 23.9658 37.943C24.0316 40.35 24.7174 41.947 24.7174 41.947C25.6568 44.4155 27.4867 46.4425 30.209 47.0803C34.9605 48.1919 37.2026 41.5931 37.5241 40.1037C37.6828 39.3647 37.8049 38.1017 37.8049 38.1017L37.8018 38.1059Z" fill="white" stroke="#2E186A" stroke-width="0.626283" stroke-linecap="round" stroke-linejoin="round"></path>
    <path d="M33.1875 41.2805L34.5768 41.4767L34.3973 35.8633" stroke="#2E186A" stroke-width="0.626283" stroke-linecap="round" stroke-linejoin="round"></path>
    <path d="M30.377 35.4153C30.377 35.4153 31.4041 34.4164 32.2673 35.1752" stroke="#2E186A" stroke-width="0.626283" stroke-linecap="round" stroke-linejoin="round"></path>
    <path d="M32.2265 43.6493C32.2265 43.6493 30.8048 43.8226 30.5762 42.6953" stroke="#2E186A" stroke-width="0.626283" stroke-linecap="round" stroke-linejoin="round"></path>
    <path d="M36.0488 36.0449C36.0488 36.0449 37.363 35.4739 37.9027 36.4885" stroke="#2E186A" stroke-width="0.626283" stroke-linecap="round" stroke-linejoin="round"></path>
    <path d="M31.8856 37.9911C31.9545 37.5994 31.8051 37.2457 31.5519 37.2011C31.2987 37.1566 31.0375 37.438 30.9686 37.8298C30.8996 38.2215 31.049 38.5752 31.3023 38.6197C31.5555 38.6643 31.8166 38.3828 31.8856 37.9911Z" fill="#2E186A"></path>
    <path d="M36.7616 38.8212C36.8305 38.4294 36.6811 38.0758 36.4279 38.0312C36.1746 37.9866 35.9135 38.2681 35.8445 38.6598C35.7756 39.0516 35.925 39.4053 36.1782 39.4498C36.4315 39.4944 36.6926 39.2129 36.7616 38.8212Z" fill="#2E186A"></path>
    <path d="M33.4923 37.3342C33.8561 35.215 32.8475 33.2733 31.2396 32.9973C29.6316 32.7213 28.0332 34.2155 27.6694 36.3347C27.3056 38.4539 28.3142 40.3956 29.9222 40.6716C31.5302 40.9476 33.1286 39.4534 33.4923 37.3342Z" stroke="#FE7624" stroke-width="0.626283" stroke-linecap="round" stroke-linejoin="round"></path>
    <path d="M41.1847 38.9377C41.5485 36.8185 40.5399 34.8768 38.932 34.6008C37.324 34.3248 35.7256 35.819 35.3618 37.9382C34.998 40.0574 36.0066 41.9991 37.6146 42.2751C39.2225 42.5511 40.8209 41.0569 41.1847 38.9377Z" stroke="#FE7624" stroke-width="0.626283" stroke-linecap="round" stroke-linejoin="round"></path>
    <path d="M35.3459 37.3581L33.5088 37.1055" stroke="#FE7624" stroke-width="0.626283" stroke-linecap="round" stroke-linejoin="round"></path>
    <path d="M27.7975 35.6647L23.8018 35.5332" stroke="#FE7624" stroke-width="0.626283" stroke-linecap="round" stroke-linejoin="round"></path>
    <path d="M11.3407 58.8048L16.7425 56.9939L13.7342 51.0078L7.70605 54.1517L11.3407 58.8048Z" fill="white"></path>
    <path d="M14.2188 51.5684C14.2188 51.5684 16.0768 54.229 16.6613 55.0775C17.6008 56.4449 17.3356 58.0126 15.7699 57.3979" fill="white"></path>
    <path d="M14.2188 51.5684C14.2188 51.5684 16.0768 54.229 16.6613 55.0775C17.6008 56.4449 17.3356 58.0126 15.7699 57.3979" stroke="#2E186A" stroke-width="0.626283" stroke-linecap="round" stroke-linejoin="round"></path>
    <path d="M12.8291 53.5117C12.8291 53.5117 16.1694 57.3967 16.4094 58.5146C16.6495 59.6324 15.2612 60.3245 14.113 58.5751" fill="white"></path>
    <path d="M12.8291 53.5117C12.8291 53.5117 16.1694 57.3967 16.4094 58.5146C16.6495 59.6324 15.2612 60.3245 14.113 58.5751" stroke="#2E186A" stroke-width="0.626283" stroke-linecap="round" stroke-linejoin="round"></path>
    <path d="M11.5041 54.5527C11.5041 54.5527 14.6722 58.2978 14.2953 59.5629C13.8726 60.9814 11.859 58.1141 11.1367 57.2874" fill="white"></path>
    <path d="M11.5041 54.5527C11.5041 54.5527 14.6722 58.2978 14.2953 59.5629C13.8726 60.9814 11.859 58.1141 11.1367 57.2874" stroke="#2E186A" stroke-width="0.626283" stroke-linecap="round" stroke-linejoin="round"></path>
    <path d="M14.2173 51.5689L15.9239 52.3956C15.9712 52.418 16.0196 52.4379 16.069 52.4551C17.1316 52.8037 17.5304 52.4415 17.6713 52.0198C17.7382 51.8026 17.7414 51.5707 17.6806 51.3516C17.6197 51.1326 17.4973 50.9356 17.3279 50.784C15.3237 48.9271 10.2559 48.3833 10.2559 48.3833C9.01899 48.2403 5.78312 49.5951 6.37288 52.3173C6.96264 55.0395 8.87807 58.5111 10.6891 59.5194C12.5002 60.5277 12.926 59.3388 11.138 57.2888C11.115 57.2617 9.81439 55.625 9.81439 55.625" fill="white"></path>
    <path d="M14.2173 51.5689L15.9239 52.3956C15.9712 52.418 16.0196 52.4379 16.069 52.4551C17.1316 52.8037 17.5304 52.4415 17.6713 52.0198C17.7382 51.8026 17.7414 51.5707 17.6806 51.3516C17.6197 51.1326 17.4973 50.9356 17.3279 50.784C15.3237 48.9271 10.2559 48.3833 10.2559 48.3833C9.01899 48.2403 5.78312 49.5951 6.37288 52.3173C6.96264 55.0395 8.87807 58.5111 10.6891 59.5194C12.5002 60.5277 12.926 59.3388 11.138 57.2888C11.115 57.2617 9.81439 55.625 9.81439 55.625" stroke="#2E186A" stroke-width="0.626283" stroke-linecap="round" stroke-linejoin="round"></path>
    <path d="M106.527 69.7756L108.557 67.2402C108.557 67.2402 109.273 63.7749 109.777 62.5641C110.281 61.3533 112.108 60.3878 111.528 62.1403C110.949 63.8928 111.149 64.6256 111.149 64.6256C111.149 64.6256 113.759 61.8502 114.852 59.7511C115.971 57.603 116.703 59.7229 116.703 59.7229C116.703 59.7229 118.139 59.1238 118.036 60.1081C118.036 60.1081 119.406 60.0904 118.735 61.2782C118.735 61.2782 120.276 60.5757 119.956 61.9337C120.08 63.5244 117.27 68.3373 114.586 69.6639L113.52 71.144L112.236 73.1063" fill="white"></path>
    <path d="M106.527 69.7756L108.557 67.2402C108.557 67.2402 109.273 63.7749 109.777 62.5641C110.281 61.3533 112.108 60.3878 111.528 62.1403C110.949 63.8928 111.149 64.6256 111.149 64.6256C111.149 64.6256 113.759 61.8502 114.852 59.7511C115.971 57.603 116.703 59.7229 116.703 59.7229C116.703 59.7229 118.139 59.1238 118.036 60.1081C118.036 60.1081 119.406 60.0904 118.735 61.2782C118.735 61.2782 120.276 60.5757 119.956 61.9337C120.08 63.5244 117.27 68.3373 114.586 69.6639L113.52 71.144L112.236 73.1063" stroke="#2E186A" stroke-width="0.626283" stroke-linecap="round" stroke-linejoin="round"></path>
    <path d="M113.527 64.0804C113.527 64.0804 116.253 61.4073 116.705 59.7227L113.527 64.0804Z" fill="white"></path>
    <path d="M113.527 64.0804C113.527 64.0804 116.253 61.4073 116.705 59.7227" stroke="#2E186A" stroke-width="0.626283" stroke-linecap="round" stroke-linejoin="round"></path>
    <path d="M114.589 64.928C114.845 64.5711 117.117 62.5983 117.814 60.0859L114.589 64.928Z" fill="white"></path>
    <path d="M114.589 64.928C114.845 64.5711 117.117 62.5983 117.814 60.0859" stroke="#2E186A" stroke-width="0.626283" stroke-linecap="round" stroke-linejoin="round"></path>
    <path d="M115.67 65.8215C116.212 65.0909 117.856 64.2402 118.791 61.3594L115.67 65.8215Z" fill="white"></path>
    <path d="M115.67 65.8215C116.212 65.0909 117.856 64.2402 118.791 61.3594" stroke="#2E186A" stroke-width="0.626283" stroke-linecap="round" stroke-linejoin="round"></path>
    <path d="M52.0508 88.5848L60.6728 70.5463C61.6123 68.1456 62.9849 65.6791 65.488 65.0622C71.3188 63.6271 80.5891 62.3964 87.5347 62.1846C88.4705 62.1554 89.4002 62.3457 90.2492 62.7403C91.0982 63.1349 91.843 63.7227 92.424 64.4569L101.248 74.8383L107.511 67.0308L115 71.8082L104.249 86.5526C103.278 87.5412 101.97 88.1254 100.586 88.1876C99.2022 88.2497 97.8463 87.7852 96.7914 86.8877L92.4073 82.7574L94.0127 102.431H66.7458L66.8565 97.4507L52.0508 88.5848Z" fill="#2E186A"></path>
    <path d="M81.1276 62.9861L78.7539 56.9238L71.5254 61.53L72.1767 66.0569C74.8813 73.6305 81.6495 64.319 81.1276 62.9861Z" fill="white" stroke="#2E186A" stroke-width="0.626283" stroke-linecap="round" stroke-linejoin="round"></path>
    <path d="M67.1251 46.2152C67.1251 46.2152 73.6282 49.4405 71.0332 53.3578C71.0332 53.3578 69.8652 55.0038 68.7368 54.819C68.7368 54.819 69.408 53.4559 68.4143 52.8849C68.4143 52.8849 68.5187 56.7615 65.2911 56.2991C65.2911 56.2991 66.2744 54.4777 65.7567 52.4685C64.6815 48.2725 65.4059 45.615 67.1251 46.2152Z" fill="#2E186A"></path>
    <path d="M80.413 51.0137C80.413 51.0137 80.8306 43.3857 73.1062 42.8503C72.387 42.8002 67.457 42.558 66.9748 46.6736C66.6533 49.4229 66.8338 52.3549 67.1334 54.6147C67.1334 54.6272 67.6345 58.8942 69.5593 61.0955C71.4841 63.2969 75.196 62.704 77.0623 61.3366C78.9287 59.9693 79.2241 59.3253 79.6396 57.8838C80.055 56.4424 80.4109 51.0293 80.4109 51.0293L80.413 51.0137Z" fill="white" stroke="#2E186A" stroke-width="0.626283" stroke-linecap="round" stroke-linejoin="round"></path>
    <path d="M70.0889 52.6367L69.71 56.3975L71.0283 56.0405" stroke="#2E186A" stroke-width="0.626283" stroke-linecap="round" stroke-linejoin="round"></path>
    <path d="M69.3659 51.9692C69.3724 51.6407 69.2052 51.3709 68.9926 51.3668C68.7799 51.3626 68.6022 51.6255 68.5957 51.954C68.5892 52.2825 68.7564 52.5522 68.9691 52.5564C69.1818 52.5606 69.3594 52.2977 69.3659 51.9692Z" fill="#2E186A"></path>
    <path d="M72.7597 52.6945C72.9694 52.6589 73.0948 52.3674 73.0398 52.0435C72.9847 51.7196 72.7701 51.4858 72.5604 51.5214C72.3507 51.5571 72.2253 51.8485 72.2803 52.1725C72.3353 52.4964 72.5499 52.7302 72.7597 52.6945Z" fill="#2E186A"></path>
    <path d="M73.9062 49.6763C73.6953 49.4416 73.4253 49.2679 73.1243 49.1732C72.8234 49.0784 72.5026 49.0662 72.1953 49.1377" stroke="#2E186A" stroke-width="0.626283" stroke-linecap="round" stroke-linejoin="round"></path>
    <path d="M68.8223 49.1825C68.8223 49.1825 67.4454 48.7222 66.9434 49.576" stroke="#2E186A" stroke-width="0.626283" stroke-linecap="round" stroke-linejoin="round"></path>
    <path d="M73.8914 46.01C73.8914 46.01 72.0261 56.3611 78.8245 56.7265C78.8245 56.7265 82.7911 57.0271 83.5458 55.5595C83.5458 55.5595 80.5698 54.3414 80.765 52.6933C80.765 52.6933 84.29 55.8591 86.8046 53.0816C86.8046 53.0816 82.1137 52.7747 82.1074 48.5808C82.1032 45.5726 74.6784 43.4924 73.8914 46.01Z" fill="#2E186A"></path>
    <path d="M86.2691 46.2046L82.1324 45.9959C81.4361 43.2915 79.4435 39.5245 73.7494 39.4295C64.8528 39.2875 65.4457 47.8716 65.4457 47.8716L86.1344 48.8725C86.3121 48.8858 86.4906 48.8634 86.6595 48.8067C86.8284 48.7499 86.9843 48.66 87.1179 48.5421C87.2515 48.4242 87.3602 48.2808 87.4375 48.1203C87.5149 47.9598 87.5594 47.7855 87.5684 47.6076C87.5774 47.4296 87.5506 47.2517 87.4898 47.0842C87.429 46.9167 87.3353 46.7631 87.2143 46.6324C87.0932 46.5017 86.9472 46.3965 86.7849 46.323C86.6226 46.2496 86.4472 46.2093 86.2691 46.2046Z" fill="#FE7624"></path>
    <path d="M73.815 56.6543C73.815 56.6543 73.3891 58.0112 71.5186 57.9068" stroke="#2E186A" stroke-width="0.626283" stroke-linecap="round" stroke-linejoin="round"></path>
    <path d="M61.2012 95.1011L66.3326 81.3535" stroke="white" stroke-width="0.626283" stroke-linecap="round" stroke-linejoin="round"></path>
    <path d="M100.822 75.1035C100.822 75.1035 98.2045 76.6045 98.6659 79.1461" stroke="white" stroke-width="0.626283" stroke-linecap="round" stroke-linejoin="round"></path>
    <path d="M100.529 74.9123C100.529 74.9123 97.8146 73.8142 96.751 77.1042" stroke="white" stroke-width="0.626283" stroke-linecap="round" stroke-linejoin="round"></path>
    <path d="M70.1137 98.7703H56.5606C56.3934 98.7703 56.2286 98.7309 56.0795 98.6552C55.9305 98.5796 55.8013 98.4699 55.7025 98.3351L46.2799 85.4663C46.1641 85.3078 46.0945 85.1203 46.0787 84.9247C46.0628 84.729 46.1015 84.5328 46.1903 84.3577C46.2791 84.1827 46.4147 84.0356 46.5819 83.9328C46.7492 83.8301 46.9416 83.7756 47.1379 83.7754H60.6921C60.8591 83.7755 61.0237 83.815 61.1726 83.8906C61.3215 83.9662 61.4504 84.0759 61.549 84.2106L70.9717 97.0794C71.0875 97.2379 71.1571 97.4254 71.1729 97.621C71.1887 97.8167 71.1501 98.0129 71.0613 98.188C70.9724 98.363 70.8369 98.5101 70.6697 98.6129C70.5024 98.7156 70.31 98.7701 70.1137 98.7703Z" fill="#5D21D1"></path>
    <path d="M57.1445 90.9355C57.1445 90.9355 54.0547 93.45 54.0026 93.4959C53.9504 93.5419 57.3334 97.217 57.3334 97.217L60.8543 93.593L57.1445 90.9355Z" fill="white"></path>
    <path d="M58.1895 91.6811C58.7114 91.4922 60.347 90.4807 60.8168 90.6623C61.7896 91.0381 60.3585 92.0193 59.3272 92.9169" fill="white"></path>
    <path d="M58.1895 91.6811C58.7114 91.4922 60.347 90.4807 60.8168 90.6623C61.7896 91.0381 60.3585 92.0193 59.3272 92.9169" stroke="#2E186A" stroke-width="0.626283" stroke-linecap="round" stroke-linejoin="round"></path>
    <path d="M59.4687 94.9492C59.4687 94.9492 61.3017 93.5057 61.8695 94.7739C62.1033 95.2958 60.095 96.8969 58.1942 97.4668C56.3779 98.0117 50.4698 100.038 50.4531 94.49C50.4531 93.5798 50.6619 92.3669 51.3122 90.2814C52.1473 87.6365 53.6086 88.7554 53.4886 89.7136C53.3685 90.6718 53.4406 92.4953 53.4406 92.4953C53.4406 92.4953 56.4155 90.1082 58.2088 90.0654C60.4123 90.0059 58.6702 91.6248 55.117 93.7844" fill="white"></path>
    <path d="M59.4687 94.9492C59.4687 94.9492 61.3016 93.5057 61.8695 94.7739C62.1033 95.2958 60.095 96.8969 58.1942 97.4668C56.3779 98.0117 50.4698 100.038 50.4531 94.49C50.4531 93.5798 50.6619 92.3669 51.3122 90.2814C52.1473 87.6365 53.6086 88.7554 53.4886 89.7136C53.3685 90.6718 53.4406 92.4953 53.4406 92.4953C53.4406 92.4953 56.4155 90.1082 58.2088 90.0654C60.4123 90.0059 58.6702 91.6248 55.117 93.7844" stroke="#2E186A" stroke-width="0.626283" stroke-linecap="round" stroke-linejoin="round"></path>
    <path d="M56.7588 94.7736C56.7588 94.7736 58.2943 93.8102 59.3245 92.9167L59.6011 92.6474C59.6011 92.6474 61.1669 91.5212 62.0019 92.1255C62.837 92.7299 60.9268 94.3404 58.7515 95.618" fill="white"></path>
    <path d="M56.7588 94.7736C56.7588 94.7736 58.2943 93.8102 59.3245 92.9167L59.6011 92.6474C59.6011 92.6474 61.1669 91.5212 62.0019 92.1255C62.837 92.7299 60.9268 94.3404 58.7515 95.618" stroke="#2E186A" stroke-width="0.626283" stroke-linecap="round" stroke-linejoin="round"></path>
    <path d="M91.1605 71.9817L85.6543 70.5131L88.2816 64.3496L94.4945 67.1094L91.1605 71.9817Z" fill="white"></path>
    <path d="M87.8322 64.9453C87.8322 64.9453 86.1454 67.7176 85.6151 68.5985C84.7592 70.0223 85.1266 71.5691 86.6506 70.8583" fill="white"></path>
    <path d="M87.8322 64.9453C87.8322 64.9453 86.1454 67.7176 85.6151 68.5985C84.7592 70.0223 85.1266 71.5691 86.6506 70.8583" stroke="#2E186A" stroke-width="0.626283" stroke-linecap="round" stroke-linejoin="round"></path>
    <path d="M89.3448 66.793C89.3448 66.793 86.253 70.8794 86.0849 72.0119C85.9169 73.1444 87.3375 73.7456 88.3814 71.9284" fill="white"></path>
    <path d="M89.3448 66.793C89.3448 66.793 86.253 70.8794 86.0849 72.0119C85.9169 73.1444 87.3375 73.7456 88.3814 71.9284" stroke="#2E186A" stroke-width="0.626283" stroke-linecap="round" stroke-linejoin="round"></path>
    <path d="M90.7329 67.7461C90.7329 67.7461 87.8102 71.6822 88.2612 72.9191C88.7716 74.3083 90.6025 71.32 91.2705 70.4495" fill="white"></path>
    <path d="M90.7329 67.7461C90.7329 67.7461 87.8102 71.6822 88.2612 72.9191C88.7716 74.3083 90.6025 71.32 91.2705 70.4495" stroke="#2E186A" stroke-width="0.626283" stroke-linecap="round" stroke-linejoin="round"></path>
    <path d="M87.8345 64.9447L86.1852 65.8726C86.1395 65.8978 86.0925 65.9204 86.0443 65.9405C85.0005 66.358 84.5829 66.0198 84.418 65.6075C84.3381 65.3952 84.3206 65.1645 84.3676 64.9425C84.4145 64.7206 84.5241 64.5167 84.6832 64.355C86.5673 62.3718 91.5902 61.5128 91.5902 61.5128C92.8156 61.2925 96.1298 62.4417 95.7123 65.1952C95.2947 67.9487 93.6016 71.5351 91.8563 72.652C90.1111 73.7688 89.6132 72.6123 91.2687 70.4538C91.2906 70.4256 92.4858 68.7107 92.4858 68.7107" fill="white"></path>
    <path d="M87.8345 64.9447L86.1852 65.8726C86.1395 65.8978 86.0925 65.9204 86.0443 65.9405C85.0005 66.358 84.5829 66.0198 84.418 65.6075C84.3381 65.3952 84.3206 65.1645 84.3676 64.9425C84.4145 64.7206 84.5241 64.5167 84.6832 64.355C86.5673 62.3718 91.5902 61.5128 91.5902 61.5128C92.8156 61.2925 96.1298 62.4417 95.7123 65.1952C95.2947 67.9487 93.6016 71.5351 91.8563 72.652C90.1111 73.7688 89.6132 72.6123 91.2687 70.4538C91.2906 70.4256 92.4858 68.7107 92.4858 68.7107" stroke="#2E186A" stroke-width="0.626283" stroke-linecap="round" stroke-linejoin="round"></path>
  </g>
  <defs>
    <clipPath id="clip0_14911_25009">
      <rect width="120" height="120" fill="white"></rect>
    </clipPath>
  </defs>
</svg>
