<?xml version="1.0" encoding="UTF-8"?>
<svg xmlns="http://www.w3.org/2000/svg" width="120" height="120" viewBox="0 0 120 120" fill="none">
  <rect width="120" height="120" fill="white"></rect>
  <path d="M104.052 51.0146H29.3526C29.1545 51.0146 28.9939 51.1753 28.9939 51.3734V98.6934C28.9939 98.8915 29.1545 99.0521 29.3526 99.0521H104.052C104.25 99.0521 104.41 98.8915 104.41 98.6934V51.3734C104.41 51.1753 104.25 51.0146 104.052 51.0146Z" fill="white" stroke="#2E186A" stroke-width="0.634898" stroke-linecap="round" stroke-linejoin="round"></path>
  <path d="M88.7245 54.0547H64.3412V84.333H88.7245V54.0547Z" stroke="#FE7624" stroke-width="0.634898" stroke-linecap="round" stroke-linejoin="round"></path>
  <path d="M74.0594 56.6201H67.1697V58.8983H74.0594V56.6201Z" stroke="#FE7624" stroke-width="0.634898" stroke-linecap="round" stroke-linejoin="round"></path>
  <path d="M67.2851 58.837L74.0584 56.6201" stroke="#FE7624" stroke-width="0.634898" stroke-linecap="round" stroke-linejoin="round"></path>
  <path d="M72.2373 68.1445H67.1697V73.2121H72.2373V68.1445Z" stroke="#2E186A" stroke-width="0.634898" stroke-linecap="round" stroke-linejoin="round"></path>
  <path d="M72.2373 68.1445L67.1697 73.2131" stroke="#2E186A" stroke-width="0.634898" stroke-linecap="round" stroke-linejoin="round"></path>
  <path d="M79.1555 68.1445H74.088V73.2121H79.1555V68.1445Z" stroke="#2E186A" stroke-width="0.634898" stroke-linecap="round" stroke-linejoin="round"></path>
  <path d="M79.1555 68.1445L74.088 73.2131" stroke="#2E186A" stroke-width="0.634898" stroke-linecap="round" stroke-linejoin="round"></path>
  <path d="M86.0749 68.1445H81.0073V73.2121H86.0749V68.1445Z" stroke="#2E186A" stroke-width="0.634898" stroke-linecap="round" stroke-linejoin="round"></path>
  <path d="M86.0749 68.1445L81.0073 73.2131" stroke="#2E186A" stroke-width="0.634898" stroke-linecap="round" stroke-linejoin="round"></path>
  <path d="M72.2373 61.6133H67.1697V66.6808H72.2373V61.6133Z" stroke="#2E186A" stroke-width="0.634898" stroke-linecap="round" stroke-linejoin="round"></path>
  <path d="M72.2373 61.6133L67.1697 66.6808" stroke="#2E186A" stroke-width="0.634898" stroke-linecap="round" stroke-linejoin="round"></path>
  <path d="M79.1555 61.6133H74.088V66.6808H79.1555V61.6133Z" stroke="#2E186A" stroke-width="0.634898" stroke-linecap="round" stroke-linejoin="round"></path>
  <path d="M79.1555 61.6133L74.088 66.6808" stroke="#2E186A" stroke-width="0.634898" stroke-linecap="round" stroke-linejoin="round"></path>
  <path d="M86.0749 61.6133H81.0073V66.6808H86.0749V61.6133Z" stroke="#2E186A" stroke-width="0.634898" stroke-linecap="round" stroke-linejoin="round"></path>
  <path d="M86.0749 61.6133L81.0073 66.6808" stroke="#2E186A" stroke-width="0.634898" stroke-linecap="round" stroke-linejoin="round"></path>
  <path d="M74.0584 77.125H68.8268V81.5323H74.0584V77.125Z" stroke="#FE7624" stroke-width="0.634898" stroke-linecap="round" stroke-linejoin="round"></path>
  <path d="M86.2008 75.791H67.1697V81.5316H86.2008V75.791Z" stroke="#2E186A" stroke-width="0.634898" stroke-linecap="round" stroke-linejoin="round"></path>
  <path d="M76.1736 77.293H85.0686" stroke="#FE7624" stroke-width="0.634898" stroke-linecap="round" stroke-linejoin="round"></path>
  <path d="M76.1736 78.3965H85.0686" stroke="#FE7624" stroke-width="0.634898" stroke-linecap="round" stroke-linejoin="round"></path>
  <path d="M75.9271 58.0693H79.1323" stroke="#FE7624" stroke-width="0.634898" stroke-linecap="round" stroke-linejoin="round"></path>
  <path d="M80.1619 58.0693H85.8897" stroke="#FE7624" stroke-width="0.634898" stroke-linecap="round" stroke-linejoin="round"></path>
  <path d="M70.8023 99.0518V86.1846H95.1856V99.0518" stroke="#2E186A" stroke-width="0.634898" stroke-linecap="round" stroke-linejoin="round"></path>
  <path d="M80.5205 88.75H73.6308V91.0282H80.5205V88.75Z" stroke="#FE7624" stroke-width="0.634898" stroke-linecap="round" stroke-linejoin="round"></path>
  <path d="M73.7472 90.9658L80.5194 88.75" stroke="#FE7624" stroke-width="0.634898" stroke-linecap="round" stroke-linejoin="round"></path>
  <path d="M78.6983 93.7432H73.6308V98.8107H78.6983V93.7432Z" stroke="#2E186A" stroke-width="0.634898" stroke-linecap="round" stroke-linejoin="round"></path>
  <path d="M78.6983 93.7432L73.6308 98.8107" stroke="#2E186A" stroke-width="0.634898" stroke-linecap="round" stroke-linejoin="round"></path>
  <path d="M85.6176 93.7432H80.55V98.8107H85.6176V93.7432Z" stroke="#2E186A" stroke-width="0.634898" stroke-linecap="round" stroke-linejoin="round"></path>
  <path d="M85.6176 93.7432L80.55 98.8107" stroke="#2E186A" stroke-width="0.634898" stroke-linecap="round" stroke-linejoin="round"></path>
  <path d="M92.5359 93.7432H87.4684V98.8107H92.5359V93.7432Z" stroke="#2E186A" stroke-width="0.634898" stroke-linecap="round" stroke-linejoin="round"></path>
  <path d="M92.5359 93.7432L87.4684 98.8107" stroke="#2E186A" stroke-width="0.634898" stroke-linecap="round" stroke-linejoin="round"></path>
  <path d="M82.3882 90.1982H85.5944" stroke="#2E186A" stroke-width="0.634898" stroke-linecap="round" stroke-linejoin="round"></path>
  <path d="M86.6229 90.1982H92.3508" stroke="#2E186A" stroke-width="0.634898" stroke-linecap="round" stroke-linejoin="round"></path>
  <path d="M60.2135 58.6387H35.8302V88.917H60.2135V58.6387Z" stroke="#2E186A" stroke-width="0.634898" stroke-linecap="round" stroke-linejoin="round"></path>
  <path d="M45.5484 61.2021H38.6587V63.4804H45.5484V61.2021Z" stroke="#FE7624" stroke-width="0.634898" stroke-linecap="round" stroke-linejoin="round"></path>
  <path d="M38.774 63.419L45.5473 61.2021" stroke="#FE7624" stroke-width="0.634898" stroke-linecap="round" stroke-linejoin="round"></path>
  <path d="M38.6587 66.5068H45.5473" stroke="#2E186A" stroke-width="0.634898" stroke-linecap="round" stroke-linejoin="round"></path>
  <path d="M38.7741 68.68C38.9605 68.68 39.1116 68.5289 39.1116 68.3424C39.1116 68.156 38.9605 68.0049 38.7741 68.0049C38.5877 68.0049 38.4365 68.156 38.4365 68.3424C38.4365 68.5289 38.5877 68.68 38.7741 68.68Z" fill="#2E186A"></path>
  <path d="M38.7741 70.4192C38.9605 70.4192 39.1116 70.2681 39.1116 70.0817C39.1116 69.8953 38.9605 69.7441 38.7741 69.7441C38.5877 69.7441 38.4365 69.8953 38.4365 70.0817C38.4365 70.2681 38.5877 70.4192 38.7741 70.4192Z" fill="#2E186A"></path>
  <path d="M38.7741 72.1585C38.9605 72.1585 39.1116 72.0074 39.1116 71.821C39.1116 71.6345 38.9605 71.4834 38.7741 71.4834C38.5877 71.4834 38.4365 71.6345 38.4365 71.821C38.4365 72.0074 38.5877 72.1585 38.7741 72.1585Z" fill="#2E186A"></path>
  <path d="M38.7741 73.8997C38.9605 73.8997 39.1116 73.7486 39.1116 73.5622C39.1116 73.3757 38.9605 73.2246 38.7741 73.2246C38.5877 73.2246 38.4365 73.3757 38.4365 73.5622C38.4365 73.7486 38.5877 73.8997 38.7741 73.8997Z" fill="#2E186A"></path>
  <path d="M40.0046 68.3418H44.5409" stroke="#FE7624" stroke-width="0.634898" stroke-linecap="round" stroke-linejoin="round"></path>
  <path d="M40.0046 70.082H42.4077" stroke="#FE7624" stroke-width="0.634898" stroke-linecap="round" stroke-linejoin="round"></path>
  <path d="M40.0046 71.8213H41.5326" stroke="#FE7624" stroke-width="0.634898" stroke-linecap="round" stroke-linejoin="round"></path>
  <path d="M40.0046 73.5615H43.7854" stroke="#FE7624" stroke-width="0.634898" stroke-linecap="round" stroke-linejoin="round"></path>
  <path d="M38.6587 75.5439H45.5473" stroke="#2E186A" stroke-width="0.634898" stroke-linecap="round" stroke-linejoin="round"></path>
  <path d="M38.7741 77.7161C38.9605 77.7161 39.1116 77.565 39.1116 77.3786C39.1116 77.1921 38.9605 77.041 38.7741 77.041C38.5877 77.041 38.4365 77.1921 38.4365 77.3786C38.4365 77.565 38.5877 77.7161 38.7741 77.7161Z" fill="#2E186A"></path>
  <path d="M38.7741 79.4564C38.9605 79.4564 39.1116 79.3052 39.1116 79.1188C39.1116 78.9324 38.9605 78.7812 38.7741 78.7812C38.5877 78.7812 38.4365 78.9324 38.4365 79.1188C38.4365 79.3052 38.5877 79.4564 38.7741 79.4564Z" fill="#2E186A"></path>
  <path d="M40.0046 77.3789H44.5409" stroke="#FE7624" stroke-width="0.634898" stroke-linecap="round" stroke-linejoin="round"></path>
  <path d="M40.0046 79.1182H42.4077" stroke="#FE7624" stroke-width="0.634898" stroke-linecap="round" stroke-linejoin="round"></path>
  <path d="M57.5639 65.7666H47.415V73.8996H57.5639V65.7666Z" stroke="#2E186A" stroke-width="0.634898" stroke-linecap="round" stroke-linejoin="round"></path>
  <path d="M47.415 73.8996L57.5639 65.7666" stroke="#2E186A" stroke-width="0.634898" stroke-linecap="round" stroke-linejoin="round"></path>
  <path d="M50.1356 75.8086H47.415V78.5291H50.1356V75.8086Z" stroke="#2E186A" stroke-width="0.634898" stroke-linecap="round" stroke-linejoin="round"></path>
  <path d="M50.1356 75.8086L47.415 78.5291" stroke="#2E186A" stroke-width="0.634898" stroke-linecap="round" stroke-linejoin="round"></path>
  <path d="M53.8497 75.8086H51.1292V78.5291H53.8497V75.8086Z" stroke="#2E186A" stroke-width="0.634898" stroke-linecap="round" stroke-linejoin="round"></path>
  <path d="M53.8497 75.8086L51.1292 78.5291" stroke="#2E186A" stroke-width="0.634898" stroke-linecap="round" stroke-linejoin="round"></path>
  <path d="M57.5638 75.8086H54.8433V78.5291H57.5638V75.8086Z" stroke="#2E186A" stroke-width="0.634898" stroke-linecap="round" stroke-linejoin="round"></path>
  <path d="M57.5638 75.8086L54.8433 78.5291" stroke="#2E186A" stroke-width="0.634898" stroke-linecap="round" stroke-linejoin="round"></path>
  <path d="M53.2539 81.709H49.1906V85.257H53.2539V81.709Z" stroke="#FE7624" stroke-width="0.634898" stroke-linecap="round" stroke-linejoin="round"></path>
  <path d="M57.6888 80.375H47.415V85.2563H57.6888V80.375Z" stroke="#2E186A" stroke-width="0.634898" stroke-linecap="round" stroke-linejoin="round"></path>
  <path d="M54.5428 81.876H56.5565" stroke="#FE7624" stroke-width="0.634898" stroke-linecap="round" stroke-linejoin="round"></path>
  <path d="M54.5428 82.9805H56.5565" stroke="#FE7624" stroke-width="0.634898" stroke-linecap="round" stroke-linejoin="round"></path>
  <path d="M47.415 62.6523H50.6213" stroke="#2E186A" stroke-width="0.634898" stroke-linecap="round" stroke-linejoin="round"></path>
  <path d="M51.6508 62.6523H57.3786" stroke="#2E186A" stroke-width="0.634898" stroke-linecap="round" stroke-linejoin="round"></path>
  <path d="M52.5881 52.4053H47.6761V57.3173H52.5881V52.4053Z" fill="#FEBA91"></path>
  <path d="M47.2052 91.7852H41.9197V97.0707H47.2052V91.7852Z" fill="#FEBA91"></path>
  <path d="M44.8625 91.5381H39.9505V96.4501H44.8625V91.5381Z" fill="#FEBA91"></path>
  <path d="M97.36 57.3193H92.448V62.2313H97.36V57.3193Z" fill="#FEBA91"></path>
  <path d="M98.8098 62.625H93.8978V67.537H98.8098V62.625Z" fill="#FEBA91"></path>
  <path d="M100.766 69.1416H95.8544V74.0536H100.766V69.1416Z" fill="#FEBA91"></path>
  <path d="M95.1114 68.0605H90.1994V72.9725H95.1114V68.0605Z" fill="#FEBA91"></path>
  <path d="M92.6555 62.6895H87.7435V67.6014H92.6555V62.6895Z" fill="#FEBA91"></path>
  <path d="M91.6397 56.8467H86.7277V61.7587H91.6397V56.8467Z" fill="#FEBA91"></path>
  <path d="M58.0048 91.2871H53.0928V96.1991H58.0048V91.2871Z" fill="#FEBA91"></path>
  <path d="M51.4739 64.8623H46.562V69.7743H51.4739V64.8623Z" fill="#FEBA91"></path>
  <path d="M60.3826 91.4424H55.0971V96.7279H60.3826V91.4424Z" fill="#FEBA91"></path>
  <path d="M66.7971 84.9463H61.8851V89.8583H66.7971V84.9463Z" fill="#FEBA91"></path>
  <path d="M71.3844 90.4707H66.4724V95.3827H71.3844V90.4707Z" fill="#FEBA91"></path>
  <path d="M58.7604 55.2383H53.8484V60.1503H58.7604V55.2383Z" fill="#FEBA91"></path>
  <path d="M46.7302 55.415H41.8182V60.327H46.7302V55.415Z" fill="#FEBA91"></path>
  <path d="M48.3544 85.582H43.4424V90.494H48.3544V85.582Z" fill="#FEBA91"></path>
  <path d="M66.4232 62.2704C66.3629 62.3624 64.6063 65.1274 64.4254 65.8502C64.2444 66.5729 65.1005 66.6628 66.3301 64.4417C66.3301 64.4417 67.6507 66.1486 68.5882 65.7761C69.0654 65.5867 71.3299 62.7741 71.404 62.1275C71.478 61.481 70.8379 59.0652 69.3384 59.5763C67.839 60.0874 67.2972 60.9551 66.4232 62.2704Z" fill="white" stroke="#2E186A" stroke-width="0.634898" stroke-linecap="round" stroke-linejoin="round"></path>
  <path d="M69.6421 64.4921C69.6421 64.4921 69.5363 63.5758 69.1024 63.9906C68.6686 64.4054 67.8326 65.4974 67.8326 65.4974" stroke="#2E186A" stroke-width="0.634898" stroke-linecap="round" stroke-linejoin="round"></path>
  <path d="M68.9299 63.9072C68.9299 63.9072 68.9426 62.8713 68.1892 63.5612C67.7437 63.9675 67.0855 64.904 67.0855 64.904" stroke="#2E186A" stroke-width="0.634898" stroke-linecap="round" stroke-linejoin="round"></path>
  <path d="M68.1629 63.3354C68.1629 63.3354 67.9428 62.5947 67.5068 63.0105C67.0709 63.4264 66.418 64.3353 66.418 64.3353" stroke="#2E186A" stroke-width="0.634898" stroke-linecap="round" stroke-linejoin="round"></path>
  <path d="M67.4349 60.8945C67.4349 60.8945 66.4952 63.286 66.6338 63.5272C66.8264 63.8648 67.7978 63.4881 68.2676 62.4257C68.2676 62.4257 69.22 63.1601 69.9607 62.7527" fill="white"></path>
  <path d="M67.4349 60.8945C67.4349 60.8945 66.4952 63.286 66.6338 63.5272C66.8264 63.8648 67.7978 63.4881 68.2676 62.4257C68.2676 62.4257 69.22 63.1601 69.9607 62.7527" stroke="#2E186A" stroke-width="0.634898" stroke-linecap="round" stroke-linejoin="round"></path>
  <path d="M101.335 48.7157C101.335 48.7157 97.6445 41.481 95.671 39.1372C93.9695 36.5288 91.7357 34.3046 88.7728 34.7532C84.8343 35.35 77.0812 39.5319 75.9913 42.4503C75.1765 44.6322 72.1544 52.487 72.1544 52.487L67.7979 59.2592L72.5596 62.9057L77.2103 55.8837L79.3901 50.8363L89.1072 50.7759L99.7693 50.8743C100.933 50.8564 101.603 49.7252 101.335 48.7157Z" fill="url(#paint0_linear_16658_5920)"></path>
  <path d="M87.0151 47.4593L92.9461 46.1662L89.9812 42.7061" stroke="#FFFDFD" stroke-width="0.634898" stroke-linecap="round" stroke-linejoin="round"></path>
  <path d="M84.9992 48.3715C84.149 48.3559 83.299 48.4165 82.4596 48.5525C81.6977 48.6858 80.4036 48.9059 80.3126 49.0816C80.101 49.5048 81.3591 49.6943 81.8469 49.3419" fill="white"></path>
  <path d="M84.9992 48.3715C84.149 48.3559 83.299 48.4165 82.4596 48.5525C81.6977 48.6858 80.4036 48.9059 80.3126 49.0816C80.101 49.5048 81.3591 49.6943 81.8469 49.3419" stroke="#2E186A" stroke-width="0.634898" stroke-linecap="round" stroke-linejoin="round"></path>
  <path d="M81.9231 49.9835C81.2216 50.1496 80.865 50.1168 80.9708 49.7719C81.0491 49.5253 82.7125 48.6576 83.0554 48.5571C83.3982 48.4566 86.4955 48.0068 86.4955 48.0068L88.0372 50.9358L83.4109 51.0099C82.3062 51.0893 82.4935 50.5337 82.9157 50.3835C83.3379 50.2332 84.0987 49.8787 84.2321 49.9041C84.2321 49.9041 83.0988 50.2216 82.6321 50.521C82.2829 50.6597 81.793 50.4364 81.7253 50.3306C81.6575 50.2247 81.9369 49.9327 82.466 49.6639C82.864 49.4706 83.2736 49.302 83.6924 49.1592" fill="white"></path>
  <path d="M81.9231 49.9835C81.2216 50.1496 80.865 50.1168 80.9708 49.7719C81.0491 49.5253 82.7125 48.6576 83.0554 48.5571C83.3982 48.4566 86.4955 48.0068 86.4955 48.0068L88.0372 50.9358L83.4109 51.0099C82.3062 51.0893 82.4935 50.5337 82.9157 50.3835C83.3379 50.2332 84.0987 49.8787 84.2321 49.9041C84.2321 49.9041 83.0988 50.2216 82.6321 50.521C82.2829 50.6597 81.793 50.4364 81.7253 50.3306C81.6575 50.2247 81.9369 49.9327 82.466 49.6639C82.864 49.4706 83.2736 49.302 83.6924 49.1592" stroke="#2E186A" stroke-width="0.634898" stroke-linecap="round" stroke-linejoin="round"></path>
  <path d="M78.929 35.9664L80.3501 38.7674L79.2411 39.4764C79.2792 39.7134 81.714 42.4297 84.8663 40.9409C86.934 39.9642 86.48 37.6341 86.3795 35.6162L84.8875 36.4056L82.9955 31.8174L78.929 35.9664Z" fill="white" stroke="#2E186A" stroke-width="0.634898" stroke-linecap="round" stroke-linejoin="round"></path>
  <path d="M82.803 32.4613H83.1818C83.1818 32.4613 85.3363 32.2709 84.7691 30.345C84.3395 28.8816 82.9236 29.2731 82.2644 29.5471" fill="white"></path>
  <path d="M82.803 32.4613H83.1818C83.1818 32.4613 85.3363 32.2709 84.7691 30.345C84.3395 28.8816 82.9236 29.2731 82.2644 29.5471" stroke="#2E186A" stroke-width="0.634898" stroke-linecap="round" stroke-linejoin="round"></path>
  <path d="M75.1291 33.2095C75.4 34.0867 77.0962 37.9776 79.9014 37.3575C82.7066 36.7374 83.6495 33.6148 83.0198 30.9482C82.3902 28.2816 80.5014 26.5039 78.7142 26.8584C76.9269 27.2129 73.1652 26.8605 75.1291 33.2095Z" fill="white" stroke="#2E186A" stroke-width="0.634898" stroke-linecap="round" stroke-linejoin="round"></path>
  <path d="M79.2845 34.5207C78.9883 34.8057 78.6078 34.9872 78.1999 35.0382C78.1732 35.0414 78.1476 35.051 78.1254 35.066C78.1031 35.0811 78.0847 35.1013 78.0718 35.1248C78.0589 35.1484 78.0518 35.1747 78.051 35.2016C78.0503 35.2285 78.056 35.2552 78.0676 35.2794C78.2041 35.5852 78.5353 36.0561 79.2316 35.8011C79.9607 35.5355 79.7279 34.8942 79.549 34.5694C79.5371 34.5464 79.52 34.5264 79.4991 34.5109C79.4783 34.4955 79.4542 34.485 79.4287 34.4804C79.4031 34.4757 79.3769 34.4769 79.3519 34.4838C79.3269 34.4908 79.3039 34.5035 79.2845 34.5207Z" fill="#2E186A"></path>
  <path d="M78.2421 33.7879L77.4305 34.0662L76.8221 30.6123" stroke="#2E186A" stroke-width="0.634898" stroke-linecap="round" stroke-linejoin="round"></path>
  <path d="M78.911 30.4392C78.911 30.4392 78.1279 30.0159 77.7544 30.6096" stroke="#2E186A" stroke-width="0.634898" stroke-linecap="round" stroke-linejoin="round"></path>
  <path d="M76.0646 31.1715C76.0646 31.1715 75.2319 30.8541 74.9462 31.5017" stroke="#2E186A" stroke-width="0.634898" stroke-linecap="round" stroke-linejoin="round"></path>
  <path d="M78.7897 32.753C78.9355 32.6942 78.9781 32.4594 78.885 32.2285C78.7919 31.9976 78.5982 31.8581 78.4524 31.9169C78.3066 31.9758 78.2639 32.2106 78.3571 32.4415C78.4502 32.6724 78.6439 32.8118 78.7897 32.753Z" fill="#2E186A"></path>
  <path d="M76.2214 33.8321C76.3672 33.7733 76.4099 33.5385 76.3167 33.3076C76.2236 33.0767 76.0299 32.9372 75.8841 32.996C75.7383 33.0549 75.6956 33.2897 75.7888 33.5206C75.8819 33.7515 76.0756 33.8909 76.2214 33.8321Z" fill="#2E186A"></path>
  <path d="M88.0021 38.7812C88.5098 37.8108 88.0172 36.551 86.9018 35.9675C85.7865 35.3839 84.4707 35.6974 83.963 36.6678C83.4552 37.6382 83.9478 38.8979 85.0632 39.4815C86.1785 40.0651 87.4943 39.7515 88.0021 38.7812Z" fill="#2E186A"></path>
  <path d="M87.8266 42.0701C88.2799 41.2038 87.8401 40.0792 86.8444 39.5582C85.8486 39.0372 84.674 39.3171 84.2207 40.1834C83.7674 41.0497 84.2072 42.1743 85.2029 42.6953C86.1987 43.2163 87.3733 42.9364 87.8266 42.0701Z" fill="#2E186A"></path>
  <path d="M86.5488 45.0755C86.151 45.7792 85.1732 45.9844 84.3574 45.5326C83.5415 45.0808 83.2103 44.1464 83.6082 43.4417C84.0061 42.7369 84.9912 42.4798 85.8028 42.9306C86.6144 43.3814 86.9478 44.3718 86.5488 45.0755Z" fill="#2E186A"></path>
  <path d="M86.079 47.6597C85.479 48.2248 85.5023 48.757 85.6663 49.1411C85.6831 49.1805 85.6876 49.224 85.6791 49.266C85.6707 49.3079 85.6497 49.3463 85.619 49.3761C85.5883 49.4059 85.5493 49.4257 85.5071 49.4329C85.4649 49.44 85.4215 49.4342 85.3827 49.4162C84.3775 48.9126 82.7553 47.8428 83.4569 46.4312C83.787 45.7645 84.6314 45.4619 85.4219 45.791C86.2123 46.1201 86.6197 47.1486 86.079 47.6597Z" fill="#2E186A"></path>
  <path d="M86.9223 36.0149L84.7764 35.9229" stroke="#FE7624" stroke-width="0.846531" stroke-linecap="round" stroke-linejoin="round"></path>
  <path d="M86.9605 39.6487L85.1542 39.4551" stroke="#FE7624" stroke-width="0.846531" stroke-linecap="round" stroke-linejoin="round"></path>
  <path d="M85.7521 42.9471L85.204 42.8096" stroke="#FE7624" stroke-width="0.846531" stroke-linecap="round" stroke-linejoin="round"></path>
  <path d="M85.2739 45.6851L84.7183 45.5771" stroke="#FE7624" stroke-width="0.846531" stroke-linecap="round" stroke-linejoin="round"></path>
  <path d="M86.3256 30.4504C85.661 30.0811 85.9245 30.6493 85.2674 30.7572C85.1891 32.282 83.9246 32.3254 83.3627 32.2683C82.9394 33.4323 83.5373 34.847 84.8198 35.5592C86.2303 36.3422 87.5784 35.8015 88.2694 34.5793C88.9604 33.3571 87.7361 31.2334 86.3256 30.4504Z" fill="#2E186A"></path>
  <path d="M84.4068 26.4502C83.5052 25.446 80.3699 24.9466 78.8609 25.9751C75.587 25.2884 71.348 25.2429 71.9617 29.8628C71.9762 29.9769 72.016 30.0864 72.0781 30.1833C72.1402 30.2801 72.2231 30.3619 72.3208 30.4228C72.4185 30.4836 72.5285 30.5218 72.6428 30.5348C72.7572 30.5478 72.8729 30.5351 72.9818 30.4977L81.4312 27.901C81.87 28.3582 82.2307 28.8844 82.4989 29.4586C83.2142 29.2099 84.3877 29.0353 84.7718 30.3443C85.3009 32.1505 83.4438 32.432 83.2068 32.4606C83.2179 33.0985 83.1334 33.7345 82.956 34.3473C84.8808 34.2415 86.7654 33.7124 86.8712 32.0257C86.9961 29.9644 85.666 27.8481 84.4068 26.4502Z" fill="#2E186A"></path>
  <path d="M80.1864 33.6661C81.0975 33.2612 81.3924 31.9346 80.8451 30.7031C80.2979 29.4716 79.1156 28.8015 78.2045 29.2064C77.2935 29.6112 76.9985 30.9378 77.5458 32.1693C78.0931 33.4008 79.2753 34.0709 80.1864 33.6661Z" stroke="#FE7624" stroke-width="0.476174" stroke-linecap="round" stroke-linejoin="round"></path>
  <path d="M75.7899 35.5059C76.7009 35.101 76.9959 33.7745 76.4486 32.543C75.9013 31.3114 74.7191 30.6413 73.808 31.0462C72.8969 31.4511 72.602 32.7776 73.1493 34.0092C73.6965 35.2407 74.8788 35.9108 75.7899 35.5059Z" stroke="#FE7624" stroke-width="0.476174" stroke-linecap="round" stroke-linejoin="round"></path>
  <path d="M76.201 31.985L77.2402 31.5469" stroke="#FE7624" stroke-width="0.476174" stroke-linecap="round" stroke-linejoin="round"></path>
  <path d="M80.4368 29.957L82.9944 29.2734" stroke="#FE7624" stroke-width="0.476174" stroke-linecap="round" stroke-linejoin="round"></path>
  <path d="M80.7351 70.543L80.298 71.2572L80.6155 72.4276L81.4694 72.7302C81.4694 72.7302 82.1488 72.4794 81.626 72.0466C81.1033 71.6138 81.1361 71.7694 81.1361 71.7694L81.2916 71.2191L82.5286 70.6848" fill="white"></path>
  <path d="M80.7351 70.543L80.298 71.2572L80.6155 72.4276L81.4694 72.7302C81.4694 72.7302 82.1488 72.4794 81.626 72.0466C81.1033 71.6138 81.1361 71.7694 81.1361 71.7694L81.2916 71.2191L82.5286 70.6848" stroke="#2E186A" stroke-width="0.634898" stroke-linecap="round" stroke-linejoin="round"></path>
  <path d="M80.0706 70.7988L79.6336 71.5131L79.9511 72.6845L80.805 72.9861C80.805 72.9861 81.4843 72.7363 80.9616 72.3025C80.4389 71.8686 80.4717 72.0252 80.4717 72.0252L80.6272 71.475L81.8642 70.9459" fill="white"></path>
  <path d="M80.0706 70.7988L79.6336 71.5131L79.9511 72.6845L80.805 72.9861C80.805 72.9861 81.4843 72.7363 80.9616 72.3025C80.4389 71.8686 80.4717 72.0252 80.4717 72.0252L80.6272 71.475L81.8642 70.9459" stroke="#2E186A" stroke-width="0.634898" stroke-linecap="round" stroke-linejoin="round"></path>
  <path d="M79.3552 70.8418L78.8801 71.6195L79.2293 72.8893L80.1594 73.2184C80.1594 73.2184 80.9001 72.9454 80.3287 72.4777C79.7573 72.01 79.7996 72.1751 79.7996 72.1751L79.9689 71.5762L81.3149 70.9963" fill="white"></path>
  <path d="M79.3552 70.8418L78.8801 71.6195L79.2293 72.8893L80.1594 73.2184C80.1594 73.2184 80.9001 72.9454 80.3287 72.4777C79.7573 72.01 79.7996 72.1751 79.7996 72.1751L79.9689 71.5762L81.3149 70.9963" stroke="#2E186A" stroke-width="0.634898" stroke-linecap="round" stroke-linejoin="round"></path>
  <path d="M83.2313 70.1896C82.4398 70.1144 81.5097 70.0234 81.5097 70.0234C81.5097 70.0234 79.605 70.1853 79.3066 70.2002C79.0082 70.215 77.4876 70.7864 77.5299 70.9546C77.6357 71.3652 78.8738 71.2414 79.5214 71.053C80.169 70.8647 81.5224 71.2784 81.5224 71.2784C81.5224 71.2784 81.7837 72.4805 81.5287 72.4551C81.2737 72.4297 79.8886 72.1683 79.6314 72.5768C79.3743 72.9852 79.4314 73.327 79.9775 73.3175C80.5235 73.308 81.2472 73.7503 81.2472 73.7503C81.2472 73.7503 83.2377 73.6244 83.7445 73.4328C84.2514 73.2413 85.7392 78.1343 87.3264 81.3998C88.9136 84.6653 90.1538 85.1171 91.8701 84.0621C93.5293 83.0431 91.7961 80.0188 90.9665 78.9004C90.3072 78.0115 86.5846 73.2053 85.0175 71.1832C84.8034 70.9044 84.5345 70.6723 84.2273 70.5014C83.9201 70.3306 83.5811 70.2244 83.2313 70.1896Z" fill="white" stroke="#2E186A" stroke-width="0.634898" stroke-linecap="round" stroke-linejoin="round"></path>
  <path d="M113.992 85.7269C114.02 84.9141 113.816 84.1101 113.404 83.4091C112.992 82.708 112.388 82.1389 111.664 81.7683L103.08 77.0648C102.415 76.6999 101.68 76.4799 100.923 76.4192C100.166 76.3585 99.4054 76.4584 98.6901 76.7124L93.2522 78.6393L86.2969 71.248L81.5637 76.2119L90.3983 86.3703C90.6771 86.6907 91.0473 86.9181 91.4591 87.0218C91.871 87.1254 92.3047 87.1004 92.702 86.9501L95.8902 85.7449L91.5517 99.0778L98.8531 99.2195C98.8668 99.3349 98.8742 99.4016 98.8742 99.4016H108.198L110.335 99.4428V99.4016H111.898C112.201 99.4019 112.5 99.3419 112.779 99.225C113.058 99.1082 113.311 98.9368 113.523 98.721C113.735 98.5052 113.902 98.2493 114.014 97.9682C114.125 97.6872 114.18 97.3866 114.174 97.0842L113.992 85.7269Z" fill="#5D21D1"></path>
  <path d="M96.8883 95.8462C95.9443 95.81 94.9991 95.8696 94.0672 96.024C93.1995 96.1753 91.7265 96.4271 91.5794 96.6515C91.2303 97.1805 92.5572 97.444 93.1847 97.0091" fill="white"></path>
  <path d="M96.8883 95.8462C95.9443 95.81 94.9991 95.8696 94.0672 96.024C93.1995 96.1753 91.7265 96.4271 91.5794 96.6515C91.2303 97.1805 92.5572 97.444 93.1847 97.0091" stroke="#2E186A" stroke-width="0.634898" stroke-linecap="round" stroke-linejoin="round"></path>
  <path d="M93.1 97.8151C92.2884 98.0109 91.9053 97.9622 92.1191 97.5262C92.2704 97.2173 94.3201 96.157 94.7222 96.0374C95.1243 95.9178 98.6279 95.4131 98.6279 95.4131L99.5262 99.1357H94.4471C93.2185 99.2151 93.573 98.5167 94.0746 98.3368C94.5761 98.1569 95.502 97.7241 95.6407 97.759C95.6407 97.759 94.318 98.1357 93.7275 98.4997C93.3042 98.668 92.8333 98.377 92.7878 98.2426C92.7423 98.1082 93.1296 97.7442 93.7719 97.4172C94.2531 97.1836 94.7478 96.979 95.2534 96.8046" fill="white"></path>
  <path d="M93.1 97.8151C92.2884 98.0109 91.9053 97.9622 92.1191 97.5262C92.2704 97.2173 94.3201 96.157 94.7222 96.0374C95.1243 95.9178 98.6279 95.4131 98.6279 95.4131L99.5262 99.1357H94.4471C93.2185 99.2151 93.573 98.5167 94.0746 98.3368C94.5761 98.1569 95.502 97.7241 95.6407 97.759C95.6407 97.759 94.318 98.1357 93.7275 98.4997C93.3042 98.668 92.8333 98.377 92.7878 98.2426C92.7423 98.1082 93.1296 97.7442 93.7719 97.4172C94.2531 97.1836 94.7478 96.979 95.2534 96.8046" stroke="#2E186A" stroke-width="0.634898" stroke-linecap="round" stroke-linejoin="round"></path>
  <path d="M99.1884 95.2447L107.663 93.3633L107.337 88.8291" stroke="#FFFDFD" stroke-width="0.634898" stroke-linecap="round" stroke-linejoin="round"></path>
  <path d="M109.559 78.9479C109.864 77.5722 108.996 76.21 107.62 75.9053C106.245 75.6005 104.882 76.4687 104.578 77.8444L104.033 80.3042C103.728 81.6799 104.596 83.0421 105.972 83.3468C107.348 83.6516 108.71 82.7834 109.014 81.4077L109.559 78.9479Z" fill="white" stroke="#2E186A" stroke-width="0.634898" stroke-linecap="round" stroke-linejoin="round"></path>
  <path d="M111.589 74.5452C111.589 74.5452 113.628 70.5729 109.63 68.4502C109.257 68.2523 106.684 66.9508 105.448 69.0333C104.622 70.4247 104.022 72.0321 103.649 73.3104C103.649 73.3178 102.9 75.7113 103.403 77.3462C103.907 78.9811 106.032 79.5461 107.35 79.2583C108.669 78.9705 108.983 78.6996 109.547 78.0287C110.111 77.3578 111.589 74.5526 111.589 74.5526V74.5452Z" fill="white" stroke="#2E186A" stroke-width="0.634898" stroke-linecap="round" stroke-linejoin="round"></path>
  <path d="M103.645 73.3069C104.022 72.0286 104.622 70.4213 105.443 69.0298C105.482 68.9663 105.522 68.9049 105.562 68.8467C104.889 68.324 103.803 69.4044 103.053 71.6265C102.67 72.7757 101.612 73.3534 101.612 73.3534C102.423 74.0645 103.154 73.7555 103.636 73.3534L103.645 73.3069Z" fill="#2E186A"></path>
  <path d="M105.535 72.5693L104.674 74.7343L105.384 74.9946" stroke="#2E186A" stroke-width="0.634898" stroke-linecap="round" stroke-linejoin="round"></path>
  <path d="M104.955 72.4224C105.031 72.2457 105 72.0629 104.886 72.014C104.773 71.9652 104.619 72.0688 104.543 72.2455C104.467 72.4222 104.498 72.605 104.612 72.6539C104.726 72.7027 104.88 72.5991 104.955 72.4224Z" fill="#2E186A"></path>
  <path d="M106.935 73.2734C106.976 73.0856 106.912 72.9118 106.791 72.8851C106.67 72.8584 106.538 72.9889 106.497 73.1766C106.455 73.3644 106.52 73.5383 106.641 73.565C106.762 73.5917 106.893 73.4611 106.935 73.2734Z" fill="#2E186A"></path>
  <path d="M108.435 72.5692C108.378 72.3938 108.275 72.2369 108.137 72.1148C107.999 71.9927 107.831 71.9099 107.65 71.875" stroke="#2E186A" stroke-width="0.634898" stroke-linecap="round" stroke-linejoin="round"></path>
  <path d="M105.769 70.9806C105.769 70.9806 105.144 70.407 104.674 70.7435" stroke="#2E186A" stroke-width="0.634898" stroke-linecap="round" stroke-linejoin="round"></path>
  <path d="M115.859 73.3672L113.7 72.272C113.971 70.6625 113.806 68.1758 110.787 66.7695C106.072 64.5781 104.347 69.3017 104.347 69.3017L115.156 74.7566C115.341 74.8502 115.555 74.8666 115.752 74.8023C115.948 74.738 116.111 74.5982 116.205 74.4137C116.298 74.2292 116.315 74.0151 116.251 73.8184C116.186 73.6217 116.047 73.4587 115.862 73.3651L115.859 73.3672Z" fill="#FE7624"></path>
  <path d="M105.028 76.5798C104.546 75.5988 106.794 76.2623 106.794 76.2623C106.794 76.2623 106.162 78.5225 105.028 76.5798Z" fill="#2E186A"></path>
  <path d="M113.445 73.8971L108.887 71.5967C108.358 73.2453 107.694 76.5584 110.517 77.4272C110.517 77.4272 112.725 78.1594 113.359 77.4335C113.359 77.4335 111.844 76.3224 112.188 75.4145C112.188 75.4145 113.739 77.7086 115.557 76.4907C115.557 76.4907 113.405 75.8008 113.445 73.8971Z" fill="#2E186A"></path>
  <path d="M42.2038 82.3752C42.2038 82.3752 44.3381 81.7984 45.5508 80.6398C46.2735 79.9488 47.2015 79.0155 47.1856 78.7118C47.1539 78.1436 45.9592 79.0176 45.7645 79.1351" fill="white"></path>
  <path d="M42.2038 82.3752C42.2038 82.3752 44.3381 81.7984 45.5508 80.6398C46.2735 79.9488 47.2015 79.0155 47.1856 78.7118C47.1539 78.1436 45.9592 79.0176 45.7645 79.1351" stroke="#2E186A" stroke-width="0.634898" stroke-linecap="round" stroke-linejoin="round"></path>
  <path d="M43.3626 80.4828C43.3626 80.4828 44.3742 79.6067 44.7382 78.8786C45.1022 78.1506 45.335 77.5919 45.2122 77.4935C45.0895 77.3951 44.4377 77.5697 44.1731 78.0014C43.8832 78.7326 42.698 79.7209 42.698 79.7209C42.8409 79.6638 43.57 78.8575 43.9022 78.3559C44.2345 77.8543 44.2504 77.0745 43.2197 77.9474C43.2197 77.9474 42.1309 78.9167 41.7108 79.2067C41.7108 79.2067 39.8061 79.9209 39.3331 80.7315C39.0156 81.2775 36.4983 85.4594 34.5142 88.1905C33.2952 89.4666 30.9873 97.2907 34.747 96.4209C35.53 96.2653 36.4083 95.5161 36.6697 94.8537L41.6568 82.6383C42.807 82.1611 43.5869 81.651 44.0906 81.2024C44.7371 80.6225 46.5519 78.2067 46.5371 77.9496C46.4958 77.2639 45.3731 77.5528 44.8017 78.7961" fill="white"></path>
  <path d="M43.3626 80.4828C43.3626 80.4828 44.3742 79.6067 44.7382 78.8786C45.1022 78.1506 45.335 77.5919 45.2122 77.4935C45.0895 77.3951 44.4377 77.5697 44.1731 78.0014C43.8832 78.7326 42.698 79.7209 42.698 79.7209C42.8409 79.6638 43.57 78.8575 43.9022 78.3559C44.2345 77.8543 44.2504 77.0745 43.2197 77.9474C43.2197 77.9474 42.1309 78.9167 41.7108 79.2067C41.7108 79.2067 39.8061 79.9209 39.3331 80.7315C39.0156 81.2775 36.4983 85.4594 34.5142 88.1905C33.2952 89.4666 30.9873 97.2907 34.747 96.4209C35.53 96.2653 36.4083 95.5161 36.6697 94.8537L41.6568 82.6383C42.807 82.1611 43.5869 81.651 44.0906 81.2024C44.7371 80.6225 46.5519 78.2067 46.5371 77.9496C46.4958 77.2639 45.3731 77.5528 44.8017 78.7961" stroke="#2E186A" stroke-width="0.634898" stroke-linecap="round" stroke-linejoin="round"></path>
  <path d="M34.6604 87.1972L37.4307 82.1582L41.7935 83.1889L38.0529 92.4689L34.6604 87.1972Z" fill="#5D21D1"></path>
  <path d="M24.9793 99.0515C26.0587 95.8135 28.5358 87.4826 26.4925 84.6235C24.2704 81.6172 20.2568 81.7664 20.2568 81.7664L12.93 81.4987V81.4648H11.7364C10.4455 81.4648 8.68785 82.8405 8.49526 84.3303C8.14184 87.0668 6.39587 90.837 5.66468 93.985C5.1145 95.6491 4.65528 97.3418 4.28906 99.0558" fill="#5D21D1"></path>
  <path d="M16.1674 81.2114C15.5135 81.2928 14.8574 80.5204 14.6955 79.4707C14.605 78.966 14.6668 78.4459 14.8733 77.9766" stroke="#FE7624" stroke-width="0.634898" stroke-linecap="round" stroke-linejoin="round"></path>
  <path d="M25.2168 80.894C24.5629 80.9755 23.9068 80.203 23.7439 79.1533C23.6533 78.6487 23.7152 78.1285 23.9217 77.6592" stroke="#FE7624" stroke-width="0.634898" stroke-linecap="round" stroke-linejoin="round"></path>
  <path d="M15.4404 70.3978C16.834 69.3682 17.7567 63.9768 13.978 60.3611C10.1517 56.6998 6.96663 60.4405 6.25872 61.4267C5.55081 62.4129 5.01749 65.1271 8.32637 67.6815C11.6352 70.2359 13.8479 71.5723 15.4404 70.3978Z" fill="#2E186A"></path>
  <path d="M17.4635 72.7846L17.3768 72.8407C17.12 73.0002 16.8122 73.0561 16.5157 72.9972C16.2192 72.9383 15.9562 72.7688 15.78 72.5232L14.762 71.0989C14.6753 70.9821 14.6135 70.8487 14.5803 70.707C14.5471 70.5653 14.5434 70.4183 14.5693 70.2752C14.5952 70.132 14.6501 69.9956 14.7308 69.8745C14.8114 69.7533 14.9161 69.65 15.0382 69.571L15.125 69.5149C15.3817 69.3557 15.6892 69.2999 15.9855 69.3588C16.2817 69.4178 16.5445 69.587 16.7207 69.8323L17.7387 71.2566C17.8256 71.3733 17.8876 71.5067 17.9209 71.6483C17.9543 71.79 17.9581 71.937 17.9324 72.0803C17.9066 72.2235 17.8517 72.3599 17.771 72.4811C17.6904 72.6022 17.5857 72.7055 17.4635 72.7846Z" fill="#FE7624"></path>
  <path d="M16.7757 77.2952C17.0669 76.6844 16.7821 75.9408 16.1396 75.6345C15.4971 75.3282 14.7401 75.575 14.4489 76.1859C14.1577 76.7968 14.4424 77.5403 15.085 77.8467C15.7275 78.153 16.4844 77.9061 16.7757 77.2952Z" fill="white" stroke="#2E186A" stroke-width="0.634898" stroke-linecap="round" stroke-linejoin="round"></path>
  <path d="M25.6204 76.8812C25.9116 76.2703 25.6269 75.5268 24.9844 75.2204C24.3418 74.9141 23.5849 75.161 23.2936 75.7719C23.0024 76.3827 23.2872 77.1263 23.9297 77.4326C24.5722 77.7389 25.3292 77.492 25.6204 76.8812Z" fill="white" stroke="#2E186A" stroke-width="0.634898" stroke-linecap="round" stroke-linejoin="round"></path>
  <path d="M20.8422 80.3811L20.9131 82.2096L22.4453 82.5472C22.531 82.7958 22.6252 87.1121 18.6814 86.5756C16.0942 86.2232 14.8847 83.9069 14.1917 81.7895L16.3863 81.943L16.3969 76.7939L20.8422 80.3811Z" fill="white" stroke="#2E186A" stroke-width="0.634898" stroke-linecap="round" stroke-linejoin="round"></path>
  <path d="M21.0318 81.414C23.2418 81.008 24.6103 78.3756 24.0883 75.5344C23.5664 72.6932 21.3516 70.7192 19.1416 71.1252C16.9315 71.5312 15.563 74.1636 16.085 77.0048C16.607 79.8459 18.8217 81.82 21.0318 81.414Z" fill="white" stroke="#2E186A" stroke-width="0.634898" stroke-linecap="round" stroke-linejoin="round"></path>
  <path d="M20.4507 77.5073L21.2264 77.4819C21.245 77.4811 21.2632 77.4761 21.2797 77.4674C21.2962 77.4586 21.3105 77.4462 21.3215 77.4312C21.3326 77.4162 21.3401 77.3989 21.3436 77.3806C21.3471 77.3622 21.3465 77.3434 21.3417 77.3253L20.7841 75.209" stroke="#2E186A" stroke-width="0.634898" stroke-linecap="round" stroke-linejoin="round"></path>
  <path d="M18.3038 74.1869C18.3038 74.1869 18.9895 73.571 19.563 74.0811" stroke="#2E186A" stroke-width="0.634898" stroke-linecap="round" stroke-linejoin="round"></path>
  <path d="M21.4349 73.9924C21.4349 73.9924 22.3132 73.6644 22.6666 74.3342" stroke="#2E186A" stroke-width="0.634898" stroke-linecap="round" stroke-linejoin="round"></path>
  <path d="M19.7719 75.9212C19.7803 75.6653 19.6483 75.4534 19.4771 75.4479C19.306 75.4423 19.1605 75.6452 19.1522 75.901C19.1439 76.1569 19.2759 76.3688 19.447 76.3743C19.6182 76.3799 19.7636 76.177 19.7719 75.9212Z" fill="#2E186A"></path>
  <path d="M22.3895 76.4903C22.5597 76.478 22.6826 76.2605 22.6641 76.0046C22.6456 75.7488 22.4926 75.5513 22.3224 75.5636C22.1522 75.576 22.0292 75.7934 22.0478 76.0493C22.0663 76.3051 22.2193 76.5026 22.3895 76.4903Z" fill="#2E186A"></path>
  <path d="M24.7628 76.9442C25.4241 76.8384 25.9775 77.7209 26.1384 78.7833C26.2992 79.8457 25.8992 80.7938 25.2379 80.8911H25.2146" stroke="#FE7624" stroke-width="0.634898" stroke-linecap="round" stroke-linejoin="round"></path>
  <path d="M15.5981 77.3641C16.2594 77.2583 16.9293 78.0392 17.0933 79.1016C17.2573 80.164 16.8531 81.1047 16.1917 81.2105C16.184 81.2116 16.1762 81.2116 16.1684 81.2105" stroke="#FE7624" stroke-width="0.634898" stroke-linecap="round" stroke-linejoin="round"></path>
  <path d="M20.6053 79.0396C20.6053 79.0396 18.836 80.1369 18.7461 77.7539L20.6053 79.0396Z" stroke="#2E186A" stroke-width="0.634898" stroke-linecap="round" stroke-linejoin="round"></path>
  <path d="M18.617 69.9114L18.6075 69.9241C17.2837 70.1167 15.8054 70.7241 14.9822 71.6087C13.524 73.1769 14.1939 76.544 15.6795 76.7725C15.8026 76.791 15.9266 76.803 16.0509 76.8085C16.0382 76.7239 16.0266 76.6392 16.0171 76.5535C15.9823 76.2476 15.9689 75.9396 15.9769 75.6318C18.0011 74.8753 17.998 71.8415 17.9937 71.5875C18.4233 71.9293 18.9863 72.5155 18.8403 73.1579L23.3195 73.4404C23.7718 74.2222 24.0565 75.0896 24.1554 75.9874V76.0234C24.5787 75.4234 24.5935 74.489 24.2422 73.4986L25.7564 73.5938C25.7564 73.5938 27.1447 68.4786 18.617 69.9114Z" fill="#2E186A"></path>
  <path d="M23.189 92.8783L13.6613 92.8561L14.1914 88.7451" stroke="white" stroke-width="0.634898" stroke-linecap="round" stroke-linejoin="round"></path>
  <path d="M6.24886 94.4111C5.8256 96.0788 7.21179 98.084 8.93131 98.1211L22.7604 98.1136" stroke="white" stroke-width="0.634898" stroke-linecap="round" stroke-linejoin="round"></path>
  <path d="M13.7502 92.8705C13.7502 92.8705 12.3206 92.2356 11.2889 93.7689" stroke="white" stroke-width="0.634898" stroke-linecap="round" stroke-linejoin="round"></path>
  <path d="M13.7206 92.3838C13.7206 92.3838 12.3937 91.1902 10.7292 92.5616" stroke="white" stroke-width="0.634898" stroke-linecap="round" stroke-linejoin="round"></path>
  <path d="M11.7205 96.531L18.7129 96.604L21.0165 85.7705C21.0354 85.659 21.0925 85.5576 21.178 85.4836C21.2636 85.4097 21.3722 85.3678 21.4852 85.3652L38.5217 85.6245C38.8317 85.6245 39.0613 85.9557 38.9904 86.2911L36.8244 97.8452C36.6741 98.5595 35.7662 99.115 35.1313 99.1044C30.9463 99.0356 14.0919 98.7965 13.5988 98.787C11.3332 98.7542 11.7205 96.531 11.7205 96.531Z" fill="#FE7624"></path>
  <path d="M46.6277 65.6297C46.6277 65.6297 47.9356 65.2065 48.5451 64.4076C49.8911 62.6383 45.9262 65.0298 45.3283 64.2626" fill="white"></path>
  <path d="M46.6277 65.6297C46.6277 65.6297 47.9356 65.2065 48.5451 64.4076C49.8911 62.6383 45.9262 65.0298 45.3283 64.2626" stroke="#2E186A" stroke-width="0.634898" stroke-linecap="round" stroke-linejoin="round"></path>
  <path d="M37.7318 54.6131L35.8694 59.1261C35.8694 59.1261 40.0724 62.4466 43.1559 63.1916C45.813 63.9598 46.0267 64.3291 46.0267 64.3291C46.0267 64.3291 47.0997 66.5163 47.2161 67.3205C47.3325 68.1247 47.7568 70.7405 47.3388 70.7987C47.0415 70.8389 46.5484 69.5501 46.3188 68.8771L44.1686 68.5036C44.1686 68.5036 44.0374 67.8687 43.8384 67.566C43.43 66.9481 42.7919 66.3565 42.8035 65.8857C42.8035 65.8857 38.6005 66.2116 31.5627 62.0308C30.8378 61.6001 30.5733 60.6657 30.5246 59.8245C30.405 57.7473 30.7585 53.5972 32.479 50.665L37.7318 54.6131Z" fill="white" stroke="#2E186A" stroke-width="0.634898" stroke-linecap="round" stroke-linejoin="round"></path>
  <path d="M46.5854 67.3164C46.5854 67.3164 46.504 69.2433 45.8775 69.4401C45.2511 69.637 45.1696 69.0994 45.1696 69.0994" fill="white"></path>
  <path d="M46.5854 67.3164C46.5854 67.3164 46.504 69.2433 45.8775 69.4401C45.2511 69.637 45.1696 69.0994 45.1696 69.0994" stroke="#2E186A" stroke-width="0.634898" stroke-linecap="round" stroke-linejoin="round"></path>
  <path d="M45.8118 67.3086C45.8118 67.3086 45.5928 69.0175 44.9537 69.1678C44.3145 69.318 44.2722 68.7752 44.2722 68.7752" fill="white"></path>
  <path d="M45.8118 67.3086C45.8118 67.3086 45.5928 69.0175 44.9537 69.1678C44.3145 69.318 44.2722 68.7752 44.2722 68.7752" stroke="#2E186A" stroke-width="0.634898" stroke-linecap="round" stroke-linejoin="round"></path>
  <path d="M44.8586 67.2764C44.8586 67.2764 44.5633 69.3281 43.7867 68.6192C43.01 67.9102 43.0576 67.5123 43.0576 67.5123C43.0576 67.5123 43.3613 66.9325 43.9814 67.7758" fill="white"></path>
  <path d="M44.8586 67.2764C44.8586 67.2764 44.5633 69.3281 43.7867 68.6192C43.01 67.9102 43.0576 67.5123 43.0576 67.5123C43.0576 67.5123 43.3613 66.9325 43.9814 67.7758" stroke="#2E186A" stroke-width="0.634898" stroke-linecap="round" stroke-linejoin="round"></path>
  <path d="M54.3944 40.2188C54.3944 40.2188 59.5604 48.8153 59.6292 49.2026C59.6546 49.3433 57.1488 50.8956 57.1488 50.8956L53.8135 50.957L50.3554 43.6747L54.3944 40.2188Z" fill="white" stroke="#2E186A" stroke-width="0.634898" stroke-linecap="round" stroke-linejoin="round"></path>
  <path d="M55.6652 41.0489C55.6652 41.0489 54.2314 44.4435 52.7235 45.5165C52.7235 45.5165 55.661 48.3196 54.1923 51.3544L39.9854 51.1427L37.9717 54.8632L32.0587 50.6687C32.0587 50.6687 35.14 44.5832 36.0056 43.8964C36.8712 43.2097 41.6541 38.6141 48.6443 37.631C53.6187 36.9803 55.6652 41.0489 55.6652 41.0489Z" fill="#2E186A"></path>
  <path d="M45.7319 37.2048L45.4219 39.6999L46.2938 39.5063C46.4229 39.6841 48.3699 42.4829 44.5394 44.3188C42.04 45.5167 38.9967 44.5304 37.7174 43.2501L40.22 41.5877L41.4612 36.2969L45.7319 37.2048Z" fill="white" stroke="#2E186A" stroke-width="0.634898" stroke-linecap="round" stroke-linejoin="round"></path>
  <path d="M40.6656 35.5283H40.2487C40.2487 35.5283 37.8615 35.3611 38.3969 33.2437C38.8043 31.6385 40.3852 32.0395 41.1259 32.3263" fill="white"></path>
  <path d="M40.6656 35.5283H40.2487C40.2487 35.5283 37.8615 35.3611 38.3969 33.2437C38.8043 31.6385 40.3852 32.0395 41.1259 32.3263" stroke="#2E186A" stroke-width="0.634898" stroke-linecap="round" stroke-linejoin="round"></path>
  <path d="M49.1711 36.2015C48.9119 37.1644 47.2167 41.4436 44.0919 40.8193C40.9672 40.195 39.7852 36.7983 40.3577 33.8746C40.9301 30.9509 42.9375 28.9858 44.9258 29.335C46.9141 29.6842 51.0504 29.2335 49.1711 36.2015Z" fill="white" stroke="#2E186A" stroke-width="0.634898" stroke-linecap="round" stroke-linejoin="round"></path>
  <path d="M41.4084 26.9815L42.5408 26.8125L42.2434 24.8198L41.111 24.9889L41.4084 26.9815Z" fill="#FE7624"></path>
  <path d="M41.3212 25.3509C42.4345 25.3509 43.337 24.4484 43.337 23.3351C43.337 22.2218 42.4345 21.3193 41.3212 21.3193C40.2079 21.3193 39.3054 22.2218 39.3054 23.3351C39.3054 24.4484 40.2079 25.3509 41.3212 25.3509Z" fill="#2E186A"></path>
  <path d="M42.5698 26.179C44.4364 25.9536 46.3792 26.0531 47.9136 27.0255C52.5198 30.2551 51.815 34.056 49.3696 35.385C49.959 32.71 49.5474 31.2794 48.7347 30.49C47.4194 31.9111 43.8904 32.6888 40.8948 32.1576C40.8831 32.182 40.8726 32.2084 40.8609 32.2338C40.0609 31.9767 38.7562 31.8106 38.3922 33.2433C37.8907 35.2253 39.952 35.4993 40.2154 35.5258C40.2154 35.6908 40.9498 38.4463 40.9498 38.4463L40.4874 40.006L33.3691 38.0611C33.276 38.0414 33.1889 37.9999 33.1148 37.9402C33.0406 37.8805 32.9816 37.8042 32.9425 37.7175C32.9033 37.6307 32.8851 37.536 32.8894 37.4409C32.8937 37.3458 32.9203 37.2531 32.967 37.1702C34.2209 34.9459 36.5574 26.9864 42.5698 26.179Z" fill="#2E186A"></path>
  <path d="M45.1956 38.4455C45.1956 38.4455 44.3956 38.5756 44.275 37.6201" stroke="#2E186A" stroke-width="0.634898" stroke-linecap="round" stroke-linejoin="round"></path>
  <path d="M45.7605 36.8905L46.6695 37.1783L47.1837 33.3975" stroke="#2E186A" stroke-width="0.634898" stroke-linecap="round" stroke-linejoin="round"></path>
  <path d="M44.641 32.3386C44.641 32.3386 45.5362 31.9588 45.897 32.6561" stroke="#2E186A" stroke-width="0.634898" stroke-linecap="round" stroke-linejoin="round"></path>
  <path d="M48.4008 33.7003C48.4008 33.7003 49.1753 33.5489 49.3446 34.1584" stroke="#2E186A" stroke-width="0.634898" stroke-linecap="round" stroke-linejoin="round"></path>
  <path d="M44.9244 34.5823C45.0299 34.3337 44.9849 34.0769 44.8241 34.0086C44.6632 33.9404 44.4473 34.0866 44.3419 34.3351C44.2364 34.5837 44.2813 34.8405 44.4422 34.9087C44.6031 34.977 44.8189 34.8308 44.9244 34.5823Z" fill="#2E186A"></path>
  <path d="M48.2692 35.8391C48.3746 35.5905 48.3297 35.3337 48.1689 35.2655C48.008 35.1972 47.7921 35.3434 47.6867 35.592C47.5812 35.8405 47.6261 36.0973 47.787 36.1656C47.9478 36.2338 48.1637 36.0876 48.2692 35.8391Z" fill="#2E186A"></path>
  <path d="M46.0447 34.2322C46.528 32.8534 46.0718 31.4384 45.0256 31.0716C43.9794 30.7049 42.7394 31.5252 42.2561 32.904C41.7727 34.2827 42.229 35.6977 43.2752 36.0645C44.3213 36.4313 45.5613 35.6109 46.0447 34.2322Z" stroke="#FE7624" stroke-width="0.634898" stroke-linecap="round" stroke-linejoin="round"></path>
  <path d="M51.3832 36.2244C51.8666 34.8456 51.4103 33.4306 50.3642 33.0638C49.318 32.697 48.078 33.5174 47.5946 34.8961C47.1113 36.2749 47.5675 37.6899 48.6137 38.0567C49.6599 38.4235 50.8999 37.6031 51.3832 36.2244Z" stroke="#FE7624" stroke-width="0.634898" stroke-linecap="round" stroke-linejoin="round"></path>
  <path d="M47.6537 34.5069L46.1511 33.9746" stroke="#FE7624" stroke-width="0.634898" stroke-linecap="round" stroke-linejoin="round"></path>
  <path d="M42.3649 32.3957L40.493 32.165" stroke="#FE7624" stroke-width="0.634898" stroke-linecap="round" stroke-linejoin="round"></path>
  <path d="M61.2267 51.2928C61.6595 52.4906 61.2267 55.1445 62.1875 53.5245C62.5145 52.134 62.0923 50.35 61.4193 49.5743C60.9378 48.9214 60.5897 48.1479 58.8987 48.3405C57.2078 48.5331 57.1274 49.4897 57.1274 49.4897C57.1274 49.4897 56.1919 50.8907 56.3866 51.5002C56.5814 52.1097 56.7718 52.1922 56.5983 52.5721C56.4247 52.952 57.2036 53.7784 57.5125 53.1858C57.8215 52.5933 57.83 51.2272 57.7443 50.9637C57.6691 50.7288 58.1496 50.533 58.2448 50.4971L58.2607 50.4907H58.3136C58.7569 51.0198 58.722 54.5329 59.194 54.6302C59.6659 54.7276 59.7389 54.4186 59.7389 54.4186" fill="white"></path>
  <path d="M61.2267 51.2928C61.6595 52.4906 61.2267 55.1445 62.1875 53.5245C62.5145 52.134 62.0923 50.35 61.4193 49.5743C60.9378 48.9214 60.5897 48.1479 58.8987 48.3405C57.2078 48.5331 57.1274 49.4897 57.1274 49.4897C57.1274 49.4897 56.1919 50.8907 56.3866 51.5002C56.5814 52.1097 56.7718 52.1922 56.5983 52.5721C56.4247 52.952 57.2036 53.7784 57.5125 53.1858C57.8215 52.5933 57.83 51.2272 57.7443 50.9637C57.6691 50.7288 58.1496 50.533 58.2448 50.4971L58.2607 50.4907H58.3136C58.7569 51.0198 58.722 54.5329 59.194 54.6302C59.6659 54.7276 59.7389 54.4186 59.7389 54.4186" stroke="#2E186A" stroke-width="0.634898" stroke-linecap="round" stroke-linejoin="round"></path>
  <path d="M60.7188 54.5015C60.5986 54.6169 60.4469 54.6942 60.2829 54.7237C59.5083 54.8602 59.7887 51.8942 59.4268 51.2402" fill="white"></path>
  <path d="M60.7188 54.5015C60.5986 54.6169 60.4469 54.6942 60.2829 54.7237C59.5083 54.8602 59.7887 51.8942 59.4268 51.2402" stroke="#2E186A" stroke-width="0.634898" stroke-linecap="round" stroke-linejoin="round"></path>
  <path d="M61.6956 53.9174C61.5411 54.292 61.339 54.6031 61.0871 54.6316C60.4247 54.7068 60.6353 52.0286 60.3856 51.2402" stroke="#2E186A" stroke-width="0.634898" stroke-linecap="round" stroke-linejoin="round"></path>
  <defs>
    <linearGradient id="paint0_linear_16658_5920" x1="84.596" y1="34.6953" x2="84.596" y2="62.9057" gradientUnits="userSpaceOnUse">
      <stop offset="0.415" stop-color="#FE7624"></stop>
      <stop offset="1" stop-color="#6A24FE"></stop>
    </linearGradient>
  </defs>
</svg>
