<?xml version="1.0" encoding="UTF-8"?>
<svg xmlns="http://www.w3.org/2000/svg" width="120" height="120" viewBox="0 0 120 120" fill="none">
  <rect width="120" height="120" fill="white"></rect>
  <path d="M116.768 20H43V79.6082H116.768V20Z" stroke="#5D21D1" stroke-width="0.685151" stroke-linecap="round" stroke-linejoin="round"></path>
  <path d="M56.5888 79.7842V84.0001H100.701V79.7842" stroke="#5D21D1" stroke-width="0.685151" stroke-linecap="round" stroke-linejoin="round"></path>
  <path d="M79.3187 82.0576C81.992 82.0828 89.282 82.0828 91.6332 82.0816C91.8346 82.0826 92.0284 82.159 92.1764 82.2958C92.3243 82.4325 92.4157 82.6197 92.4325 82.8204C92.4417 82.9318 92.4277 83.0438 92.3913 83.1495C92.3549 83.2551 92.297 83.3521 92.2212 83.4342C92.1454 83.5163 92.0534 83.5818 91.951 83.6265C91.8486 83.6712 91.7381 83.6942 91.6263 83.694L79.305 83.6472C79.1239 83.6457 78.9487 83.5827 78.808 83.4686C78.6674 83.3545 78.5696 83.196 78.5308 83.0191C78.5066 82.9024 78.5088 82.7818 78.5373 82.6661C78.5658 82.5504 78.6197 82.4425 78.6953 82.3503C78.7708 82.2581 78.866 82.184 78.9739 82.1334C79.0817 82.0827 79.1996 82.0569 79.3187 82.0576Z" fill="white" stroke="#2E186A" stroke-width="0.685151" stroke-linecap="round" stroke-linejoin="round"></path>
  <path d="M115.283 21.5986H44.3703V77.8952H115.283V21.5986Z" fill="#5D21D1"></path>
  <path d="M51.7733 49.2963C52.4147 49.2963 52.9347 48.7764 52.9347 48.135C52.9347 47.4936 52.4147 46.9736 51.7733 46.9736C51.1319 46.9736 50.612 47.4936 50.612 48.135C50.612 48.7764 51.1319 49.2963 51.7733 49.2963Z" fill="#FE7624"></path>
  <path d="M51.7733 53.7367C52.4147 53.7367 52.9347 53.2168 52.9347 52.5754C52.9347 51.934 52.4147 51.4141 51.7733 51.4141C51.1319 51.4141 50.612 51.934 50.612 52.5754C50.612 53.2168 51.1319 53.7367 51.7733 53.7367Z" fill="#FE7624"></path>
  <path d="M51.7733 58.1781C52.4147 58.1781 52.9347 57.6582 52.9347 57.0168C52.9347 56.3754 52.4147 55.8555 51.7733 55.8555C51.1319 55.8555 50.612 56.3754 50.612 57.0168C50.612 57.6582 51.1319 58.1781 51.7733 58.1781Z" fill="#FE7624"></path>
  <path d="M51.7733 62.6176C52.4147 62.6176 52.9347 62.0976 52.9347 61.4563C52.9347 60.8149 52.4147 60.2949 51.7733 60.2949C51.1319 60.2949 50.612 60.8149 50.612 61.4563C50.612 62.0976 51.1319 62.6176 51.7733 62.6176Z" fill="#FE7624"></path>
  <path d="M51.7733 67.058C52.4147 67.058 52.9347 66.5381 52.9347 65.8967C52.9347 65.2553 52.4147 64.7354 51.7733 64.7354C51.1319 64.7354 50.612 65.2553 50.612 65.8967C50.612 66.5381 51.1319 67.058 51.7733 67.058Z" fill="#FE7624"></path>
  <path d="M51.7733 71.4994C52.4147 71.4994 52.9347 70.9795 52.9347 70.3381C52.9347 69.6967 52.4147 69.1768 51.7733 69.1768C51.1319 69.1768 50.612 69.6967 50.612 70.3381C50.612 70.9795 51.1319 71.4994 51.7733 71.4994Z" fill="#FE7624"></path>
  <path d="M55.2185 48.3477H73.0016" stroke="white" stroke-width="0.685151" stroke-linecap="round" stroke-linejoin="round"></path>
  <path d="M55.2185 57.2305H73.0016" stroke="white" stroke-width="0.685151" stroke-linecap="round" stroke-linejoin="round"></path>
  <path d="M55.2185 66.1104H73.0016" stroke="white" stroke-width="0.685151" stroke-linecap="round" stroke-linejoin="round"></path>
  <path d="M59.2528 38.082H51.0424V42.3265H59.2528V38.082Z" stroke="white" stroke-width="0.685151" stroke-linecap="round" stroke-linejoin="round"></path>
  <path d="M73.0027 38.082H64.7923V42.3265H73.0027V38.082Z" stroke="white" stroke-width="0.685151" stroke-linecap="round" stroke-linejoin="round"></path>
  <path d="M81.7064 34.5176V71.4998" stroke="white" stroke-width="0.685151" stroke-linecap="round" stroke-linejoin="round"></path>
  <path d="M86.1393 44.3457H94.5233" stroke="white" stroke-width="0.685151" stroke-linecap="round" stroke-linejoin="round"></path>
  <path d="M86.1393 46.2148H94.5233" stroke="white" stroke-width="0.685151" stroke-linecap="round" stroke-linejoin="round"></path>
  <path d="M99.5432 45.0938H103.425" stroke="white" stroke-width="0.685151" stroke-linecap="round" stroke-linejoin="round"></path>
  <path d="M86.1393 51.4629H94.5233" stroke="white" stroke-width="0.685151" stroke-linecap="round" stroke-linejoin="round"></path>
  <path d="M86.1393 53.333H94.5233" stroke="white" stroke-width="0.685151" stroke-linecap="round" stroke-linejoin="round"></path>
  <path d="M99.5432 52.2109H103.425" stroke="white" stroke-width="0.685151" stroke-linecap="round" stroke-linejoin="round"></path>
  <path d="M86.1393 58.5811H94.5233" stroke="white" stroke-width="0.685151" stroke-linecap="round" stroke-linejoin="round"></path>
  <path d="M86.1393 60.4502H94.5233" stroke="white" stroke-width="0.685151" stroke-linecap="round" stroke-linejoin="round"></path>
  <path d="M99.5432 59.3291H103.425" stroke="white" stroke-width="0.685151" stroke-linecap="round" stroke-linejoin="round"></path>
  <path d="M86.1393 65.6982H94.5233" stroke="white" stroke-width="0.685151" stroke-linecap="round" stroke-linejoin="round"></path>
  <path d="M86.1393 67.5674H94.5233" stroke="white" stroke-width="0.685151" stroke-linecap="round" stroke-linejoin="round"></path>
  <path d="M99.5432 66.4463H103.425" stroke="white" stroke-width="0.685151" stroke-linecap="round" stroke-linejoin="round"></path>
  <path d="M86.1393 37.8311H100.638" stroke="white" stroke-width="0.685151" stroke-linecap="round" stroke-linejoin="round"></path>
  <path d="M86.1393 40.0742H89.3436" stroke="white" stroke-width="0.685151" stroke-linecap="round" stroke-linejoin="round"></path>
  <path d="M91.6663 40.0742H103.425" stroke="white" stroke-width="0.685151" stroke-linecap="round" stroke-linejoin="round"></path>
  <path d="M59.913 27.0527H80.5406" stroke="white" stroke-width="0.685151" stroke-linecap="round" stroke-linejoin="round"></path>
  <path d="M50.9934 29.2471H73.2506" stroke="white" stroke-width="0.685151" stroke-linecap="round" stroke-linejoin="round"></path>
  <path d="M57.8095 31.3691H63.1606" stroke="white" stroke-width="0.685151" stroke-linecap="round" stroke-linejoin="round"></path>
  <path d="M66.5487 31.3691H77.1228" stroke="white" stroke-width="0.685151" stroke-linecap="round" stroke-linejoin="round"></path>
  <path d="M55.19 52.7891H73.0302" stroke="#FE7624" stroke-width="0.685151" stroke-linecap="round" stroke-linejoin="round"></path>
  <path d="M55.2185 61.6699H73.0016" stroke="#FE7624" stroke-width="0.685151" stroke-linecap="round" stroke-linejoin="round"></path>
  <path d="M55.2185 70.5518H73.0016" stroke="#FE7624" stroke-width="0.685151" stroke-linecap="round" stroke-linejoin="round"></path>
  <path d="M61.1908 41.4005L63.2051 38.9043" stroke="#FE7624" stroke-width="0.685151" stroke-linecap="round" stroke-linejoin="round"></path>
  <path d="M97.9411 43.6514V46.5359H101.145" stroke="#FE7624" stroke-width="0.685151" stroke-linecap="round" stroke-linejoin="round"></path>
  <path d="M105.027 46.5359V43.6514H101.822" stroke="#FE7624" stroke-width="0.685151" stroke-linecap="round" stroke-linejoin="round"></path>
  <path d="M97.9411 50.7686V53.6519H101.145" stroke="#FE7624" stroke-width="0.685151" stroke-linecap="round" stroke-linejoin="round"></path>
  <path d="M105.027 53.6519V50.7686H101.822" stroke="#FE7624" stroke-width="0.685151" stroke-linecap="round" stroke-linejoin="round"></path>
  <path d="M97.9411 57.8867V60.7701H101.145" stroke="#FE7624" stroke-width="0.685151" stroke-linecap="round" stroke-linejoin="round"></path>
  <path d="M105.027 60.7701V57.8867H101.822" stroke="#FE7624" stroke-width="0.685151" stroke-linecap="round" stroke-linejoin="round"></path>
  <path d="M97.9411 65.0039V67.8873H101.145" stroke="#FE7624" stroke-width="0.685151" stroke-linecap="round" stroke-linejoin="round"></path>
  <path d="M105.027 67.8873V65.0039H101.822" stroke="#FE7624" stroke-width="0.685151" stroke-linecap="round" stroke-linejoin="round"></path>
  <path d="M106.859 42.2375L107.202 43.4388C113.85 34.5855 107.202 30.542 107.202 30.542" stroke="#FE7624" stroke-width="0.685151" stroke-linecap="round" stroke-linejoin="round"></path>
  <path d="M108.639 43.4384C108.248 43.4122 107.197 43.4384 107.197 43.4384" stroke="#FE7624" stroke-width="0.685151" stroke-linecap="round" stroke-linejoin="round"></path>
  <path d="M103.168 28.4209H93.6452C92.6702 28.4209 91.8798 29.2113 91.8798 30.1863V30.8989C91.8798 31.8739 92.6702 32.6643 93.6452 32.6643H103.168C104.143 32.6643 104.933 31.8739 104.933 30.8989V30.1863C104.933 29.2113 104.143 28.4209 103.168 28.4209Z" fill="#FE7624"></path>
  <path d="M78.8085 73.2996C78.5257 72.5553 77.5591 72.2854 76.6657 72.2198C76.7017 72.1903 76.739 72.1607 76.7763 72.1286C78.2866 70.8534 77.2056 69.2068 76.6734 69.5577C76.2583 69.829 75.7338 70.9627 73.163 71.4486C70.5922 71.9345 67.7154 75.4424 67.7154 75.4424L60.7022 80.2447L65.7976 83.6459L70.4251 80.0326C71.2979 80.2292 74.2363 79.8732 74.924 79.8475C75.6117 79.8218 75.6233 79.4619 76.9485 78.5993C78.2738 77.7368 77.7108 76.5427 77.7108 76.5427C77.7108 76.5427 77.6439 76.3396 77.5398 76.0761C77.8355 75.729 78.0824 75.3433 78.2738 74.9295C78.8252 74.7033 79.1414 74.1762 78.8085 73.2996Z" fill="white" stroke="#2E186A" stroke-width="0.771248" stroke-linecap="round" stroke-linejoin="round"></path>
  <path d="M74.361 72.1289C74.4497 72.1391 81.7136 68.6582 84.2587 67.441C84.4369 67.3558 84.6407 67.341 84.8293 67.3993C85.018 67.4577 85.1777 67.585 85.2768 67.7559C85.3315 67.8502 85.366 67.9548 85.3781 68.0632C85.3903 68.1715 85.3797 68.2812 85.3472 68.3853C85.3147 68.4893 85.2609 68.5855 85.1893 68.6677C85.1176 68.7499 85.0297 68.8162 84.931 68.8626L77.7969 72.2227L74.361 72.1289Z" fill="#FE7624"></path>
  <path d="M73.5319 74.9131C73.4698 75.0304 73.3984 75.1426 73.3185 75.2486C73.0422 75.6111 72.3776 76.097 71.8853 76.1715C71.393 76.2461 70.4533 76.2448 69.9019 76.0134" stroke="#2E186A" stroke-width="0.771248" stroke-linecap="round" stroke-linejoin="round"></path>
  <path d="M74.361 73.4127C74.2943 73.3575 74.2435 73.2856 74.2137 73.2043C74.1839 73.123 74.1761 73.0352 74.1913 72.95C74.3044 72.2212 75.0821 72.2263 76.0114 72.2032C76.7081 72.1865 77.6015 72.27 78.2069 72.6274" stroke="#2E186A" stroke-width="0.771248" stroke-linecap="round" stroke-linejoin="round"></path>
  <path d="M78.2674 74.5134C78.0694 73.8514 75.942 73.2922 75.2042 73.4143C74.4664 73.5364 73.3571 73.6521 73.2221 73.9581C73.1051 74.2254 73.1578 74.818 73.8507 74.9941" stroke="#2E186A" stroke-width="0.771248" stroke-linecap="round" stroke-linejoin="round"></path>
  <path d="M76.6696 77.4687C76.4048 77.272 75.8983 76.1383 75.8983 76.1383L74.6245 76.0676C73.3506 75.9969 73.8301 74.6832 74.5833 74.7308C75.3366 74.7783 76.6181 74.6305 76.9665 74.9878C77.1722 75.1986 77.392 75.6948 77.5385 76.0689" stroke="#2E186A" stroke-width="0.771248" stroke-linecap="round" stroke-linejoin="round"></path>
  <path d="M73.6322 74.9131C73.6322 74.9131 73.0846 75.3244 73.4972 76.1561C73.9098 76.9877 74.2325 77.9891 74.118 78.7192" stroke="#2E186A" stroke-width="0.771248" stroke-linecap="round" stroke-linejoin="round"></path>
  <path d="M75.3328 76.1055C75.1558 76.3807 75.0664 76.7031 75.0765 77.0301C75.0866 77.3572 75.1957 77.6734 75.3893 77.9372" stroke="#2E186A" stroke-width="0.771248" stroke-linecap="round" stroke-linejoin="round"></path>
  <path d="M19.2794 70.6611C19.2794 70.6611 15.715 71.7768 12.8897 72.7178C12.1041 72.9766 11.3847 73.4045 10.7822 73.9712C10.1797 74.538 9.70872 75.2298 9.40233 75.9981C7.34567 81.2002 5.73633 90.8524 5.69391 93.4438C5.64378 96.4838 5.87258 107.637 16.5299 100.736L16.5402 100.747C14.4977 104.151 11.2315 110.997 11.2315 110.997H45.5417C45.5417 110.997 38.2727 95.9889 39.0774 95.9889C45.1818 92.0311 43.3462 82.7041 43.3462 82.7041C43.3462 82.7041 50.299 91.4359 53.3853 92.0015C57.7557 92.8036 69.1252 84.1464 69.1252 84.1464L65.2574 76.448C65.2574 76.448 54.5422 81.6809 54.7234 81.7324C55.1887 81.8609 44.9916 69.2728 42.0364 68.9219C39.84 68.6693 37.6219 68.6693 35.4255 68.9219L19.2794 70.6611Z" fill="url(#paint0_linear_16658_6143)"></path>
  <path d="M38.1067 83.9883H40.3073" stroke="#FEBA91" stroke-width="0.771248" stroke-linecap="round" stroke-linejoin="round"></path>
  <path d="M38.3252 85.6152H40.5259" stroke="#FEBA91" stroke-width="0.771248" stroke-linecap="round" stroke-linejoin="round"></path>
  <path d="M42.3164 75.5957C42.6172 76.4955 43.2895 80.2399 43.3088 82.6655" stroke="#FEBA91" stroke-width="0.771248" stroke-linecap="round" stroke-linejoin="round"></path>
  <path d="M35.086 79.1309C38.3561 89.8641 35.9691 93.5275 33.6219 96.3464C34.1438 99.1357 36.3855 111 36.3855 111" stroke="#FEBA91" stroke-width="0.771248" stroke-linecap="round" stroke-linejoin="round"></path>
  <path d="M21.5532 105.104C20.0403 105.104 18.9567 104.641 18.3333 103.726C17.0928 101.906 18.2111 99.0005 18.26 98.8771C18.2884 98.8051 18.3377 98.7433 18.4017 98.6997C18.4657 98.6562 18.5412 98.6329 18.6186 98.6329H26.2167C26.3086 98.6315 26.3979 98.663 26.4686 98.7217C26.5393 98.7804 26.5867 98.8624 26.6023 98.9529C26.6216 99.066 27.0548 101.727 25.5316 103.532C24.6472 104.575 23.3142 105.104 21.5532 105.104ZM18.8924 99.4041C18.67 100.093 18.1417 102.078 18.9721 103.294C19.4426 103.983 20.3115 104.332 21.5532 104.332C23.0713 104.332 24.2102 103.895 24.9377 103.034C25.9493 101.835 25.9313 100.111 25.8735 99.4041H18.8924Z" fill="#FEBA91"></path>
  <path d="M42.2098 103.914H42.0645C40.5478 103.914 39.4089 103.479 38.6826 102.619C37.6723 101.425 37.6877 99.6944 37.7443 98.9861H40.0246C39.9115 98.7149 39.8048 98.4578 39.7084 98.2149H37.3946C37.3028 98.2135 37.2134 98.2451 37.1427 98.3037C37.072 98.3624 37.0246 98.4444 37.009 98.535C36.9897 98.6481 36.5565 101.309 38.0798 103.114C38.9603 104.156 40.2971 104.686 42.0543 104.686C42.2239 104.686 42.3885 104.686 42.5479 104.668C42.433 104.419 42.3203 104.168 42.2098 103.914Z" fill="#FEBA91"></path>
  <path d="M22.75 59.8057L23.3529 70.1263L17.9285 71.2716C17.9285 71.2716 24.7643 78.7617 29.5923 77.9377C36.3857 76.7808 36.234 68.9038 36.234 68.9038L32.1027 69.2792L31.5885 63.3033L22.75 59.8057Z" fill="white" stroke="#2E186A" stroke-width="0.771248" stroke-linecap="round" stroke-linejoin="round"></path>
  <path d="M34.7545 54.0007C34.7545 54.0007 37.9333 52.2589 38.2727 55.3568C38.5555 57.9494 36.5798 57.9803 34.6735 57.9854C32.7673 57.9906 34.7545 54.0007 34.7545 54.0007Z" fill="white" stroke="#2E186A" stroke-width="0.771248" stroke-linecap="round" stroke-linejoin="round"></path>
  <path d="M35.4139 50.0377C34.347 45.3447 31.4844 44.5567 27.6706 45.085C24.7142 45.4925 22.5765 50.5172 22.1935 54.9557C21.3297 55.029 18.9362 55.1948 19.1085 57.2861C19.2884 59.4713 20.7679 60.929 22.8439 60.3531C24.2758 64.1078 27.6076 66.6092 30.9163 66.1516C34.7301 65.6246 37.7495 60.3107 35.4139 50.0377Z" fill="white" stroke="#2E186A" stroke-width="0.771248" stroke-linecap="round" stroke-linejoin="round"></path>
  <path d="M31.0808 58.6127L32.5346 58.8505L30.5011 53.2705" stroke="#2E186A" stroke-width="0.771248" stroke-linecap="round" stroke-linejoin="round"></path>
  <path d="M25.7283 54.7321C25.7283 54.7321 26.7271 53.2398 28.0832 53.8876" stroke="#2E186A" stroke-width="0.771248" stroke-linecap="round" stroke-linejoin="round"></path>
  <path d="M32.0102 52.8044C32.0102 52.8044 33.2352 51.7761 34.2416 52.7761" stroke="#2E186A" stroke-width="0.771248" stroke-linecap="round" stroke-linejoin="round"></path>
  <path d="M28.4969 57.2588C28.8269 57.1796 29.0019 56.7299 28.8878 56.2542C28.7736 55.7786 28.4137 55.4572 28.0837 55.5364C27.7537 55.6155 27.5787 56.0653 27.6928 56.5409C27.8069 57.0165 28.1669 57.3379 28.4969 57.2588Z" fill="#2E186A"></path>
  <path d="M33.8422 56.1381C34.1599 56.0232 34.2819 55.5557 34.1149 55.0939C33.9479 54.6321 33.555 54.3509 33.2373 54.4658C32.9197 54.5807 32.7976 55.0482 32.9646 55.51C33.1317 55.9717 33.5246 56.253 33.8422 56.1381Z" fill="#2E186A"></path>
  <path d="M30.7093 62.7894C31.1669 62.6085 31.5418 62.2653 31.7621 61.8253L32.248 60.8844C32.248 60.8844 28.8262 60.2327 28.8262 60.1016C28.8262 60.1016 28.8262 63.5079 30.7093 62.7894Z" stroke="#2E186A" stroke-width="0.771248" stroke-linecap="round" stroke-linejoin="round"></path>
  <path d="M38.6005 49.4133C35.9937 47.1188 38.3884 46.6869 36.234 44.1636C34.0797 41.6404 30.5371 43.3924 30.5371 43.3924C30.1111 43.1811 29.6549 43.0371 29.1848 42.9656C27.0369 42.6379 25.2 42.7921 23.6164 43.2741C23.2055 43.0773 22.7746 42.9256 22.331 42.8217L22.286 42.8114C21.669 41.0889 20.1098 39.6608 18.0532 39.1724C14.9682 38.441 11.9269 40.1043 11.2675 42.8872C11.1244 43.49 11.1017 44.1151 11.2006 44.7267C9.68383 44.6919 8.33929 45.5866 8.01408 46.9568C7.79427 47.8875 8.09249 48.8323 8.73391 49.547C7.11429 49.9236 5.81088 51.0612 5.43682 52.6319C5.04477 54.2863 5.78774 55.974 7.19784 57.0319C6.15023 57.4175 5.33785 58.2415 5.08205 59.3212C4.64887 61.1491 5.97413 63.0284 8.0385 63.5181L8.18889 63.5503C7.6768 63.9781 7.31621 64.5595 7.16056 65.2084C6.72609 67.0363 8.05135 68.9156 10.117 69.4066C11.9397 69.8385 13.729 69.048 14.4257 67.607C15.0849 68.1319 15.8523 68.5042 16.6726 68.697C19.6136 69.395 22.5328 67.7034 23.1922 64.9192C23.3206 64.3799 23.3567 63.8227 23.2989 63.2713C23.6429 63.2151 23.9814 63.129 24.3105 63.0142C23.6916 62.2058 23.1937 61.3117 22.8323 60.3599C20.8361 60.9139 19.3913 59.5822 19.1239 57.5397C19.5288 57.0448 20.3438 56.5113 21.9852 56.1733C22.1947 56.9561 22.5688 58.077 23.0573 58.4536L23.9571 55.7247C27.078 54.6488 27.2361 52.0869 27.8814 50.7051C28.6115 49.1408 31.3919 50.1832 32.5218 47.6805C32.6706 47.3574 32.7536 47.0078 32.766 46.6522C33.2172 47.7178 34.0128 49.0276 35.3625 49.876C35.7476 51.5023 36.0093 53.1553 36.1453 54.821L36.342 54.8069C36.6375 54.7856 36.918 54.6686 37.1409 54.4735C37.3639 54.2784 37.5171 54.0159 37.5773 53.7258C39.4347 52.5728 39.5992 50.5097 38.6005 49.4133Z" fill="#2E186A"></path>
  <path d="M30.8485 43.7793C30.8485 43.7793 32.6018 45.7884 28.4834 46.3887C24.3649 46.989 23.6862 48.4055 24.6001 51.2167C24.7042 52.6062 23.1489 53.623 22.2105 52.8672" stroke="#968BB4" stroke-width="0.771248" stroke-linecap="round" stroke-linejoin="round"></path>
  <path d="M19.3698 59.6068C16.2488 59.7907 14.5263 52.4085 16.6434 48.6988C17.9006 46.493 19.8197 44.457 23.3687 43.6729" stroke="#968BB4" stroke-width="0.771248" stroke-linecap="round" stroke-linejoin="round"></path>
  <path d="M21.4042 61.1126C22.1262 61.1126 22.7115 60.5273 22.7115 59.8053C22.7115 59.0833 22.1262 58.498 21.4042 58.498C20.6822 58.498 20.097 59.0833 20.097 59.8053C20.097 60.5273 20.6822 61.1126 21.4042 61.1126Z" fill="#FE7624"></path>
  <path d="M38.1004 58.3636C38.8224 58.3636 39.4077 57.7783 39.4077 57.0563C39.4077 56.3343 38.8224 55.749 38.1004 55.749C37.3785 55.749 36.7932 56.3343 36.7932 57.0563C36.7932 57.7783 37.3785 58.3636 38.1004 58.3636Z" fill="#FE7624"></path>
  <path d="M35.7469 82.9405C35.7469 82.9405 35.6633 84.4007 33.239 85.0524C30.8147 85.7041 27.9418 86.7466 27.9418 86.7466L19.2679 96.7227L19.2332 86.7723L25.7399 81.4687C25.7399 81.4687 30.397 75.3463 30.9188 74.0596C31.4407 72.7729 32.5346 73.53 32.3264 74.8308C32.1181 76.1317 31.0885 78.6112 31.0885 78.6112C31.0885 78.6112 37.9578 75.3784 39.1571 75.3784C40.3563 75.3784 40.1854 76.3168 38.6737 77.2037C37.1621 78.0906 37.2534 78.1845 37.2534 78.1845C37.2534 78.1845 37.8009 79.4982 35.95 80.5689L36.3677 80.8813C36.4513 81.2977 36.2675 81.9803 35.554 82.6089L35.7469 82.9405Z" fill="white" stroke="#2E186A" stroke-width="0.771248" stroke-linecap="round" stroke-linejoin="round"></path>
  <path d="M36.5117 80.1836C36.3362 80.3284 36.1482 80.4574 35.95 80.5692C34.171 81.5975 33.6221 81.7338 33.6221 81.7338" stroke="#2E186A" stroke-width="0.771248" stroke-linecap="round" stroke-linejoin="round"></path>
  <path d="M35.5541 82.6074C35.0347 83.0416 34.4338 83.3677 33.7867 83.5663" stroke="#2E186A" stroke-width="0.771248" stroke-linecap="round" stroke-linejoin="round"></path>
  <path d="M33.4974 79.8747L37.5375 77.9209" stroke="#2E186A" stroke-width="0.771248" stroke-linecap="round" stroke-linejoin="round"></path>
  <path d="M17.6817 87.5148L24.8826 81.6289L26.9058 91.0214L18.3347 98.6002L17.6817 87.5148Z" fill="url(#paint1_linear_16658_6143)"></path>
  <path d="M17.9285 83L16.5158 87.8062" stroke="#FEBA91" stroke-width="0.771248" stroke-linecap="round" stroke-linejoin="round"></path>
  <path d="M11.0258 92.2481C13.3395 89.4305 17.8385 87.0396 18.3527 86.7208C18.3527 86.7208 22.5071 84.0973 24.5843 82.0381" stroke="#FEBA91" stroke-width="0.771248" stroke-linecap="round" stroke-linejoin="round"></path>
  <path d="M26.3132 88.2734L26.9058 90.8134C23.4609 94.4267 19.6702 97.7714 16.751 100.355" stroke="#FEBA91" stroke-width="0.771248" stroke-linecap="round" stroke-linejoin="round"></path>
  <path d="M23.718 88.4092L24.353 90.8785" stroke="#FEBA91" stroke-width="0.771248" stroke-linecap="round" stroke-linejoin="round"></path>
  <defs>
    <linearGradient id="paint0_linear_16658_6143" x1="37.4075" y1="68.7324" x2="37.4075" y2="110.997" gradientUnits="userSpaceOnUse">
      <stop offset="0.415" stop-color="#FE7624"></stop>
      <stop offset="1" stop-color="#6A24FE"></stop>
    </linearGradient>
    <linearGradient id="paint1_linear_16658_6143" x1="22" y1="85.9993" x2="22.2937" y2="98.6002" gradientUnits="userSpaceOnUse">
      <stop stop-color="#FF7725"></stop>
      <stop offset="1" stop-color="#B44D92"></stop>
    </linearGradient>
  </defs>
</svg>
