<?xml version="1.0" encoding="UTF-8"?>
<svg xmlns="http://www.w3.org/2000/svg" width="120" height="120" viewBox="0 0 120 120" fill="none">
  <rect width="120" height="120" fill="white"></rect>
  <path d="M86.5509 10H28.4489C27.0963 10 25.9999 11.6828 25.9999 13.7587V106.241C25.9999 108.317 27.0963 110 28.4489 110H86.5509C87.9034 110 88.9999 108.317 88.9999 106.241V13.7587C88.9999 11.6828 87.9034 10 86.5509 10Z" fill="url(#paint0_linear_16658_6255)"></path>
  <path d="M27.9467 105.701V13.9387C27.9467 12.0145 29.4441 10.4531 31.2917 10.4531" stroke="white" stroke-width="0.766626" stroke-linecap="round" stroke-linejoin="round"></path>
  <path d="M49.1878 16.1816H48.4991C48.1463 16.1816 47.8603 16.4677 47.8603 16.8205V18.1761C47.8603 18.529 48.1463 18.815 48.4991 18.815H49.1878C49.5407 18.815 49.8267 18.529 49.8267 18.1761V16.8205C49.8267 16.4677 49.5407 16.1816 49.1878 16.1816Z" fill="white"></path>
  <path d="M46.4663 16.1816H34.2233C33.8704 16.1816 33.5844 16.4677 33.5844 16.8205V18.1761C33.5844 18.529 33.8704 18.815 34.2233 18.815H46.4663C46.8191 18.815 47.1051 18.529 47.1051 18.1761V16.8205C47.1051 16.4677 46.8191 16.1816 46.4663 16.1816Z" fill="white"></path>
  <path d="M47.6903 28.4141H34.2233C33.8704 28.4141 33.5844 28.7001 33.5844 29.0529V30.4086C33.5844 30.7614 33.8704 31.0474 34.2233 31.0474H47.6903C48.0432 31.0474 48.3292 30.7614 48.3292 30.4086V29.0529C48.3292 28.7001 48.0432 28.4141 47.6903 28.4141Z" fill="white"></path>
  <path d="M59.5423 24.3428H37.9516C37.5988 24.3428 37.3127 24.6288 37.3127 24.9816V26.3373C37.3127 26.6901 37.5988 26.9761 37.9516 26.9761H59.5423C59.8952 26.9761 60.1812 26.6901 60.1812 26.3373V24.9816C60.1812 24.6288 59.8952 24.3428 59.5423 24.3428Z" fill="white"></path>
  <path d="M71.2002 24.3428H62.0991C61.7462 24.3428 61.4602 24.6288 61.4602 24.9816V26.3373C61.4602 26.6901 61.7462 26.9761 62.0991 26.9761H71.2002C71.553 26.9761 71.839 26.6901 71.839 26.3373V24.9816C71.839 24.6288 71.553 24.3428 71.2002 24.3428Z" fill="white"></path>
  <path d="M81.0578 39.1816H80.3691C80.0162 39.1816 79.7302 39.4677 79.7302 39.8205V41.1761C79.7302 41.529 80.0162 41.815 80.3691 41.815H81.0578C81.4106 41.815 81.6966 41.529 81.6966 41.1761V39.8205C81.6966 39.4677 81.4106 39.1816 81.0578 39.1816Z" fill="white"></path>
  <path d="M76.9116 43.3281H76.2229C75.8701 43.3281 75.584 43.6142 75.584 43.967V45.3226C75.584 45.6755 75.8701 45.9615 76.2229 45.9615H76.9116C77.2644 45.9615 77.5504 45.6755 77.5504 45.3226V43.967C77.5504 43.6142 77.2644 43.3281 76.9116 43.3281Z" fill="white"></path>
  <path d="M56.5934 20.2617H34.2233C33.8704 20.2617 33.5844 20.5477 33.5844 20.9006V22.2562C33.5844 22.6091 33.8704 22.8951 34.2233 22.8951H56.5934C56.9463 22.8951 57.2323 22.6091 57.2323 22.2562V20.9006C57.2323 20.5477 56.9463 20.2617 56.5934 20.2617Z" fill="white"></path>
  <path d="M63.5761 16.1816H51.3331C50.9802 16.1816 50.6942 16.4677 50.6942 16.8205V18.1761C50.6942 18.529 50.9802 18.815 51.3331 18.815H63.5761C63.9289 18.815 64.2149 18.529 64.2149 18.1761V16.8205C64.2149 16.4677 63.9289 16.1816 63.5761 16.1816Z" fill="white"></path>
  <path d="M73.3276 20.2539H58.9278C58.575 20.2539 58.2889 20.5399 58.2889 20.8928V22.265C58.2889 22.6179 58.575 22.9039 58.9278 22.9039H73.3276C73.6804 22.9039 73.9664 22.6179 73.9664 22.265V20.8928C73.9664 20.5399 73.6804 20.2539 73.3276 20.2539Z" fill="white"></path>
  <path d="M46.4663 39.1602H34.2233C33.8704 39.1602 33.5844 39.4462 33.5844 39.799V41.1547C33.5844 41.5075 33.8704 41.7935 34.2233 41.7935H46.4663C46.8191 41.7935 47.1051 41.5075 47.1051 41.1547V39.799C47.1051 39.4462 46.8191 39.1602 46.4663 39.1602Z" fill="white"></path>
  <path d="M73.1743 47.3193H62.0991C61.7462 47.3193 61.4602 47.6054 61.4602 47.9582V49.3138C61.4602 49.6667 61.7462 49.9527 62.0991 49.9527H73.1743C73.5271 49.9527 73.8131 49.6667 73.8131 49.3138V47.9582C73.8131 47.6054 73.5271 47.3193 73.1743 47.3193Z" fill="white"></path>
  <path d="M56.5934 43.2393H34.2233C33.8704 43.2393 33.5844 43.5253 33.5844 43.8781V45.2338C33.5844 45.5866 33.8704 45.8726 34.2233 45.8726H56.5934C56.9463 45.8726 57.2323 45.5866 57.2323 45.2338V43.8781C57.2323 43.5253 56.9463 43.2393 56.5934 43.2393Z" fill="white"></path>
  <path d="M63.5761 39.1602H48.4991C48.1463 39.1602 47.8603 39.4462 47.8603 39.799V41.1547C47.8603 41.5075 48.1463 41.7935 48.4991 41.7935H63.5761C63.929 41.7935 64.215 41.5075 64.215 41.1547V39.799C64.215 39.4462 63.929 39.1602 63.5761 39.1602Z" fill="white"></path>
  <path d="M78.1382 39.1602H65.8951C65.5423 39.1602 65.2563 39.4462 65.2563 39.799V41.1547C65.2563 41.5075 65.5423 41.7935 65.8951 41.7935H78.1382C78.491 41.7935 78.777 41.5075 78.777 41.1547V39.799C78.777 39.4462 78.491 39.1602 78.1382 39.1602Z" fill="white"></path>
  <path d="M49.1878 35.2129H48.4991C48.1463 35.2129 47.8603 35.4989 47.8603 35.8517V37.2074C47.8603 37.5602 48.1463 37.8463 48.4991 37.8463H49.1878C49.5407 37.8463 49.8267 37.5602 49.8267 37.2074V35.8517C49.8267 35.4989 49.5407 35.2129 49.1878 35.2129Z" fill="white"></path>
  <path d="M46.4663 35.2129H34.2233C33.8704 35.2129 33.5844 35.4989 33.5844 35.8517V37.2074C33.5844 37.5602 33.8704 37.8463 34.2233 37.8463H46.4663C46.8191 37.8463 47.1051 37.5602 47.1051 37.2074V35.8517C47.1051 35.4989 46.8191 35.2129 46.4663 35.2129Z" fill="white"></path>
  <path d="M63.5761 35.2129H51.3331C50.9802 35.2129 50.6942 35.4989 50.6942 35.8517V37.2074C50.6942 37.5602 50.9802 37.8463 51.3331 37.8463H63.5761C63.9289 37.8463 64.2149 37.5602 64.2149 37.2074V35.8517C64.2149 35.4989 63.9289 35.2129 63.5761 35.2129Z" fill="white"></path>
  <path d="M74.3306 43.2314H58.9278C58.575 43.2314 58.2889 43.5175 58.2889 43.8703V45.2426C58.2889 45.5954 58.575 45.8814 58.9278 45.8814H74.3306C74.6834 45.8814 74.9694 45.5954 74.9694 45.2426V43.8703C74.9694 43.5175 74.6834 43.2314 74.3306 43.2314Z" fill="white"></path>
  <path d="M39.2572 76.5537H1.13672V109.434H39.2572V76.5537Z" fill="white" stroke="#2E186A" stroke-width="0.766626" stroke-linecap="round" stroke-linejoin="round"></path>
  <path d="M52.0586 45.2533C52.0586 45.2533 54.4518 44.6068 55.81 43.3073C56.62 42.533 57.6601 41.4879 57.6409 41.1467C57.6064 40.5079 56.2674 41.4892 56.0502 41.6246" fill="white"></path>
  <path d="M52.0586 45.2533C52.0586 45.2533 54.4518 44.6068 55.81 43.3073C56.62 42.533 57.6601 41.4879 57.6409 41.1467C57.6064 40.5079 56.2674 41.4892 56.0502 41.6246" stroke="#2E186A" stroke-width="0.766626" stroke-linecap="round" stroke-linejoin="round"></path>
  <path d="M53.358 43.1376C53.358 43.1376 54.4914 42.1563 54.8913 41.3412C55.2912 40.526 55.5608 39.8973 55.4228 39.7875C55.2848 39.6776 54.554 39.8743 54.2588 40.3573C53.933 41.1763 52.6055 42.2841 52.6055 42.2841C52.7665 42.2202 53.5829 41.3169 53.9547 40.7509C54.3265 40.1848 54.3444 39.3147 53.1881 40.2922C53.1881 40.2922 51.9679 41.3795 51.4977 41.704C51.4977 41.704 49.3652 42.5052 48.8337 43.4123C48.4746 44.0243 45.656 48.7123 43.4328 51.7711C42.0656 53.2021 39.4808 61.966 43.6883 60.9962C44.5661 60.8211 45.5499 59.9817 45.8438 59.2393L51.4338 45.5499C52.7243 45.0146 53.597 44.4434 54.1566 43.9413C54.8811 43.2897 56.9165 40.5835 56.8986 40.2947C56.8526 39.5281 55.6004 39.8501 54.9539 41.2453" fill="white"></path>
  <path d="M53.358 43.1376C53.358 43.1376 54.4914 42.1563 54.8913 41.3412C55.2912 40.526 55.5608 39.8973 55.4228 39.7875C55.2848 39.6776 54.554 39.8743 54.2588 40.3573C53.933 41.1763 52.6055 42.2841 52.6055 42.2841C52.7665 42.2202 53.5829 41.3169 53.9547 40.7509C54.3265 40.1848 54.3444 39.3147 53.1881 40.2922C53.1881 40.2922 51.9679 41.3795 51.4977 41.704C51.4977 41.704 49.3652 42.5052 48.8337 43.4123C48.4746 44.0243 45.656 48.7123 43.4328 51.7711C42.0656 53.2021 39.4808 61.966 43.6883 60.9962C44.5661 60.8211 45.5499 59.9817 45.8438 59.2393L51.4338 45.5499C52.7243 45.0146 53.597 44.4434 54.1566 43.9413C54.8811 43.2897 56.9165 40.5835 56.8986 40.2947C56.8526 39.5281 55.6004 39.8501 54.9539 41.2453" stroke="#2E186A" stroke-width="0.766626" stroke-linecap="round" stroke-linejoin="round"></path>
  <path d="M43.6066 50.6621L46.7114 45.0146L51.5999 46.171L47.4078 56.5703L43.6066 50.6621Z" fill="#5D21D1"></path>
  <path d="M23.6538 92.0292L23.8122 109.683H26.4443L26.6002 104.182C26.6002 104.182 27.6671 109.565 31.3443 109.803C35.0216 110.042 38.198 109.037 38.1737 108.895C38.1609 108.822 38.2836 107.745 38.4063 106.69C38.5136 105.775 37.6396 104.879 36.6967 104.934C35.2835 105.017 33.4296 104.905 32.3039 103.967C30.2941 102.292 30.5496 90.1152 30.5496 90.1152L23.6538 92.0292Z" fill="#2E186A"></path>
  <path d="M28.1577 92.0292L30.6965 109.683H33.3273L33.4334 106.535C33.4334 106.535 34.5514 109.565 38.2286 109.803C41.9059 110.042 45.0823 109.037 45.0567 108.895C45.0452 108.822 45.1666 107.745 45.2905 106.69C45.3979 105.775 44.5239 104.879 43.581 104.934C42.1678 105.017 40.9578 103.088 39.8334 102.151C37.8236 100.476 37.4339 90.1152 37.4339 90.1152L28.1577 92.0292Z" fill="#2E186A"></path>
  <path d="M44.6606 73.9336C43.7215 71.7781 32.2477 65.4125 32.2477 65.4125C32.2477 65.4125 37.3202 51.7908 34.453 47.7801C31.9602 44.4108 27.4639 44.5769 27.4639 44.5769L19.2546 44.2753V44.2383H17.9169C16.4705 44.2383 14.5003 45.7792 14.2843 47.4492C13.8883 50.5157 12.7 54.7411 11.881 58.2688C9.9644 64.1463 8.02739 72.9139 11.9167 76.5797C11.9487 76.6257 21.8752 76.5797 21.8752 76.5797L21.888 103.861H41.6848C41.6848 103.861 45.5997 76.089 44.6606 73.9336Z" fill="#5D21D1"></path>
  <path d="M22.8821 43.9562C22.15 44.0469 21.414 43.1819 21.2326 42.0052C21.1328 41.4389 21.204 40.8557 21.437 40.3301" stroke="#FE7624" stroke-width="0.766626" stroke-linecap="round" stroke-linejoin="round"></path>
  <path d="M33.0233 43.5998C32.2898 43.6905 31.5552 42.8242 31.3737 41.6487C31.2723 41.0829 31.3417 40.4998 31.573 39.9736" stroke="#FE7624" stroke-width="0.766626" stroke-linecap="round" stroke-linejoin="round"></path>
  <path d="M22.0669 31.8351C23.6282 30.6851 24.6632 24.6403 20.4276 20.5912C16.1396 16.4898 12.5697 20.6806 11.7762 21.7859C10.9827 22.8911 10.386 25.9269 14.094 28.7954C17.8019 31.6638 20.287 33.1524 22.0669 31.8351Z" fill="#2E186A"></path>
  <path d="M24.3335 34.5103L24.2364 34.573C23.9487 34.7518 23.6038 34.8144 23.2716 34.7482C22.9394 34.682 22.6448 34.4919 22.4476 34.2165L21.3092 32.6206C21.2119 32.4896 21.1425 32.3401 21.1052 32.1812C21.068 32.0223 21.0637 31.8575 21.0927 31.6969C21.1217 31.5364 21.1833 31.3834 21.2737 31.2476C21.3641 31.1117 21.4814 30.9959 21.6184 30.9072L21.7155 30.8446C22.0033 30.6656 22.3484 30.603 22.6807 30.6694C23.013 30.7359 23.3075 30.9265 23.5043 31.2024L24.6427 32.8046C24.7392 32.9352 24.8079 33.0842 24.8446 33.2423C24.8814 33.4005 24.8854 33.5645 24.8564 33.7242C24.8274 33.884 24.7661 34.0361 24.6762 34.1713C24.5863 34.3065 24.4697 34.4219 24.3335 34.5103Z" fill="#FE7624"></path>
  <path d="M23.5611 39.5654C23.8876 38.8806 23.5687 38.0473 22.849 37.7042C22.1292 37.361 21.281 37.6379 20.9546 38.3227C20.6281 39.0074 20.947 39.8407 21.6667 40.1838C22.3865 40.527 23.2347 40.2501 23.5611 39.5654Z" fill="white" stroke="#2E186A" stroke-width="0.766626" stroke-linecap="round" stroke-linejoin="round"></path>
  <path d="M33.4749 39.1015C33.8013 38.4167 33.4825 37.5835 32.7627 37.2403C32.0429 36.8971 31.1948 37.174 30.8683 37.8588C30.5419 38.5435 30.8607 39.3768 31.5805 39.72C32.3003 40.0631 33.1484 39.7862 33.4749 39.1015Z" fill="white" stroke="#2E186A" stroke-width="0.766626" stroke-linecap="round" stroke-linejoin="round"></path>
  <path d="M28.1207 43.0261L28.1999 45.0705L29.9158 45.4538C30.013 45.7323 30.119 50.5646 25.6994 49.9679C22.799 49.5731 21.4434 46.9781 20.6665 44.6016L23.1261 44.774L23.1389 39.0039L28.1207 43.0261Z" fill="white" stroke="#2E186A" stroke-width="0.766626" stroke-linecap="round" stroke-linejoin="round"></path>
  <path d="M28.3321 44.1804C30.8091 43.7253 32.3431 40.7756 31.7582 37.592C31.1733 34.4084 28.6911 32.1965 26.2141 32.6516C23.737 33.1067 22.2031 36.0564 22.788 39.24C23.3729 42.4236 25.8551 44.6355 28.3321 44.1804Z" fill="white" stroke="#2E186A" stroke-width="0.766626" stroke-linecap="round" stroke-linejoin="round"></path>
  <path d="M27.6862 39.8064L28.5551 39.7783C28.5758 39.7773 28.5961 39.7716 28.6144 39.7618C28.6327 39.7519 28.6485 39.7381 28.6608 39.7213C28.673 39.7045 28.6814 39.6852 28.6852 39.6648C28.689 39.6443 28.6882 39.6233 28.6828 39.6033L28.0568 37.2344" stroke="#2E186A" stroke-width="0.766626" stroke-linecap="round" stroke-linejoin="round"></path>
  <path d="M25.2701 36.0821C25.2701 36.0821 26.0367 35.3921 26.6756 35.9671" stroke="#2E186A" stroke-width="0.766626" stroke-linecap="round" stroke-linejoin="round"></path>
  <path d="M28.7851 35.8718C28.7851 35.8718 29.7689 35.5026 30.165 36.2551" stroke="#2E186A" stroke-width="0.766626" stroke-linecap="round" stroke-linejoin="round"></path>
  <path d="M26.9216 38.0285C26.9309 37.7422 26.7829 37.505 26.5911 37.4987C26.3992 37.4925 26.2362 37.7196 26.2269 38.0059C26.2176 38.2923 26.3655 38.5295 26.5574 38.5357C26.7492 38.5419 26.9123 38.3148 26.9216 38.0285Z" fill="#2E186A"></path>
  <path d="M29.8547 38.6643C30.0454 38.6505 30.1832 38.4065 30.1624 38.1194C30.1416 37.8322 29.9702 37.6106 29.7794 37.6244C29.5887 37.6382 29.4509 37.8822 29.4717 38.1694C29.4925 38.4565 29.664 38.6781 29.8547 38.6643Z" fill="#2E186A"></path>
  <path d="M32.5135 39.1732C33.2558 39.0582 33.8755 40.0433 34.0595 41.2342C34.2435 42.425 33.7912 43.4816 33.0488 43.5966H33.0233" stroke="#FE7624" stroke-width="0.766626" stroke-linecap="round" stroke-linejoin="round"></path>
  <path d="M22.2432 39.643C22.9843 39.528 23.7343 40.4007 23.9183 41.5902C24.1023 42.7798 23.65 43.839 22.9089 43.9527H22.8821" stroke="#FE7624" stroke-width="0.766626" stroke-linecap="round" stroke-linejoin="round"></path>
  <path d="M27.8549 41.5213C27.8549 41.5213 25.8719 42.7505 25.7709 40.0801L27.8549 41.5213Z" stroke="#2E186A" stroke-width="0.766626" stroke-linecap="round" stroke-linejoin="round"></path>
  <path d="M25.6266 31.2907L25.6163 31.3035C24.1329 31.5207 22.4757 32.1979 21.5532 33.1919C19.919 34.9501 20.6703 38.7231 22.3352 38.98C22.4706 39.0004 22.6099 39.0119 22.7504 39.0196C22.7364 38.925 22.7236 38.8292 22.7121 38.7334C22.6733 38.3907 22.6583 38.0457 22.6674 37.701C24.9366 36.8539 24.9328 33.4526 24.9277 33.1689C25.4093 33.5523 26.0405 34.209 25.877 34.9283L30.892 35.2452C31.399 36.121 31.7184 37.0926 31.8298 38.0983V38.1392C32.3 37.4672 32.3205 36.4207 31.9257 35.3104L33.6225 35.4177C33.6225 35.4177 35.1838 29.6846 25.6266 31.2907Z" fill="#2E186A"></path>
  <path d="M30.7502 57.0292L20.0737 57.0049L20.6678 52.3975" stroke="white" stroke-width="0.766626" stroke-linecap="round" stroke-linejoin="round"></path>
  <path d="M11.766 58.7422C11.2907 60.6115 12.8457 62.859 14.7725 62.8999L30.2698 62.8922" stroke="white" stroke-width="0.766626" stroke-linecap="round" stroke-linejoin="round"></path>
  <path d="M20.1721 57.0216C20.1721 57.0216 18.5711 56.3112 17.4148 58.0284" stroke="white" stroke-width="0.766626" stroke-linecap="round" stroke-linejoin="round"></path>
  <path d="M20.1389 56.4755C20.1389 56.4755 18.6529 55.1377 16.7874 56.6735" stroke="white" stroke-width="0.766626" stroke-linecap="round" stroke-linejoin="round"></path>
  <path d="M17.8978 61.123L25.7352 61.2047L28.3162 49.0665C28.3369 48.9401 28.4016 48.825 28.4989 48.7416C28.5961 48.6581 28.7196 48.6117 28.8477 48.6104L47.9278 48.9042C48.2766 48.9042 48.5334 49.2748 48.4542 49.6517L46.0265 62.6C45.8579 63.3998 44.8459 64.0221 44.124 64.0055C39.4336 63.9288 20.5464 63.6605 19.9945 63.6516C17.4646 63.6145 17.8978 61.123 17.8978 61.123Z" fill="#FE7624"></path>
  <path d="M7.43066 109.054V63.7051H50.8319V109.054" stroke="#2E186A" stroke-width="0.766626" stroke-linecap="round" stroke-linejoin="round"></path>
  <path d="M110.764 97.7529L110.347 103.69C110.347 103.69 116.607 106.798 116.048 110L102.837 109.953L103.067 98.5068L110.764 97.7529Z" fill="#FE7624"></path>
  <path d="M79.1561 97.7529L79.5739 103.69C79.5739 103.69 73.3131 106.798 73.8728 110L87.083 109.953L86.853 98.5068L79.1561 97.7529Z" fill="#FE7624"></path>
  <path d="M98.2492 48.0967C104.104 49.0524 103.92 51.5606 105.898 55.3209C107.875 59.0812 113.158 103.718 113.158 103.718L97.6525 103.935L96.7581 71.4341L90.5001 103.718H74.5001C74.5001 103.718 88.0429 57.53 89.3883 54.6641C90.7337 51.7982 92.2363 50.6342 94.2155 50.0976C96.1947 49.5609 98.2492 48.0967 98.2492 48.0967Z" fill="#5D21D1"></path>
  <path d="M118.653 48.6328C115.565 43.0978 109.07 33.9098 106.115 32.9259C106.051 32.9029 105.987 32.8812 105.916 32.862L103.019 32.3075C101.392 34.4311 98.1061 36.6402 95.2492 35.9873C90.7286 34.9536 92.5954 30.9263 92.7525 30.6465L94.1925 30.9608L94.0239 30.5864L92.925 30.3769C91.816 30.106 90.3696 30.1814 88.5693 30.787C84.0526 32.3037 73.5383 35.9043 73.5383 35.9043L78.0269 42.2992C78.0269 42.2992 79.5103 41.5517 84.2877 39.9853C85.237 39.6748 86.2784 39.3732 87.3325 39.0615C87.5152 41.2259 88.637 43.7405 91.4046 46.5476C92.81 48.2993 98.3987 49.0353 98.3987 49.0353C100.044 49.5029 103.437 46.8721 104.331 45.3798C104.622 44.8955 104.93 44.3397 105.237 43.7379C108.44 47.9735 113.499 54.2305 113.499 54.2305L114.836 53.8842C117.893 52.5873 120.14 51.2904 118.653 48.6328Z" fill="#2E186A"></path>
  <path d="M99.1055 25.3585L99.5259 25.6345C99.5259 25.6345 102.054 27.0106 102.848 24.4564C103.451 22.5181 101.593 21.91 100.661 21.7285" fill="white"></path>
  <path d="M99.1055 25.3585L99.5259 25.6345C99.5259 25.6345 102.054 27.0106 102.848 24.4564C103.451 22.5181 101.593 21.91 100.661 21.7285" stroke="#2E186A" stroke-width="0.766626" stroke-linecap="round" stroke-linejoin="round"></path>
  <path d="M93.2268 28.8122L94.1953 30.9613L92.7553 30.647C92.5982 30.9268 90.7314 34.9541 95.252 35.9878C98.2188 36.665 101.651 34.2565 103.203 32.0627L100.696 31.6078L98.6519 26.6797L93.2268 28.8122Z" fill="white" stroke="#2E186A" stroke-width="0.766626" stroke-linecap="round" stroke-linejoin="round"></path>
  <path d="M103.786 32.5783C105.744 31.8392 106.81 29.8587 106.167 28.1547C105.523 26.4508 103.415 25.6686 101.456 26.4078C99.4983 27.1469 98.4324 29.1274 99.0756 30.8314C99.7187 32.5353 101.828 33.3175 103.786 32.5783Z" fill="#2E186A"></path>
  <path d="M107.481 35.3998C109.008 34.8231 109.84 33.2778 109.338 31.9482C108.836 30.6185 107.191 30.0081 105.663 30.5848C104.135 31.1614 103.304 32.7068 103.806 34.0364C104.308 35.366 105.953 35.9764 107.481 35.3998Z" fill="#2E186A"></path>
  <path d="M110.714 38.0378C112.078 37.523 112.821 36.1439 112.373 34.9575C111.925 33.7711 110.457 33.2268 109.093 33.7416C107.729 34.2565 106.986 35.6356 107.434 36.8219C107.882 38.0083 109.35 38.5527 110.714 38.0378Z" fill="#2E186A"></path>
  <path d="M114.189 38.7722C114.528 39.765 113.878 40.8919 112.741 41.2893C111.604 41.6866 110.407 41.2037 110.068 40.2109C109.73 39.2181 110.324 38.0388 111.467 37.644C112.611 37.2492 113.852 37.7794 114.189 38.7722Z" fill="#2E186A"></path>
  <path d="M116.286 41.4578C116.316 42.5273 116.85 42.963 117.364 43.1342C117.416 43.1521 117.462 43.1854 117.495 43.2297C117.528 43.2739 117.547 43.3271 117.549 43.3823C117.552 43.4375 117.537 43.4921 117.508 43.539C117.479 43.5859 117.436 43.623 117.386 43.6453C116.03 44.1845 113.593 44.8323 112.831 42.9349C112.472 42.0405 112.907 40.9595 113.908 40.4791C114.908 39.9987 116.259 40.4919 116.286 41.4578Z" fill="#2E186A"></path>
  <path d="M105.736 30.5908L103.793 32.5904" stroke="#FE7624" stroke-width="1.02217" stroke-linecap="round" stroke-linejoin="round"></path>
  <path d="M109.288 33.6914L107.542 35.2719" stroke="#FE7624" stroke-width="1.02217" stroke-linecap="round" stroke-linejoin="round"></path>
  <path d="M111.439 37.7061L110.834 38.1188" stroke="#FE7624" stroke-width="1.02217" stroke-linecap="round" stroke-linejoin="round"></path>
  <path d="M113.679 40.5342L113.095 40.9788" stroke="#FE7624" stroke-width="1.02217" stroke-linecap="round" stroke-linejoin="round"></path>
  <path d="M90.0504 20.5386C89.7054 21.7102 88.7203 27.2708 92.2851 28.6495C95.8499 30.0281 99.195 27.2606 100.462 23.8376C101.73 20.4146 100.936 17.0657 98.6992 16.1407C96.4619 15.2156 92.5483 12.0558 90.0504 20.5386Z" fill="white" stroke="#2E186A" stroke-width="0.766626" stroke-linecap="round" stroke-linejoin="round"></path>
  <path d="M93.6919 25.0525C93.154 25.15 92.5991 25.0706 92.1101 24.8263C92.078 24.8104 92.0426 24.8023 92.0067 24.8028C91.9709 24.8032 91.9357 24.8121 91.904 24.8289C91.8723 24.8456 91.845 24.8696 91.8244 24.8989C91.8038 24.9282 91.7905 24.962 91.7855 24.9975C91.7102 25.4358 91.7306 26.2024 92.6927 26.4337C93.697 26.6752 93.9091 25.7948 93.9513 25.3016C93.955 25.2671 93.9507 25.2322 93.9388 25.1996C93.9269 25.167 93.9077 25.1375 93.8827 25.1135C93.8576 25.0894 93.8274 25.0714 93.7944 25.0608C93.7613 25.0503 93.7262 25.0474 93.6919 25.0525Z" fill="#2E186A"></path>
  <path d="M93.0748 23.4693L91.9708 23.1805L93.8388 18.9053" stroke="#2E186A" stroke-width="0.766626" stroke-linecap="round" stroke-linejoin="round"></path>
  <path d="M96.2805 20.2522C96.2805 20.2522 95.7286 19.2006 94.8751 19.589" stroke="#2E186A" stroke-width="0.766626" stroke-linecap="round" stroke-linejoin="round"></path>
  <path d="M93.338 17.8171C93.338 17.8171 92.648 16.8549 91.8546 17.3609" stroke="#2E186A" stroke-width="0.766626" stroke-linecap="round" stroke-linejoin="round"></path>
  <path d="M94.9411 22.212C95.0079 21.8879 94.8961 21.5909 94.6915 21.5488C94.4869 21.5067 94.267 21.7354 94.2003 22.0595C94.1336 22.3837 94.2453 22.6806 94.4499 22.7227C94.6545 22.7648 94.8744 22.5362 94.9411 22.212Z" fill="#2E186A"></path>
  <path d="M91.2992 21.5187C91.366 21.1945 91.2542 20.8976 91.0496 20.8555C90.845 20.8134 90.6251 21.042 90.5584 21.3662C90.4916 21.6903 90.6034 21.9873 90.808 22.0294C91.0126 22.0715 91.2325 21.8428 91.2992 21.5187Z" fill="#2E186A"></path>
  <path d="M98.2194 21.9539C98.5194 20.1861 97.7028 18.5732 96.3955 18.3514C95.0883 18.1295 93.7854 19.3828 93.4854 21.1506C93.1855 22.9185 94.0021 24.5314 95.3093 24.7532C96.6166 24.975 97.9195 23.7217 98.2194 21.9539Z" stroke="#FE7624" stroke-width="0.57497" stroke-linecap="round" stroke-linejoin="round"></path>
  <path d="M91.9934 20.7547C92.2934 18.9869 91.4768 17.374 90.1695 17.1521C88.8623 16.9303 87.5594 18.1836 87.2594 19.9514C86.9595 21.7192 87.776 23.3322 89.0833 23.554C90.3905 23.7758 91.6934 22.5225 91.9934 20.7547Z" stroke="#FE7624" stroke-width="0.57497" stroke-linecap="round" stroke-linejoin="round"></path>
  <path d="M92.1407 19.9688L93.6152 20.2486" stroke="#FE7624" stroke-width="0.57497" stroke-linecap="round" stroke-linejoin="round"></path>
  <path d="M98.3275 20.8418L101.665 21.9662" stroke="#FE7624" stroke-width="0.57497" stroke-linecap="round" stroke-linejoin="round"></path>
  <path d="M104.828 19.9559C104.566 18.1825 101.928 15.2425 99.5131 15.2667C96.3904 12.0942 91.7191 8.92162 89.0052 14.5001C88.938 14.6372 88.902 14.7875 88.9 14.9401C88.898 15.0928 88.9299 15.244 88.9935 15.3828C89.0571 15.5216 89.1507 15.6445 89.2677 15.7427C89.3846 15.8408 89.5219 15.9118 89.6697 15.9503L98.5408 18.2502C98.7874 19.5867 99.4684 21.7141 101.336 22.5625C101.876 22.8078 102.238 22.7758 102.472 22.5625C102.891 22.9777 103.12 23.5846 102.848 24.456C102.104 26.8492 99.8377 25.7925 99.5553 25.6494C99.0997 26.3626 98.5398 27.0035 97.8943 27.5506C99.8223 28.606 101.927 29.1069 103.197 27.4293C104.853 25.2418 105.191 22.4321 104.828 19.9559Z" fill="#2E186A"></path>
  <path d="M63.1428 25.2654L62.6765 26.2492L63.254 27.7173L64.4039 27.9894C64.4039 27.9894 65.2472 27.5716 64.5112 27.0848C63.7753 26.598 63.8392 26.7935 63.8392 26.7935L63.9669 26.0601L65.4913 25.2002" fill="white"></path>
  <path d="M63.1428 25.2654L62.6765 26.2492L63.254 27.7173L64.4039 27.9894C64.4039 27.9894 65.2472 27.5716 64.5112 27.0848C63.7753 26.598 63.8392 26.7935 63.8392 26.7935L63.9669 26.0601L65.4913 25.2002" stroke="#2E186A" stroke-width="0.766626" stroke-linecap="round" stroke-linejoin="round"></path>
  <path d="M62.3187 25.6872L61.8536 26.6711L62.4312 28.1392L63.5811 28.4113C63.5811 28.4113 64.4231 27.9935 63.6871 27.5067C62.9512 27.0199 63.0164 27.2154 63.0164 27.2154L63.1441 26.482L64.6684 25.6221" fill="white"></path>
  <path d="M62.3187 25.6872L61.8536 26.6711L62.4312 28.1392L63.5811 28.4113C63.5811 28.4113 64.4231 27.9935 63.6871 27.5067C62.9512 27.0199 63.0164 27.2154 63.0164 27.2154L63.1441 26.482L64.6684 25.6221" stroke="#2E186A" stroke-width="0.766626" stroke-linecap="round" stroke-linejoin="round"></path>
  <path d="M61.4001 25.8359L60.889 26.9066L61.5163 28.5038L62.7634 28.8002C62.7634 28.8002 63.6808 28.3466 62.8796 27.8164C62.0785 27.2861 62.1488 27.4995 62.1488 27.4995L62.2842 26.7022L63.9453 25.7656" fill="white"></path>
  <path d="M61.4001 25.8359L60.889 26.9066L61.5163 28.5038L62.7634 28.8002C62.7634 28.8002 63.6808 28.3466 62.8796 27.8164C62.0785 27.2861 62.1488 27.4995 62.1488 27.4995L62.2842 26.7022L63.9453 25.7656" stroke="#2E186A" stroke-width="0.766626" stroke-linecap="round" stroke-linejoin="round"></path>
  <path d="M66.3192 24.4621C65.2856 24.4749 64.0705 24.4851 64.0705 24.4851C64.0705 24.4851 61.6262 24.9592 61.248 25.0192C60.8698 25.0793 58.9801 26.0273 59.058 26.2394C59.2484 26.7505 60.8327 26.4247 61.6441 26.0925C62.4554 25.7603 64.2621 26.1053 64.2621 26.1053C64.2621 26.1053 64.7655 27.6219 64.4321 27.6257C64.0986 27.6296 62.2727 27.4814 62.0044 28.0448C61.7361 28.6083 61.8498 29.0414 62.5551 28.9584C63.2604 28.8753 64.2481 29.3417 64.2481 29.3417C64.2481 29.3417 66.8035 28.9047 67.4308 28.5891C68.0582 28.2735 70.666 34.3784 73.1729 38.3777C75.6797 42.3769 77.3408 42.7896 79.4119 41.1886C81.4141 39.6413 78.7565 35.973 77.5299 34.6429C76.555 33.5863 71.08 27.8915 68.775 25.4958C68.4584 25.1644 68.077 24.9016 67.6545 24.7238C67.2321 24.546 66.7776 24.4569 66.3192 24.4621Z" fill="white" stroke="#2E186A" stroke-width="0.766626" stroke-linecap="round" stroke-linejoin="round"></path>
  <path d="M101.955 59.4769C101.955 59.4769 114.692 55.2464 118.426 51.7838C120.214 50.1228 116.485 45.072 109.267 51.159C102.049 57.246 95.736 55.9006 95.736 55.9006L101.955 59.4769Z" fill="white" stroke="#2E186A" stroke-width="0.766626" stroke-linecap="round" stroke-linejoin="round"></path>
  <path d="M111.781 55.1647L108.765 55.2464L106.183 43.1082C106.162 42.9831 106.098 42.8691 106.002 42.7861C105.906 42.703 105.784 42.6561 105.657 42.6533L86.5709 42.9434C86.2221 42.9498 85.9653 43.3152 86.0458 43.6908L88.4671 56.6391C88.6357 57.4403 89.6477 58.0625 90.3708 58.0446C95.06 57.968 109.129 57.6996 109.681 57.6907C112.218 57.6588 111.781 55.1647 111.781 55.1647Z" fill="#FE7624"></path>
  <path d="M103.235 59.0119C98.9775 60.8007 96.463 59.3812 95.1763 56.9817C94.218 55.1929 93.0987 52.7933 93.8513 52.4253C94.6435 52.2618 95.598 55.2491 95.598 55.2491C95.598 55.2491 93.9983 51.8785 94.8173 51.6983C95.4561 51.5706 96.0656 52.9377 96.753 55.0446C96.753 55.0446 95.6503 52.2401 95.6657 51.789C95.7091 50.5113 96.8079 50.4104 97.8876 54.9539L96.9472 51.7597C96.7696 50.7439 97.6972 50.8844 98.2109 51.8095C98.7603 52.7972 100.218 56.1307 100.581 57.2155" fill="white"></path>
  <path d="M103.235 59.0119C98.9775 60.8007 96.463 59.3812 95.1763 56.9817C94.218 55.1929 93.0987 52.7933 93.8513 52.4253C94.6435 52.2618 95.598 55.2491 95.598 55.2491C95.598 55.2491 93.9983 51.8785 94.8173 51.6983C95.4561 51.5706 96.0656 52.9377 96.753 55.0446C96.753 55.0446 95.6503 52.2401 95.6657 51.789C95.7091 50.5113 96.8079 50.4104 97.8876 54.9539L96.9472 51.7597C96.7696 50.7439 97.6972 50.8844 98.2109 51.8095C98.7603 52.7972 100.218 56.1307 100.581 57.2155" stroke="#2E186A" stroke-width="0.766626" stroke-linecap="round" stroke-linejoin="round"></path>
  <path d="M99.578 55.3451C99.578 55.3451 100.425 53.5563 101.188 54.0674C101.951 54.5785 100.233 57.2617 100.233 57.2617" fill="white"></path>
  <path d="M99.578 55.3451C99.578 55.3451 100.425 53.5563 101.188 54.0674C101.951 54.5785 100.233 57.2617 100.233 57.2617" stroke="#2E186A" stroke-width="0.766626" stroke-linecap="round" stroke-linejoin="round"></path>
  <defs>
    <linearGradient id="paint0_linear_16658_6255" x1="57.4999" y1="10" x2="57.4999" y2="110" gradientUnits="userSpaceOnUse">
      <stop stop-color="#FEBA91"></stop>
      <stop offset="1" stop-color="#F68B4B"></stop>
    </linearGradient>
  </defs>
</svg>
