<?xml version="1.0" encoding="UTF-8"?>
<svg xmlns="http://www.w3.org/2000/svg" width="120" height="120" viewBox="0 0 120 120" fill="none">
  <path d="M67.5097 40.1084L58.9046 38.7524L57.9799 35.829C59.5858 34.8065 65.0011 35.2933 69.2174 36.8503L67.5097 40.1149" fill="#2E186A"></path>
  <path d="M81.6222 56.3796L75.2192 41.4139C74.8084 40.4867 73.9456 39.8003 72.9012 39.5234C72.3619 39.2736 71.7831 39.1198 71.1909 39.0688L69.0197 38.8873L69.2141 36.8435C69.2141 36.8435 68.9115 37.5788 66.5226 38.027C63.2928 38.6336 57.9767 35.8223 57.9767 35.8223V38.9903L54.6838 38.8963C53.2672 38.8551 50.5177 38.743 48.9259 41.8956L41.1849 61.3313C39.8134 63.8412 40.523 67.5566 42.8024 69.4702L47.3226 71.9776L46.9028 77.0001L81.111 76.8829L80.9204 72.4258C91.3117 65.9725 81.6222 56.3796 81.6222 56.3796Z" fill="#5D21D1"></path>
  <path d="M53.6317 61.988C53.6317 61.988 50.237 57.7897 45.0549 61.4974" stroke="white" stroke-width="0.772688" stroke-linecap="round" stroke-linejoin="round"></path>
  <path d="M53.6321 61.2503C53.5767 61.1382 51.5716 56.5922 45.9374 59.5207" stroke="white" stroke-width="0.772688" stroke-linecap="round" stroke-linejoin="round"></path>
  <path d="M73.6157 61.9888C73.6157 61.9888 76.7064 56.4821 82.6123 60.2902" stroke="white" stroke-width="0.772688" stroke-linecap="round" stroke-linejoin="round"></path>
  <path d="M73.2289 60.9442C73.2289 60.9442 74.8799 56.6777 80.3505 57.6757" stroke="white" stroke-width="0.772688" stroke-linecap="round" stroke-linejoin="round"></path>
  <path d="M58.0997 36.6016L58.9555 27.9951L66.0584 33.2996L65.4218 37.9056L58.0997 36.6016Z" fill="white" stroke="#2E186A" stroke-width="0.772688" stroke-linecap="round" stroke-linejoin="round"></path>
  <path d="M69.8782 19.7626C67.0144 17.3269 64.3189 16.2707 59.4267 21.4009L58.4693 25.0031C56.7004 24.272 55.6509 25.0658 55.89 26.6957C56.1463 28.4515 57.0629 29.3204 58.7629 29.0391C59.3752 30.9118 60.6667 33.1251 63.3889 34.0041C67.6521 35.3818 68.9262 32.7856 69.5173 31.7741C70.1083 30.7626 72.7419 22.1995 69.8782 19.7626Z" fill="white" stroke="#2E186A" stroke-width="0.772688" stroke-linecap="round" stroke-linejoin="round"></path>
  <path d="M67.7572 26.3265L67.808 29.6421L66.586 29.4895" stroke="#2E186A" stroke-width="0.772688" stroke-linecap="round" stroke-linejoin="round"></path>
  <path d="M69.1275 27.024C69.3292 27.0441 69.5179 26.8073 69.5489 26.4952C69.58 26.1831 69.4416 25.9138 69.2399 25.8937C69.0382 25.8737 68.8495 26.1104 68.8185 26.4226C68.7875 26.7347 68.9258 27.004 69.1275 27.024Z" fill="#2E186A"></path>
  <path d="M65.6119 26.6129C65.8136 26.6329 66.0023 26.3962 66.0333 26.0841C66.0644 25.7719 65.926 25.5027 65.7243 25.4826C65.5226 25.4625 65.3339 25.6993 65.3029 26.0114C65.2718 26.3235 65.4102 26.5928 65.6119 26.6129Z" fill="#2E186A"></path>
  <path d="M69.2413 23.1396C69.2413 23.1396 70.2825 22.9765 70.4538 23.8309" stroke="#2E186A" stroke-width="0.772688" stroke-linecap="round" stroke-linejoin="round"></path>
  <path d="M64.9596 30.0366C64.9596 30.0366 66.0923 30.5802 67.1037 30.5087C67.1037 30.5087 66.5617 32.1721 65.6237 31.8705C64.6856 31.5688 64.9596 30.0366 64.9596 30.0366Z" fill="#2E186A"></path>
  <path d="M54.2228 14.2356C52.6489 10.216 49.5374 9.56881 45.8365 9.92941C42.1356 10.29 39.6244 14.9672 39.4525 15.4069C37.4478 20.5356 38.8464 26.3703 42.8672 30.1324C43.3138 30.5482 43.7597 30.9705 44.1864 31.3779C46.5502 33.6357 40.7092 34.7852 40.7092 34.7852C51.4756 36.7345 50.1892 25.6334 50.0539 24.6519C53.6586 23.6709 55.6902 17.9728 54.2228 14.2356Z" fill="#2E186A"></path>
  <path d="M52.5207 16.9993C51.6688 16.5656 50.6268 16.9044 50.1933 17.756C49.7598 18.6075 50.099 19.6494 50.9508 20.0831L56.9922 23.1584C57.844 23.5921 58.886 23.2533 59.3195 22.4018C59.753 21.5502 59.4139 20.5083 58.562 20.0747L52.5207 16.9993Z" fill="#FE7624"></path>
  <path d="M72.5539 23.8061C72.7803 21.1393 72.373 18.7408 70.9176 17.0431C70.6928 16.7251 70.41 16.4524 70.0839 16.2394C68.8561 15.2592 67.1201 14.6272 64.7486 14.4768C64.6979 14.475 64.6474 14.4831 64.6 14.5008C64.2264 14.4978 63.853 14.516 63.4816 14.5553C63.2788 14.5669 63.0771 14.5935 62.8783 14.635C62.209 14.7467 61.5507 14.9168 60.9111 15.1434C55.3841 16.8962 52.8891 20.7997 54.6913 26.7134C55.6228 29.7619 57.1157 30.8616 58.6494 31.0167L58.8256 29.2444C58.7255 28.9497 58.4955 29.0368 58.4955 29.0368C56.8006 29.3186 56.1415 28.4507 55.8813 26.6945C55.756 25.8461 55.9821 25.2253 56.475 24.9275L56.5136 24.9042C56.5328 24.8931 56.5531 24.8835 56.5735 24.8739L56.613 24.8545L56.6791 24.8275L56.7179 24.8145C56.7419 24.8052 56.7665 24.7973 56.7914 24.7907L56.8273 24.7814C56.8538 24.7749 56.8818 24.7674 56.9094 24.7624L56.9338 24.7648C57.0874 24.7372 57.2439 24.7288 57.3996 24.7399L57.4111 24.7411C57.4495 24.7449 57.4893 24.7488 57.5303 24.7529L57.5533 24.7552C57.5931 24.7592 57.6341 24.7632 57.6738 24.7672L57.7007 24.7699L57.8276 24.7954L57.8468 24.7973C58.057 24.8478 58.2628 24.915 58.4623 24.9983C58.599 25.0546 58.4886 25.1109 58.6351 25.1863L59.0222 25.1976C59.1504 25.2104 59.29 25.2113 59.4327 25.2087C62.8187 25.139 68.2544 23.2621 70.412 20.3706C71.5616 22.0845 71.3933 25.2217 70.8921 27.8287C71.8331 26.6825 72.4116 25.2822 72.5539 23.8061Z" fill="#2E186A"></path>
  <path d="M64.5691 22.6609C64.777 22.4427 65.0396 22.2843 65.3296 22.2023C65.6196 22.1203 65.9263 22.1176 66.2176 22.1946" stroke="#FFFDFD" stroke-width="0.772688" stroke-linecap="round" stroke-linejoin="round"></path>
  <path d="M74.5362 47.8958L73.7261 43.5971C73.6488 43.1803 73.4899 42.7829 73.2586 42.4277C73.0273 42.0725 72.7281 41.7665 72.3783 41.5272C72.0284 41.2879 71.6347 41.12 71.2198 41.0332C70.805 40.9465 70.377 40.9425 69.9606 41.0215L68.7243 41.2546C68.5358 40.2131 68.1431 39.2192 67.5688 38.3302C66.9945 37.4412 66.25 36.6746 65.3781 36.0746C64.5062 35.4746 63.5242 35.0531 62.4887 34.8343C61.4531 34.6156 60.3846 34.6039 59.3445 34.8C58.3044 34.9961 57.3135 35.396 56.4287 35.9768C55.5439 36.5576 54.7828 37.3078 54.1892 38.184C53.5956 39.0603 53.1813 40.0454 52.9702 41.0825C52.759 42.1196 52.7552 43.1882 52.9589 44.2268L51.7226 44.4599C51.3058 44.5373 50.9084 44.6961 50.5532 44.9274C50.198 45.1587 49.892 45.4579 49.6527 45.8078C49.4134 46.1576 49.2455 46.5513 49.1587 46.9662C49.0719 47.3811 49.0679 47.809 49.1469 48.2255L49.957 52.5242C52.0405 52.1472 54.1885 52.6092 55.9328 53.8095C57.677 55.0097 58.876 56.851 59.2682 58.9316C59.6605 61.0123 59.2143 63.1637 58.0268 64.9167C56.8393 66.6697 55.007 67.8821 52.9292 68.2896L53.4663 71.1344C53.5436 71.5511 53.7025 71.9485 53.9338 72.3037C54.1651 72.6589 54.4642 72.965 54.8141 73.2043C55.164 73.4436 55.5576 73.6114 55.9725 73.6982C56.3874 73.785 56.8154 73.789 57.2318 73.71L75.4698 70.2716C75.8866 70.1942 76.284 70.0353 76.6392 69.804C76.9944 69.5727 77.3004 69.2736 77.5397 68.9237C77.779 68.5738 77.9469 68.1802 78.0337 67.7653C78.1205 67.3504 78.1245 66.9224 78.0455 66.506L77.5097 63.6599C76.4746 63.8552 75.4112 63.8446 74.3802 63.6289C73.3492 63.4132 72.3708 62.9965 71.5008 62.4026C70.6308 61.8088 69.8863 61.0494 69.3098 60.1678C68.7333 59.2862 68.3361 58.2997 68.1409 57.2646C67.9456 56.2296 67.9562 55.1661 68.1719 54.1351C68.3876 53.1041 68.8043 52.1257 69.3982 51.2557C69.992 50.3857 70.7514 49.6412 71.633 49.0648C72.5146 48.4883 73.5011 48.0911 74.5362 47.8958Z" fill="#FEBA91"></path>
  <path d="M57.2588 70.6981C58.9986 71.9331 59.2252 70.9968 58.7153 70.398C58.0714 69.6498 55.0463 67.2635 55.0463 67.2635C55.0463 67.2635 57.4764 67.9872 58.0714 66.6196C58.6663 65.2519 58.016 64.9827 57.1003 65.4476C56.1847 65.9125 53.3399 64.2358 53.3399 64.2358L52.4076 63.3794C52.4076 63.3794 49.2782 62.3723 48.4733 65.834C48.2912 66.4025 48.2578 67.0082 48.3764 67.5932C48.495 68.1783 48.7616 68.7231 49.1507 69.1759C49.5229 69.597 50.812 71.275 54.8982 73.3162C54.8982 73.3162 56.8145 74.0283 55.3798 72.6439C55.0239 72.3025 54.6458 71.985 54.2478 71.6935" fill="white"></path>
  <path d="M57.2588 70.6981C58.9986 71.9331 59.2252 70.9968 58.7153 70.398C58.0714 69.6498 55.0463 67.2635 55.0463 67.2635C55.0463 67.2635 57.4764 67.9872 58.0714 66.6196C58.6663 65.2519 58.016 64.9827 57.1003 65.4476C56.1847 65.9125 53.3399 64.2358 53.3399 64.2358L52.4076 63.3794C52.4076 63.3794 49.2782 62.3723 48.4733 65.834C48.2912 66.4025 48.2578 67.0082 48.3764 67.5932C48.495 68.1783 48.7616 68.7231 49.1507 69.1759C49.5229 69.597 50.812 71.275 54.8982 73.3162C54.8982 73.3162 56.8145 74.0283 55.3798 72.6439C55.0239 72.3025 54.6458 71.985 54.2478 71.6935" stroke="#2E186A" stroke-width="0.75" stroke-linecap="round" stroke-linejoin="round"></path>
  <path d="M54.539 68.8389C55.1481 69.2909 57.6929 70.7204 58.3007 71.6321C58.9086 72.5439 58.1475 72.8478 55.9723 71.2754" fill="white"></path>
  <path d="M54.539 68.8389C55.1481 69.2909 57.6929 70.7204 58.3007 71.6321C58.9086 72.5439 58.1475 72.8478 55.9723 71.2754" stroke="#2E186A" stroke-width="0.75" stroke-linecap="round" stroke-linejoin="round"></path>
  <path d="M53.5984 69.8174C53.6653 69.9281 57.8391 72.187 57.5687 72.7794C57.3459 73.2636 56.7509 73.2945 54.4432 71.8264L52.59 70.5386" fill="white"></path>
  <path d="M53.5984 69.8174C53.6653 69.9281 57.8391 72.187 57.5687 72.7794C57.3459 73.2636 56.7509 73.2945 54.4432 71.8264L52.59 70.5386" stroke="#2E186A" stroke-width="0.75" stroke-linecap="round" stroke-linejoin="round"></path>
  <path d="M72.4964 66.8344C70.4681 67.4938 70.5312 66.5331 71.1957 66.1133C72.0341 65.5891 75.64 64.2176 75.64 64.2176C75.64 64.2176 73.1043 64.1815 72.9459 62.6941C72.7875 61.2067 73.4881 61.1487 74.2234 61.8648C74.9587 62.5808 78.1744 61.8326 78.1744 61.8326L79.3206 61.293C79.3206 61.293 82.6071 61.2646 82.3418 64.8087C82.3459 65.4059 82.1969 65.9942 81.909 66.5175C81.6211 67.0407 81.2039 67.4815 80.6972 67.7977C80.2169 68.0888 78.4861 69.3045 73.9761 70.0321C73.9761 70.0321 71.9337 70.1403 73.7186 69.2465C74.1605 69.0271 74.6165 68.8374 75.0837 68.6786" fill="white"></path>
  <path d="M72.4964 66.8344C70.4681 67.4938 70.5312 66.5331 71.1957 66.1133C72.0341 65.5891 75.64 64.2176 75.64 64.2176C75.64 64.2176 73.1043 64.1815 72.9459 62.6941C72.7875 61.2067 73.4881 61.1487 74.2234 61.8648C74.9587 62.5808 78.1744 61.8326 78.1744 61.8326L79.3206 61.293C79.3206 61.293 82.6071 61.2646 82.3418 64.8087C82.3459 65.4059 82.1969 65.9942 81.909 66.5175C81.6211 67.0407 81.2039 67.4815 80.6972 67.7977C80.2169 68.0888 78.4861 69.3045 73.9761 70.0321C73.9761 70.0321 71.9337 70.1403 73.7186 69.2465C74.1605 69.0271 74.6165 68.8374 75.0837 68.6786" stroke="#2E186A" stroke-width="0.75" stroke-linecap="round" stroke-linejoin="round"></path>
  <path d="M75.6483 65.8711C74.9323 66.1209 72.0759 66.7249 71.2246 67.4165C70.3734 68.108 71.0083 68.6219 73.553 67.7719" fill="white"></path>
  <path d="M75.6483 65.8711C74.9323 66.1209 72.0759 66.7249 71.2246 67.4165C70.3734 68.108 71.0083 68.6219 73.553 67.7719" stroke="#2E186A" stroke-width="0.75" stroke-linecap="round" stroke-linejoin="round"></path>
  <path d="M76.2541 67.084C76.1562 67.169 71.4994 68.0795 71.5806 68.7247C71.6475 69.2527 72.209 69.4536 74.8478 68.7478L77.0036 68.0666" fill="white"></path>
  <path d="M76.2541 67.084C76.1562 67.169 71.4994 68.0795 71.5806 68.7247C71.6475 69.2527 72.209 69.4536 74.8478 68.7478L77.0036 68.0666" stroke="#2E186A" stroke-width="0.75" stroke-linecap="round" stroke-linejoin="round"></path>
  <path d="M42.1699 102.858C45.1498 102.846 47.3916 100.295 46.5763 97.4283C45.2305 92.6972 43.1313 87.164 42.5233 81.7952C48.3195 76.3718 42.0538 60.577 38.5987 60.4064C35.1149 59.7664 32.0961 59.1264 26.5232 58.9317C19.6417 58.6917 13.4167 59.5189 11.1118 59.851C2.49747 64.1151 -2.18933 89.1341 3.48766 94.0684C4.56238 95.0028 6.29371 95.9386 8.41447 96.8111C8.38379 97.169 8.35484 97.527 8.32791 97.8843C8.1156 100.701 10.4089 102.99 13.2338 102.978L42.1699 102.858Z" fill="#2E186A"></path>
  <path d="M20.112 59.7907L21.3573 52.2979L30.7158 55.8103L31.0751 61.1356C29.8102 70.4338 19.8373 61.439 20.112 59.7907Z" fill="white" stroke="#2E186A" stroke-width="0.905663" stroke-linecap="round" stroke-linejoin="round"></path>
  <path d="M34.0309 39.0447C34.0309 39.0447 26.5208 42.9622 29.6464 47.4705C29.6464 47.4705 31.0486 49.3622 32.3536 49.1173C32.3536 49.1173 31.5398 47.5387 32.6842 46.8541C32.6842 46.8541 32.6516 51.3773 36.4086 50.7603C36.4086 50.7603 35.2122 48.6593 35.7728 46.3037C36.9268 41.3862 36.0201 38.3043 34.0309 39.0447Z" fill="#2E186A"></path>
  <path d="M18.6499 44.9606C18.6499 44.9606 17.9819 36.0725 26.9798 35.2603C27.8186 35.1844 33.5618 34.7836 34.2228 39.5723C34.6644 42.7719 34.5251 46.195 34.2309 48.8396C34.2297 48.8547 33.7487 53.839 31.5564 56.4561C29.3641 59.0731 25.0133 58.4681 22.8103 56.9188C20.6072 55.3695 20.2407 54.6243 19.722 52.9524C19.2033 51.2806 18.6563 44.9762 18.6563 44.9762L18.6499 44.9606Z" fill="white" stroke="#2E186A" stroke-width="0.905663" stroke-linecap="round" stroke-linejoin="round"></path>
  <path d="M30.7302 46.6077L31.2313 50.7204L29.716 50.6005" stroke="#2E186A" stroke-width="0.905663" stroke-linecap="round" stroke-linejoin="round"></path>
  <path d="M33.0632 46.4514C33.0972 46.0694 32.9249 45.742 32.6783 45.72C32.4317 45.6981 32.2042 45.9899 32.1702 46.3719C32.1361 46.7538 32.3085 47.0813 32.5551 47.1032C32.8017 47.1252 33.0292 46.8333 33.0632 46.4514Z" fill="#2E186A"></path>
  <path d="M28.7744 46.2394C28.8792 45.8705 28.7711 45.5166 28.533 45.4489C28.2948 45.3812 28.0168 45.6254 27.9119 45.9942C27.8071 46.3631 27.9151 46.717 28.1533 46.7847C28.3915 46.8524 28.6695 46.6082 28.7744 46.2394Z" fill="#2E186A"></path>
  <path d="M26.2063 43.2437C26.4465 42.9649 26.7571 42.7558 27.1058 42.6382C27.4545 42.5206 27.8284 42.4989 28.1883 42.5754" stroke="#2E186A" stroke-width="0.905663" stroke-linecap="round" stroke-linejoin="round"></path>
  <path d="M32.1227 42.5462C32.1227 42.5462 33.7167 41.9774 34.3204 42.9579" stroke="#2E186A" stroke-width="0.905663" stroke-linecap="round" stroke-linejoin="round"></path>
  <path d="M26.1346 38.9676C26.1346 38.9676 28.5586 50.9972 20.6382 51.5874C20.6382 51.5874 16.0166 52.0315 15.1028 50.339C15.1028 50.339 18.5446 48.8461 18.2786 46.9277C18.2786 46.9277 14.2425 50.7055 11.2418 47.5273C11.2418 47.5273 16.7077 47.0517 16.6134 42.1625C16.5459 38.6549 25.1558 36.0495 26.1346 38.9676Z" fill="#2E186A"></path>
  <path d="M11.7025 39.4921L16.5266 39.1488C17.2743 35.9783 19.5071 31.5309 26.1461 31.2889C36.5196 30.9081 36.0344 40.9359 36.0344 40.9359L11.9273 42.6003C11.7232 42.6149 11.5183 42.5891 11.3242 42.5245C11.1301 42.4598 10.9506 42.3576 10.796 42.2236C10.6414 42.0896 10.5147 41.9264 10.4232 41.7435C10.3316 41.5605 10.277 41.3613 10.2624 41.1572C10.2479 40.9532 10.2736 40.7482 10.3383 40.5541C10.4029 40.36 10.5052 40.1805 10.6392 40.0259C10.7732 39.8713 10.9363 39.7446 11.1193 39.6531C11.3023 39.5615 11.5015 39.5069 11.7055 39.4924L11.7025 39.4921Z" fill="#FE7624"></path>
  <path d="M27.0915 51.4297C27.0915 51.4297 27.6209 53.0039 29.795 52.8354" stroke="#2E186A" stroke-width="0.905663" stroke-linecap="round" stroke-linejoin="round"></path>
  <path d="M50.5315 69.6098V64.4354C50.5315 63.4238 50.1296 62.4536 49.4143 61.7383C48.699 61.023 47.7288 60.6211 46.7171 60.6211H45.2288C45.2447 61.8773 45.0109 63.1241 44.5412 64.2893C44.0714 65.4545 43.375 66.5147 42.4923 67.4087C41.6095 68.3026 40.5581 69.0123 39.399 69.4968C38.2398 69.9812 36.996 70.2306 35.7397 70.2306C34.4834 70.2306 33.2397 69.9812 32.0805 69.4968C30.9214 69.0123 29.8699 68.3026 28.9872 67.4087C28.1045 66.5147 27.4081 65.4545 26.9383 64.2893C26.4686 63.1241 26.2348 61.8773 26.2507 60.6211H24.7624C23.7508 60.6215 22.7809 61.0235 22.0656 61.7387C21.3504 62.454 20.9484 63.4239 20.948 64.4354V92.0129C20.9492 93.0237 21.3516 93.9928 22.0668 94.7071C22.782 95.4215 23.7515 95.8227 24.7624 95.8227H46.7171C47.7288 95.8227 48.699 95.4208 49.4143 94.7055C50.1296 93.9902 50.5315 93.02 50.5315 92.0084V88.588C53.0274 88.5565 55.4104 87.5429 57.1643 85.7668C58.9182 83.9906 59.9016 81.595 59.9016 79.0989C59.9016 76.6028 58.9182 74.2071 57.1643 72.431C55.4104 70.6549 53.0274 69.6413 50.5315 69.6098Z" fill="#FEBA91"></path>
  <path d="M47.9231 94.5338C47.9019 94.4688 44.5902 90.6092 44.4785 90.6907C44.3668 90.7722 39.8295 92.8039 39.7298 92.9624C39.6302 93.1209 39.4566 94.0326 39.914 94.8839C40.3714 95.7353 40.874 97.6764 42.9253 97.8289C44.9767 97.9813 47.9231 94.5338 47.9231 94.5338Z" fill="white"></path>
  <path d="M41.8675 91.5813C41.8675 91.5813 41.4811 88.9141 42.094 88.2756C42.7068 87.6371 46.1694 93.5587 47.3604 93.9692" fill="white"></path>
  <path d="M41.8675 91.5813C41.8675 91.5813 41.4811 88.9141 42.094 88.2756C42.7068 87.6371 46.1694 93.5587 47.3604 93.9692" stroke="#2E186A" stroke-width="0.75" stroke-linecap="round" stroke-linejoin="round"></path>
  <path d="M40.0286 92.0492C40.0286 92.0492 39.2044 90.102 40.2957 89.1601C41.3871 88.2182 44.0784 93.5465 45.2603 94.2363" fill="white"></path>
  <path d="M40.0286 92.0492C40.0286 92.0492 39.2044 90.102 40.2957 89.1601C41.3871 88.2182 44.0784 93.5465 45.2603 94.2363" stroke="#2E186A" stroke-width="0.75" stroke-linecap="round" stroke-linejoin="round"></path>
  <path d="M39.5401 94.2849C39.5401 94.2849 38.1454 90.7966 39.1174 90.0585C40.0895 89.3204 41.6654 93.8442 43.5552 94.8887" fill="white"></path>
  <path d="M39.5401 94.2849C39.5401 94.2849 38.1454 90.7966 39.1174 90.0585C40.0895 89.3204 41.6654 93.8442 43.5552 94.8887" stroke="#2E186A" stroke-width="0.75" stroke-linecap="round" stroke-linejoin="round"></path>
  <path d="M47.1139 93.8369C47.2695 93.0851 47.1921 92.3036 46.892 91.5969C46.5493 90.7894 46.1373 89.6905 46.101 88.9886C46.0331 87.7659 48.0331 88.3395 48.1161 89.0988C48.1992 89.858 48.5795 89.8143 49.455 90.5871C50.3305 91.3599 50.1705 94.4422 50.1705 94.4422C50.1705 94.4422 50.9403 96.0226 48.4588 97.9139C45.9773 99.8052 43.3267 98.3335 43.3267 98.3335C43.3267 98.3335 38.5312 96.5614 38.5327 93.1063C38.5342 89.6512 39.8052 94.6882 42.2052 96.1056" fill="white"></path>
  <path d="M47.1139 93.8369C47.2695 93.0851 47.1921 92.3036 46.892 91.5969C46.5493 90.7894 46.1373 89.6905 46.101 88.9886C46.0331 87.7659 48.0331 88.3395 48.1161 89.0988C48.1992 89.858 48.5795 89.8143 49.455 90.5871C50.3305 91.3599 50.1705 94.4422 50.1705 94.4422C50.1705 94.4422 50.9403 96.0226 48.4588 97.9139C45.9773 99.8052 43.3267 98.3335 43.3267 98.3335C43.3267 98.3335 38.5312 96.5614 38.5327 93.1063C38.5342 89.6512 39.8052 94.6882 42.2052 96.1056" stroke="#2E186A" stroke-width="0.75" stroke-linecap="round" stroke-linejoin="round"></path>
  <path d="M21.1699 94.5338C21.1926 94.4688 24.5028 90.6092 24.6145 90.6907C24.7262 90.7722 29.2635 92.8039 29.3632 92.9624C29.4628 93.1209 29.6379 94.0326 29.179 94.8839C28.7201 95.7353 28.219 97.6764 26.1677 97.8289C24.1163 97.9813 21.1699 94.5338 21.1699 94.5338Z" fill="white"></path>
  <path d="M27.2275 91.5813C27.2275 91.5813 27.6124 88.9141 27.0011 88.2756C26.3897 87.6371 22.9256 93.5587 21.7346 93.9692" fill="white"></path>
  <path d="M27.2275 91.5813C27.2275 91.5813 27.6124 88.9141 27.0011 88.2756C26.3897 87.6371 22.9256 93.5587 21.7346 93.9692" stroke="#2E186A" stroke-width="0.75" stroke-linecap="round" stroke-linejoin="round"></path>
  <path d="M29.0633 92.0492C29.0633 92.0492 29.889 90.102 28.7961 89.1601C27.7033 88.2182 25.0135 93.545 23.8301 94.2349" fill="white"></path>
  <path d="M29.0633 92.0492C29.0633 92.0492 29.889 90.102 28.7961 89.1601C27.7033 88.2182 25.0135 93.545 23.8301 94.2349" stroke="#2E186A" stroke-width="0.75" stroke-linecap="round" stroke-linejoin="round"></path>
  <path d="M29.5524 94.2849C29.5524 94.2849 30.9471 90.7966 29.9766 90.0585C29.006 89.3204 27.4271 93.8442 25.5388 94.8887" fill="white"></path>
  <path d="M29.5524 94.2849C29.5524 94.2849 30.9471 90.7966 29.9766 90.0585C29.006 89.3204 27.4271 93.8442 25.5388 94.8887" stroke="#2E186A" stroke-width="0.75" stroke-linecap="round" stroke-linejoin="round"></path>
  <path d="M21.9781 93.8369C21.8232 93.085 21.9006 92.3038 22.1999 91.5969C22.5426 90.7894 22.9547 89.6905 22.9909 88.9886C23.0588 87.7659 21.0603 88.3395 20.9758 89.0988C20.8913 89.858 20.5124 89.8143 19.6369 90.5871C18.7614 91.3599 18.9214 94.4422 18.9214 94.4422C18.9214 94.4422 18.1516 96.0226 20.6332 97.9139C23.1147 99.8052 25.7652 98.3335 25.7652 98.3335C25.7652 98.3335 30.5622 96.5614 30.5607 93.1063C30.5592 89.6512 29.2868 94.6882 26.8868 96.1056" fill="white"></path>
  <path d="M21.9781 93.8369C21.8232 93.085 21.9006 92.3038 22.1999 91.5969C22.5426 90.7894 22.9547 89.6905 22.9909 88.9886C23.0588 87.7659 21.0603 88.3395 20.9758 89.0988C20.8913 89.858 20.5124 89.8143 19.6369 90.5871C18.7614 91.3599 18.9214 94.4422 18.9214 94.4422C18.9214 94.4422 18.1516 96.0226 20.6332 97.9139C23.1147 99.8052 25.7652 98.3335 25.7652 98.3335C25.7652 98.3335 30.5622 96.5614 30.5607 93.1063C30.5592 89.6512 29.2868 94.6882 26.8868 96.1056" stroke="#2E186A" stroke-width="0.75" stroke-linecap="round" stroke-linejoin="round"></path>
  <path d="M119.377 83.8836C119.41 76.9119 109.243 74.5148 109.243 74.5148C110.008 71.0507 109.657 62.4963 95.1665 65.1129C87.7443 66.3969 85.6446 70.2938 87.2223 73.4529C84.3351 74.885 77.1285 85.2149 77.1285 85.2149L77.2638 94.0935C76.7142 93.9788 76.1545 93.9198 75.593 93.9173C73.4021 93.9085 71.2973 94.7701 69.7415 96.3128C68.1857 97.8554 67.3063 99.9528 67.2965 102.144C67.2773 106.707 71.3477 110.789 75.9108 110.808C76.451 110.811 76.9898 110.754 77.5178 110.641V110.809L105.957 110.735C112.056 110.72 117.028 105.84 116.629 99.7547C116.518 98.0538 116.367 96.2536 116.162 94.4304C117.811 90.6485 119.366 86.4185 119.377 83.8836Z" fill="url(#paint0_linear_16658_6366)"></path>
  <path d="M102.856 70.2676L105.485 71.7239C105.485 71.7239 98.6451 74.6775 97.4096 88.3171C96.6067 97.1791 97.2449 111.001 97.2449 111.001L92.7239 110.931C92.7239 110.931 93.9429 83.5255 91.9721 79.0658C90.0014 74.606 92.1751 74.3252 93.1707 73.3986C94.1662 72.4719 102.856 70.2676 102.856 70.2676Z" fill="white"></path>
  <path d="M74.1206 107.96C77.7418 107.96 80.6774 105.025 80.6774 101.404C80.6774 97.7823 77.7418 94.8467 74.1206 94.8467C70.4993 94.8467 67.5637 97.7823 67.5637 101.404C67.5637 105.025 70.4993 107.96 74.1206 107.96Z" fill="#2E186A"></path>
  <path d="M98.0428 107.663C101.196 107.663 103.752 105.107 103.752 101.953C103.752 98.8003 101.196 96.2441 98.0428 96.2441C94.8897 96.2441 92.3335 98.8003 92.3335 101.953C92.3335 105.107 94.8897 107.663 98.0428 107.663Z" fill="#2E186A"></path>
  <path d="M102.726 82.5823C103.862 82.0653 107.477 77.9311 109.235 74.4886C110.703 74.4669 112.825 75.4715 113.745 76.185C109.571 82.7826 102.719 82.5925 102.726 82.5823Z" fill="#2E186A"></path>
  <path d="M101.93 94.4315C101.93 94.4315 106.97 92.3254 110.719 98.2032" stroke="#2E186A" stroke-width="0.765838" stroke-linecap="round" stroke-linejoin="round"></path>
  <path d="M101.569 94.501C101.569 94.501 105.542 90.4701 110.96 95.5387" stroke="#2E186A" stroke-width="0.765838" stroke-linecap="round" stroke-linejoin="round"></path>
  <path d="M115.983 94.8457C115.983 94.8457 111.119 112.205 98.359 108.55C98.359 108.55 96.0921 107.985 95.0098 106.508" stroke="#2E186A" stroke-width="0.765838" stroke-linecap="round" stroke-linejoin="round"></path>
  <path d="M100.139 96.6478C101.118 95.369 101.968 93.9971 102.679 92.5518C103.935 90.0463 105.557 86.0205 105.557 86.0205" stroke="#2E186A" stroke-width="0.765838" stroke-linecap="round" stroke-linejoin="round"></path>
  <path d="M103.061 64.7373L102.866 70.7861C102.876 71.1834 102.796 71.5778 102.631 71.9395C102.467 72.3012 102.222 72.6209 101.916 72.8743C100.745 73.8495 98.5976 75.773 95.9006 78.8172C95.9006 78.8172 92.536 75.2344 91.968 69.6399L103.061 64.7373Z" fill="white" stroke="#2E186A" stroke-width="0.765838" stroke-linecap="round" stroke-linejoin="round"></path>
  <path d="M103.864 60.7581C103.864 60.7581 106.537 60.9605 105.919 63.3224C105.301 65.6843 102.435 64.1376 102.435 64.1376L103.02 60.763L103.864 60.7581Z" fill="white" stroke="#2E186A" stroke-width="0.765838" stroke-linecap="round" stroke-linejoin="round"></path>
  <path d="M96.6798 52.7992C95.9793 52.7015 91.1751 52.1306 90.4226 56.1202C89.6702 60.1098 89.9842 64.5841 90.3213 66.6376C90.6584 68.6911 99.935 68.2693 100.469 68.118C101.004 67.9668 101.658 67.3884 101.658 67.3884L103.27 61.2872C103.27 61.2872 104.204 53.851 96.6798 52.7992Z" fill="white" stroke="#2E186A" stroke-width="0.765838" stroke-linecap="round" stroke-linejoin="round"></path>
  <path d="M102.381 61.1808C101.906 61.5984 100.551 64.0857 100.189 65.2607C100.189 65.2607 97.2485 64.0859 92.9592 63.7895C92.9592 63.7895 90.6157 63.7052 89.6673 63.927C89.6673 63.927 89.6323 68.157 91.4078 70.4473C93.1833 72.7377 97.2293 72.3517 99.186 71.1443C101.143 69.9368 101.487 69.3271 102.002 67.9466C102.517 66.5661 103.961 61.393 103.961 61.393L102.381 61.1808Z" fill="#968BB4"></path>
  <path d="M103.552 62.1519C103.552 62.1519 104.914 60.281 105.512 58.2913C106.073 56.4198 105.303 54.3823 103.591 53.4347C102.162 52.6398 101.041 53.1364 101.041 53.1364C101.041 53.1364 102.749 50.569 100.536 48.0924C100.15 47.6611 99.68 47.3128 99.1552 47.0688C98.6304 46.8247 98.0614 46.69 97.4829 46.6728C96.6834 46.6354 95.8904 46.8321 95.2012 47.2389C94.512 47.6457 93.9564 48.2448 93.6028 48.9628C93.6028 48.9628 90.8584 43.1701 84.4007 46.1446C83.7461 46.4442 82.984 47.3403 82.6072 47.9509C80.322 51.6515 86.8904 56.5559 90.4288 57.1124C94.3094 57.725 96.6292 57.2062 97.9403 56.3219C96.9735 56.8265 97.6994 62.7242 103.552 62.1519Z" fill="#2E186A"></path>
  <path d="M95.674 66.8711C95.674 66.8711 94.9975 68.1858 93.6353 67.54" stroke="#2E186A" stroke-width="1.02112" stroke-linecap="round" stroke-linejoin="round"></path>
  <path d="M93.0598 62.1675L92.1126 65.3022L93.7468 65.5594" stroke="#2E186A" stroke-width="1.02112" stroke-linecap="round" stroke-linejoin="round"></path>
  <path d="M91.8862 61.6239C91.9042 61.3023 91.7506 61.0321 91.5429 61.0204C91.3353 61.0087 91.1524 61.26 91.1343 61.5817C91.1162 61.9033 91.2699 62.1735 91.4775 62.1852C91.6851 62.1968 91.8681 61.9455 91.8862 61.6239Z" fill="#2E186A"></path>
  <path d="M95.5146 61.7626C95.5327 61.4409 95.379 61.1707 95.1714 61.1591C94.9637 61.1474 94.7808 61.3987 94.7627 61.7203C94.7446 62.042 94.8983 62.3122 95.1059 62.3239C95.3136 62.3355 95.4965 62.0842 95.5146 61.7626Z" fill="#2E186A"></path>
  <path d="M97.1142 59.6898C96.938 59.4355 96.6967 59.2332 96.4156 59.104C96.1346 58.9748 95.824 58.9234 95.5163 58.9552" stroke="#2E186A" stroke-width="1.02112" stroke-linecap="round" stroke-linejoin="round"></path>
  <path d="M92.0615 58.7014C92.0615 58.7014 91.0331 58.3708 90.7238 59.2098" stroke="#2E186A" stroke-width="1.02112" stroke-linecap="round" stroke-linejoin="round"></path>
  <path d="M94.9271 73.0795L76.2764 72.9991C75.8509 72.9972 75.4291 73.0792 75.0352 73.2404C74.6413 73.4015 74.283 73.6387 73.9808 73.9383C73.6785 74.2379 73.4383 74.5942 73.2737 74.9867C73.1091 75.3791 73.0235 75.8002 73.0216 76.2258L73.0025 80.6217C70.881 80.6377 68.8513 81.4894 67.3536 82.9921C65.8559 84.4947 65.0109 86.5272 65.0018 88.6487C64.9927 90.7703 65.8203 92.8099 67.3051 94.3253C68.7899 95.8407 70.8123 96.7097 72.9336 96.7439L72.9208 99.6528C72.9184 100.511 73.2569 101.336 73.8619 101.945C74.467 102.554 75.289 102.898 76.1475 102.901L94.7982 102.982C95.2236 102.983 95.6453 102.901 96.039 102.74C96.4327 102.579 96.7909 102.342 97.093 102.043C97.3951 101.743 97.6353 101.387 97.7998 100.995C97.9643 100.602 98.0499 100.182 98.0517 99.7562L98.1526 76.3292C98.1553 75.4707 97.8171 74.6462 97.2123 74.0369C96.6076 73.4275 95.7856 73.0832 94.9271 73.0795Z" fill="#FEBA91"></path>
  <path d="M71.6111 101.282C71.629 101.226 74.4294 97.956 74.5238 98.0326C74.6183 98.1092 78.4538 99.8195 78.5381 99.9536C78.6223 100.088 78.7704 100.857 78.3836 101.577C77.9969 102.297 77.5719 103.94 75.8309 104.069C74.0899 104.198 71.6111 101.282 71.6111 101.282Z" fill="white"></path>
  <path d="M76.733 98.785C76.733 98.785 77.0598 96.5308 76.539 95.996C76.0183 95.4612 73.0928 100.463 72.0857 100.811" fill="white"></path>
  <path d="M76.733 98.785C76.733 98.785 77.0598 96.5308 76.539 95.996C76.0183 95.4612 73.0928 100.463 72.0857 100.811" stroke="#2E186A" stroke-width="0.75" stroke-linecap="round" stroke-linejoin="round"></path>
  <path d="M78.286 99.181C78.286 99.181 78.9842 97.5331 78.0613 96.7367C77.1385 95.9402 74.8627 100.446 73.8633 101.029" fill="white"></path>
  <path d="M78.286 99.181C78.286 99.181 78.9842 97.5331 78.0613 96.7367C77.1385 95.9402 74.8627 100.446 73.8633 101.029" stroke="#2E186A" stroke-width="0.75" stroke-linecap="round" stroke-linejoin="round"></path>
  <path d="M78.7021 101.072C78.7021 101.072 79.8815 98.1223 79.0595 97.4981C78.2375 96.874 76.9049 100.701 75.3069 101.583" fill="white"></path>
  <path d="M78.7021 101.072C78.7021 101.072 79.8815 98.1223 79.0595 97.4981C78.2375 96.874 76.9049 100.701 75.3069 101.583" stroke="#2E186A" stroke-width="0.75" stroke-linecap="round" stroke-linejoin="round"></path>
  <path d="M72.3012 100.693C72.1696 100.057 72.2351 99.3961 72.4889 98.7985C72.7786 98.1143 73.127 97.1864 73.1577 96.5916C73.2151 95.5577 71.5239 96.044 71.4537 96.6848C71.3835 97.3255 71.0618 97.291 70.3203 97.9433C69.5787 98.5955 69.7165 101.203 69.7165 101.203C69.7165 101.203 69.0656 102.54 71.164 104.139C73.2623 105.738 75.5037 104.494 75.5037 104.494C75.5037 104.494 79.5639 102.997 79.5626 100.075C79.5614 97.1532 78.4866 101.413 76.4572 102.612" fill="white"></path>
  <path d="M72.3012 100.693C72.1696 100.057 72.2351 99.3961 72.4889 98.7985C72.7786 98.1143 73.127 97.1864 73.1577 96.5916C73.2151 95.5577 71.5239 96.044 71.4537 96.6848C71.3835 97.3255 71.0618 97.291 70.3203 97.9433C69.5787 98.5955 69.7165 101.203 69.7165 101.203C69.7165 101.203 69.0656 102.54 71.164 104.139C73.2623 105.738 75.5037 104.494 75.5037 104.494C75.5037 104.494 79.5639 102.997 79.5626 100.075C79.5614 97.1532 78.4866 101.413 76.4572 102.612" stroke="#2E186A" stroke-width="0.75" stroke-linecap="round" stroke-linejoin="round"></path>
  <path d="M97.8035 101.656C97.7856 101.6 94.9865 98.33 94.8908 98.4066C94.795 98.4832 90.9608 100.194 90.8765 100.321C90.7923 100.449 90.6442 101.225 91.0309 101.945C91.4177 102.665 91.844 104.307 93.5837 104.436C95.3235 104.565 97.8035 101.656 97.8035 101.656Z" fill="white"></path>
  <path d="M92.6808 99.159C92.6808 99.159 92.354 96.9049 92.8748 96.3701C93.3956 95.8352 96.3211 100.837 97.3281 101.185" fill="white"></path>
  <path d="M92.6808 99.159C92.6808 99.159 92.354 96.9049 92.8748 96.3701C93.3956 95.8352 96.3211 100.837 97.3281 101.185" stroke="#2E186A" stroke-width="0.75" stroke-linecap="round" stroke-linejoin="round"></path>
  <path d="M91.1273 99.555C91.1273 99.555 90.4291 97.9072 91.3533 97.1107C92.2774 96.3142 94.5443 100.82 95.5513 101.403" fill="white"></path>
  <path d="M91.1273 99.555C91.1273 99.555 90.4291 97.9072 91.3533 97.1107C92.2774 96.3142 94.5443 100.82 95.5513 101.403" stroke="#2E186A" stroke-width="0.75" stroke-linecap="round" stroke-linejoin="round"></path>
  <path d="M90.713 101.446C90.713 101.446 89.5336 98.4963 90.3556 97.8722C91.1776 97.248 92.5115 101.073 94.1082 101.957" fill="white"></path>
  <path d="M90.713 101.446C90.713 101.446 89.5336 98.4963 90.3556 97.8722C91.1776 97.248 92.5115 101.073 94.1082 101.957" stroke="#2E186A" stroke-width="0.75" stroke-linecap="round" stroke-linejoin="round"></path>
  <path d="M97.1186 101.067C97.2502 100.432 97.1847 99.7708 96.931 99.1732C96.6425 98.4891 96.2928 97.5611 96.2621 96.9676C96.2047 95.9325 97.8959 96.4188 97.9674 97.0595C98.0389 97.7003 98.358 97.6658 99.0995 98.3193C99.8411 98.9728 99.7033 101.579 99.7033 101.579C99.7033 101.579 100.354 102.916 98.2559 104.515C96.1575 106.114 93.9161 104.871 93.9161 104.871C93.9161 104.871 89.8559 103.373 89.8572 100.451C89.8585 97.5292 90.9332 101.789 92.9626 102.988" fill="white"></path>
  <path d="M97.1186 101.067C97.2502 100.432 97.1847 99.7708 96.931 99.1732C96.6425 98.4891 96.2928 97.5611 96.2621 96.9676C96.2047 95.9325 97.8959 96.4188 97.9674 97.0595C98.0389 97.7003 98.358 97.6658 99.0995 98.3193C99.8411 98.9728 99.7033 101.579 99.7033 101.579C99.7033 101.579 100.354 102.916 98.2559 104.515C96.1575 106.114 93.9161 104.871 93.9161 104.871C93.9161 104.871 89.8559 103.373 89.8572 100.451C89.8585 97.5292 90.9332 101.789 92.9626 102.988" stroke="#2E186A" stroke-width="0.75" stroke-linecap="round" stroke-linejoin="round"></path>
  <defs>
    <linearGradient id="paint0_linear_16658_6366" x1="93.3368" y1="64.623" x2="93.3368" y2="110.809" gradientUnits="userSpaceOnUse">
      <stop offset="0.415" stop-color="#FE7624"></stop>
      <stop offset="1" stop-color="#6A24FE"></stop>
    </linearGradient>
  </defs>
</svg>
