<?xml version="1.0" encoding="UTF-8"?>
<svg xmlns="http://www.w3.org/2000/svg" width="120" height="120" viewBox="0 0 120 120" fill="none">
  <rect width="120" height="120" fill="white"></rect>
  <path d="M19.4193 50.9824H59.8007V95.1988H4.33008V66.0716C4.33008 62.0697 5.91983 58.2317 8.7496 55.4019C11.5794 52.5722 15.4174 50.9824 19.4193 50.9824Z" fill="url(#paint0_linear_16658_6470)"></path>
  <path d="M10.0829 95.1985V64.4853C10.0829 57.1582 16.0496 51.2197 23.4201 51.2197" stroke="url(#paint1_linear_16658_6470)" stroke-width="0.3" stroke-linecap="round" stroke-linejoin="round"></path>
  <path d="M44.9612 54.1797L31.1511 60.0184C27.5526 61.5395 24.6481 64.3439 23.0017 67.8868C23.0017 67.8868 9.88147 85.2932 14.3945 94.9137H89.1711L78.4105 65.7757C77.7515 63.9919 76.4167 62.5394 74.6949 61.7324L61.4043 55.7831L44.9612 54.1797Z" fill="#5D21D1"></path>
  <path d="M34.6015 58.7979L37.4341 66.1629L43.0753 66.9939L38.6382 69.2406C38.6382 69.2406 43.4409 76.636 45.7093 81.1349" stroke="#2E186A" stroke-width="0.650911" stroke-linecap="round" stroke-linejoin="round"></path>
  <path d="M72.2555 60.9287L71.1707 67.3944L65.8072 69.3352L70.599 70.6501C70.599 70.6501 65.434 84.6761 65.2333 87.4403" stroke="#2E186A" stroke-width="0.650911" stroke-linecap="round" stroke-linejoin="round"></path>
  <path d="M25.4561 80.4806C29.4484 79.8297 48.8683 81.4082 48.8683 81.4082L47.9657 82.979" stroke="#2E186A" stroke-width="0.650911" stroke-linecap="round" stroke-linejoin="round"></path>
  <path d="M34.6015 80.2694L36.2689 74.5479" stroke="#2E186A" stroke-width="0.650911" stroke-linecap="round" stroke-linejoin="round"></path>
  <path d="M32.6054 95.1992C32.6054 95.1992 31.9436 85.4302 39.6374 80.7588" stroke="#2E186A" stroke-width="0.650911" stroke-linecap="round" stroke-linejoin="round"></path>
  <path d="M44.028 54.4736L41.0154 55.8503C41.0154 55.8503 52.8728 72.4051 51.2141 89.0033C53.2373 92.9782 62.2307 89.0033 62.2307 89.0033L64.4297 57.1348L60.8161 55.4988L44.028 54.4736Z" fill="white"></path>
  <path d="M62.7128 81.9124C60.7042 82.2289 58.6674 82.3278 56.6376 82.2075C54.7775 82.0996 52.9297 81.8362 51.1135 81.4199C51.1707 81.911 51.2191 82.4046 51.2589 82.9007C52.9896 83.2713 54.746 83.5096 56.5128 83.6135C57.1334 83.6489 57.7481 83.667 58.3571 83.6677C59.7817 83.6708 61.2045 83.5686 62.614 83.3618L62.7128 81.9124Z" fill="#968BB4"></path>
  <path d="M58.2443 80.7587C59.7709 80.7603 61.2961 80.6642 62.8105 80.4712L62.9092 79.0251C60.0238 79.4087 57.1028 79.4452 54.2087 79.1336C52.9426 79.0001 51.7602 78.8146 50.6862 78.6074C50.7773 79.0992 50.8601 79.5936 50.9346 80.0904C51.8893 80.2618 52.921 80.4159 54.0167 80.5309C55.4209 80.6814 56.8321 80.7574 58.2443 80.7587Z" fill="#968BB4"></path>
  <path d="M52.9859 74.9369C51.8284 74.8284 50.7392 74.6733 49.7314 74.5029C49.8681 74.9962 49.9983 75.4948 50.1219 75.9989C50.9649 76.1313 51.8577 76.2474 52.8048 76.3385C54.1724 76.4694 55.5227 76.5352 56.8556 76.5359C58.8673 76.5401 60.8761 76.3823 62.8624 76.064L63.1109 76.0206L63.2096 74.5615C59.4039 75.2461 55.8293 75.207 52.9859 74.9369Z" fill="#968BB4"></path>
  <path d="M57.0608 72.8743C59.1817 72.879 61.2972 72.6609 63.3725 72.2234L63.4723 70.7556C59.2718 71.7189 55.2936 71.554 52.2549 71.1049C50.9555 70.912 49.6674 70.6494 48.3961 70.3184C48.5863 70.8405 48.7708 71.371 48.9494 71.9098C49.8878 72.1268 50.9097 72.3308 52.0033 72.4935C53.6775 72.7445 55.3679 72.8718 57.0608 72.8743Z" fill="#968BB4"></path>
  <path d="M63.7498 66.676C59.1772 67.8043 54.649 67.622 51.2003 67.1349C49.7087 66.9227 48.2289 66.6348 46.7665 66.2725C46.9979 66.7939 47.2268 67.3306 47.4532 67.8824C48.5478 68.1265 49.7379 68.3532 51.0028 68.5333C52.8412 68.7963 54.6958 68.93 56.5529 68.9336C57.9075 68.9355 59.261 68.8554 60.6059 68.6938C61.629 68.5689 62.6447 68.39 63.6489 68.1579L63.7498 66.676Z" fill="#968BB4"></path>
  <path d="M63.9974 63.0408C59.1156 64.1951 54.2804 63.9304 50.6222 63.3587C48.6273 63.0443 46.6546 62.6022 44.7163 62.0352C45.0005 62.574 45.2898 63.1413 45.5842 63.7373C46.9099 64.0866 48.4449 64.4338 50.1189 64.7061C52.3288 65.0724 54.5647 65.26 56.8048 65.2669C57.9754 65.2669 59.1231 65.2116 60.2416 65.1009C61.4708 64.9809 62.6917 64.7871 63.8976 64.5205L63.9974 63.0408Z" fill="#968BB4"></path>
  <path d="M64.173 60.4597L64.2739 58.9745C55.4519 61.5554 46.49 59.2924 42.3599 57.9092C42.6854 58.4288 43.0477 59.0363 43.4448 59.7252C45.4572 60.3162 47.5072 60.771 49.5807 61.0867C51.5742 61.3896 53.5874 61.5437 55.6038 61.5478C58.4957 61.5638 61.377 61.1979 64.173 60.4597Z" fill="#968BB4"></path>
  <path d="M47.9326 46.251L46.966 52.3359L43.9403 54.7877C43.9403 54.7877 48.1441 61.0896 53.8613 62.5237C55.7988 63.0098 58.8516 62.4814 59.8464 60.7511C60.8054 59.0858 61.1113 56.7371 61.2947 53.9426C61.388 52.5301 47.9326 46.251 47.9326 46.251Z" fill="white" stroke="#2E186A" stroke-width="0.650911" stroke-linecap="round" stroke-linejoin="round"></path>
  <path d="M64.8868 33.5313C63.9462 28.3034 57.4675 28.9847 56.5225 29.1029C47.8134 30.1878 47.4098 37.5051 47.4629 39.5587L47.0833 39.6053C47.0833 39.6053 47.1266 39.9558 47.2004 40.522C46.0733 40.7965 44.0435 41.6861 44.7053 44.498C45.2075 46.6298 46.8023 46.8218 48.1182 46.5733C48.294 47.5161 48.474 48.321 48.64 48.7951C49.3105 50.7088 49.7704 51.5528 52.3741 53.2539C54.9777 54.9549 60.4183 55.5613 62.8375 52.437C65.0788 49.5437 65.2599 44.331 65.274 43.5759C65.5008 40.6804 65.5062 36.9735 64.8868 33.5313Z" fill="white" stroke="#2E186A" stroke-width="0.650911" stroke-linecap="round" stroke-linejoin="round"></path>
  <path d="M68.7553 41.884C68.6782 40.1482 67.5815 38.7607 66.1169 38.0469C65.9965 38.2297 65.8553 38.3979 65.696 38.5481C65.7307 40.9413 65.5419 45.2915 65.3358 46.5597C65.4443 46.5315 65.5528 46.4979 65.6526 46.461C65.5647 47.2301 65.3271 48.1165 64.7522 48.7587C64.2564 49.312 63.5708 49.6211 62.6725 49.6971C62.5103 49.5541 62.3099 49.4615 62.0959 49.4308C61.8818 49.4 61.6635 49.4324 61.4676 49.5239C61.2717 49.6155 61.1068 49.7622 60.993 49.9461C60.8793 50.13 60.8217 50.3431 60.8273 50.5593C60.833 50.7754 60.9015 50.9852 61.0247 51.163C61.1478 51.3407 61.3201 51.4787 61.5205 51.5599C61.7209 51.6411 61.9407 51.6621 62.1528 51.6203C62.3649 51.5784 62.5603 51.4756 62.7148 51.3244C64.0763 51.2278 65.1677 50.732 65.9639 49.8435C67.1909 48.4755 67.3504 46.5369 67.3276 45.4336C67.8052 44.9782 68.1797 44.4258 68.426 43.8135C68.6723 43.2012 68.7845 42.5433 68.7553 41.884Z" fill="#5D21D1"></path>
  <path d="M60.9304 41.2139L61.7332 46.2573L59.9269 45.8787" stroke="#2E186A" stroke-width="0.650911" stroke-linecap="round" stroke-linejoin="round"></path>
  <path d="M63.2006 42.2055C63.4873 42.193 63.704 41.8232 63.6845 41.3797C63.6651 40.9361 63.4169 40.5867 63.1302 40.5993C62.8435 40.6119 62.6268 40.9816 62.6462 41.4252C62.6657 41.8687 62.9139 42.2181 63.2006 42.2055Z" fill="#2E186A"></path>
  <path d="M58.1088 42.1811C58.3955 42.1685 58.6122 41.7988 58.5927 41.3552C58.5733 40.9117 58.3251 40.5623 58.0384 40.5749C57.7517 40.5875 57.535 40.9572 57.5544 41.4008C57.5739 41.8443 57.8221 42.1937 58.1088 42.1811Z" fill="#2E186A"></path>
  <path d="M54.7272 38.4715C55.0249 38.1665 55.3988 37.9468 55.8101 37.8352C56.2214 37.7236 56.6551 37.7242 57.0661 37.8369" stroke="#2E186A" stroke-width="0.650911" stroke-linecap="round" stroke-linejoin="round"></path>
  <path d="M61.4944 37.3384C61.4944 37.3384 62.9188 36.9044 63.33 38.0631" stroke="#2E186A" stroke-width="0.650911" stroke-linecap="round" stroke-linejoin="round"></path>
  <path d="M59.9268 48.2523C58.3494 49.9772 57.4718 48.4356 56.7221 47.3085C56.6794 47.2456 56.657 47.1712 56.6577 47.0953C56.6584 47.0193 56.6823 46.9453 56.7261 46.8833C56.77 46.8213 56.8318 46.7741 56.9032 46.7481C56.9746 46.7221 57.0522 46.7185 57.1257 46.7378C58.5404 47.1099 60.4595 47.6708 59.9268 48.2523Z" fill="#2E186A"></path>
  <path d="M66.6202 31.8005C66.1169 30.72 65.5007 30.4108 64.9582 30.4141C64.9366 30.2161 64.9043 30.0195 64.8617 29.825C64.6708 28.9773 64.309 28.1776 63.7982 27.4747C63.2875 26.7718 62.6386 26.1806 61.8914 25.7373C61.8914 25.7373 60.0504 23.7704 54.2464 24.1881C48.4425 24.6058 48.2927 27.9265 48.2927 27.9265C45.6566 29.7067 43.7494 31.9404 43.6073 33.8444C43.2102 39.1872 45.4515 40.4847 46.3856 40.7874C46.4865 40.7429 46.5852 40.7049 46.6828 40.6691C46.7061 40.742 46.7362 40.8125 46.7729 40.8796C50.431 40.6312 50.6252 35.4803 51.7816 33.0047C51.8114 32.9427 51.8537 32.8876 51.9057 32.8427C51.9578 32.7978 52.0185 32.7641 52.0842 32.7437C52.1499 32.7234 52.219 32.7168 52.2874 32.7243C52.3557 32.7319 52.4217 32.7535 52.4814 32.7877C54.1086 33.7066 56.3163 34.0071 58.9362 33.6437C61.7677 33.252 63.0348 31.9328 63.6011 30.8892C63.6195 30.9077 63.638 30.9272 63.6553 30.9467L63.7324 31.0324L63.7682 31.0726L63.8332 31.1507L63.8777 31.206C63.8962 31.2299 63.9146 31.2548 63.9341 31.2787L63.983 31.3449C64.0003 31.3676 64.0166 31.3904 64.0329 31.4143L64.0849 31.4891C64.1001 31.5108 64.1142 31.5325 64.1283 31.5553L64.1836 31.641L64.2205 31.7018C64.2401 31.7343 64.2596 31.7669 64.278 31.7994L64.3095 31.8558L64.3681 31.9643C64.3768 31.9817 64.3854 31.9979 64.393 32.0142C64.4136 32.0554 64.4342 32.0977 64.4538 32.139C64.6583 32.5798 64.8042 33.0456 64.8877 33.5243C65.1827 35.2345 65.3513 36.9641 65.3922 38.6991C65.4297 38.7027 65.4676 38.6984 65.5035 38.6867C65.5393 38.6749 65.5723 38.6559 65.6005 38.6307C66.7591 37.7053 67.8168 34.3705 66.6202 31.8005Z" fill="#2E186A"></path>
  <path d="M59.9536 39.1401C59.9536 39.1401 61.1589 43.9297 55.4211 43.9937C52.5885 43.9449 51.8823 41.5235 51.764 38.8223L59.9536 39.1401Z" stroke="#FE7624" stroke-width="0.650911" stroke-linecap="round" stroke-linejoin="round"></path>
  <path d="M51.7641 38.8223L49.564 39.8312" stroke="#FE7624" stroke-width="0.650911" stroke-linecap="round" stroke-linejoin="round"></path>
  <path d="M61.1839 41.0615L60.0383 41.08" stroke="#FE7624" stroke-width="0.650911" stroke-linecap="round" stroke-linejoin="round"></path>
  <path d="M60.9908 39.1903C60.9908 39.1903 61.3911 43.6772 64.9776 43.5752C68.5641 43.4733 67.8861 41.6225 68.2886 38.9473L60.9908 39.1903Z" stroke="#FE7624" stroke-width="0.650911" stroke-linecap="round" stroke-linejoin="round"></path>
  <path d="M51.21 43.2923C51.1776 42.5447 50.9644 41.816 50.5888 41.1687C50.2132 40.5214 49.6864 39.9748 49.0533 39.5756L48.5109 27.2441L48.1182 27.2615C47.6164 27.2835 47.1439 27.5038 46.8046 27.8741C46.4653 28.2443 46.2869 28.7342 46.3087 29.2359L46.7328 38.864C46.6146 38.864 46.4963 38.864 46.377 38.864C45.4613 38.9041 44.5781 39.2149 43.839 39.7569C43.0999 40.299 42.5382 41.048 42.2248 41.9094C41.9114 42.7707 41.8604 43.7056 42.0783 44.5959C42.2962 45.4861 42.7732 46.2918 43.449 46.911C44.1248 47.5302 44.969 47.9351 45.8749 48.0746C46.7808 48.214 47.7077 48.0817 48.5384 47.6944C49.3691 47.307 50.0663 46.6821 50.5418 45.8985C51.0174 45.115 51.2499 44.208 51.21 43.2923Z" fill="#5D21D1"></path>
  <path d="M45.6274 40.7544C46.8294 40.7544 47.8286 41.8393 47.8818 43.2235C47.936 44.648 46.9705 45.8532 45.7251 45.9151C45.6914 45.9151 45.6578 45.9151 45.6242 45.9151C44.4232 45.9151 43.423 44.8302 43.3699 43.447C43.3156 42.0226 44.2811 40.8173 45.5276 40.7555C45.5613 40.7555 45.5938 40.7555 45.6274 40.7555M45.6274 40.1046C45.583 40.1046 45.5396 40.1046 45.4951 40.1046C43.8971 40.1849 42.6517 41.695 42.72 43.4676C42.7862 45.2034 44.062 46.5616 45.6242 46.5616C45.669 46.5616 45.7135 46.5616 45.7576 46.5616C47.3556 46.4824 48.5999 44.9712 48.5316 43.1986C48.4654 41.4628 47.1896 40.1035 45.6274 40.1035V40.1046Z" fill="white"></path>
  <path d="M67.9417 83.8447C67.9417 83.8447 57.6052 83.3109 47.988 82.9453C46.4345 85.332 43.4576 90.4959 43.4576 94.9134H44.0283L60.0298 90.7584C60.2164 90.8202 70.4444 90.7584 70.4444 90.7584L67.9417 83.8447Z" fill="white" stroke="#2E186A" stroke-width="0.650911" stroke-linecap="round" stroke-linejoin="round"></path>
  <path d="M94.9752 45.3281C93.1849 45.3284 91.468 46.0398 90.2022 47.3058C88.9363 48.5719 88.2252 50.2889 88.2252 52.0792C88.2252 52.1746 88.2252 52.2701 88.2328 52.3645L88.2252 52.3569V58.802H94.3915C94.5846 58.8182 94.7788 58.8291 94.9752 58.8291C96.7507 58.8066 98.4458 58.0855 99.6934 56.822C100.941 55.5584 101.641 53.8543 101.641 52.0786C101.641 50.3029 100.941 48.5988 99.6934 47.3353C98.4458 46.0717 96.7507 45.3506 94.9752 45.3281Z" fill="#5D21D1"></path>
  <path d="M91.6613 52.6365C91.6613 52.2242 91.9401 51.9346 92.3296 51.9346C92.719 51.9346 92.987 52.2242 92.987 52.6365C92.987 53.0487 92.731 53.3384 92.3187 53.3384C91.9282 53.3384 91.6613 53.0379 91.6613 52.6365Z" fill="white"></path>
  <path d="M93.9677 52.6365C93.9677 52.2242 94.2454 51.9346 94.636 51.9346C95.0265 51.9346 95.2934 52.2242 95.2934 52.6365C95.2934 53.0487 95.0374 53.3384 94.6251 53.3384C94.2346 53.3384 93.9677 53.0379 93.9677 52.6365Z" fill="white"></path>
  <path d="M96.273 52.6365C96.273 52.2242 96.5518 51.9346 96.9424 51.9346C97.3329 51.9346 97.5998 52.2242 97.5998 52.6365C97.5998 53.0487 97.3427 53.3384 96.9304 53.3384C96.541 53.3384 96.273 53.0379 96.273 52.6365Z" fill="white"></path>
  <path d="M105.242 52.3082C103.13 52.3075 101.065 51.6839 99.3051 50.5155C97.5454 49.347 96.1692 47.6856 95.3489 45.7391C94.5286 43.7925 94.3005 41.6473 94.6931 39.5718C95.0857 37.4963 96.0817 35.5826 97.5564 34.0702C99.0311 32.5578 100.919 31.5139 102.984 31.069C105.049 30.6241 107.199 30.7981 109.166 31.569C111.132 32.34 112.828 33.6738 114.041 35.4035C115.253 37.1332 115.929 39.182 115.982 41.2937C115.998 41.3327 116.006 41.3743 116.006 41.4163V51.9827C116.006 52.069 115.972 52.1518 115.911 52.2128C115.85 52.2739 115.767 52.3082 115.681 52.3082H105.242Z" fill="#FE7624"></path>
  <path d="M105.241 31.1529C107.981 31.1527 110.611 32.2322 112.56 34.1574C114.51 36.0827 115.622 38.6987 115.656 41.4383L115.678 41.4166V51.9831H105.242C102.48 51.9831 99.8313 50.8858 97.8782 48.9327C95.925 46.9796 94.8278 44.3306 94.8278 41.5685C94.8278 38.8064 95.925 36.1574 97.8782 34.2043C99.8313 32.2512 102.48 31.1539 105.242 31.1539M105.242 30.503C102.308 30.503 99.4931 31.6689 97.4179 33.744C95.3427 35.8192 94.1769 38.6338 94.1769 41.5685C94.1769 44.5033 95.3427 47.3178 97.4179 49.393C99.4931 51.4682 102.308 52.634 105.242 52.634H115.678C115.85 52.634 116.016 52.5654 116.138 52.4433C116.26 52.3213 116.328 52.1557 116.328 51.9831V41.4166C116.328 41.3557 116.32 41.2951 116.304 41.2366C116.217 38.3595 115.014 35.6293 112.948 33.6251C110.882 31.621 108.116 30.5007 105.238 30.502L105.242 30.503Z" fill="white"></path>
  <path d="M104.897 44.6888C104.814 44.6887 104.732 44.6721 104.656 44.6402C104.58 44.6083 104.511 44.5615 104.453 44.5027C104.395 44.4439 104.349 44.3742 104.318 44.2975C104.287 44.2209 104.272 44.1389 104.273 44.0563C104.279 43.5139 104.29 43.1537 104.306 42.9867C104.329 42.7528 104.392 42.5247 104.494 42.313C104.579 42.1175 104.7 41.9391 104.849 41.7868C104.98 41.6624 105.291 41.4628 105.781 41.188C106.165 40.9851 106.532 40.7522 106.88 40.4915C107.115 40.2837 107.303 40.0284 107.432 39.7425C107.561 39.4565 107.628 39.1465 107.628 38.8328C107.628 38.1681 107.387 37.6459 106.906 37.2662C106.421 36.8855 105.82 36.6842 105.204 36.6967C103.902 36.6967 103.047 37.3574 102.638 38.6787C102.589 38.84 102.482 38.9772 102.337 39.0631C102.192 39.1491 102.021 39.1776 101.856 39.143C101.765 39.1234 101.679 39.0851 101.604 39.0306C101.529 38.9761 101.466 38.9066 101.419 38.8264C101.372 38.7463 101.342 38.6573 101.331 38.565C101.32 38.4727 101.328 38.3792 101.356 38.2903C101.923 36.4099 103.229 35.4697 105.273 35.4697C106.44 35.4697 107.383 35.789 108.1 36.4277C108.818 37.0663 109.177 37.885 109.177 38.8838C109.177 40.1856 108.43 41.2241 106.936 41.9994C106.285 42.3444 105.887 42.6142 105.743 42.8087C105.598 43.0033 105.526 43.3085 105.526 43.7244V44.0563C105.527 44.1394 105.511 44.2218 105.48 44.2988C105.449 44.3758 105.403 44.4458 105.344 44.5046C105.285 44.5635 105.216 44.6101 105.139 44.6418C105.062 44.6734 104.98 44.6894 104.897 44.6888ZM105.825 46.8032C105.824 47.0324 105.732 47.2518 105.569 47.4133C105.407 47.5749 105.187 47.6656 104.957 47.6656H104.913C104.8 47.6656 104.688 47.6433 104.583 47.5999C104.478 47.5566 104.383 47.493 104.303 47.4129C104.223 47.3328 104.16 47.2378 104.117 47.1331C104.074 47.0285 104.051 46.9164 104.052 46.8032C104.051 46.69 104.074 46.5778 104.117 46.4732C104.16 46.3686 104.223 46.2735 104.303 46.1934C104.383 46.1133 104.478 46.0497 104.583 46.0064C104.688 45.963 104.8 45.9407 104.913 45.9407H104.957C105.187 45.9407 105.407 46.0314 105.569 46.193C105.732 46.3546 105.824 46.5739 105.825 46.8032Z" fill="white"></path>
  <path d="M106.648 68.2939H69.3674C69.1298 68.2938 68.8991 68.374 68.7128 68.5215C68.5265 68.669 68.3955 68.8752 68.3412 69.1065L63.2999 90.4444H48.3484C48.3484 90.4444 47.4805 94.914 52.5294 94.914H100.859C101.096 94.9141 101.326 94.834 101.513 94.6867C101.699 94.5394 101.83 94.3336 101.885 94.1025L107.675 69.5914C107.711 69.4366 107.712 69.2755 107.678 69.1202C107.643 68.9649 107.574 68.8194 107.475 68.6947C107.376 68.5699 107.251 68.469 107.108 68.3997C106.964 68.3303 106.807 68.2941 106.648 68.2939Z" fill="#FEBA91"></path>
  <path d="M65.0064 94.9145L71.2172 69.3381C71.2732 69.1083 71.4049 68.9041 71.591 68.7583C71.7772 68.6125 72.007 68.5335 72.2435 68.5342" stroke="white" stroke-width="0.650911" stroke-linecap="round" stroke-linejoin="round"></path>
  <path d="M87.1839 84.6178C88.6255 84.6178 89.7941 83.4492 89.7941 82.0076C89.7941 80.5661 88.6255 79.3975 87.1839 79.3975C85.7424 79.3975 84.5738 80.5661 84.5738 82.0076C84.5738 83.4492 85.7424 84.6178 87.1839 84.6178Z" fill="white"></path>
  <path d="M97.363 85.0279C97.8658 85.0276 98.3574 85.1766 98.7756 85.4558C99.1937 85.735 99.5197 86.132 99.7122 86.5965C99.9047 87.061 99.9552 87.5721 99.8571 88.0653C99.7591 88.5584 99.517 89.0115 99.1614 89.367C98.8059 89.7225 98.3529 89.9647 97.8597 90.0627C97.3666 90.1607 96.8554 90.1103 96.3909 89.9178C95.9264 89.7253 95.5294 89.3993 95.2502 88.9811C94.971 88.563 94.8221 88.0714 94.8223 87.5686C94.8226 86.8948 95.0903 86.2488 95.5668 85.7723C96.0432 85.2959 96.6893 85.0282 97.363 85.0279ZM97.363 84.377C96.7315 84.377 96.1142 84.5642 95.5891 84.9151C95.0641 85.266 94.6548 85.7647 94.4132 86.3481C94.1716 86.9316 94.1084 87.5736 94.2317 88.1929C94.355 88.8123 94.6592 89.3812 95.1058 89.8276C95.5524 90.2741 96.1214 90.5781 96.7408 90.7012C97.3602 90.8242 98.0022 90.7609 98.5856 90.519C99.1689 90.2772 99.6675 89.8678 100.018 89.3427C100.369 88.8175 100.556 88.2001 100.556 87.5686C100.555 86.7223 100.218 85.911 99.6193 85.3127C99.0207 84.7143 98.2093 84.3778 97.363 84.377Z" fill="white"></path>
  <path d="M98.0236 84.1221H108.629V91.972C108.629 92.8352 108.286 93.663 107.676 94.2734C107.066 94.8837 106.238 95.2266 105.375 95.2266H101.278C100.415 95.2266 99.5872 94.8837 98.9769 94.2734C98.3665 93.663 98.0236 92.8352 98.0236 91.972V84.1221Z" fill="#FE7624"></path>
  <defs>
    <linearGradient id="paint0_linear_16658_6470" x1="32.0654" y1="50.9824" x2="32.0654" y2="95.1988" gradientUnits="userSpaceOnUse">
      <stop offset="0.415" stop-color="#FE7624"></stop>
      <stop offset="1" stop-color="#6A24FE"></stop>
    </linearGradient>
    <linearGradient id="paint1_linear_16658_6470" x1="16.7515" y1="51.2197" x2="16.7515" y2="95.1985" gradientUnits="userSpaceOnUse">
      <stop stop-color="#E36418"></stop>
      <stop offset="1" stop-color="#7D370D" stop-opacity="0"></stop>
    </linearGradient>
  </defs>
</svg>
