<svg width="72" height="26" fill="none" xmlns="http://www.w3.org/2000/svg"><path d="M33.354.5c-3.952 0-7.155 3.217-7.155 7.186v14.296a3.51 3.51 0 003.503 3.518V13.45h2.762c.492 0 .89-.401.89-.895V9.931h-3.652V7.686c0-1.72 1.18-3.165 2.77-3.56.478-.12.882-.508.882-1.002V.5zm9.726 0c-3.951 0-7.155 3.217-7.155 7.186v14.296A3.51 3.51 0 0039.43 25.5V13.45h2.762c.491 0 .89-.401.89-.895V9.931h-3.653V7.686c0-1.72 1.18-3.165 2.771-3.56.477-.12.882-.508.882-1.002V.5z" fill="#131426"/><path fill-rule="evenodd" clip-rule="evenodd" d="M11.59.5v9.431H7.752C3.47 9.931 0 13.416 0 17.716v.205C0 22.107 3.379 25.5 7.547 25.5c4.167 0 7.546-3.393 7.546-7.579V4.018A3.51 3.51 0 0011.59.5zM7.752 13.45h3.838v4.471c0 2.243-1.81 4.061-4.043 4.061a4.052 4.052 0 01-4.044-4.06v-.206c0-2.357 1.902-4.267 4.249-4.267z" fill="#131426"/><path d="M47.702 17.716c0-2.357 1.902-4.267 4.248-4.267h2.129c.491 0 .89-.4.89-.894V9.931H51.95c-4.28 0-7.751 3.485-7.751 7.785 0 4.299 3.47 7.784 7.751 7.784h3.019v-2.624a.892.892 0 00-.89-.894H51.95c-2.346 0-4.248-1.91-4.248-4.266z" fill="#131426"/><path fill-rule="evenodd" clip-rule="evenodd" d="M64.248 9.931c-4.28 0-7.751 3.485-7.751 7.785 0 4.299 3.47 7.784 7.751 7.784C68.53 25.5 72 22.015 72 17.716c0-4.3-3.47-7.785-7.752-7.785zM60 17.716c0-2.357 1.902-4.267 4.248-4.267 2.347 0 4.249 1.91 4.249 4.267a4.257 4.257 0 01-4.249 4.266c-2.346 0-4.248-1.91-4.248-4.266z" fill="#131426"/><path d="M22.398 13.239a.612.612 0 00-.611-.613h-2.003c-.491 0-.89.4-.89.893V25.5a3.51 3.51 0 003.504-3.518v-8.743zm.597-5.765a2.465 2.465 0 00-2.46-2.47 2.465 2.465 0 00-2.459 2.47 2.465 2.465 0 002.46 2.47 2.465 2.465 0 002.46-2.47z" fill="#131426"/></svg>