<svg width="24" height="24" xmlns="http://www.w3.org/2000/svg"><defs><linearGradient x1="0%" y1="50%" x2="100%" y2="50%" id="linearGradient-1"><stop stop-color="#16BFCE" offset="0%"/><stop stop-color="#16BFCE" offset="100%"/></linearGradient></defs><g id="icons-/-arrow90" stroke="none" stroke-width="1" fill="none" fill-rule="evenodd"><path d="M13.81 6.235a1.331 1.331 0 01-.001-1.837 1.28 1.28 0 011.854 0l6.413 6.693c.228.247.359.572.359.91a1.345 1.345 0 01-.367.917l-6.405 6.685a1.28 1.28 0 01-1.854 0 1.332 1.332 0 010-1.837l4.264-4.45H1.73A1.305 1.305 0 01.435 12c0-.72.572-1.316 1.294-1.316h16.345l-4.265-4.45z" id="Arrow_Forward" fill="url(#linearGradient-1)" fill-rule="nonzero" transform="rotate(90 11.435 12)"/></g></svg>