<svg width="260" height="64" viewBox="0 0 260 64" fill="none" xmlns="http://www.w3.org/2000/svg">
<path d="M82.6557 16H69.2751V47.9999L82.6557 16Z" fill="#131426"/>
<path d="M92.0698 16H105.433V47.9999L92.0698 16Z" fill="#131426"/>
<path d="M87.3625 27.7941L95.879 48H90.2914L87.746 41.5669H81.5134L87.3625 27.7941Z" fill="#131426"/>
<path d="M127.262 36.3497L128.84 40.8738C128.892 40.9871 128.971 41.0394 129.11 41.0394H132.144C132.309 41.0394 132.335 40.961 132.309 40.7954L126.042 23.3876C126.016 23.2481 125.99 23.222 125.85 23.222H122.084C121.98 23.222 121.919 23.3004 121.919 23.4138C121.866 24.329 121.788 24.608 121.675 24.8782L116.087 40.7692C116.061 40.961 116.122 41.0394 116.279 41.0394H118.99C119.155 41.0394 119.234 40.9871 119.295 40.8215L120.786 36.3497H127.262ZM121.649 33.3947C122.468 30.9191 123.549 27.7461 123.985 25.933H124.011C124.551 27.8333 125.824 31.599 126.399 33.3947H121.649Z" fill="#131426"/>
<path d="M140.366 41.3094C141.996 41.3094 143.731 41.0131 145.492 40.2547C145.631 40.2024 145.658 40.1414 145.658 40.0106C145.605 39.5225 145.544 38.8164 145.544 38.2759V21.8881C145.544 21.7835 145.544 21.7312 145.414 21.7312H142.458C142.345 21.7312 142.293 21.7835 142.293 21.9229V27.4756C141.831 27.4233 141.508 27.3972 141.125 27.3972C136.357 27.3972 133.428 30.544 133.428 34.4753C133.428 39.0343 136.435 41.3094 140.366 41.3094ZM142.293 38.2759C141.805 38.4328 141.264 38.4939 140.715 38.4939C138.553 38.4939 136.784 37.2735 136.784 34.3097C136.784 31.6859 138.606 30.1343 141.02 30.1343C141.508 30.1343 141.935 30.1866 142.293 30.3261V38.2759Z" fill="#131426"/>
<path d="M155.085 27.3974C151.014 27.3974 148.495 30.518 148.495 34.3709C148.495 37.8141 150.5 41.3096 155.024 41.3096C158.851 41.3096 161.536 38.494 161.536 34.2837C161.536 30.5703 159.261 27.3974 155.085 27.3974ZM154.92 30.1345C157.221 30.1345 158.197 32.1132 158.197 34.3709C158.197 37.1603 156.759 38.5463 155.085 38.5463C153.019 38.5463 151.799 36.8117 151.799 34.3099C151.799 31.7384 153.098 30.1345 154.92 30.1345Z" fill="#131426"/>
<path d="M164.591 21.7312C164.478 21.7312 164.399 21.7835 164.399 21.9229V40.4726C164.399 40.5511 164.478 40.6905 164.591 40.7167C165.89 41.1177 167.25 41.3094 168.653 41.3094C172.672 41.3094 176.577 38.8164 176.577 33.7954C176.577 30.1605 174.084 27.3972 170.179 27.3972C169.281 27.3972 168.444 27.5367 167.712 27.7807L167.677 21.9491C167.677 21.7573 167.624 21.7312 167.433 21.7312H164.591ZM173.238 34.1267C173.238 37.134 171.181 38.5462 168.958 38.5462C168.496 38.5462 168.086 38.52 167.712 38.4067V30.4917C168.139 30.3261 168.653 30.1866 169.603 30.1866C171.748 30.1866 173.238 31.5465 173.238 34.1267Z" fill="#131426"/>
<path d="M187.604 35.1031C188.929 35.1031 190.019 35.077 190.394 34.9898C190.533 34.9637 190.585 34.9114 190.612 34.798C190.69 34.5017 190.725 33.8828 190.725 33.1244C190.725 30.5442 189.173 27.3974 185.163 27.3974C181.066 27.3974 178.791 30.7359 178.791 34.5017C178.791 37.8403 180.552 41.3096 185.486 41.3096C187.334 41.3096 188.528 41.0132 189.557 40.5251C189.661 40.4728 189.714 40.3856 189.714 40.2287V37.971C189.714 37.8403 189.635 37.8141 189.557 37.8664C188.528 38.3022 187.412 38.5202 186.192 38.5202C183.429 38.5202 182.174 36.9947 182.095 35.1031H187.604ZM182.095 32.767C182.313 31.442 183.15 30.0037 185.024 30.0037C187.09 30.0037 187.63 31.7384 187.63 32.5229C187.63 32.5491 187.63 32.6624 187.63 32.7408C187.517 32.767 187.168 32.767 186.14 32.767H182.095Z" fill="#131426"/>
</svg>
