<svg width="260" height="64" viewBox="0 0 260 64" fill="none" xmlns="http://www.w3.org/2000/svg">
<path d="M116.64 26.9391C116.64 27.702 116.742 28.3124 116.843 28.7702C116.996 29.228 117.199 29.6858 117.505 30.2453C117.606 30.3979 117.657 30.5504 117.657 30.703C117.657 30.9065 117.555 31.11 117.25 31.3134L115.979 32.1781C115.775 32.2798 115.623 32.3816 115.47 32.3816C115.267 32.3816 115.063 32.2798 114.86 32.0764C114.554 31.7712 114.351 31.466 114.148 31.11C113.944 30.7539 113.741 30.3979 113.537 29.8892C111.96 31.7712 109.977 32.6867 107.535 32.6867C105.806 32.6867 104.483 32.1781 103.466 31.2117C102.449 30.2453 101.94 28.9228 101.94 27.2951C101.94 25.5657 102.551 24.1415 103.771 23.1243C104.992 22.107 106.671 21.5475 108.756 21.5475C109.468 21.5475 110.18 21.5983 110.892 21.7001C111.655 21.8018 112.418 21.9544 113.232 22.1578V20.6828C113.232 19.1568 112.927 18.0378 112.266 17.4275C111.604 16.8171 110.536 16.5119 108.959 16.5119C108.247 16.5119 107.535 16.6136 106.772 16.7662C106.009 16.9697 105.297 17.1731 104.585 17.4783C104.28 17.58 104.026 17.6818 103.873 17.7326C103.72 17.7326 103.619 17.7835 103.568 17.7835C103.263 17.7835 103.161 17.58 103.161 17.1731V16.1558C103.161 15.8507 103.212 15.5963 103.313 15.4437C103.415 15.2911 103.619 15.1386 103.873 15.0368C104.585 14.6808 105.45 14.3756 106.416 14.1213C107.433 13.8669 108.451 13.7144 109.57 13.7144C112.011 13.7144 113.741 14.2739 114.911 15.342C116.03 16.461 116.589 18.0887 116.589 20.3776L116.64 26.9391ZM108.4 30.0418C109.061 30.0418 109.773 29.9401 110.485 29.6858C111.197 29.4314 111.859 28.9736 112.418 28.3633C112.723 27.9564 112.978 27.5494 113.13 27.0408C113.232 26.5322 113.334 25.9727 113.334 25.2606V24.3959C112.723 24.2433 112.113 24.1415 111.452 24.0398C110.791 23.9381 110.18 23.9381 109.519 23.9381C108.146 23.9381 107.179 24.1924 106.467 24.7519C105.806 25.3114 105.45 26.0744 105.45 27.0917C105.45 28.0581 105.704 28.7702 106.213 29.228C106.721 29.8383 107.433 30.0418 108.4 30.0418ZM124.727 32.2798C124.371 32.2798 124.117 32.229 123.964 32.0764C123.812 31.9746 123.659 31.6695 123.557 31.2625L118.776 15.4946C118.675 15.0877 118.573 14.8334 118.573 14.6808C118.573 14.3756 118.725 14.1721 119.081 14.1721H121.065C121.472 14.1721 121.726 14.223 121.879 14.3756C122.032 14.4773 122.184 14.7825 122.286 15.1894L125.694 28.6685L128.847 15.1894C128.949 14.7825 129.051 14.5282 129.254 14.3756C129.407 14.2739 129.712 14.1721 130.068 14.1721H131.696C132.103 14.1721 132.357 14.223 132.51 14.3756C132.662 14.4773 132.815 14.7825 132.917 15.1894L136.121 28.8211L139.631 15.1894C139.732 14.7825 139.885 14.5282 140.038 14.3756C140.19 14.2739 140.444 14.1721 140.851 14.1721H142.733C143.039 14.1721 143.242 14.3247 143.242 14.6808C143.242 14.7825 143.242 14.8842 143.191 14.986C143.191 15.0877 143.14 15.2911 143.039 15.4946L138.105 31.2625C138.003 31.6695 137.85 31.9238 137.698 32.0764C137.545 32.1781 137.291 32.2798 136.935 32.2798H135.205C134.798 32.2798 134.544 32.229 134.392 32.0764C134.239 31.9238 134.086 31.6695 133.985 31.2625L130.831 18.1396L127.677 31.2625C127.576 31.6695 127.474 31.9238 127.271 32.0764C127.118 32.229 126.813 32.2798 126.457 32.2798H124.727ZM150.922 32.7885C149.854 32.7885 148.786 32.6867 147.769 32.4324C146.752 32.1781 145.938 31.9238 145.429 31.6186C145.124 31.4151 144.87 31.2117 144.819 31.0591C144.768 30.9065 144.666 30.6522 144.666 30.4996V29.4823C144.666 29.0754 144.819 28.8719 145.124 28.8719C145.226 28.8719 145.378 28.8719 145.48 28.9228C145.582 28.9736 145.785 29.0245 145.989 29.1262C146.701 29.4314 147.413 29.6858 148.227 29.8383C149.041 29.9909 149.854 30.0927 150.668 30.0927C151.94 30.0927 152.957 29.8892 153.618 29.4314C154.33 28.9736 154.686 28.3124 154.686 27.4986C154.686 26.9391 154.483 26.4813 154.127 26.0744C153.771 25.6675 153.059 25.3623 152.092 25.0062L149.142 24.0907C147.667 23.6329 146.548 22.9208 145.887 22.0052C145.226 21.0897 144.87 20.1233 144.87 19.0551C144.87 18.1904 145.073 17.4275 145.429 16.8171C145.785 16.2067 146.294 15.5963 146.904 15.1386C147.515 14.6808 148.227 14.3247 149.041 14.0704C149.854 13.8161 150.719 13.7144 151.584 13.7144C152.041 13.7144 152.499 13.7144 152.957 13.8161C153.415 13.8669 153.873 13.9687 154.28 14.0195C154.686 14.1213 155.093 14.223 155.449 14.3247C155.805 14.4265 156.111 14.579 156.314 14.6808C156.619 14.8334 156.823 14.986 156.924 15.1894C157.026 15.342 157.128 15.5963 157.128 15.8507V16.8171C157.128 17.224 156.975 17.4783 156.67 17.4783C156.518 17.4783 156.263 17.3766 155.907 17.224C154.737 16.7154 153.466 16.4102 151.991 16.4102C150.821 16.4102 149.905 16.6136 149.295 16.9697C148.684 17.3257 148.328 17.9361 148.328 18.8008C148.328 19.3603 148.532 19.8689 148.939 20.225C149.346 20.6319 150.109 20.988 151.177 21.344L154.076 22.2596C155.551 22.7173 156.619 23.3786 157.23 24.1924C157.84 25.0062 158.145 25.9727 158.145 27.0408C158.145 27.9055 157.942 28.7193 157.637 29.3806C157.281 30.0927 156.772 30.703 156.162 31.1608C155.551 31.6695 154.788 32.0255 153.923 32.2798C152.906 32.6867 151.94 32.7885 150.922 32.7885Z" fill="#131426"/>
<path fill-rule="evenodd" clip-rule="evenodd" d="M154.788 42.707C148.074 47.6408 138.308 50.2858 129.967 50.2858C118.217 50.2858 107.637 45.9623 99.6515 38.7396C99.0412 38.1801 99.6007 37.4171 100.364 37.824C109.011 42.8596 119.641 45.8606 130.679 45.8606C138.105 45.8606 146.294 44.3347 153.822 41.1302C154.89 40.6724 155.857 41.8932 154.788 42.707Z" fill="#131426"/>
<path fill-rule="evenodd" clip-rule="evenodd" d="M157.536 39.5533C156.671 38.4343 151.89 39.0447 149.703 39.299C149.041 39.4007 148.94 38.7904 149.55 38.3835C153.365 35.6876 159.672 36.4506 160.384 37.3662C161.096 38.2817 160.181 44.5889 156.62 47.5899C156.061 48.0477 155.552 47.7934 155.806 47.183C156.62 45.1484 158.4 40.6215 157.536 39.5533Z" fill="#131426"/>
<path d="M116.64 26.9391C116.64 27.702 116.742 28.3124 116.843 28.7702C116.996 29.228 117.199 29.6858 117.505 30.2453C117.606 30.3979 117.657 30.5504 117.657 30.703C117.657 30.9065 117.555 31.11 117.25 31.3134L115.979 32.1781C115.775 32.2798 115.623 32.3816 115.47 32.3816C115.267 32.3816 115.063 32.2798 114.86 32.0764C114.554 31.7712 114.351 31.466 114.148 31.11C113.944 30.7539 113.741 30.3979 113.537 29.8892C111.96 31.7712 109.977 32.6867 107.535 32.6867C105.806 32.6867 104.483 32.1781 103.466 31.2117C102.449 30.2453 101.94 28.9228 101.94 27.2951C101.94 25.5657 102.551 24.1415 103.771 23.1243C104.992 22.107 106.671 21.5475 108.756 21.5475C109.468 21.5475 110.18 21.5983 110.892 21.7001C111.655 21.8018 112.418 21.9544 113.232 22.1578V20.6828C113.232 19.1568 112.927 18.0378 112.266 17.4275C111.604 16.8171 110.536 16.5119 108.959 16.5119C108.247 16.5119 107.535 16.6136 106.772 16.7662C106.009 16.9697 105.297 17.1731 104.585 17.4783C104.28 17.58 104.026 17.6818 103.873 17.7326C103.72 17.7326 103.619 17.7835 103.568 17.7835C103.263 17.7835 103.161 17.58 103.161 17.1731V16.1558C103.161 15.8507 103.212 15.5963 103.313 15.4437C103.415 15.2911 103.619 15.1386 103.873 15.0368C104.585 14.6808 105.45 14.3756 106.416 14.1213C107.433 13.8669 108.451 13.7144 109.57 13.7144C112.011 13.7144 113.741 14.2739 114.911 15.342C116.03 16.461 116.589 18.0887 116.589 20.3776L116.64 26.9391ZM108.4 30.0418C109.061 30.0418 109.773 29.9401 110.485 29.6858C111.197 29.4314 111.859 28.9736 112.418 28.3633C112.723 27.9564 112.978 27.5494 113.13 27.0408C113.232 26.5322 113.334 25.9727 113.334 25.2606V24.3959C112.723 24.2433 112.113 24.1415 111.452 24.0398C110.791 23.9381 110.18 23.9381 109.519 23.9381C108.146 23.9381 107.179 24.1924 106.467 24.7519C105.806 25.3114 105.45 26.0744 105.45 27.0917C105.45 28.0581 105.704 28.7702 106.213 29.228C106.721 29.8383 107.433 30.0418 108.4 30.0418ZM124.727 32.2798C124.371 32.2798 124.117 32.229 123.964 32.0764C123.812 31.9746 123.659 31.6695 123.557 31.2625L118.776 15.4946C118.675 15.0877 118.573 14.8334 118.573 14.6808C118.573 14.3756 118.725 14.1721 119.081 14.1721H121.065C121.472 14.1721 121.726 14.223 121.879 14.3756C122.032 14.4773 122.184 14.7825 122.286 15.1894L125.694 28.6685L128.847 15.1894C128.949 14.7825 129.051 14.5282 129.254 14.3756C129.407 14.2739 129.712 14.1721 130.068 14.1721H131.696C132.103 14.1721 132.357 14.223 132.51 14.3756C132.662 14.4773 132.815 14.7825 132.917 15.1894L136.121 28.8211L139.631 15.1894C139.732 14.7825 139.885 14.5282 140.038 14.3756C140.19 14.2739 140.444 14.1721 140.851 14.1721H142.733C143.039 14.1721 143.242 14.3247 143.242 14.6808C143.242 14.7825 143.242 14.8842 143.191 14.986C143.191 15.0877 143.14 15.2911 143.039 15.4946L138.105 31.2625C138.003 31.6695 137.85 31.9238 137.698 32.0764C137.545 32.1781 137.291 32.2798 136.935 32.2798H135.205C134.798 32.2798 134.544 32.229 134.392 32.0764C134.239 31.9238 134.086 31.6695 133.985 31.2625L130.831 18.1396L127.677 31.2625C127.576 31.6695 127.474 31.9238 127.271 32.0764C127.118 32.229 126.813 32.2798 126.457 32.2798H124.727ZM150.922 32.7885C149.854 32.7885 148.786 32.6867 147.769 32.4324C146.752 32.1781 145.938 31.9238 145.429 31.6186C145.124 31.4151 144.87 31.2117 144.819 31.0591C144.768 30.9065 144.666 30.6522 144.666 30.4996V29.4823C144.666 29.0754 144.819 28.8719 145.124 28.8719C145.226 28.8719 145.378 28.8719 145.48 28.9228C145.582 28.9736 145.785 29.0245 145.989 29.1262C146.701 29.4314 147.413 29.6858 148.227 29.8383C149.041 29.9909 149.854 30.0927 150.668 30.0927C151.94 30.0927 152.957 29.8892 153.618 29.4314C154.33 28.9736 154.686 28.3124 154.686 27.4986C154.686 26.9391 154.483 26.4813 154.127 26.0744C153.771 25.6675 153.059 25.3623 152.092 25.0062L149.142 24.0907C147.667 23.6329 146.548 22.9208 145.887 22.0052C145.226 21.0897 144.87 20.1233 144.87 19.0551C144.87 18.1904 145.073 17.4275 145.429 16.8171C145.785 16.2067 146.294 15.5963 146.904 15.1386C147.515 14.6808 148.227 14.3247 149.041 14.0704C149.854 13.8161 150.719 13.7144 151.584 13.7144C152.041 13.7144 152.499 13.7144 152.957 13.8161C153.415 13.8669 153.873 13.9687 154.28 14.0195C154.686 14.1213 155.093 14.223 155.449 14.3247C155.805 14.4265 156.111 14.579 156.314 14.6808C156.619 14.8334 156.823 14.986 156.924 15.1894C157.026 15.342 157.128 15.5963 157.128 15.8507V16.8171C157.128 17.224 156.975 17.4783 156.67 17.4783C156.518 17.4783 156.263 17.3766 155.907 17.224C154.737 16.7154 153.466 16.4102 151.991 16.4102C150.821 16.4102 149.905 16.6136 149.295 16.9697C148.684 17.3257 148.328 17.9361 148.328 18.8008C148.328 19.3603 148.532 19.8689 148.939 20.225C149.346 20.6319 150.109 20.988 151.177 21.344L154.076 22.2596C155.551 22.7173 156.619 23.3786 157.23 24.1924C157.84 25.0062 158.145 25.9727 158.145 27.0408C158.145 27.9055 157.942 28.7193 157.637 29.3806C157.281 30.0927 156.772 30.703 156.162 31.1608C155.551 31.6695 154.788 32.0255 153.923 32.2798C152.906 32.6867 151.94 32.7885 150.922 32.7885Z" fill="#131426"/>
<path fill-rule="evenodd" clip-rule="evenodd" d="M154.788 42.707C148.074 47.6408 138.308 50.2858 129.967 50.2858C118.217 50.2858 107.637 45.9623 99.6515 38.7396C99.0412 38.1801 99.6007 37.4171 100.364 37.824C109.011 42.8596 119.641 45.8606 130.679 45.8606C138.105 45.8606 146.294 44.3347 153.822 41.1302C154.89 40.6724 155.857 41.8932 154.788 42.707Z" fill="#131426"/>
<path fill-rule="evenodd" clip-rule="evenodd" d="M157.536 39.5533C156.671 38.4343 151.89 39.0447 149.703 39.299C149.041 39.4007 148.94 38.7904 149.55 38.3835C153.365 35.6876 159.672 36.4506 160.384 37.3662C161.096 38.2817 160.181 44.5889 156.62 47.5899C156.061 48.0477 155.552 47.7934 155.806 47.183C156.62 45.1484 158.4 40.6215 157.536 39.5533Z" fill="#131426"/>
</svg>
