<svg width="260" height="63" viewBox="0 0 260 63" fill="none" xmlns="http://www.w3.org/2000/svg">
<path d="M62.4001 45.1429V39.8303C68.0379 39.8303 72.3747 34.2467 70.2334 28.3378C69.4203 26.1423 67.6856 24.3805 65.4901 23.5944C59.5812 21.4532 53.9975 25.79 53.9975 31.4278H48.685C48.685 22.456 57.3586 15.4629 66.764 18.3903C70.884 19.6642 74.1366 22.9439 75.4105 27.0368C78.3378 36.4693 71.3719 45.1429 62.4001 45.1429Z" fill="#131426"/>
<path fill-rule="evenodd" clip-rule="evenodd" d="M62.4001 39.8303H57.1146V34.5449H62.4001V39.8303Z" fill="#131426"/>
<path fill-rule="evenodd" clip-rule="evenodd" d="M57.1146 43.8961H53.0489V39.8303H57.1146V43.8961Z" fill="#131426"/>
<path fill-rule="evenodd" clip-rule="evenodd" d="M53.0489 39.8303H49.6336V36.4422H53.0489V39.8303Z" fill="#131426"/>
<path d="M97.4739 25.6545C95.9018 24.5703 93.9503 24.001 91.6735 24.001H86.7132V39.7491H91.6735C93.9503 39.7491 95.9018 39.1799 97.4739 38.0143C98.3413 37.418 99.0189 36.5507 99.4797 35.4936C99.9405 34.4365 100.184 33.1896 100.184 31.7802C100.184 30.3978 99.9405 29.151 99.4797 28.0939C99.0189 27.0639 98.3413 26.2237 97.4739 25.6545ZM89.6135 26.6844H91.1856C92.9203 26.6844 94.3568 27.0368 95.4411 27.6873C96.6337 28.4192 97.2571 29.8015 97.2571 31.7802C97.2571 33.8402 96.6337 35.2767 95.4411 36.0628C94.4111 36.7404 92.9745 37.0928 91.2127 37.0928H89.6406V26.6844H89.6135Z" fill="#131426"/>
<path d="M103.654 23.8113C103.166 23.8113 102.759 23.9739 102.434 24.2992C102.109 24.6244 101.919 25.031 101.919 25.4918C101.919 25.9797 102.082 26.3862 102.434 26.7115C102.759 27.0368 103.166 27.2265 103.654 27.2265C104.142 27.2265 104.548 27.0639 104.873 26.7115C105.199 26.3862 105.388 25.9526 105.388 25.4918C105.388 25.0039 105.226 24.5973 104.873 24.2992C104.548 23.9739 104.115 23.8113 103.654 23.8113Z" fill="#131426"/>
<path d="M105.009 28.6632H102.217V39.7762H105.009V28.6632Z" fill="#131426"/>
<path d="M115.173 29.5847C114.333 28.8258 113.384 28.3921 112.382 28.3921C110.837 28.3921 109.563 28.9342 108.56 29.9642C107.557 30.9942 107.069 32.3494 107.069 33.9486C107.069 35.5207 107.557 36.8489 108.56 37.9331C109.563 38.9631 110.837 39.5052 112.382 39.5052C113.466 39.5052 114.387 39.207 115.146 38.6107V38.8818C115.146 39.8033 114.902 40.5081 114.414 41.023C113.927 41.5109 113.249 41.7549 112.409 41.7549C111.108 41.7549 110.322 41.2399 109.319 39.9117L107.421 41.7278L107.476 41.8091C107.882 42.3783 108.506 42.9475 109.346 43.4896C110.186 44.0317 111.216 44.3028 112.463 44.3028C114.116 44.3028 115.472 43.7878 116.447 42.7849C117.45 41.782 117.938 40.4267 117.938 38.7462V28.6632H115.2V29.5847H115.173ZM114.442 36.1441C113.954 36.6862 113.33 36.9573 112.517 36.9573C111.704 36.9573 111.081 36.6862 110.62 36.1441C110.132 35.602 109.888 34.8702 109.888 33.9757C109.888 33.0813 110.132 32.3223 110.62 31.7802C111.108 31.2381 111.731 30.94 112.517 30.94C113.33 30.94 113.954 31.211 114.442 31.7802C114.929 32.3223 115.173 33.0813 115.173 33.9757C115.173 34.8702 114.902 35.602 114.442 36.1441Z" fill="#131426"/>
<path d="M123.088 28.6632H120.296V39.7762H123.088V28.6632Z" fill="#131426"/>
<path d="M121.733 23.8113C121.245 23.8113 120.838 23.9739 120.513 24.2992C120.188 24.6244 119.998 25.031 119.998 25.4918C119.998 25.9797 120.161 26.3862 120.513 26.7115C120.838 27.0368 121.245 27.2265 121.733 27.2265C122.221 27.2265 122.627 27.0639 122.953 26.7115C123.278 26.3862 123.468 25.9526 123.468 25.4918C123.468 25.0039 123.305 24.5973 122.953 24.2992C122.627 23.9739 122.194 23.8113 121.733 23.8113Z" fill="#131426"/>
<path d="M126.476 25.6816V28.6903H124.877V31.2381H126.476V35.846C126.476 37.2826 126.774 38.3125 127.344 38.9089C127.913 39.5052 128.916 39.8033 130.352 39.8033C130.813 39.8033 131.274 39.7762 131.707 39.7491H131.843V37.2012L130.894 37.2554C130.217 37.2554 129.783 37.147 129.566 36.9031C129.349 36.6591 129.241 36.1712 129.241 35.4394V31.211H131.843V28.6632H129.241V25.6816H126.476Z" fill="#131426"/>
<path d="M147.7 24.001H144.908V39.7491H147.7V24.001Z" fill="#131426"/>
<path d="M175.916 35.7918C175.428 36.361 174.913 36.8489 174.506 37.0928C174.127 37.3368 173.639 37.4723 173.07 37.4723C172.257 37.4723 171.579 37.1741 171.037 36.5507C170.495 35.9273 170.224 35.1413 170.224 34.1926C170.224 33.2439 170.495 32.4579 171.01 31.8616C171.552 31.2381 172.202 30.94 173.016 30.94C173.91 30.94 174.859 31.5092 175.672 32.4579L177.515 30.696C176.322 29.1239 174.777 28.3921 172.934 28.3921C171.389 28.3921 170.061 28.9613 168.977 30.0455C167.893 31.1297 167.351 32.5392 167.351 34.1926C167.351 35.846 167.893 37.2283 168.977 38.3396C170.061 39.451 171.389 39.9931 172.934 39.9931C174.967 39.9931 176.593 39.1257 177.678 37.5265L175.916 35.7918Z" fill="#131426"/>
<path d="M187.381 30.2081C186.975 29.666 186.432 29.2053 185.782 28.88C185.104 28.5547 184.345 28.3921 183.478 28.3921C181.906 28.3921 180.632 28.9613 179.683 30.0997C178.762 31.2381 178.274 32.6205 178.274 34.2739C178.274 35.9544 178.789 37.3368 179.819 38.421C180.822 39.4781 182.204 40.0202 183.858 40.0202C185.728 40.0202 187.3 39.2612 188.438 37.7433L188.492 37.662L186.676 35.9002C186.514 36.117 186.27 36.3339 186.053 36.5507C185.782 36.8218 185.511 37.0115 185.24 37.147C184.833 37.3639 184.345 37.4452 183.83 37.4452C183.044 37.4452 182.421 37.2283 181.933 36.7676C181.472 36.361 181.201 35.7918 181.147 35.087H188.547L188.574 34.0571C188.574 33.3252 188.465 32.6476 188.276 31.9971C188.086 31.3737 187.788 30.7774 187.381 30.2081ZM181.283 32.8373C181.418 32.2952 181.662 31.8616 182.014 31.5092C182.394 31.1297 182.882 30.94 183.478 30.94C184.156 30.94 184.671 31.1297 185.023 31.5092C185.348 31.8616 185.538 32.2952 185.592 32.8102H181.283V32.8373Z" fill="#131426"/>
<path d="M198.115 29.5033C197.275 28.7715 196.109 28.4191 194.645 28.4191C193.724 28.4191 192.856 28.636 192.07 29.0154C191.339 29.3949 190.634 29.9912 190.173 30.8044L190.2 30.8315L191.989 32.5391C192.721 31.3736 193.534 30.967 194.618 30.967C195.215 30.967 195.675 31.1296 196.055 31.4278C196.434 31.7259 196.597 32.1325 196.597 32.6204V33.1625C195.892 32.9456 195.215 32.8372 194.537 32.8372C193.155 32.8372 192.016 33.1625 191.176 33.813C190.336 34.4635 189.902 35.4122 189.902 36.5777C189.902 37.6077 190.254 38.4751 190.986 39.0985C191.718 39.6948 192.613 40.0201 193.67 40.0201C194.727 40.0201 195.73 39.5864 196.624 38.8545V39.7761H199.362V32.6204C199.416 31.2922 198.982 30.2351 198.115 29.5033ZM193.155 35.5206C193.48 35.3038 193.914 35.1954 194.483 35.1954C195.16 35.1954 195.865 35.3309 196.597 35.6019V36.6861C196.001 37.2553 195.188 37.5264 194.185 37.5264C193.697 37.5264 193.317 37.418 193.073 37.2011C192.829 36.9843 192.694 36.7404 192.694 36.388C192.694 36.0356 192.856 35.7375 193.155 35.5206Z" fill="#131426"/>
<path d="M210.15 29.7202C209.363 28.8528 208.279 28.4191 206.897 28.4191C205.786 28.4191 204.891 28.7444 204.214 29.3678V28.6902H201.476V39.8032H204.268V33.6504C204.268 32.8101 204.457 32.1325 204.864 31.6717C205.271 31.1838 205.786 30.967 206.517 30.967C207.141 30.967 207.629 31.1838 207.981 31.5904C208.334 32.0241 208.523 32.5933 208.523 33.3251V39.749H211.315V33.3251C211.315 31.8072 210.936 30.5875 210.15 29.7202Z" fill="#131426"/>
<path d="M141.411 29.5033C140.571 28.7715 139.405 28.4191 137.942 28.4191C137.02 28.4191 136.153 28.636 135.367 29.0154C134.635 29.3949 133.93 29.9912 133.469 30.8044L133.496 30.8315L135.285 32.5391C136.017 31.3736 136.83 30.967 137.915 30.967C138.511 30.967 138.972 31.1296 139.351 31.4278C139.731 31.7259 139.893 32.1325 139.893 32.6204V33.1625C139.189 32.9456 138.511 32.8372 137.833 32.8372C136.451 32.8372 135.313 33.1625 134.472 33.813C133.632 34.4635 133.198 35.4122 133.198 36.5777C133.198 37.6077 133.551 38.4751 134.283 39.0985C135.014 39.6948 135.909 40.0201 136.966 40.0201C138.023 40.0201 139.026 39.5864 139.92 38.8545V39.7761H142.658V32.6204C142.685 31.2922 142.251 30.2351 141.411 29.5033ZM136.451 35.5206C136.776 35.3038 137.21 35.1954 137.779 35.1954C138.457 35.1954 139.161 35.3309 139.893 35.6019V36.6861C139.297 37.2553 138.484 37.5264 137.481 37.5264C136.993 37.5264 136.614 37.418 136.37 37.2011C136.126 36.9843 135.99 36.7404 135.99 36.388C135.99 36.0356 136.126 35.7375 136.451 35.5206Z" fill="#131426"/>
<path d="M157.837 39.993C153.365 39.993 149.705 36.3609 149.705 31.8615C149.705 27.3621 153.337 23.73 157.837 23.73C162.309 23.73 165.968 27.3621 165.968 31.8615C165.968 36.3609 162.309 39.993 157.837 39.993ZM157.837 26.6302C154.937 26.6302 152.579 28.9884 152.579 31.8886C152.579 34.7888 154.937 37.147 157.837 37.147C160.737 37.147 163.095 34.7888 163.095 31.8886C163.095 28.9884 160.737 26.6302 157.837 26.6302Z" fill="#131426"/>
</svg>
