<svg width="260" height="64" viewBox="0 0 260 64" fill="none" xmlns="http://www.w3.org/2000/svg">
<path d="M103.756 50.2367C100.831 50.0857 97.8862 49.7082 95.8478 49.2363C91.0536 48.1133 88.8453 46.6316 88.8453 44.5177C88.8359 43.036 90.0816 41.7997 92.6957 40.6956C93.9414 40.1671 96.2064 39.4593 97.5465 39.1856C98.5468 38.9874 101.52 38.2325 101.482 38.1853C101.463 38.1758 100.925 38.006 100.274 37.8172C99.6321 37.6379 98.7733 37.3548 98.377 37.1943L97.6409 36.9207L93.2148 36.9395L93.1581 35.59L92.7807 35.892C92.2899 36.2884 91.6859 36.5904 90.9876 36.798C90.2232 37.0245 88.213 37.0245 87.3637 36.798C85.5517 36.3261 84.306 35.2031 83.7492 33.5516C83.5132 32.8438 83.4189 31.3621 83.5699 30.5882C83.8435 29.2104 84.8628 27.9458 86.2029 27.3229C87.3259 26.8133 87.845 26.7378 90.695 26.7378H93.2337L93.177 25.9451C93.111 25.0297 92.9694 24.6333 92.5636 24.2275C91.9313 23.5952 90.7233 23.3215 89.4587 23.5103C88.5339 23.6613 88.0337 23.8878 87.4486 24.4351L86.9673 24.8787L86.5237 24.4634C85.2874 23.3027 84.2399 22.2457 84.2399 22.1513C84.2399 21.9814 85.278 21.066 85.8537 20.7263C86.1368 20.5564 86.788 20.311 87.307 20.1789C89.4965 19.5938 93.2148 19.8392 94.8474 20.6696C95.5458 21.0283 96.5461 22.0664 96.8859 22.793C97.4899 24.0859 97.4804 24.0671 97.5276 29.2198L97.5559 33.9102L97.8296 33.7214C98.226 33.4383 100.614 32.3436 102.577 31.5508L103.114 31.3244L102.567 31.0318C100.208 29.7766 99.3113 28.2572 99.7265 26.2471C99.8681 25.577 100.397 24.5389 100.916 23.935C101.576 23.1517 102.831 22.2645 104.294 21.5568C105.861 20.7923 106.569 20.547 108.777 20.0468C111.429 19.4334 112.901 19.2729 116.28 19.2163C119.479 19.1597 120.838 19.2635 123.018 19.707C124.103 19.9241 124.245 19.9335 129.596 19.9524C132.597 19.9618 135.116 19.9902 135.182 20.009C135.258 20.0468 135.296 20.2733 135.296 20.7168V21.3774L135.626 21.0943C136.088 20.6885 136.655 20.3771 137.419 20.1223C138.004 19.9241 138.25 19.8958 139.495 19.9052C140.788 19.9052 140.977 19.9335 141.656 20.16C142.062 20.3016 142.572 20.547 142.798 20.698C143.431 21.1321 144.167 22.0097 144.506 22.727C145.167 24.1237 145.148 23.8595 145.186 30.7298L145.214 36.9301H140.967L140.939 31.4376C140.901 25.2467 140.92 25.4072 140.184 24.6522C138.882 23.3121 136.504 23.6613 135.73 25.3222C135.541 25.7375 135.532 25.8885 135.503 31.3432L135.475 36.9301H131.143V22.1419L130.369 22.0852C129.935 22.0475 129.284 22.0192 128.916 22.0192H128.255L128.727 22.5194C128.982 22.7836 129.303 23.246 129.435 23.5291C129.643 23.9727 129.68 24.1709 129.68 24.9447C129.68 25.9923 129.52 26.5396 128.982 27.3701C128.51 28.0874 127.425 29.1443 126.679 29.6068C125.047 30.6166 122.555 31.6075 120.479 32.0605C118.176 32.5606 116.921 32.7022 114.015 32.7494C111.155 32.7966 109.258 32.6833 107.173 32.3341L106.229 32.1831L105.578 32.438C104.775 32.7494 104.209 33.1458 104.011 33.5327C103.879 33.7969 103.879 33.8441 104.011 34.1367C104.54 35.2408 106.578 35.7316 116.336 37.0717C118.875 37.4208 121.838 37.9305 122.905 38.1947C124.197 38.525 126.274 39.2517 126.915 39.5914C127.595 39.95 128.529 40.79 128.831 41.309C129.539 42.517 129.275 43.9043 128.095 45.216C127.312 46.0843 126.661 46.5561 125.339 47.2073C123.886 47.9245 123.197 48.1699 120.97 48.7362C118.082 49.4723 115.525 49.8781 112.174 50.1423C110.391 50.2839 105.634 50.3311 103.756 50.2367ZM113.024 48.3115C117.761 47.7075 121.093 46.3391 121.932 44.6498C122.225 44.0553 122.234 43.8099 121.98 43.2814C121.517 42.3282 119.866 41.4317 117.403 40.8088C115.128 40.2332 108.786 39.3744 106.701 39.3555C104.615 39.3461 100.727 40.3464 98.443 41.4789C95.6402 42.885 94.9418 44.5932 96.6122 46.0277C98.1222 47.3206 101.831 48.3115 105.804 48.4814C107.418 48.5474 111.967 48.4436 113.024 48.3115ZM91.6293 33.2496C92.271 33.0136 92.7995 32.4757 92.9788 31.8812C93.0449 31.6263 93.111 31.0507 93.111 30.5882V29.7578H91.2896C89.1756 29.7578 88.6943 29.8521 88.1941 30.3617C87.6185 30.9563 87.4958 31.7018 87.8544 32.4002C88.2413 33.1646 88.8453 33.4289 90.2043 33.4383C90.8932 33.4383 91.2424 33.3911 91.6293 33.2496ZM115.798 31.0224C119.271 30.3712 121.593 28.597 122.083 26.1999C122.442 24.4729 121.536 22.878 119.696 22.0192C118.667 21.5379 118.025 21.3774 116.591 21.2453C113.562 20.9622 110.57 21.7549 108.89 23.2932C107.635 24.454 107.097 25.4921 107.012 26.936C106.908 28.6253 107.55 29.6351 109.23 30.4656C110.712 31.1922 113.58 31.4376 115.798 31.0224Z" fill="#131426"/>
<path d="M76.9543 31.4848C76.926 27.3607 76.8882 25.8413 76.8033 25.5865C76.2088 23.8217 73.7362 23.2366 72.3489 24.5295C71.5279 25.3034 71.5562 25.058 71.5184 31.3904L71.4901 36.9301H67.2622L67.2339 31.4376C67.1961 25.1429 67.2245 25.3694 66.394 24.6239C65.8277 24.1143 65.2521 23.9066 64.431 23.9066C63.4307 23.9161 62.5813 24.4163 62.1472 25.2562C61.8358 25.8507 61.7886 26.7945 61.7791 31.9567V36.9301H57.438V20.1317H61.6753L61.732 21.3774L62.0811 21.0943C62.4869 20.7735 63.2136 20.4054 63.9497 20.16C64.365 20.0279 64.7519 19.9902 65.8844 19.9996C67.1678 19.9996 67.366 20.0279 67.9889 20.2544C68.7533 20.5281 69.4611 21 69.8858 21.519L70.1689 21.8587L70.6691 21.4341C71.4807 20.7357 72.0564 20.4432 73.0945 20.1695C73.9816 19.943 74.1797 19.9241 75.3972 19.9619C76.5202 19.9996 76.8599 20.0562 77.4922 20.2638C79.1626 20.8112 80.2668 22.0286 80.9463 24.0482L81.1728 24.7088L81.2294 37.0245H76.9826L76.9543 31.4848Z" fill="#131426"/>
<path d="M153.368 36.8829C152.575 36.7413 151.613 36.3827 151.046 36.0241C150.82 35.8825 150.244 35.3824 149.772 34.9105C148.423 33.561 148.027 32.5134 147.828 29.8049C147.706 28.0024 147.828 25.8035 148.121 24.6805C148.489 23.2743 149.234 22.1041 150.386 21.1509C151.584 20.1411 153.198 19.6976 155.388 19.7731C156.501 19.8203 156.794 19.8675 157.615 20.1317C158.804 20.5092 159.257 20.8018 160.191 21.7738C161.465 23.1045 161.947 24.3785 162.098 26.8794C162.201 28.6253 162.079 30.8808 161.824 31.9755C161.531 33.2024 161.144 33.9007 160.182 34.9105C159.455 35.6844 159.219 35.8542 158.474 36.2317C157.011 36.9584 155.086 37.2038 153.368 36.8829ZM156.312 32.7211C156.832 32.4002 157.303 31.749 157.53 31.0506C157.775 30.2957 157.832 27.1908 157.615 26.1621C157.426 25.209 157.294 24.9447 156.756 24.4257C155.746 23.4442 153.953 23.4914 153.057 24.52C152.358 25.3033 152.188 26.0678 152.188 28.3893C152.188 30.8147 152.415 31.7207 153.189 32.4002C153.802 32.9381 154.208 33.0702 155.086 33.0325C155.746 33.0042 155.926 32.957 156.312 32.7211Z" fill="#131426"/>
<path d="M186.701 36.9301C184.757 36.6847 183.331 35.7787 182.661 34.3443C182.208 33.3628 182.076 32.6927 182.123 31.4659C182.161 30.5316 182.208 30.2674 182.444 29.6728C182.831 28.6725 183.577 27.8892 184.596 27.3984C185.795 26.8227 186.427 26.7378 189.334 26.7378H191.844L191.778 25.9639C191.702 25.0297 191.504 24.5295 191.051 24.1331C190.532 23.6801 189.862 23.4914 188.758 23.4914C187.484 23.4819 186.955 23.6612 186.134 24.3407L185.483 24.8692L185.143 24.5578C184.19 23.6896 182.765 22.2457 182.765 22.1513C182.765 21.972 183.841 21.0282 184.388 20.7168C186.427 19.5655 191.259 19.5655 193.477 20.7357C194.25 21.1415 195.1 22.0097 195.487 22.793C196.062 23.9632 196.072 24.0765 196.072 30.8242V36.9301H191.825V35.4956L191.448 35.8259C190.938 36.26 190.268 36.6092 189.645 36.7791C188.966 36.949 187.503 37.0245 186.701 36.9301ZM190.136 33.2873C190.777 33.0985 191.476 32.4379 191.617 31.8811C191.721 31.4942 191.768 30.8713 191.74 30.1541L191.731 29.7389L189.683 29.7766C187.899 29.8049 187.578 29.8332 187.305 29.9842C186.512 30.4089 186.125 31.2771 186.351 32.1171C186.484 32.6172 187.04 33.2024 187.512 33.3345C188.022 33.4855 189.57 33.4572 190.136 33.2873Z" fill="#131426"/>
<path d="M168.543 36.6942C166.845 36.2317 165.523 34.8067 165.221 33.1174C165.155 32.7399 165.118 29.4274 165.118 23.18V13.8087H169.459L169.478 23.0384C169.506 31.6735 169.515 32.2869 169.676 32.5229C169.997 33.0136 170.242 33.0986 171.507 33.1363L172.667 33.1741L172.648 34.986L172.62 36.7885L170.827 36.8074C169.525 36.8168 168.902 36.7885 168.543 36.6942Z" fill="#131426"/>
<path d="M175.027 20.0373H179.368V36.8357H175.027V20.0373Z" fill="#131426"/>
<path d="M198.714 22.4533C197.497 22.1796 196.61 21.3491 196.298 20.1978C195.949 18.8766 196.355 17.376 197.242 16.706C197.893 16.2058 198.346 16.0454 199.205 15.9982C199.969 15.9604 200.073 15.9793 200.621 16.2436C202.848 17.3005 203.235 20.0751 201.385 21.7266C200.611 22.425 199.677 22.6704 198.714 22.4533ZM200.375 21.2831C201.092 20.915 201.461 20.3016 201.527 19.3579C201.564 18.7728 201.545 18.6595 201.272 18.1027C201.102 17.7724 200.857 17.4138 200.724 17.3005C200.356 17.0174 199.582 16.8098 199.12 16.8853C198.507 16.9797 197.78 17.461 197.45 17.9989C196.959 18.7822 197.016 20.009 197.563 20.6508C197.837 20.9716 198.365 21.3397 198.714 21.4435C199.167 21.5756 199.941 21.5096 200.375 21.2831Z" fill="#131426"/>
<path d="M198.054 17.5836H199.045C199.752 17.5836 200.13 17.6214 200.319 17.7252C200.885 18.0178 201.064 18.8671 200.658 19.3484L200.432 19.6032L200.658 20.1128C200.989 20.8584 200.979 20.8867 200.337 20.8867H199.79L199.535 20.3676C199.394 20.0845 199.243 19.8486 199.186 19.8486C199.13 19.8486 199.092 20.094 199.092 20.4148V20.9811H198.054V17.5836ZM199.649 18.8199C199.866 18.6784 199.696 18.433 199.375 18.433C199.139 18.433 199.092 18.4708 199.092 18.6689C199.092 18.8482 199.139 18.9049 199.309 18.9049C199.422 18.9049 199.573 18.8671 199.649 18.8199Z" fill="#131426"/>
<path d="M174.932 13.7144H179.368V17.3005H174.932V13.7144Z" fill="#131426"/>
</svg>
