<svg width="260" height="64" viewBox="0 0 260 64" fill="none" xmlns="http://www.w3.org/2000/svg">
<g clip-path="url(#clip0_19675_15227)">
<path d="M63.4449 33.8033V38.212C66.8014 38.212 70.0077 36.9094 72.4124 34.6049C74.8171 32.3004 76.1196 29.1943 76.1196 25.938H71.5607C71.5607 28.0421 70.7091 30.046 69.156 31.4988C67.7032 32.9517 65.5991 33.8033 63.4449 33.8033Z" fill="#131426"/>
<path d="M63.4445 45.927C61.2903 45.927 59.2363 45.1255 57.7334 43.6225C56.2305 42.1697 55.3788 40.1658 55.3788 38.1118C55.3788 36.0578 56.2305 34.0538 57.7334 32.601C59.2363 31.1482 61.2903 30.2965 63.4445 30.2965V25.938C61.7913 25.938 60.1381 26.2386 58.6351 26.8397C57.1322 27.4409 55.7295 28.3427 54.5271 29.4949C53.3248 30.6472 52.423 31.9497 51.7717 33.4527C51.1205 34.9556 50.8199 36.5086 50.8199 38.1118C50.8199 39.7149 51.1205 41.318 51.7717 42.7709C52.423 44.2738 53.3248 45.5763 54.477 46.7286C55.6293 47.8808 57.032 48.7826 58.535 49.3838C60.0379 49.9849 61.6911 50.3356 63.3443 50.3356H63.3944V45.927H63.4445Z" fill="#131426"/>
<path d="M63.4449 45.9276V50.2861C66.8014 50.2861 69.9576 48.9835 72.3122 46.7291C74.6668 44.4747 76.0194 41.3186 76.0194 38.1123H71.5106C71.5106 40.1663 70.659 42.1702 69.156 43.6231C67.6531 45.0759 65.5991 45.9276 63.4449 45.9276Z" fill="#131426"/>
<path d="M63.4449 21.5296V25.8881C66.8014 25.8881 69.9576 24.5856 72.3122 22.3312C74.6668 20.0267 76.0194 16.9206 76.0194 13.7144H71.5106C71.5106 15.7684 70.659 17.7723 69.156 19.2251C67.6531 20.7281 65.5991 21.5296 63.4449 21.5296Z" fill="#131426"/>
<path d="M76.1186 21.5296V25.8881C79.4751 25.8881 82.6313 24.5856 84.9859 22.3312C87.3405 20.0267 88.6932 16.9206 88.6932 13.7144H84.1843C84.1843 15.7684 83.3327 17.7723 81.8297 19.2251C80.3268 20.7281 78.2728 21.5296 76.1186 21.5296Z" fill="#131426"/>
<path d="M109.686 31.9498H111.991L112.542 33.1522C112.842 32.9017 113.143 32.6512 113.494 32.5009C113.844 32.3005 114.245 32.1502 114.596 32.05C115.097 31.8997 115.548 31.8496 116.049 31.8496C116.8 31.8496 117.602 31.9999 118.303 32.3005C119.004 32.6011 119.656 33.052 120.157 33.603C120.708 34.2042 121.159 34.8555 121.459 35.5568C122.111 37.16 122.111 38.9134 121.459 40.5165C121.159 41.268 120.708 41.9193 120.157 42.4704C119.606 43.0214 119.004 43.4723 118.303 43.7729C117.602 44.0735 116.85 44.2238 116.049 44.2238C115.598 44.2238 115.097 44.1737 114.646 44.0234C114.295 43.9232 113.945 43.7729 113.644 43.6226C113.343 43.4723 113.043 43.2719 112.792 43.0214V48.3318H109.636L109.686 31.9498ZM115.698 41.3682C116.099 41.3682 116.55 41.3181 116.9 41.1678C117.301 41.0175 117.652 40.767 117.902 40.4664C118.504 39.8653 118.804 39.0637 118.804 38.0617C118.804 37.6109 118.754 37.16 118.604 36.7592C118.453 36.3584 118.203 35.9576 117.902 35.657C117.602 35.3565 117.251 35.1561 116.9 35.0058C116.5 34.8555 116.099 34.7553 115.698 34.7553C115.297 34.7553 114.846 34.8555 114.496 35.0058C114.095 35.1561 113.744 35.4066 113.494 35.657C112.893 36.2582 112.592 37.0598 112.592 38.0617C112.592 39.0637 112.893 39.8653 113.494 40.4664C113.794 40.767 114.145 40.9674 114.496 41.1678C114.896 41.3181 115.297 41.3682 115.698 41.3682Z" fill="#131426"/>
<path d="M129.474 44.2739C128.872 44.2739 128.321 44.1737 127.77 43.9733C127.269 43.7729 126.818 43.4723 126.418 43.0715C126.017 42.6708 125.716 42.2199 125.566 41.6688C125.366 41.0676 125.215 40.4664 125.265 39.8653V34.7553H123.362V32.2504H124.163C125.165 32.2504 125.666 31.7494 125.666 30.7976V29.0942H128.422V31.9999H131.177V34.7553H128.422V39.7651C128.422 39.9655 128.422 40.1659 128.472 40.3663C128.522 40.5666 128.622 40.767 128.772 40.9173C128.922 41.0676 129.073 41.2179 129.273 41.3181C129.474 41.4183 129.674 41.4684 129.874 41.4684C129.975 41.4684 130.025 41.4684 130.125 41.4684C130.225 41.4684 130.375 41.4684 130.476 41.4684C130.576 41.4684 130.626 41.4684 130.726 41.4183C130.826 41.4183 130.876 41.3682 130.926 41.3181V43.9733C130.776 44.0234 130.626 44.0735 130.476 44.1236C130.225 44.2739 129.874 44.2739 129.474 44.2739Z" fill="#131426"/>
<path d="M135.386 30.4969C134.985 30.4969 134.534 30.3967 134.234 30.1462C133.883 29.8957 133.683 29.5451 133.582 29.1443C133.482 28.7435 133.532 28.3427 133.733 27.9419C133.933 27.5912 134.234 27.2906 134.635 27.1404C135.035 26.9901 135.436 26.94 135.887 27.0903C136.288 27.1905 136.638 27.4409 136.889 27.7916C137.139 28.1423 137.24 28.5431 137.19 28.9439C137.139 29.3447 136.989 29.7454 136.689 30.046C136.538 30.1963 136.338 30.3466 136.137 30.4468C135.837 30.4468 135.586 30.4969 135.386 30.4969ZM133.733 31.9498H136.889V44.1235H133.733V31.9498Z" fill="#131426"/>
<path d="M139.895 31.9493H142.199L142.751 33.1517C143.001 32.9012 143.302 32.7008 143.602 32.5004C143.903 32.3 144.203 32.1497 144.554 32.0495C144.955 31.8992 145.356 31.8491 145.807 31.8491C146.358 31.8491 146.909 31.8992 147.46 32.0996C147.861 32.2499 148.211 32.4002 148.562 32.6507C148.862 32.8511 149.163 33.1517 149.363 33.4523C149.664 33.1517 150.015 32.9012 150.365 32.6507C150.716 32.4503 151.117 32.2499 151.518 32.0996C152.019 31.9493 152.52 31.8491 153.021 31.8491C154.373 31.8491 155.475 32.2499 156.277 33.1016C157.079 33.9532 157.529 35.2057 157.529 36.8589V44.1231H154.373V37.1094C154.423 36.4581 154.173 35.8569 153.772 35.356C153.622 35.1556 153.421 35.0053 153.171 34.9051C152.971 34.8049 152.72 34.7548 152.47 34.7047C152.219 34.7047 151.969 34.7047 151.718 34.8049C151.468 34.9051 151.267 35.0053 151.067 35.1556C151.017 35.2057 150.917 35.2558 150.866 35.356C150.416 35.8569 150.215 36.4581 150.265 37.1094V44.1231H147.109V37.1094C147.159 36.4581 146.909 35.8569 146.508 35.356C146.358 35.1556 146.157 35.0053 145.907 34.9051C145.706 34.8049 145.456 34.7548 145.205 34.7047C144.955 34.7047 144.704 34.7047 144.454 34.8049C144.203 34.9051 144.003 35.0053 143.803 35.1556C143.753 35.2057 143.652 35.2558 143.602 35.356C143.151 35.8569 142.951 36.4581 143.001 37.1094V44.1231H139.845L139.895 31.9493Z" fill="#131426"/>
<path d="M161.988 30.4969C161.587 30.4969 161.136 30.3967 160.835 30.1462C160.485 29.8957 160.284 29.5451 160.184 29.1443C160.084 28.7435 160.134 28.3427 160.334 27.9419C160.535 27.5912 160.835 27.2906 161.236 27.1404C161.637 26.9901 162.038 26.94 162.489 27.0903C162.889 27.1905 163.24 27.4409 163.491 27.7916C163.741 28.1423 163.841 28.5431 163.791 28.9439C163.741 29.3447 163.541 29.7454 163.29 30.046C163.14 30.1963 162.939 30.3466 162.739 30.4468C162.489 30.4468 162.238 30.4969 161.988 30.4969ZM160.384 31.9498H163.541V44.1235H160.384V31.9498Z" fill="#131426"/>
<path d="M165.844 41.6186L171.305 34.8554H165.844V31.9497H175.263V34.4546L169.802 41.2679H175.513V44.1736H165.794V41.6186H165.844Z" fill="#131426"/>
<path d="M183.48 44.2739C182.629 44.2739 181.827 44.1236 181.076 43.7729C180.324 43.4723 179.673 43.0214 179.072 42.4203C178.471 41.8692 178.02 41.1678 177.719 40.4664C177.368 39.715 177.218 38.8633 177.218 38.0617C177.218 37.2602 177.368 36.4085 177.719 35.657C178.07 34.9056 178.521 34.2543 179.072 33.7032C179.623 33.1522 180.324 32.7013 181.076 32.3506C181.827 32.05 182.629 31.8496 183.43 31.8496C184.232 31.8496 185.033 31.9999 185.785 32.3005C186.486 32.6011 187.137 33.052 187.689 33.5529C188.24 34.104 188.69 34.8054 188.991 35.5068C189.342 36.3083 189.492 37.16 189.492 38.0116C189.492 38.1619 189.492 38.2621 189.442 38.4124C189.442 38.5627 189.392 38.6629 189.392 38.8132C189.392 38.9134 189.342 39.0637 189.342 39.214H180.575C180.725 39.8152 181.026 40.3161 181.526 40.7169C182.078 41.1678 182.779 41.3682 183.48 41.3181C183.831 41.3181 184.182 41.268 184.532 41.1678C184.783 41.0676 185.033 40.9674 185.234 40.8672C185.434 40.7169 185.635 40.5666 185.785 40.3662H189.041C188.841 40.8672 188.59 41.3181 188.29 41.769C187.939 42.2199 187.538 42.6707 187.037 43.0214C186.536 43.3721 185.985 43.6727 185.384 43.9232C184.833 44.1737 184.132 44.2739 183.48 44.2739ZM186.486 37.1099C186.336 36.4085 185.985 35.8073 185.434 35.3565C184.883 34.9056 184.182 34.6551 183.48 34.6551C182.779 34.6551 182.078 34.9056 181.526 35.3565C180.975 35.8073 180.625 36.4085 180.474 37.1099H186.486Z" fill="#131426"/>
<path d="M191.796 27.4404H194.952V44.123H191.796V27.4404Z" fill="#131426"/>
<path d="M199.712 48.5316C199.562 48.5316 199.411 48.5316 199.311 48.5316C199.211 48.5316 199.061 48.5316 198.961 48.4815C198.86 48.4815 198.76 48.4314 198.61 48.3813V45.8764C199.161 45.9265 199.762 45.7762 200.213 45.4255C200.614 45.125 200.864 44.7242 201.065 44.2733L201.315 43.622L196.556 31.9492H199.812L202.968 39.9148L205.824 31.9492H209.08C208.179 34.1535 207.377 36.2075 206.626 38.0111C206.325 38.7625 206.024 39.5641 205.724 40.2655C205.423 41.0169 205.173 41.6682 204.922 42.2694C204.672 42.8705 204.471 43.3715 204.321 43.7723C204.171 44.1731 204.071 44.4236 204.02 44.4737C203.77 45.125 203.469 45.7261 203.119 46.3273C202.868 46.7782 202.517 47.179 202.167 47.5797C201.866 47.8803 201.465 48.1308 201.065 48.2811C200.664 48.4314 200.163 48.5316 199.712 48.5316Z" fill="#131426"/>
<path d="M98.063 25.8877C96.2094 25.8877 94.3557 26.4388 92.8027 27.4407C91.2497 28.4427 90.0473 29.8955 89.2959 31.5488C88.5444 33.202 88.3941 35.0556 88.7448 36.8591C89.0955 38.6626 89.9972 40.2658 91.3499 41.5683C92.6524 42.8709 94.3557 43.7225 96.2094 44.0732C98.063 44.4239 99.9667 44.2235 101.67 43.5722C103.423 42.8709 104.876 41.7186 105.928 40.1656C106.98 38.6626 107.531 36.8591 107.531 35.0556C107.531 33.8533 107.281 32.6509 106.83 31.5488C106.329 30.4466 105.678 29.4446 104.776 28.593C103.874 27.7413 102.872 27.0399 101.72 26.5891C100.518 26.1382 99.3154 25.8877 98.063 25.8877ZM98.063 41.0673C96.8606 41.0673 95.6583 40.7668 94.6062 40.1155C93.6043 39.4642 92.7526 38.5625 92.3017 37.4603C91.8008 36.3581 91.7006 35.1558 91.9009 34.0035C92.1514 32.8513 92.7025 31.7491 93.5542 30.8975C94.4058 30.0458 95.508 29.4446 96.7103 29.2443C97.9127 28.9938 99.1651 29.094 100.317 29.5448C101.47 29.9957 102.421 30.7472 103.123 31.7491C103.824 32.7511 104.175 33.9033 104.175 35.0556V35.1057C104.175 36.7088 103.524 38.2118 102.371 39.3139C101.219 40.4161 99.6661 41.0673 98.063 41.0673Z" fill="#131426"/>
</g>
<defs>
<clipPath id="clip0_19675_15227">
<rect width="158.259" height="36.5714" fill="white" transform="translate(50.8704 13.7144)"/>
</clipPath>
</defs>
</svg>
