<svg width="260" height="64" viewBox="0 0 260 64" fill="none" xmlns="http://www.w3.org/2000/svg">
<path d="M79.1795 35.3332V33.4985C84.3166 33.4985 86.7017 33.1316 90.0041 30.93C89.5454 30.0126 89.2702 28.9118 89.2702 27.7193C89.3619 25.426 90.5545 23.2243 92.3892 21.9401C93.9486 20.8393 95.6916 20.3806 97.5262 20.6558C97.8014 17.3534 99.0857 15.2435 101.379 14.2344C103.397 13.5006 105.507 13.5006 107.525 14.5096C108.901 15.1518 110.277 16.2526 111.378 17.7203C112.479 16.803 113.763 16.0691 115.139 15.7022C117.066 15.1518 118.9 15.3353 120.46 16.2526C123.303 17.9038 124.221 21.5731 123.579 24.3252C124.679 24.6921 125.78 25.059 126.789 25.426C128.074 25.8846 129.45 26.435 130.826 26.802C135.137 28.0862 139.907 28.8201 143.943 28.8201V30.6548C139.724 30.6548 134.77 29.9209 130.275 28.5449C128.899 28.0862 127.431 27.6276 126.147 27.0772C125.046 26.7102 123.946 26.2516 122.845 25.9764C121.652 28.3614 119.175 30.2878 116.24 31.1134C113.58 31.8473 110.461 31.7556 106.975 30.7465C106.516 30.6548 106.057 30.4713 105.691 30.3796C105.324 30.2878 104.957 30.1961 104.59 30.0126C104.406 30.1044 104.315 30.2878 104.131 30.3796C101.838 32.2143 99.4527 34.1407 96.1502 34.1407C95.4164 34.1407 94.6825 34.0489 93.8569 33.8655C92.6644 33.5903 91.747 33.0399 90.9214 32.3977C90.9214 32.3977 90.9214 32.3977 90.8297 32.3977C87.2521 34.9663 84.5001 35.3332 79.1795 35.3332ZM92.6644 31.3886C93.123 31.7556 93.7652 32.0308 94.499 32.2143C97.8014 33.0399 100.095 31.5721 102.572 29.6457C101.104 29.2788 99.7279 29.0953 98.2601 29.187C95.6916 29.2788 94.2238 30.2878 92.6644 31.3886ZM96.5172 22.4905C95.4164 22.4905 94.3156 22.8574 93.3982 23.4995C92.0222 24.5086 91.1049 26.1598 91.0132 27.9028C91.0132 28.6366 91.1049 29.3705 91.3801 30.0126C93.123 28.8201 94.9577 27.5358 97.9849 27.3524C100.095 27.1689 102.205 27.6276 104.223 28.178C104.498 27.9028 104.865 27.7193 105.14 27.4441C106.424 26.5268 107.892 25.5177 109.543 24.6921C111.286 23.7748 113.029 23.3161 114.68 23.1326C117.157 22.8574 119.542 23.2243 121.836 23.8665C122.386 21.2979 121.194 18.8211 119.542 17.8121C117.066 16.3443 113.763 17.6286 111.837 19.6467L111.011 20.4723L110.369 19.4633C107.8 15.3353 104.315 14.9683 101.929 15.9774C100.095 16.7113 99.2692 18.6377 99.1775 21.8483V23.0409L98.0766 22.6739C97.618 22.5822 97.0676 22.4905 96.5172 22.4905ZM106.424 28.8201C106.791 28.9118 107.158 29.0036 107.525 29.187C110.644 30.1044 113.396 30.1961 115.781 29.554C118.075 28.9118 120.093 27.4441 121.102 25.6094C119.084 25.059 116.974 24.7838 114.864 24.9673C112.02 25.2425 109.36 26.7102 106.424 28.8201Z" fill="#131426"/>
<path d="M68.6301 35.5167H63.86V33.5903H75.5102V35.5167H70.6483V50.1023H68.6301V35.5167Z" fill="#131426"/>
<path d="M79.0878 38.1769H81.0142V40.1951C81.7481 38.7273 82.9406 37.9935 84.5001 37.9935C85.1422 37.9935 85.6009 38.1769 86.1513 38.3604L85.7843 40.1951C85.3257 39.9199 84.867 39.8281 84.2249 39.8281C82.4819 39.8281 81.0142 41.6628 81.0142 45.6074V50.1023H79.0878V38.1769Z" fill="#131426"/>
<path d="M89.5454 46.433V38.1769H91.4718V45.9743C91.4718 47.6255 92.2057 48.4511 93.6734 48.4511C95.5998 48.4511 97.1593 46.433 97.1593 43.1306V38.0852H99.0857V49.9189H97.1593V47.6255C96.3337 49.0933 94.866 50.1023 93.2148 50.1023C91.0132 50.2858 89.5454 48.9098 89.5454 46.433Z" fill="#131426"/>
<path d="M103.03 46.9834L104.681 46.1578C105.14 47.5338 105.966 48.5428 107.525 48.5428C108.626 48.5428 109.452 47.9007 109.452 46.7082C109.452 45.6074 108.351 45.057 106.883 44.5066C105.232 43.8644 103.948 43.0388 103.948 41.1124C103.948 39.2777 105.415 37.9017 107.433 37.9017C108.993 37.9017 110.094 38.5439 110.828 39.7364L109.452 41.0207C108.901 40.1033 108.167 39.7364 107.25 39.7364C106.333 39.7364 105.691 40.2868 105.691 41.2042C105.691 42.1215 106.424 42.5802 108.351 43.314C109.91 43.8644 111.286 44.8735 111.286 46.7082C111.286 48.9098 109.819 50.2858 107.525 50.2858C104.773 50.2858 103.397 48.6346 103.03 46.9834Z" fill="#131426"/>
<path d="M124.037 41.8463C124.037 36.1588 127.615 33.4068 131.468 33.4068C134.77 33.4068 137.063 35.2415 137.889 38.1769L135.963 38.7273C135.321 36.6175 133.945 35.3332 131.468 35.3332C128.44 35.3332 126.147 37.5348 126.147 41.8463C126.147 46.1578 128.44 48.3594 131.468 48.3594C133.945 48.3594 135.321 46.9834 135.963 44.9652L137.889 45.5156C137.063 48.4511 134.77 50.2858 131.468 50.2858C127.615 50.2858 124.037 47.442 124.037 41.8463Z" fill="#131426"/>
<path d="M141.925 33.4068H143.852V50.1023H141.925V33.4068Z" fill="#131426"/>
<path d="M147.613 43.9562C147.613 40.7455 149.631 37.81 153.3 37.81C156.97 37.81 158.988 40.7455 158.988 43.9562C158.988 47.1668 156.878 50.1023 153.3 50.1023C149.723 50.1023 147.613 47.1668 147.613 43.9562ZM156.97 43.9562C156.97 41.7546 155.685 39.5529 153.3 39.5529C150.915 39.5529 149.631 41.6628 149.631 43.9562C149.631 46.2495 150.915 48.3594 153.3 48.3594C155.685 48.3594 156.97 46.1578 156.97 43.9562Z" fill="#131426"/>
<path d="M162.657 46.433V38.1769H164.584V45.9743C164.584 47.6255 165.317 48.4511 166.785 48.4511C168.712 48.4511 170.271 46.433 170.271 43.1306V38.0852H172.197V49.9189H170.271V47.6255C169.445 49.0933 167.978 50.1023 166.327 50.1023C164.125 50.2858 162.657 48.9098 162.657 46.433Z" fill="#131426"/>
<path d="M176.05 44.1396C176.05 40.6538 177.885 37.9935 181.279 37.9935C182.839 37.9935 184.123 38.6356 184.857 39.6447V33.3151H186.783V50.0106H184.857V48.4511C184.306 49.2767 182.93 50.1941 181.279 50.1941C177.885 50.2858 176.05 47.6255 176.05 44.1396ZM184.948 44.1396C184.948 41.5711 183.664 39.7364 181.463 39.7364C179.261 39.7364 177.977 41.5711 177.977 44.1396C177.977 46.7082 179.261 48.5428 181.463 48.5428C183.664 48.5428 184.948 46.7082 184.948 44.1396Z" fill="#131426"/>
<path d="M115.69 46.433V39.9199H113.671V38.1769H115.69V34.4159L117.616 33.7737V38.0852H120.827V39.8281H117.616V46.433C117.616 47.809 118.258 48.3594 119.267 48.3594C119.726 48.3594 120.184 48.2676 120.643 47.9924L121.102 49.6437C120.46 49.9189 119.726 50.1023 119.084 50.1023C117.066 50.2858 115.69 49.0933 115.69 46.433Z" fill="#131426"/>
<path d="M189.902 33.4068C189.902 31.5721 191.186 30.1961 193.021 30.1961C194.856 30.1961 196.14 31.5721 196.14 33.4068C196.14 35.2415 194.856 36.6175 193.021 36.6175C191.186 36.6175 189.902 35.2415 189.902 33.4068ZM195.406 33.4068C195.406 31.9391 194.397 30.8382 192.929 30.8382C191.462 30.8382 190.452 31.9391 190.452 33.4068C190.452 34.8745 191.462 35.9753 192.929 35.9753C194.397 35.9753 195.406 34.8745 195.406 33.4068ZM191.828 31.6638H193.113C193.847 31.6638 194.214 32.0308 194.214 32.6729C194.214 33.2233 193.847 33.5903 193.48 33.682L194.489 35.2415H193.847L192.838 33.7737H192.379V35.2415H191.737L191.828 31.6638ZM193.021 33.1316C193.388 33.1316 193.571 32.9481 193.571 32.6729C193.571 32.3977 193.388 32.2143 193.021 32.2143H192.379V33.2233H193.021V33.1316Z" fill="#131426"/>
</svg>
