<svg width="260" height="64" viewBox="0 0 260 64" fill="none" xmlns="http://www.w3.org/2000/svg">
<path d="M98.9711 31.9037C99.0577 31.9366 99.147 31.9706 99.2244 31.9277H99.2247C99.2862 31.8937 99.3155 31.8178 99.3108 31.7478C99.3061 31.6777 99.2721 31.6128 99.2322 31.5553C98.9744 31.1844 98.4216 31.0717 98.0229 31.2845C97.6242 31.4974 97.4098 31.9915 97.4939 32.4355C97.5096 32.5173 97.5816 32.7157 97.7248 32.7157C97.853 32.7157 97.8951 32.6104 97.9407 32.4961C97.957 32.4552 97.9738 32.4133 97.9951 32.3745C98.0694 32.2399 98.161 32.1151 98.2807 32.0197C98.4552 31.8812 98.6954 31.8108 98.9071 31.8804C98.9281 31.8873 98.9495 31.8954 98.9711 31.9037Z" fill="#131426"/>
<path fill-rule="evenodd" clip-rule="evenodd" d="M107.781 45.7733C106.646 48.0327 102.884 50.2858 95.6098 50.2858C92.7135 50.2858 88.5387 50.0624 86.3138 47.2256C86.1272 46.9877 85.9746 46.724 85.8772 46.4376C85.6608 45.8023 85.6127 45.0519 85.8983 43.7127C86.3576 41.7566 86.6866 40.176 86.8646 38.4214C86.2614 39.0184 85.2187 38.7191 85.0618 38.1604C85.6432 37.9781 86.0904 37.561 86.0904 36.5368C86.0904 36.5268 86.0904 36.5168 86.0904 36.5066C86.0902 36.0631 86.0898 35.3738 86.4902 34.5114C86.3036 34.0779 86.2238 33.3776 86.25 32.9872C86.2911 32.3741 86.4687 31.8154 86.6033 31.6069C86.6033 31.6069 85.651 30.7204 85.9632 29.1437C86.2704 27.5174 86.0536 26.5964 84.4308 23.9286C84.3907 23.8557 84.3446 23.7751 84.2942 23.6869C83.8457 22.9019 83.0532 21.5151 83.0525 19.5402C83.0912 17.3603 83.4903 16.1897 84.1182 15.07C84.9901 13.6996 85.7566 13.711 86.0178 13.7148C86.0302 13.715 86.0415 13.7152 86.0517 13.7152C86.4898 13.7152 86.9045 14.1804 87.0477 14.9683C87.0634 15.0528 87.0716 15.1377 87.0794 15.223C87.3713 18.4835 88.349 23.911 89.4346 23.911C89.8051 23.911 90.0226 23.5444 90.1181 23.1517C90.1868 22.8102 90.1405 22.5237 90.1068 22.3156C90.0732 22.1077 90.0522 21.9781 90.1713 21.9502C90.4448 21.9341 90.9452 22.3567 91.291 23.2686C92.0584 22.5914 92.3084 20.9926 92.5506 19.4435C92.5646 19.354 92.5786 19.2646 92.5926 19.1756C92.6443 18.8497 92.6913 18.3994 92.7434 17.8992C92.8741 16.6459 93.0375 15.0791 93.3896 14.3717C93.539 14.0536 93.7515 13.8239 94.0382 13.7414C94.1372 13.7128 94.2421 13.7105 94.3446 13.7191C95.7693 13.84 96.3875 15.5943 96.6484 16.3348C96.6602 16.3684 96.6713 16.4 96.6818 16.4291C97.1943 18.2296 97.7123 21.6415 96.4603 22.2405C96.2107 22.3367 96.0425 22.4103 95.9314 22.4635C95.8786 22.4885 95.895 22.5668 95.9533 22.5695C96.2999 22.5855 96.9642 22.7029 97.2976 23.3347C97.4001 23.5206 97.5468 23.4966 97.7236 23.4678C97.7943 23.4562 97.8699 23.4439 97.9493 23.4439C98.8609 23.4439 99.4634 24.3101 99.4791 24.8813C100.216 25.0609 100.809 25.7205 101.038 26.5733C101.082 26.6899 101.198 26.7752 101.298 26.8394C101.435 26.9278 101.573 27.0149 101.71 27.1021C102.307 27.4796 102.903 27.8575 103.418 28.3374C103.571 28.4763 103.716 28.6261 103.826 28.7994C104.044 29.1406 104.117 29.5561 104.115 29.9598C104.119 30.1725 104.162 30.2296 104.22 30.3059C104.226 30.3143 104.232 30.3231 104.239 30.3323C104.899 31.1652 105.263 32.2939 104.719 33.2822C104.48 33.7161 104.118 33.9998 103.753 34.2851C103.659 34.3594 103.564 34.4338 103.471 34.511C103.415 34.576 103.404 34.6377 103.392 34.7039C103.388 34.721 103.385 34.7384 103.381 34.7563C103.302 35.1225 103.119 35.4985 102.882 35.7899C103.077 36.1902 103.292 36.7195 103.031 37.5235C103.986 38.66 103.677 39.89 103.601 40.0461C104.882 40.4217 105.24 44.2706 105.24 44.2706C105.347 45.1783 106.302 45.9647 107.583 45.5413C107.721 45.4956 107.846 45.6431 107.781 45.7733ZM93.5073 45.3223C94.0547 45.9271 94.8046 46.3265 95.6063 46.4568L95.6059 46.4572C97.6896 46.7909 99.6907 45.1556 99.6175 43.0187C99.6086 42.8004 99.2846 42.78 99.249 42.996C99.1985 43.3004 99.1117 43.5942 98.9787 43.8716C98.0714 45.8571 95.3661 46.1888 94.0621 44.4201C93.9126 44.1795 93.5942 44.1055 93.3739 44.2996C92.7785 44.8183 91.807 44.618 91.4811 43.8735C91.3587 43.6224 91.3063 43.3305 91.3516 43.0453C91.3829 42.8242 91.0668 42.7464 90.9933 42.9584C90.5324 44.5781 92.0488 45.805 93.5073 45.3223ZM84.2786 18.9628C84.2786 21.7358 85.4895 23.6998 85.8588 23.6998V23.7002C85.9171 23.7002 85.9934 23.6607 85.9636 23.5343C85.6932 22.2328 85.6976 21.1277 85.7024 19.9329C85.7056 19.147 85.7089 18.3222 85.6342 17.3771C85.6178 17.1514 85.5368 16.39 85.1792 16.39C84.5982 16.39 84.2786 17.7183 84.2786 18.9628ZM92.9596 27.2909C93.2288 27.0147 93.5981 26.8511 93.9787 26.8457C94.4547 26.8459 94.7194 27.0979 94.8939 27.264L94.894 27.2641C94.9092 27.2786 94.9237 27.2924 94.9377 27.3054C95.0046 27.3679 95.1133 27.303 95.0883 27.215C95.0359 27.0025 94.7729 26.3171 93.7248 26.3171C92.926 26.3171 92.3348 26.8797 92.1255 27.5565C92.0312 27.8914 92.0453 28.3452 92.2882 28.7803C92.3485 28.8773 92.4983 28.8366 92.5038 28.7228C92.471 27.9485 92.8082 27.4462 92.9596 27.2909ZM103.459 31.6957C103.497 31.3929 103.647 31.1985 103.786 31.1985V31.1989C104.195 31.1989 104.324 31.9187 104.315 32.1883C104.301 32.6136 104.085 33.0251 103.758 33.3538C103.339 33.7751 102.674 34.2246 101.878 34.2246C100.838 34.2246 100.017 33.6151 99.3112 32.8315L99.3111 32.8314C99.2583 32.7793 99.1238 32.6468 99.0248 32.6468C98.7044 32.6468 98.6285 33.1848 98.6285 33.3921C98.6281 33.5435 98.6273 34.1014 98.8949 34.1014C98.9901 34.1014 98.992 34.0102 98.9935 33.9358L98.9935 33.9357C98.9937 33.9257 98.9939 33.9161 98.9943 33.907C98.9947 33.8999 98.995 33.8924 98.9953 33.8847C99 33.778 99.0072 33.6119 99.1042 33.5083C99.123 33.4872 99.15 33.4715 99.1778 33.47C99.2771 33.47 99.3443 33.5691 99.4395 33.7095C99.5032 33.8036 99.5795 33.9162 99.6864 34.0298C99.7682 34.1167 100.004 34.3471 100.224 34.5012C100.419 34.6452 100.882 34.8995 101.091 35.0012C101.228 35.0767 101.311 35.2184 101.3 35.4015C101.29 35.5548 101.197 35.6749 101.014 35.7348H101.013C100.857 35.7763 100.684 35.752 100.533 35.6906C100.353 35.6174 100.197 35.4977 100.044 35.378C99.8116 35.1976 99.6547 35.3905 99.7693 35.6014C99.7798 35.6188 99.7924 35.639 99.8054 35.6599L99.8056 35.6602L99.8056 35.6603C99.8346 35.707 99.8655 35.7568 99.8793 35.7841C99.99 35.9699 99.8288 36.0822 99.7553 36.1072C99.3531 36.2148 98.8378 36.2148 97.8339 35.6882C96.6242 34.9379 95.866 33.7372 95.87 32.5114C95.893 31.6625 96.1955 30.8374 96.6356 30.1109C96.7194 29.9723 96.8137 29.8491 96.9095 29.7239C97.13 29.4356 97.3589 29.1364 97.4885 28.6132C97.589 28.2032 97.7283 27.7083 98.0491 27.2787C98.9442 26.1849 100.54 27.143 101.438 27.7154C101.504 27.7576 101.571 27.7995 101.636 27.8398C101.993 28.062 102.339 28.3096 102.656 28.5855C102.674 28.6008 102.692 28.6166 102.711 28.6329C102.96 28.8469 103.3 29.1384 103.263 29.4853C103.244 29.6445 103.09 30.1132 102.46 30.042C102.3 30.0238 102.096 29.9962 101.887 29.9681L101.887 29.9681L101.887 29.9681L101.887 29.9681C101.635 29.9341 101.378 29.8994 101.185 29.8793C100.446 29.7791 100.396 30.3268 100.396 30.3268C100.38 30.6707 100.52 30.871 100.755 31.0338C100.938 31.1816 101.166 31.2743 101.403 31.3706C101.711 31.496 102.034 31.6276 102.294 31.8953C102.502 32.124 102.617 32.3619 102.708 32.55C102.812 32.7627 102.884 32.9117 103.024 32.9117C103.315 32.9117 103.367 32.4486 103.412 32.04C103.426 31.9153 103.439 31.7956 103.459 31.6957ZM94.0644 28.3785C93.814 28.4008 93.6165 28.2392 93.5942 27.9892C93.5723 27.7435 93.7378 27.5409 93.9881 27.5186C94.2385 27.4963 94.4416 27.6665 94.4635 27.9121C94.4858 28.1625 94.3148 28.3562 94.0648 28.3785H94.0644Z" fill="#131426"/>
<path d="M153.284 41.4264C152.887 40.9377 152.67 40.3274 152.67 39.6979V35.1522C152.67 31.9262 151.149 30.0788 148.46 30.0788C144.879 30.0788 144.186 32.0294 143.232 33.689C143.186 33.7692 143.084 33.7978 143.002 33.754L142.803 33.6472C142.718 33.6014 142.687 33.4946 142.735 33.4105L143.007 32.9351C143.179 32.6401 143.271 32.3053 143.271 31.9637V31.2779C143.271 30.8354 142.912 30.4766 142.469 30.4766H138.57C137.983 30.4766 137.666 31.166 138.049 31.6112L138.617 32.272C139.19 32.9383 139.505 33.7876 139.505 34.6663V39.385C139.505 39.9084 139.393 40.426 139.177 40.9025L138.725 41.8978C138.519 42.3524 138.851 42.8685 139.351 42.8685H144.222C144.803 42.8685 145.121 42.194 144.753 41.7456L144.359 41.2656C143.957 40.7754 143.737 40.1611 143.737 39.527V36.9233C143.737 36.0145 143.954 35.1123 144.41 34.326C144.963 33.3714 145.685 32.8835 146.589 32.8835C147.806 32.8835 148.46 33.7501 148.46 35.3154V39.5446C148.46 40.0555 148.353 40.5606 148.147 41.0281L147.76 41.9041C147.56 42.3583 147.892 42.8685 148.388 42.8685H153.012C153.591 42.8685 153.91 42.1971 153.545 41.7484L153.283 41.4264H153.284Z" fill="#131426"/>
<path d="M161.968 41.0551C161.813 41.086 161.66 41.1075 161.526 41.1107C160.269 41.1107 159.664 40.3196 159.664 38.6925V32.2266H161.953C162.217 32.2266 162.432 32.0118 162.432 31.747V30.9637C162.432 30.6989 162.217 30.4841 161.953 30.4841H159.024C158.942 30.4841 158.876 30.4176 158.876 30.3354V30.1159C158.876 30.0342 158.941 29.9677 159.023 29.9673H159.32C159.51 29.9677 159.664 29.8139 159.664 29.6242V27.9137C159.664 27.5874 159.4 27.3233 159.074 27.3233H157.39C157.083 27.3233 156.811 27.5221 156.72 27.8151C156.526 28.4567 156.058 30.4845 154.536 30.4845H154.083C153.82 30.4845 153.605 30.6989 153.605 30.9641V31.7474C153.605 32.0126 153.82 32.227 154.083 32.227H155.479V38.8564C155.479 41.5535 156.851 43.0418 159.339 43.0418C160.58 43.0418 161.706 42.5883 162.388 41.7711C162.653 41.4518 162.377 40.9753 161.968 41.0555V41.0551Z" fill="#131426"/>
<path d="M137.517 40.5676C136.775 40.7014 136.274 40.1205 136.274 39.2089V34.8216C136.274 31.6926 134.291 30.0119 130.439 30.0119C126.989 30.0119 124.633 31.3381 124.627 33.3412C124.625 33.7008 124.76 34.0533 124.959 34.3925C125.278 34.8831 125.856 35.2121 126.517 35.2121C127.524 35.2121 128.341 34.4523 128.341 33.5153C128.338 32.5545 127.526 32.0674 127.28 31.9758C127.455 31.8268 128.211 31.2446 129.326 31.2446C131.099 31.2446 132.049 32.5885 132.049 34.6808V35.5126C130.718 35.5126 129.225 35.646 128.175 35.9022C125.606 36.4636 124.252 37.9257 124.252 39.7468C124.252 41.8008 125.886 43.084 128.477 43.084C130.275 43.084 131.769 42.4549 132.47 41.4033C132.912 42.2914 133.893 42.8512 135.154 42.8512C136.786 42.8512 137.64 41.9999 137.91 40.9882C137.98 40.7003 137.762 40.5195 137.517 40.5672V40.5676ZM132.049 39.5837C131.91 40.5629 131.233 41.1474 130.252 41.1474C129.177 41.1474 128.454 40.4241 128.454 39.2801C128.454 38.3932 128.85 37.6178 129.715 37.2445C130.298 36.9871 131.208 36.8466 132.049 36.8236V39.5841V39.5837Z" fill="#131426"/>
<path d="M176.541 40.5676C175.8 40.7014 175.298 40.1205 175.298 39.2089V34.8216C175.298 31.6926 173.315 30.0119 169.463 30.0119C166.013 30.0119 163.657 31.3381 163.651 33.3412C163.649 33.7008 163.784 34.0533 163.983 34.3925C164.303 34.8831 164.88 35.2121 165.542 35.2121C166.549 35.2121 167.365 34.4523 167.365 33.5153C167.362 32.5545 166.551 32.0674 166.305 31.9758C166.479 31.8268 167.235 31.2446 168.35 31.2446C170.123 31.2446 171.073 32.5885 171.073 34.6808V35.5126C169.742 35.5126 168.249 35.646 167.199 35.9022C164.63 36.4636 163.276 37.9257 163.276 39.7468C163.276 41.8008 164.911 43.084 167.501 43.084C169.299 43.084 170.794 42.4549 171.494 41.4033C171.936 42.2914 172.917 42.8512 174.179 42.8512C175.81 42.8512 176.664 41.9999 176.934 40.9882C177.004 40.7003 176.786 40.5195 176.541 40.5672V40.5676ZM171.073 39.5837C170.934 40.5629 170.257 41.1474 169.276 41.1474C168.202 41.1474 167.478 40.4241 167.478 39.2801C167.478 38.3932 167.875 37.6178 168.74 37.2445C169.323 36.9871 170.232 36.8466 171.073 36.8236V39.5841V39.5837Z" fill="#131426"/>
<path d="M124.915 26.3464H122.798C122.342 26.3464 122.069 26.8531 122.319 27.2334L122.682 27.7846C122.992 28.2556 123.053 28.848 122.844 29.3718L119.046 38.926C118.871 39.3861 118.694 39.7015 118.614 39.7789C118.571 39.8204 118.499 39.8329 118.443 39.791L118.242 39.6318C118.179 39.5841 118.183 39.5148 118.241 39.4495C118.352 39.3016 118.422 39.1232 118.46 38.9609C118.507 38.766 118.491 38.5614 118.42 38.374L115.203 29.8706C114.991 29.3096 114.999 28.6887 115.226 28.1332L115.57 27.2936C115.755 26.8417 115.422 26.3464 114.934 26.3464H109.751C109.052 26.3464 108.688 27.1774 109.162 27.6907L109.491 28.0487C110.097 28.7063 110.576 29.47 110.904 30.3018L115.523 42.372C115.643 42.6783 115.939 42.8794 116.268 42.8794H118.826C119.154 42.8794 119.45 42.6787 119.571 42.3736L125.553 27.287C125.732 26.8359 125.4 26.3468 124.915 26.3468V26.3464Z" fill="#131426"/>
</svg>
