<svg width="260" height="64" viewBox="0 0 260 64" fill="none" xmlns="http://www.w3.org/2000/svg">
<g clip-path="url(#clip0_20118_3536)">
<path fill-rule="evenodd" clip-rule="evenodd" d="M72.6284 20.1751C75.1551 20.1751 77.3954 20.6656 79.3494 21.6466C81.3034 22.6276 82.8193 24.0145 83.9142 25.8242C84.9923 27.617 85.5313 29.6973 85.5313 32.0483C85.5313 34.3993 84.9923 36.4796 83.9142 38.2724C82.8362 40.0652 81.3202 41.4521 79.3494 42.45C77.3954 43.431 75.1551 43.9214 72.6284 43.9214H62.3027V20.1751H72.6284ZM66.6823 40.1667H72.4263C74.1613 40.1667 75.6773 39.8284 77.008 39.1688C78.3219 38.5092 79.3325 37.5451 80.04 36.3274C80.7475 35.0927 81.1012 33.672 81.1012 32.0483C81.1012 30.4246 80.7475 28.987 80.04 27.7692C79.3325 26.5346 78.3219 25.5874 77.008 24.9278C75.6941 24.2682 74.1613 23.9299 72.4263 23.9299H66.6823V40.1667ZM192.612 43.8876C190.54 42.061 187.828 40.9616 184.863 40.9616C181.899 40.9616 179.187 42.061 177.115 43.8876H172.028L172.146 43.7185L175.515 37.4944L180.754 27.8031L183.28 32.4542L180.417 37.7481C181.831 37.3252 183.314 37.1054 184.863 37.1054C186.413 37.1054 187.912 37.3422 189.327 37.765L187.71 34.7544L187.373 34.1286L186.211 31.9806L184.863 29.4944L182.337 24.8432L183.347 22.9827L184.88 20.1582L197.581 43.7185L197.699 43.8876H192.612ZM139.13 43.6677C137.059 41.8411 134.363 40.7417 131.382 40.7417C128.417 40.7417 125.705 41.8411 123.634 43.6677H118.547L118.665 43.4986L122.033 37.2745L127.272 27.5832L129.799 32.2343L126.935 37.5282C128.35 37.1054 129.832 36.8855 131.382 36.8855C132.932 36.8855 134.431 37.1054 135.846 37.5451L134.347 34.7714V34.7544L134.01 34.1286L132.544 31.4225L131.382 29.2745L128.856 24.6233L129.866 22.7629L131.399 19.9384L144.1 43.4986L144.217 43.6677H139.13ZM106.941 43.8876L102.123 36.9531H102.089L99.5797 33.3675H101.011C102.932 33.3675 104.38 32.9447 105.374 32.1328C106.368 31.3041 106.856 30.1371 106.856 28.6318C106.856 27.1265 106.368 25.9595 105.374 25.1477C104.38 24.3358 102.932 23.9299 101.011 23.9299H92.9597L90.3489 20.209H101.197C103.252 20.209 105.037 20.5472 106.553 21.2238C108.069 21.9003 109.231 22.8813 110.04 24.1329C110.849 25.4013 111.253 26.9066 111.253 28.6487C111.253 30.4415 110.815 31.9637 109.956 33.2661C109.097 34.5515 107.85 35.5155 106.233 36.1413L111.674 43.9384L106.941 43.8876ZM147.418 23.8961V20.1751H169.484V23.8961H160.641V43.8876H156.261V23.8961H147.418Z" fill="#131426"/>
</g>
<defs>
<clipPath id="clip0_20118_3536">
<rect width="135.396" height="24" fill="white" transform="translate(62.3018 19.9384)"/>
</clipPath>
</defs>
</svg>
