<svg width="208" height="146" fill="none" xmlns="http://www.w3.org/2000/svg"><path fill-rule="evenodd" clip-rule="evenodd" d="M197.417 0l-54.192 54.189-24.164-24.162c-26.95-26.948-70.643-26.948-97.593 0l-1.29 1.29c-26.237 26.235-26.237 68.771 0 95.007 26.237 26.235 68.775 26.235 95.012 0l82.227-82.222c12.179-12.179 12.179-31.924 0-44.102zM97.009 52.078l24.163 24.162-28.034 28.033c-14.058 14.057-36.85 14.057-50.908 0s-14.058-36.848 0-50.905l1.29-1.29c14.77-14.77 38.718-14.77 53.489 0zm88.24 49.038c12.094 0 21.897 9.803 21.897 21.895 0 12.093-9.803 21.896-21.897 21.896-12.093 0-21.897-9.803-21.897-21.896 0-12.092 9.804-21.895 21.897-21.895z" fill="#fff"/></svg>