<svg width="89" height="88" fill="none" xmlns="http://www.w3.org/2000/svg"><mask id="mask0_734_79" style="mask-type:alpha" maskUnits="userSpaceOnUse" x="0" y="0" width="89" height="88"><path fill="#C4C4C4" d="M.9 0h88v88H.9z"/></mask><g mask="url(#mask0_734_79)"><path d="M28.127 8.006a51.56 51.56 0 00-3.027.156v71.68c2.498.244 5.021.199 7.514-.09.664-2.805 1.35-5.605 2.034-8.405a29.467 29.467 0 009.596-3.923c2.458 1.495 4.916 2.992 7.374 4.486a36.501 36.501 0 005.292-5.077c-1.502-2.478-3.011-4.952-4.519-7.428 1.877-2.956 3.279-6.252 3.956-9.698 2.816-.68 5.631-1.364 8.447-2.044a41.333 41.333 0 00-.075-7.342c-2.796-.68-5.592-1.356-8.388-2.035-.698-3.44-2.026-6.766-3.95-9.698 1.508-2.473 3.017-4.946 4.53-7.417a35.264 35.264 0 00-5.212-5.136c-2.493 1.515-4.985 3.034-7.476 4.551a28.754 28.754 0 00-9.597-4.009l-2.044-8.426c-1.481-.14-2.969-.165-4.455-.145zm6.698 16.799c8.811 2.645 15.17 11.91 14.061 21.112-.756 7.833-6.433 15.106-14.077 17.245-.084-2.41.011-4.846-.034-7.267l-.009-31.107.059.017z" fill="green"/></g></svg>