<svg width="89" height="88" fill="none" xmlns="http://www.w3.org/2000/svg"><mask id="mask0_734_84" style="mask-type:alpha" maskUnits="userSpaceOnUse" x="0" y="0" width="89" height="88"><path fill="#C4C4C4" d="M.5 0h88v88H.5z"/></mask><g clip-path="url(#clip0_734_84)"><path d="M18.951 65.773L27.684 9.89a1.613 1.613 0 013.016-.512l9.032 16.845 3.6-6.854a1.613 1.613 0 012.855 0L70.56 65.772H18.95z" fill="#FFA000"/><path d="M49.122 44.004l-9.394-17.789L18.95 65.773l30.171-21.769z" fill="#F57C00"/><path d="M70.56 65.772L63.871 24.38a1.615 1.615 0 00-2.73-.871l-42.19 42.263 23.345 13.092a4.838 4.838 0 004.718 0L70.56 65.772z" fill="#FFCA28"/><path d="M63.871 24.38a1.615 1.615 0 00-2.73-.871l-8.373 8.395-6.585-12.536a1.613 1.613 0 00-2.855 0l-3.6 6.855-9.032-16.846a1.613 1.613 0 00-3.016.517l-8.729 55.878h-.028l.028.033.23.113L61.129 23.92a1.613 1.613 0 012.734.87l6.633 41.022.064-.04-6.689-41.393zM19.028 65.696l8.656-55.407a1.613 1.613 0 013.017-.516l9.03 16.845 3.6-6.854a1.613 1.613 0 012.856 0l6.45 12.269-33.61 33.663z" fill="#fff" fill-opacity=".2"/><path opacity=".2" d="M47.014 78.47a4.838 4.838 0 01-4.718 0L19.008 65.413l-.057.359L42.296 78.86a4.838 4.838 0 004.717 0L70.56 65.773l-.06-.371-23.486 13.067z" fill="#A52714"/><path d="M63.804 24.39a1.604 1.604 0 00-2.72-.87l-8.345 8.39-6.561-12.53a1.607 1.607 0 00-2.845 0l-3.588 6.85-9-16.837a1.605 1.605 0 00-3.005.516l-8.699 55.854 23.264 13.082c1.46.818 3.24.818 4.7 0L70.47 65.763l-6.666-41.374z" fill="url(#paint0_linear_734_84)"/></g><defs><linearGradient id="paint0_linear_734_84" x1="17.247" y1="20.611" x2="81.425" y2="54.465" gradientUnits="userSpaceOnUse"><stop stop-color="#fff" stop-opacity=".1"/><stop offset=".14" stop-color="#fff" stop-opacity=".08"/><stop offset=".61" stop-color="#fff" stop-opacity=".02"/><stop offset="1" stop-color="#fff" stop-opacity="0"/></linearGradient><clipPath id="clip0_734_84"><path fill="#fff" transform="translate(18.5 8)" d="M0 0h52.511v72H0z"/></clipPath></defs></svg>