<svg width="190" height="62" fill="none" xmlns="http://www.w3.org/2000/svg"><g clip-path="url(#clip0_702_592)"><path d="M5.904 51.084c.372 0 .708.036 1.012.104.304.072.58.168.828.292.248.124.468.272.66.444.196.172.364.36.508.568l-.772.896a.942.942 0 01-.188.168.477.477 0 01-.284.076.405.405 0 01-.208-.056 1.374 1.374 0 01-.192-.132c-.064-.052-.14-.108-.22-.172-.08-.064-.18-.12-.292-.172a2.082 2.082 0 00-.404-.132 2.47 2.47 0 00-.552-.056c-.416 0-.804.088-1.16.264a2.773 2.773 0 00-.936.756 3.618 3.618 0 00-.62 1.192 5.19 5.19 0 00-.224 1.568c0 .42.052.796.152 1.124.1.332.24.608.416.836.176.228.388.404.632.52.232.12.496.18.78.18a3.4 3.4 0 00.648-.056c.184-.04.34-.088.472-.144.132-.06.24-.124.332-.192.092-.068.172-.136.244-.192.072-.06.14-.108.204-.144a.412.412 0 01.204-.056.4.4 0 01.18.036.252.252 0 01.104.084l.772.928c-.428.512-.94.896-1.528 1.16-.588.264-1.26.396-2.008.396-.624 0-1.176-.108-1.656-.328-.48-.22-.888-.52-1.216-.904a3.859 3.859 0 01-.748-1.364 5.571 5.571 0 01-.256-1.704c0-.564.064-1.1.192-1.608a6.08 6.08 0 01.536-1.404c.232-.428.508-.816.832-1.16.324-.344.68-.636 1.072-.872.392-.24.816-.424 1.268-.552a5.172 5.172 0 011.416-.192zm8.628 2.848c.336 0 .672.024 1.016.068.344.044.684.128 1.016.244l-.852 6.824h-1.124a.868.868 0 01-.328-.052.494.494 0 01-.32-.348 1.085 1.085 0 01-.032-.264v-.516a3.558 3.558 0 01-.96.94 2.122 2.122 0 01-1.168.344 1.86 1.86 0 01-.732-.152 1.735 1.735 0 01-.624-.46 2.297 2.297 0 01-.432-.784 3.513 3.513 0 01-.164-1.128c0-.636.116-1.24.348-1.812a4.565 4.565 0 01.976-1.5 4.647 4.647 0 013.38-1.404zm51.048 0c.336 0 .672.024 1.016.068.344.044.684.128 1.016.244l-.852 6.824h-1.124a.868.868 0 01-.328-.052.494.494 0 01-.316-.348 1.085 1.085 0 01-.032-.264v-.516h-.004a3.558 3.558 0 01-.96.94 2.122 2.122 0 01-1.168.344 1.86 1.86 0 01-.732-.152 1.735 1.735 0 01-.624-.46 2.296 2.296 0 01-.432-.784 3.513 3.513 0 01-.164-1.128c0-.636.116-1.24.348-1.812a4.565 4.565 0 01.976-1.5 4.647 4.647 0 013.38-1.404zm-23.916.004c.376 0 .708.056 1 .164.292.108.536.248.736.424.2.172.352.368.456.588.104.216.156.432.156.652 0 .32-.064.612-.188.876-.128.264-.348.5-.66.708-.316.208-.736.384-1.268.528-.532.144-1.2.256-2.004.34.008.48.116.828.316 1.052.2.22.5.332.892.332.184 0 .344-.016.48-.048a1.764 1.764 0 00.632-.276l.232-.156c.076-.048.152-.092.232-.12a.739.739 0 01.276-.048.39.39 0 01.196.052c.064.036.12.08.168.132l.548.624a7.12 7.12 0 01-.728.632c-.236.176-.48.324-.732.44-.252.116-.516.2-.8.256a4.79 4.79 0 01-.924.08c-.416 0-.796-.072-1.144-.212a2.642 2.642 0 01-.9-.604 2.71 2.71 0 01-.584-.94 3.396 3.396 0 01-.208-1.22 4.747 4.747 0 01.484-2.104c.156-.316.348-.604.572-.868.228-.264.48-.492.764-.68a3.61 3.61 0 01.928-.444c.336-.108.696-.16 1.072-.16zM58.168 52l-.256 2.052h1.572l-.176 1.436h-1.572l-.34 2.756c-.024.184-.04.332-.056.436-.012.108-.024.188-.032.244a1.008 1.008 0 00-.012.116v.036c0 .132.032.24.092.328.06.088.156.132.288.132a.577.577 0 00.304-.08c.036-.024.072-.04.104-.056a.238.238 0 01.108-.024c.064 0 .108.016.14.044a.56.56 0 01.092.14l.46.996c-.28.204-.58.356-.9.456-.32.104-.644.152-.968.152-.272 0-.516-.036-.732-.112a1.648 1.648 0 01-.56-.324 1.425 1.425 0 01-.364-.512c-.084-.2-.14-.42-.148-.672v-.116c0-.044.004-.108.008-.192.008-.084.016-.196.036-.332.016-.14.036-.32.064-.544l.36-2.872h-.564a.31.31 0 01-.236-.104c-.064-.068-.084-.172-.06-.308l.096-.82 1.064-.216.588-1.716a.45.45 0 01.46-.324h1.14zM23.44 54.12l-.38 1.944a1.707 1.707 0 00-.72-.148 1.032 1.032 0 00-.616.232c-.188.148-.356.36-.508.652-.152.288-.28.66-.388 1.112l-.38 3.152h-2.06l.852-7.028h1.084c.216 0 .388.052.508.152s.184.268.184.496v.8c.172-.304.356-.564.548-.78.192-.216.396-.384.6-.504.204-.12.416-.188.628-.204.216-.016.432.028.648.124zm9.548-2.932c.604 0 1.12.064 1.548.192.428.128.776.308 1.048.532.272.228.468.492.592.804.124.308.188.644.188 1.008 0 .36-.048.708-.144 1.032a3.22 3.22 0 01-1.1 1.624 3.639 3.639 0 01-.916.52c.136.076.26.172.372.28.112.108.208.244.284.404l1.436 3.476h-1.992a.877.877 0 01-.464-.112.647.647 0 01-.268-.308L32.5 57.72a.645.645 0 00-.204-.264c-.08-.056-.204-.08-.368-.08h-.496l-.456 3.688H28.78l1.204-9.872 3.004-.004zm17.856 2.74c.288 0 .556.06.796.176.24.116.444.288.604.516.16.228.276.504.34.836.068.332.076.712.02 1.14l-.528 4.464h-2.1l.528-4.464c.024-.192.032-.352.024-.48a.78.78 0 00-.072-.312.379.379 0 00-.168-.168.635.635 0 00-.256-.052.96.96 0 00-.48.144 1.768 1.768 0 00-.476.404 3.204 3.204 0 00-.416.632c-.128.248-.228.52-.3.816l-.384 3.484h-2.1l.84-7.028H47.8c.216 0 .388.052.508.152s.184.268.184.496l-.008.564c.34-.452.708-.784 1.112-1a2.6 2.6 0 011.248-.32zm21.896-3.012L71.508 61.06h-2.072l1.232-10.144h2.072zm-58.508 4.452c-.344 0-.656.076-.94.232a2.324 2.324 0 00-.728.628c-.204.264-.36.572-.472.92a3.647 3.647 0 00-.168 1.12c0 .228.016.42.056.576.036.156.084.284.144.384.06.096.132.168.216.212a.587.587 0 00.276.068.71.71 0 00.448-.172c.144-.116.28-.272.412-.472.128-.2.248-.432.356-.696.108-.264.2-.552.276-.852l.252-1.944-.128-.004zm51.052 0c-.344 0-.656.076-.94.232a2.324 2.324 0 00-.728.628c-.204.264-.36.572-.472.92a3.665 3.665 0 00-.164 1.12c0 .228.016.42.056.576.04.156.084.284.144.384.06.096.132.168.216.212a.587.587 0 00.276.068.71.71 0 00.448-.172 1.94 1.94 0 00.408-.472c.128-.2.248-.432.356-.696.108-.268.2-.552.276-.852l.252-1.944-.128-.004zm-23.736-.012c-.348 0-.652.14-.916.416-.26.28-.456.66-.584 1.14a9.6 9.6 0 001.056-.216c.272-.076.48-.16.628-.248.148-.088.248-.18.3-.28a.69.69 0 00.076-.324.494.494 0 00-.136-.332c-.084-.104-.228-.156-.424-.156zm-8.756-2.52h-.788l-.372 3.016.8-.004c.316 0 .584-.048.808-.144.22-.096.4-.228.54-.388a1.52 1.52 0 00.3-.568c.06-.216.092-.444.092-.684 0-.184-.028-.352-.08-.504a.983.983 0 00-.256-.388 1.201 1.201 0 00-.432-.248 1.882 1.882 0 00-.612-.088zm147.5-20.972c.644 0 1.196.132 1.516.276l-.536 1.792a2.439 2.439 0 00-1.012-.196c-1.576 0-2.54 1.416-2.532 2.924 0 1.088.64 1.644 1.468 1.644.64 0 1.1-.168 1.484-.328l.012 1.792c-.476.244-1.24.404-2.128.404-1.852 0-3.156-1.188-3.156-3.256 0-2.836 2.04-5.052 4.884-5.052zm2.96 5.292c.748 0 1.272.572 1.272 1.384 0 .96-.64 1.628-1.516 1.628-.748 0-1.24-.572-1.24-1.352 0-.896.6-1.66 1.484-1.66zM35.668.332l-.96 7.352-14.128.012c-3.076.008-5.128.292-6.092.836-.86.492-1.448 1.616-1.74 3.34-.5 2.976.104 3.4.132 3.416.272.18 1.532.628 7.432.952 5.568.316 9.008 1.16 10.524 2.588 1.592 1.492 2.008 4.34 1.276 8.708-.44 2.624-1.048 4.768-1.832 6.456-.784 1.688-1.748 2.924-2.9 3.724-1.92 1.336-5.28 2.088-10.236 2.284-.08.005-2.95.01-6.28.014h-.747c-.626.002-1.263.002-1.894.003h-.755l-1.11.002H5.64l-.35.001H4.285l-.318.001-.893.001H2.053l-.22.001H.595l-.011.001.916-7.352h16.412c2.624-.124 3.64-.56 4.024-.836.748-.528 1.36-2 1.716-4.152.352-2.088.008-2.728-.152-2.908-.136-.148-.788-.652-3.412-.804l-3.736-.24c-5.892-.352-9.496-1.224-11.02-2.672-1.592-1.512-1.988-4.48-1.216-9.092.768-4.58 2.344-7.7 4.68-9.28C10.968 1.216 14.652.452 20.028.36l15.64-.028zm136.688 31.532c1.224 0 1.916.796 1.916 2.16 0 .36-.064.964-.124 1.352l-.576 4.628h-2.204l.528-4.416c.044-.276.076-.604.076-.896 0-.552-.184-.944-.736-.944-.724 0-1.564.964-1.868 2.724l-.392 3.536h-2.204l.538-3.852.074-.532c.234-1.68.455-3.27.496-3.58h1.96l-.152 1.32h.032c.704-1.04 1.64-1.5 2.636-1.5zm-6.66.18l-1.012 7.964h-2.204l1.012-7.964h2.204zM117.14 17.492l-.308 2.176a6.471 6.471 0 01-6.408 5.564h-6.692L101.8 39.86h-7.976l2.956-22.368h20.36zM89.628.332l-4.896 39.524H76.76L81.688.332h7.94zM64.924.328l7.92.004-5.18 39.524h-7.952l2.144-14.672c-.106.01-2.992.018-5.953.025l-.658.001-3.883.007h-.466l-.213.001H50.3l-.169.001h-.663l-.012.001-1.928 14.636h-7.924L44.772.332h7.936l-1.984 15.8a9.184 9.184 0 00-4.308 2.24 9.777 9.777 0 00-1.344 1.524c1.652-1.524 3.808-2.432 6.136-2.432l11.532-.012L64.924.328zm70.952-.076l31.68.008c-.34 2.452-1.492 4.584-3.152 6.112-1.656 1.52-3.808 2.432-6.14 2.432h-5.04l-3.744 31.052h-7.964l3.488-27.936c.088-.708.244-1.384.464-2.024l.008-.02c1.296-.404 2.372-1.064 3.368-1.984a7.47 7.47 0 00.532-.536 8.934 8.934 0 01-4.848 1.432h-9.748l.004-.02 1.092-8.516zm29.168 28.32c.644 0 1.104.456 1.104 1.156 0 .832-.6 1.32-1.304 1.32-.612 0-1.072-.436-1.072-1.14.016-.8.596-1.336 1.272-1.336zM103.668.328l23.464.004-.004.04-1.092 8.488-28.276.012.464-3.736a5.49 5.49 0 015.444-4.808z" fill="#fff"/><path d="M174.904 2.148c0-1.048.852-1.888 1.888-1.888h10.36c1.04 0 1.888.852 1.888 1.888v10.36c0 1.04-.84 1.888-1.888 1.888-.524 0-.996-.208-1.332-.556a1.879 1.879 0 01-.556-1.332l-.012-5.784-7.452 7.452a1.898 1.898 0 01-2.676 0 1.898 1.898 0 010-2.676l7.452-7.452-5.784-.012a1.889 1.889 0 01-1.888-1.888z" fill="#F5DA07"/></g><defs><clipPath id="clip0_702_592"><path fill="#fff" transform="translate(.5)" d="M0 0h189v62H0z"/></clipPath></defs></svg>