<svg width="89" height="88" fill="none" xmlns="http://www.w3.org/2000/svg"><mask id="mask0_734_71" style="mask-type:alpha" maskUnits="userSpaceOnUse" x="0" y="0" width="89" height="88"><path fill="#C4C4C4" d="M.3 0h88v88H.3z"/></mask><g clip-path="url(#clip0_734_71)"><path d="M35.492 39.037a16.588 16.588 0 1116.588 0l-4.995-8.65a6.599 6.599 0 10-6.599 0l-4.994 8.65z" fill="#FF0101"/><path d="M71.013 43.053a16.588 16.588 0 11-16.588 0l4.995 8.65a6.6 6.6 0 106.599 0l4.994-8.65z" fill="#0101FF"/><path d="M41.797 57.418a16.588 16.588 0 11-8.294-14.366l-4.994 8.651a6.6 6.6 0 103.3 5.715h9.988z" fill="#01FF01"/></g><defs><clipPath id="clip0_734_71"><path fill="#fff" transform="translate(2.55 8)" d="M0 0h77.75v72.078H0z"/></clipPath></defs></svg>