<svg width="898" height="242" fill="none" xmlns="http://www.w3.org/2000/svg"><mask id="mask0_801_2266" style="mask-type:alpha" maskUnits="userSpaceOnUse" x="0" y="-96" width="898" height="338"><path transform="matrix(1 0 0 -1 0 242)" fill="url(#paint0_linear_801_2266)" d="M0 0h898v338H0z"/></mask><g mask="url(#mask0_801_2266)"><path d="M129.01 13.173c0 1.014.824 1.827 1.827 1.827h10.025a1.832 1.832 0 001.826-1.827V3.148a1.825 1.825 0 00-1.826-1.827 1.78 1.78 0 00-1.289.538 1.817 1.817 0 00-.538 1.29l-.012 5.596-7.211-7.21a1.836 1.836 0 00-2.589 0 1.835 1.835 0 000 2.589l7.211 7.21-5.597.012a1.828 1.828 0 00-1.827 1.827z" stroke="#fff" stroke-opacity=".338" stroke-width=".5"/><path d="M129.01 77.173c0 1.014.824 1.827 1.827 1.827h10.025a1.832 1.832 0 001.826-1.827V67.148a1.825 1.825 0 00-1.826-1.827c-.508 0-.964.201-1.289.538a1.817 1.817 0 00-.538 1.29l-.012 5.596-7.211-7.21a1.836 1.836 0 00-2.589 0 1.835 1.835 0 000 2.589l7.211 7.21-5.597.012a1.828 1.828 0 00-1.827 1.827zm11.852 65.506a1.827 1.827 0 001.826-1.827v-10.025a1.833 1.833 0 00-1.826-1.827h-10.025a1.825 1.825 0 00-1.827 1.827c0 .507.201.964.538 1.289.337.337.793.538 1.289.538l5.597.011-7.211 7.211a1.835 1.835 0 000 2.59c.72.712 1.877.712 2.589 0l7.211-7.211.012 5.597c0 1.002.812 1.827 1.827 1.827z" fill="#F5DA07"/><path d="M129.01 205.173c0 1.014.824 1.827 1.827 1.827h10.025a1.832 1.832 0 001.826-1.827v-10.025a1.825 1.825 0 00-1.826-1.827 1.78 1.78 0 00-1.289.538 1.818 1.818 0 00-.538 1.289l-.012 5.597-7.211-7.211a1.836 1.836 0 00-2.589 0 1.835 1.835 0 000 2.59l7.211 7.211-5.597.011a1.828 1.828 0 00-1.827 1.827z" fill="#fff" fill-opacity=".387"/><path d="M76.862 14.679a1.828 1.828 0 001.827-1.827V2.827A1.833 1.833 0 0076.862 1H66.837a1.825 1.825 0 00-1.827 1.827c0 .507.201.964.538 1.289.337.337.793.538 1.289.538l5.597.011-7.211 7.211a1.836 1.836 0 000 2.59c.72.712 1.877.712 2.59 0l7.21-7.211.012 5.597c0 1.002.812 1.827 1.827 1.827z" fill="#F5DA07"/><path d="M65.01 77.173c0 1.014.824 1.827 1.827 1.827h10.025a1.833 1.833 0 001.827-1.827V67.148a1.825 1.825 0 00-1.827-1.827c-.507 0-.964.201-1.29.538a1.818 1.818 0 00-.537 1.29l-.012 5.596-7.21-7.21a1.836 1.836 0 00-2.59 0 1.836 1.836 0 000 2.589l7.21 7.21-5.596.012a1.828 1.828 0 00-1.827 1.827zm0 64c0 1.014.824 1.827 1.827 1.827h10.025a1.833 1.833 0 001.827-1.827v-10.025a1.826 1.826 0 00-1.827-1.827c-.507 0-.964.202-1.29.538a1.82 1.82 0 00-.537 1.289l-.012 5.597-7.21-7.211a1.837 1.837 0 00-2.59 0 1.837 1.837 0 000 2.59l7.21 7.211-5.596.011a1.828 1.828 0 00-1.827 1.827z" fill="#fff"/><path d="M65.01 205.173c0 1.014.824 1.827 1.827 1.827h10.025a1.833 1.833 0 001.827-1.827v-10.025a1.826 1.826 0 00-1.827-1.827c-.507 0-.964.202-1.29.538a1.82 1.82 0 00-.537 1.289l-.012 5.597-7.21-7.211a1.837 1.837 0 00-2.59 0 1.837 1.837 0 000 2.59l7.21 7.211-5.596.011a1.828 1.828 0 00-1.827 1.827zM14.367 2.827A1.828 1.828 0 0012.54 1H2.515A1.833 1.833 0 00.688 2.827v10.025a1.826 1.826 0 003.117 1.289c.336-.337.537-.794.537-1.29l.012-5.596 7.21 7.21c.713.713 1.87.713 2.59 0a1.836 1.836 0 000-2.589l-7.21-7.21 5.596-.012a1.828 1.828 0 001.827-1.827z" fill="#fff" fill-opacity=".387"/><path d="M12.861 78.679a1.828 1.828 0 001.827-1.827V66.827A1.833 1.833 0 0012.861 65H2.838a1.825 1.825 0 00-1.827 1.827c0 .507.201.964.538 1.289.337.337.793.538 1.289.538l5.597.011-7.211 7.211a1.836 1.836 0 000 2.59c.72.712 1.877.712 2.59 0l7.21-7.211.012 5.597c0 1.002.812 1.827 1.826 1.827z" stroke="#fff" stroke-opacity=".338" stroke-width=".5"/><path d="M1.01 141.173c0 1.014.824 1.827 1.827 1.827H12.86a1.833 1.833 0 001.827-1.827v-10.025a1.826 1.826 0 00-1.827-1.827c-.507 0-.963.202-1.288.538a1.82 1.82 0 00-.538 1.289l-.012 5.597-7.21-7.211a1.837 1.837 0 00-2.59 0 1.837 1.837 0 000 2.59l7.21 7.211-5.596.011a1.828 1.828 0 00-1.827 1.827z" fill="#F5DA07"/><path d="M12.861 206.679a1.828 1.828 0 001.827-1.827v-10.025A1.833 1.833 0 0012.861 193H2.838a1.825 1.825 0 00-1.827 1.827c0 .507.201.964.538 1.289.337.337.793.538 1.289.538l5.597.011-7.211 7.211a1.837 1.837 0 000 2.59c.72.712 1.877.712 2.59 0l7.21-7.211.012 5.597c0 1.002.812 1.827 1.826 1.827z" fill="#fff"/><path d="M323.01 13.173c0 1.014.824 1.827 1.827 1.827h10.025a1.832 1.832 0 001.826-1.827V3.148a1.825 1.825 0 00-1.826-1.827 1.78 1.78 0 00-1.289.538 1.817 1.817 0 00-.538 1.29l-.012 5.596-7.211-7.21a1.836 1.836 0 00-2.589 0 1.835 1.835 0 000 2.589l7.211 7.21-5.597.012a1.828 1.828 0 00-1.827 1.827z" stroke="#fff" stroke-opacity=".338" stroke-width=".5"/><path d="M323.01 77.173c0 1.014.824 1.827 1.827 1.827h10.025a1.832 1.832 0 001.826-1.827V67.148a1.825 1.825 0 00-1.826-1.827c-.508 0-.964.201-1.289.538a1.817 1.817 0 00-.538 1.29l-.012 5.596-7.211-7.21a1.836 1.836 0 00-2.589 0 1.835 1.835 0 000 2.589l7.211 7.21-5.597.012a1.828 1.828 0 00-1.827 1.827zm11.852 65.506a1.827 1.827 0 001.826-1.827v-10.025a1.833 1.833 0 00-1.826-1.827h-10.025a1.825 1.825 0 00-1.827 1.827c0 .507.201.964.538 1.289.337.337.793.538 1.289.538l5.597.011-7.211 7.211a1.835 1.835 0 000 2.59c.72.712 1.877.712 2.589 0l7.211-7.211.012 5.597c0 1.002.812 1.827 1.827 1.827z" fill="#F5DA07"/><path d="M323.01 205.173c0 1.014.824 1.827 1.827 1.827h10.025a1.832 1.832 0 001.826-1.827v-10.025a1.825 1.825 0 00-1.826-1.827 1.78 1.78 0 00-1.289.538 1.818 1.818 0 00-.538 1.289l-.012 5.597-7.211-7.211a1.836 1.836 0 00-2.589 0 1.835 1.835 0 000 2.59l7.211 7.211-5.597.011a1.828 1.828 0 00-1.827 1.827z" fill="#fff" fill-opacity=".387"/><path d="M270.862 14.679a1.827 1.827 0 001.826-1.827V2.827A1.832 1.832 0 00270.862 1h-10.025a1.825 1.825 0 00-1.827 1.827c0 .507.201.964.538 1.289.337.337.793.538 1.289.538l5.597.011-7.211 7.211a1.835 1.835 0 000 2.59c.72.712 1.877.712 2.589 0l7.211-7.211.012 5.597c0 1.002.812 1.827 1.827 1.827z" fill="#F5DA07"/><path d="M259.01 77.173c0 1.014.824 1.827 1.827 1.827h10.025a1.832 1.832 0 001.826-1.827V67.148a1.825 1.825 0 00-1.826-1.827c-.508 0-.964.201-1.289.538a1.817 1.817 0 00-.538 1.29l-.012 5.596-7.211-7.21a1.836 1.836 0 00-2.589 0 1.835 1.835 0 000 2.589l7.211 7.21-5.597.012a1.828 1.828 0 00-1.827 1.827zm0 64c0 1.014.824 1.827 1.827 1.827h10.025a1.832 1.832 0 001.826-1.827v-10.025a1.825 1.825 0 00-1.826-1.827 1.78 1.78 0 00-1.289.538 1.818 1.818 0 00-.538 1.289l-.012 5.597-7.211-7.211a1.836 1.836 0 00-2.589 0 1.835 1.835 0 000 2.59l7.211 7.211-5.597.011a1.828 1.828 0 00-1.827 1.827z" fill="#fff"/><path d="M259.01 205.173c0 1.014.824 1.827 1.827 1.827h10.025a1.832 1.832 0 001.826-1.827v-10.025a1.825 1.825 0 00-1.826-1.827 1.78 1.78 0 00-1.289.538 1.818 1.818 0 00-.538 1.289l-.012 5.597-7.211-7.211a1.836 1.836 0 00-2.589 0 1.835 1.835 0 000 2.59l7.211 7.211-5.597.011a1.828 1.828 0 00-1.827 1.827zM208.367 2.827A1.828 1.828 0 00206.54 1h-10.025a1.833 1.833 0 00-1.827 1.827v10.025c0 1.006.813 1.827 1.827 1.827.507 0 .964-.202 1.289-.538.337-.337.538-.794.538-1.29l.012-5.596 7.211 7.21a1.836 1.836 0 002.589 0 1.835 1.835 0 000-2.589l-7.211-7.21 5.597-.012a1.828 1.828 0 001.827-1.827z" fill="#fff" fill-opacity=".387"/><path d="M206.862 78.679a1.827 1.827 0 001.826-1.827V66.827A1.832 1.832 0 00206.862 65h-10.025a1.825 1.825 0 00-1.827 1.827c0 .507.201.964.538 1.289.337.337.793.538 1.289.538l5.597.011-7.211 7.211a1.835 1.835 0 000 2.59c.72.712 1.877.712 2.589 0l7.211-7.211.012 5.597c0 1.002.812 1.827 1.827 1.827z" stroke="#fff" stroke-opacity=".338" stroke-width=".5"/><path d="M195.01 141.173c0 1.014.824 1.827 1.827 1.827h10.025a1.832 1.832 0 001.826-1.827v-10.025a1.825 1.825 0 00-1.826-1.827 1.78 1.78 0 00-1.289.538 1.818 1.818 0 00-.538 1.289l-.012 5.597-7.211-7.211a1.836 1.836 0 00-2.589 0 1.835 1.835 0 000 2.59l7.211 7.211-5.597.011a1.828 1.828 0 00-1.827 1.827z" fill="#F5DA07"/><path d="M206.862 206.679a1.827 1.827 0 001.826-1.827v-10.025a1.833 1.833 0 00-1.826-1.827h-10.025a1.825 1.825 0 00-1.827 1.827c0 .507.201.964.538 1.289.337.337.793.538 1.289.538l5.597.011-7.211 7.211a1.835 1.835 0 000 2.59c.72.712 1.877.712 2.589 0l7.211-7.211.012 5.597c0 1.002.812 1.827 1.827 1.827z" fill="#fff"/><path d="M517.01 13.173c0 1.014.824 1.827 1.827 1.827h10.025a1.832 1.832 0 001.826-1.827V3.148a1.825 1.825 0 00-1.826-1.827 1.78 1.78 0 00-1.289.538 1.817 1.817 0 00-.538 1.29l-.012 5.596-7.211-7.21a1.836 1.836 0 00-2.589 0 1.835 1.835 0 000 2.589l7.211 7.21-5.597.012a1.828 1.828 0 00-1.827 1.827z" stroke="#fff" stroke-opacity=".338" stroke-width=".5"/><path d="M517.01 77.173c0 1.014.824 1.827 1.827 1.827h10.025a1.832 1.832 0 001.826-1.827V67.148a1.825 1.825 0 00-1.826-1.827c-.508 0-.964.201-1.289.538a1.817 1.817 0 00-.538 1.29l-.012 5.596-7.211-7.21a1.836 1.836 0 00-2.589 0 1.835 1.835 0 000 2.589l7.211 7.21-5.597.012a1.828 1.828 0 00-1.827 1.827zm11.852 65.506a1.827 1.827 0 001.826-1.827v-10.025a1.833 1.833 0 00-1.826-1.827h-10.025a1.825 1.825 0 00-1.827 1.827c0 .507.201.964.538 1.289.337.337.793.538 1.289.538l5.597.011-7.211 7.211a1.835 1.835 0 000 2.59c.72.712 1.877.712 2.589 0l7.211-7.211.012 5.597c0 1.002.812 1.827 1.827 1.827z" fill="#F5DA07"/><path d="M517.01 205.173c0 1.014.824 1.827 1.827 1.827h10.025a1.832 1.832 0 001.826-1.827v-10.025a1.825 1.825 0 00-1.826-1.827 1.78 1.78 0 00-1.289.538 1.818 1.818 0 00-.538 1.289l-.012 5.597-7.211-7.211a1.836 1.836 0 00-2.589 0 1.835 1.835 0 000 2.59l7.211 7.211-5.597.011a1.828 1.828 0 00-1.827 1.827z" fill="#fff" fill-opacity=".387"/><path d="M464.862 14.679a1.827 1.827 0 001.826-1.827V2.827A1.832 1.832 0 00464.862 1h-10.025a1.825 1.825 0 00-1.827 1.827c0 .507.201.964.538 1.289.337.337.793.538 1.289.538l5.597.011-7.211 7.211a1.835 1.835 0 000 2.59c.72.712 1.877.712 2.589 0l7.211-7.211.012 5.597c0 1.002.812 1.827 1.827 1.827z" fill="#F5DA07"/><path d="M453.01 77.173c0 1.014.824 1.827 1.827 1.827h10.025a1.832 1.832 0 001.826-1.827V67.148a1.825 1.825 0 00-1.826-1.827c-.508 0-.964.201-1.289.538a1.817 1.817 0 00-.538 1.29l-.012 5.596-7.211-7.21a1.836 1.836 0 00-2.589 0 1.835 1.835 0 000 2.589l7.211 7.21-5.597.012a1.828 1.828 0 00-1.827 1.827zm0 64c0 1.014.824 1.827 1.827 1.827h10.025a1.832 1.832 0 001.826-1.827v-10.025a1.825 1.825 0 00-1.826-1.827 1.78 1.78 0 00-1.289.538 1.818 1.818 0 00-.538 1.289l-.012 5.597-7.211-7.211a1.836 1.836 0 00-2.589 0 1.835 1.835 0 000 2.59l7.211 7.211-5.597.011a1.828 1.828 0 00-1.827 1.827z" fill="#fff"/><path d="M453.01 205.173c0 1.014.824 1.827 1.827 1.827h10.025a1.832 1.832 0 001.826-1.827v-10.025a1.825 1.825 0 00-1.826-1.827 1.78 1.78 0 00-1.289.538 1.818 1.818 0 00-.538 1.289l-.012 5.597-7.211-7.211a1.836 1.836 0 00-2.589 0 1.835 1.835 0 000 2.59l7.211 7.211-5.597.011a1.828 1.828 0 00-1.827 1.827zM402.367 2.827A1.828 1.828 0 00400.54 1h-10.025a1.833 1.833 0 00-1.827 1.827v10.025c0 1.006.813 1.827 1.827 1.827.507 0 .964-.202 1.289-.538.337-.337.538-.794.538-1.29l.012-5.596 7.211 7.21a1.836 1.836 0 002.589 0 1.835 1.835 0 000-2.589l-7.211-7.21 5.597-.012a1.828 1.828 0 001.827-1.827z" fill="#fff" fill-opacity=".387"/><path d="M400.862 78.679a1.827 1.827 0 001.826-1.827V66.827A1.832 1.832 0 00400.862 65h-10.025a1.825 1.825 0 00-1.827 1.827c0 .507.201.964.538 1.289.337.337.793.538 1.289.538l5.597.011-7.211 7.211a1.835 1.835 0 000 2.59c.72.712 1.877.712 2.589 0l7.211-7.211.012 5.597c0 1.002.812 1.827 1.827 1.827z" stroke="#fff" stroke-opacity=".338" stroke-width=".5"/><path d="M389.01 141.173c0 1.014.824 1.827 1.827 1.827h10.025a1.832 1.832 0 001.826-1.827v-10.025a1.825 1.825 0 00-1.826-1.827 1.78 1.78 0 00-1.289.538 1.818 1.818 0 00-.538 1.289l-.012 5.597-7.211-7.211a1.836 1.836 0 00-2.589 0 1.835 1.835 0 000 2.59l7.211 7.211-5.597.011a1.828 1.828 0 00-1.827 1.827z" fill="#F5DA07"/><path d="M400.862 206.679a1.827 1.827 0 001.826-1.827v-10.025a1.833 1.833 0 00-1.826-1.827h-10.025a1.825 1.825 0 00-1.827 1.827c0 .507.201.964.538 1.289.337.337.793.538 1.289.538l5.597.011-7.211 7.211a1.835 1.835 0 000 2.59c.72.712 1.877.712 2.589 0l7.211-7.211.012 5.597c0 1.002.812 1.827 1.827 1.827z" fill="#fff"/><path d="M711.01 13.173c0 1.014.824 1.827 1.827 1.827h10.025a1.832 1.832 0 001.826-1.827V3.148a1.825 1.825 0 00-1.826-1.827 1.78 1.78 0 00-1.289.538 1.817 1.817 0 00-.538 1.29l-.012 5.596-7.211-7.21a1.836 1.836 0 00-2.589 0 1.835 1.835 0 000 2.589l7.211 7.21-5.597.012a1.828 1.828 0 00-1.827 1.827z" stroke="#fff" stroke-opacity=".338" stroke-width=".5"/><path d="M711.01 77.173c0 1.014.824 1.827 1.827 1.827h10.025a1.832 1.832 0 001.826-1.827V67.148a1.825 1.825 0 00-1.826-1.827c-.508 0-.964.201-1.289.538a1.817 1.817 0 00-.538 1.29l-.012 5.596-7.211-7.21a1.836 1.836 0 00-2.589 0 1.835 1.835 0 000 2.589l7.211 7.21-5.597.012a1.828 1.828 0 00-1.827 1.827zm11.852 65.506a1.827 1.827 0 001.826-1.827v-10.025a1.833 1.833 0 00-1.826-1.827h-10.025a1.825 1.825 0 00-1.827 1.827c0 .507.201.964.538 1.289.337.337.793.538 1.289.538l5.597.011-7.211 7.211a1.835 1.835 0 000 2.59c.72.712 1.877.712 2.589 0l7.211-7.211.012 5.597c0 1.002.812 1.827 1.827 1.827z" fill="#F5DA07"/><path d="M711.01 205.173c0 1.014.824 1.827 1.827 1.827h10.025a1.832 1.832 0 001.826-1.827v-10.025a1.825 1.825 0 00-1.826-1.827 1.78 1.78 0 00-1.289.538 1.818 1.818 0 00-.538 1.289l-.012 5.597-7.211-7.211a1.836 1.836 0 00-2.589 0 1.835 1.835 0 000 2.59l7.211 7.211-5.597.011a1.828 1.828 0 00-1.827 1.827z" fill="#fff" fill-opacity=".387"/><path d="M658.862 14.679a1.827 1.827 0 001.826-1.827V2.827A1.832 1.832 0 00658.862 1h-10.025a1.825 1.825 0 00-1.827 1.827c0 .507.201.964.538 1.289.337.337.793.538 1.289.538l5.597.011-7.211 7.211a1.835 1.835 0 000 2.59c.72.712 1.877.712 2.589 0l7.211-7.211.012 5.597c0 1.002.812 1.827 1.827 1.827z" fill="#F5DA07"/><path d="M647.01 77.173c0 1.014.824 1.827 1.827 1.827h10.025a1.832 1.832 0 001.826-1.827V67.148a1.825 1.825 0 00-1.826-1.827c-.508 0-.964.201-1.289.538a1.817 1.817 0 00-.538 1.29l-.012 5.596-7.211-7.21a1.836 1.836 0 00-2.589 0 1.835 1.835 0 000 2.589l7.211 7.21-5.597.012a1.828 1.828 0 00-1.827 1.827zm0 64c0 1.014.824 1.827 1.827 1.827h10.025a1.832 1.832 0 001.826-1.827v-10.025a1.825 1.825 0 00-1.826-1.827 1.78 1.78 0 00-1.289.538 1.818 1.818 0 00-.538 1.289l-.012 5.597-7.211-7.211a1.836 1.836 0 00-2.589 0 1.835 1.835 0 000 2.59l7.211 7.211-5.597.011a1.828 1.828 0 00-1.827 1.827z" fill="#fff"/><path d="M647.01 205.173c0 1.014.824 1.827 1.827 1.827h10.025a1.832 1.832 0 001.826-1.827v-10.025a1.825 1.825 0 00-1.826-1.827 1.78 1.78 0 00-1.289.538 1.818 1.818 0 00-.538 1.289l-.012 5.597-7.211-7.211a1.836 1.836 0 00-2.589 0 1.835 1.835 0 000 2.59l7.211 7.211-5.597.011a1.828 1.828 0 00-1.827 1.827zM596.367 2.827A1.828 1.828 0 00594.54 1h-10.025a1.833 1.833 0 00-1.827 1.827v10.025c0 1.006.813 1.827 1.827 1.827.507 0 .964-.202 1.289-.538.337-.337.538-.794.538-1.29l.012-5.596 7.211 7.21a1.836 1.836 0 002.589 0 1.835 1.835 0 000-2.589l-7.211-7.21 5.597-.012a1.828 1.828 0 001.827-1.827z" fill="#fff" fill-opacity=".387"/><path d="M594.862 78.679a1.827 1.827 0 001.826-1.827V66.827A1.832 1.832 0 00594.862 65h-10.025a1.825 1.825 0 00-1.827 1.827c0 .507.201.964.538 1.289.337.337.793.538 1.289.538l5.597.011-7.211 7.211a1.835 1.835 0 000 2.59c.72.712 1.877.712 2.589 0l7.211-7.211.012 5.597c0 1.002.812 1.827 1.827 1.827z" stroke="#fff" stroke-opacity=".338" stroke-width=".5"/><path d="M583.01 141.173c0 1.014.824 1.827 1.827 1.827h10.025a1.832 1.832 0 001.826-1.827v-10.025a1.825 1.825 0 00-1.826-1.827 1.78 1.78 0 00-1.289.538 1.818 1.818 0 00-.538 1.289l-.012 5.597-7.211-7.211a1.836 1.836 0 00-2.589 0 1.835 1.835 0 000 2.59l7.211 7.211-5.597.011a1.828 1.828 0 00-1.827 1.827z" fill="#F5DA07"/><path d="M594.862 206.679a1.827 1.827 0 001.826-1.827v-10.025a1.833 1.833 0 00-1.826-1.827h-10.025a1.825 1.825 0 00-1.827 1.827c0 .507.201.964.538 1.289.337.337.793.538 1.289.538l5.597.011-7.211 7.211a1.835 1.835 0 000 2.59c.72.712 1.877.712 2.589 0l7.211-7.211.012 5.597c0 1.002.812 1.827 1.827 1.827z" fill="#fff"/><path d="M852.862 14.679a1.827 1.827 0 001.826-1.827V2.827A1.832 1.832 0 00852.862 1h-10.025a1.825 1.825 0 00-1.827 1.827c0 .507.201.964.538 1.289.337.337.793.538 1.289.538l5.597.011-7.211 7.211a1.835 1.835 0 000 2.59c.72.712 1.877.712 2.589 0l7.211-7.211.012 5.597c0 1.002.812 1.827 1.827 1.827z" fill="#F5DA07"/><path d="M841.01 77.173c0 1.014.824 1.827 1.827 1.827h10.025a1.832 1.832 0 001.826-1.827V67.148a1.825 1.825 0 00-1.826-1.827c-.508 0-.964.201-1.289.538a1.817 1.817 0 00-.538 1.29l-.012 5.596-7.211-7.21a1.836 1.836 0 00-2.589 0 1.835 1.835 0 000 2.589l7.211 7.21-5.597.012a1.828 1.828 0 00-1.827 1.827zm0 64c0 1.014.824 1.827 1.827 1.827h10.025a1.832 1.832 0 001.826-1.827v-10.025a1.825 1.825 0 00-1.826-1.827 1.78 1.78 0 00-1.289.538 1.818 1.818 0 00-.538 1.289l-.012 5.597-7.211-7.211a1.836 1.836 0 00-2.589 0 1.835 1.835 0 000 2.59l7.211 7.211-5.597.011a1.828 1.828 0 00-1.827 1.827z" fill="#fff"/><path d="M841.01 205.173c0 1.014.824 1.827 1.827 1.827h10.025a1.832 1.832 0 001.826-1.827v-10.025a1.825 1.825 0 00-1.826-1.827 1.78 1.78 0 00-1.289.538 1.818 1.818 0 00-.538 1.289l-.012 5.597-7.211-7.211a1.836 1.836 0 00-2.589 0 1.835 1.835 0 000 2.59l7.211 7.211-5.597.011a1.828 1.828 0 00-1.827 1.827zM790.367 2.827A1.828 1.828 0 00788.54 1h-10.025a1.833 1.833 0 00-1.827 1.827v10.025c0 1.006.813 1.827 1.827 1.827.507 0 .964-.202 1.289-.538.337-.337.538-.794.538-1.29l.012-5.596 7.211 7.21a1.836 1.836 0 002.589 0 1.835 1.835 0 000-2.589l-7.211-7.21 5.597-.012a1.828 1.828 0 001.827-1.827z" fill="#fff" fill-opacity=".387"/><path d="M788.862 78.679a1.827 1.827 0 001.826-1.827V66.827A1.832 1.832 0 00788.862 65h-10.025a1.825 1.825 0 00-1.827 1.827c0 .507.201.964.538 1.289.337.337.793.538 1.289.538l5.597.011-7.211 7.211a1.835 1.835 0 000 2.59c.72.712 1.877.712 2.589 0l7.211-7.211.012 5.597c0 1.002.812 1.827 1.827 1.827z" stroke="#fff" stroke-opacity=".338" stroke-width=".5"/><path d="M777.01 141.173c0 1.014.824 1.827 1.827 1.827h10.025a1.832 1.832 0 001.826-1.827v-10.025a1.825 1.825 0 00-1.826-1.827 1.78 1.78 0 00-1.289.538 1.818 1.818 0 00-.538 1.289l-.012 5.597-7.211-7.211a1.836 1.836 0 00-2.589 0 1.835 1.835 0 000 2.59l7.211 7.211-5.597.011a1.828 1.828 0 00-1.827 1.827z" fill="#F5DA07"/><path d="M788.862 206.679a1.827 1.827 0 001.826-1.827v-10.025a1.833 1.833 0 00-1.826-1.827h-10.025a1.825 1.825 0 00-1.827 1.827c0 .507.201.964.538 1.289.337.337.793.538 1.289.538l5.597.011-7.211 7.211a1.835 1.835 0 000 2.59c.72.712 1.877.712 2.589 0l7.211-7.211.012 5.597c0 1.002.812 1.827 1.827 1.827z" fill="#fff"/></g><defs><linearGradient id="paint0_linear_801_2266" x1="482.675" y1="192.238" x2="482.675" y2="0" gradientUnits="userSpaceOnUse"><stop stop-color="#151F6C" stop-opacity="0"/><stop offset="1" stop-color="#151F6C"/></linearGradient></defs></svg>