<svg width="89" height="88" fill="none" xmlns="http://www.w3.org/2000/svg"><mask id="mask0_734_95" style="mask-type:alpha" maskUnits="userSpaceOnUse" x="0" y="0" width="89" height="88"><path fill="#C4C4C4" d="M.1 0h88v88H.1z"/></mask><g clip-path="url(#clip0_734_95)"><path d="M48.472 19.076v11.078L67.657 41.23V30.154L48.472 19.076zM10.1 30.154V41.23l9.593 5.538V35.693l-9.593-5.54zm28.778 5.539l-9.593 5.538v33.23L38.878 80V57.846l9.594 5.539V52.307l-9.594-5.538V35.693z" fill="#E55B2D"/><path d="M48.472 19.076l-28.78 16.617v11.076l19.186-11.076v11.076l9.594-5.538V19.076zm28.779 5.539l-9.594 5.539V41.23l9.594-5.538V24.615zM58.064 46.769l-9.592 5.538v11.078l9.592-5.539V46.77zm-9.592 16.616l-9.594-5.539V80l9.594-5.539V63.385z" fill="#ED8E24"/><path d="M48.472 8L10.1 30.154l9.593 5.539 28.779-16.617 19.185 11.078 9.594-5.539L48.47 8zm0 33.231l-9.594 5.538 9.594 5.538 9.592-5.538-9.592-5.538z" fill="#F8BF3C"/></g><defs><clipPath id="clip0_734_95"><path fill="#fff" transform="translate(10.1 8)" d="M0 0h67.15v72H0z"/></clipPath></defs></svg>