<svg width="194" height="280" fill="none" xmlns="http://www.w3.org/2000/svg"><mask id="mask0_746_7" style="mask-type:alpha" maskUnits="userSpaceOnUse" x="-1" y="0" width="195" height="280"><path transform="matrix(1 0 0 -1 -.5 280)" fill="url(#paint0_linear_746_7)" d="M0 0h194.5v280H0z"/></mask><g mask="url(#mask0_746_7)"><path d="M128.821 38.173c0 1.014.825 1.827 1.827 1.827h10.025a1.833 1.833 0 001.827-1.827V28.148a1.825 1.825 0 00-1.827-1.827c-.507 0-.964.201-1.289.538a1.817 1.817 0 00-.538 1.29l-.011 5.596-7.211-7.21a1.837 1.837 0 00-2.59 0 1.837 1.837 0 000 2.589l7.211 7.21-5.597.012a1.828 1.828 0 00-1.827 1.827z" stroke="#fff" stroke-opacity=".338" stroke-width=".5"/><path d="M128.821 102.173c0 1.014.825 1.827 1.827 1.827h10.025a1.833 1.833 0 001.827-1.827V92.148a1.825 1.825 0 00-1.827-1.827c-.507 0-.964.201-1.289.538a1.817 1.817 0 00-.538 1.29l-.011 5.596-7.211-7.21a1.837 1.837 0 00-2.59 0 1.837 1.837 0 000 2.589l7.211 7.211-5.597.011a1.828 1.828 0 00-1.827 1.827zm11.852 65.506a1.828 1.828 0 001.827-1.827v-10.025a1.833 1.833 0 00-1.827-1.827h-10.025a1.826 1.826 0 00-1.827 1.827c0 .507.202.964.538 1.289.337.337.794.538 1.289.538l5.597.011-7.211 7.211a1.837 1.837 0 000 2.59c.72.712 1.877.712 2.59 0l7.211-7.211.011 5.597c0 1.002.813 1.827 1.827 1.827z" fill="#F5DA07"/><path d="M128.821 230.173c0 1.014.825 1.827 1.827 1.827h10.025a1.833 1.833 0 001.827-1.827v-10.025a1.826 1.826 0 00-1.827-1.827c-.507 0-.964.202-1.289.538a1.818 1.818 0 00-.538 1.289l-.011 5.597-7.211-7.211a1.837 1.837 0 00-2.59 0 1.837 1.837 0 000 2.59l7.211 7.211-5.597.011a1.828 1.828 0 00-1.827 1.827z" fill="#fff" fill-opacity=".387"/><path d="M76.673 39.679a1.828 1.828 0 001.827-1.827V27.827A1.833 1.833 0 0076.673 26H66.648a1.825 1.825 0 00-1.827 1.827c0 .507.201.964.538 1.289.337.337.794.538 1.29.538l5.596.012-7.21 7.21a1.836 1.836 0 000 2.59c.72.712 1.876.712 2.589 0l7.21-7.211.012 5.597c0 1.002.813 1.827 1.827 1.827z" fill="#F5DA07"/><path d="M64.821 102.173c0 1.014.825 1.827 1.827 1.827h10.025a1.833 1.833 0 001.827-1.827V92.148a1.825 1.825 0 00-1.827-1.827c-.507 0-.964.201-1.289.538a1.818 1.818 0 00-.538 1.29l-.011 5.596-7.211-7.21a1.836 1.836 0 00-2.59 0 1.836 1.836 0 000 2.589l7.211 7.211-5.597.011a1.828 1.828 0 00-1.827 1.827zm0 64c0 1.014.825 1.827 1.827 1.827h10.025a1.833 1.833 0 001.827-1.827v-10.025a1.826 1.826 0 00-1.827-1.827c-.507 0-.964.202-1.289.538a1.82 1.82 0 00-.538 1.289l-.011 5.597-7.211-7.211a1.837 1.837 0 00-2.59 0 1.837 1.837 0 000 2.59l7.211 7.211-5.597.011a1.828 1.828 0 00-1.827 1.827z" fill="#fff"/><path d="M64.821 230.173c0 1.014.825 1.827 1.827 1.827h10.025a1.833 1.833 0 001.827-1.827v-10.025a1.826 1.826 0 00-1.827-1.827c-.507 0-.964.202-1.289.538a1.82 1.82 0 00-.538 1.289l-.011 5.597-7.211-7.211a1.837 1.837 0 00-2.59 0 1.837 1.837 0 000 2.59l7.211 7.211-5.597.011a1.828 1.828 0 00-1.827 1.827zM14.179 27.827A1.828 1.828 0 0012.352 26H2.327A1.833 1.833 0 00.5 27.827v10.025c0 1.006.813 1.827 1.827 1.827.507 0 .964-.202 1.289-.538.337-.337.538-.794.538-1.29l.011-5.596 7.211 7.21c.713.713 1.87.713 2.59 0a1.836 1.836 0 000-2.589l-7.211-7.21 5.597-.012a1.828 1.828 0 001.827-1.827z" fill="#fff" fill-opacity=".387"/><path d="M12.673 103.679a1.828 1.828 0 001.827-1.827V91.827A1.833 1.833 0 0012.673 90H2.648a1.825 1.825 0 00-1.827 1.827c0 .507.202.964.538 1.289.337.337.794.538 1.29.538l5.596.011-7.21 7.211a1.837 1.837 0 000 2.59c.72.712 1.876.712 2.589 0l7.21-7.211.012 5.597c0 1.002.813 1.827 1.827 1.827z" stroke="#fff" stroke-opacity=".338" stroke-width=".5"/><path d="M.821 166.173c0 1.014.825 1.827 1.827 1.827h10.025a1.833 1.833 0 001.827-1.827v-10.025a1.826 1.826 0 00-1.827-1.827c-.507 0-.964.202-1.289.538a1.82 1.82 0 00-.538 1.289l-.011 5.597-7.211-7.211a1.837 1.837 0 00-2.59 0 1.837 1.837 0 000 2.59l7.211 7.211-5.597.011a1.828 1.828 0 00-1.827 1.827z" fill="#F5DA07"/><path d="M12.673 231.679a1.828 1.828 0 001.827-1.827v-10.025A1.833 1.833 0 0012.673 218H2.648a1.825 1.825 0 00-1.827 1.827c0 .507.202.964.538 1.289.337.337.794.538 1.29.538l5.596.011-7.21 7.211a1.837 1.837 0 000 2.59c.72.712 1.876.712 2.589 0l7.21-7.211.012 5.597c0 1.002.813 1.827 1.827 1.827z" fill="#fff"/></g><defs><linearGradient id="paint0_linear_746_7" x1="97.25" y1="0" x2="97.25" y2="280" gradientUnits="userSpaceOnUse"><stop stop-color="#151F6C"/><stop offset=".703" stop-color="#151F6C" stop-opacity="0"/></linearGradient></defs></svg>