<svg width="89" height="88" fill="none" xmlns="http://www.w3.org/2000/svg"><mask id="mask0_734_105" style="mask-type:alpha" maskUnits="userSpaceOnUse" x="0" y="0" width="89" height="88"><path fill="#C4C4C4" d="M.7 0h88v88H.7z"/></mask><g clip-path="url(#clip0_734_105)" fill="#EE4C2C"><path d="M66.116 28.92l-5.346 5.346c8.778 8.777 8.778 22.9 0 31.545-8.777 8.777-22.9 8.777-31.545 0-8.777-8.777-8.777-22.9 0-31.545L43.15 20.34l1.98-1.98V7.868L24.143 28.854c-11.68 11.681-11.68 30.556 0 42.237 11.681 11.68 30.556 11.68 42.039 0 11.615-11.681 11.615-30.424-.066-42.17z"/><path d="M55.623 27.666a3.894 3.894 0 100-7.787 3.894 3.894 0 000 7.787z"/></g><defs><clipPath id="clip0_734_105"><path fill="#fff" transform="translate(15.3 8)" d="M0 0h59.593v72H0z"/></clipPath></defs></svg>