<svg width="28" height="27" xmlns="http://www.w3.org/2000/svg"><g id="mobile" stroke="none" stroke-width="1" fill="none" fill-rule="evenodd"><g id="mobile/00-01-main-page-mobile_GDPR-Copy" transform="translate(-15 -50)"><g id="Padding-Group-5"><g id="Stacked-Group" transform="translate(13 13)"><g id="Group-2"><g id="corona-virus-3133" transform="translate(0 34)"><path id="Rectangle" d="M.5 0h32v32H.5z"/><g id="Group" transform="translate(2.85 3)" fill="#FFF" fill-rule="nonzero"><path d="M25.125 16.538c-.827 0-1.5-.69-1.5-1.538 0-.848.673-1.538 1.5-1.538s1.5.69 1.5 1.538c0 .848-.673 1.538-1.5 1.538zm-18.75 6.154c-.62 0-1.125-.517-1.125-1.154 0-.636.505-1.153 1.125-1.153s1.125.517 1.125 1.153c0 .637-.505 1.154-1.125 1.154z" id="Path" opacity=".5"/><path d="M11.372.783A2.922 2.922 0 0113.69.019c1.359.156 2.458 1.29 2.612 2.696.1.905-.187 1.802-.785 2.461a1.522 1.522 0 00-.416 1.016v.1c0 .472.24.91.64 1.176a6.702 6.702 0 011.558.857c.755.559 1.845.604 2.651.107l.253-.155c.351-.217.648-.556.881-1.01a1.967 1.967 0 011.138-.972 1.887 1.887 0 012.002.549 2.08 2.08 0 01.505 1.675 2.018 2.018 0 01-.933 1.444 1.91 1.91 0 01-.999.28h-.02c-.492 0-.925.114-1.29.338l-.199.123c-.769.474-1.25 1.556-1.121 2.518.005.058.014.116.02.175a7.212 7.212 0 01-.61 3.71 1.43 1.43 0 00.36 1.24l.068.07c.245.254.596.401.987.414a2.94 2.94 0 012.237 1.165 3.17 3.17 0 01-.006 3.819 2.954 2.954 0 01-2.324 1.162 2.923 2.923 0 01-2.101-.9A3.112 3.112 0 0117.931 22c-.012-.405-.154-.768-.4-1.022l-.058-.06a1.328 1.328 0 00-1.185-.395c-.236.115-.44.201-.64.273a6.768 6.768 0 01-1.869.38l-.164.019c-.817.13-1.54.78-1.832 1.667l-.076.227c-.138.42-.154.89-.047 1.396.074.355.054.725-.06 1.07a1.984 1.984 0 01-1.172 1.244 1.88 1.88 0 01-.673.124c-.35 0-.7-.098-1.014-.29a2.02 2.02 0 01-.933-1.914 2.04 2.04 0 01.684-1.353c.38-.331.64-.702.772-1.102l.095-.288c.303-.922.05-2.005-.613-2.641a7.156 7.156 0 01-1.139-1.4 1.334 1.334 0 00-1.237-.358l-.08.018c-.34.078-.649.304-.87.638A2.954 2.954 0 013.61 19.5a2.894 2.894 0 01-2.374-.507 3.114 3.114 0 01-1.22-2.18c-.145-1.407.688-2.762 1.982-3.22a2.88 2.88 0 012.49.264c.337.208.71.28 1.049.202l.094-.022c.429-.098.784-.418.955-.861l.006-.052c.036-.272.09-.54.155-.803.243-.93-.102-2.029-.823-2.613l-.182-.148c-.338-.274-.761-.445-1.257-.508a1.895 1.895 0 01-.956-.41 2.037 2.037 0 01-.748-1.556A2.062 2.062 0 013.49 5.49a1.877 1.877 0 012.053-.28c.47.228.828.623 1.008 1.114.176.482.428.858.75 1.118l.23.188c.722.585 1.81.667 2.648.199a7 7 0 01.812-.373c.378-.255.612-.704.612-1.18v-.085c0-.36-.148-.721-.415-1.016a3.119 3.119 0 01-.806-2.102c0-.874.36-1.709.99-2.291zm2.316 8.963c-2.382 0-4.313 1.98-4.313 4.423s1.93 4.423 4.313 4.423c2.381 0 4.312-1.98 4.312-4.423s-1.93-4.423-4.313-4.423z" id="Combined-Shape"/><path d="M13.313 12.438a.57.57 0 01-.563-.577.57.57 0 01.563-.577.57.57 0 01.562.577.57.57 0 01-.563.577zm2.25 3.077a.95.95 0 01-.938-.961c0-.53.42-.962.938-.962a.95.95 0 01.937.962.95.95 0 01-.938.961zM12 16.67c-.62 0-1.125-.519-1.125-1.155s.505-1.154 1.125-1.154 1.125.518 1.125 1.154c0 .636-.505 1.154-1.125 1.154z" id="Path" opacity=".5"/></g></g></g></g></g></g></g></svg>