
<svg xmlns="http://www.w3.org/2000/svg" width="16" height="16" viewBox="0 0 16 16" fill="none">
    <g clip-path="url(#clip0_19067_4582)">
        <path d="M8.00033 0.666504C6.54993 0.666504 5.13211 1.0966 3.92615 1.90239C2.72019 2.70819 1.78025 3.8535 1.22521 5.19349C0.67017 6.53348 0.524945 8.00797 0.807903 9.4305C1.09086 10.853 1.78929 12.1597 2.81488 13.1853C3.84046 14.2109 5.14714 14.9093 6.56967 15.1923C7.99219 15.4752 9.46668 15.33 10.8067 14.775C12.1467 14.2199 13.292 13.28 14.0978 12.074C14.9036 10.8681 15.3337 9.45023 15.3337 7.99984C15.3337 6.05492 14.561 4.18965 13.1858 2.81439C11.8105 1.43912 9.94525 0.666504 8.00033 0.666504ZM11.805 6.47117L7.13833 11.1378C7.01331 11.2628 6.84377 11.333 6.667 11.333C6.49022 11.333 6.32068 11.2628 6.19566 11.1378L4.19566 9.13784C4.07422 9.0121 4.00703 8.8437 4.00855 8.6689C4.01006 8.4941 4.08018 8.3269 4.20378 8.20329C4.32739 8.07969 4.4946 8.00957 4.66939 8.00805C4.84419 8.00654 5.01259 8.07373 5.13833 8.19517L6.667 9.72384L10.8623 5.5285C10.9881 5.40706 11.1565 5.33987 11.3313 5.34139C11.5061 5.34291 11.6733 5.41302 11.7969 5.53662C11.9205 5.66023 11.9906 5.82744 11.9921 6.00224C11.9936 6.17703 11.9264 6.34544 11.805 6.47117Z" fill="#232323"/>
    </g>
    <defs>
        <clipPath id="clip0_19067_4582">
            <rect width="16" height="16" fill="white"/>
        </clipPath>
    </defs>
</svg>
