<svg width="21" height="20" viewBox="0 0 21 20" fill="none" xmlns="http://www.w3.org/2000/svg">
<path d="M3.17432 5.40869C3.55525 5.62775 3.38807 5.91807 3.76932 6.13775C4.15057 6.35713 4.31775 6.0665 4.69932 6.2865C5.08088 6.50588 4.91369 6.79682 5.29494 7.01588" stroke="#131426" stroke-width="0.84375" stroke-miterlimit="10" stroke-linecap="round" stroke-linejoin="round"/>
<path d="M17.334 12.3339C17.4871 12.3339 17.6118 12.4576 17.6118 12.611C17.6118 12.7648 17.4874 12.8889 17.334 12.8889C17.1805 12.8889 17.0562 12.7651 17.0562 12.611" stroke="#131426" stroke-width="0.84375" stroke-miterlimit="10" stroke-linecap="round" stroke-linejoin="round"/>
<path d="M9.19092 1.95466L10.2425 1.29529" stroke="#131426" stroke-width="0.84375" stroke-miterlimit="10" stroke-linecap="round" stroke-linejoin="round"/>
<path d="M15.6219 2.49338L15.9525 1.90025L14.8459 2.06244L14.0856 1.24463L13.8987 2.34557L12.8862 2.81682L13.8762 3.33463L14.01 4.44338L14.8087 3.66275L15.9056 3.87713" stroke="#131426" stroke-width="0.84375" stroke-miterlimit="10" stroke-linecap="round" stroke-linejoin="round"/>
<path d="M15.9058 3.87708L18.4526 7.22176" stroke="#131426" stroke-width="0.84375" stroke-miterlimit="10" stroke-linecap="round" stroke-linejoin="round"/>
<path d="M7.16846 13.6633H13.9831" stroke="#131426" stroke-width="0.84375" stroke-miterlimit="10" stroke-linecap="round" stroke-linejoin="round"/>
<path d="M6.66258 18.2811H5.23633" stroke="#131426" stroke-width="0.84375" stroke-miterlimit="10" stroke-linecap="round" stroke-linejoin="round"/>
<path d="M15.8511 18.2811H16.727" stroke="#131426" stroke-width="0.84375" stroke-miterlimit="10" stroke-linecap="round" stroke-linejoin="round"/>
<path d="M13.9567 11.7962C13.9567 11.7962 13.9542 12.0652 13.9542 12.2008C13.9542 14.3833 14.1463 16.4477 14.4888 18.2805V18.2812H6.6626C7.00479 16.4483 7.19697 14.3846 7.19697 12.2021C7.19697 12.0665 7.19479 11.7974 7.19479 11.7974L7.19635 11.7962C6.25166 11.5271 5.6626 11.1455 5.6626 10.7224H15.4888C15.4892 11.1449 14.9007 11.5265 13.9567 11.7962ZM13.9567 11.7962C13.076 12.0477 11.8857 12.2021 10.5757 12.2021C10.1242 12.2021 9.68635 12.1837 9.27072 12.1496" stroke="#131426" stroke-width="0.84375" stroke-miterlimit="10" stroke-linecap="round" stroke-linejoin="round"/>
<path d="M8.3927 9.45521C8.14738 8.49553 7.92926 7.2524 7.78457 5.88646C7.70301 5.1124 8.07832 4.43834 8.62332 4.3799C9.16863 4.3224 9.67676 4.90365 9.75895 5.67771C9.98832 7.84553 9.9727 9.74928 9.75676 10.7224" stroke="#131426" stroke-width="0.84375" stroke-miterlimit="10" stroke-linecap="round" stroke-linejoin="round"/>
<path d="M11.3964 10.7236C11.1933 9.80957 11.167 8.07238 11.3555 6.06738H14.0136C14.4164 6.73301 14.3633 7.50301 13.8952 7.78738C13.4564 8.0527 12.8086 7.79863 12.3973 7.21988" stroke="#131426" stroke-width="0.84375" stroke-miterlimit="10" stroke-linecap="round" stroke-linejoin="round"/>
<path d="M12.9181 8.77856C12.7453 9.5845 12.5513 10.2514 12.356 10.712" stroke="#131426" stroke-width="0.84375" stroke-miterlimit="10" stroke-linecap="round" stroke-linejoin="round"/>
</svg>
