<svg width="36" height="36" xmlns="http://www.w3.org/2000/svg"><g id="desktop" stroke="none" stroke-width="1" fill="none" fill-rule="evenodd"><g id="06-03-blog-item" transform="translate(-466 -3354)" fill="#FFB71F" fill-rule="nonzero"><g id="Group-4" transform="translate(0 3281)"><g id="Group-10" transform="translate(307)"><g id="Group-3" transform="translate(159 70)"><g id="Group-9" transform="translate(0 3)"><path d="M2 3.99v28.02c0 1.1.89 1.99 1.99 1.99h28.02c1.1 0 1.99-.89 1.99-1.99V3.99C34 2.89 33.11 2 32.01 2H3.99C2.89 2 2 2.89 2 3.99zm-2 0A3.99 3.99 0 013.99 0h28.02A3.99 3.99 0 0136 3.99v28.02A3.99 3.99 0 0132.01 36H3.99A3.99 3.99 0 010 32.01V3.99z" id="Rectangle-6"/><path d="M10.003 18.503a7.42 7.42 0 015.287 2.191 7.447 7.447 0 012.193 5.302h3.078c0-5.823-4.736-10.56-10.558-10.56v3.067zm.004-5.436c7.12 0 12.914 5.801 12.914 12.933H26c0-8.823-7.175-16-15.993-16v3.067zm4.258 10.79a2.129 2.129 0 01-2.133 2.125A2.128 2.128 0 0110 23.858c0-1.174.955-2.124 2.132-2.124 1.178 0 2.133.95 2.133 2.124z" id="Shape"/></g></g></g></g></g></g></svg>