<svg width="24" height="24" viewBox="0 0 24 24" fill="none" xmlns="http://www.w3.org/2000/svg">
<g clip-path="url(#clip0_18993_3724)">
<path d="M7.50073 17.3646L8.21204 20.0031C8.24412 20.1051 8.24404 20.2145 8.2118 20.3165C8.17955 20.4185 8.11672 20.508 8.03182 20.5731C7.94692 20.6381 7.84406 20.6754 7.73722 20.68C7.63037 20.6846 7.5247 20.6561 7.43456 20.5986L5.25101 19.0767C5.16971 19.0163 5.0711 18.9837 4.9698 18.9837C4.8685 18.9837 4.76989 19.0163 4.68858 19.0767L2.50503 20.5986C2.41489 20.6561 2.30923 20.6846 2.20238 20.68C2.09553 20.6754 1.99268 20.6381 1.90778 20.5731C1.82287 20.508 1.76004 20.4185 1.7278 20.3165C1.69556 20.2145 1.69547 20.1051 1.72755 20.0031L2.43886 17.3646C2.4668 17.2634 2.46446 17.1561 2.43212 17.0562C2.39978 16.9562 2.33886 16.8679 2.2569 16.8022L0.205684 15.1066C0.120011 15.0394 0.0567801 14.9477 0.0243646 14.8437C-0.00805103 14.7398 -0.00812295 14.6284 0.0241583 14.5244C0.0564395 14.4204 0.119551 14.3286 0.205138 14.2612C0.290725 14.1939 0.39475 14.1541 0.503441 14.1472L3.11709 14.0397C3.22407 14.0316 3.32596 13.9908 3.40886 13.9227C3.49176 13.8546 3.55162 13.7626 3.58026 13.6592L4.49008 11.0869" stroke="white" stroke-width="1.07523" stroke-linecap="round" stroke-linejoin="round"/>
<path d="M19.5101 11.1118L20.4199 13.6593C20.4528 13.7581 20.5145 13.8447 20.597 13.9081C20.6796 13.9715 20.7792 14.0087 20.8831 14.0149L23.4968 14.1225C23.6054 14.1294 23.7095 14.1692 23.7951 14.2365C23.8806 14.3039 23.9438 14.3956 23.976 14.4997C24.0083 14.6037 24.0083 14.715 23.9758 14.819C23.9434 14.923 23.8802 15.0147 23.7945 15.0819L21.7433 16.8023C21.6613 16.868 21.6004 16.9563 21.5681 17.0562C21.5357 17.1562 21.5334 17.2634 21.5613 17.3647L22.2726 20.0032C22.3047 20.1052 22.3046 20.2146 22.2724 20.3166C22.2402 20.4185 22.1773 20.5081 22.0924 20.5732C22.0075 20.6382 21.9047 20.6755 21.7978 20.6801C21.691 20.6847 21.5853 20.6562 21.4952 20.5987L19.3116 19.0768C19.2303 19.0164 19.1317 18.9838 19.0304 18.9838C18.9291 18.9838 18.8305 19.0164 18.7492 19.0768L16.5656 20.5987C16.4755 20.6562 16.3698 20.6847 16.263 20.6801C16.1561 20.6755 16.0533 20.6382 15.9684 20.5732C15.8835 20.5081 15.8206 20.4185 15.7884 20.3166C15.7562 20.2146 15.7561 20.1052 15.7882 20.0032L16.2679 18.2084L16.4995 17.3813" stroke="white" stroke-width="1.07523" stroke-linecap="round" stroke-linejoin="round"/>
<path d="M12.4799 3.66784L13.3897 6.21531C13.4225 6.31407 13.4842 6.40073 13.5668 6.46412C13.6493 6.52751 13.749 6.56472 13.8529 6.57097L16.4665 6.67849C16.5752 6.68541 16.6792 6.72519 16.7648 6.79254C16.8504 6.85989 16.9135 6.95165 16.9458 7.05567C16.9781 7.15969 16.978 7.27106 16.9456 7.37503C16.9132 7.47901 16.8499 7.57069 16.7643 7.63793L14.713 9.3583C14.6311 9.42402 14.5702 9.51231 14.5378 9.61226C14.5055 9.71222 14.5031 9.81946 14.5311 9.92073L15.2424 12.5592C15.2745 12.6612 15.2744 12.7706 15.2421 12.8726C15.2099 12.9746 15.1471 13.0641 15.0622 13.1292C14.9773 13.1942 14.8744 13.2315 14.7676 13.2361C14.6607 13.2407 14.5551 13.2123 14.4649 13.1547L12.2814 11.6328C12.2001 11.5724 12.1014 11.5398 12.0001 11.5398C11.8988 11.5398 11.8002 11.5724 11.7189 11.6328L9.51884 13.1547C9.4287 13.2123 9.32303 13.2407 9.21618 13.2361C9.10934 13.2315 9.00648 13.1942 8.92158 13.1292C8.83668 13.0641 8.77384 12.9746 8.7416 12.8726C8.70936 12.7706 8.70928 12.6612 8.74136 12.5592L9.45267 9.92073C9.48061 9.81946 9.47826 9.71222 9.44592 9.61226C9.41359 9.51231 9.35267 9.42402 9.2707 9.3583L7.21949 7.7041C7.1139 7.64284 7.03231 7.54748 6.98812 7.43368C6.94393 7.31989 6.93978 7.19445 6.97636 7.07799C7.01293 6.96153 7.08805 6.86098 7.18936 6.79289C7.29067 6.72479 7.41214 6.6932 7.53379 6.7033L10.1474 6.59578C10.2544 6.58776 10.3563 6.54691 10.4392 6.47881C10.5221 6.41072 10.582 6.3187 10.6106 6.21531L11.5204 3.66784C11.5534 3.56659 11.6176 3.47838 11.7037 3.41582C11.7899 3.35327 11.8937 3.31958 12.0001 3.31958C12.1066 3.31958 12.2104 3.35327 12.2965 3.41582C12.3827 3.47838 12.4469 3.56659 12.4799 3.66784Z" stroke="white" stroke-width="1.07523" stroke-linecap="round" stroke-linejoin="round"/>
</g>
<defs>
<clipPath id="clip0_18993_3724">
<rect width="24.0004" height="24.0009" fill="white" transform="translate(0 -0.000488281)"/>
</clipPath>
</defs>
</svg>
