<svg width="90" height="28" fill="none" xmlns="http://www.w3.org/2000/svg"><path fill-rule="evenodd" clip-rule="evenodd" d="M37.48 0a8.04 8.04 0 00-8.04 8.04v19.934h3.937V14.49h4.104v-3.937h-4.104V8.041a4.104 4.104 0 014.104-4.104V0zm10.93 0a8.04 8.04 0 00-8.04 8.04v19.934h3.937V14.49h4.104v-3.937h-4.104V8.041a4.104 4.104 0 014.104-4.104V0zM13.025.88v9.673H8.711A8.71 8.71 0 000 19.263v.231a8.48 8.48 0 0016.96 0V.88h-3.936zM8.711 14.49h4.313v5.004a4.544 4.544 0 01-9.087 0v-.23A4.774 4.774 0 018.71 14.49zm44.892 4.774a4.774 4.774 0 014.775-4.774h3.392v-3.937h-3.392a8.71 8.71 0 000 17.421h3.392v-3.936h-3.392a4.774 4.774 0 01-4.775-4.774zm13.82 0a4.774 4.774 0 119.548 0 4.774 4.774 0 01-9.548 0zm4.774-8.71a8.71 8.71 0 100 17.42 8.71 8.71 0 000-17.42zm-47.029 17.42V13.568h-3.936v14.406h3.937zm.671-20.17a2.764 2.764 0 10-5.528 0 2.764 2.764 0 005.528 0zm63.572 17.432a2.764 2.764 0 10-5.528 0 2.764 2.764 0 005.528 0z" fill="#fff"/></svg>