<svg width="80" height="25" viewBox="0 0 80 25" fill="none" xmlns="http://www.w3.org/2000/svg">
<path d="M33.354 0.00976562C29.4022 0.00976562 26.1987 3.22688 26.1987 7.1954V21.4918C26.1987 23.4347 27.7671 25.0098 29.7018 25.0098V12.9589H32.4641C32.9556 12.9589 33.354 12.5588 33.354 12.0652V9.4409H29.7018V7.1954C29.7018 5.47499 30.8813 4.03125 32.4726 3.63526C32.9496 3.51654 33.354 3.12762 33.354 2.63405V0.00976562Z" fill="#B1B2C1"/>
<path d="M43.0807 0.00976562C39.1289 0.00976562 35.9254 3.22688 35.9254 7.19539L35.9254 21.4918C35.9254 23.4347 37.4938 25.0098 39.4285 25.0098L39.4285 12.9589H42.1908C42.6823 12.9589 43.0807 12.5588 43.0807 12.0652V9.4409H39.4285V7.19539C39.4285 5.47499 40.608 4.03125 42.1993 3.63526C42.6763 3.51654 43.0807 3.12762 43.0807 2.63405V0.00976562Z" fill="#B1B2C1"/>
<path fill-rule="evenodd" clip-rule="evenodd" d="M11.59 0.00976562V9.4409H7.75154C3.47048 9.4409 0 12.9261 0 17.2253V17.4312C0 21.6167 3.37871 25.0098 7.54657 25.0098C11.7144 25.0098 15.0931 21.6167 15.0931 17.4312V3.52773C15.0931 1.58482 13.5248 0.00976562 11.59 0.00976562ZM7.75154 12.9589H11.59V17.4312C11.59 19.6738 9.77972 21.4918 7.54657 21.4918C5.31342 21.4918 3.5031 19.6738 3.5031 17.4312V17.2253C3.5031 14.869 5.40519 12.9589 7.75154 12.9589Z" fill="#B1B2C1"/>
<path d="M47.7018 17.2253C47.7018 14.869 49.6039 12.9589 51.9502 12.9589H54.0789C54.5704 12.9589 54.9688 12.5588 54.9688 12.0652V9.4409H51.9502C47.6692 9.4409 44.1987 12.9261 44.1987 17.2253C44.1987 21.5246 47.6692 25.0098 51.9502 25.0098H54.9688V22.3855C54.9688 21.8919 54.5704 21.4918 54.0789 21.4918H51.9502C49.6039 21.4918 47.7018 19.5816 47.7018 17.2253Z" fill="#B1B2C1"/>
<path fill-rule="evenodd" clip-rule="evenodd" d="M64.2483 9.4409C59.9673 9.4409 56.4968 12.9261 56.4968 17.2253C56.4968 21.5246 59.9673 25.0098 64.2483 25.0098C68.5294 25.0098 71.9999 21.5246 71.9999 17.2253C71.9999 12.9261 68.5294 9.4409 64.2483 9.4409ZM59.9999 17.2253C59.9999 14.869 61.902 12.9589 64.2483 12.9589C66.5947 12.9589 68.4968 14.869 68.4968 17.2253C68.4968 19.5816 66.5947 21.4918 64.2483 21.4918C61.902 21.4918 59.9999 19.5816 59.9999 17.2253Z" fill="#B1B2C1"/>
<path d="M22.3975 12.7486C22.3975 12.41 22.1242 12.1355 21.787 12.1355H19.7843C19.2928 12.1355 18.8944 12.5356 18.8944 13.0292V25.0098C20.8291 25.0098 22.3975 23.4347 22.3975 21.4918V12.7486Z" fill="#B1B2C1"/>
<path d="M22.9953 6.98395C22.9953 5.61978 21.8941 4.51389 20.5357 4.51389C19.1773 4.51389 18.0761 5.61978 18.0761 6.98395C18.0761 8.34813 19.1773 9.45401 20.5357 9.45401C21.8941 9.45401 22.9953 8.34813 22.9953 6.98395Z" fill="#B1B2C1"/>
<g clip-path="url(#clip0_15610_20501)">
<path d="M76 7.54997C77.955 7.54997 79.54 5.96506 79.54 4.00997C79.54 2.05488 77.955 0.469971 76 0.469971C74.0449 0.469971 72.46 2.05488 72.46 4.00997C72.46 5.96506 74.0449 7.54997 76 7.54997Z" stroke="#B1B2C1" stroke-width="0.8"/>
<path d="M75.7845 3.68967C76.0045 3.68967 76.1645 3.64567 76.2605 3.56167C76.3565 3.48167 76.4085 3.34567 76.4085 3.15367C76.4085 2.96567 76.3565 2.83367 76.2605 2.74967C76.1645 2.66967 76.0045 2.62967 75.7845 2.62967H75.3365V3.68967H75.7845ZM75.3365 4.42167V5.98167H74.2725V1.85767H75.8965C76.4405 1.85767 76.8365 1.94967 77.0885 2.13367C77.3445 2.31367 77.4685 2.60167 77.4685 2.99767C77.4685 3.26967 77.4045 3.49367 77.2725 3.66967C77.1405 3.84167 76.9445 3.97367 76.6765 4.05367C76.8245 4.08967 76.9525 4.16567 77.0685 4.28167C77.1845 4.39767 77.3005 4.57367 77.4165 4.81367L77.9965 5.98167H76.8645L76.3605 4.95767C76.2605 4.75367 76.1565 4.60967 76.0525 4.53767C75.9485 4.46167 75.8085 4.42167 75.6365 4.42167H75.3365Z" fill="#B1B2C1"/>
</g>
<defs>
<clipPath id="clip0_15610_20501">
<rect width="8" height="8" fill="white" transform="translate(72 0.00976562)"/>
</clipPath>
</defs>
</svg>
