<svg width="91" height="91" xmlns="http://www.w3.org/2000/svg" xmlns:xlink="http://www.w3.org/1999/xlink"><defs><filter x="-136.4%" y="-136.4%" width="372.7%" height="372.7%" filterUnits="objectBoundingBox" id="filter-2"><feOffset in="SourceAlpha" result="shadowOffsetOuter1"/><feGaussianBlur stdDeviation="15" in="shadowOffsetOuter1" result="shadowBlurOuter1"/><feColorMatrix values="0 0 0 0 1 0 0 0 0 0.717647059 0 0 0 0 0.121568627 0 0 0 0.2 0" in="shadowBlurOuter1"/></filter><circle id="path-1" cx="41.5" cy="31.5" r="16.5"/></defs><g id="desktop" stroke="none" stroke-width="1" fill="none" fill-rule="evenodd"><g id="09-01-get-a-quote-sent" transform="translate(-594 -197)"><g id="Group-3" transform="translate(508 211)"><g id="Group" transform="translate(90)"><path d="M75.722 0C79.708 0 83 3.322 83 7.344v49.312C83 60.678 79.708 64 75.722 64H7.278C3.292 64 0 60.678 0 56.656V7.344C0 3.322 3.292 0 7.278 0h68.444zm-19.6 34.825l-4.499 4.52c-2.769 2.782-6.403 4.347-10.21 4.347-3.807 0-7.44-1.565-10.21-4.346l-4.498-4.52L4.713 56.917c.192 1.175 1.154 2.011 2.391 2.011H75.55c1.291 0 2.282-.91 2.411-2.165L56.122 34.825zM4.678 12.696v37.651l18.739-18.825L4.678 12.696zm73.296.175L59.41 31.522l18.564 18.65V12.871zm-2.425-8.15H7.104c-1.06 0-1.918.614-2.262 1.53l29.65 29.618c3.807 3.824 10.21 3.824 14.016 0l29.35-29.485c-.31-.989-1.198-1.663-2.309-1.663z" id="Combined-Shape" fill="#292B4D" fill-rule="nonzero"/><g id="Oval-5"><use fill="#000" filter="url(#filter-2)" xlink:href="#path-1"/><use fill="#E7A910" xlink:href="#path-1"/></g><g id="1498255792_check" transform="translate(33 25)" fill="#202240" fill-rule="nonzero"><path d="M17 2.539c0 .292-.102.54-.307.744l-7.94 7.922-1.492 1.489a1.017 1.017 0 01-.746.306c-.293 0-.541-.102-.746-.306l-1.492-1.489-3.97-3.96A1.012 1.012 0 010 6.5c0-.292.102-.54.307-.744L1.8 4.268c.204-.205.453-.307.746-.307.292 0 .54.102.745.307l3.225 3.228L13.71.306c.204-.204.453-.306.745-.306.293 0 .542.102.746.306l1.492 1.489c.205.204.307.452.307.744z" id="Shape"/></g></g></g></g></g></svg>