<?xml version="1.0" standalone="no"?>
<!DOCTYPE svg PUBLIC "-//W3C//DTD SVG 1.1//EN" "http://www.w3.org/Graphics/SVG/1.1/DTD/svg11.dtd" >
<svg xmlns="http://www.w3.org/2000/svg" xmlns:xlink="http://www.w3.org/1999/xlink" version="1.1">
<metadata></metadata>
<defs>
<font id="pf_din_text_comp_promedium" horiz-adv-x="870" >
<font-face units-per-em="2048" ascent="1536" descent="-512" />
<missing-glyph horiz-adv-x="439" />
<glyph horiz-adv-x="0" />
<glyph horiz-adv-x="682" />
<glyph unicode=" "  horiz-adv-x="439" />
<glyph unicode="&#x09;" horiz-adv-x="439" />
<glyph unicode="&#xa0;" horiz-adv-x="439" />
<glyph unicode="!" horiz-adv-x="541" d="M154 1496h231l-17 -1088h-194zM160 0v234h223v-234h-223z" />
<glyph unicode="&#x22;" horiz-adv-x="601" d="M84 1054v442h164v-442h-164zM357 1054v442h166v-442h-166z" />
<glyph unicode="#" d="M10 464v160h152l49 268h-121v159h148l82 451h164l-84 -451h170l82 451h161l-84 -451h125v-159h-153l-47 -268h124v-160h-154l-84 -464h-162l84 464h-169l-82 -464h-164l86 464h-123zM322 624h170l50 268h-170z" />
<glyph unicode="$" d="M66 351l233 45q2 -69 23.5 -120.5t77.5 -64.5v458q-105 45 -168.5 91t-98 97.5t-45 111t-10.5 130.5q0 168 77 279.5t245 129.5v156h80v-154q94 -4 157.5 -39t101 -86t52.5 -111.5t15 -116.5l-227 -53q0 71 -21.5 120t-77.5 60v-398q105 -47 169.5 -92t100 -98t46 -118.5 t10.5 -151.5q0 -94 -16 -173t-54.5 -136t-101 -90t-154.5 -37v-179h-80v179q-88 4 -151.5 34t-103.5 78t-59.5 111.5t-19.5 137.5zM308 1101q0 -55 13.5 -95t78.5 -79v355q-58 -17 -75 -72t-17 -109zM480 211q34 6 53 26.5t29 49.5t13.5 63t3.5 73q0 86 -19.5 128t-79.5 79 v-419z" />
<glyph unicode="%" horiz-adv-x="1354" d="M58 792v517q0 95 65.5 147t155.5 52q95 0 158.5 -52t63.5 -147v-517q0 -95 -64.5 -146t-157.5 -51q-92 0 -156.5 51t-64.5 146zM224 800q0 -19 14 -35t41 -16q24 0 38 15.5t14 35.5v501q0 19 -14 35t-40 16t-39.5 -16t-13.5 -35v-501zM267 -37l675 1572h142l-676 -1572 h-141zM852 189v519q0 94 65.5 145.5t155.5 51.5q95 0 158.5 -51.5t63.5 -145.5v-519q0 -95 -64.5 -145t-157.5 -50q-92 0 -156.5 50t-64.5 145zM1017 197q0 -19 14 -35t42 -16q24 0 38 16t14 35v502q0 19 -14.5 35.5t-39.5 16.5q-26 0 -40 -16.5t-14 -35.5v-502z" />
<glyph unicode="&#x26;" horiz-adv-x="1032" d="M88 380q0 129 53.5 229.5t151.5 192.5l-39 68q-32 60 -58 139t-26 163q0 71 21.5 132t61.5 106t96.5 71.5t126.5 26.5q118 0 201.5 -46.5t133.5 -156.5l-191 -96q-19 49 -54 71.5t-76 22.5q-60 0 -82.5 -43t-22.5 -90q0 -50 25 -114.5t66 -139.5l238 -424 q13 39 19.5 86.5t8.5 98.5h202q-2 -96 -27 -202.5t-68 -190.5l164 -284h-256l-56 97q-66 -70 -139.5 -90t-150.5 -20q-72 0 -130.5 28t-102 79.5t-67 125t-23.5 160.5zM306 390q0 -80 37 -138.5t106 -58.5q43 0 84 20.5t69 53.5l-202 348q-45 -55 -69.5 -109t-24.5 -116z " />
<glyph unicode="'" horiz-adv-x="399" d="M123 1054v442h165v-442h-165z" />
<glyph unicode="(" horiz-adv-x="543" d="M99 658q0 134 22.5 257t62.5 234t92.5 212.5t113.5 189.5l133 -65q-52 -91 -91.5 -191.5t-68 -206t-43 -213t-14.5 -208.5q0 -109 14.5 -221.5t43 -218.5t66.5 -206.5t89 -186.5l-117 -74q-129 184 -216 409t-87 489z" />
<glyph unicode=")" horiz-adv-x="543" d="M99 1486l131 65q60 -88 113 -189.5t93 -212.5t63.5 -234t23.5 -257q0 -264 -88.5 -489t-217.5 -409l-114 74q47 86 87 186.5t68 206.5t43 217.5t15 222.5q0 101 -15 208.5t-43 213t-69 206t-90 191.5z" />
<glyph unicode="*" horiz-adv-x="801" d="M51 1178l52 149l228 -94l-21 261h161l-22 -259l226 92l54 -149l-243 -64l168 -205l-131 -90l-131 219l-136 -221l-129 92l163 205z" />
<glyph unicode="+" d="M30 544v185h314v340h181v-340h314v-185h-314v-337h-181v337h-314z" />
<glyph unicode="," horiz-adv-x="459" d="M103 -295l63 282h-57v271h242v-264l-119 -289h-129z" />
<glyph unicode="-" horiz-adv-x="784" d="M105 503v203h599v-203h-599z" />
<glyph unicode="." horiz-adv-x="453" d="M105 0v260h241v-260h-241z" />
<glyph unicode="/" horiz-adv-x="586" d="M6 -90l400 1649h175l-400 -1649h-175z" />
<glyph unicode="0" d="M114 303v887q0 75 26 135t70 101t103 62.5t128 21.5q144 0 234 -84t90 -236v-887q0 -75 -25.5 -134.5t-69.5 -100t-103.5 -61t-125.5 -20.5q-69 0 -128 20.5t-103 61t-70 100t-26 134.5zM342 295q0 -43 28 -67.5t71 -24.5q41 0 68 24.5t27 67.5v903q0 43 -27 67.5 t-68 24.5q-43 0 -71 -24.5t-28 -67.5v-903z" />
<glyph unicode="1" d="M219 1073v250l218 173h217v-1496h-231v1237z" />
<glyph unicode="2" d="M99 1108q0 191 92.5 296.5t247.5 105.5q178 0 255.5 -96t77.5 -257q2 -99 -20.5 -176.5t-67.5 -165.5l-304 -596h377v-219h-646v203q97 182 191 364l188 364q31 56 38.5 110.5t7.5 115.5q0 19 -3.5 42.5t-14.5 43t-30 33.5t-51 14q-50 -2 -80 -47t-30 -161z" />
<glyph unicode="3" d="M88 370l230 28q-10 -107 21 -150t84 -43q39 0 72.5 26.5t33.5 99.5v202q0 76 -34.5 108t-96.5 32h-65v197h75q62 0 95 30.5t33 101.5v166q0 43 -19.5 81.5t-75.5 38.5q-54 0 -85.5 -44t-31.5 -148l-227 31q4 174 98.5 278.5t256.5 104.5q88 0 148 -28.5t96.5 -74.5 t52.5 -105t16 -120v-117q0 -43 -3 -85t-15 -79t-36.5 -68t-67.5 -53v-10q75 -35 98.5 -100.5t23.5 -146.5l-2 -172q0 -179 -93.5 -271.5t-250.5 -92.5q-183 0 -262 100t-69 283z" />
<glyph unicode="4" d="M49 224v195l319 1077h225l-309 -1057h204v339h226v-339h94v-215h-94v-224h-226v224h-439z" />
<glyph unicode="5" d="M101 353l223 37v-31q0 -84 26 -119t83 -35q38 0 67 25.5t33 98.5v355q0 92 -92 92q-35 0 -66 -18t-48 -61h-194v799h624v-212h-413v-361q2 0 3.5 -1t5.5 -1q28 30 71.5 44t84.5 14q138 0 197 -77t59 -192v-310q0 -213 -82 -313t-255 -100q-170 0 -248.5 97t-78.5 269z " />
<glyph unicode="6" d="M117 297v191q0 88 9 158t34 132l275 718h242l-242 -636l8 -8q39 26 95 26q105 0 168.5 -69t63.5 -218v-262q0 -74 -20.5 -136t-61.5 -108t-103 -72t-146 -26q-148 0 -235 83.5t-87 226.5zM344 293q0 -43 28 -65.5t69 -22.5q43 0 71 22.5t28 65.5v307q0 43 -28 65.5 t-69 22.5q-49 0 -74 -32t-25 -75v-288z" />
<glyph unicode="7" d="M109 1122v374h661v-195l-378 -1301h-228l365 1284h-215v-162h-205z" />
<glyph unicode="8" d="M109 338v107q0 52 4 101t15.5 93.5t35 80t64.5 60.5q-37 15 -59.5 44.5t-35 63t-17.5 66.5t-5 57v171q0 148 89.5 238t236.5 90q157 0 240.5 -89.5t83.5 -259.5v-110q0 -82 -23.5 -155t-90.5 -108q0 -3 2 -3q41 -26 63.5 -58t33.5 -71t14 -85t3 -100v-129 q0 -92 -24.5 -158.5t-68.5 -111t-103.5 -65t-127.5 -20.5q-86 0 -148.5 26t-102.5 73t-59.5 111.5t-19.5 140.5zM338 295q0 -41 29 -66.5t70 -25.5q43 0 69.5 25.5t26.5 66.5v284q0 45 -20.5 81.5t-75.5 36.5q-56 0 -77.5 -36.5t-21.5 -81.5v-284zM338 966q0 -41 29 -65.5 t70 -24.5q43 0 69.5 24.5t26.5 65.5v214q0 47 -22.5 80t-73.5 33q-39 0 -69 -25t-30 -66v-236z" />
<glyph unicode="9" d="M109 907v261q0 73 20.5 135t61.5 108.5t103.5 72.5t148.5 26q160 0 241 -84t81 -226v-191q0 -170 -43 -291l-275 -718h-244l242 636l-8 9q-39 -27 -95 -25q-105 0 -169 63.5t-64 223.5zM340 897q0 -43 28 -67t71 -24q49 0 73 33.5t24 76.5v288q0 43 -27 66t-70 23 q-41 0 -70 -23t-29 -66v-307z" />
<glyph unicode=":" horiz-adv-x="453" d="M105 0v260h241v-260h-241zM105 600v260h241v-260h-241z" />
<glyph unicode=";" horiz-adv-x="459" d="M103 -295l63 282h-57v271h242v-264l-119 -289h-129zM109 600v260h242v-260h-242z" />
<glyph unicode="&#x3c;" d="M33 564v154l804 402v-213l-583 -267l581 -264v-214z" />
<glyph unicode="=" d="M30 370v186h809v-186h-809zM30 727v187h809v-187h-809z" />
<glyph unicode="&#x3e;" d="M35 907v213l804 -402v-154l-800 -402v214l578 264z" />
<glyph unicode="?" horiz-adv-x="846" d="M66 1127q4 191 105.5 287t263.5 96q189 0 274 -99.5t85 -283.5q0 -56 -4.5 -97t-14.5 -74t-25 -64.5t-36 -70.5l-103 -181q-17 -28 -27 -58t-10 -73v-113h-228v172q0 47 15 89t39 80q52 86 82.5 139t47 91.5t20.5 72t4 82.5q0 25 -6 53.5t-20.5 53.5t-39 42t-62.5 17 q-51 0 -91 -42t-40 -145zM349 0v234h221v-234h-221z" />
<glyph unicode="@" horiz-adv-x="1681" d="M129 722q0 177 48.5 325.5t142 255.5t231 168.5t313.5 61.5q174 0 304.5 -54.5t216.5 -151.5t128 -227t42 -279q0 -146 -32.5 -246.5t-87 -164.5t-124.5 -92t-148 -28q-16 0 -43.5 6.5t-57.5 21.5t-55.5 38.5t-38.5 56.5h-4q-35 -52 -95.5 -79.5t-124.5 -27.5 q-59 0 -99.5 21.5t-65.5 56.5t-34 81t-9 97t14 100.5t46 88.5t81.5 62.5t120.5 23.5h111v86q0 41 -19.5 63.5t-68.5 22.5q-28 0 -54.5 -18.5t-37.5 -65.5l-173 51q29 99 102 153.5t179 54.5q125 0 194.5 -56.5t69.5 -198.5v-367q0 -52 27 -79t56 -27q37 0 71.5 14t62.5 55 t44.5 112t16.5 184q0 125 -35 226.5t-100.5 173.5t-160 110.5t-213.5 38.5q-148 0 -256.5 -52t-177 -141t-102 -206t-33.5 -249q0 -154 37.5 -278t109 -210t176.5 -131t240 -45q101 0 183 19.5t180 74.5l70 -150q-99 -47 -204.5 -76t-216.5 -29q-170 0 -308 50.5t-236 153 t-150.5 256.5t-52.5 365zM724 574q0 -45 24 -70.5t69 -25.5q43 0 67.5 30t24.5 79v108h-76q-43 0 -76 -26t-33 -95z" />
<glyph unicode="A" horiz-adv-x="907" d="M24 0q76 376 151 748t149 748h259l303 -1496h-237l-58 312h-275q-15 -78 -29 -156t-27 -156h-236zM351 529h203l-96 622h-11q-21 -155 -45 -309t-51 -313z" />
<glyph unicode="B" horiz-adv-x="924" d="M111 0v1496h328q197 0 286.5 -104t89.5 -302q0 -103 -35.5 -180t-123.5 -116v-12q99 -32 135 -122t36 -206q0 -235 -99.5 -344.5t-306.5 -109.5h-310zM344 217h93q55 0 88.5 20.5t51.5 55t24 82t6 99.5q0 105 -39 156t-135 51h-89v-464zM344 892h75q90 0 132 49.5 t42 144.5q0 103 -41 148.5t-135 45.5h-73v-388z" />
<glyph unicode="C" horiz-adv-x="872" d="M99 355v746q0 84 18 158.5t61.5 130t113 88t170.5 32.5q92 0 159 -26t111 -72.5t64.5 -109.5t20.5 -139l-226 -57q0 82 -31 133t-100 51q-41 0 -66.5 -17t-39.5 -44t-19.5 -58.5t-5.5 -58.5v-759q0 -21 4.5 -47.5t18 -49t38.5 -37t64 -14.5q129 0 131 185q58 -11 116 -19 l116 -16q-4 -170 -93.5 -269t-263.5 -99q-185 0 -273 93.5t-88 274.5z" />
<glyph unicode="D" horiz-adv-x="934" d="M111 0v1496h373q133 0 210.5 -46t107.5 -155q24 -80 24.5 -218.5t0.5 -325.5q0 -185 -2 -318.5t-27 -210.5q-41 -128 -130 -175t-204 -47h-353zM344 219h99q86 0 118 45.5t32 131.5v708q0 81 -31 127.5t-119 46.5h-99v-1059z" />
<glyph unicode="E" horiz-adv-x="816" d="M111 0v1496h665v-218h-432v-408h376v-221h-376v-430h432v-219h-665z" />
<glyph unicode="F" horiz-adv-x="816" d="M111 0v1496h665v-218h-432v-408h376v-221h-376v-649h-233z" />
<glyph unicode="G" horiz-adv-x="917" d="M109 355v746q0 84 19.5 158.5t63.5 130t113 88t169 32.5q182 0 267.5 -95t85.5 -247v-17l-225 -45q0 82 -31 133t-100 51q-41 0 -67 -17t-39.5 -44t-19 -58.5t-5.5 -58.5v-759q0 -24 6 -45q7 -39 31.5 -71t86.5 -32t100 32t38 87v296h-138v201h369v-477 q0 -176 -100 -266.5t-262 -90.5q-184 0 -273 93.5t-89 274.5z" />
<glyph unicode="H" horiz-adv-x="952" d="M111 0v1496h231v-626h269v626h230v-1496h-230v654h-269v-654h-231z" />
<glyph unicode="I" horiz-adv-x="466" d="M117 0v1496h234v-1496h-234z" />
<glyph unicode="J" horiz-adv-x="788" d="M-10 158l172 132q24 -37 63.5 -61t73.5 -24q72 0 103 48t31 110v1133h232v-1124q0 -185 -92.5 -285t-271.5 -100q-96 0 -177 42t-134 129z" />
<glyph unicode="K" horiz-adv-x="924" d="M111 0v1496h231v-604h11l281 604h242q-76 -152 -151.5 -302.5t-150.5 -303.5l344 -890h-237l-240 645q-24 -52 -48.5 -104.5t-50.5 -103.5v-437h-231z" />
<glyph unicode="L" horiz-adv-x="771" d="M111 0v1496h233v-1277h415v-219h-648z" />
<glyph unicode="M" horiz-adv-x="1231" d="M105 0v1496h224l163 -425l119 -324h11l120 332l161 417h224v-1496h-232v862h-9l-94 -267l-106 -268h-140l-107 277l-93 262h-11v-866h-230z" />
<glyph unicode="N" horiz-adv-x="1001" d="M105 0v1496h209l181 -445q21 -56 42.5 -109.5t45.5 -108.5l75 -207q5 0 6 1t5 1v868h228v-1496h-205l-181 443q-43 109 -84.5 214.5t-82.5 212.5h-9v-870h-230z" />
<glyph unicode="O" horiz-adv-x="924" d="M99 359v753q0 88 20.5 161t63.5 125.5t112.5 82t166.5 29.5q103 0 173.5 -27.5t112.5 -79t59.5 -124.5t17.5 -165v-731q0 -195 -88 -295.5t-277 -100.5t-275 95.5t-86 276.5zM331 355q0 -58 29.5 -104t99.5 -46q71 0 101 48t30 117v761q0 62 -26.5 112t-102.5 50 q-41 0 -66.5 -18.5t-39.5 -45.5t-19.5 -60.5t-5.5 -60.5v-753z" />
<glyph unicode="P" horiz-adv-x="885" d="M111 0v1496h332q207 0 302.5 -107t95.5 -346q0 -105 -19.5 -191.5t-66.5 -147.5t-124 -95.5t-192 -34.5h-95v-574h-233zM344 796h82q107 0 149 61t42 184q0 109 -39.5 173t-147.5 64h-86v-482z" />
<glyph unicode="Q" horiz-adv-x="924" d="M101 359v753q0 88 20.5 161t63.5 125.5t113 82t166 29.5q103 0 173.5 -27.5t112.5 -79t59.5 -124.5t17.5 -165v-731q0 -118 -31 -198l127 -101l-110 -133l-121 96q-41 -34 -100 -47t-128 -13q-189 0 -276 95.5t-87 276.5zM333 355q0 -58 29.5 -105t99.5 -47q24 0 37 6 l-76 62l104 129l66 -54v748v37t-2 39q-4 53 -34 88t-93 35q-66 0 -95 -44.5t-34 -101.5q-2 -31 -2 -57.5v-53.5v-681z" />
<glyph unicode="R" horiz-adv-x="924" d="M111 0v1496h343q182 0 285.5 -101.5t103.5 -331.5q0 -142 -40 -240.5t-140 -153.5l221 -669h-237l-193 620h-110v-620h-233zM344 839h95q90 0 133 52.5t43 168.5q0 103 -42 160.5t-138 57.5h-91v-439z" />
<glyph unicode="S" horiz-adv-x="883" d="M76 351l230 45q4 -84 31.5 -136.5t109.5 -52.5q48 0 75.5 18t42 48t17.5 68.5t3 81.5q0 54 -6.5 90.5t-24.5 62.5t-52 45t-87 44q-107 45 -173 92t-100.5 99.5t-45 112t-10.5 130.5q0 91 21.5 166t66.5 129.5t115 85t167 30.5q105 0 174 -33.5t109.5 -85t58 -114 t17.5 -120.5l-230 -53q0 81 -28 132.5t-110 51.5q-43 0 -67.5 -17t-40 -45t-19.5 -60.5t-4 -64.5q0 -38 4 -67.5t24.5 -55.5t61.5 -51.5t113 -53.5q98 -39 157 -82.5t89.5 -97t40 -118.5t9.5 -149q0 -100 -18.5 -181t-61.5 -138.5t-115 -88.5t-177 -31q-97 0 -166.5 28 t-114.5 77.5t-65.5 116t-20.5 142.5z" />
<glyph unicode="T" horiz-adv-x="730" d="M6 1280v216h716v-216h-240v-1280h-234v1280h-242z" />
<glyph unicode="U" horiz-adv-x="930" d="M103 359v1135h232v-1139q0 -58 29.5 -104t99.5 -46q72 0 101.5 48t29.5 117v1124h236v-1111q0 -195 -87.5 -295.5t-277.5 -100.5q-189 0 -276 95.5t-87 276.5z" />
<glyph unicode="V" horiz-adv-x="905" d="M30 1496h247l101 -614l69 -471h11l69 471l103 614h246l-287 -1496h-277z" />
<glyph unicode="W" horiz-adv-x="1313" d="M33 1496h253q16 -142 31.5 -279.5t31.5 -278.5q2 -19 8 -76.5t12.5 -121t12 -120t8.5 -76.5h8q15 84 28 167t26 167l110 618h197l107 -620q13 -84 27 -169t30 -169h8l35 340l60 618h256l-217 -1496h-242l-117 649q-11 62 -22 126t-21 126h-9l-45 -256 q-30 -162 -60 -322.5t-61 -322.5h-238z" />
<glyph unicode="X" horiz-adv-x="889" d="M13 0l303 782q-71 179 -141 356.5t-140 357.5h260q37 -114 73 -224.5t73 -224.5l8 2l142 447h263l-290 -714q78 -197 156 -392l156 -390h-261l-170 513h-4l-170 -513h-258z" />
<glyph unicode="Y" horiz-adv-x="848" d="M17 1496h245l93 -324l68 -258h10l70 264l84 318h246l-291 -876v-620h-232v620z" />
<glyph unicode="Z" horiz-adv-x="732" d="M47 0v211l398 1069h-381v216h626v-206l-397 -1071h395v-219h-641z" />
<glyph unicode="[" horiz-adv-x="505" d="M133 -219v1717h341v-156h-136v-1402h136v-159h-341z" />
<glyph unicode="\" horiz-adv-x="537" d="M10 1535h175l336 -1589h-172z" />
<glyph unicode="]" horiz-adv-x="505" d="M33 -62h135v1404h-135v156h337v-1720h-337v160z" />
<glyph unicode="^" d="M15 692q86 203 171 400.5t173 399.5h154l349 -804h-210l-123 307l-94 242l-106 -278q-27 -64 -53 -132t-50 -135h-211z" />
<glyph unicode="_" horiz-adv-x="1075" d="M0 -150h1075v-164h-1075v164z" />
<glyph unicode="`" horiz-adv-x="796" d="M215 1529l191 86l181 -380l-123 -67z" />
<glyph unicode="a" horiz-adv-x="827" d="M60 310q0 62 16 122t53 106.5t97 75.5t150 29h135v116q0 47 -22.5 74t-84.5 27q-32 0 -64 -21.5t-43 -77.5l-211 64q28 119 113 185.5t220 66.5q162 0 245 -73t83 -245v-759h-236v82l-6 2q-35 -49 -86 -73t-109 -24q-72 0 -120 26t-77 70t-41 102t-12 125zM288 322 q0 -55 29 -85t79 -30q56 0 85.5 35t29.5 96v130h-92q-49 0 -90 -32t-41 -114z" />
<glyph unicode="b" horiz-adv-x="827" d="M80 0v1561h232v-580h8q31 49 87.5 72.5t97.5 23.5q56 0 93.5 -11.5t63.5 -33t41 -51t28 -60.5q17 -49 23.5 -125t6.5 -160v-96q0 -78 -3 -151t-7 -129q-9 -84 -34 -136.5t-59 -83t-76 -42t-85 -11.5q-62 0 -106.5 21.5t-74.5 73.5q-2 0 -3 -1t-3 -1v-80h-230zM310 413 q0 -39 2 -75q0 -53 24.5 -90t78.5 -37q34 0 53.5 14.5t30.5 36.5q14 29 19 94t5 165q0 99 -2 170.5t-20 108.5q-11 26 -30 40t-56 14q-62 0 -88 -56q-15 -26 -15 -63q-1 -33 -1 -70v-38.5v-40.5q0 -43 -1 -94v-79z" />
<glyph unicode="c" horiz-adv-x="769" d="M71 523q0 51 2.5 106t6.5 104t10.5 92t16.5 70q33 81 107 132.5t199 51.5q161 0 237.5 -88t76.5 -242q-56 -7 -115.5 -13.5t-114.5 -15.5q0 76 -25 110t-66 34q-64 0 -88 -64q-6 -21 -11.5 -86t-5.5 -150v-78q0 -62 1 -121t12 -90q10 -35 32 -55t60 -20q91 0 91 138 q57 -10 115.5 -17t116.5 -18q-2 -150 -84.5 -233t-242.5 -83q-73 0 -126.5 17t-91.5 47.5t-60.5 68.5t-33.5 80q-6 26 -10 64.5t-5 83t-2.5 90.5t-1.5 85z" />
<glyph unicode="d" horiz-adv-x="837" d="M69 525q0 97 5.5 192.5t19.5 158.5q9 39 25 75t44 64t70 45t105 17q45 0 91.5 -18t77.5 -57h10v559h232v-1561h-230v80q-2 0 -4 1t-4 1q-30 -52 -75 -73.5t-107 -21.5q-43 0 -84.5 11.5t-76.5 42t-59.5 83t-32.5 136.5q-5 48 -6 120t-1 145zM308 521q0 -99 4 -165t17 -94 q10 -24 29.5 -37.5t54.5 -13.5q53 0 78.5 36.5t25.5 90.5q2 35 2 73v77v56q-1 35 -1 69v33v31q0 30 -1 56q0 51 -24.5 86t-79.5 35q-56 0 -80 -52q-17 -34 -21 -106t-4 -175z" />
<glyph unicode="e" horiz-adv-x="808" d="M71 525q0 103 7.5 206.5t28.5 158.5q31 86 106 137.5t200 51.5q159 0 240.5 -88t81.5 -249v-264h-434q0 -60 1 -116t10 -87q21 -72 92 -72h2q86 0 97 121l232 -36q-8 -142 -92 -221.5t-239 -79.5q-75 0 -128.5 18.5t-91.5 48.5t-59.5 69t-32.5 77q-6 26 -10 64.5t-6 83 t-3.5 90.5t-1.5 87zM303 636h198v91q0 51 -18.5 92t-76.5 41q-62 0 -86 -62q-8 -19 -11 -61t-6 -101z" />
<glyph unicode="f" horiz-adv-x="550" d="M26 876v187h101v225q0 140 76 206.5t191 66.5h123v-213h-70q-41 0 -63.5 -25.5t-22.5 -66.5v-193h160v-187h-160v-876h-234v876h-101z" />
<glyph unicode="g" horiz-adv-x="842" d="M69 441v92q0 76 3.5 145t7.5 124q17 148 87.5 210.5t167.5 62.5q62 0 106.5 -21.5t75.5 -72.5q2 0 3 1t3 1v80h230v-1123q0 -166 -76.5 -266t-259.5 -100q-150 0 -234 75.5t-91 217.5q56 8 114.5 17t113.5 19q4 -114 101 -114q51 0 75.5 36.5t24.5 86.5v178h-8 q-30 -49 -87.5 -71.5t-98.5 -22.5q-62 0 -104 16t-69 44t-42 66t-24 83q-10 43 -13.5 106t-5.5 130zM310 542q0 -97 3 -165.5t18 -105.5q24 -54 86 -54q55 0 81 43q25 40 25 88v7v215v79.5t-2 74.5q0 54 -25.5 91t-78.5 37q-35 2 -54 -13.5t-30 -38.5q-15 -28 -19 -94 t-4 -164z" />
<glyph unicode="h" horiz-adv-x="840" d="M86 0v1561h232v-593h9q32 45 88 76t116 31q64 0 108.5 -21.5t70 -59t36.5 -89t11 -109.5v-796h-234v735q0 114 -102 114q-47 0 -76 -30.5t-29 -89.5v-729h-230z" />
<glyph unicode="i" horiz-adv-x="437" d="M101 0v1063h234v-1063h-234zM101 1270v226h234v-226h-234z" />
<glyph unicode="j" horiz-adv-x="431" d="M-35 -205h35q62 0 81.5 35t19.5 116v1119h234v-1176q0 -148 -78.5 -230t-248.5 -82h-43v218zM101 1270v226h234v-226h-234z" />
<glyph unicode="k" horiz-adv-x="859" d="M88 0v1559h230v-878h11l223 382h271l-267 -414l293 -649h-266q-47 109 -92.5 218t-92.5 219q-19 -37 -38.5 -71.5t-41.5 -70.5v-295h-230z" />
<glyph unicode="l" horiz-adv-x="476" d="M90 281v1280h234v-1245q0 -62 18.5 -89t68.5 -27h26v-213h-43q-78 0 -134.5 14t-94.5 48.5t-56.5 91t-18.5 140.5z" />
<glyph unicode="m" horiz-adv-x="1283" d="M97 0v1065h232v-97l9 -2q33 45 80.5 77t108.5 32q82 0 131.5 -33t72.5 -90q45 56 104.5 89.5t123.5 33.5t108.5 -20.5t71.5 -57t39 -86t12 -107.5v-804h-236v735q0 56 -24.5 85t-67.5 29t-72 -29.5t-31 -82.5v-737h-234v735q0 56 -24.5 85t-67.5 29t-73.5 -33.5 t-30.5 -91.5v-724h-232z" />
<glyph unicode="n" horiz-adv-x="837" d="M82 0v1063h232v-95h8q33 45 86.5 76t114.5 31q64 0 108 -20.5t71 -58t39 -87t12 -107.5v-802h-232v735q0 114 -98 114q-49 0 -79 -33.5t-30 -91.5v-724h-232z" />
<glyph unicode="o" horiz-adv-x="821" d="M71 448v75q0 51 2.5 106t6.5 104t10.5 92t16.5 70q31 81 108 132.5t202 51.5q86 0 145.5 -22.5t98 -61t56.5 -90t23 -111.5q9 -62 10 -137.5t1 -137.5v-57q0 -49 -3.5 -98.5t-7.5 -96.5q-10 -89 -46 -145t-84 -86t-104.5 -40.5t-109.5 -10.5q-76 0 -130.5 20.5 t-92.5 54.5t-58.5 78.5t-28.5 93.5q-4 28 -7 63.5t-5.5 74t-2.5 78.5zM301 486q0 -58 1 -112t10 -86q10 -37 34 -61t69 -24q34 0 59 20t33 50q2 8 6 33t6 60.5t3 76.5t1 82q0 76 -2 146.5t-12 106.5q-4 24 -14 39q-25 47 -80 47q-52 0 -77 -39q-15 -26 -22.5 -55.5t-11 -68 t-3.5 -87v-111.5v-17z" />
<glyph unicode="p" horiz-adv-x="823" d="M74 -411v1476h227v-80l7 -4q30 53 76 74.5t106 21.5q43 0 85 -11.5t76.5 -42t59 -84t33.5 -137.5q5 -47 7 -118t2 -144q0 -95 -5.5 -192.5t-20.5 -160.5q-9 -39 -25 -74t-44 -63.5t-71 -45.5t-103 -17q-45 0 -91.5 16t-80.5 57h-6v-471h-232zM303 387q0 -36 1.5 -67.5 t9.5 -48.5q24 -60 92 -60q58 0 82 49q15 35 20 108t5 176q0 96 -4 163t-19 95q-18 50 -84 50q-51 0 -77 -36t-26 -92v-337z" />
<glyph unicode="q" horiz-adv-x="840" d="M71 486v45q0 76 3.5 144.5t7.5 124.5q8 84 34 136.5t61.5 83.5t76.5 43t84 12q62 0 106 -21.5t75 -74.5l6 4v80h230v-1476h-232v495h-10q-30 -49 -86.5 -73t-97.5 -24q-56 0 -94 12.5t-63.5 34.5t-41.5 50.5t-27 63.5q-19 60 -25.5 155t-6.5 185zM312 542q0 -97 3 -171 t18 -111q24 -51 86 -51q47 0 75.5 33t28.5 80q1 33 1 71v39v40q0 41 1 84v14v79.5t-2 72.5q0 56 -25.5 91.5t-78.5 35.5q-66 0 -84 -49q-15 -28 -19 -95t-4 -163z" />
<glyph unicode="r" horiz-adv-x="616" d="M107 0v1065h235v-119h4q41 82 97 106.5t133 24.5h21v-246q-16 2 -31.5 3t-29.5 1q-93 0 -143.5 -44t-50.5 -157v-634h-235z" />
<glyph unicode="s" horiz-adv-x="780" d="M60 290l230 34v-8q0 -52 25 -84q27 -35 77 -35q51 0 77 29.5t26 81.5q0 66 -24 93t-88 51q-71 26 -129.5 52.5t-97.5 63t-60.5 86.5t-21.5 120q0 129 82 217t244 88q168 0 244 -84t76 -225l-228 -30v12q0 49 -22 80q-25 34 -72 34q-56 0 -75.5 -32t-19.5 -64 q0 -43 20.5 -70t95.5 -53q80 -26 137 -53.5t93.5 -66.5t53.5 -91.5t17 -125.5q0 -70 -17 -127.5t-56.5 -101.5t-102 -69t-152.5 -25q-158 0 -243 77.5t-89 225.5z" />
<glyph unicode="t" horiz-adv-x="546" d="M28 882v183h105v269h224v-269h129v-183h-129v-553q0 -60 19.5 -87t79.5 -27h28v-215h-104q-73 0 -120 22.5t-76.5 59.5t-41 82t-11.5 90v628h-103z" />
<glyph unicode="u" horiz-adv-x="840" d="M84 262v803h234v-738q0 -62 25 -89t72 -27q43 0 76.5 33t33.5 91v730h230v-1065h-232v94q-2 0 -3 1.5t-7 1.5q-32 -48 -85.5 -77.5t-113.5 -29.5q-66 0 -110 20t-71.5 56.5t-38 87.5t-10.5 108z" />
<glyph unicode="v" horiz-adv-x="788" d="M10 1063h255q19 -107 38 -213t37 -214q13 -82 25.5 -161t28.5 -161h10l52 320l71 429h251l-251 -1063h-267q-62 269 -124 531.5t-126 531.5z" />
<glyph unicode="w" horiz-adv-x="1216" d="M21 1063h246l55 -382l52 -341h9l52 344l60 379h227l60 -377l61 -348h9l47 348l53 377h242l-220 -1063h-252l-53 275l-58 329h-9l-56 -323l-56 -281h-250z" />
<glyph unicode="x" horiz-adv-x="792" d="M10 0q62 135 128.5 270.5t128.5 271.5l-246 521h260l117 -314h4q31 79 57.5 157.5t57.5 156.5h255l-245 -521q64 -136 127.5 -271.5t125.5 -270.5h-255l-125 333h-6l-129 -333h-255z" />
<glyph unicode="y" horiz-adv-x="771" d="M8 1063h248l66 -394l58 -310h10l57 310l78 394h238l-307 -1227q-31 -118 -96 -184.5t-190 -66.5h-82v204h47q48 0 78 31.5t52 121.5l14 66z" />
<glyph unicode="z" horiz-adv-x="704" d="M56 0v211l334 645h-308v207h570v-197l-340 -649h340v-217h-596z" />
<glyph unicode="{" horiz-adv-x="526" d="M33 574v142q69 8 100 69.5t31 162.5v304q0 114 61 180t151 66h121v-160h-45q-37 0 -59.5 -40t-22.5 -102v-280q0 -115 -42 -179t-90 -85v-12q46 -16 89 -82t43 -182v-300q0 -64 22.5 -100t59.5 -36h45v-162h-121q-90 0 -151 67t-61 181v316q0 105 -31.5 164.5t-99.5 67.5 z" />
<glyph unicode="|" horiz-adv-x="505" d="M164 -349v1904h182v-1904h-182z" />
<glyph unicode="}" horiz-adv-x="526" d="M35 -60h45q37 0 59.5 35t22.5 101v300q0 116 43 182t88 82v12q-47 21 -89 85.5t-42 178.5v280q0 62 -22.5 102t-59.5 40h-45v160h123q90 0 150 -66.5t60 -179.5v-304q0 -101 31 -162.5t100 -69.5v-142q-70 -8 -100.5 -67.5t-30.5 -164.5v-316q0 -114 -60 -181t-150 -67 h-123v162z" />
<glyph unicode="~" d="M17 533q45 97 106.5 154t151.5 57q47 0 88 -17t79 -36.5t72 -36t69 -16.5q39 0 67.5 24t69.5 75l127 -74q-49 -103 -109.5 -158.5t-135.5 -55.5q-43 0 -83.5 16.5t-79.5 37t-78 36t-75 15.5q-41 0 -72 -20.5t-76 -77.5z" />
<glyph unicode="&#xa2;" d="M105 523q0 51 2 106t7 104t11 92t17 70q28 69 85 118.5t153 61.5v220h115v-218q135 -12 200.5 -99.5t65.5 -228.5q-55 -7 -114.5 -13.5t-115.5 -15.5q0 76 -24.5 110t-65.5 34q-64 0 -88 -64q-7 -21 -12.5 -86t-5.5 -150v-78q0 -62 1.5 -121t12.5 -90q10 -35 31.5 -55 t60.5 -20q90 0 90 138q58 -10 116.5 -17t115.5 -18q-2 -135 -70.5 -216t-197.5 -95v-244h-115v244q-119 10 -177.5 71.5t-77.5 136.5q-6 26 -11 64.5t-6 83t-2 90.5t-1 85z" />
<glyph unicode="&#xa3;" d="M64 0v195q30 52 50.5 96t35 91.5t24 102.5t15.5 128h-123v181h110q-10 53 -24 96t-27.5 85t-23 86.5t-9.5 97.5q0 80 26 144.5t72 111t110.5 71t142.5 24.5q170 0 266.5 -93.5t96.5 -259.5l-225 -51q0 82 -34 131t-102 49q-49 0 -85 -34.5t-36 -92.5q0 -39 10 -77.5 t24 -81.5t28 -93.5t25 -112.5h209v-181h-203q0 -129 -24.5 -220.5t-68.5 -181.5h450v-211h-710z" />
<glyph unicode="&#xa5;" d="M37 1496h238l84 -298q17 -76 35.5 -149t38.5 -146h10q19 76 36.5 149t37.5 148q19 76 38 149t40 147h238l-246 -759h178v-124h-213q-2 -10 -3 -23.5t-1 -23.5v-63h217v-127h-217v-376h-226v376h-211v127h211v63q0 10 -1 23t-3 24h-207v124h170z" />
<glyph unicode="&#xa8;" horiz-adv-x="760" d="M105 1221v226h203v-226h-203zM458 1221v226h202v-226h-202z" />
<glyph unicode="&#xa9;" horiz-adv-x="1510" d="M92 733q0 164 42 301.5t125 238.5t205.5 158t282.5 57q157 0 278.5 -57t205 -158t126.5 -238.5t43 -301.5q0 -162 -43 -298t-126.5 -237t-205 -158t-278.5 -57q-162 0 -283.5 57t-204.5 158t-125 237.5t-42 297.5zM245 733q0 -127 33.5 -237.5t97 -193.5t157 -131 t214.5 -48q125 0 219 48t156 131t93.5 194t31.5 237q0 127 -32.5 240t-95.5 197t-156.5 132t-215.5 48q-127 0 -222 -48t-157 -132t-92.5 -197t-30.5 -240zM505 507v424q0 117 69.5 180t176.5 63q103 0 173.5 -64.5t70.5 -167.5l-143 -37q-3 56 -28.5 89.5t-72.5 33.5 q-50 0 -73.5 -28t-23.5 -64v-439q0 -37 27 -63t68 -26q92 0 98 123l148 -30q-4 -117 -69.5 -178t-174.5 -61q-103 0 -174.5 61.5t-71.5 183.5z" />
<glyph unicode="&#xab;" horiz-adv-x="1046" d="M97 517l241 414h221l-237 -414l237 -418h-221zM490 517l241 414h221l-236 -414l236 -418h-221z" />
<glyph unicode="&#xad;" horiz-adv-x="784" d="M105 503v203h599v-203h-599z" />
<glyph unicode="&#xae;" horiz-adv-x="1044" d="M88 1054q0 107 28 198.5t83 158t135.5 104.5t188.5 38q103 0 182.5 -38t134.5 -104.5t83.5 -158t28.5 -198.5q0 -105 -28.5 -195.5t-83.5 -157.5t-134.5 -104.5t-182.5 -37.5q-107 0 -188 37.5t-136 104.5t-83 157t-28 196zM197 1058q0 -86 21.5 -158.5t62.5 -124 t101.5 -80t140.5 -28.5q84 0 144 30t98.5 83t57 124.5t18.5 153.5t-20.5 154t-60.5 125.5t-99.5 84.5t-137.5 31q-84 0 -144.5 -31t-101.5 -84.5t-60.5 -126t-19.5 -153.5zM368 755v587h159q164 0 163 -183q0 -47 -13.5 -88t-56.5 -67l92 -249h-123l-78 228h-31v-228h-112z M480 1084h41q32 0 45 21.5t13 53.5q0 39 -14.5 60.5t-51.5 21.5h-33v-157z" />
<glyph unicode="&#xb4;" horiz-adv-x="796" d="M284 1235l182 380l192 -86l-250 -361z" />
<glyph unicode="&#xb8;" horiz-adv-x="926" d="M215 -404l37 96q43 -19 72 -24.5t54 -5.5q30 0 53 19.5t23 49.5q0 74 -97 72l-54 39l65 216l106 -2l-48 -153q54 -6 88 -24.5t54.5 -44t28 -55t7.5 -52.5q0 -24 -9.5 -54t-32 -55.5t-60.5 -44t-91 -18.5q-17 0 -76.5 5t-119.5 36z" />
<glyph unicode="&#xbb;" horiz-adv-x="1046" d="M99 99l236 418l-236 414h223l240 -414l-240 -418h-223zM492 99l239 418l-239 414h224l238 -414l-238 -418h-224z" />
<glyph unicode="&#xc0;" horiz-adv-x="907" d="M24 0q76 376 151 748t149 748h259l303 -1496h-237l-58 312h-275q-15 -78 -29 -156t-27 -156h-236zM76 1757l137 161l331 -260l-84 -114zM351 529h203l-96 622h-11q-21 -155 -45 -309t-51 -313z" />
<glyph unicode="&#xc2;" horiz-adv-x="907" d="M24 0q76 376 151 748t149 748h259l303 -1496h-237l-58 312h-275q-15 -78 -29 -156t-27 -156h-236zM107 1639l285 284h135l271 -282l-92 -84l-252 165l-254 -165zM351 529h203l-96 622h-11q-21 -155 -45 -309t-51 -313z" />
<glyph unicode="&#xc6;" horiz-adv-x="1360" d="M13 0l479 1496h817v-218h-431v-408h376v-221h-376v-423h431v-226h-662v357h-284l-109 -357h-241zM426 579h221v696h-11z" />
<glyph unicode="&#xc7;" horiz-adv-x="872" d="M99 355v746q0 84 18 158.5t61.5 130t113 88t170.5 32.5q92 0 159 -26t111 -72.5t64.5 -109.5t20.5 -139l-226 -57q0 82 -31 133t-100 51q-41 0 -66.5 -17t-39.5 -44t-19.5 -58.5t-5.5 -58.5v-759q0 -21 4.5 -47.5t18 -49t38.5 -37t64 -14.5q129 0 131 185q58 -11 116 -19 l116 -16q-4 -158 -80.5 -254.5t-227.5 -110.5l-25 -87q54 -6 88.5 -24.5t54.5 -44t28 -55t8 -52.5q0 -24 -10 -54t-33 -55.5t-60 -44t-92 -18.5q-16 0 -75.5 5t-119.5 36l37 96q43 -19 72 -24.5t55 -5.5q30 0 52 19.5t22 49.5q0 74 -96 72l-54 39l43 148 q-154 12 -229.5 104.5t-75.5 260.5z" />
<glyph unicode="&#xc8;" horiz-adv-x="816" d="M109 1757l139 161l331 -260l-84 -114zM111 0v1496h665v-218h-432v-408h376v-221h-376v-430h432v-219h-665z" />
<glyph unicode="&#xc9;" horiz-adv-x="816" d="M111 0v1496h665v-218h-432v-408h376v-221h-376v-430h432v-219h-665zM273 1656l331 260l138 -161l-385 -211z" />
<glyph unicode="&#xca;" horiz-adv-x="816" d="M94 1639l284 284h135l272 -282l-93 -84l-251 165l-254 -165zM111 0v1496h665v-218h-432v-408h376v-221h-376v-430h432v-219h-665z" />
<glyph unicode="&#xcb;" horiz-adv-x="816" d="M111 0v1496h665v-218h-432v-408h376v-221h-376v-430h432v-219h-665zM166 1592v228h202v-228h-202zM519 1592v228h201v-228h-201z" />
<glyph unicode="&#xce;" horiz-adv-x="466" d="M-109 1639l283 284h136l271 -282l-93 -84l-252 165l-253 -165zM117 0v1496h234v-1496h-234z" />
<glyph unicode="&#xcf;" horiz-adv-x="466" d="M-43 1592v228h203v-228h-203zM117 0v1496h234v-1496h-234zM310 1592v228h201v-228h-201z" />
<glyph unicode="&#xd4;" horiz-adv-x="924" d="M99 359v753q0 88 20.5 161t63.5 125.5t112.5 82t166.5 29.5q103 0 173.5 -27.5t112.5 -79t59.5 -124.5t17.5 -165v-731q0 -195 -88 -295.5t-277 -100.5t-275 95.5t-86 276.5zM117 1639l283 284h136l270 -282l-92 -84l-252 165l-253 -165zM331 355q0 -58 29.5 -104 t99.5 -46q71 0 101 48t30 117v761q0 62 -26.5 112t-102.5 50q-41 0 -66.5 -18.5t-39.5 -45.5t-19.5 -60.5t-5.5 -60.5v-753z" />
<glyph unicode="&#xd9;" horiz-adv-x="930" d="M103 359v1135h232v-1139q0 -58 29.5 -104t99.5 -46q72 0 101.5 48t29.5 117v1124h236v-1111q0 -195 -87.5 -295.5t-277.5 -100.5q-189 0 -276 95.5t-87 276.5zM135 1757l138 161l331 -260l-83 -114z" />
<glyph unicode="&#xdb;" horiz-adv-x="930" d="M103 359v1135h232v-1139q0 -58 29.5 -104t99.5 -46q72 0 101.5 48t29.5 117v1124h236v-1111q0 -195 -87.5 -295.5t-277.5 -100.5q-189 0 -276 95.5t-87 276.5zM119 1639l283 284h136l270 -282l-92 -84l-252 165l-253 -165z" />
<glyph unicode="&#xdc;" horiz-adv-x="930" d="M103 359v1135h232v-1139q0 -58 29.5 -104t99.5 -46q72 0 101.5 48t29.5 117v1124h236v-1111q0 -195 -87.5 -295.5t-277.5 -100.5q-189 0 -276 95.5t-87 276.5zM189 1592v228h203v-228h-203zM542 1592v228h202v-228h-202z" />
<glyph unicode="&#xe0;" horiz-adv-x="827" d="M60 310q0 62 16 122t53 106.5t97 75.5t150 29h135v116q0 47 -22.5 74t-84.5 27q-32 0 -64 -21.5t-43 -77.5l-211 64q28 119 113 185.5t220 66.5q162 0 245 -73t83 -245v-759h-236v82l-6 2q-35 -49 -86 -73t-109 -24q-72 0 -120 26t-77 70t-41 102t-12 125zM154 1529 l192 86l181 -380l-123 -67zM288 322q0 -55 29 -85t79 -30q56 0 85.5 35t29.5 96v130h-92q-49 0 -90 -32t-41 -114z" />
<glyph unicode="&#xe2;" horiz-adv-x="827" d="M60 310q0 62 16 122t53 106.5t97 75.5t150 29h135v116q0 47 -22.5 74t-84.5 27q-32 0 -64 -21.5t-43 -77.5l-211 64q28 119 113 185.5t220 66.5q162 0 245 -73t83 -245v-759h-236v82l-6 2q-35 -49 -86 -73t-109 -24q-72 0 -120 26t-77 70t-41 102t-12 125zM84 1227 l284 322h135l271 -319l-93 -83l-251 201l-254 -201zM288 322q0 -55 29 -85t79 -30q56 0 85.5 35t29.5 96v130h-92q-49 0 -90 -32t-41 -114z" />
<glyph unicode="&#xe6;" horiz-adv-x="1229" d="M54 308q0 62 17 121t55 106.5t98 75t146 27.5h131v121q0 47 -24.5 74t-80.5 27q-37 0 -66 -20.5t-42 -76.5q-54 17 -105.5 32.5t-102.5 29.5q30 123 118 187.5t217 64.5q80 0 131 -20.5t82 -56.5q80 79 217 79q155 0 242 -88t87 -249v-262h-437q0 -56 1.5 -110t8.5 -91 q6 -36 30.5 -56t65.5 -20q45 0 70 31t31 82q56 -10 114 -21l116 -22q-15 -129 -95 -207.5t-242 -78.5q-97 0 -165 33.5t-102 93.5q-32 -40 -65.5 -65t-65 -39t-60 -18.5t-52.5 -4.5q-82 0 -134.5 26t-82.5 69t-43 102t-13 124zM281 322q0 -53 29.5 -84t83.5 -31q51 0 79 36 t28 95v133h-90q-50 0 -90 -33.5t-40 -115.5zM737 640h203v57q0 47 -7 91q-4 30 -29.5 51t-62.5 21q-43 0 -68.5 -23.5t-28.5 -66.5z" />
<glyph unicode="&#xe7;" horiz-adv-x="769" d="M71 523q0 51 2.5 106t6.5 104t10.5 92t16.5 70q33 81 107 132.5t199 51.5q161 0 237.5 -88t76.5 -242q-56 -7 -115.5 -13.5t-114.5 -15.5q0 76 -25 110t-66 34q-64 0 -88 -64q-6 -21 -11.5 -86t-5.5 -150v-78q0 -62 1 -121t12 -90q10 -35 32 -55t60 -20q91 0 91 138 q57 -10 115.5 -17t116.5 -18q-2 -139 -73 -220t-207 -93l-26 -87q54 -6 88.5 -24.5t55 -44t28 -55t7.5 -52.5q0 -24 -9.5 -54t-32 -55.5t-60.5 -44t-92 -18.5q-16 0 -75.5 5t-119.5 36l37 96q43 -19 72 -24.5t54 -5.5q30 0 53 19.5t23 49.5q0 74 -97 72l-54 39l43 150 q-116 10 -175.5 71.5t-78.5 136.5q-6 26 -10 64.5t-5 83t-2.5 90.5t-1.5 85z" />
<glyph unicode="&#xe8;" horiz-adv-x="808" d="M71 525q0 103 7.5 206.5t28.5 158.5q31 86 106 137.5t200 51.5q159 0 240.5 -88t81.5 -249v-264h-434q0 -60 1 -116t10 -87q21 -73 94 -72q86 0 97 121l232 -36q-8 -142 -92 -221.5t-239 -79.5q-75 0 -128.5 18.5t-91.5 48.5t-59.5 69t-32.5 77q-6 26 -10 64.5t-6 83 t-3.5 90.5t-1.5 87zM154 1529l192 86l181 -380l-123 -67zM303 636h198v91q0 51 -18.5 92t-76.5 41q-62 0 -86 -62q-8 -19 -11 -61t-6 -101z" />
<glyph unicode="&#xe9;" horiz-adv-x="808" d="M71 525q0 103 7.5 206.5t28.5 158.5q31 86 106 137.5t200 51.5q159 0 240.5 -88t81.5 -249v-264h-434q0 -60 1 -116t10 -87q21 -73 94 -72q86 0 97 121l232 -36q-8 -142 -92 -221.5t-239 -79.5q-75 0 -128.5 18.5t-91.5 48.5t-59.5 69t-32.5 77q-6 26 -10 64.5t-6 83 t-3.5 90.5t-1.5 87zM303 636h198v91q0 51 -18.5 92t-76.5 41q-62 0 -86 -62q-8 -19 -11 -61t-6 -101zM303 1235l183 380l191 -86l-249 -361z" />
<glyph unicode="&#xea;" horiz-adv-x="808" d="M62 1227l284 322h136l271 -319l-93 -83l-252 201l-254 -201zM71 525q0 103 7.5 206.5t28.5 158.5q31 86 106 137.5t200 51.5q159 0 240.5 -88t81.5 -249v-264h-434q0 -60 1 -116t10 -87q21 -73 94 -72q86 0 97 121l232 -36q-8 -142 -92 -221.5t-239 -79.5 q-75 0 -128.5 18.5t-91.5 48.5t-59.5 69t-32.5 77q-6 26 -10 64.5t-6 83t-3.5 90.5t-1.5 87zM303 636h198v91q0 51 -18.5 92t-76.5 41q-62 0 -86 -62q-8 -19 -11 -61t-6 -101z" />
<glyph unicode="&#xeb;" horiz-adv-x="808" d="M71 525q0 103 7.5 206.5t28.5 158.5q31 86 106 137.5t200 51.5q159 0 240.5 -88t81.5 -249v-264h-434q0 -60 1 -116t10 -87q21 -73 94 -72q86 0 97 121l232 -36q-8 -142 -92 -221.5t-239 -79.5q-75 0 -128.5 18.5t-91.5 48.5t-59.5 69t-32.5 77q-6 26 -10 64.5t-6 83 t-3.5 90.5t-1.5 87zM125 1221v226h202v-226h-202zM303 636h198v91q0 51 -18.5 92t-76.5 41q-62 0 -86 -62q-8 -19 -11 -61t-6 -101zM478 1221v226h201v-226h-201z" />
<glyph unicode="&#xee;" horiz-adv-x="560" d="M-64 1227l283 322h136l271 -319l-93 -83l-252 201l-253 -201zM162 0v1063h234v-1063h-234z" />
<glyph unicode="&#xef;" horiz-adv-x="511" d="M-21 1221v226h202v-226h-202zM138 0v1063h234v-1063h-234zM331 1221v226h202v-226h-202z" />
<glyph unicode="&#xf4;" horiz-adv-x="821" d="M64 1227l285 322h135l271 -319l-92 -83l-252 201l-253 -201zM71 448v75q0 51 2.5 106t6.5 104t10.5 92t16.5 70q31 81 108 132.5t202 51.5q86 0 145.5 -22.5t98 -61t56.5 -90t23 -111.5q9 -62 10 -137.5t1 -137.5v-57q0 -49 -3.5 -98.5t-7.5 -96.5q-10 -89 -46 -145 t-84 -86t-104.5 -40.5t-109.5 -10.5q-76 0 -130.5 20.5t-92.5 54.5t-58.5 78.5t-28.5 93.5q-4 28 -7 63.5t-5.5 74t-2.5 78.5zM301 486q0 -58 1 -112t10 -86q10 -37 34 -61t69 -24q34 0 59 20t33 50q2 8 6 33t6 60.5t3 76.5t1 82q0 76 -2 146.5t-12 106.5q-4 24 -14 39 q-25 47 -80 47q-52 0 -77 -39q-15 -26 -22.5 -55.5t-11 -68t-3.5 -87v-111.5v-17z" />
<glyph unicode="&#xf9;" horiz-adv-x="840" d="M84 262v803h234v-738q0 -62 25 -89t72 -27q43 0 76.5 33t33.5 91v730h230v-1065h-232v94q-2 0 -3 1.5t-7 1.5q-32 -48 -85.5 -77.5t-113.5 -29.5q-66 0 -110 20t-71.5 56.5t-38 87.5t-10.5 108zM160 1529l191 86l180 -380l-123 -67z" />
<glyph unicode="&#xfb;" horiz-adv-x="840" d="M71 1227l284 322h135l271 -319l-92 -83l-252 201l-253 -201zM84 262v803h234v-738q0 -62 25 -89t72 -27q43 0 76.5 33t33.5 91v730h230v-1065h-232v94q-2 0 -3 1.5t-7 1.5q-32 -48 -85.5 -77.5t-113.5 -29.5q-66 0 -110 20t-71.5 56.5t-38 87.5t-10.5 108z" />
<glyph unicode="&#xfc;" horiz-adv-x="840" d="M84 262v803h234v-738q0 -62 25 -89t72 -27q43 0 76.5 33t33.5 91v730h230v-1065h-232v94q-2 0 -3 1.5t-7 1.5q-32 -48 -85.5 -77.5t-113.5 -29.5q-66 0 -110 20t-71.5 56.5t-38 87.5t-10.5 108zM140 1221v226h202v-226h-202zM492 1221v226h203v-226h-203z" />
<glyph unicode="&#xff;" horiz-adv-x="771" d="M8 1063h248l66 -394l58 -310h10l57 310l78 394h238l-307 -1227q-31 -118 -96 -184.5t-190 -66.5h-82v204h47q48 0 78 31.5t52 121.5l14 66zM101 1221v226h202v-226h-202zM454 1221v226h202v-226h-202z" />
<glyph unicode="&#x152;" horiz-adv-x="1260" d="M94 359v753q0 88 22 161t66 125.5t112.5 82t163.5 29.5q66 0 123 -14h636v-218h-443v-408h387v-221h-387v-425h443v-224h-638q-56 -13 -121 -13q-179 0 -271.5 95.5t-92.5 276.5zM327 361q0 -58 29 -105t100 -47q36 0 62 14.5t36 49.5v950q-10 33 -34.5 48t-61.5 15 q-41 0 -67 -18t-39.5 -45t-19 -59.5t-5.5 -59.5v-743z" />
<glyph unicode="&#x153;" horiz-adv-x="1260" d="M71 523q0 51 2.5 106t6.5 104t10.5 92t16.5 70q33 81 108 132.5t200 51.5q77 0 137.5 -23.5t92.5 -64.5q77 88 228 88q161 0 243 -88t82 -249v-264h-435q0 -56 1 -115.5t12 -89.5q19 -71 94 -70q46 0 68.5 31t29.5 82q56 -10 113.5 -20t116.5 -21q-15 -129 -93.5 -208.5 t-240.5 -79.5q-78 0 -132.5 20.5t-93.5 63.5q-49 -51 -114.5 -68.5t-127.5 -17.5q-72 0 -123 18t-88 47.5t-59.5 68.5t-33.5 81q-6 26 -10 66t-6 83t-3.5 89t-1.5 85zM301 486q0 -58 1 -112t10 -86q10 -37 34 -61t69 -24q34 0 59 20t33 50q2 8 6 33t6 60.5t3 76.5t1 82 q0 95 -2 165.5t-26 126.5q-25 47 -80 47q-52 0 -77 -39q-26 -26 -30.5 -105.5t-6.5 -216.5v-17zM765 636h199v123q-4 41 -25 71t-71 30q-30 0 -51 -13.5t-37 -48.5q-8 -19 -10 -61t-5 -101z" />
<glyph unicode="&#x178;" horiz-adv-x="848" d="M17 1496h245l93 -324l68 -258h10l70 264l84 318h246l-291 -876v-620h-232v620zM150 1592v228h203v-228h-203zM503 1592v228h203v-228h-203z" />
<glyph unicode="&#x2c6;" horiz-adv-x="803" d="M76 1227l283 322h136l270 -319l-92 -83l-252 201l-253 -201z" />
<glyph unicode="&#x2da;" horiz-adv-x="827" d="M238 1346q0 86 59.5 146.5t147.5 60.5t146 -60.5t58 -146.5t-58 -146.5t-146 -60.5t-147.5 60.5t-59.5 146.5zM359 1344q0 -37 24.5 -60.5t61.5 -23.5q35 0 59.5 23.5t24.5 60.5q0 35 -24.5 59.5t-59.5 24.5q-37 0 -61.5 -24.5t-24.5 -59.5z" />
<glyph unicode="&#x2dc;" horiz-adv-x="778" d="M49 1288q39 86 99.5 134.5t120.5 48.5q32 0 62 -12t59 -26.5t56.5 -27t52.5 -12.5q30 0 56 17.5t62 64.5q29 -17 55.5 -33t56.5 -34q-48 -99 -101.5 -143t-108.5 -44q-37 0 -68.5 12t-60.5 27t-55.5 27t-53.5 12q-26 0 -56 -19.5t-61 -62.5z" />
<glyph unicode="&#x401;" horiz-adv-x="816" d="M111 0v1496h665v-218h-432v-408h376v-221h-376v-430h432v-219h-665zM170 1592v228h202v-228h-202zM523 1592v228h201v-228h-201z" />
<glyph unicode="&#x402;" horiz-adv-x="1061" d="M21 1280v216h783v-216h-330v-349h6q51 39 110 57t116 18q77 0 126.5 -26t79.5 -66.5t42 -92t12 -103.5v-402q0 -187 -69.5 -288.5t-247.5 -101.5h-47v195q69 0 99 44t30 123v366q0 58 -23 98t-93 40q-28 0 -67 -16.5t-74 -51.5v-724h-234v1280h-219z" />
<glyph unicode="&#x403;" horiz-adv-x="808" d="M111 0v1496h648v-218h-415v-1278h-233zM248 1656l331 260l137 -161l-385 -211z" />
<glyph unicode="&#x404;" horiz-adv-x="864" d="M99 357v744q0 84 19.5 159.5t63.5 130t112.5 87t167.5 32.5q90 0 157 -24.5t110 -69t65.5 -105.5t22.5 -135l-226 -45q-2 71 -35 115t-96 44q-39 0 -64.5 -17t-40.5 -43t-20.5 -57.5t-5.5 -58.5v-238h299v-227h-299v-296q0 -24 4.5 -50t18 -48.5t38.5 -36t64 -13.5 q125 0 131 165l232 -37q-9 -162 -98 -254t-257 -92q-187 0 -275 93.5t-88 276.5z" />
<glyph unicode="&#x405;" horiz-adv-x="883" d="M76 351l230 45q4 -84 31.5 -136.5t109.5 -52.5q48 0 75.5 18t42 48t17.5 68.5t3 81.5q0 54 -6.5 90.5t-24.5 62.5t-52 45t-87 44q-107 45 -173 92t-100.5 99.5t-45 112t-10.5 130.5q0 91 21.5 166t66.5 129.5t115 85t167 30.5q105 0 174 -33.5t109.5 -85t58 -114 t17.5 -120.5l-230 -53q0 81 -28 132.5t-110 51.5q-43 0 -67.5 -17t-40 -45t-19.5 -60.5t-4 -64.5q0 -38 4 -67.5t24.5 -55.5t61.5 -51.5t113 -53.5q98 -39 157 -82.5t89.5 -97t40 -118.5t9.5 -149q0 -100 -18.5 -181t-61.5 -138.5t-115 -88.5t-177 -31q-97 0 -166.5 28 t-114.5 77.5t-65.5 116t-20.5 142.5z" />
<glyph unicode="&#x406;" horiz-adv-x="466" d="M117 0v1496h234v-1496h-234z" />
<glyph unicode="&#x407;" horiz-adv-x="466" d="M-45 1606v226h203v-226h-203zM117 0v1496h234v-1496h-234zM308 1606v226h201v-226h-201z" />
<glyph unicode="&#x408;" horiz-adv-x="756" d="M-43 158l172 132q24 -37 63.5 -61t74.5 -24q71 0 102 48t31 110v1133h232v-1124q0 -185 -92.5 -285t-270.5 -100q-97 0 -178 42t-134 129z" />
<glyph unicode="&#x409;" horiz-adv-x="1365" d="M2 133q56 33 91.5 71.5t57 94.5t29 137t7.5 200v860h634v-573h100q116 0 192.5 -31.5t122.5 -90.5t65 -143t19 -187q0 -234 -96.5 -352.5t-298.5 -118.5h-336v1278h-195v-577q0 -180 -13 -303t-47.5 -207t-92.5 -136.5t-151 -93.5zM821 219h88q107 0 146 68t39 179 q0 123 -41.5 179t-147.5 56h-84v-482z" />
<glyph unicode="&#x40a;" horiz-adv-x="1377" d="M111 0v1496h231v-597h260v597h233v-597h98q117 0 193 -29t122.5 -85t66 -137.5t19.5 -187.5q0 -234 -97.5 -347t-300.5 -113h-334v677h-260v-677h-231zM835 219h86q12 0 29 5q97 8 127.5 70.5t30.5 161.5q0 123 -42 172t-150 49h-81v-458z" />
<glyph unicode="&#x40b;" horiz-adv-x="1059" d="M19 1280v216h779v-216h-324v-349h6q53 39 111 57t115 18q135 0 197.5 -78.5t62.5 -209.5v-718h-235v656q0 62 -26 99t-90 37q-30 0 -70 -17.5t-71 -50.5v-724h-234v1280h-221z" />
<glyph unicode="&#x40c;" horiz-adv-x="943" d="M111 0v1496h231v-632h48q77 0 126.5 45t74.5 162q4 19 18.5 80.5t28.5 131t26.5 131t16.5 80.5h218q-24 -114 -48 -224.5t-47 -222.5q-24 -109 -72 -177t-110 -94v-4q82 -31 127 -97t68 -176q28 -127 53 -250.5t53 -248.5h-233q-21 109 -42.5 219t-45.5 220 q-24 121 -72 168t-126 47h-62v-654h-231zM329 1656l331 260l138 -161l-385 -211z" />
<glyph unicode="&#x40e;" horiz-adv-x="835" d="M13 1494h225l185 -774h12l178 776h218l-302 -1156q-30 -123 -68 -193.5t-79.5 -107.5t-89 -47.5t-99.5 -12.5h-84v187h55q53 0 86.5 35t57.5 111q2 2 4 12.5t5 22.5t6.5 22.5t5.5 15.5zM119 1820h169q2 -24 14 -49t30.5 -46.5t42 -35.5t53.5 -14q33 0 57 14t41.5 35.5 t27.5 46.5t10 49h169q-4 -46 -23.5 -99t-57 -97t-92.5 -73t-132 -29q-84 0 -142 29t-95 73t-53.5 97t-18.5 99z" />
<glyph unicode="&#x40f;" horiz-adv-x="932" d="M111 0v1496h233v-1270h247v1270h232v-1496h-257v-286h-194v286h-261z" />
<glyph unicode="&#x410;" horiz-adv-x="907" d="M24 0q76 376 151 748t149 748h259l303 -1496h-237l-58 312h-275q-15 -78 -29 -156t-27 -156h-236zM351 529h203l-96 622h-11q-21 -155 -45 -309t-51 -313z" />
<glyph unicode="&#x411;" horiz-adv-x="885" d="M109 0v1496h654v-218h-423v-357h99q116 0 192.5 -31.5t122.5 -89.5t65.5 -142t19.5 -190q0 -234 -97 -351t-299 -117h-334zM340 219h88q17 0 30 7q94 8 125.5 73.5t31.5 164.5q0 123 -42 180t-150 57h-83v-482z" />
<glyph unicode="&#x412;" horiz-adv-x="924" d="M111 0v1496h328q197 0 286.5 -104t89.5 -302q0 -103 -35.5 -180t-123.5 -116v-12q99 -32 135 -122t36 -206q0 -235 -99.5 -344.5t-306.5 -109.5h-310zM344 217h93q55 0 88.5 20.5t51.5 55t24 82t6 99.5q0 105 -39 156t-135 51h-89v-464zM344 892h75q90 0 132 49.5 t42 144.5q0 103 -41 148.5t-135 45.5h-73v-388z" />
<glyph unicode="&#x413;" horiz-adv-x="808" d="M111 0v1496h648v-218h-415v-1278h-233z" />
<glyph unicode="&#x414;" horiz-adv-x="1042" d="M17 193l88 20q60 64 82 149t26 225l25 909h669v-1285h95v-495h-196v284h-593v-284h-196v477zM355 211h322v1071h-238l-18 -693q-4 -129 -16.5 -222.5t-49.5 -155.5z" />
<glyph unicode="&#x415;" horiz-adv-x="816" d="M111 0v1496h665v-218h-432v-408h376v-221h-376v-430h432v-219h-665z" />
<glyph unicode="&#x416;" horiz-adv-x="1461" d="M43 0l103 499q24 109 69 176t127 97v4q-62 26 -110.5 94t-69.5 177q-24 111 -48 222.5t-48 224.5h215l93 -423q12 -60 34 -100t48 -63.5t55 -33.5t57 -10h47v632h232v-632h39q74 0 125.5 43t76.5 164q4 21 18 81.5t29.5 130t28 130t16.5 81.5h215q-21 -114 -45.5 -224.5 t-48.5 -222.5q-24 -109 -71.5 -177t-109.5 -94l-2 -2q82 -31 128.5 -98t69.5 -177l104 -499h-230l-89 439q-24 121 -73 168t-125 47h-56v-654h-232v654h-56q-87 0 -130.5 -49t-67.5 -166q-21 -109 -42.5 -219.5t-45.5 -219.5h-230z" />
<glyph unicode="&#x417;" horiz-adv-x="868" d="M58 1155q10 168 108.5 261.5t256.5 93.5q359 0 359 -400q0 -37 -4 -84t-17.5 -95.5t-38.5 -89.5t-66 -63v-6q39 -19 65 -55t40.5 -80t21.5 -94.5t7 -103.5q0 -234 -94 -343t-277 -109q-166 0 -262.5 92.5t-96.5 264.5l228 46q2 -99 36.5 -139t96.5 -40t95.5 55.5 t33.5 178.5q0 230 -131 230h-90v198h94q66 0 97.5 61t31.5 167q0 89 -36 137t-101 48q-70 0 -100.5 -52t-33.5 -128z" />
<glyph unicode="&#x418;" horiz-adv-x="977" d="M103 0v1496h226v-948h9l311 948h227v-1496h-229v938h-7l-313 -938h-224z" />
<glyph unicode="&#x419;" horiz-adv-x="977" d="M103 0v1496h226v-948h9l311 948h227v-1496h-229v938h-7l-313 -938h-224zM191 1836h170q2 -24 14 -48.5t30 -46t42 -35t54 -13.5q32 0 57 13.5t42 35t26.5 46t9.5 48.5h170q-4 -45 -23.5 -97.5t-57 -96.5t-92 -73.5t-132.5 -29.5q-84 0 -142 29.5t-94.5 73.5t-54 96.5 t-19.5 97.5z" />
<glyph unicode="&#x41a;" horiz-adv-x="943" d="M111 0v1496h231v-632h48q77 0 126.5 45t74.5 162q4 19 18.5 80.5t28.5 131t26.5 131t16.5 80.5h218q-24 -114 -48 -224.5t-47 -222.5q-24 -109 -72 -177t-110 -94v-4q82 -31 127 -97t68 -176q28 -127 53 -250.5t53 -248.5h-233q-21 109 -42.5 219t-45.5 220 q-24 121 -72 168t-126 47h-62v-654h-231z" />
<glyph unicode="&#x41b;" horiz-adv-x="973" d="M10 133q56 33 92 71.5t57.5 94.5t28.5 137t7 200v860h663v-1496h-230v1278h-226v-577q0 -180 -13 -303t-47 -207t-92.5 -136.5t-150.5 -93.5z" />
<glyph unicode="&#x41c;" horiz-adv-x="1231" d="M105 0v1496h224l163 -425l119 -324h11l120 332l161 417h224v-1496h-232v862h-9l-94 -267l-106 -268h-140l-107 277l-93 262h-11v-866h-230z" />
<glyph unicode="&#x41d;" horiz-adv-x="952" d="M111 0v1496h231v-626h269v626h230v-1496h-230v654h-269v-654h-231z" />
<glyph unicode="&#x41e;" horiz-adv-x="924" d="M99 359v753q0 88 20.5 161t63.5 125.5t112.5 82t166.5 29.5q103 0 173.5 -27.5t112.5 -79t59.5 -124.5t17.5 -165v-731q0 -195 -88 -295.5t-277 -100.5t-275 95.5t-86 276.5zM331 355q0 -58 29.5 -104t99.5 -46q71 0 101 48t30 117v761q0 62 -26.5 112t-102.5 50 q-41 0 -66.5 -18.5t-39.5 -45.5t-19.5 -60.5t-5.5 -60.5v-753z" />
<glyph unicode="&#x41f;" horiz-adv-x="924" d="M111 0v1496h702v-1496h-232v1273h-237v-1273h-233z" />
<glyph unicode="&#x420;" horiz-adv-x="885" d="M111 0v1496h332q207 0 302.5 -107t95.5 -346q0 -105 -19.5 -191.5t-66.5 -147.5t-124 -95.5t-192 -34.5h-95v-574h-233zM344 796h82q107 0 149 61t42 184q0 109 -39.5 173t-147.5 64h-86v-482z" />
<glyph unicode="&#x421;" horiz-adv-x="872" d="M99 355v746q0 84 18 158.5t61.5 130t113 88t170.5 32.5q92 0 159 -26t111 -72.5t64.5 -109.5t20.5 -139l-226 -57q0 82 -31 133t-100 51q-41 0 -66.5 -17t-39.5 -44t-19.5 -58.5t-5.5 -58.5v-759q0 -21 4.5 -47.5t18 -49t38.5 -37t64 -14.5q129 0 131 185q58 -11 116 -19 l116 -16q-4 -170 -93.5 -269t-263.5 -99q-185 0 -273 93.5t-88 274.5z" />
<glyph unicode="&#x422;" horiz-adv-x="730" d="M6 1280v216h716v-216h-240v-1280h-234v1280h-242z" />
<glyph unicode="&#x423;" horiz-adv-x="835" d="M13 1494h225l185 -774h12l178 776h218l-302 -1156q-30 -123 -68 -193.5t-79.5 -107.5t-89 -47.5t-99.5 -12.5h-84v187h55q53 0 86.5 35t57.5 111q2 2 4 12.5t5 22.5t6.5 22.5t5.5 15.5z" />
<glyph unicode="&#x424;" horiz-adv-x="1190" d="M94 552v484q0 93 34 163.5t88.5 120.5t124.5 76t141 26v74h230l2 -74q71 -4 140 -30.5t123.5 -75t88 -119t33.5 -163.5v-531q0 -95 -34.5 -163.5t-89 -116t-124 -73t-139.5 -31.5v-119h-230v119h-2q-105 10 -178.5 45.5t-120 91.5t-67 131t-20.5 165zM314 482 q0 -41 15 -72.5t39 -53t54 -33t60 -13.5v923q-78 -11 -123 -54.5t-45 -124.5v-572zM712 1233l2 -923q28 4 58 17t55 34.5t40 51.5t15 69v572q0 82 -48.5 126.5t-121.5 52.5z" />
<glyph unicode="&#x425;" horiz-adv-x="889" d="M13 0l303 782q-71 179 -141 356.5t-140 357.5h260q37 -114 73 -224.5t73 -224.5l8 2l142 447h263l-290 -714q78 -197 156 -392l156 -390h-261l-170 513h-4l-170 -513h-258z" />
<glyph unicode="&#x426;" horiz-adv-x="958" d="M109 0v1496h233v-1279h260v1279h233v-1279h96v-501h-194v284h-628z" />
<glyph unicode="&#x427;" horiz-adv-x="921" d="M86 921v575h230v-546q0 -94 37 -126t105 -32q26 0 58 6t63 19v679h232v-1496h-232v611q-43 -13 -87.5 -18.5t-83.5 -5.5q-75 0 -134 17.5t-101 57t-64.5 102.5t-22.5 157z" />
<glyph unicode="&#x428;" horiz-adv-x="1362" d="M111 0v1496h233v-1279h222v1279h232v-1279h224v1279h230v-1496h-1141z" />
<glyph unicode="&#x429;" horiz-adv-x="1391" d="M109 0v1496h233v-1279h222v1279h232v-1279h224v1279h232v-1279h98v-501h-195v284h-1046z" />
<glyph unicode="&#x42a;" horiz-adv-x="1106" d="M28 1278v218h536v-573h99q116 0 192 -31.5t122.5 -90.5t66 -143t19.5 -187q0 -234 -97.5 -352.5t-298.5 -118.5h-336v1278h-303zM564 222h88q107 0 146 66.5t39 177.5q0 123 -42 179t-148 56h-83v-479z" />
<glyph unicode="&#x42b;" horiz-adv-x="1305" d="M109 0v1496h231v-575h99q116 0 192.5 -31.5t122.5 -89.5t65.5 -142t19.5 -190q0 -234 -97 -351t-299 -117h-334zM340 219h88q108 0 147.5 69t39.5 176q0 123 -42 180t-150 57h-83v-482zM954 0v1496h232v-1496h-232z" />
<glyph unicode="&#x42c;" horiz-adv-x="885" d="M109 0v1496h231v-575h99q116 0 192.5 -31.5t122.5 -89.5t65.5 -142t19.5 -190q0 -234 -97 -351t-299 -117h-334zM340 219h88q108 0 147.5 69t39.5 176q0 123 -42 180t-150 57h-83v-482z" />
<glyph unicode="&#x42d;" horiz-adv-x="857" d="M51 333l230 37q7 -168 132 -167q39 0 63.5 15.5t38.5 40.5t18.5 54t4.5 52v284h-300v227h300v249q0 66 -26 115.5t-104 49.5q-62 0 -94.5 -45t-36.5 -127l-226 39q7 162 99.5 257.5t264.5 95.5q105 0 174 -32.5t108.5 -87t55 -127.5t15.5 -157v-736q0 -181 -84 -282 t-273 -101q-168 0 -259.5 92.5t-100.5 253.5z" />
<glyph unicode="&#x42e;" horiz-adv-x="1262" d="M111 0v1496h233v-626h127v240q0 88 19 161t60 125.5t106.5 82t158.5 29.5q99 0 165.5 -27.5t107.5 -79t58 -124.5t17 -165v-729q0 -195 -84 -295.5t-264 -100.5q-179 0 -261.5 95.5t-82.5 276.5v295h-127v-654h-233zM692 355q0 -58 27.5 -104t95.5 -46q69 0 97 48t28 117 v759q0 30 -5.5 59t-20.5 51.5t-38.5 36.5t-60.5 14q-39 0 -62.5 -18t-37.5 -45t-18.5 -60.5t-4.5 -60.5v-751z" />
<glyph unicode="&#x42f;" horiz-adv-x="941" d="M56 0l84 476q14 75 46.5 136t90.5 96q-103 43 -141.5 130t-38.5 209q0 221 106.5 335t291.5 114h342v-1496h-233v638h-60q-60 0 -110.5 -47t-72.5 -168l-71 -423h-234zM324 1047q0 -109 53 -151t134 -42h93v424h-91q-105 0 -147 -63.5t-42 -167.5z" />
<glyph unicode="&#x430;" horiz-adv-x="827" d="M60 310q0 62 16 122t53 106.5t97 75.5t150 29h135v116q0 47 -22.5 74t-84.5 27q-32 0 -64 -21.5t-43 -77.5l-211 64q28 119 113 185.5t220 66.5q162 0 245 -73t83 -245v-759h-236v82l-6 2q-35 -49 -86 -73t-109 -24q-72 0 -120 26t-77 70t-41 102t-12 125zM288 322 q0 -55 29 -85t79 -30q56 0 85.5 35t29.5 96v130h-92q-49 0 -90 -32t-41 -114z" />
<glyph unicode="&#x431;" horiz-adv-x="816" d="M71 503v183q0 172 13 295t43.5 207.5t78.5 138.5t121 88q45 21 78.5 34.5t65.5 26t71 28.5t96 43l78 -166q-45 -27 -80.5 -42.5t-69 -29.5t-67 -29.5t-73.5 -36.5q-69 -37 -99 -108.5t-34 -182.5h2q37 39 81.5 53.5t72.5 14.5q119 0 180 -54.5t87 -126.5q11 -28 16 -68 t8.5 -86.5t5 -94.5t1.5 -95v-19q0 -60 -1.5 -103.5t-8.5 -101.5q-10 -88 -43.5 -144t-81.5 -87.5t-106.5 -43t-115.5 -11.5q-70 0 -120.5 18t-87 47.5t-59 68.5t-33.5 78q-12 54 -15.5 139t-3.5 167zM301 476q0 -64 1 -119.5t12 -85.5q19 -71 99 -71q32 0 59 24t35 57 q9 33 11.5 85.5t2.5 121.5v50q0 64 -2 112.5t-12 78.5q-10 36 -32.5 56.5t-61.5 20.5q-45 0 -78 -43q-8 -10 -14.5 -26.5t-9.5 -41t-5.5 -63.5t-4.5 -94v-62z" />
<glyph unicode="&#x432;" horiz-adv-x="844" d="M92 0v1063h306q183 0 270 -77t87 -221q0 -64 -27 -117t-83 -86l2 -3q69 -31 93.5 -93t24.5 -137q0 -170 -92 -249.5t-281 -79.5h-300zM327 209h79q46 0 71.5 10.5t40.5 30t19.5 44t4.5 55.5q0 55 -30 87t-106 32h-79v-259zM327 643h63q75 0 106 29t31 81q0 51 -26.5 77 t-94.5 30h-79v-217z" />
<glyph unicode="&#x433;" horiz-adv-x="728" d="M92 0v1065h600v-209h-365v-856h-235z" />
<glyph unicode="&#x434;" horiz-adv-x="960" d="M37 193l88 20q21 29 35 57.5t23.5 64t14.5 80.5t7 108l17 542h605v-856h91v-457h-194v248h-492v-248h-195v441zM359 209h236v647h-169l-11 -320q-4 -132 -17 -205t-39 -122z" />
<glyph unicode="&#x435;" horiz-adv-x="808" d="M71 525q0 103 7.5 206.5t28.5 158.5q31 86 106 137.5t200 51.5q159 0 240.5 -88t81.5 -249v-264h-434q0 -60 1 -116t10 -87q21 -73 94 -72q86 0 97 121l232 -36q-8 -142 -92 -221.5t-239 -79.5q-75 0 -128.5 18.5t-91.5 48.5t-59.5 69t-32.5 77q-6 26 -10 64.5t-6 83 t-3.5 90.5t-1.5 87zM303 636h198v91q0 51 -18.5 92t-76.5 41q-62 0 -86 -62q-8 -19 -11 -61t-6 -101z" />
<glyph unicode="&#x436;" horiz-adv-x="1281" d="M33 0q21 86 41 171t40 171q19 78 54 133.5t101 74.5v4q-54 17 -90.5 70t-53.5 129q-19 78 -37.5 155t-36.5 155h218l64 -281q12 -51 29.5 -82t38 -47.5t44 -20.5t47.5 -4h33v432h232v-432h33q38 0 65 9.5t46.5 32t32 60.5t25.5 91l54 242h217q-17 -78 -35.5 -155 t-37.5 -155q-17 -76 -53.5 -128.5t-92.5 -70.5v-4q66 -21 102 -77t55 -131q18 -86 40 -171t42 -171h-228q-13 69 -27 136t-29 135q-10 53 -25.5 86t-35 49.5t-44 23.5t-57.5 7h-47v-437h-232v437h-47q-35 0 -59.5 -7t-44 -25t-33.5 -50.5t-25 -83.5q-13 -69 -28 -135.5 t-28 -135.5h-227z" />
<glyph unicode="&#x437;" horiz-adv-x="782" d="M39 271l226 35q6 -115 105 -115q43 0 72 32.5t29 94.5q0 69 -24 106.5t-79 37.5h-80v174h84q98 0 99 127q0 50 -26 80t-75 30q-50 0 -76.5 -33.5t-31.5 -82.5l-213 41q13 129 98 202t231 73q162 0 246 -76t84 -227q0 -62 -22.5 -125.5t-92.5 -92.5v-4q66 -28 89.5 -85 t23.5 -147q0 -168 -93.5 -247t-249.5 -79q-148 0 -231 72.5t-93 208.5z" />
<glyph unicode="&#x438;" horiz-adv-x="903" d="M88 0v1063h228v-640h4l261 640h232v-1063h-232v615h-5l-262 -615h-226z" />
<glyph unicode="&#x439;" horiz-adv-x="903" d="M88 0v1063h228v-640h4l261 640h232v-1063h-232v615h-5l-262 -615h-226zM146 1477h170q2 -24 14 -48.5t30 -46t42 -35t54 -13.5q32 0 57 13.5t42 35t26.5 46t9.5 48.5h170q-4 -45 -23.5 -97.5t-57 -96.5t-92.5 -73.5t-132 -29.5q-84 0 -142 29.5t-94.5 73.5t-54 96.5 t-19.5 97.5z" />
<glyph unicode="&#x43a;" horiz-adv-x="846" d="M82 0v1060h232v-432h47q24 0 48 4t45.5 20.5t38 47.5t28.5 82l64 281h219q-19 -78 -37 -155t-36 -155q-17 -76 -55 -128.5t-93 -70.5v-4q71 -17 104 -74t53 -134l83 -342h-228l-57 271q-11 53 -25 86t-33.5 49.5t-44 23.5t-57.5 7h-64v-437h-232z" />
<glyph unicode="&#x43b;" horiz-adv-x="864" d="M6 144q45 24 75 47.5t48.5 54.5t27.5 75t9 112v632h612v-1065h-232v856h-170v-428q0 -111 -19 -189.5t-57 -131.5t-93 -86.5t-125 -55.5z" />
<glyph unicode="&#x43c;" horiz-adv-x="1108" d="M90 0v1065h222l146 -312l94 -203h4l96 205l148 310h220v-1065h-238v568h-4l-64 -151l-90 -191h-138l-90 189l-65 141h-7v-556h-234z" />
<glyph unicode="&#x43d;" horiz-adv-x="857" d="M92 0v1063h235v-429h204v429h234v-1063h-234v449h-204v-449h-235z" />
<glyph unicode="&#x43e;" horiz-adv-x="821" d="M71 448v75q0 51 2.5 106t6.5 104t10.5 92t16.5 70q31 81 108 132.5t202 51.5q86 0 145.5 -22.5t98 -61t56.5 -90t23 -111.5q9 -62 10 -137.5t1 -137.5v-57q0 -49 -3.5 -98.5t-7.5 -96.5q-10 -89 -46 -145t-84 -86t-104.5 -40.5t-109.5 -10.5q-76 0 -130.5 20.5 t-92.5 54.5t-58.5 78.5t-28.5 93.5q-4 28 -7 63.5t-5.5 74t-2.5 78.5zM301 486q0 -58 1 -112t10 -86q10 -37 34 -61t69 -24q34 0 59 20t33 50q2 8 6 33t6 60.5t3 76.5t1 82q0 76 -2 146.5t-12 106.5q-4 24 -14 39q-25 47 -80 47q-52 0 -77 -39q-15 -26 -22.5 -55.5t-11 -68 t-3.5 -87v-111.5v-17z" />
<glyph unicode="&#x43f;" d="M101 0v1065h671v-1065h-234v858h-205v-858h-232z" />
<glyph unicode="&#x440;" horiz-adv-x="823" d="M74 -411v1476h227v-80l7 -4q30 53 76 74.5t106 21.5q43 0 85 -11.5t76.5 -42t59 -84t33.5 -137.5q5 -47 7 -118t2 -144q0 -95 -5.5 -192.5t-20.5 -160.5q-9 -39 -25 -74t-44 -63.5t-71 -45.5t-103 -17q-45 0 -91.5 16t-80.5 57h-6v-471h-232zM303 387q0 -36 1.5 -67.5 t9.5 -48.5q24 -60 92 -60q58 0 82 49q15 35 20 108t5 176q0 96 -4 163t-19 95q-18 50 -84 50q-51 0 -77 -36t-26 -92v-337z" />
<glyph unicode="&#x441;" horiz-adv-x="769" d="M71 523q0 51 2.5 106t6.5 104t10.5 92t16.5 70q33 81 107 132.5t199 51.5q161 0 237.5 -88t76.5 -242q-56 -7 -115.5 -13.5t-114.5 -15.5q0 76 -25 110t-66 34q-64 0 -88 -64q-6 -21 -11.5 -86t-5.5 -150v-78q0 -62 1 -121t12 -90q10 -35 32 -55t60 -20q91 0 91 138 q57 -10 115.5 -17t116.5 -18q-2 -150 -84.5 -233t-242.5 -83q-73 0 -126.5 17t-91.5 47.5t-60.5 68.5t-33.5 80q-6 26 -10 64.5t-5 83t-2.5 90.5t-1.5 85z" />
<glyph unicode="&#x442;" horiz-adv-x="657" d="M-2 856v209h662v-209h-215v-856h-234v856h-213z" />
<glyph unicode="&#x443;" horiz-adv-x="771" d="M8 1063h248l66 -394l58 -310h10l57 310l78 394h238l-307 -1227q-31 -118 -96 -184.5t-190 -66.5h-82v204h47q48 0 78 31.5t52 121.5l14 66z" />
<glyph unicode="&#x444;" horiz-adv-x="1106" d="M74 523q0 103 7 186t28 147q33 96 122 151.5t212 67.5v411h220v-411q150 -8 231.5 -73.5t109.5 -154.5q17 -53 22.5 -140t5.5 -180v-18q0 -60 -1 -105t-7 -98q-17 -125 -82 -197q-47 -53 -117 -82t-158 -40v-398h-224v396q-159 17 -240.5 79.5t-112.5 180.5 q-10 55 -13 128.5t-3 149.5zM303 433q5 -60 7 -104.5t12 -70.5q13 -32 44.5 -48.5t74.5 -20.5q0 166 1 341.5t1 339.5q-92 -16 -121 -85q-10 -26 -14.5 -82t-4.5 -120v-150zM663 189q102 13 125 90q12 39 14 95t2 131q0 88 -1 171t-11 114q-11 34 -42.5 55t-86.5 25v-681z " />
<glyph unicode="&#x445;" horiz-adv-x="792" d="M10 0q62 135 128.5 270.5t128.5 271.5l-246 521h260l117 -314h4q31 79 57.5 157.5t57.5 156.5h255l-245 -521q64 -136 127.5 -271.5t125.5 -270.5h-255l-125 333h-6l-129 -333h-255z" />
<glyph unicode="&#x446;" horiz-adv-x="885" d="M94 0v1065h235v-852h202v852h234v-852h95v-461h-195v248h-571z" />
<glyph unicode="&#x447;" horiz-adv-x="810" d="M56 628v435h234v-362q0 -107 93 -108q52 0 114 35v435h230v-1063h-232v433q-27 -13 -57 -23t-58.5 -16.5t-53.5 -10t-40 -3.5q-110 0 -170 61.5t-60 186.5z" />
<glyph unicode="&#x448;" horiz-adv-x="1257" d="M97 0v1065h232v-852h182v852h236v-852h186v852h230v-1065h-1066z" />
<glyph unicode="&#x449;" horiz-adv-x="1303" d="M97 0v1065h232v-852h182v852h236v-852h184v852h232v-852h97v-441h-193v228h-970z" />
<glyph unicode="&#x44a;" horiz-adv-x="1001" d="M24 856v209h505v-392h68q105 0 176.5 -23.5t114.5 -67.5t60.5 -105.5t17.5 -134.5q0 -170 -88 -256t-278 -86h-307v856h-269zM529 209h62q86 0 115 39.5t29 91.5q0 56 -32 90t-114 34h-60v-255z" />
<glyph unicode="&#x44b;" horiz-adv-x="1188" d="M92 0v1065h237v-392h69q105 0 176 -23.5t114 -67.5t60 -105.5t17 -134.5q0 -342 -365 -342h-308zM329 209h63q86 0 115 39.5t29 91.5q0 56 -32.5 90t-113.5 34h-61v-255zM852 0v1065h236v-1065h-236z" />
<glyph unicode="&#x44c;" horiz-adv-x="794" d="M90 0v1065h237v-392h71q105 0 176 -23.5t114 -67.5t60 -105.5t17 -134.5q0 -342 -365 -342h-310zM327 209h65q86 0 113.5 39.5t27.5 91.5q0 56 -32.5 90t-113.5 34h-60v-255z" />
<glyph unicode="&#x44d;" horiz-adv-x="771" d="M45 288l232 28q7 -116 91 -116q45 0 66.5 27t29.5 70q6 26 8 65.5t2 80.5h-250v189h247q0 99 -13 148q-24 86 -88 86q-41 0 -66 -31t-27 -93q-55 7 -113.5 14t-114.5 16q9 144 94 225.5t242 81.5q125 0 190 -51.5t96 -132.5q10 -27 17 -70t10 -92t4.5 -104t1.5 -106 q0 -39 -1.5 -85t-2.5 -90.5t-5.5 -83t-10.5 -64.5q-11 -44 -33.5 -81t-60.5 -67.5t-91.5 -47.5t-126.5 -17q-155 0 -239 79.5t-88 221.5z" />
<glyph unicode="&#x44e;" horiz-adv-x="1141" d="M82 0v1063h234v-429h103q2 82 11 150t22 106q30 84 103 134.5t194 50.5q133 0 203 -55.5t93 -141.5q8 -35 14 -79t8 -92.5t3 -96.5t1 -91v-18q0 -58 -2 -118.5t-9 -115.5q-10 -89 -43.5 -145t-80 -86t-101.5 -40.5t-106 -10.5q-70 0 -118.5 18t-84.5 47.5t-57.5 68.5 t-31.5 81q-11 40 -14.5 111.5t-3.5 137.5h-103v-449h-234zM640 486q0 -90 3.5 -148.5t21.5 -89.5q24 -45 82 -45q32 0 56 20t32 50q2 8 5 33t4 59.5t2 75.5t1 82q0 75 -1 144.5t-9 106.5q-9 34 -28 61t-62 27q-35 0 -57.5 -22.5t-33.5 -51.5q-8 -29 -10.5 -93.5t-5.5 -152.5 v-56z" />
<glyph unicode="&#x44f;" horiz-adv-x="831" d="M45 0l80 327q10 49 34 92t67 69q-86 35 -118 101.5t-32 145.5q0 157 90 243.5t257 86.5h332v-1065h-234v428h-57q-51 0 -84.5 -34.5t-55.5 -137.5l-53 -256h-226zM303 729q0 -56 38.5 -84t103.5 -28h76v245h-72q-69 0 -107.5 -33t-38.5 -100z" />
<glyph unicode="&#x451;" horiz-adv-x="808" d="M71 525q0 103 7.5 206.5t28.5 158.5q31 86 106 137.5t200 51.5q159 0 240.5 -88t81.5 -249v-264h-434q0 -60 1 -116t10 -87q21 -73 94 -72q86 0 97 121l232 -36q-8 -142 -92 -221.5t-239 -79.5q-75 0 -128.5 18.5t-91.5 48.5t-59.5 69t-32.5 77q-6 26 -10 64.5t-6 83 t-3.5 90.5t-1.5 87zM138 1237v226h202v-226h-202zM303 636h198v91q0 51 -18.5 92t-76.5 41q-62 0 -86 -62q-8 -19 -11 -61t-6 -101zM490 1237v226h202v-226h-202z" />
<glyph unicode="&#x452;" horiz-adv-x="862" d="M0 1217v148h94v196h233v-196h275v-148h-275v-265q4 0 5 -1t3 -1q28 43 87.5 76.5t121.5 33.5q82 0 136.5 -38.5t76.5 -120.5q6 -28 10.5 -74.5t6.5 -101t3 -113t1 -107.5v-84q0 -86 -4 -170.5t-21 -133.5q-29 -91 -96.5 -139.5t-176.5 -53.5h-45l-7 185q35 2 56 12 t32 21.5t14 26t3 24.5q3 21 6 80.5t3 128.5q0 105 -1 199t-8 154q-4 39 -24.5 54.5t-46.5 15.5q-66 0 -100.5 -40.5t-34.5 -115.5v-669h-233v1217h-94z" />
<glyph unicode="&#x453;" horiz-adv-x="728" d="M92 0v1065h600v-209h-365v-856h-235zM228 1235l183 380l191 -86l-249 -361z" />
<glyph unicode="&#x454;" horiz-adv-x="794" d="M88 525q0 51 2 105t6.5 103t11 92t17.5 70q30 81 106.5 132.5t201.5 51.5q154 0 236 -77t86 -220l-232 -23q-4 54 -30.5 79.5t-62.5 25.5q-69 0 -92 -64q-10 -21 -13 -64.5t-5 -105.5h252v-187h-254q0 -49 2 -95.5t11 -72.5q10 -35 32 -53.5t63 -18.5q43 0 68 27.5 t29 81.5l234 -33q-6 -135 -94.5 -213.5t-243.5 -78.5q-74 0 -127.5 18.5t-90.5 47.5t-59.5 68t-34.5 79q-6 26 -10.5 64.5t-5.5 83t-2 90.5t-1 87z" />
<glyph unicode="&#x455;" horiz-adv-x="780" d="M60 290l230 34q-2 -57 25 -92t77 -35q51 0 77 29.5t26 81.5q0 66 -24 93t-88 51q-71 26 -129.5 52.5t-97.5 63t-60.5 86.5t-21.5 120q0 129 82 217t244 88q168 0 244 -84t76 -225l-228 -30q3 58 -22 92t-72 34q-56 0 -75.5 -32t-19.5 -64q0 -43 20.5 -70t95.5 -53 q80 -26 137 -53.5t93.5 -66.5t53.5 -91.5t17 -125.5q0 -70 -17 -127.5t-56.5 -101.5t-102 -69t-152.5 -25q-158 0 -243 77.5t-89 225.5z" />
<glyph unicode="&#x456;" horiz-adv-x="437" d="M101 0v1063h234v-1063h-234zM101 1270v226h234v-226h-234z" />
<glyph unicode="&#x457;" horiz-adv-x="437" d="M-56 1221v226h202v-226h-202zM101 0v1063h234v-1063h-234zM297 1221v226h202v-226h-202z" />
<glyph unicode="&#x458;" horiz-adv-x="431" d="M-35 -205h35q62 0 81.5 35t19.5 116v1119h234v-1176q0 -148 -78.5 -230t-248.5 -82h-43v218zM101 1270v226h234v-226h-234z" />
<glyph unicode="&#x459;" horiz-adv-x="1233" d="M10 144q46 24 76.5 47.5t48 54.5t26.5 75t9 112v630h587v-390h70q105 0 176.5 -24.5t114.5 -67.5t60.5 -104.5t17.5 -134.5q0 -342 -365 -342h-310v856h-141v-428q0 -111 -20 -189.5t-57.5 -131.5t-93 -86.5t-123.5 -55.5zM757 209h64q82 0 113.5 38.5t31.5 92.5 q0 56 -33.5 90t-115.5 34h-60v-255z" />
<glyph unicode="&#x45a;" horiz-adv-x="1240" d="M97 0v1065h236v-402h192v402h238v-400h70q105 0 175.5 -24t114 -66t60.5 -101t17 -132q0 -342 -365 -342h-310v464h-192v-464h-236zM763 209h62q86 0 115.5 39.5t29.5 91.5q0 56 -32.5 85t-114.5 29h-60v-245z" />
<glyph unicode="&#x45b;" horiz-adv-x="859" d="M0 1217v148h97v196h232v-196h273v-148h-273v-263l9 -2q33 46 88.5 77t115.5 31q66 0 109.5 -21.5t69.5 -59t36.5 -89t10.5 -110.5v-780h-235v720q0 115 -98 115q-50 0 -78 -31.5t-28 -89.5v-714h-232v1217h-97z" />
<glyph unicode="&#x45c;" horiz-adv-x="846" d="M82 0v1060h232v-432h47q24 0 48 4t45.5 20.5t38 47.5t28.5 82l64 281h219q-19 -78 -37 -155t-36 -155q-17 -76 -55 -128.5t-93 -70.5v-4q71 -17 104 -74t53 -134l83 -342h-228l-57 271q-11 53 -25 86t-33.5 49.5t-44 23.5t-57.5 7h-64v-437h-232zM331 1235l182 380 l193 -86l-250 -361z" />
<glyph unicode="&#x45e;" horiz-adv-x="771" d="M8 1063h248l66 -394l58 -310h10l57 310l78 394h238l-307 -1227q-31 -118 -96 -184.5t-190 -66.5h-82v204h47q48 0 78 31.5t52 121.5l14 66zM82 1477h170q2 -24 13.5 -48.5t30 -46t42 -35t54.5 -13.5q32 0 57 13.5t41.5 35t26.5 46t10 48.5h170q-4 -45 -23.5 -97.5 t-57 -96.5t-93 -73.5t-131.5 -29.5q-84 0 -142.5 29.5t-94.5 73.5t-53.5 96.5t-19.5 97.5z" />
<glyph unicode="&#x45f;" horiz-adv-x="864" d="M101 0v1063h234v-850h201v850h232v-1063h-237v-269h-198v269h-232z" />
<glyph unicode="&#x490;" horiz-adv-x="808" d="M111 0v1496h457v246h191v-464h-415v-1278h-233z" />
<glyph unicode="&#x491;" horiz-adv-x="728" d="M92 0v1063h411v246h189v-453h-368v-856h-232z" />
<glyph unicode="&#x4d9;" horiz-adv-x="808" d="M74 324v265h433q0 60 -2 116t-13 87q-21 73 -92 72q-86 0 -94 -122l-232 36q8 142 92 223t240 81q74 0 128.5 -18.5t91.5 -48.5t59.5 -69t32.5 -80q6 -26 10.5 -64.5t6.5 -82.5t3.5 -90t1.5 -85q0 -52 -2.5 -105.5t-6.5 -103t-10.5 -90t-16.5 -69.5q-33 -86 -107 -137.5 t-199 -51.5q-162 0 -243 88.5t-81 248.5zM308 340q0 -51 18 -92t76 -41q62 0 86 62q9 19 12 61t5 100h-197v-90z" />
<glyph unicode="&#x2000;" horiz-adv-x="961" />
<glyph unicode="&#x2001;" horiz-adv-x="1923" />
<glyph unicode="&#x2002;" horiz-adv-x="961" />
<glyph unicode="&#x2003;" horiz-adv-x="1923" />
<glyph unicode="&#x2004;" horiz-adv-x="641" />
<glyph unicode="&#x2005;" horiz-adv-x="480" />
<glyph unicode="&#x2006;" horiz-adv-x="320" />
<glyph unicode="&#x2007;" horiz-adv-x="320" />
<glyph unicode="&#x2008;" horiz-adv-x="240" />
<glyph unicode="&#x2009;" horiz-adv-x="384" />
<glyph unicode="&#x200a;" horiz-adv-x="106" />
<glyph unicode="&#x2010;" horiz-adv-x="784" d="M105 503v203h599v-203h-599z" />
<glyph unicode="&#x2011;" horiz-adv-x="784" d="M105 503v203h599v-203h-599z" />
<glyph unicode="&#x2012;" horiz-adv-x="784" d="M105 503v203h599v-203h-599z" />
<glyph unicode="&#x2013;" horiz-adv-x="1075" d="M43 484v197h989v-197h-989z" />
<glyph unicode="&#x2014;" horiz-adv-x="2150" d="M43 484v197h2064v-197h-2064z" />
<glyph unicode="&#x2018;" horiz-adv-x="562" d="M152 970v265l119 285h129l-62 -281h54v-269h-240z" />
<glyph unicode="&#x2019;" horiz-adv-x="511" d="M142 972l61 280h-55v270h242v-264l-119 -286h-129z" />
<glyph unicode="&#x201a;" horiz-adv-x="459" d="M103 -295l63 282h-57v271h242v-264l-119 -289h-129z" />
<glyph unicode="&#x201c;" horiz-adv-x="741" d="M97 970v265l120 285h129l-62 -281h54v-269h-241zM406 970v265l119 285h129l-61 -281h54v-269h-241z" />
<glyph unicode="&#x201d;" horiz-adv-x="741" d="M99 972l63 280h-57v270h241v-264l-118 -286h-129zM408 972l60 280h-53v270h241v-264l-118 -286h-130z" />
<glyph unicode="&#x201e;" horiz-adv-x="756" d="M99 -293l63 283h-57v268h241v-264l-118 -287h-129zM408 -293l60 283h-53v268h241v-264l-118 -287h-130z" />
<glyph unicode="&#x2026;" horiz-adv-x="1510" d="M105 0v260h241v-260h-241zM638 0v260h240v-260h-240zM1172 0v260h238v-260h-238z" />
<glyph unicode="&#x202f;" horiz-adv-x="384" />
<glyph unicode="&#x2039;" horiz-adv-x="661" d="M101 517l241 414h222l-237 -414l237 -418h-222z" />
<glyph unicode="&#x203a;" horiz-adv-x="661" d="M99 99l236 418l-236 414h223l240 -414l-240 -418h-223z" />
<glyph unicode="&#x205f;" horiz-adv-x="480" />
<glyph unicode="&#x20ac;" d="M41 572v127h80v107h-80v130h80v165q0 84 19.5 159.5t63.5 130t112.5 87t167.5 32.5q183 0 270 -96t85 -246l-226 -39q-4 75 -36.5 118t-94.5 43q-39 0 -64.5 -17t-41 -43t-20.5 -57.5t-5 -58.5v-178h289v-130h-289v-107h289v-127h-289v-219q0 -24 4 -50t18 -48.5t39 -36 t64 -13.5q122 0 131 165l232 -32q-6 -162 -96.5 -256.5t-258.5 -94.5q-187 0 -275 93.5t-88 276.5v215h-80z" />
<glyph unicode="&#x2122;" horiz-adv-x="1504" d="M88 1346v150h523v-150h-181v-701h-161v701h-181zM695 643v851h148q31 -64 57.5 -128.5t53.5 -128.5l84 -186q19 45 38.5 92t41.5 92l109 259h152v-851h-160v467h-6q-17 -47 -34.5 -94.5t-37.5 -94.5q-10 -31 -25 -63.5t-28 -61.5h-105q-15 32 -29 64t-27 65 q-19 47 -36.5 93.5t-36.5 91.5h-7v-467h-152z" />
<glyph unicode="&#x25fc;" horiz-adv-x="1063" d="M0 0v1065h1065v-1065h-1065z" />
</font>
</defs>
</svg>
