<?xml version="1.0" standalone="no"?>
<!DOCTYPE svg PUBLIC "-//W3C//DTD SVG 1.1//EN" "http://www.w3.org/Graphics/SVG/1.1/DTD/svg11.dtd" >
<svg xmlns="http://www.w3.org/2000/svg" xmlns:xlink="http://www.w3.org/1999/xlink" version="1.1">
<metadata></metadata>
<defs>
<font id="sf_ui_displaybold" horiz-adv-x="1272" >
<font-face units-per-em="2048" ascent="1638" descent="-410" />
<missing-glyph horiz-adv-x="422" />
<glyph horiz-adv-x="0" />
<glyph unicode="&#xd;" horiz-adv-x="0" />
<glyph unicode=" "  horiz-adv-x="422" />
<glyph unicode="&#x09;" horiz-adv-x="422" />
<glyph unicode="&#xa0;" horiz-adv-x="422" />
<glyph unicode="!" horiz-adv-x="622" d="M155 126.5q0 63.5 45 107t111 43.5t111.5 -43.5t45.5 -107t-45.5 -107t-111.5 -43.5t-111 43.5t-45 107zM167 1385h288l-23 -929h-242z" />
<glyph unicode="&#x22;" horiz-adv-x="891" d="M104 833v552h240v-552h-240zM548 833v552h240v-552h-240z" />
<glyph unicode="#" horiz-adv-x="1220" d="M23 370l39 207h200l50 250h-191l39 205h193l72 354h211l-70 -354h225l71 354h213l-71 -354h208l-38 -205h-211l-51 -250h202l-39 -207h-203l-74 -370h-213l74 370h-225l-75 -370h-211l73 370h-198zM457 559h251l59 285h-252z" />
<glyph unicode="$" d="M90 396h275q5 -75 62.5 -126t148.5 -61v375l-102 24q-174 40 -264.5 138.5t-90.5 248.5q0 176 120.5 284t336.5 125v132h135v-132q133 -12 233.5 -65.5t155.5 -140.5t57 -197h-267q-2 69 -52 119.5t-127 61.5v-358l103 -20q369 -81 369 -390q0 -183 -123 -292.5 t-349 -129.5v-124h-135v123q-226 13 -355.5 120.5t-130.5 284.5zM396 1019q0 -64 46 -106.5t134 -60.5v331q-79 -5 -129.5 -50.5t-50.5 -113.5zM711 208q95 6 147.5 52.5t52.5 122.5q0 47 -21.5 81.5t-65.5 58t-113 37.5v-352z" />
<glyph unicode="%" horiz-adv-x="1556" d="M43 1068q0 164 85.5 260t230.5 96q146 0 231 -96t85 -260q0 -165 -85.5 -262.5t-230.5 -97.5t-230.5 97.5t-85.5 262.5zM141 0l1012 1385h246l-1011 -1385h-247zM258 1067q0 -88 27 -139.5t74 -51.5t74 51t27 140.5t-26.5 139t-74.5 49.5q-31 0 -53.5 -22.5t-35 -65.5 t-12.5 -101zM881 340q0 81 22.5 147.5t63 112.5t99.5 71t131 25q146 0 231 -96t85 -260q0 -165 -85.5 -262.5t-230.5 -97.5t-230.5 97.5t-85.5 262.5zM1096 339q0 -58 12.5 -101.5t35 -66.5t53.5 -23q47 0 74 51t27 140.5t-26.5 139t-74.5 49.5q-47 0 -74 -50.5t-27 -138.5z " />
<glyph unicode="&#x26;" horiz-adv-x="1379" d="M65 363q0 118 62 207t195 162q5 3 20.5 11t27.5 14.5t14 7.5q-94 97 -133 169t-39 148q0 91 51 165t140.5 115.5t201.5 41.5q170 0 278 -89t108 -228q0 -107 -68.5 -194.5t-212.5 -165.5l263 -284q50 88 50 262v73h234v-90q0 -256 -117 -418l258 -270h-314l-107 115 q-77 -66 -190 -103t-239 -37q-220 0 -351.5 105.5t-131.5 282.5zM327 385q0 -61 31.5 -108t88 -72.5t130.5 -25.5q75 0 144 26t109 70l-317 343q-12 -5 -39 -20q-78 -50 -112.5 -99.5t-34.5 -113.5zM452 1068q0 -48 29 -95t100 -116q63 33 101.5 65.5t56.5 67.5t18 78 q0 66 -42 107.5t-109 41.5t-110.5 -42.5t-43.5 -106.5z" />
<glyph unicode="'" horiz-adv-x="447" d="M104 833v552h240v-552h-240z" />
<glyph unicode="(" horiz-adv-x="681" d="M128 576q0 141 19 260.5t57.5 217t83.5 174t108 157.5h259q-43 -49 -84 -127.5t-76 -180.5t-56.5 -233t-21.5 -266q0 -134 18 -255.5t53 -226.5t73.5 -188t90.5 -174h-265q-53 67 -98 150.5t-82 188t-58 234t-21 269.5z" />
<glyph unicode=")" horiz-adv-x="681" d="M28 1385h257q64 -80 109.5 -157t83.5 -175t57.5 -217t19.5 -260q0 -113 -14.5 -220t-38.5 -195.5t-57.5 -169t-71 -142.5t-79.5 -115h-264q52 91 90 174t73 188t53.5 226.5t18.5 255.5q0 135 -21.5 265.5t-56.5 232.5t-75.5 180.5t-83.5 128.5z" />
<glyph unicode="*" horiz-adv-x="954" d="M102 934l260 107l-260 105l95 167l223 -174l-39 281h192l-38 -281l222 174l95 -167l-259 -105l259 -107l-95 -166l-221 172l37 -278h-192l38 278l-222 -172z" />
<glyph unicode="+" d="M119 433v245h392v414h251v-414h392v-245h-392v-420h-251v420h-392z" />
<glyph unicode="," horiz-adv-x="554" d="M85 -260l80 519h263l-130 -519h-213z" />
<glyph unicode="-" horiz-adv-x="868" d="M119 433v245h631v-245h-631z" />
<glyph unicode="." horiz-adv-x="546" d="M119 143q0 65 45 110t109.5 45t109.5 -45t45 -110q0 -64 -45 -109.5t-109 -45.5q-43 0 -78.5 21t-56 56.5t-20.5 77.5z" />
<glyph unicode="/" horiz-adv-x="659" d="M0 -281l398 1667h262l-404 -1667h-256z" />
<glyph unicode="0" horiz-adv-x="1279" d="M80 695q0 222 67.5 385t194 250t298.5 87q260 0 410 -193t150 -528q0 -222 -67 -386t-193.5 -252.5t-299 -88.5t-299.5 88t-194 251.5t-67 386.5zM374 695q0 -156 32 -267.5t92 -168.5t142 -57q125 0 195 129t70 364q0 155 -32 265.5t-91.5 167.5t-141.5 57 q-123 0 -194.5 -129t-71.5 -361z" />
<glyph unicode="1" horiz-adv-x="943" d="M85 876v261l359 248h288v-1385h-288v1119h-5z" />
<glyph unicode="2" horiz-adv-x="1185" d="M82 964v5q0 129 64 231t181 159t266 57q108 0 200 -30t156 -83t100.5 -127t36.5 -160q0 -51 -14 -100t-35.5 -90t-59 -89.5t-72 -85.5t-87.5 -89l-338 -326v-6h625v-230h-1007v195l522 503q72 72 110.5 121.5t56 92.5t17.5 92q0 79 -62.5 132.5t-157.5 53.5 q-101 0 -167.5 -63t-66.5 -158v-5h-268z" />
<glyph unicode="3" horiz-adv-x="1238" d="M76 396h277q5 -58 36.5 -101.5t88.5 -67.5t133 -24q108 0 177 55.5t69 142.5q0 95 -67 149.5t-184 54.5h-171v209h168q99 0 160.5 53.5t61.5 139.5t-59 136t-165 50q-100 0 -163 -54.5t-68 -145.5h-267q8 192 146.5 307.5t363.5 115.5q143 0 253 -46t171 -130t61 -194 q0 -126 -78.5 -213t-207.5 -110v-6q156 -13 248 -102t92 -232q0 -122 -69.5 -216.5t-193.5 -146t-282 -51.5q-155 0 -273.5 53.5t-184.5 150t-73 223.5z" />
<glyph unicode="4" horiz-adv-x="1273" d="M69 247v246q92 175 218 378t338 514h409v-906h180v-232h-180v-247h-276v247h-689zM324 470h440v710h-6q-160 -235 -257 -390.5t-177 -311.5v-8z" />
<glyph unicode="5" horiz-adv-x="1228" d="M110 396h268q8 -57 43 -102.5t90 -70t122 -24.5q113 0 184.5 71.5t71.5 184.5q0 115 -71 188t-183 73q-79 0 -143 -34t-100 -94h-260l69 797h881v-230h-654l-32 -379h6q29 46 74 80t105 52.5t129 18.5q131 0 235 -59.5t162 -165.5t58 -239q0 -146 -67 -258t-188.5 -174 t-278.5 -62q-147 0 -264.5 54.5t-184.5 152t-72 220.5z" />
<glyph unicode="6" horiz-adv-x="1264" d="M81 682q0 343 155.5 539t424.5 196q198 0 339 -106.5t170 -276.5h-285q-21 69 -82.5 111.5t-142.5 42.5q-146 0 -227.5 -132.5t-76.5 -366.5h6q21 51 56.5 92.5t82.5 71t105.5 46t124.5 16.5q129 0 234 -59t164 -163.5t59 -234.5q0 -141 -67.5 -253t-189 -174.5 t-274.5 -62.5q-150 0 -269 66t-191 190q-116 177 -116 458zM401 452q0 -106 73 -179t180 -73q106 0 179 72.5t73 176.5q0 108 -71.5 178t-179.5 70t-181 -70t-73 -175z" />
<glyph unicode="7" horiz-adv-x="1125" d="M61 1155v230h991v-233l-578 -1152h-304l596 1149v6h-705z" />
<glyph unicode="8" horiz-adv-x="1282" d="M80 375q0 137 90 234.5t235 121.5v5q-121 29 -195.5 114.5t-74.5 199.5q0 78 38 146t104 116.5t160.5 76t203.5 27.5q147 0 262.5 -47t179 -130.5t63.5 -189.5q0 -74 -33.5 -138.5t-94.5 -110t-141 -64.5v-5q49 -9 92 -26t79 -41t65 -55.5t49 -68t30.5 -78.5t10.5 -88 q0 -118 -70.5 -210.5t-198.5 -143.5t-293 -51q-166 0 -294 51.5t-197.5 143.5t-69.5 211zM382 396q0 -46 19 -86t53 -68.5t82.5 -45t104.5 -16.5q75 0 134.5 28t92 77.5t32.5 110.5q0 95 -72.5 155.5t-186.5 60.5t-186.5 -60.5t-72.5 -155.5zM422 1015q0 -41 16.5 -76.5 t45 -61t69.5 -39.5t88 -14q63 0 113 24.5t78 68t28 98.5q0 83 -61.5 137.5t-157.5 54.5t-157.5 -54.5t-61.5 -137.5z" />
<glyph unicode="9" horiz-adv-x="1268" d="M76 928q0 141 68.5 252.5t190.5 174t275 62.5q150 0 270 -65.5t191 -187.5q117 -179 117 -459q0 -345 -154.5 -540.5t-427.5 -195.5q-199 0 -341 107t-171 277h286q21 -70 84 -112t147 -42q144 0 224.5 131.5t74.5 367.5h-3h-2h-1q-38 -103 -136 -165t-232 -62 q-129 0 -234.5 59t-165.5 164t-60 234zM359 937q0 -70 33 -127t90.5 -89t129.5 -32q108 0 180.5 70.5t72.5 175.5q0 106 -73 178.5t-179 72.5t-180 -72.5t-74 -176.5z" />
<glyph unicode=":" horiz-adv-x="546" d="M119 143q0 65 45 110t109.5 45t109.5 -45t45 -110q0 -64 -45 -109.5t-109 -45.5q-43 0 -78.5 21t-56 56.5t-20.5 77.5zM119 829q0 65 45 110t110 45q42 0 77.5 -20.5t56 -56t20.5 -78.5q0 -42 -20.5 -77.5t-56 -56t-77.5 -20.5q-65 0 -110 45t-45 109z" />
<glyph unicode=";" horiz-adv-x="546" d="M53 -260l79 519h264l-131 -519h-212zM119 829q0 65 45 110t110 45q42 0 77.5 -20.5t56 -56t20.5 -78.5q0 -42 -20.5 -77.5t-56 -56t-77.5 -20.5q-65 0 -110 45t-45 109z" />
<glyph unicode="&#x3c;" d="M180 447v216l914 486v-279l-630 -306v-10l630 -297v-279z" />
<glyph unicode="=" d="M133 211v241h1007v-241h-1007zM133 660v240h1007v-240h-1007z" />
<glyph unicode="&#x3e;" d="M180 -21v279l629 296v10l-629 307v278l914 -485v-217z" />
<glyph unicode="?" horiz-adv-x="1049" d="M52 996q4 182 127 292t339 110q205 0 330.5 -103.5t125.5 -268.5q0 -72 -23 -131t-68 -106.5t-114 -87.5q-96 -56 -129.5 -100.5t-33.5 -114.5v-51h-255l-2 56q-9 111 31.5 183t141.5 131q94 56 128 100.5t34 112.5q0 69 -50.5 113t-132.5 44q-55 0 -96.5 -22 t-65.5 -62.5t-27 -94.5h-260zM325 127q0 63 46 106.5t111 43.5q66 0 111.5 -43.5t45.5 -106.5t-45.5 -107t-111.5 -44q-43 0 -79 20t-57 54.5t-21 76.5z" />
<glyph unicode="@" horiz-adv-x="1737" d="M77 590q0 177 60 326t166 253.5t257 163t329 58.5q169 0 313 -51.5t245.5 -144.5t159 -226t57.5 -291q0 -151 -45.5 -263t-131 -173.5t-201.5 -61.5q-89 0 -152 41t-79 110h-13q-30 -72 -89 -110t-143 -38q-150 0 -241.5 112t-91.5 294q0 175 90 284t234 109 q77 0 138 -36.5t89 -99.5h14v115h194v-514q0 -50 23.5 -79t68.5 -29q71 0 115 86.5t44 237.5q0 173 -75 303.5t-212 201t-318 70.5q-137 0 -254 -48t-199 -133t-129 -207t-47 -264q0 -150 48.5 -270.5t136 -202t210.5 -125t271 -43.5q38 0 76.5 2.5t72.5 7t63.5 10.5 t49.5 14v-154q-121 -35 -277 -35q-181 0 -334 55.5t-262 158t-170 253t-61 333.5zM695 584q0 -105 43 -164.5t118 -59.5q78 0 123 60t45 163.5t-45 163.5t-122 60q-76 0 -119 -59t-43 -164z" />
<glyph unicode="A" horiz-adv-x="1356" d="M27 0l481 1385h341l482 -1385h-309l-105 336h-487l-106 -336h-297zM492 553h362l-177 567h-7z" />
<glyph unicode="B" horiz-adv-x="1266" d="M115 0v1385h612q129 0 224.5 -42t147 -120t51.5 -183q0 -75 -34 -140t-93.5 -107.5t-132.5 -53.5v-7q142 -11 234 -105t92 -231q0 -183 -128.5 -289.5t-350.5 -106.5h-622zM405 216h258q126 0 192 52t66 152q0 64 -30.5 108.5t-89.5 67t-144 22.5h-252v-402zM405 809h217 q77 0 131.5 22t83 63.5t28.5 100.5q0 83 -56 128.5t-157 45.5h-247v-360z" />
<glyph unicode="C" horiz-adv-x="1400" d="M72 693q0 221 80 383t228 247.5t348 85.5q165 0 299.5 -65t216 -184t92.5 -272h-282q-20 127 -109.5 204t-216.5 77q-109 0 -190.5 -57.5t-125.5 -165t-44 -252.5q0 -221 97 -349.5t264 -128.5q128 0 215.5 71t110.5 194h282q-24 -232 -189 -368.5t-420 -136.5 q-201 0 -349 85.5t-227.5 248t-79.5 383.5z" />
<glyph unicode="D" horiz-adv-x="1380" d="M115 0v1385h534q155 0 278.5 -45.5t208 -132.5t129 -216t44.5 -293q0 -330 -174 -514t-486 -184h-534zM405 240h209q130 0 219 51.5t135 154t46 251.5q0 217 -104 333t-296 116h-209v-906z" />
<glyph unicode="E" horiz-adv-x="1127" d="M115 0v1385h918v-239h-628v-334h592v-223h-592v-349h628v-240h-918z" />
<glyph unicode="F" horiz-adv-x="1078" d="M115 0v1385h907v-239h-617v-371h564v-230h-564v-545h-290z" />
<glyph unicode="G" horiz-adv-x="1429" d="M72 697q0 332 177 522t483 190q160 0 291.5 -59t214.5 -166t103 -246h-291q-31 109 -115 170t-202 61q-113 0 -195.5 -55.5t-126 -161t-43.5 -251.5q0 -225 101.5 -354.5t274.5 -129.5q142 0 232 79.5t94 208.5l1 22h-301v211h584v-156q0 -284 -163 -445t-452 -161 q-311 0 -489 192t-178 529z" />
<glyph unicode="H" horiz-adv-x="1434" d="M115 0v1385h290v-562h624v562h290v-1385h-290v584h-624v-584h-290z" />
<glyph unicode="I" horiz-adv-x="520" d="M115 0v1385h290v-1385h-290z" />
<glyph unicode="J" horiz-adv-x="1097" d="M30 408h281q1 -84 51.5 -135t132.5 -51q91 0 139 54.5t48 159.5v949h290v-951q0 -146 -56.5 -250.5t-163 -158.5t-254.5 -54q-212 0 -340 119t-128 318z" />
<glyph unicode="K" horiz-adv-x="1298" d="M115 0v1385h290v-631h9l520 631h323l-513 -614l548 -771h-346l-411 579l-130 -156v-423h-290z" />
<glyph unicode="L" horiz-adv-x="1067" d="M115 0v1385h290v-1145h606v-240h-896z" />
<glyph unicode="M" horiz-adv-x="1697" d="M115 0v1385h336l394 -982h7l394 982h336v-1385h-258v935h-8l-376 -922h-183l-376 922h-8v-935h-258z" />
<glyph unicode="N" horiz-adv-x="1404" d="M115 0v1385h242l647 -902h8v902h277v-1385h-240l-648 907h-8v-907h-278z" />
<glyph unicode="O" horiz-adv-x="1479" d="M72 692q0 219 81 381.5t232 249t355 86.5t355 -86.5t232 -249t81 -381.5q0 -218 -81 -380t-232 -249t-355 -87t-355 87t-232 249t-81 380zM368 692q0 -217 100.5 -345t271.5 -128q170 0 271 128t101 345q0 218 -101 346.5t-271 128.5t-271 -128.5t-101 -346.5z" />
<glyph unicode="P" horiz-adv-x="1228" d="M115 0v1385h578q141 0 250 -58.5t169.5 -166.5t60.5 -249q0 -140 -62.5 -248t-175 -167t-256.5 -59h-274v-437h-290zM405 663h210q125 0 194 64.5t69 182.5t-68.5 182t-193.5 64h-211v-493z" />
<glyph unicode="Q" horiz-adv-x="1479" d="M72 692q0 219 81 381t232 249t355 87q203 0 354 -87t232 -249t81 -381q0 -183 -56.5 -326t-163.5 -232l175 -265h-281l-99 145q-109 -38 -242 -38q-204 0 -355 86t-232 248t-81 382zM368 692q0 -217 101 -346.5t271 -129.5q51 0 99 13l-152 227h262l61 -83 q102 117 102 319q0 218 -101 348t-271 130t-271 -129.5t-101 -348.5z" />
<glyph unicode="R" horiz-adv-x="1263" d="M115 0v1385h572q238 0 369.5 -117.5t131.5 -323.5q0 -135 -66.5 -241.5t-184.5 -152.5l292 -550h-329l-258 507h-237v-507h-290zM405 717h255q109 0 170 59t61 162q0 101 -63.5 161t-170.5 60h-252v-442z" />
<glyph unicode="S" horiz-adv-x="1241" d="M63 395h280q10 -85 90 -137.5t196 -52.5q115 0 187.5 49.5t72.5 126.5q0 46 -24 78.5t-74.5 56.5t-134.5 43l-181 39q-381 82 -381 387q0 126 68 223t188 149t274 52q159 0 278.5 -51.5t184.5 -146t67 -218.5h-272q-7 87 -77 137.5t-180 50.5q-107 0 -173 -47t-66 -124 q0 -64 53 -103t173 -67l168 -36q208 -44 303.5 -137.5t95.5 -251.5q0 -202 -152 -320.5t-410 -118.5q-250 0 -398.5 112t-155.5 307z" />
<glyph unicode="T" horiz-adv-x="1192" d="M46 1146v239h1101v-239h-406v-1146h-290v1146h-405z" />
<glyph unicode="U" horiz-adv-x="1391" d="M115 490v895h290v-867q0 -135 76.5 -214t214.5 -79q137 0 213.5 79t76.5 214v867h290v-895q0 -152 -70.5 -268.5t-202.5 -181t-307 -64.5t-307.5 64.5t-203 181t-70.5 268.5z" />
<glyph unicode="V" horiz-adv-x="1333" d="M27 1385h324l317 -1086h7l317 1086h316l-466 -1385h-350z" />
<glyph unicode="W" horiz-adv-x="1897" d="M41 1385h301l218 -1003h7l260 1003h244l260 -1003h7l219 1003h301l-368 -1385h-274l-263 947h-8l-263 -947h-274z" />
<glyph unicode="X" horiz-adv-x="1347" d="M41 0l440 694v8l-437 683h341l294 -499h7l297 499h324l-454 -689v-7l448 -689h-330l-304 485h-7l-306 -485h-313z" />
<glyph unicode="Y" horiz-adv-x="1307" d="M27 1385h316l310 -591h7l311 591h311l-483 -868v-517h-290v517z" />
<glyph unicode="Z" horiz-adv-x="1240" d="M85 0v189l704 950v7h-687v239h1034v-188l-701 -950v-7h720v-240h-1070z" />
<glyph unicode="[" horiz-adv-x="724" d="M142 -230v1616h551v-206h-282v-1205h295v-205h-564z" />
<glyph unicode="\" horiz-adv-x="659" d="M0 1386h261l399 -1668h-256z" />
<glyph unicode="]" horiz-adv-x="724" d="M20 -25h295v1205h-282v206h551v-1616h-564v205z" />
<glyph unicode="^" horiz-adv-x="938" d="M34 790l313 587h248l311 -587h-252l-177 362h-16l-182 -362h-245z" />
<glyph unicode="_" horiz-adv-x="822" d="M-44 -103h911v-209h-911v209z" />
<glyph unicode="`" horiz-adv-x="969" d="M247 1510h262l212 -298h-222z" />
<glyph unicode="a" horiz-adv-x="1101" d="M52 304q0 144 106.5 224.5t309.5 92.5l264 16v71q0 75 -49 116t-136 41q-75 0 -125.5 -36t-60.5 -95h-256q5 152 130.5 246.5t323.5 94.5q203 0 326 -96t123 -254v-725h-271v163h-5q-43 -81 -132 -128t-192 -47q-154 0 -255 88t-101 228zM331 319q0 -58 46 -92.5 t122 -34.5q48 0 91 14.5t74.5 40t49.5 62.5t18 79v78l-221 -16q-44 -3 -77.5 -13t-56.5 -26.5t-34.5 -39.5t-11.5 -52z" />
<glyph unicode="b" horiz-adv-x="1201" d="M103 0v1452h280v-576h6q44 92 129 142.5t197 50.5q201 0 316 -144t115 -396t-115 -396.5t-315 -144.5q-115 0 -201.5 50.5t-130.5 141.5h-6v-180h-275zM381 528q1 -94 30.5 -165t84 -110t125.5 -39q109 0 173.5 85.5t64.5 229.5q0 143 -65 228.5t-173 85.5t-173.5 -86.5 t-66.5 -228.5z" />
<glyph unicode="c" horiz-adv-x="1096" d="M56 529q0 251 139.5 398.5t375.5 147.5q105 0 193 -30.5t148.5 -85t96.5 -129.5t41 -163h-261q-12 85 -68.5 136t-145.5 51q-108 0 -171.5 -87t-63.5 -238q0 -154 63 -239.5t173 -85.5q89 0 144.5 46.5t69.5 133.5h261q-12 -185 -141 -293.5t-337 -108.5 q-238 0 -377.5 146.5t-139.5 400.5z" />
<glyph unicode="d" horiz-adv-x="1199" d="M56 530q0 248 118 393.5t316 145.5q75 0 139.5 -23.5t111 -67t72.5 -102.5h6v576h280v-1452h-276v180h-5q-40 -88 -127 -140t-202 -52q-198 0 -315.5 146.5t-117.5 395.5zM343 529q0 -96 29 -167.5t83 -109.5t127 -38q109 0 174 85.5t65 228.5t-65.5 229t-173.5 86 q-110 0 -174.5 -85t-64.5 -229z" />
<glyph unicode="e" horiz-adv-x="1117" d="M56 524q0 252 137.5 401.5t370.5 149.5q228 0 363 -142t135 -383v-86h-730v-18q0 -114 68 -184.5t179 -70.5q79 0 137.5 35.5t78.5 96.5h258q-23 -154 -154.5 -247.5t-324.5 -93.5q-241 0 -379.5 145t-138.5 397zM335 637h456q-4 104 -65.5 166.5t-159.5 62.5 q-95 0 -159.5 -63.5t-71.5 -165.5z" />
<glyph unicode="f" horiz-adv-x="704" d="M27 845v212h143v94q0 153 79.5 220t262.5 67q65 0 129 -10v-194q-35 6 -77 6q-63 0 -91 -25t-29 -80v-78h198v-212h-192v-845h-280v845h-143z" />
<glyph unicode="g" horiz-adv-x="1194" d="M56 532q0 248 117 392.5t318 144.5q112 0 198.5 -51.5t128.5 -141.5h5v181h276v-1033q0 -188 -141.5 -299.5t-380.5 -111.5q-138 0 -245.5 38t-171 109t-70.5 165h277q13 -52 73 -83t144 -31q107 0 171 51.5t64 140.5v189h-6q-38 -85 -125.5 -135t-201.5 -50 q-195 0 -312.5 141.5t-117.5 383.5zM343 531q0 -144 63.5 -225.5t173.5 -81.5t175 82.5t65 223.5q0 143 -65.5 228t-174.5 85t-173 -84.5t-64 -227.5z" />
<glyph unicode="h" horiz-adv-x="1197" d="M103 0v1452h275v-584h6q22 50 55.5 88t77 64t96 39t113.5 13q176 0 278.5 -106.5t102.5 -289.5v-676h-280v617q0 104 -57 163t-158 59q-102 0 -165.5 -66t-63.5 -173v-600h-280z" />
<glyph unicode="i" horiz-adv-x="480" d="M89 1319q0 62 44 104t107 42t107.5 -42t44.5 -104t-44.5 -104.5t-107.5 -42.5q-31 0 -58.5 11.5t-48 31t-32.5 46.5t-12 58zM100 0v1057h280v-1057h-280z" />
<glyph unicode="j" horiz-adv-x="480" d="M-70 -151q6 -1 35 -1q73 0 104 28.5t31 94.5v1086h280v-1093q0 -80 -24 -141t-71 -102t-117.5 -61.5t-162.5 -20.5q-58 0 -75 3v207zM89 1319q0 62 44 104t107 42t107.5 -42t44.5 -104t-44.5 -104.5t-107.5 -42.5q-31 0 -58.5 11.5t-48 31t-32.5 46.5t-12 58z" />
<glyph unicode="k" horiz-adv-x="1080" d="M103 0v1452h280v-822h4l366 427h318l-407 -454l427 -603h-323l-309 434l-76 -82v-352h-280z" />
<glyph unicode="l" horiz-adv-x="484" d="M103 0v1452h280v-1452h-280z" />
<glyph unicode="m" horiz-adv-x="1738" d="M95 0v1057h271v-192h6q16 47 45.5 86t68.5 65.5t87 41t100 14.5q45 0 85.5 -9t74 -27t60 -44t45.5 -60t30 -76h5q36 100 125 158t204 58q155 0 250.5 -97t95.5 -257v-718h-280v648q0 93 -45.5 142.5t-131.5 49.5q-82 0 -133 -55.5t-51 -145.5v-639h-271v659q0 85 -46 133 t-127 48q-55 0 -97.5 -26t-66.5 -72.5t-24 -105.5v-636h-280z" />
<glyph unicode="n" horiz-adv-x="1177" d="M95 0v1057h271v-189h6q45 100 131.5 152t207.5 52q176 0 276.5 -104.5t100.5 -289.5v-678h-281v619q0 105 -54 162.5t-153 57.5q-66 0 -117.5 -29.5t-79.5 -83.5t-28 -123v-603h-280z" />
<glyph unicode="o" horiz-adv-x="1152" d="M56 529q0 253 141 399.5t380 146.5q240 0 380.5 -146.5t140.5 -399.5q0 -256 -139.5 -401.5t-381 -145.5t-381.5 146t-140 401zM340 529q0 -157 63 -244t174 -87q74 0 127 38.5t81 113.5t28 179q0 156 -63 243.5t-173 87.5q-111 0 -174 -88t-63 -243z" />
<glyph unicode="p" horiz-adv-x="1194" d="M95 -332v1389h277v-181h5q42 90 129.5 141.5t199.5 51.5q201 0 317.5 -144t116.5 -396t-115.5 -396.5t-315.5 -144.5q-113 0 -198.5 49.5t-129.5 140.5h-6v-510h-280zM374 528q0 -142 65.5 -228t172.5 -86q109 0 174.5 85.5t65.5 229.5q0 142 -65.5 228t-174.5 86 q-107 0 -172.5 -86.5t-65.5 -228.5z" />
<glyph unicode="q" horiz-adv-x="1194" d="M56 530q0 249 117 394t318 145q113 0 199 -51.5t128 -141.5h5v181h276v-1389h-280v510h-6q-39 -87 -126.5 -138.5t-200.5 -51.5q-198 0 -314 146t-116 396zM343 529q0 -145 63.5 -230t173 -85t175 85.5t65.5 228.5t-65.5 229t-174.5 86t-173 -85t-64 -229z" />
<glyph unicode="r" horiz-adv-x="728" d="M95 0v1057h271v-189h6q26 97 91.5 149t159.5 52q47 0 79 -10v-249q-38 18 -101 18q-106 0 -166 -63t-60 -174v-591h-280z" />
<glyph unicode="s" horiz-adv-x="1034" d="M51 320h273q11 -67 63 -103.5t139 -36.5q83 0 131.5 30.5t48.5 82.5q0 41 -30.5 65t-102.5 41l-195 45q-74 16 -130.5 44t-94.5 66t-57 86t-19 106q0 149 121 239t321 90q196 0 316 -92t123 -243h-259q-3 42 -26 72.5t-63.5 47t-93.5 16.5q-50 0 -88.5 -14t-59 -39.5 t-20.5 -59.5q0 -77 141 -110l198 -43q160 -36 228.5 -102.5t68.5 -184.5q0 -154 -128.5 -247.5t-337.5 -93.5q-206 0 -331 91.5t-136 246.5z" />
<glyph unicode="t" horiz-adv-x="711" d="M27 845v212h143v235h280v-235h196v-212h-196v-514q0 -61 31 -91t95 -30q41 0 70 5v-207q-58 -12 -135 -12q-184 0 -262.5 67t-78.5 222v560h-143z" />
<glyph unicode="u" horiz-adv-x="1177" d="M90 379v678h281v-619q0 -106 55.5 -163t154 -57t160.5 65t62 172v602h280v-1057h-271v191h-6q-40 -99 -126 -152.5t-206 -53.5q-114 0 -200.5 47t-135 136.5t-48.5 210.5z" />
<glyph unicode="v" horiz-adv-x="1061" d="M8 1057h299l225 -806h6l223 806h293l-365 -1057h-315z" />
<glyph unicode="w" horiz-adv-x="1587" d="M19 1057h282l164 -789h5l191 789h269l192 -789h6l164 789h277l-282 -1057h-297l-195 753h-6l-193 -753h-295z" />
<glyph unicode="x" horiz-adv-x="1059" d="M22 0l334 527l-331 530h316l194 -360h5l193 360h305l-332 -523l330 -534h-306l-204 370h-6l-202 -370h-296z" />
<glyph unicode="y" horiz-adv-x="1090" d="M12 1057h308l228 -829h6l229 829h296l-366 -1078q-45 -136 -107.5 -215t-152.5 -114.5t-224 -35.5q-85 0 -106 4v217q14 -3 63 -3q79 0 125 29t62 92l10 40z" />
<glyph unicode="z" horiz-adv-x="1016" d="M75 0v161l531 676v5h-523v215h847v-179l-500 -657v-6h513v-215h-868z" />
<glyph unicode="{" horiz-adv-x="803" d="M117 457v258q91 0 126 44t35 157v183q0 190 98 274t318 84h100v-203h-42q-118 0 -162.5 -43t-44.5 -156v-232q0 -106 -48 -160t-150 -63v-29q98 -8 148 -68.5t50 -169.5v-255q0 -77 19.5 -119.5t63.5 -61t124 -18.5h42v-203h-100q-219 0 -317.5 86.5t-98.5 279.5v216 q0 113 -35 156t-126 43z" />
<glyph unicode="|" horiz-adv-x="578" d="M158 -281v1666h262v-1666h-262z" />
<glyph unicode="}" horiz-adv-x="803" d="M10 -121h43q116 0 160.5 43t44.5 156v255q0 109 51 169.5t150 68.5v29q-103 9 -152 63.5t-49 159.5v232q0 77 -19 119t-63 61t-123 19h-43v203h100q148 0 239 -37t133.5 -115t42.5 -206v-183q0 -113 35.5 -157t126.5 -44v-258q-91 0 -126.5 -43.5t-35.5 -155.5v-216 q0 -193 -98 -279.5t-317 -86.5h-100v203z" />
<glyph unicode="~" horiz-adv-x="1151" d="M66 507q-8 187 75 297t233 110q65 0 125 -30t125 -95q41 -43 70.5 -60.5t61.5 -17.5q52 0 80.5 44t30.5 127h219q8 -187 -75 -297t-233 -110q-65 0 -123.5 29.5t-123.5 94.5q-44 44 -73.5 61.5t-61.5 17.5q-106 0 -111 -171h-219z" />
<glyph unicode="&#xa2;" d="M110 675q0 213 114.5 356.5t307.5 179.5v179h232v-176q167 -25 278 -134t122 -262h-262q-11 55 -44 96.5t-84 64t-113 22.5q-118 0 -193.5 -89t-75.5 -237q0 -150 75 -240.5t193 -90.5q99 0 162 44.5t80 131.5h262q-14 -155 -122.5 -260.5t-277.5 -129.5v-175h-232v179 q-194 37 -308 181t-114 360z" />
<glyph unicode="&#xa3;" d="M102 0v223q129 19 210 106t81 207q0 31 -7 73h-280v198h215q-28 69 -42.5 123.5t-14.5 111.5q0 180 140.5 279.5t395.5 99.5q57 0 118.5 -6.5t113.5 -17.5t84 -24v-227q-47 21 -126 35t-154 14q-134 0 -207.5 -51.5t-73.5 -144.5q0 -73 43 -192h398v-198h-336 q4 -37 4 -55q0 -98 -48 -180.5t-121 -127.5v-8h686v-238h-1079z" />
<glyph unicode="&#xa5;" d="M10 1385h314l310 -588h8l307 588h314l-408 -732h188v-160h-261v-130h261v-159h-261v-204h-290v204h-260v159h260v130h-260v160h188z" />
<glyph unicode="&#xa8;" horiz-adv-x="969" d="M155 1334.5q0 52.5 37 89t92 36.5t92.5 -36.5t37.5 -89t-37.5 -89t-92.5 -36.5t-92 36.5t-37 89zM557 1334.5q0 34.5 16.5 63t46.5 45.5t66 17q55 0 92.5 -36.5t37.5 -89t-37.5 -89t-92.5 -36.5q-36 0 -66 17t-46.5 45.5t-16.5 63z" />
<glyph unicode="&#xa9;" horiz-adv-x="1629" d="M58 624q0 157 59.5 297.5t161 241t241.5 159.5t295 59q156 0 296 -59t241 -159.5t160.5 -241t59.5 -297.5q0 -156 -59.5 -296.5t-160.5 -241.5t-241.5 -160t-295.5 -59q-89 0 -174 19.5t-160 56.5t-140.5 88.5t-117 117t-89 140t-57 160.5t-19.5 175zM215 624 q0 -124 47.5 -235.5t127.5 -191.5t191 -126.5t234 -46.5t234 46.5t191 126.5t127 191.5t47 235.5q0 125 -47 236.5t-127 191.5t-191 126.5t-234 46.5t-234 -46.5t-191.5 -126.5t-127.5 -191.5t-47 -236.5zM463 626q0 116 44.5 202.5t127 132.5t193.5 46q96 0 170.5 -36 t117 -98t51.5 -143h-180q-11 55 -52 89t-104 34q-81 0 -127.5 -60t-46.5 -167q0 -72 21 -124t60.5 -79t92.5 -27q63 0 103.5 30.5t52.5 86.5h180q-13 -124 -103 -197.5t-234 -73.5q-169 0 -268 103t-99 281z" />
<glyph unicode="&#xab;" horiz-adv-x="1301" d="M108 540v7l335 395h260l-332 -393v-9l332 -395h-264zM599 540v7l334 395h260l-332 -393v-9l332 -395h-264z" />
<glyph unicode="&#xad;" horiz-adv-x="868" d="M119 433v245h631v-245h-631z" />
<glyph unicode="&#xae;" horiz-adv-x="1087" d="M77 970.5q0 94.5 37 180.5t99.5 148t149 98.5t181.5 36.5q77 0 148 -23t128.5 -66t100.5 -100t66.5 -128t23.5 -146q0 -76 -23.5 -146.5t-66.5 -127.5t-100.5 -100t-128.5 -66t-148 -23q-95 0 -181.5 36.5t-149 98.5t-99.5 147.5t-37 180zM203 971q0 -94 45 -172 t124 -123.5t172.5 -45.5t172 45.5t123.5 123.5t45 172q0 93 -45 171.5t-123.5 124t-172 45.5t-172.5 -45.5t-124 -124t-45 -171.5zM357 767v425h223q47 0 83 -17t55.5 -48t19.5 -71q0 -48 -24 -82.5t-65 -45.5l111 -161h-137l-92 145h-60v-145h-114zM471 996h83q20 0 34 6 t21.5 18t7.5 29q0 53 -61 53h-85v-106z" />
<glyph unicode="&#xb4;" horiz-adv-x="969" d="M249 1212l212 298h262l-253 -298h-221z" />
<glyph unicode="&#xb8;" horiz-adv-x="969" d="M323 -312q38 -13 106 -13q103 0 103 52q0 30 -27.5 42t-92.5 12h-54v97l61 134l139 -12l-47 -111q84 0 130.5 -40t46.5 -113q0 -83 -61 -130.5t-170 -48.5q-84 0 -134 16v115z" />
<glyph unicode="&#xbb;" horiz-adv-x="1301" d="M108 145l333 395v9l-333 393h261l334 -395v-7l-331 -395h-264zM599 145l332 395v9l-332 393h260l334 -395v-7l-330 -395h-264z" />
<glyph unicode="&#xc0;" horiz-adv-x="1356" d="M27 0l481 1385h341l482 -1385h-309l-105 336h-487l-106 -336h-297zM306 1793h262l223 -297h-218zM492 553h362l-177 567h-7z" />
<glyph unicode="&#xc2;" horiz-adv-x="1356" d="M27 0l481 1385h341l482 -1385h-309l-105 336h-487l-106 -336h-297zM306 1481l263 306h219l263 -306h-213l-156 189h-6l-157 -189h-213zM492 553h362l-177 567h-7z" />
<glyph unicode="&#xc6;" horiz-adv-x="1957" d="M27 0l588 1385h1220v-239h-643v-339h607v-222h-607v-346h643v-239h-908v358h-459l-152 -358h-289zM552 575h375v588h-130z" />
<glyph unicode="&#xc7;" horiz-adv-x="1400" d="M72 693q0 221 80 383t228 247.5t348 85.5q165 0 299.5 -65t216 -184t92.5 -272h-282q-20 127 -109.5 204t-216.5 77q-109 0 -190.5 -57.5t-125.5 -165t-44 -252.5q0 -221 97 -349.5t264 -128.5q128 0 215.5 71t110.5 194h282q-23 -215 -168.5 -349.5t-373.5 -152.5 l-39 -90q85 0 131.5 -40t46.5 -113q0 -83 -61.5 -130.5t-169.5 -48.5q-84 0 -135 16v115q39 -13 107 -13q103 0 103 52q0 30 -27.5 42t-92.5 12h-54v97l46 102q-270 24 -424 212.5t-154 500.5z" />
<glyph unicode="&#xc8;" horiz-adv-x="1127" d="M115 0v1385h918v-239h-628v-334h592v-223h-592v-349h628v-240h-918zM202 1793h262l222 -297h-218z" />
<glyph unicode="&#xc9;" horiz-adv-x="1127" d="M115 0v1385h918v-239h-628v-334h592v-223h-592v-349h628v-240h-918zM460 1491l223 297h262l-266 -297h-219z" />
<glyph unicode="&#xca;" horiz-adv-x="1127" d="M115 0v1385h918v-239h-628v-334h592v-223h-592v-349h628v-240h-918zM202 1481l263 306h219l263 -306h-214l-156 189h-6l-156 -189h-213z" />
<glyph unicode="&#xcb;" horiz-adv-x="1127" d="M115 0v1385h918v-239h-628v-334h592v-223h-592v-349h628v-240h-918zM244 1624.5q0 52.5 37 89t92 36.5t92.5 -36.5t37.5 -89t-37.5 -89t-92.5 -36.5t-92 36.5t-37 89zM646 1624.5q0 52.5 37.5 89t92.5 36.5t92 -36.5t37 -89t-37 -89t-92 -36.5t-92.5 36.5t-37.5 89z" />
<glyph unicode="&#xce;" horiz-adv-x="520" d="M-112 1481l263 306h219l263 -306h-213l-157 189h-6l-156 -189h-213zM115 0v1385h290v-1385h-290z" />
<glyph unicode="&#xcf;" horiz-adv-x="520" d="M-70 1624.5q0 52.5 37.5 89t92 36.5t92 -36.5t37.5 -89t-37.5 -89t-92 -36.5t-92 36.5t-37.5 89zM115 0v1385h290v-1385h-290zM332 1624.5q0 52.5 37.5 89t92.5 36.5t92 -36.5t37 -89t-37 -89t-92 -36.5t-92.5 36.5t-37.5 89z" />
<glyph unicode="&#xd4;" horiz-adv-x="1479" d="M72 692q0 219 81 381.5t232 249t355 86.5t355 -86.5t232 -249t81 -381.5q0 -218 -81 -380t-232 -249t-355 -87t-355 87t-232 249t-81 380zM368 692q0 -217 100.5 -345t271.5 -128q170 0 271 128t101 345q0 218 -101 346.5t-271 128.5t-271 -128.5t-101 -346.5zM368 1481 l263 306h219l263 -306h-213l-157 189h-6l-156 -189h-213z" />
<glyph unicode="&#xd9;" horiz-adv-x="1391" d="M115 490v895h290v-867q0 -135 76.5 -214t214.5 -79q137 0 213.5 79t76.5 214v867h290v-895q0 -152 -70.5 -268.5t-202.5 -181t-307 -64.5t-307.5 64.5t-203 181t-70.5 268.5zM324 1793h262l222 -297h-218z" />
<glyph unicode="&#xdb;" horiz-adv-x="1391" d="M115 490v895h290v-867q0 -135 76.5 -214t214.5 -79q137 0 213.5 79t76.5 214v867h290v-895q0 -152 -70.5 -268.5t-202.5 -181t-307 -64.5t-307.5 64.5t-203 181t-70.5 268.5zM324 1481l263 306h218l263 -306h-213l-156 189h-6l-156 -189h-213z" />
<glyph unicode="&#xdc;" horiz-adv-x="1391" d="M115 490v895h290v-867q0 -135 76.5 -214t214.5 -79q137 0 213.5 79t76.5 214v867h290v-895q0 -152 -70.5 -268.5t-202.5 -181t-307 -64.5t-307.5 64.5t-203 181t-70.5 268.5zM366 1624.5q0 52.5 37 89t92 36.5t92.5 -36.5t37.5 -89t-37.5 -89t-92.5 -36.5t-92 36.5 t-37 89zM768 1624.5q0 52.5 37.5 89t92.5 36.5t92 -36.5t37 -89t-37 -89t-92 -36.5t-92.5 36.5t-37.5 89z" />
<glyph unicode="&#xe0;" horiz-adv-x="1101" d="M52 304q0 144 106.5 224.5t309.5 92.5l264 16v71q0 75 -49 116t-136 41q-75 0 -125.5 -36t-60.5 -95h-256q5 152 130.5 246.5t323.5 94.5q203 0 326 -96t123 -254v-725h-271v163h-5q-43 -81 -132 -128t-192 -47q-154 0 -255 88t-101 228zM195 1510h262l212 -298h-222z M331 319q0 -58 46 -92.5t122 -34.5q48 0 91 14.5t74.5 40t49.5 62.5t18 79v78l-221 -16q-44 -3 -77.5 -13t-56.5 -26.5t-34.5 -39.5t-11.5 -52z" />
<glyph unicode="&#xe2;" horiz-adv-x="1101" d="M52 304q0 144 106.5 224.5t309.5 92.5l264 16v71q0 75 -49 116t-136 41q-75 0 -125.5 -36t-60.5 -95h-256q5 152 130.5 246.5t323.5 94.5q203 0 326 -96t123 -254v-725h-271v163h-5q-43 -81 -132 -128t-192 -47q-154 0 -255 88t-101 228zM194 1203l255 305h211l255 -305 h-214l-143 181h-7l-142 -181h-215zM331 319q0 -58 46 -92.5t122 -34.5q48 0 91 14.5t74.5 40t49.5 62.5t18 79v78l-221 -16q-44 -3 -77.5 -13t-56.5 -26.5t-34.5 -39.5t-11.5 -52z" />
<glyph unicode="&#xe6;" horiz-adv-x="1770" d="M52 302q0 144 106.5 225.5t309.5 92.5l264 15v64q0 74 -51.5 120t-136.5 46q-52 0 -93 -16t-65.5 -45.5t-28.5 -69.5h-257q8 153 128.5 247t309.5 94q124 0 214 -42.5t133 -118.5h9q53 77 140 119t198 42q220 0 351.5 -142.5t131.5 -382.5v-85h-721v-19q0 -115 67 -185 t177 -70q79 0 134.5 35t75.5 97h258q-24 -155 -152.5 -248t-318.5 -93q-132 0 -234.5 52.5t-153.5 145.5h-9q-56 -93 -155 -142.5t-234 -49.5q-179 0 -288 87t-109 227zM331 319q0 -59 44 -93t119 -34q34 0 65 7t57 19.5t48 30t37 39t23 47.5t8 53v75l-223 -14 q-86 -5 -132 -39t-46 -91zM996 637h448q-3 70 -30.5 121.5t-76 79.5t-111.5 28q-96 0 -159 -63t-71 -166z" />
<glyph unicode="&#xe7;" horiz-adv-x="1096" d="M56 529q0 251 139.5 398.5t375.5 147.5q105 0 193 -30.5t148.5 -85t96.5 -129.5t41 -163h-261q-12 85 -68.5 136t-145.5 51q-108 0 -171.5 -87t-63.5 -238q0 -154 63 -239.5t173 -85.5q89 0 144.5 46.5t69.5 133.5h261q-11 -168 -120.5 -274.5t-289.5 -124.5l-40 -96 q84 0 131 -40t47 -113q0 -83 -61.5 -130.5t-170.5 -48.5q-84 0 -134 16v115q38 -13 106 -13q103 0 103 52q0 30 -27.5 42t-92.5 12h-54v97l49 108q-205 24 -323 167.5t-118 375.5z" />
<glyph unicode="&#xe8;" horiz-adv-x="1117" d="M56 524q0 252 137.5 401.5t370.5 149.5q228 0 363 -142t135 -383v-86h-730v-18q0 -114 68 -184.5t179 -70.5q79 0 137.5 35.5t78.5 96.5h258q-23 -154 -154.5 -247.5t-324.5 -93.5q-241 0 -379.5 145t-138.5 397zM203 1510h262l212 -298h-222zM335 637h456 q-4 104 -65.5 166.5t-159.5 62.5q-95 0 -159.5 -63.5t-71.5 -165.5z" />
<glyph unicode="&#xe9;" horiz-adv-x="1117" d="M56 524q0 252 137.5 401.5t370.5 149.5q228 0 363 -142t135 -383v-86h-730v-18q0 -114 68 -184.5t179 -70.5q79 0 137.5 35.5t78.5 96.5h258q-23 -154 -154.5 -247.5t-324.5 -93.5q-241 0 -379.5 145t-138.5 397zM335 637h456q-4 104 -65.5 166.5t-159.5 62.5 q-95 0 -159.5 -63.5t-71.5 -165.5zM448 1212l212 298h263l-253 -298h-222z" />
<glyph unicode="&#xea;" horiz-adv-x="1117" d="M56 524q0 252 137.5 401.5t370.5 149.5q228 0 363 -142t135 -383v-86h-730v-18q0 -114 68 -184.5t179 -70.5q79 0 137.5 35.5t78.5 96.5h258q-23 -154 -154.5 -247.5t-324.5 -93.5q-241 0 -379.5 145t-138.5 397zM202 1203l255 305h210l256 -305h-215l-143 181h-6 l-142 -181h-215zM335 637h456q-4 104 -65.5 166.5t-159.5 62.5q-95 0 -159.5 -63.5t-71.5 -165.5z" />
<glyph unicode="&#xeb;" horiz-adv-x="1117" d="M56 524q0 252 137.5 401.5t370.5 149.5q228 0 363 -142t135 -383v-86h-730v-18q0 -114 68 -184.5t179 -70.5q79 0 137.5 35.5t78.5 96.5h258q-23 -154 -154.5 -247.5t-324.5 -93.5q-241 0 -379.5 145t-138.5 397zM232 1334q0 35 17 63.5t47 45.5t66 17q55 0 92.5 -36.5 t37.5 -89t-37.5 -89t-92.5 -36.5t-92.5 36.5t-37.5 88.5zM335 637h456q-4 104 -65.5 166.5t-159.5 62.5q-95 0 -159.5 -63.5t-71.5 -165.5zM635 1334q0 35 16.5 63.5t46.5 45.5t66 17q55 0 92.5 -36.5t37.5 -89t-37.5 -89t-92.5 -36.5t-92 36.5t-37 88.5z" />
<glyph unicode="&#xee;" horiz-adv-x="480" d="M-121 1203l255 305h211l255 -305h-214l-143 181h-7l-142 -181h-215zM100 0v1057h280v-1057h-280z" />
<glyph unicode="&#xef;" horiz-adv-x="480" d="M-90 1334.5q0 52.5 37 89t92 36.5t92.5 -36.5t37.5 -89t-37.5 -89t-92.5 -36.5t-92 36.5t-37 89zM100 0v1057h280v-1057h-280zM312 1334q0 35 17 63.5t46.5 45.5t66.5 17q27 0 51 -10t41 -27t27 -40t10 -49q0 -52 -37 -88.5t-92 -36.5t-92.5 36.5t-37.5 88.5z" />
<glyph unicode="&#xf4;" horiz-adv-x="1152" d="M56 529q0 253 141 399.5t380 146.5q240 0 380.5 -146.5t140.5 -399.5q0 -256 -139.5 -401.5t-381 -145.5t-381.5 146t-140 401zM216 1203l255 305h211l255 -305h-214l-143 181h-7l-142 -181h-215zM340 529q0 -157 63 -244t174 -87q74 0 127 38.5t81 113.5t28 179 q0 156 -63 243.5t-173 87.5q-111 0 -174 -88t-63 -243z" />
<glyph unicode="&#xf9;" horiz-adv-x="1177" d="M90 379v678h281v-619q0 -106 55.5 -163t154 -57t160.5 65t62 172v602h280v-1057h-271v191h-6q-40 -99 -126 -152.5t-206 -53.5q-114 0 -200.5 47t-135 136.5t-48.5 210.5zM228 1510h262l212 -298h-222z" />
<glyph unicode="&#xfb;" horiz-adv-x="1177" d="M90 379v678h281v-619q0 -106 55.5 -163t154 -57t160.5 65t62 172v602h280v-1057h-271v191h-6q-40 -99 -126 -152.5t-206 -53.5q-114 0 -200.5 47t-135 136.5t-48.5 210.5zM227 1203l255 305h210l256 -305h-215l-143 181h-6l-142 -181h-215z" />
<glyph unicode="&#xfc;" horiz-adv-x="1177" d="M90 379v678h281v-619q0 -106 55.5 -163t154 -57t160.5 65t62 172v602h280v-1057h-271v191h-6q-40 -99 -126 -152.5t-206 -53.5q-114 0 -200.5 47t-135 136.5t-48.5 210.5zM257 1334q0 35 17 63.5t47 45.5t66 17t66 -17t46.5 -45.5t16.5 -63t-16.5 -63t-46.5 -45.5 t-66 -17q-55 0 -92.5 36.5t-37.5 88.5zM660 1334q0 35 16.5 63.5t46.5 45.5t66 17q55 0 92.5 -36.5t37.5 -89t-37.5 -89t-92.5 -36.5t-92 36.5t-37 88.5z" />
<glyph unicode="&#xff;" horiz-adv-x="1090" d="M12 1057h308l228 -829h6l229 829h296l-366 -1078q-45 -136 -107.5 -215t-152.5 -114.5t-224 -35.5q-85 0 -106 4v217q14 -3 63 -3q79 0 125 29t62 92l10 40zM216 1334q0 35 17 63.5t46.5 45.5t66 17t66.5 -17t46.5 -45.5t16.5 -63t-16.5 -63t-46.5 -45.5t-66 -17 q-55 0 -92.5 36.5t-37.5 88.5zM618 1334.5q0 52.5 37.5 89t92.5 36.5q27 0 51 -10t41.5 -27t27 -40t9.5 -49q0 -52 -37 -88.5t-92 -36.5t-92.5 36.5t-37.5 89z" />
<glyph unicode="&#x152;" horiz-adv-x="2127" d="M77 692q0 129 29.5 242t84.5 201t132 151t174.5 96.5t208.5 33.5q152 0 270.5 -68.5t178.5 -191.5v229h879v-239h-618v-334h582v-223h-582v-349h618v-240h-879v227q-52 -116 -176.5 -187t-276.5 -71q-137 0 -253.5 52.5t-198 146.5t-127.5 229t-46 295zM372 692 q0 -217 102 -346.5t273.5 -129.5t273.5 129.5t102 346.5q0 218 -102 348t-273 130q-172 0 -274 -130t-102 -348z" />
<glyph unicode="&#x153;" horiz-adv-x="1866" d="M56 526q0 250 138.5 399.5t369.5 149.5q255 0 383 -189h13q35 58 92 101t129.5 65.5t151.5 22.5q217 0 348 -143.5t131 -381.5v-86h-720v-26q0 -111 67.5 -179t178.5 -68q78 0 133.5 33t73.5 89h258q-15 -96 -78.5 -171.5t-162.5 -117.5t-217 -42q-127 0 -229 49.5 t-156 138.5h-13q-65 -96 -158 -142t-222 -46q-234 0 -372.5 148t-138.5 396zM333 527q0 -152 62 -237.5t172 -85.5q111 0 173.5 85.5t62.5 238.5t-62.5 239.5t-173.5 86.5q-73 0 -125.5 -39t-80.5 -112.5t-28 -175.5zM1092 637h446q-4 104 -63.5 167t-154.5 63 q-96 0 -159.5 -64t-68.5 -166z" />
<glyph unicode="&#x178;" horiz-adv-x="1307" d="M27 1385h316l310 -591h7l311 591h311l-483 -868v-517h-290v517zM324 1624.5q0 52.5 37 89t92 36.5t92.5 -36.5t37.5 -89t-37.5 -89t-92.5 -36.5t-92 36.5t-37 89zM726 1624q0 35 16.5 63.5t46.5 45.5t66 17q55 0 92.5 -36.5t37.5 -89t-37.5 -89t-92.5 -36.5t-92 36.5 t-37 88.5z" />
<glyph unicode="&#x2c6;" horiz-adv-x="970" d="M125 1203l255 305h210l256 -305h-214l-143 181h-7l-142 -181h-215z" />
<glyph unicode="&#x2da;" horiz-adv-x="990" d="M283 1371q0 85 63 146.5t149 61.5q88 0 150.5 -61t62.5 -147t-62.5 -147t-150.5 -61q-56 0 -105 28t-78 76t-29 104zM397 1370.5q0 -39.5 29.5 -67.5t68.5 -28q41 0 69.5 28t28.5 68t-28.5 68.5t-69.5 28.5q-39 0 -68.5 -29t-29.5 -68.5z" />
<glyph unicode="&#x2dc;" horiz-adv-x="970" d="M150 1224q0 121 57.5 190.5t148.5 69.5q38 0 71.5 -13.5t56.5 -32.5t43.5 -38t40.5 -32t39 -13q61 0 62 117h152q0 -120 -58.5 -192t-147.5 -72q-36 0 -68.5 13.5t-55.5 32.5t-43 38t-40.5 32.5t-39.5 13.5q-32 0 -49 -31t-18 -83h-151z" />
<glyph unicode="&#x401;" horiz-adv-x="1156" d="M125 0v1385h918v-239h-628v-334h592v-223h-592v-349h628v-240h-918zM253 1624.5q0 52.5 37.5 89t92.5 36.5t92.5 -36.5t37.5 -89t-37.5 -89t-92.5 -36.5t-92.5 36.5t-37.5 89zM656 1624q0 35 16.5 63.5t46.5 45.5t66 17q55 0 92.5 -36.5t37.5 -89t-37.5 -89t-92.5 -36.5 t-92 36.5t-37 88.5z" />
<glyph unicode="&#x402;" horiz-adv-x="1673" d="M60 1146v239h1103v-239h-407v-392h8q125 117 334 117q113 0 204 -34.5t151 -96t92 -145.5t32 -183q0 -142 -58 -249.5t-169 -167t-261 -59.5q-35 0 -67 3t-49.5 6.5t-24.5 6.5v228q35 -12 114 -12q105 0 164.5 60t59.5 167q0 69 -29.5 121t-85 80t-130.5 28 q-94 0 -172 -43.5t-113 -112.5v-468h-289v1146h-407z" />
<glyph unicode="&#x403;" horiz-adv-x="1088" d="M135 0v1385h893v-240h-602v-1145h-291zM479 1476l223 298h262l-266 -298h-219z" />
<glyph unicode="&#x404;" horiz-adv-x="1419" d="M84 693q0 221 79.5 385t228 251t347.5 87q120 0 226 -36.5t185.5 -102t130.5 -158t65 -201.5h-285q-28 114 -115 182.5t-207 68.5q-142 0 -238.5 -95.5t-113.5 -258.5h543v-225h-545q8 -114 55.5 -199t125 -130t174.5 -45q122 0 207 63t115 174h285q-33 -222 -197 -353 t-411 -131q-200 0 -348 87.5t-227.5 251t-79.5 385.5z" />
<glyph unicode="&#x405;" horiz-adv-x="1261" d="M73 395h279q10 -85 90 -137.5t196 -52.5q76 0 135.5 23t92.5 63t33 90q0 68 -54 109t-180 69l-180 39q-381 82 -381 387q0 126 67.5 223t188 149t274.5 52q240 0 383 -113.5t147 -302.5h-272q-7 87 -77.5 137.5t-179.5 50.5q-108 0 -173.5 -47t-65.5 -124q0 -43 23.5 -74 t72.5 -54.5t130 -41.5l168 -36q208 -44 303 -137.5t95 -251.5q0 -202 -151.5 -320.5t-409.5 -118.5q-250 0 -399 112t-155 307z" />
<glyph unicode="&#x406;" horiz-adv-x="602" d="M125 0v1385h290v-1385h-290z" />
<glyph unicode="&#x407;" horiz-adv-x="602" d="M-60 1624.5q0 52.5 37 89t92 36.5t92.5 -36.5t37.5 -89t-37.5 -89t-92.5 -36.5t-92 36.5t-37 89zM125 0v1385h290v-1385h-290zM342 1624.5q0 52.5 37 89t92 36.5t92.5 -36.5t37.5 -89t-37.5 -89t-92.5 -36.5t-92 36.5t-37 89z" />
<glyph unicode="&#x408;" horiz-adv-x="1116" d="M39 408h282q1 -84 51.5 -135t132.5 -51q91 0 138.5 54.5t47.5 159.5v949h290v-951q0 -220 -125 -341.5t-348 -121.5q-213 0 -341 119t-128 318z" />
<glyph unicode="&#x409;" horiz-adv-x="2136" d="M58 1v253q35 -7 64 -7q41 0 72 16t50.5 43t32.5 69.5t19 87t9 103.5l42 819h953v-464h268q144 0 256.5 -57.5t175 -162t62.5 -240.5q0 -137 -60 -242t-169 -162t-250 -57h-573v1146h-404l-34 -599q-5 -105 -21.5 -189t-48 -154.5t-77 -117.5t-112 -72.5t-151.5 -25.5 q-68 0 -104 13zM1300 231h206q124 0 192 59.5t68 170.5t-68.5 171t-193.5 60h-204v-461z" />
<glyph unicode="&#x40a;" horiz-adv-x="2137" d="M135 0v1385h290v-553h595v553h290v-553h269q146 0 258.5 -51t174.5 -144.5t62 -214.5q0 -189 -133 -305.5t-347 -116.5h-574v598h-595v-598h-290zM1310 231h221q120 0 185 50.5t65 142.5q0 87 -65.5 135t-185.5 48h-220v-376z" />
<glyph unicode="&#x40b;" horiz-adv-x="1682" d="M60 1146v239h1103v-239h-407v-391h8q122 116 326 116q149 0 256.5 -63t162 -175t54.5 -261v-372h-290v354q0 128 -63.5 199t-179.5 71q-90 0 -164.5 -44t-109.5 -112v-468h-289v1146h-407z" />
<glyph unicode="&#x40c;" horiz-adv-x="1321" d="M135 0v1385h290v-586h8l512 586h327l-574 -655l619 -730h-362l-522 609h-8v-609h-290zM556 1476l223 298h262l-266 -298h-219z" />
<glyph unicode="&#x40e;" horiz-adv-x="1282" d="M36 1385h308l304 -770h8l290 770h305l-424 -989q-48 -109 -94 -182.5t-104 -126t-129.5 -76t-163.5 -23.5q-41 0 -77 5t-43 9v236q29 -9 84 -9q67 0 114 23t82 78zM319 1764h169q1 -72 46.5 -116.5t117.5 -44.5t117.5 44.5t46.5 116.5h169q0 -134 -92.5 -215.5 t-241 -81.5t-240.5 81.5t-92 215.5z" />
<glyph unicode="&#x40f;" horiz-adv-x="1460" d="M135 0v1385h290v-1146h610v1146h290v-1385h-459v-274h-272v274h-459z" />
<glyph unicode="&#x410;" horiz-adv-x="1375" d="M36 0l481 1385h341l482 -1385h-308l-106 336h-486l-106 -336h-298zM502 553h362l-178 567h-6z" />
<glyph unicode="&#x411;" horiz-adv-x="1265" d="M135 0v1385h921v-239h-631v-281h269q143 0 254.5 -53t173.5 -151t62 -224q0 -130 -60.5 -229.5t-169.5 -153.5t-250 -54h-569zM425 231h207q121 0 188 53t67 153t-67 153.5t-189 53.5h-206v-413z" />
<glyph unicode="&#x412;" horiz-adv-x="1296" d="M125 0v1385h611q195 0 309.5 -93t114.5 -252q0 -113 -75 -198.5t-185 -102.5v-7q142 -11 234 -105t92 -231q0 -183 -129 -289.5t-350 -106.5h-622zM415 216h258q125 0 191 52t66 152q0 97 -67.5 147.5t-196.5 50.5h-251v-402zM415 809h217q115 0 179 49t64 137 q0 83 -56 128.5t-158 45.5h-246v-360z" />
<glyph unicode="&#x413;" horiz-adv-x="1088" d="M135 0v1385h893v-240h-602v-1145h-291z" />
<glyph unicode="&#x414;" horiz-adv-x="1498" d="M24 240h97q69 47 98 130t38 233l48 782h982v-1145h173v-514h-262v274h-911v-274h-263v514zM432 240h565v907h-436l-37 -566q-8 -126 -28 -204t-64 -129v-8z" />
<glyph unicode="&#x415;" horiz-adv-x="1156" d="M125 0v1385h918v-239h-628v-334h592v-223h-592v-349h628v-240h-918z" />
<glyph unicode="&#x416;" horiz-adv-x="1981" d="M17 0l567 724l-534 661h328l462 -586h8v586h282v-586h8l462 586h323l-530 -656l572 -729h-355l-472 609h-8v-609h-282v609h-8l-475 -609h-348z" />
<glyph unicode="&#x417;" horiz-adv-x="1234" d="M70 394h278q6 -90 79 -142.5t191 -52.5q112 0 180.5 56t68.5 147t-67.5 142t-186.5 51h-186v226h184q68 0 121 23.5t82.5 67t29.5 100.5q0 85 -61.5 134t-168.5 49q-71 0 -125.5 -24t-85.5 -69t-34 -106h-268q7 196 147.5 310.5t373.5 114.5q147 0 260.5 -47.5 t175.5 -132.5t62 -196q0 -117 -72 -204.5t-189 -111.5v-8q140 -16 222.5 -107.5t82.5 -230.5q0 -120 -70 -215.5t-195.5 -149.5t-283.5 -54q-157 0 -278.5 53t-191 150.5t-75.5 226.5z" />
<glyph unicode="&#x418;" horiz-adv-x="1479" d="M135 0v1385h289v-938h12l629 938h279v-1385h-289v937h-11l-629 -937h-280z" />
<glyph unicode="&#x419;" horiz-adv-x="1479" d="M135 0v1385h289v-938h12l629 938h279v-1385h-289v937h-11l-629 -937h-280zM401 1764h169q2 -72 47 -116.5t117.5 -44.5t117.5 44.5t47 116.5h169q0 -134 -92.5 -215.5t-241 -81.5t-241 81.5t-92.5 215.5z" />
<glyph unicode="&#x41a;" horiz-adv-x="1337" d="M135 0v1385h290v-586h8l512 586h327l-574 -655l619 -730h-362l-522 609h-8v-609h-290z" />
<glyph unicode="&#x41b;" horiz-adv-x="1420" d="M43 1v253q36 -7 65 -7q92 0 133.5 77.5t49.5 241.5l41 819h953v-1385h-289v1146h-405l-33 -599q-15 -278 -112 -418.5t-298 -140.5q-66 0 -105 13z" />
<glyph unicode="&#x41c;" horiz-adv-x="1737" d="M125 0v1385h336l393 -982h8l394 982h336v-1385h-259v935h-7l-377 -922h-182l-376 922h-8v-935h-258z" />
<glyph unicode="&#x41d;" horiz-adv-x="1474" d="M125 0v1385h290v-562h624v562h290v-1385h-290v584h-624v-584h-290z" />
<glyph unicode="&#x41e;" horiz-adv-x="1503" d="M82 692q0 219 81 381.5t232 249t355 86.5q203 0 354 -86.5t232.5 -249t81.5 -381.5q0 -218 -81.5 -380t-232.5 -249t-354 -87q-204 0 -355 87t-232 249t-81 380zM377 692q0 -217 101 -345t272 -128q84 0 153.5 33.5t117.5 94.5t74 149.5t26 195.5q0 144 -45.5 252 t-129.5 165.5t-196 57.5q-170 0 -271.5 -128.5t-101.5 -346.5z" />
<glyph unicode="&#x41f;" horiz-adv-x="1460" d="M135 0v1385h1190v-1385h-289v1145h-610v-1145h-291z" />
<glyph unicode="&#x420;" horiz-adv-x="1257" d="M125 0v1385h578q141 0 250 -58.5t169.5 -166.5t60.5 -249q0 -140 -62.5 -248t-175 -167t-257.5 -59h-273v-437h-290zM415 663h210q125 0 194 64.5t69 182.5t-68.5 182t-193.5 64h-211v-493z" />
<glyph unicode="&#x421;" horiz-adv-x="1419" d="M84 693q0 221 79.5 385t228 251t347.5 87q120 0 226 -36.5t185.5 -102t130.5 -158t65 -201.5h-285q-28 114 -115 182.5t-207 68.5q-164 0 -261.5 -128t-97.5 -347q0 -221 97 -349.5t263 -128.5q122 0 207 63t115 174h285q-33 -222 -197 -353t-411 -131q-200 0 -348 87.5 t-227.5 251t-79.5 385.5z" />
<glyph unicode="&#x422;" horiz-adv-x="1226" d="M56 1146v239h1101v-239h-406v-1146h-290v1146h-405z" />
<glyph unicode="&#x423;" horiz-adv-x="1282" d="M36 1385h308l304 -770h8l290 770h305l-424 -989q-48 -109 -94 -182.5t-104 -126t-129.5 -76t-163.5 -23.5q-41 0 -77 5t-43 9v236q29 -9 84 -9q67 0 114 23t82 78z" />
<glyph unicode="&#x424;" horiz-adv-x="1709" d="M75 696q0 172 79 300.5t222.5 198.5t335.5 76v143h285v-143q144 -4 262 -45.5t201.5 -114.5t129 -179.5t45.5 -236.5q0 -104 -29.5 -193t-84.5 -157.5t-133 -118t-177 -76.5t-214 -31v-148h-285v148q-192 6 -335.5 75.5t-222.5 198.5t-79 303zM366 696 q0 -154 94.5 -245.5t255.5 -98.5v687q-161 -8 -255.5 -99.5t-94.5 -243.5zM995 352q78 4 143 29.5t110.5 69t70.5 106t25 138.5q0 153 -95 244.5t-254 99.5v-687z" />
<glyph unicode="&#x425;" horiz-adv-x="1368" d="M51 0l440 694v8l-437 683h341l293 -499h8l297 499h323l-453 -689v-7l447 -689h-330l-303 485h-8l-305 -485h-313z" />
<glyph unicode="&#x426;" horiz-adv-x="1536" d="M135 0v1385h290v-1146h610v1146h290v-1146h173v-513h-262v274h-1101z" />
<glyph unicode="&#x427;" horiz-adv-x="1404" d="M118 992v393h290v-365q0 -138 73 -215.5t203 -77.5q102 0 180.5 42.5t114.5 116.5v499h290v-1385h-290v596h-7q-134 -118 -344 -118q-152 0 -267.5 63t-179 180t-63.5 271z" />
<glyph unicode="&#x428;" horiz-adv-x="1927" d="M135 0v1385h290v-1146h394v1146h290v-1146h393v1146h290v-1385h-1657z" />
<glyph unicode="&#x429;" horiz-adv-x="2003" d="M135 0v1385h290v-1146h394v1146h290v-1146h393v1146h290v-1146h173v-513h-262v274h-1568z" />
<glyph unicode="&#x42a;" horiz-adv-x="1515" d="M77 1147v238h611v-464h269q145 0 257.5 -57.5t175 -162t62.5 -240.5q0 -137 -60.5 -242t-170 -162t-249.5 -57h-574v1147h-321zM688 231h207q124 0 192 59.5t68 170.5t-68.5 171t-192.5 60h-206v-461z" />
<glyph unicode="&#x42b;" horiz-adv-x="1765" d="M135 0v1385h290v-464h269q108 0 200 -33.5t157 -93.5t101 -146t36 -187q0 -137 -60 -242t-169 -162t-251 -57h-573zM425 231h207q124 0 192 59.5t68 170.5t-68.5 171t-192.5 60h-206v-461zM1330 0v1385h290v-1385h-290z" />
<glyph unicode="&#x42c;" horiz-adv-x="1252" d="M135 0v1385h290v-464h269q108 0 200 -33.5t157 -93.5t101 -146t36 -187q0 -137 -60 -242t-169 -162t-251 -57h-573zM425 231h207q124 0 192 59.5t68 170.5t-68.5 171t-192.5 60h-206v-461z" />
<glyph unicode="&#x42d;" horiz-adv-x="1419" d="M73 453h285q30 -111 117 -174t210 -63q147 0 243 101t108 273h-546v225h543q-16 163 -111 258.5t-236 95.5q-121 0 -210.5 -68.5t-116.5 -182.5h-285q18 145 101.5 259t217 176.5t293.5 62.5q149 0 270.5 -50.5t205 -143.5t129 -228t45.5 -301q0 -222 -78.5 -385.5 t-225 -251t-346.5 -87.5q-248 0 -413.5 131t-199.5 353z" />
<glyph unicode="&#x42e;" horiz-adv-x="2017" d="M135 0v1385h290v-562h205q17 138 70 250t136 188.5t195.5 118t247.5 41.5q200 0 348 -88t227.5 -253t79.5 -387t-79 -387t-227.5 -253.5t-348.5 -88.5q-277 0 -449.5 165.5t-201.5 454.5h-203v-584h-290zM916 693q0 -221 98 -352t264 -131q165 0 263 131.5t98 351.5 q0 221 -98 351.5t-263 130.5t-263.5 -130.5t-98.5 -351.5z" />
<glyph unicode="&#x42f;" horiz-adv-x="1324" d="M53 0l365 540q-90 28 -157 84t-105 137t-38 177q0 201 136.5 324t366.5 123h568v-1385h-288v500h-198l-330 -500h-320zM415 937q0 -52 16.5 -93.5t48.5 -69.5t78 -43t104 -15h239v442h-239q-57 0 -103.5 -15.5t-78 -43.5t-48.5 -69.5t-17 -92.5z" />
<glyph unicode="&#x430;" horiz-adv-x="1103" d="M61 304q0 144 107 224.5t310 92.5l264 16v71q0 75 -49 116t-136 41q-76 0 -126 -36t-60 -95h-257q4 100 62 177.5t160 120.5t232 43q204 0 327 -96t123 -254v-725h-271v163h-6q-42 -81 -131 -128t-192 -47q-155 0 -256 88t-101 228zM341 319q0 -58 45.5 -92.5 t122.5 -34.5q98 0 165.5 55.5t67.5 140.5v78l-222 -16q-58 -4 -98 -20t-60.5 -44t-20.5 -67z" />
<glyph unicode="&#x431;" horiz-adv-x="1194" d="M75 609q0 224 36.5 383.5t111 260.5t181.5 149.5t256 53.5l120 4q92 4 172.5 17.5t104.5 26.5v-219q-15 -13 -88.5 -28t-171.5 -18l-113 -3q-100 -4 -168.5 -29t-114 -77.5t-71 -126t-38.5 -180.5h8q49 95 139 146t218 51q214 0 342 -136t128 -368q0 -249 -140 -394 t-381 -145q-257 0 -394 161.5t-137 470.5zM362 510q0 -99 28 -169t81.5 -106t129.5 -36q75 0 128.5 36t82 106t28.5 169q0 56 -10.5 103.5t-30.5 84t-49 61.5t-66.5 38t-82.5 13q-113 0 -176 -79t-63 -221z" />
<glyph unicode="&#x432;" horiz-adv-x="1104" d="M105 0v1057h531q82 0 147 -18.5t110 -52.5t69 -84t24 -112q0 -85 -54.5 -150t-135.5 -78v-8q105 -13 171 -81.5t66 -166.5q0 -140 -104.5 -223t-282.5 -83h-541zM379 180h198q85 0 130.5 36.5t45.5 106t-48.5 105.5t-141.5 36h-184v-284zM379 629h168q54 0 91 14.5 t55.5 42t18.5 68.5q0 59 -39 91t-110 32h-184v-248z" />
<glyph unicode="&#x433;" horiz-adv-x="900" d="M105 0v1057h733v-212h-454v-845h-279z" />
<glyph unicode="&#x434;" horiz-adv-x="1274" d="M19 213h82q100 56 117 308l34 536h839v-844h157v-487h-255v274h-718v-274h-256v487zM387 213h425v633h-322l-24 -342q-15 -188 -79 -283v-8z" />
<glyph unicode="&#x435;" horiz-adv-x="1131" d="M65 524q0 252 138 401.5t370 149.5q229 0 363.5 -142t134.5 -383v-86h-729v-18q0 -114 68 -184.5t178 -70.5q80 0 138 35.5t78 96.5h259q-23 -154 -154.5 -247.5t-324.5 -93.5q-160 0 -277 65t-179.5 187.5t-62.5 289.5zM345 637h456q-4 104 -66 166.5t-159 62.5 q-96 0 -160 -63.5t-71 -165.5z" />
<glyph unicode="&#x436;" horiz-adv-x="1639" d="M12 0l408 560l-395 497h323l324 -428h8v428h276v-428h8l323 428h320l-390 -491l410 -566h-334l-329 457h-8v-457h-276v457h-8l-330 -457h-330z" />
<glyph unicode="&#x437;" horiz-adv-x="1058" d="M58 331h268q37 -136 202 -136q57 0 98.5 16t62 45.5t20.5 69.5q0 124 -180 124h-147v185h139q158 0 158 115q0 54 -40 86t-116 32t-123.5 -33t-56.5 -93h-264q15 158 133 248t310 90q207 0 318 -79.5t111 -220.5q0 -80 -43 -140t-117 -80v-8q96 -24 147 -85.5t51 -149.5 q0 -157 -124 -248t-337 -91q-204 0 -329.5 94t-140.5 259z" />
<glyph unicode="&#x438;" horiz-adv-x="1203" d="M105 0v1057h274v-669h8l438 669h274v-1057h-274v677h-8l-438 -677h-274z" />
<glyph unicode="&#x439;" horiz-adv-x="1203" d="M105 0v1057h274v-669h8l438 669h274v-1057h-274v677h-8l-438 -677h-274zM266 1524h171q1 -52 21.5 -92t58 -62.5t87.5 -22.5q49 0 86.5 22.5t58 62.5t21.5 92h172q0 -142 -93.5 -229t-244.5 -87q-152 0 -245 87t-93 229z" />
<glyph unicode="&#x43a;" horiz-adv-x="1106" d="M105 0v1057h279v-428h8l359 428h320l-427 -491l451 -566h-339l-364 457h-8v-457h-279z" />
<glyph unicode="&#x43b;" horiz-adv-x="1166" d="M32 1v237q30 -8 60 -8q37 0 63.5 21.5t42.5 62.5t24 90.5t12 116.5l31 536h797v-1057h-280v845h-277l-22 -341q-6 -98 -20 -174t-41 -142t-67 -109t-99 -67t-135 -24q-56 0 -89 13z" />
<glyph unicode="&#x43c;" horiz-adv-x="1502" d="M105 0v1057h362l283 -699h7l283 699h358v-1057h-264v709h-8l-277 -651h-195l-279 651h-7v-709h-263z" />
<glyph unicode="&#x43d;" horiz-adv-x="1191" d="M105 0v1057h279v-408h423v408h280v-1057h-280v436h-423v-436h-279z" />
<glyph unicode="&#x43e;" horiz-adv-x="1176" d="M65 529q0 253 141 399.5t381 146.5q239 0 380 -146.5t141 -399.5q0 -256 -140 -401.5t-381.5 -145.5t-381.5 146t-140 401zM349 529q0 -157 63 -244t174.5 -87t174 87t62.5 244q0 103 -28.5 178t-81.5 114t-126 39q-111 0 -174.5 -88t-63.5 -243z" />
<glyph unicode="&#x43f;" horiz-adv-x="1181" d="M105 0v1057h972v-1057h-279v845h-414v-845h-279z" />
<glyph unicode="&#x440;" horiz-adv-x="1216" d="M105 -332v1389h276v-181h6q42 90 129.5 141.5t198.5 51.5q201 0 317.5 -144t116.5 -396t-115.5 -396.5t-314.5 -144.5q-114 0 -199.5 49.5t-128.5 140.5h-6v-510h-280zM384 528q0 -142 65.5 -228t172.5 -86q109 0 174.5 85.5t65.5 229.5q0 142 -65.5 228t-174.5 86 q-71 0 -125 -39t-83.5 -110.5t-29.5 -165.5z" />
<glyph unicode="&#x441;" horiz-adv-x="1114" d="M67 529q0 251 139.5 398.5t374.5 147.5q198 0 325 -104.5t148 -272.5h-263q-18 72 -71.5 114t-134.5 42q-109 0 -172.5 -87t-63.5 -238q0 -154 63.5 -239.5t173.5 -85.5q23 0 44 3t40 9.5t35 16.5t30 22.5t25 28t19.5 34.5t13.5 40h262q-20 -173 -147 -274.5t-325 -101.5 q-237 0 -376.5 146.5t-139.5 400.5z" />
<glyph unicode="&#x442;" horiz-adv-x="999" d="M43 845v212h913v-212h-317v-845h-279v845h-317z" />
<glyph unicode="&#x443;" horiz-adv-x="1109" d="M22 1057h307l229 -829h6l229 829h296l-366 -1078q-46 -136 -108 -215t-152 -114.5t-224 -35.5q-85 0 -107 4v217q15 -3 64 -3q79 0 125 29t62 92l10 40z" />
<glyph unicode="&#x444;" horiz-adv-x="1549" d="M67 529q0 163 70.5 285t199.5 188t301 70v326h274v-326q263 -6 416.5 -150.5t153.5 -393.5q0 -163 -70.5 -285t-199 -188.5t-300.5 -69.5v-317h-274v317q-263 6 -417 151t-154 393zM350 529q0 -153 78 -240.5t212 -90.5v662q-133 -4 -211.5 -92t-78.5 -239zM909 198 q133 3 211.5 91.5t78.5 239.5q0 152 -78 239.5t-212 91.5v-662z" />
<glyph unicode="&#x445;" horiz-adv-x="1079" d="M32 0l334 527l-331 530h315l194 -360h6l193 360h304l-332 -523l330 -534h-306l-203 370h-6l-203 -370h-295z" />
<glyph unicode="&#x446;" horiz-adv-x="1258" d="M105 0v1057h279v-844h409v844h279v-844h160v-487h-256v274h-871z" />
<glyph unicode="&#x447;" horiz-adv-x="1137" d="M84 727v330h280v-291q0 -61 21.5 -105t61 -67.5t93.5 -23.5q44 0 81 10.5t62.5 28t42 34t28.5 34.5v380h279v-1057h-279v461h-8q-46 -56 -120 -90t-173 -34q-168 0 -268.5 105.5t-100.5 284.5z" />
<glyph unicode="&#x448;" horiz-adv-x="1654" d="M105 0v1057h279v-844h303v844h280v-844h303v844h279v-1057h-1444z" />
<glyph unicode="&#x449;" horiz-adv-x="1728" d="M105 0v1057h279v-844h303v844h280v-844h303v844h279v-844h154v-487h-255v274h-1343z" />
<glyph unicode="&#x44a;" horiz-adv-x="1268" d="M43 845v212h553v-307h206q187 0 298 -102t111 -274q0 -171 -111 -272.5t-298 -101.5h-485v845h-274zM596 210h161q80 0 128 46t48 120q0 49 -21.5 86.5t-61.5 58t-93 20.5h-161v-331z" />
<glyph unicode="&#x44b;" horiz-adv-x="1487" d="M105 0v1057h279v-307h205q188 0 298.5 -102t110.5 -274q0 -171 -110.5 -272.5t-298.5 -101.5h-484zM384 210h161q80 0 128 46t48 120q0 49 -21.5 86.5t-61.5 58t-93 20.5h-161v-331zM1103 0v1057h279v-1057h-279z" />
<glyph unicode="&#x44c;" horiz-adv-x="1056" d="M105 0v1057h279v-307h205q188 0 298.5 -102t110.5 -274q0 -171 -110.5 -272.5t-298.5 -101.5h-484zM384 210h161q80 0 128 46t48 120q0 49 -21.5 86.5t-61.5 58t-93 20.5h-161v-331z" />
<glyph unicode="&#x44d;" horiz-adv-x="1114" d="M60 357h262q19 -75 73.5 -114t138.5 -39q95 0 158.5 65.5t71.5 180.5h-386v185h382q-14 101 -75.5 160t-149.5 59q-83 0 -138 -42t-73 -114h-263q21 168 149 272.5t329 104.5q232 0 370 -147.5t138 -398.5q0 -254 -137.5 -400.5t-372.5 -146.5q-201 0 -328.5 101 t-148.5 274z" />
<glyph unicode="&#x44e;" horiz-adv-x="1632" d="M105 0v1057h279v-408h158q32 203 165.5 317t341.5 114q240 0 378.5 -147t138.5 -404q0 -260 -137.5 -406t-379.5 -146q-217 0 -351 120.5t-158 338.5h-156v-436h-279zM818 529q0 -158 60.5 -244t169.5 -86q73 0 124.5 38.5t79 112.5t27.5 179q0 156 -61 242.5t-170 86.5 t-169.5 -86.5t-60.5 -242.5z" />
<glyph unicode="&#x44f;" horiz-adv-x="1092" d="M46 0l278 386q-109 34 -170.5 113.5t-61.5 191.5q0 168 114.5 267t306.5 99h475v-1057h-274v344h-121l-236 -344h-311zM370 691q0 -66 46.5 -108t123.5 -42h174v307h-174q-78 0 -124 -42.5t-46 -114.5z" />
<glyph unicode="&#x451;" horiz-adv-x="1131" d="M65 524q0 252 138 401.5t370 149.5q229 0 363.5 -142t134.5 -383v-86h-729v-18q0 -114 68 -184.5t178 -70.5q80 0 138 35.5t78 96.5h259q-23 -154 -154.5 -247.5t-324.5 -93.5q-160 0 -277 65t-179.5 187.5t-62.5 289.5zM242 1334q0 35 17 63.5t46.5 45.5t66.5 17 q54 0 91.5 -36.5t37.5 -89t-37.5 -89t-92 -36.5t-92 36.5t-37.5 88.5zM345 637h456q-4 104 -66 166.5t-159 62.5q-96 0 -160 -63.5t-71 -165.5zM644 1334q0 26 10 49t27 40t41.5 27t51.5 10t51 -10t41 -27t27 -40t10 -49q0 -52 -37 -88.5t-92 -36.5t-92.5 36.5t-37.5 88.5z " />
<glyph unicode="&#x452;" horiz-adv-x="1239" d="M46 1192v144h86v159h276v-159h222v-144h-222v-310h12q27 60 76.5 103t116 65t143.5 22q175 0 278.5 -106t103.5 -290v-713q0 -161 -96 -242.5t-281 -81.5q-57 0 -75 3v207q6 -1 36 -1q74 0 104.5 28.5t30.5 94.5v646q0 105 -57.5 164t-156.5 59q-67 0 -119.5 -30 t-81.5 -84.5t-29 -125.5v-600h-281v1192h-86z" />
<glyph unicode="&#x453;" horiz-adv-x="915" d="M105 0v1057h733v-212h-454v-845h-279zM353 1212l212 298h263l-253 -298h-222z" />
<glyph unicode="&#x454;" horiz-adv-x="1114" d="M67 529q0 251 139.5 398.5t374.5 147.5q198 0 325 -104.5t148 -272.5h-263q-12 47 -39.5 82t-71 54.5t-98.5 19.5q-59 0 -107 -26t-79.5 -76t-40.5 -117h381v-185h-385q9 -116 72 -181t160 -65q82 0 136.5 39t73.5 114h262q-21 -173 -147.5 -274t-324.5 -101 q-237 0 -376.5 146.5t-139.5 400.5z" />
<glyph unicode="&#x455;" horiz-adv-x="1054" d="M60 320h274q10 -67 62.5 -103.5t139.5 -36.5q83 0 131 30.5t48 82.5q0 27 -13 46.5t-42 34t-77 25.5l-195 45q-149 33 -225.5 109.5t-76.5 192.5q0 149 121 239t322 90q196 0 316 -92t123 -243h-260q-2 31 -15.5 56.5t-37.5 43t-57 27t-73 9.5q-50 0 -88 -14t-59 -39.5 t-21 -59.5q0 -77 141 -110l199 -43q159 -36 228 -102.5t69 -184.5q0 -154 -129 -247.5t-337 -93.5q-207 0 -332 91.5t-136 246.5z" />
<glyph unicode="&#x456;" horiz-adv-x="499" d="M94 1319q0 62 44 104t107 42t107 -42t44 -104t-44 -104.5t-107 -42.5q-41 0 -75.5 19t-55 53t-20.5 75zM105 0v1057h280v-1057h-280z" />
<glyph unicode="&#x457;" horiz-adv-x="505" d="M-82 1334.5q0 52.5 37.5 89t92.5 36.5t92.5 -36.5t37.5 -89t-37.5 -89t-92.5 -36.5t-92.5 36.5t-37.5 89zM108 0v1057h281v-1057h-281zM321 1334.5q0 52.5 37 89t92 36.5t92.5 -36.5t37.5 -89t-37.5 -89t-92.5 -36.5t-92 36.5t-37 89z" />
<glyph unicode="&#x458;" horiz-adv-x="510" d="M-60 -151q6 -1 36 -1q73 0 103.5 28.5t30.5 94.5v1086h281v-1093q0 -107 -42.5 -179.5t-126 -109t-207.5 -36.5q-57 0 -75 3v207zM100 1319q0 62 44 104t107 42t107 -42t44 -104q0 -41 -20.5 -75t-55 -53t-75.5 -19t-75.5 19t-55 53t-20.5 75z" />
<glyph unicode="&#x459;" horiz-adv-x="1733" d="M32 1v237q30 -8 60 -8q37 0 63.5 21.5t42.5 62.5t24 90.5t12 116.5l31 536h797v-307h205q187 0 298 -102t111 -274q0 -171 -111 -272.5t-298 -101.5h-485v845h-277l-22 -341q-6 -98 -20 -174t-41 -142t-67 -109t-99 -67t-135 -24q-56 0 -89 13zM1062 210h161q39 0 72 12 t55.5 34t35 53t12.5 67.5t-12.5 67.5t-35.5 52.5t-55.5 33t-71.5 11.5h-161v-331z" />
<glyph unicode="&#x45a;" horiz-adv-x="1744" d="M105 0v1057h279v-374h409v374h279v-370h211q185 0 294.5 -93t109.5 -250.5t-109.5 -250.5t-294.5 -93h-490v474h-409v-474h-279zM1072 208h180q48 0 84.5 17.5t56 48.5t19.5 71q0 60 -44 98.5t-116 38.5h-180v-274z" />
<glyph unicode="&#x45b;" horiz-adv-x="1239" d="M46 1192v144h86v159h276v-159h222v-144h-222v-310h12q27 60 76.5 103t116 65t143.5 22q175 0 278.5 -106t103.5 -290v-676h-281v617q0 105 -57.5 164t-156.5 59q-67 0 -119.5 -30t-81.5 -84.5t-29 -125.5v-600h-281v1192h-86z" />
<glyph unicode="&#x45c;" horiz-adv-x="1106" d="M105 0v1057h279v-428h8l359 428h320l-427 -491l451 -566h-339l-364 457h-8v-457h-279zM464 1212l212 298h262l-253 -298h-221z" />
<glyph unicode="&#x45e;" horiz-adv-x="1109" d="M22 1057h307l229 -829h6l229 829h296l-366 -1078q-46 -136 -108 -215t-152 -114.5t-224 -35.5q-85 0 -107 4v217q15 -3 64 -3q79 0 125 29t62 92l10 40zM223 1524h171q1 -79 46.5 -128t120.5 -49q74 0 119 49t47 128h172q0 -142 -93.5 -229t-244.5 -87q-152 0 -245 87 t-93 229z" />
<glyph unicode="&#x45f;" horiz-adv-x="1181" d="M105 0v1057h279v-844h414v844h279v-1057h-358v-274h-255v274h-359z" />
<glyph unicode="&#x490;" horiz-adv-x="1088" d="M135 0v1385h621v274h272v-514h-602v-1145h-291z" />
<glyph unicode="&#x491;" horiz-adv-x="900" d="M105 0v1057h478v274h255v-486h-454v-845h-279z" />
<glyph unicode="&#x2000;" horiz-adv-x="896" />
<glyph unicode="&#x2001;" horiz-adv-x="1793" />
<glyph unicode="&#x2002;" horiz-adv-x="896" />
<glyph unicode="&#x2003;" horiz-adv-x="1793" />
<glyph unicode="&#x2004;" horiz-adv-x="597" />
<glyph unicode="&#x2005;" horiz-adv-x="448" />
<glyph unicode="&#x2006;" horiz-adv-x="298" />
<glyph unicode="&#x2007;" horiz-adv-x="298" />
<glyph unicode="&#x2008;" horiz-adv-x="224" />
<glyph unicode="&#x2009;" horiz-adv-x="358" />
<glyph unicode="&#x200a;" horiz-adv-x="99" />
<glyph unicode="&#x2010;" horiz-adv-x="868" d="M119 433v245h631v-245h-631z" />
<glyph unicode="&#x2011;" horiz-adv-x="868" d="M119 433v245h631v-245h-631z" />
<glyph unicode="&#x2012;" horiz-adv-x="868" d="M119 433v245h631v-245h-631z" />
<glyph unicode="&#x2013;" horiz-adv-x="983" d="M0 436v251h983v-251h-983z" />
<glyph unicode="&#x2014;" horiz-adv-x="1966" d="M0 436v251h1966v-251h-1966z" />
<glyph unicode="&#x2018;" horiz-adv-x="569" d="M87 1385h261l99 -540h-229z" />
<glyph unicode="&#x2019;" horiz-adv-x="569" d="M123 845l98 540h262l-132 -540h-228z" />
<glyph unicode="&#x201a;" horiz-adv-x="569" d="M89 -411l98 567h262l-123 -567h-237z" />
<glyph unicode="&#x201c;" horiz-adv-x="1019" d="M96 1385h261l99 -540h-229zM529 1385h262l98 -540h-229z" />
<glyph unicode="&#x201d;" horiz-adv-x="1019" d="M131 845l98 540h262l-131 -540h-229zM564 845l98 540h262l-131 -540h-229z" />
<glyph unicode="&#x201e;" horiz-adv-x="1019" d="M89 -411l98 567h257l-118 -567h-237zM544 -411l98 567h258l-119 -567h-237z" />
<glyph unicode="&#x2026;" horiz-adv-x="1598" d="M119 143q0 65 45 110t109.5 45t109.5 -45t45 -110q0 -64 -45 -109.5t-109 -45.5q-43 0 -78.5 21t-56 56.5t-20.5 77.5zM646 143q0 65 45 110t109.5 45t109.5 -45t45 -110q0 -64 -45 -109.5t-109.5 -45.5t-109.5 45.5t-45 109.5zM1171 143q0 65 45 110t110 45 q32 0 60.5 -12.5t49 -33t32.5 -49t12 -60.5q0 -64 -45 -109.5t-109.5 -45.5t-109.5 45.5t-45 109.5z" />
<glyph unicode="&#x202f;" horiz-adv-x="358" />
<glyph unicode="&#x2039;" horiz-adv-x="811" d="M108 540v7l335 395h260l-332 -393v-9l332 -395h-264z" />
<glyph unicode="&#x203a;" horiz-adv-x="811" d="M108 145l333 395v9l-333 393h261l334 -395v-7l-331 -395h-264z" />
<glyph unicode="&#x205f;" horiz-adv-x="448" />
<glyph unicode="&#x20ac;" d="M81 468v152h151q-3 36 -3 73q0 23 2 67h-150v152h174q62 239 253.5 369t472.5 130q119 0 195 -22v-239q-79 17 -190 17q-100 0 -183.5 -29t-145.5 -86.5t-96 -139.5h514v-152h-552q-3 -33 -3 -67q0 -42 4 -73h551v-152h-512q52 -121 161 -186t258 -65q136 0 198 15v-242 q-79 -16 -199 -16q-280 0 -471 129t-253 365h-176z" />
<glyph unicode="&#x2122;" horiz-adv-x="2182" d="M95 1174v211h798v-211h-275v-634h-249v634h-274zM1039 540v845h292l220 -461h17l222 461h291v-845h-225v531h-17l-219 -463h-121l-217 463h-17v-531h-226z" />
<glyph unicode="&#x25fc;" horiz-adv-x="1056" d="M0 0v1056h1056v-1056h-1056z" />
</font>
</defs>
</svg>
