<svg width="182" height="29" fill="none" xmlns="http://www.w3.org/2000/svg"><g clip-path="url(#clip0_191_448)"><path d="M22.683 8.16h1l2.85-2.85.14-1.21a12.81 12.81 0 00-20.84 6.25 1.55 1.55 0 011-.06l5.7-.94s.29-.48.44-.45a7.11 7.11 0 019.73-.74h-.02z" fill="#EA4335"/><path d="M30.593 10.35a12.84 12.84 0 00-3.87-6.24l-4 4a7.11 7.11 0 012.61 5.64v.71a3.558 3.558 0 013.56 3.56 3.56 3.56 0 01-3.56 3.56h-7.12l-.71.72v4.27l.71.71h7.12a9.26 9.26 0 005.26-16.93z" fill="#4285F4"/><path d="M11.083 27.24h7.12v-5.7h-7.12a3.54 3.54 0 01-1.47-.32l-1 .31-2.87 2.85-.25 1a9.21 9.21 0 005.59 1.86z" fill="#34A853"/><path d="M11.083 8.75a9.26 9.26 0 00-5.59 16.6l4.13-4.13a3.561 3.561 0 012.105-6.746 3.56 3.56 0 012.605 2.036l4.13-4.13a9.25 9.25 0 00-7.38-3.63z" fill="#FBBC05"/><path d="M53.623 23.26a9.11 9.11 0 01-6.6-2.71 8.8 8.8 0 01-2.77-6.52 8.81 8.81 0 012.77-6.52 9.11 9.11 0 016.6-2.76 8.84 8.84 0 016.33 2.55l-1.78 1.81a6.41 6.41 0 00-4.55-1.8 6.34 6.34 0 00-4.7 2 6.53 6.53 0 00-1.93 4.75 6.528 6.528 0 001.93 4.69 6.71 6.71 0 009.36.11 5.32 5.32 0 001.37-3.11h-6v-2.56h8.49c.084.515.117 1.038.1 1.56a8 8 0 01-2.19 5.9 8.51 8.51 0 01-6.43 2.61zm19.74-1.7a6.12 6.12 0 01-8.47 0 5.7 5.7 0 01-1.73-4.25 5.709 5.709 0 011.73-4.25 6.13 6.13 0 018.47 0 5.71 5.71 0 011.73 4.25 5.699 5.699 0 01-1.74 4.25h.01zm-6.6-1.67a3.237 3.237 0 004.73 0 3.56 3.56 0 001-2.58 3.572 3.572 0 00-1-2.59 3.292 3.292 0 00-4.75 0 3.57 3.57 0 00-1 2.59 3.558 3.558 0 001.01 2.58h.01zm19.62 1.67a6.12 6.12 0 01-8.47 0 5.7 5.7 0 01-1.73-4.25 5.709 5.709 0 011.73-4.25 6.12 6.12 0 018.47 0 5.71 5.71 0 011.73 4.25 5.701 5.701 0 01-1.73 4.25zm-6.6-1.67a3.237 3.237 0 004.73 0 3.56 3.56 0 001-2.58 3.572 3.572 0 00-1-2.59 3.292 3.292 0 00-4.75 0 3.57 3.57 0 00-1 2.59 3.558 3.558 0 001.01 2.58h.01zm15.16 8.71a5.24 5.24 0 01-3.33-1.06 6.13 6.13 0 01-1.94-2.46l2.28-.95a3.84 3.84 0 001.13 1.49 2.85 2.85 0 001.87.63 3 3 0 002.33-.9 3.65 3.65 0 00.83-2.6v-.86h-.09a3.811 3.811 0 01-3.13 1.35 5.43 5.43 0 01-4-1.74 5.751 5.751 0 01-1.71-4.19 5.81 5.81 0 011.71-4.22 5.42 5.42 0 014-1.75 4.3 4.3 0 011.84.41c.498.217.942.542 1.3.95h.09v-.95h2.48V22.4a6.204 6.204 0 01-1.59 4.65 5.6 5.6 0 01-4.07 1.55zm.18-7.68a2.909 2.909 0 002.26-1 3.7 3.7 0 00.91-2.56 3.78 3.78 0 00-.91-2.61 2.9 2.9 0 00-2.26-1 3.09 3.09 0 00-2.34 1 3.65 3.65 0 00-1 2.59 3.58 3.58 0 001 2.56 3.1 3.1 0 002.34 1.02zm9.89-15.5V22.9h-2.61V5.42h2.61zm7.16 17.84a5.68 5.68 0 01-4.21-1.71 5.785 5.785 0 01-1.69-4.24 5.871 5.871 0 011.63-4.28 5.363 5.363 0 014-1.67 5.048 5.048 0 012 .39c.571.23 1.09.57 1.53 1 .378.364.713.77 1 1.21.232.37.43.763.59 1.17l.27.68-8 3.29a3.001 3.001 0 002.88 1.8 3.411 3.411 0 002.93-1.65l2 1.35a6.578 6.578 0 01-1.92 1.82 5.438 5.438 0 01-3.01.84zm-3.34-6.13l5.32-2.21a1.84 1.84 0 00-.83-.91 2.708 2.708 0 00-1.37-.35 3.09 3.09 0 00-2.15.95 3.162 3.162 0 00-.766 1.151 3.163 3.163 0 00-.204 1.369zm22.13 6.13a8.24 8.24 0 01-8.38-8.43 8.243 8.243 0 018.38-8.43 7.455 7.455 0 015.93 2.64l-1.44 1.4a5.435 5.435 0 00-4.48-2.05 6.113 6.113 0 00-4.45 1.78 6.246 6.246 0 00-1.81 4.66 6.245 6.245 0 001.81 4.66 6.122 6.122 0 004.45 1.78 6.357 6.357 0 005-2.34l1.44 1.44a7.856 7.856 0 01-2.77 2.11 8.48 8.48 0 01-3.68.78zm10.32-.36h-2.07V6.75h2.07V22.9zm3.38-9.72a5.792 5.792 0 018.16 0 5.848 5.848 0 011.6 4.2 5.849 5.849 0 01-1.6 4.2 5.788 5.788 0 01-8.16 0 5.846 5.846 0 01-1.6-4.2 5.85 5.85 0 011.6-4.2zm1.54 7.1a3.488 3.488 0 005.07 0 4.003 4.003 0 001.07-2.9 4.003 4.003 0 00-1.07-2.9 3.488 3.488 0 00-5.07 0 4 4 0 00-1.07 2.9 4.012 4.012 0 001.08 2.89l-.01.01zm19.69 2.62h-2v-1.53h-.06a3.852 3.852 0 01-1.46 1.38 4.08 4.08 0 01-2.05.55 3.892 3.892 0 01-3.14-1.26 5.004 5.004 0 01-1.07-3.38v-6.8h2.07v6.42c0 2.06.91 3.09 2.73 3.09a2.536 2.536 0 002.1-1c.537-.68.823-1.524.81-2.39v-6.12h2.07V22.9zm7.03.36a4.86 4.86 0 01-3.7-1.69 6.003 6.003 0 01-1.55-4.19 6.003 6.003 0 011.55-4.19 4.857 4.857 0 013.7-1.69 4.69 4.69 0 012.26.54c.612.308 1.13.774 1.5 1.35h.09l-.09-1.53V6.75h2.07V22.9h-2v-1.53h-.09a3.826 3.826 0 01-1.5 1.35c-.69.363-1.46.549-2.24.54zm.34-1.89a3.298 3.298 0 002.49-1.08 4.049 4.049 0 001-2.91 4.049 4.049 0 00-1-2.91 3.376 3.376 0 00-3.866-.817 3.38 3.38 0 00-1.134.817 4.012 4.012 0 00-1 2.9 4.012 4.012 0 001 2.9 3.301 3.301 0 002.51 1.1z" fill="#fff"/></g><defs><clipPath id="clip0_191_448"><path fill="#fff" transform="translate(.833 .75)" d="M0 0h181v28H0z"/></clipPath></defs></svg>