<svg width="84" height="81" fill="none" xmlns="http://www.w3.org/2000/svg"><g clip-path="url(#clip0_191_475)"><path fill-rule="evenodd" clip-rule="evenodd" d="M48.921 2.077c-.566 0-1.092.121-1.578.283 1.032.688 1.598 1.598 1.881 2.63.02.14.061.242.081.384.02.12.04.242.04.364.082 1.78-.464 2.002-.849 3.054-.586 1.355-.425 2.811.283 3.984.061.142.142.304.243.445-.768-5.117 3.5-5.886 4.288-7.483.06-1.396-1.092-2.326-2.002-2.974-.87-.526-1.659-.687-2.387-.687zm6.432 1.153c-.081.465-.02.343-.04.586-.02.162-.02.364-.04.526-.041.162-.082.324-.143.485-.04.162-.1.324-.161.486-.081.162-.142.303-.223.465-.06.081-.1.162-.162.243l-.12.182c-.102.141-.203.283-.304.404-.122.122-.223.263-.364.364v.02c-.122.102-.243.223-.385.324-.424.324-.91.567-1.355.87-.141.101-.283.182-.404.303a2.959 2.959 0 00-.385.324c-.141.121-.242.243-.364.384-.1.122-.222.263-.303.405a5.144 5.144 0 00-.283.425c-.081.161-.142.303-.223.465-.06.162-.121.303-.162.465-.06.182-.1.344-.141.506-.02.08-.02.182-.04.263-.02.08-.02.161-.041.242 0 .162-.02.344-.02.506 0 .121 0 .243.02.364 0 .162.02.324.06.506.02.162.061.323.102.485.06.162.1.324.162.486.04.1.1.202.141.283l-4.652-1.8a49.934 49.934 0 00-2.346-.607l-1.274-.304a37.57 37.57 0 00-3.681-.546c-.04 0-.061-.02-.102-.02a36.182 36.182 0 00-3.62-.182c-.89 0-1.78.04-2.65.101a38.522 38.522 0 00-3.701.445c-.304.04-.607.101-.91.162-.627.121-1.234.263-1.82.405l-.91.242c-.304.121-.587.263-.87.384l-.668.304c-.04.02-.081.02-.101.04-.203.101-.385.182-.567.283a.994.994 0 00-.141.061 8.967 8.967 0 00-.627.324c-.142.06-.283.141-.405.202-.06.04-.141.08-.182.101-.182.101-.364.202-.526.303a5.115 5.115 0 00-.485.304c-.142.101-.283.182-.405.283-.02.02-.04.02-.06.04a4.742 4.742 0 00-.385.284l-.04.04-.303.243c-.04.02-.081.06-.122.08-.1.082-.202.183-.303.264-.02.04-.06.06-.081.08-.121.122-.243.223-.364.345-.02 0-.02.02-.04.04-.122.101-.243.222-.365.344-.02.02-.02.04-.04.04-.101.101-.202.202-.303.324-.04.04-.102.08-.142.121-.101.121-.223.243-.344.364-.02.04-.06.06-.08.101-.163.162-.304.324-.466.486l-.06.06c-.324.344-.668.688-1.032.991a11.5 11.5 0 01-1.133.89c-.404.284-.789.526-1.213.77-.405.222-.83.424-1.275.606-.424.182-.87.344-1.314.485-.85.182-1.72.526-2.468.587-.162 0-.344.04-.506.06-.182.04-.343.081-.505.122l-.486.182c-.162.06-.323.142-.485.222-.142.102-.304.182-.445.284a3.304 3.304 0 00-.405.343 3.464 3.464 0 00-.404.364c-.122.142-.243.263-.344.405-.101.162-.223.303-.303.465a3.564 3.564 0 00-.284.465c-.08.183-.161.344-.222.526-.06.162-.121.344-.182.526-.04.162-.081.324-.101.486 0 .02-.02.04-.02.06-.04.182-.04.425-.061.546-.02.142-.04.263-.04.405 0 .08 0 .182.02.263.02.142.04.263.08.384.041.122.082.243.142.364v.02c.06.122.142.243.223.365.08.12.162.242.263.364.1.1.222.222.343.323.122.122.243.223.385.324.485.425.607.566 1.234.89.1.06.202.101.323.162.02 0 .04.02.06.02 0 .04 0 .06.021.101.02.162.06.324.101.486.04.181.101.343.162.485.06.121.101.243.162.364.02.04.04.08.06.101.082.162.162.303.243.445l.304.425c.1.121.222.263.344.384.12.121.242.223.384.344 0 0 .02.02.04.02.122.101.243.203.364.283.142.102.283.182.445.263.142.081.304.162.465.223.122.06.263.101.405.141.02.02.04.02.08.04.082.021.183.041.264.061-.06 1.093-.081 2.124.08 2.488.183.405 1.073-.829 1.963-2.245-.122 1.396-.203 3.034 0 3.52.222.505 1.436-1.072 2.488-2.812 14.34-3.317 27.426 6.594 28.802 20.59-.263-2.184-2.953-3.398-4.187-3.094-.607 1.497-1.638 3.418-3.297 4.611a12.96 12.96 0 00-.202-4.045 13.083 13.083 0 01-2.508 5.097c-1.922.142-3.843-.789-4.855-2.184-.08-.06-.1-.182-.161-.263-.061-.142-.122-.283-.162-.425a1.68 1.68 0 01-.122-.425c-.02-.141-.02-.283-.02-.445v-.303c.02-.142.06-.283.101-.425.04-.141.081-.283.142-.425.08-.141.142-.283.243-.424.343-.971.343-1.76-.284-2.225a2.305 2.305 0 00-.384-.203c-.08-.02-.182-.06-.263-.08-.06-.02-.1-.04-.162-.061-.141-.04-.283-.081-.424-.101a1.541 1.541 0 00-.425-.06 3.296 3.296 0 00-.445-.041c-.101 0-.202.02-.303.02-.162 0-.304.02-.446.06a3.508 3.508 0 00-.85.222c-.14.062-.262.123-.404.183-.12.06-.242.142-.384.202-4.713 3.075-1.901 10.275 1.315 12.359-1.214.222-2.447.485-2.791.748l-.04.04c.869.526 1.78.971 2.73 1.356 1.294.424 2.67.809 3.276.97v.02a19.57 19.57 0 005.098.365c8.96-.627 16.302-7.443 17.637-16.424.04.182.08.344.121.526.06.364.142.748.182 1.133v.02c.04.182.06.364.081.526v.08c.02.183.04.365.04.527.02.222.04.445.04.667v.324c0 .1.021.222.021.323 0 .122-.02.243-.02.364v.284c0 .141-.02.262-.02.404 0 .081 0 .162-.02.263 0 .142-.02.283-.02.445-.021.06-.021.121-.021.182l-.06.465c0 .06 0 .122-.021.182-.02.203-.06.385-.081.587v.04c-.04.182-.081.385-.121.567v.06l-.122.546c0 .02-.02.061-.02.081-.04.183-.08.364-.142.547v.06c-.06.203-.12.385-.161.567-.02.02-.02.04-.02.04l-.183.607c-.08.202-.141.384-.222.586-.081.203-.142.405-.223.587-.08.202-.162.384-.242.586h-.02c-.082.182-.163.385-.264.567a.986.986 0 01-.06.141c-.02.02-.02.04-.04.061a19.143 19.143 0 01-5.684 6.796 7.158 7.158 0 00-.486.344c-.04.04-.1.06-.141.101-.142.101-.283.202-.445.303l.06.122h.02l.85-.122h.02c.526-.08 1.052-.182 1.578-.283.142-.02.303-.06.445-.1.101-.021.182-.041.283-.062.142-.02.283-.06.425-.08.121-.04.243-.061.364-.102a38.329 38.329 0 005.866-1.941 32.391 32.391 0 01-12.56 10.254c2.325-.162 4.651-.546 6.896-1.193 8.152-2.407 15.008-7.888 19.114-15.27a32.284 32.284 0 01-5.44 13.005 31.835 31.835 0 005.4-4.49 32.06 32.06 0 008.515-17.193c.688 3.196.89 6.493.586 9.75 14.604-20.369 1.214-41.485-4.389-47.047-.02-.04-.04-.06-.04-.101-.02.02-.02.02-.02.04 0-.02 0-.02-.02-.04 0 .243-.02.485-.041.728-.06.465-.121.91-.202 1.355-.101.445-.223.89-.344 1.335-.142.425-.303.87-.486 1.295-.182.404-.384.829-.606 1.233-.223.385-.466.79-.729 1.153-.262.385-.546.749-.829 1.092-.303.365-.627.688-.95 1.012a13.07 13.07 0 01-.587.506l-.465.404a11.29 11.29 0 01-1.133.789 14.45 14.45 0 01-1.193.688c-.425.202-.85.384-1.274.566-.425.162-.87.303-1.315.425-.445.12-.91.222-1.355.303-.465.08-.93.121-1.376.162-.323.02-.647.04-.97.04-.466 0-.93-.04-1.376-.08-.465-.041-.93-.102-1.375-.203a10.24 10.24 0 01-1.355-.344h-.02c.444-.04.89-.08 1.334-.162.465-.08.91-.182 1.355-.303.445-.121.89-.263 1.315-.425.445-.162.87-.364 1.274-.566.425-.202.81-.425 1.214-.668.384-.263.768-.526 1.133-.809.364-.283.708-.586 1.031-.91.344-.303.647-.647.95-.99.304-.365.587-.729.85-1.093.04-.06.081-.142.122-.202.202-.324.404-.648.586-.971a13.946 13.946 0 001.092-2.529c.142-.424.243-.87.344-1.314.081-.465.162-.91.202-1.355.04-.466.081-.93.081-1.376 0-.323-.02-.647-.04-.97-.04-.466-.101-.91-.162-1.356-.08-.465-.182-.91-.303-1.355-.142-.425-.283-.87-.445-1.294a13.99 13.99 0 00-.567-1.254c-.222-.405-.444-.81-.687-1.194a22.353 22.353 0 00-.81-1.112 42.883 42.883 0 00-.93-1.032 11.107 11.107 0 00-.526-.505 37.23 37.23 0 00-2.81-1.984 3.767 3.767 0 00-.404-.202c-.668-.425-1.295-.647-1.922-.85z" fill="#E0234E"/></g><defs><clipPath id="clip0_191_475"><path fill="#fff" transform="translate(.925 .75)" d="M0 0h82.816v80H0z"/></clipPath></defs></svg>