<svg width="148" height="41" fill="none" xmlns="http://www.w3.org/2000/svg"><g clip-path="url(#clip0_191_477)" fill="#fff"><path d="M46.18 19.98c0 6.54 4.2 11.1 10.02 11.1 5.82 0 10.02-4.56 10.02-11.1s-4.2-11.1-10.02-11.1c-5.82 0-10.02 4.56-10.02 11.1zm16.2 0c0 4.68-2.55 7.71-6.18 7.71s-6.18-3.03-6.18-7.71 2.55-7.71 6.18-7.71 6.18 3.03 6.18 7.71zm14.654 11.1c4.41 0 6.93-3.72 6.93-8.19 0-4.47-2.52-8.19-6.93-8.19-2.04 0-3.54.81-4.53 1.98V15h-3.6v21.15h3.6V29.1c.99 1.17 2.49 1.98 4.53 1.98zm-4.62-8.64c0-2.97 1.68-4.59 3.9-4.59 2.61 0 4.02 2.04 4.02 5.04s-1.41 5.04-4.02 5.04c-2.22 0-3.9-1.65-3.9-4.56v-.93zm21.292 8.64c3.15 0 5.64-1.65 6.75-4.41l-3.09-1.17c-.48 1.62-1.89 2.52-3.66 2.52-2.31 0-3.93-1.65-4.2-4.35h11.04v-1.2c0-4.32-2.43-7.77-6.99-7.77-4.56 0-7.5 3.57-7.5 8.19 0 4.86 3.15 8.19 7.65 8.19zm-.18-13.35c2.28 0 3.36 1.5 3.39 3.24h-7.23c.54-2.13 1.98-3.24 3.84-3.24zm9.721 13.02h3.601v-9.24c0-2.25 1.65-3.45 3.27-3.45 1.979 0 2.76 1.41 2.76 3.36v9.33h3.6V20.37c0-3.39-1.98-5.67-5.28-5.67-2.04 0-3.45.93-4.35 1.98V15h-3.601v15.75zm23.774-21.54l-8.16 21.54h3.81l1.83-4.92h9.3l1.86 4.92h3.87l-8.16-21.54h-4.35zm2.1 4.26l3.42 9h-6.78l3.36-9zm16.59-4.198h-3.84v21.54h3.84V9.273zM37.383 17.12a9.964 9.964 0 00-.857-8.184 10.078 10.078 0 00-10.855-4.835A9.969 9.969 0 0018.155.75a10.08 10.08 0 00-9.614 6.977 9.97 9.97 0 00-6.664 4.834 10.081 10.081 0 001.24 11.817 9.964 9.964 0 00.857 8.185 10.078 10.078 0 0010.855 4.835 9.96 9.96 0 007.516 3.35 10.08 10.08 0 009.617-6.982 9.97 9.97 0 006.664-4.834 10.082 10.082 0 00-1.242-11.814l-.002.003zM22.346 38.136A7.471 7.471 0 0117.55 36.4c.061-.033.167-.092.236-.134l7.965-4.6c.407-.231.657-.665.655-1.134V19.303l3.366 1.944c.037.018.06.053.065.093v9.298a7.505 7.505 0 01-7.488 7.497zm-16.105-6.88a7.464 7.464 0 01-.893-5.022c.058.035.162.1.236.142l7.965 4.6c.404.236.904.236 1.309 0l9.723-5.615v3.887a.124.124 0 01-.047.104L16.484 34a7.505 7.505 0 01-10.24-2.744h-.002zM4.146 13.87a7.471 7.471 0 013.901-3.287l-.003.275v9.202c-.003.467.247.9.653 1.132l9.724 5.614-3.366 1.944a.119.119 0 01-.114.01L6.89 24.107a7.505 7.505 0 01-2.744-10.236l.001-.001zm27.658 6.436L22.08 14.69l3.366-1.943a.119.119 0 01.114-.01l8.052 4.65a7.498 7.498 0 01-1.157 13.527v-9.477c.004-.467-.245-.9-.65-1.132h-.001zm3.35-5.043a11.028 11.028 0 00-.237-.14l-7.965-4.6a1.297 1.297 0 00-1.308 0l-9.724 5.614V12.25a.125.125 0 01.047-.104L24.02 7.5a7.495 7.495 0 0111.132 7.762h.003zm-21.064 6.93l-3.367-1.945a.118.118 0 01-.066-.092v-9.299A7.497 7.497 0 0122.952 5.1a5.558 5.558 0 00-.236.133l-7.965 4.6a1.293 1.293 0 00-.655 1.133L14.09 22.19v.002zm1.829-3.943l4.331-2.502 4.331 2.5v5.002l-4.331 2.5-4.331-2.5v-5z"/></g><defs><clipPath id="clip0_191_477"><path fill="#fff" transform="translate(.25 .75)" d="M0 0h147.5v40H0z"/></clipPath></defs></svg>