<svg width="46" height="41" fill="none" xmlns="http://www.w3.org/2000/svg"><g clip-path="url(#clip0_191_485)"><path d="M22.667 24.757a4.007 4.007 0 100-8.014 4.007 4.007 0 000 8.014z" fill="#61DAFB"/><path d="M22.667 28.96c11.875 0 21.501-3.676 21.501-8.21 0-4.534-9.626-8.21-21.501-8.21-11.875 0-21.502 3.676-21.502 8.21 0 4.534 9.627 8.21 21.502 8.21z" stroke="#61DAFB" stroke-width="1.955"/><path d="M15.557 24.855c5.937 10.284 13.934 16.783 17.86 14.516 3.927-2.267 2.297-12.441-3.64-22.726C23.839 6.361 15.842-.138 11.916 2.13c-3.927 2.267-2.297 12.442 3.64 22.726z" stroke="#61DAFB" stroke-width="1.955"/><path d="M15.557 16.646C9.619 26.93 7.989 37.105 11.916 39.372c3.926 2.267 11.923-4.233 17.86-14.517 5.938-10.284 7.568-20.458 3.641-22.726-3.926-2.267-11.923 4.233-17.86 14.517z" stroke="#61DAFB" stroke-width="1.955"/></g><defs><clipPath id="clip0_191_485"><path fill="#fff" transform="translate(.188 .75)" d="M0 0h44.958v40H0z"/></clipPath></defs></svg>