<svg width="180" height="91" fill="none" xmlns="http://www.w3.org/2000/svg"><path d="M61.46 52.394l3.45-2.715c.966 1.701 2.529 2.667 4.323 2.667 1.931 0 2.989-1.242 2.989-2.622 0-1.656-1.977-2.16-4.14-2.805-2.667-.828-5.655-1.839-5.655-5.703 0-3.219 2.805-5.748 6.622-5.748 3.266 0 5.105 1.242 6.714 2.898l-3.127 2.391c-.828-1.242-1.977-1.885-3.54-1.885-1.794 0-2.715.966-2.715 2.208 0 1.518 1.932 2.07 4.047 2.76 2.715.874 5.748 2.07 5.748 5.886 0 3.174-2.529 6.21-6.9 6.21-3.585.045-6.024-1.47-7.818-3.54l.002-.002zm30.584-10.347h3.725v1.518c.874-1.104 2.208-1.794 3.771-1.794 3.219 0 5.151 2.07 5.151 5.61v8.325h-3.817v-7.818c0-1.839-.828-2.898-2.53-2.898-1.424 0-2.575.966-2.575 3.266v7.45H92.04l.004-13.659zm13.521 6.852c0-4.83 3.54-7.128 6.623-7.128 1.794 0 3.174.645 4.095 1.61v-7.635h3.724v19.959h-3.727v-1.518c-.92 1.057-2.346 1.794-4.14 1.794-2.898 0-6.576-2.3-6.576-7.083l.001.001zm10.808-.045c0-2.025-1.47-3.68-3.495-3.68a3.6 3.6 0 00-3.679 3.68 3.572 3.572 0 003.679 3.68c2.025 0 3.495-1.656 3.495-3.68zm4.507-3.127c0-5.703 4.275-10.256 10.21-10.256 2.942 0 5.427 1.058 7.221 2.76.735.69 1.335 1.47 1.838 2.346l-3.31 2.025c-1.242-2.253-3.127-3.45-5.703-3.45-3.633 0-6.438 2.99-6.438 6.576 0 3.68 2.76 6.576 6.576 6.576 2.898 0 4.965-1.656 5.655-4.2h-6.255v-3.633h10.347v1.518c0 5.334-3.818 9.98-9.75 9.98-6.255 0-10.395-4.737-10.395-10.256l.004.014zm21.063-3.68h3.707V44.3c.69-1.425 1.932-2.253 3.771-2.253h1.518l-1.38 3.633h-1.012c-1.978 0-2.851 1.058-2.851 3.585v6.438h-3.771l.018-13.656zm9.98 0h3.724v13.66h-3.724V45.68h-1.38l1.38-3.633zm1.886-2.07a2.258 2.258 0 002.253-2.253 2.258 2.258 0 00-2.253-2.253 2.258 2.258 0 00-2.253 2.253 2.258 2.258 0 002.253 2.253zm2.759 8.922c0-4.83 3.54-7.128 6.623-7.128 1.794 0 3.173.645 4.095 1.61v-7.635h3.725v19.959h-3.725v-1.518c-.919 1.057-2.346 1.794-4.14 1.794-2.898 0-6.576-2.3-6.576-7.083l-.002.001zm10.808-.045c0-2.025-1.47-3.68-3.495-3.68a3.6 3.6 0 00-3.68 3.68 3.566 3.566 0 001.044 2.636 3.576 3.576 0 002.636 1.044c2.025 0 3.495-1.656 3.495-3.68zm-76.205 0c0-3.955-2.85-7.083-7.035-7.083A7.105 7.105 0 0077.01 48.9c0 3.954 2.942 7.128 7.22 7.128 2.944 0 5.06-1.425 6.255-3.45l-2.989-1.794c-.645 1.196-1.839 1.977-3.266 1.977-1.977 0-3.219-.966-3.632-2.484h10.53v-1.425l.044.003zm-10.395-1.656c.553-1.287 1.794-2.16 3.358-2.16 1.563 0 2.76.735 3.265 2.16h-6.623zM8.994 38.19h15.03v15.03H8.994V38.19z" fill="#fff"/><path d="M8.994 38.19h15.03v15.03H8.994V38.19z" fill="#99E1F4"/><path d="M24.024 53.22h14.944v14.944H24.024V53.219z" fill="#fff"/><path d="M24.024 53.22h14.944v14.944H24.024V53.219z" fill="#99E1F4"/><path d="M8.994 68.165h15.03v.087H8.994v-.087zm0-14.946h15.03v14.946H8.994V53.22z" fill="#1A82E2"/><path d="M24.024 23.247h14.944V38.19H24.024V23.247zM38.97 38.28H54v14.944H38.97V38.28z" fill="#00B3E3"/><path d="M38.97 53.22V38.19H24.026v15.03H38.97z" fill="#009DD9"/><path d="M38.97 23.247H54V38.19H38.97V23.247zm0 14.943H54v.087H38.97v-.087z" fill="#1A82E2"/></svg>