<svg width="127" height="61" fill="none" xmlns="http://www.w3.org/2000/svg"><path fill-rule="evenodd" clip-rule="evenodd" d="M112.206 31.33c0-6.904-3.344-12.351-9.735-12.351-6.418 0-10.301 5.447-10.301 12.297 0 8.116 4.584 12.215 11.164 12.215 3.209 0 5.636-.728 7.47-1.752v-5.394c-1.834.917-3.937 1.483-6.607 1.483-2.616 0-4.935-.916-5.231-4.098h13.186c0-.351.054-1.753.054-2.4zm-13.321-2.562c0-3.047 1.86-4.315 3.559-4.315 1.645 0 3.398 1.268 3.398 4.315h-6.957zm-17.124-9.789c-2.643 0-4.341 1.24-5.285 2.103l-.35-1.672h-5.934v31.443l6.742-1.43.027-7.63c.97.7 2.4 1.698 4.773 1.698 4.827 0 9.223-3.883 9.223-12.431-.027-7.82-4.477-12.081-9.196-12.081zm-1.618 18.58c-1.59 0-2.535-.566-3.182-1.268l-.027-10.004c.701-.782 1.672-1.322 3.21-1.322 2.453 0 4.152 2.751 4.152 6.284 0 3.613-1.672 6.31-4.153 6.31zM60.916 17.388l6.769-1.456v-5.474l-6.769 1.43v5.5z" fill="#635BFF"/><path d="M67.685 19.438h-6.769v23.595h6.769V19.438z" fill="#635BFF"/><path fill-rule="evenodd" clip-rule="evenodd" d="M53.662 21.433l-.431-1.995h-5.825v23.595h6.742v-15.99c1.59-2.077 4.287-1.7 5.123-1.403v-6.202c-.863-.324-4.018-.917-5.609 1.995zm-13.483-7.847l-6.58 1.402-.027 21.6c0 3.991 2.993 6.93 6.984 6.93 2.212 0 3.83-.404 4.72-.89v-5.474c-.863.351-5.124 1.591-5.124-2.4v-9.573h5.124v-5.743h-5.124l.027-5.852zM21.95 26.287c0-1.052.863-1.456 2.292-1.456 2.05 0 4.638.62 6.688 1.726V20.22c-2.239-.89-4.45-1.241-6.688-1.241-5.474 0-9.115 2.858-9.115 7.631 0 7.443 10.248 6.257 10.248 9.466 0 1.24-1.08 1.645-2.59 1.645-2.237 0-5.096-.917-7.361-2.158v6.418a18.694 18.694 0 007.362 1.537c5.609 0 9.465-2.777 9.465-7.604-.027-8.036-10.301-6.607-10.301-9.627z" fill="#635BFF"/></svg>