<svg width="151" height="65" xmlns="http://www.w3.org/2000/svg"><defs><linearGradient x1="100%" y1="50%" x2="0%" y2="50%" id="linearGradient-1"><stop stop-color="#313042" offset="0%"/><stop stop-color="#181820" offset="100%"/></linearGradient></defs><g id="Page-1" stroke="none" stroke-width="1" fill="none" fill-rule="evenodd"><g id="SRG_case" transform="translate(-564 -1204)" fill="url(#linearGradient-1)" fill-rule="nonzero"><path d="M709.607 1231.083H569.393c-2.979 0-5.393 2.425-5.393 5.417s2.414 5.417 5.393 5.417h140.214c2.978 0 5.393-2.425 5.393-5.417s-2.415-5.417-5.393-5.417zm-4.211 2.033l-21.572 27.083a5.433 5.433 0 00.843 7.614 5.377 5.377 0 007.58-.846l21.571-27.083a5.433 5.433 0 00-.842-7.614 5.377 5.377 0 00-7.58.846zm8.422 0l-21.571-27.083a5.377 5.377 0 00-7.58-.846 5.433 5.433 0 00-.843 7.614l21.572 27.083a5.377 5.377 0 007.58.846 5.433 5.433 0 00.842-7.614z" id="Combined-Shape"/></g></g></svg>