<svg width="133" height="164" xmlns="http://www.w3.org/2000/svg"><defs><linearGradient x1="50%" y1=".022%" x2="50%" y2="99.98%" id="linearGradient-1"><stop stop-color="#C6DFB8" offset="0%"/><stop stop-color="#9CCFBB" offset="100%"/></linearGradient><linearGradient x1="49.987%" y1="0%" x2="49.987%" y2="99.959%" id="linearGradient-2"><stop stop-color="#C6DFB8" offset="0%"/><stop stop-color="#9CCFBB" offset="100%"/></linearGradient><linearGradient x1="49.96%" y1=".002%" x2="49.96%" y2="100%" id="linearGradient-3"><stop stop-color="#C6DFB8" offset="0%"/><stop stop-color="#9CCFBB" offset="100%"/></linearGradient></defs><g id="Page-1" stroke="none" stroke-width="1" fill="none" fill-rule="evenodd"><g id="SRG_case" transform="translate(-573 -57)" fill-rule="nonzero"><g id="Ресlogoс-1" transform="translate(573 57)"><path d="M6.934 163.596l.247-25.567 22.182 12.986-22.43 12.58zm3.096-20.544l-.152 15.576 13.66-7.66-13.508-7.916z" id="Shape" fill="#19A56F"/><path d="M119.622 137.855c-5.287.003-10.055-3.157-12.08-8.006a12.91 12.91 0 012.827-14.145 13.138 13.138 0 0114.245-2.817c4.884 2.009 8.07 6.741 8.07 11.99-.01 7.161-5.85 12.965-13.062 12.978zm0-23.07c-4.112-.004-7.821 2.453-9.397 6.225a10.042 10.042 0 002.198 11.002 10.218 10.218 0 0011.08 2.192c3.799-1.562 6.276-5.243 6.276-9.326 0-5.573-4.545-10.093-10.157-10.102v.008z" id="Shape" fill="#C14444"/><path id="Path" fill="#FFF" d="M35.45 155.863v2.1H18.353v-29.44h16.883v2.099h-14.61v11.44H34.19v2.131H20.626v11.694z"/><path d="M60.146 150.476H45.281l-2.88 7.487h-2.394l11.538-29.44h2.393l11.49 29.44h-2.394l-2.888-7.487zm-.798-2.1l-6.607-17.12-6.606 17.12h13.213zm23.674-2.487h-9.36v12.074h-2.25v-29.44H83.11c4.323.102 7.926 3.316 8.491 7.573.565 4.257-2.077 8.288-6.225 9.5l7.372 12.367h-2.585l-7.141-12.074zm-9.36-2.1h9.448c3.662 0 6.63-2.947 6.63-6.584 0-3.636-2.968-6.583-6.63-6.583h-9.447v13.167z" id="Shape" fill="#FFF"/><path id="Path" fill="#FFF" d="M120.81 128.522v29.44h-1.994l-17.49-25.352v25.353h-2.25v-29.44h1.955l17.554 25.352v-25.353z"/><path d="M40.27 69.458a9.473 9.473 0 01-2.833 6.94 9.611 9.611 0 01-7.013 2.75H22.07V91.11h-2.394V59.73h10.748a9.611 9.611 0 017.028 2.765 9.472 9.472 0 012.818 6.964zm-2.393 0a7.158 7.158 0 00-2.084-5.355 7.264 7.264 0 00-5.369-2.132H22.07v14.935h8.354a7.256 7.256 0 005.357-2.115 7.15 7.15 0 002.096-5.333z" id="Shape" fill="#FFF"/><path id="Path" fill="#FFF" d="M65.285 88.877v2.234H47.994V59.73h2.394v29.148z"/><path d="M91.169 83.133H75.314l-3.072 7.978h-2.53l12.289-31.39h2.529l12.24 31.39h-2.53l-3.071-7.978zm-.862-2.242L83.26 62.669 76.216 80.89h14.09z" id="Shape" fill="#FFF"/><path id="Path" fill="#FFF" d="M109.552 78.205v12.906h-2.393V78.205L95.637 59.729h2.713l10.03 16.186 9.973-16.186h2.713z"/><path d="M77.022 119.562l-2.29-2.377a7.51 7.51 0 01-5.905 2.472c-3.894 0-6.439-2.14-6.439-5.546a6.149 6.149 0 013.926-5.728 5.573 5.573 0 01-1.596-3.843c0-3.224 2.657-5.158 5.585-5.158a5.697 5.697 0 015.514 3.7l-1.245.73a4.314 4.314 0 00-4.237-3.003c-2.346 0-4.101 1.52-4.101 3.676 0 1.584.934 2.725 2.146 3.961l6.216 6.433a11.185 11.185 0 001.205-3.906l1.324.793a12.214 12.214 0 01-1.468 4.238l2.697 2.837-1.332.72zm-3.304-3.455l-6.383-6.615a4.821 4.821 0 00-3.423 4.595c0 2.583 1.891 4.128 4.86 4.128a6.357 6.357 0 004.946-2.108z" id="Shape" fill="#FFF"/><path d="M76.95 120.045l-2.21-2.306a8.01 8.01 0 01-5.913 2.29c-4.149 0-6.83-2.321-6.83-5.91a6.5 6.5 0 013.702-5.863 5.712 5.712 0 01-1.356-3.708c0-3.597 3.08-5.546 5.984-5.546a6.032 6.032 0 015.873 3.961l.112.302-1.94 1.132-.151-.459a3.9 3.9 0 00-3.862-2.733c-2.154 0-3.71 1.386-3.71 3.288 0 1.497.918 2.559 2.035 3.692l5.808 6.029c.467-1.047.771-2.159.902-3.296l.072-.57 2.066 1.18v.261a12.615 12.615 0 01-1.372 4.112l2.833 2.995-2.043 1.149zM70.327 99.77c-2.585 0-5.21 1.648-5.21 4.753a5.25 5.25 0 001.492 3.597l.343.388-.479.214a5.721 5.721 0 00-3.694 5.364c0 3.169 2.314 5.142 6.048 5.142a7.11 7.11 0 005.586-2.337l.279-.317 2.394 2.472.638-.365-2.577-2.686.151-.253c.685-1.19 1.15-2.49 1.373-3.843l-.599-.34a11.329 11.329 0 01-1.14 3.47l-.256.46-6.559-6.806c-1.189-1.205-2.258-2.44-2.258-4.223 0-2.377 1.891-4.057 4.492-4.057a4.662 4.662 0 014.437 2.82l.558-.332a5.31 5.31 0 00-5.019-3.121zm-1.596 18.832c-3.239 0-5.25-1.727-5.25-4.516a5.202 5.202 0 013.703-4.96l.239-.087 6.782 7.06-.231.269a6.805 6.805 0 01-5.203 2.234h-.04zm-1.468-8.66a4.4 4.4 0 00-2.96 4.144c0 2.377 1.668 3.74 4.468 3.74a5.967 5.967 0 004.413-1.712l-5.92-6.172z" id="Shape" fill="#FFF"/><path id="Rectangle" fill="#32209E" transform="rotate(59.34 9.669 40.982)" d="M-.725 39.68l20.796-.064-.009 2.668-20.795.065z"/><path id="Rectangle" fill="#32209E" transform="rotate(149.34 9.68 40.982)" d="M-.757 39.62l20.867.065.008 2.66-20.867-.066z"/><path d="M116.494 30.899l-15.567-15.45L116.494 0l15.56 15.457-15.56 15.442zm-11.458-15.45l11.458 11.385 11.458-11.377L116.494 4.08l-11.458 11.37z" id="Shape" fill="#9E3C7B"/><path d="M15.607 42.093l7.588-4.365c1.372 3.169 3.734 5.292 8.075 5.292 4.18 0 5.226-1.64 5.226-3.113 0-2.377-2.202-3.272-7.979-4.857-5.777-1.584-11.314-4.31-11.314-11.623 0-7.312 6.263-11.622 12.918-11.622 6.01-.204 11.556 3.194 14.067 8.62l-7.42 4.318c-1.317-2.734-3.136-4.421-6.647-4.421-2.753 0-4.125 1.362-4.125 2.892 0 1.743.933 2.947 6.926 4.753 5.824 1.743 12.367 3.763 12.367 11.837 0 7.368-5.936 11.733-14.29 11.733-8.083-.04-13.246-3.826-15.392-9.444z" id="Path" fill="url(#linearGradient-1)"/><path d="M64.574 38.22h-4.18v12.549h-8.778V12.573h15.408c3.495 0 6.847 1.381 9.315 3.838a13.018 13.018 0 013.842 9.259c-.08 4.726-2.819 9.01-7.093 11.091l8.187 14.024H71.81l-7.237-12.566zm-4.18-7.646h6.63c2.394 0 4.396-2.124 4.396-4.904 0-2.781-2.002-4.913-4.396-4.913h-6.63v9.817z" id="Shape" fill="url(#linearGradient-2)"/><path d="M125.127 32.76c0 11.678-8.186 18.77-18.958 18.77-12.088 0-20.746-8.835-20.746-19.807a19.737 19.737 0 015.87-14.146 20.021 20.021 0 0114.27-5.772c7.364 0 13.564 3.605 16.82 8.715l-7.485 4.27c-1.596-2.503-5.05-4.468-9.391-4.468-6.487 0-11.322 4.753-11.322 11.456 0 6.497 4.611 11.242 12.088 11.242 5.106 0 8.466-2.242 9.838-5.894h-10.269v-7.638h19.285v3.272z" id="Path" fill="url(#linearGradient-3)"/></g></g></g></svg>