<svg xmlns="http://www.w3.org/2000/svg" xmlns:xlink="http://www.w3.org/1999/xlink" width="1280" height="720"><defs><linearGradient id="prefix__b" x1="18.349%" x2="80.925%" y1="43.725%" y2="52.939%"><stop offset="0%" stop-color="#5828E5"/><stop offset="100%" stop-color="#1C53F2"/></linearGradient><linearGradient id="prefix__e" x1="50%" x2="50%" y1="0%" y2="100%"><stop offset="0%" stop-color="#1C53F2" stop-opacity="0"/><stop offset="100%" stop-color="#FFF" stop-opacity=".164"/></linearGradient><filter id="prefix__c" width="128.7%" height="145.6%" x="-14.4%" y="-22.8%" filterUnits="objectBoundingBox"><feGaussianBlur in="SourceGraphic" stdDeviation="50"/></filter><path id="prefix__a" d="M0 0h1280v720H0z"/></defs><g fill="none" fill-rule="evenodd"><mask id="prefix__d" fill="#fff"><use xlink:href="#prefix__a"/></mask><use fill="url(#prefix__b)" xlink:href="#prefix__a"/><ellipse cx="997.5" cy="-35" fill="#1AC88E" fill-opacity=".274" filter="url(#prefix__c)" mask="url(#prefix__d)" rx="522.5" ry="329"/><path fill="url(#prefix__e)" fill-rule="nonzero" d="M26 129c-238.22 0-432 104.378-432 235s193.78 235 432 235 432-104.378 432-235S264.22 129 26 129zm0 0c233.43 0 422 103.829 422 230S259.43 589 26 589s-422-103.829-422-230 188.57-230 422-230z" mask="url(#prefix__d)" transform="rotate(-22 26 364)"/></g></svg>