<svg xmlns="http://www.w3.org/2000/svg" xmlns:xlink="http://www.w3.org/1999/xlink" width="1280" height="720"><defs><linearGradient id="prefix__b" x1="0%" x2="100%" y1="34.18%" y2="65.82%"><stop offset="0%" stop-color="#5828E5"/><stop offset="100%" stop-color="#1C53F2"/></linearGradient><linearGradient id="prefix__f" x1="50%" x2="50%" y1="0%" y2="100%"><stop offset="0%" stop-color="#1C53F2" stop-opacity="0"/><stop offset="100%" stop-color="#FFF" stop-opacity=".164"/></linearGradient><filter id="prefix__c" width="141.7%" height="145.6%" x="-20.8%" y="-22.8%" filterUnits="objectBoundingBox"><feGaussianBlur in="SourceGraphic" stdDeviation="50"/></filter><filter id="prefix__e" width="128.7%" height="145.6%" x="-14.4%" y="-22.8%" filterUnits="objectBoundingBox"><feGaussianBlur in="SourceGraphic" stdDeviation="50"/></filter><path id="prefix__a" d="M0 0h1280v720H0z"/></defs><g fill="none" fill-rule="evenodd"><mask id="prefix__d" fill="#fff"><use xlink:href="#prefix__a"/></mask><use fill="url(#prefix__b)" xlink:href="#prefix__a"/><ellipse cx="-10" cy="-48" fill="#C8891A" fill-opacity=".259" filter="url(#prefix__c)" mask="url(#prefix__d)" opacity=".501" rx="360" ry="329"/><ellipse cx="1257.5" cy="739" fill="#1AC88E" fill-opacity=".274" filter="url(#prefix__e)" mask="url(#prefix__d)" rx="522.5" ry="329"/><path fill="url(#prefix__f)" fill-rule="nonzero" d="M1036 154c-238.22 0-432 104.378-432 235s193.78 235 432 235 432-104.378 432-235-193.78-235-432-235zm0 0c233.43 0 422 103.829 422 230s-188.57 230-422 230-422-103.829-422-230 188.57-230 422-230z" mask="url(#prefix__d)" opacity=".177" transform="scale(-1 1) rotate(-22 0 5718.758)"/><path fill="url(#prefix__f)" fill-rule="nonzero" d="M1127 38c-238.22 0-432 104.378-432 235s193.78 235 432 235 432-104.378 432-235-193.78-235-432-235zm0 0c233.43 0 422 103.829 422 230s-188.57 230-422 230-422-103.829-422-230S893.57 38 1127 38z" mask="url(#prefix__d)" opacity=".537" transform="scale(-1 1) rotate(-22 0 6070.912)"/></g></svg>