<svg width="1280" height="657" xmlns="http://www.w3.org/2000/svg" xmlns:xlink="http://www.w3.org/1999/xlink"><defs><filter x="-13.1%" y="-22.1%" width="126.3%" height="144.2%" filterUnits="objectBoundingBox" id="filter-4"><feGaussianBlur stdDeviation="50" in="SourceGraphic"/></filter><filter x="-20.8%" y="-22.8%" width="141.7%" height="145.6%" filterUnits="objectBoundingBox" id="filter-6"><feGaussianBlur stdDeviation="50" in="SourceGraphic"/></filter><filter x="-20.8%" y="-22.8%" width="141.7%" height="145.6%" filterUnits="objectBoundingBox" id="filter-7"><feGaussianBlur stdDeviation="50" in="SourceGraphic"/></filter><linearGradient x1="18.349%" y1="44.783%" x2="80.925%" y2="52.443%" id="linearGradient-1"><stop stop-color="#5828E5" offset="0%"/><stop stop-color="#1C53F2" offset="100%"/></linearGradient><linearGradient x1="50%" y1="0%" x2="50%" y2="100%" id="linearGradient-5"><stop stop-color="#1C53F2" stop-opacity="0" offset="0%"/><stop stop-color="#FFF" stop-opacity=".164" offset="100%"/></linearGradient><path id="path-2" d="M0 .5h1280V657H0z"/></defs><g id="design" stroke="none" stroke-width="1" fill="none" fill-rule="evenodd"><g id="Pills_case_desktop" transform="translate(0 -63)"><g id="Rectangle-2" transform="translate(0 63)"><g id="bg"><mask id="mask-3" fill="#fff"><use xlink:href="#path-2"/></mask><use id="Rectangle" fill="url(#linearGradient-1)" xlink:href="#path-2"/><ellipse id="Oval" fill-opacity=".627" fill="#5C1AC8" filter="url(#filter-4)" mask="url(#mask-3)" cx="891" cy="601" rx="571" ry="339"/><path d="M922 129c-238.22 0-432 104.378-432 235s193.78 235 432 235 432-104.378 432-235-193.78-235-432-235zm0 0c233.43 0 422 103.829 422 230s-188.57 230-422 230-422-103.829-422-230 188.57-230 422-230z" id="Oval" fill="url(#linearGradient-5)" fill-rule="nonzero" mask="url(#mask-3)" transform="rotate(-22 922 364)"/><ellipse id="Oval" fill-opacity=".476" fill="#1AC88E" filter="url(#filter-6)" mask="url(#mask-3)" cx="640" cy="58" rx="360" ry="329"/><ellipse id="Oval" fill-opacity=".259" fill="#C8891A" filter="url(#filter-7)" mask="url(#mask-3)" cx="34" cy="757" rx="360" ry="329"/></g></g></g></g></svg>