<svg width="153" height="64" xmlns="http://www.w3.org/2000/svg" xmlns:xlink="http://www.w3.org/1999/xlink"><defs><path d="M48.75 0C58 0 64 6 64 15.25v33.5C64 58 58 64 48.75 64h-33.5C6 64 0 58 0 48.75v-33.5C0 6 6 0 15.25 0h33.5z" id="path-1"/></defs><g id="design" stroke="none" stroke-width="1" fill="none" fill-rule="evenodd"><g id="Pills_case_desktop" transform="translate(-90 -264)"><g id="Stacked-Group" transform="translate(90 264)"><g id="logo"><path d="M85.934 46.545v-9.01h5.306c5.974 0 10.12-3.921 10.12-9.783 0-5.88-4.009-9.782-9.825-9.782H80v28.575h5.934zm4.01-13.684h-4.01V22.703h4.029c3.4 0 5.364 1.822 5.364 5.07 0 3.267-1.984 5.088-5.384 5.088zm17.792-9.88c1.73 0 3.066-1.328 3.066-2.99 0-1.684-1.336-2.991-3.066-2.991-1.729 0-3.065 1.307-3.065 2.99 0 1.663 1.336 2.99 3.065 2.99zm2.87 23.564V25.317h-5.739v21.228h5.738zm10.09 0V17.97h-5.739v28.575h5.738zm10.148 0V17.97h-5.737v28.575h5.737zm12.783.455c5.56 0 9.373-2.752 9.373-6.93 0-3.169-1.71-4.852-5.934-5.803l-4.029-.871c-1.847-.436-2.75-1.148-2.75-2.198 0-1.366 1.296-2.277 3.28-2.277 2.123 0 3.479 1.05 3.597 2.752h5.286c-.079-4.119-3.518-6.812-8.804-6.812-5.404 0-8.882 2.654-8.882 6.693 0 3.13 2.044 5.228 6.033 6.14l3.89.87c1.887.456 2.595 1.05 2.595 2.12 0 1.385-1.317 2.257-3.498 2.257-2.28 0-3.675-1.03-3.95-2.812h-5.6c.314 4.138 3.773 6.871 9.393 6.871z" id="Pills" fill="#FFF" fill-rule="nonzero"/><g id="Group-3"><mask id="mask-2" fill="#fff"><use xlink:href="#path-1"/></mask><use id="Mask" fill="#FFF" xlink:href="#path-1"/><path d="M20.024 11.813c-4.769 0-8.649 3.88-8.649 8.651V42.65c0 4.77 3.88 8.651 8.65 8.651 4.768 0 8.648-3.88 8.648-8.651V20.464c0-4.77-3.88-8.651-8.649-8.651zm23.285 21.74c5.136 0 9.315 4.18 9.315 9.317 0 5.138-4.179 9.318-9.315 9.318-5.136 0-9.314-4.18-9.314-9.318s4.178-9.317 9.314-9.317zm-17.297-1.331v10.427a5.996 5.996 0 01-5.988 5.99 5.996 5.996 0 01-5.988-5.99V32.222h11.976zm14.473 6.886l-.94.94 6.585 6.587.941-.942-6.586-6.585zm8.148-26.852a3.997 3.997 0 013.992 3.994v10.648a3.997 3.997 0 01-3.992 3.993H37.988a3.997 3.997 0 01-3.992-3.993V16.25a3.997 3.997 0 013.992-3.994zm-4.657 4.659h-1.33v3.993h-3.993v1.331h3.992v3.993h1.33V22.24h3.993v-1.33h-3.992v-3.994z" id="Combined-Shape" fill="#1C53F2" fill-rule="nonzero" mask="url(#mask-2)"/></g></g></g></g></g></svg>