<?xml version="1.0" encoding="UTF-8"?>
<svg xmlns="http://www.w3.org/2000/svg" width="162" height="56" viewBox="0 0 162 56" fill="none">
  <g opacity="0.64">
    <path fill-rule="evenodd" clip-rule="evenodd" d="M115.021 21.3784C115.824 20.6523 116.359 19.6203 116.531 18.4547L101.358 18.4738L100.842 22.5441H105.504C106.345 22.5441 107.148 22.2957 107.817 21.8562C107.792 21.881 107.767 21.9078 107.742 21.9353C107.689 21.9926 107.633 22.0529 107.568 22.1046C107.09 22.5441 106.575 22.869 105.963 23.0601C105.848 23.3658 105.772 23.6907 105.734 24.0347L104.071 37.3731H107.874L109.67 22.5441H112.078C113.206 22.5441 114.237 22.1046 115.021 21.3784ZM71.2982 18.4928L68.833 37.3731H65.0111L66.043 30.3599C65.9284 30.379 60.119 30.379 60.119 30.379L59.2018 37.3731H55.4181L57.8832 18.4928H61.6669L60.7114 26.0411C59.9471 26.194 59.24 26.5762 58.6476 27.1112C58.4183 27.3214 58.189 27.5698 57.9979 27.8374C58.7814 27.1112 59.8133 26.6717 60.9216 26.6717H66.4252L67.4762 18.4928H71.2982ZM79.305 18.4931L76.9737 37.3734H73.1517L75.5213 18.4931H79.305ZM97.2298 18.5119V18.4928H86.0316C84.713 18.4928 83.6047 19.4674 83.4327 20.7859L83.2034 22.5631H96.7138L97.2298 18.5119ZM42.5765 24.0155C42.328 25.4296 42.6338 25.6398 42.6338 25.6398C42.7676 25.7353 43.36 25.9455 46.1882 26.0984C48.8444 26.2513 50.4878 26.6526 51.214 27.3405C51.9784 28.0476 52.1695 29.4235 51.8255 31.5064C51.6153 32.7677 51.3287 33.7805 50.9465 34.5831C50.5643 35.3857 50.1057 35.9781 49.5515 36.3603C48.6342 36.9909 47.029 37.354 44.6594 37.4495C44.5639 37.4495 36.748 37.4686 36.748 37.4686L37.1876 33.9525H45.0225C46.2837 33.8951 46.7615 33.6849 46.9526 33.5511C47.3157 33.3027 47.6023 32.5957 47.7743 31.5638C47.9463 30.5701 47.7743 30.2643 47.6978 30.1688C47.6405 30.0923 47.3157 29.863 46.0735 29.7866L44.2963 29.6719C41.4872 29.4999 39.7674 29.0795 39.0412 28.3916C38.2768 27.6654 38.0857 26.2513 38.4679 24.0537C38.831 21.8752 39.5763 20.3846 40.6846 19.6203C41.7357 18.9132 43.4937 18.5501 46.0544 18.5119L53.5263 18.4928L53.0676 22.009H46.322C44.8505 22.009 43.8759 22.1427 43.4173 22.4103C42.9969 22.6587 42.7102 23.1938 42.5765 24.0155ZM92.2997 27.7233L92.4526 26.6914H82.7449L81.3308 37.3737H85.1336L86.0509 30.3796H89.2422C90.7709 30.3796 92.0895 29.2521 92.2997 27.7233ZM114.601 33.6469L114.123 37.4497H115.174L115.652 33.6469H114.601ZM115.346 31.9844C115.021 31.9844 114.753 32.2328 114.734 32.615C114.734 32.959 114.944 33.1501 115.25 33.1501C115.594 33.1501 115.881 32.9207 115.881 32.5194C115.862 32.2137 115.652 31.9844 115.346 31.9844ZM117.562 34.2968C117.906 33.7999 118.346 33.5706 118.824 33.5706C119.416 33.5706 119.741 33.9528 119.741 34.6025C119.741 34.7315 119.719 34.9251 119.701 35.0944C119.694 35.1508 119.688 35.2045 119.684 35.2523L119.416 37.469H118.365L118.614 35.3669C118.633 35.2523 118.652 35.0803 118.652 34.9465C118.652 34.679 118.575 34.4879 118.308 34.4879C117.964 34.4879 117.562 34.9465 117.41 35.7873L117.219 37.469H116.167C116.167 37.469 116.664 34.0101 116.703 33.6662H117.639L117.562 34.2968ZM122.608 34.4497C122.818 34.4497 122.971 34.4879 123.085 34.5452L123.334 33.6853C123.181 33.6088 122.913 33.5515 122.608 33.5515C121.251 33.5515 120.276 34.6025 120.276 35.9593C120.276 36.953 120.907 37.5072 121.786 37.5072C122.206 37.5072 122.569 37.4308 122.799 37.3161V36.4562C122.608 36.5326 122.397 36.609 122.092 36.609C121.69 36.609 121.385 36.3415 121.385 35.8256C121.385 35.1376 121.862 34.4497 122.608 34.4497ZM123.334 36.8958C123.334 36.4563 123.62 36.0932 124.041 36.0932C124.404 36.0932 124.652 36.3608 124.652 36.7621C124.652 37.2207 124.346 37.5456 123.926 37.5456C123.563 37.5456 123.334 37.2589 123.334 36.8958Z" fill="white"></path>
  </g>
</svg>
