<?xml version="1.0" encoding="UTF-8"?>
<svg xmlns="http://www.w3.org/2000/svg" width="148" height="56" viewBox="0 0 148 56" fill="none">
  <g opacity="0.64">
    <path fill-rule="evenodd" clip-rule="evenodd" d="M21.7446 21.504C21.7446 21.8365 21.8721 22.1434 22.1015 22.3735L25.1353 25.4681C25.2628 25.596 25.3902 25.6983 25.5432 25.7494C25.6962 25.8261 25.8746 25.8517 26.0276 25.8517C26.206 25.8517 26.359 25.8006 26.512 25.7494C26.6649 25.6727 26.7924 25.596 26.9199 25.4681L29.9791 22.3991C30.1066 22.2712 30.2086 22.1434 30.2596 21.9899C30.336 21.8365 30.3615 21.683 30.3615 21.504C30.3615 21.325 30.3106 21.1715 30.2596 21.0181C30.1831 20.8646 30.1066 20.7367 29.9791 20.6089L26.9199 17.5399C26.6904 17.3097 26.3845 17.1818 26.0531 17.1818C25.7217 17.1818 25.3902 17.3097 25.1608 17.5654L22.1015 20.6344C21.8721 20.8646 21.7446 21.1715 21.7446 21.504ZM33.3953 24.0359L36.4546 27.1049C36.582 27.2328 36.684 27.3606 36.735 27.5141C36.8115 27.6675 36.837 27.8466 36.837 28C36.837 28.179 36.786 28.3325 36.735 28.4859L36.735 28.4859C36.6585 28.6394 36.582 28.7673 36.4546 28.8951L33.3953 31.9641C33.2678 32.092 33.1404 32.1943 32.9874 32.2454C32.8344 32.3222 32.6815 32.3477 32.503 32.3477C32.3246 32.3477 32.1716 32.2966 32.0186 32.2454C31.8657 32.1687 31.7382 32.092 31.6107 31.9641L28.5515 28.8951C28.424 28.7673 28.322 28.6394 28.271 28.4859C28.1946 28.3325 28.1691 28.1535 28.1691 28C28.1691 27.821 28.2201 27.6675 28.271 27.5141C28.3475 27.3606 28.424 27.2328 28.5515 27.1049L31.6107 24.0359C31.7382 23.908 31.8657 23.8057 32.0186 23.7546C32.1716 23.6778 32.3246 23.6523 32.503 23.6523C32.6815 23.6523 32.8344 23.7034 32.9874 23.7546L32.9874 23.7546C33.1404 23.8313 33.2678 23.908 33.3953 24.0359ZM26.9199 30.5319C26.7924 30.404 26.6649 30.3273 26.512 30.2506C26.359 30.1994 26.206 30.1483 26.0276 30.1483C25.8491 30.1483 25.6962 30.1739 25.5432 30.2506C25.3902 30.3017 25.2628 30.404 25.1353 30.5319L22.076 33.6009C21.8721 33.8567 21.7446 34.1636 21.7446 34.496C21.7446 34.8285 21.8721 35.1354 22.1015 35.3656L25.1608 38.4346C25.2883 38.5624 25.4157 38.6392 25.5687 38.7159C25.7217 38.767 25.8746 38.8182 26.0531 38.8182C26.2315 38.8182 26.3845 38.7926 26.5375 38.7159C26.6904 38.6647 26.8179 38.5624 26.9454 38.4346L30.0046 35.3656C30.1321 35.2377 30.2086 35.1098 30.2851 34.9564C30.336 34.8029 30.387 34.6495 30.387 34.4705C30.387 34.317 30.3615 34.138 30.2851 33.9845C30.2341 33.8311 30.1321 33.7032 30.0046 33.5753L26.9199 30.5319ZM113.031 22.1891C113.963 22.1891 114.599 21.5537 114.599 20.6429C114.599 19.7533 113.963 19.1178 113.031 19.1178C112.099 19.1178 111.443 19.7533 111.443 20.6429C111.443 21.5537 112.099 22.1891 113.031 22.1891ZM113.921 34.3683C114.133 34.3683 114.26 34.2412 114.26 34.0294V23.8836C114.26 23.6718 114.133 23.5447 113.921 23.5447H112.142C111.93 23.5447 111.803 23.6718 111.803 23.8836V34.0294C111.803 34.2412 111.93 34.3683 112.142 34.3683H113.921ZM49.4351 23.5235H51.4261C51.6379 23.5235 51.765 23.6506 51.765 23.8624V25.3663C51.765 25.5781 51.6379 25.7052 51.4261 25.7052H49.4351C49.3715 25.7052 49.308 25.7475 49.308 25.8323V34.0294C49.308 34.2412 49.1809 34.3683 48.9691 34.3683H47.1899C46.978 34.3683 46.851 34.2412 46.851 34.0294V25.8323C46.851 25.7475 46.8086 25.7052 46.7239 25.7052H45.5165C45.3047 25.7052 45.1776 25.5781 45.1776 25.3663V23.8624C45.1776 23.6506 45.3047 23.5235 45.5165 23.5235H46.7239C46.8086 23.5235 46.851 23.4812 46.851 23.3964V23.0363C46.851 20.3463 47.7829 19.5203 50.7271 19.5415H51.3837C51.5955 19.5415 51.7226 19.6685 51.7226 19.8804V21.1936C51.7226 21.4054 51.5955 21.5325 51.3837 21.5325H50.9177C49.6892 21.5325 49.308 21.9349 49.308 23.2058V23.3964C49.308 23.4812 49.3503 23.5235 49.4351 23.5235ZM55.98 34.3683H54.2008C53.989 34.3683 53.8619 34.2412 53.8619 34.0294V19.8804C53.8619 19.6685 53.989 19.5415 54.2008 19.5415H55.98C56.1919 19.5415 56.3189 19.6685 56.3189 19.8804V34.0294C56.3189 34.2412 56.1919 34.3683 55.98 34.3683ZM58.6942 26.2559C58.9484 24.5826 60.6852 23.3752 63.1211 23.3752C65.8535 23.3752 67.6115 24.9003 67.6115 26.976V34.0294C67.6115 34.2412 67.4844 34.3683 67.2726 34.3683H65.4934C65.2816 34.3683 65.1545 34.2412 65.1545 34.0294V33.4998C65.1545 33.3939 65.0909 33.3728 65.0062 33.4363C64.2649 34.1565 63.227 34.5377 61.9561 34.5377C59.9863 34.5377 58.3765 33.5634 58.3765 31.3394C58.3765 29.1577 59.9651 27.8445 62.7822 27.8445H65.0274C65.1121 27.8445 65.1545 27.8021 65.1545 27.7174V27.2302C65.1545 26.15 64.519 25.4934 63.1846 25.4934C62.1679 25.4934 61.5113 25.8746 61.2995 26.4889C61.236 26.7007 61.1301 26.7854 60.9182 26.7642L59.0119 26.5312C58.8001 26.5101 58.673 26.4042 58.6942 26.2559ZM60.8335 31.1699C60.8335 32.1019 61.6172 32.5891 62.6339 32.5891C63.9683 32.5891 65.1545 31.8054 65.1545 30.6404V29.6661C65.1545 29.5813 65.1121 29.539 65.0274 29.539H63.2693C61.7867 29.539 60.8335 30.1109 60.8335 31.1699ZM74.1027 34.4954C76.708 34.4954 78.4448 33.3092 78.4448 31.2758C78.4448 29.1577 76.475 28.5011 74.7169 27.9927C74.5543 27.9466 74.3948 27.903 74.2397 27.8606C73.0415 27.5331 72.1117 27.279 72.1117 26.5101C72.1117 25.7475 72.8954 25.3451 73.9756 25.3451C75.2465 25.3451 75.9878 25.9382 75.9878 26.6371V26.7642C75.9878 26.849 76.1149 26.8913 76.3267 26.8913H77.9577C78.1695 26.8913 78.2966 26.7854 78.2966 26.6371C78.2966 24.752 76.5809 23.4176 73.9756 23.4176C71.4762 23.4176 69.7606 24.6461 69.7606 26.6583C69.7606 28.7341 71.6457 29.4119 73.3402 29.9202C73.6171 30.0125 73.8882 30.0924 74.1449 30.168C75.1842 30.474 75.9878 30.7107 75.9878 31.4241C75.9878 32.1231 75.2253 32.6526 74.0815 32.6526C72.853 32.6526 72.0269 32.0383 72.0269 31.3394V31.1911C72.0269 31.1064 71.8999 31.0428 71.688 31.0428H69.9935C69.7817 31.0428 69.6546 31.1699 69.6546 31.3817V31.4876C69.6546 33.2033 71.3915 34.4954 74.1027 34.4954ZM83.1077 24.519C83.7219 23.7353 84.5904 23.3752 85.713 23.3752C88.0005 23.3752 89.5044 24.8156 89.5044 27.1667V34.0294C89.5044 34.2412 89.3773 34.3683 89.1655 34.3683H87.3863C87.1745 34.3683 87.0474 34.2412 87.0474 34.0294V27.675C87.0474 26.383 86.2425 25.4934 85.014 25.4934C83.8067 25.4934 82.9806 26.3618 82.9806 27.6538V34.0294C82.9806 34.2412 82.8535 34.3683 82.6417 34.3683H80.8625C80.6507 34.3683 80.5236 34.2412 80.5236 34.0294V19.8804C80.5236 19.6685 80.6507 19.5415 80.8625 19.5415H82.6417C82.8535 19.5415 82.9806 19.6685 82.9806 19.8804V24.4555C82.9806 24.5614 83.0441 24.6038 83.1077 24.519ZM98.6747 23.8836V24.2649C98.6747 24.3708 98.6111 24.4131 98.5264 24.3284C97.9333 23.7353 97.1073 23.3752 95.9423 23.3752C94.036 23.3752 92.5957 24.5402 92.045 26.2135C91.7696 26.976 91.7061 27.908 91.7061 28.9035C91.7061 29.8143 91.7696 30.7039 91.9814 31.4665C92.6169 33.521 94.4385 34.3047 96.0906 34.3047C97.2344 34.3047 97.9969 33.9447 98.5264 33.3939C98.6111 33.3092 98.6747 33.3516 98.6747 33.4575V33.5846C98.6747 35.8933 97.2979 36.5076 94.5655 36.2746C94.3325 36.2534 94.1843 36.3593 94.1843 36.5711L94.1207 38.1385C94.1207 38.3715 94.2055 38.4986 94.4173 38.5198C97.7851 38.8375 101.132 37.9691 101.132 33.6481V23.8836C101.132 23.6718 101.005 23.5447 100.793 23.5447H99.0136C98.8018 23.5447 98.6747 23.6718 98.6747 23.8836ZM98.5264 30.7675C98.3146 31.6147 97.658 32.2925 96.5142 32.2925C95.4128 32.2925 94.6714 31.6147 94.3961 30.7463C94.269 30.4286 94.1843 29.8355 94.1843 28.9035C94.1843 28.0139 94.269 27.442 94.4384 27.0396C94.735 26.1712 95.4128 25.4934 96.493 25.4934C97.5944 25.4934 98.2934 26.15 98.5052 27.0396C98.6323 27.4632 98.6747 27.7597 98.6747 28.8824C98.6747 30.0261 98.6323 30.365 98.5264 30.7675ZM106.254 24.752C106.805 23.926 107.61 23.4176 108.711 23.4176C109.219 23.4176 109.558 23.5235 109.834 23.6506C110.003 23.7353 110.067 23.8836 110.024 24.0742L109.685 25.8323C109.643 26.0653 109.516 26.1076 109.283 26.0441C109.007 25.9593 108.626 25.917 108.203 25.9805C107.059 26.0441 106.127 26.8278 106.127 28.1198V34.0294C106.127 34.2412 106 34.3683 105.788 34.3683H104.009C103.797 34.3683 103.67 34.2412 103.67 34.0294V23.8836C103.67 23.6718 103.797 23.5447 104.009 23.5447H105.788C106 23.5447 106.127 23.6718 106.127 23.8836V24.7097C106.127 24.8156 106.19 24.8579 106.254 24.752ZM123.598 24.3708V19.8804C123.598 19.6685 123.725 19.5415 123.937 19.5415H125.716C125.928 19.5415 126.055 19.6685 126.055 19.8804V34.0294C126.055 34.2412 125.928 34.3683 125.716 34.3683H123.937C123.725 34.3683 123.598 34.2412 123.598 34.0294V33.4787C123.598 33.3728 123.514 33.3304 123.45 33.4363C122.878 34.1353 122.073 34.5377 121.035 34.5377C119.002 34.5377 117.583 33.3728 116.969 31.5724C116.714 30.7887 116.587 29.899 116.587 28.9247C116.587 27.9716 116.693 27.1031 116.947 26.3406C117.562 24.519 118.938 23.3752 121.035 23.3752C122.073 23.3752 122.857 23.7565 123.45 24.4131C123.514 24.4978 123.598 24.4767 123.598 24.3708ZM121.417 32.3984C122.158 32.3984 122.688 32.0383 123.069 31.4029C123.408 30.831 123.556 29.9626 123.556 28.9459C123.556 27.8657 123.386 27.0184 123.026 26.4253C122.666 25.8323 122.137 25.4934 121.438 25.4934C120.696 25.4934 120.125 25.8111 119.743 26.383C119.341 26.9972 119.129 27.8657 119.129 28.9671C119.129 29.9626 119.299 30.7887 119.637 31.3817C119.998 32.0383 120.612 32.3984 121.417 32.3984Z" fill="white"></path>
  </g>
</svg>
