<svg width="145" height="55" viewBox="0 0 145 55" fill="none" xmlns="http://www.w3.org/2000/svg">
<g opacity="0.64">
<path d="M29.3612 13.1063H112.193V42.036H29.3612V13.1063ZM27.9102 43.5H113.669V11.6553H27.9102V43.5Z" fill="white"/>
<path d="M50.8613 19.9791V35.1436L52.0532 35.2991V36.1865H46.1714V35.2991L47.441 35.1436V28.2383H39.9074V35.1436L41.0669 35.2991V36.1865H35.2822V35.2991L36.4417 35.1436V19.9791L35.2822 19.8237V18.9557H41.0669V19.8237L39.9074 19.9791V26.4569H47.4345V19.9791L46.1649 19.8237V18.9557H52.0467V19.8237L50.8613 19.9791Z" fill="white"/>
<path d="M58.8872 35.2537L59.9949 35.4092V36.1865H54.5859V35.4092L55.6936 35.2537V24.8634L54.5859 24.7079V23.9306H58.8872V35.2537Z" fill="white"/>
<path d="M62.3457 35.4353L63.4275 35.2863V19.8757L62.3457 19.7202V18.9624H66.647V35.2863L67.7546 35.4353V36.1997H62.3457V35.4353Z" fill="white"/>
<path d="M74.3363 23.924H77.2383V25.0706H74.3363V32.3646C74.3363 34.2496 74.725 34.852 76.4416 34.852C77.0764 34.852 77.6335 34.852 78.1582 34.716V35.5581C76.597 36.1087 75.282 36.3354 74.1743 36.3354C71.6869 36.3354 71.1168 35.2148 71.1168 33.0707V25.0706H68.8496V23.924H71.201V21.3653L74.3428 20.426V23.924" fill="white"/>
<path d="M91.7875 30.1755C91.7875 33.9974 89.2029 36.5562 85.1348 36.5562C81.2028 36.5562 78.6895 34.8849 78.6895 30.1755C78.6895 26.2306 81.2741 23.5877 85.3421 23.5877C89.3648 23.5812 91.7875 25.9715 91.7875 30.1755ZM88.2571 30.0978C88.2571 26.2241 87.0976 24.5334 85.2255 24.5334C83.3988 24.5334 82.2393 26.1529 82.2393 30.0978C82.2393 33.9974 83.3988 35.6169 85.2255 35.6169C87.1753 35.6169 88.2571 34.0687 88.2571 30.0978Z" fill="white"/>
<path d="M106.48 35.4092V36.1865H101.071V35.4092L102.153 35.2537V28.2707C102.153 26.3338 101.433 25.4658 99.963 25.4658C99.2829 25.4658 98.1946 25.9387 97.4043 26.4893V35.2472L98.512 35.4027V36.18H93.0771V35.4027L94.1848 35.2472V24.9411L93.0771 24.7857V23.9176H97.4043V25.6213C98.7452 24.5524 100.047 23.6844 101.861 23.6844C104.284 23.6844 105.372 25.0966 105.372 27.8755V35.2602L106.48 35.4092Z" fill="white"/>
<path d="M59.0495 20.6855C59.0495 21.6377 58.2722 22.415 57.307 22.415C56.3418 22.415 55.5645 21.6507 55.5645 20.6855C55.5645 19.7332 56.3418 18.9559 57.307 18.9559C58.2722 18.9559 59.0495 19.7332 59.0495 20.6855Z" fill="white"/>
<path d="M115.833 12.5947H116.086C116.255 12.5947 116.319 12.5429 116.319 12.4263C116.319 12.3097 116.261 12.2578 116.086 12.2578H115.833V12.5947ZM116.546 12.4133C116.546 12.5817 116.475 12.6789 116.326 12.7307L116.591 13.1194H116.345L116.099 12.7631H115.833V13.1194H115.626V12.07H116.086C116.41 12.07 116.546 12.1801 116.546 12.4133ZM115.205 12.6076C115.205 13.0805 115.594 13.4821 116.08 13.4821C116.553 13.4821 116.954 13.0935 116.954 12.6076C116.954 12.1348 116.565 11.7331 116.08 11.7331C115.594 11.7331 115.205 12.1218 115.205 12.6076ZM117.174 12.6076C117.174 13.2166 116.676 13.7153 116.067 13.7153C115.458 13.7153 114.959 13.2166 114.959 12.6076C114.959 11.9987 115.458 11.4999 116.067 11.4999C116.689 11.4999 117.174 11.9858 117.174 12.6076Z" fill="white"/>
</g>
</svg>
