<svg width="148" height="56" viewBox="0 0 148 56" fill="none" xmlns="http://www.w3.org/2000/svg">
<g opacity="0.64">
<path fill-rule="evenodd" clip-rule="evenodd" d="M124.49 26.4342C124.49 23.0653 123.164 21.0771 120.845 21.0771C120.845 21.0771 120.403 21.1323 120.182 21.1323C119.353 21.2428 119.133 21.4637 119.133 22.513V30.5762C119.133 31.6808 119.795 31.736 120.789 31.7912C123.164 31.9017 124.49 29.8583 124.49 26.4342ZM125.649 21.5189C126.754 22.6787 127.361 24.3907 127.361 26.4894C127.361 28.809 126.588 30.7419 125.152 31.9017C124.048 32.7853 122.667 33.2272 120.568 33.2272C118.194 33.2272 116.592 33.0063 116.04 32.951C115.488 32.8406 115.211 32.7853 115.211 32.3987C115.211 32.1226 115.377 31.8465 115.653 31.8465H116.04C116.15 31.8465 116.316 31.736 116.371 31.5703C116.426 31.4046 116.426 31.2942 116.426 30.7971V22.1816C116.426 21.6846 116.426 21.5741 116.371 21.4085C116.316 21.2428 116.15 21.1323 116.04 21.1323H115.653C115.377 21.1323 115.211 20.9114 115.211 20.58C115.211 20.1382 115.488 20.083 116.04 20.0278C116.592 19.9725 118.138 19.7516 120.568 19.7516C122.998 19.8069 124.49 20.3039 125.649 21.5189ZM112.284 26.4894C112.284 23.231 110.959 21.1875 108.805 21.1875C106.706 21.1875 105.381 23.231 105.381 26.5446C105.381 29.803 106.651 31.7912 108.805 31.7912C110.959 31.7912 112.284 29.7478 112.284 26.4894ZM99.6924 26.4894C99.6924 23.231 98.367 21.1875 96.2131 21.1875C94.1144 21.1875 92.789 23.231 92.789 26.5446C92.789 29.803 94.0592 31.7912 96.2131 31.7912C98.367 31.7912 99.6924 29.7478 99.6924 26.4894ZM108.805 19.8069C112.616 19.8069 115.101 22.4025 115.101 26.4342C115.101 30.5762 112.616 33.1719 108.75 33.1719C105.657 33.1719 103.448 31.4046 102.73 28.588V28.5328C102.675 28.2014 102.399 28.2014 102.288 28.5328C102.288 28.5328 102.288 28.5328 102.288 28.588C101.57 31.4599 99.3611 33.1719 96.2131 33.1719C92.4024 33.1719 89.9724 30.521 89.9724 26.5446C89.9724 22.4025 92.4024 19.8069 96.2683 19.8069C99.4163 19.8069 101.681 21.5741 102.343 24.446C102.399 24.7773 102.675 24.7773 102.73 24.446C103.448 21.5189 105.657 19.8069 108.805 19.8069ZM90.1381 21.8503L89.8619 20.5248C89.8067 20.1934 89.5858 20.0278 89.1992 20.0278H80.9151C80.2523 20.0278 80.0314 20.1934 80.0314 20.58C80.0314 20.8562 80.2523 21.1323 80.5285 21.1323H80.9151C81.0255 21.1323 81.1912 21.2428 81.2464 21.4085C81.3016 21.5741 81.3016 21.6846 81.3016 22.1816V30.7971C81.3016 31.2942 81.3016 31.4046 81.2464 31.5703C81.1912 31.736 81.0255 31.8465 80.9151 31.8465H80.5285C80.2523 31.8465 80.0314 32.0674 80.0314 32.3987C80.0314 32.8406 80.2523 32.951 80.9151 32.951H84.4496C85.1676 32.951 85.3885 32.8406 85.3885 32.3987C85.3885 32.1226 85.1676 31.8465 84.8914 31.8465H84.4496C84.2839 31.8465 84.1183 31.736 84.063 31.5703C84.0078 31.4599 84.0078 31.3494 84.0078 30.7971V27.6492C84.0078 27.2074 84.063 27.0417 84.1735 26.9312C84.2839 26.876 84.3944 26.876 84.9467 26.876H86.5483C87.3767 26.876 87.4871 26.9312 87.5424 27.3178V27.4283C87.5976 27.7596 87.7633 27.9253 88.0394 27.9253C88.426 27.9253 88.5917 27.7044 88.5917 27.0417V25.4401C88.5917 24.7773 88.4812 24.5564 88.0394 24.5564C87.7633 24.5564 87.5976 24.7221 87.5424 25.0535V25.1639C87.4871 25.5505 87.3767 25.6058 86.5483 25.6058H84.9467C84.3944 25.6058 84.2839 25.6058 84.1735 25.5505C84.063 25.4953 84.0078 25.2744 84.0078 24.8326V22.5682C84.0078 21.5189 84.1183 21.4085 85.1676 21.4085H87.6528C88.5365 21.4085 88.9231 21.4637 89.144 21.9607C89.2544 22.1816 89.3096 22.3473 89.3096 22.3473C89.4201 22.6235 89.641 22.6235 89.8067 22.6235C90.0828 22.6235 90.2485 22.3473 90.1381 21.8503ZM135.369 26.876C134.762 26.2685 134.265 25.8819 132.719 24.7773C132.332 24.5012 132.001 24.2803 131.78 24.1146C131.393 23.8385 131.117 23.5071 130.896 23.231C130.73 23.0101 130.675 22.7339 130.675 22.4578C130.675 21.6846 131.227 21.1875 132.111 21.1875C132.719 21.1875 133.381 21.4085 133.934 21.795C134.32 22.1264 134.431 22.1816 134.872 22.8444C135.038 23.0653 135.149 23.1757 135.369 23.1757C135.701 23.1757 135.922 22.9548 135.922 22.7339C135.922 22.6787 135.922 22.5682 135.867 22.4578L135.425 20.3591C135.369 20.0278 135.149 19.8069 134.872 19.8069C134.707 19.8069 134.652 19.8069 134.486 19.9725C134.32 20.083 134.154 20.1382 134.044 20.1382C133.989 20.1382 133.878 20.1382 133.768 20.083C133.492 20.0278 133.326 19.9725 133.271 19.9725C132.719 19.8621 132.166 19.8069 131.614 19.8069C129.515 19.8069 128.079 21.0219 128.079 22.8996C128.079 23.6728 128.3 24.3355 128.797 24.943C129.405 25.6058 129.571 25.7714 131.393 27.0417C132.498 27.8149 132.995 28.2567 133.437 28.6985C133.823 29.1403 134.044 29.6374 134.044 30.1344C134.044 31.1285 133.216 31.8465 131.945 31.8465C130.841 31.8465 129.791 31.239 129.129 30.3001L128.853 29.9135C128.742 29.7478 128.576 29.6374 128.356 29.6374C128.024 29.6374 127.748 29.9135 127.748 30.2449C127.748 30.3553 127.748 30.521 127.803 30.6315L128.3 32.5644C128.411 33.0063 128.576 33.2272 128.908 33.2272C129.074 33.2272 129.184 33.1719 129.35 33.0615C129.515 32.8958 129.571 32.8958 129.736 32.8958C129.847 32.8958 129.902 32.8958 130.178 33.0063C130.73 33.1719 131.504 33.2824 132.166 33.2824C134.707 33.2824 136.364 31.7912 136.364 29.5821C136.419 28.4776 136.032 27.5387 135.369 26.876ZM48.4412 20.9666C50.098 21.5741 50.7608 23.3966 50.7608 26.2133C50.7608 29.5821 49.3801 31.736 47.171 31.736C44.9066 31.736 43.5812 29.6926 43.5812 26.2685C43.5812 24.0594 43.9125 22.3473 45.4589 20.8009C47.0053 19.2546 48.4412 19.4755 49.8771 17.653C50.4846 16.8798 50.4846 16.2171 49.9876 16.1066C49.5458 15.9961 49.2696 16.5484 48.883 16.8246C47.3367 17.8187 45.6246 16.8798 44.6857 15.8305C43.7469 14.7259 42.5319 14.7811 41.8139 14.9468C41.4825 15.002 41.3168 14.7811 41.6482 14.505C42.4214 13.8975 44.023 13.8423 45.0171 14.7811C45.8455 15.5543 47.0053 16.1618 47.8337 15.9961C48.3308 15.8857 48.386 15.3334 47.8337 15.1125C46.2321 14.5602 46.3978 12.7377 44.2439 12.1302C41.7034 11.4123 39.3839 13.787 38.7212 16.2171C38.5555 16.8798 38.9421 17.3216 39.6048 17.0455C41.7034 16.1066 42.2557 17.4321 44.0782 18.15C44.9066 18.4814 45.8455 18.3709 46.3978 18.3157C46.8396 18.2052 46.8396 18.7023 46.6187 18.7575C45.4037 19.1441 44.1887 19.8069 43.4155 20.3591C41.6482 21.5189 40.6541 23.6176 40.6541 26.3237C40.6541 30.521 43.2498 33.2824 47.171 33.2824C51.2578 33.2824 53.7983 30.521 53.7983 26.2133C53.7983 23.728 53.0251 21.9055 51.4235 20.7457C50.5399 20.083 49.7114 19.8069 48.8278 19.8621C47.7785 19.8621 47.668 20.6353 48.4412 20.9666ZM28.7802 21.0771C29.1115 21.0219 29.5534 21.0771 29.5534 22.0712V30.7419C29.5534 31.239 29.5534 31.3494 29.4981 31.5151C29.4429 31.6256 29.2772 31.736 29.1668 31.736H28.7802C28.504 31.736 28.2831 32.0122 28.2831 32.2883C28.2831 32.7301 28.504 32.8406 29.1668 32.8406H32.6461C33.2536 32.8406 33.4745 32.7301 33.4745 32.2883C33.4745 31.9569 33.2536 31.736 33.0327 31.736H32.6461C32.4804 31.736 32.3147 31.6256 32.2595 31.5151C32.2043 31.3494 32.2043 31.239 32.2043 30.7419V27.8149C32.2043 26.9312 32.2595 26.876 32.9775 26.876H35.5732C35.9598 26.876 36.1255 26.9312 36.2359 27.0417C36.3464 27.1521 36.3464 27.2074 36.3464 27.9253V30.7419C36.3464 31.239 36.3464 31.3494 36.2911 31.5151C36.2359 31.6256 36.0702 31.736 35.9598 31.736H35.5732C35.297 31.736 35.0761 32.0122 35.0761 32.2883C35.0761 32.7301 35.297 32.8406 35.9598 32.8406H39.4391C40.1018 32.8406 40.3228 32.7301 40.3228 32.2883C40.3228 32.0122 40.1018 31.736 39.8257 31.736H39.4391C39.3287 31.736 39.163 31.6256 39.1077 31.5151C39.0525 31.3494 39.0525 31.239 39.0525 30.7419V22.0712C39.0525 21.5741 39.0525 21.4637 39.1077 21.298C39.163 21.1875 39.3287 21.0771 39.4391 21.0771H39.8809C40.1571 21.0771 40.378 20.8562 40.378 20.5248C40.378 20.083 40.1571 19.9725 39.4943 19.9725H36.015C35.3523 19.9725 35.1314 20.083 35.1314 20.5248C35.1314 20.8562 35.3523 21.0771 35.6284 21.0771H36.015C36.1255 21.0771 36.2911 21.1875 36.3464 21.298C36.4016 21.4637 36.4016 21.5741 36.4016 22.0712V24.446C36.4016 25.1639 36.4016 25.2192 36.2911 25.3296C36.1807 25.4401 36.015 25.4953 35.6284 25.4953H33.0327C32.3147 25.4953 32.2595 25.4401 32.2595 24.5564V22.0712C32.2595 21.5741 32.2595 21.4637 32.3147 21.298C32.37 21.1875 32.5357 21.0771 32.7013 21.0771H33.0879C33.3641 21.0771 33.585 20.8562 33.585 20.5248C33.585 20.083 33.3641 19.9725 32.7566 19.9725H26.1293C25.6322 19.9725 25.4113 20.1382 25.4113 20.5248C25.4113 20.8562 25.6322 21.0219 26.0188 21.0771C26.4606 21.1323 26.6815 21.298 26.6815 21.5741C26.6815 21.6846 26.6815 21.8503 26.6263 22.016C26.6263 22.016 24.8038 28.2014 24.5277 29.1403C24.4724 29.306 24.3067 29.306 24.2515 29.1403C23.9754 28.2014 22.0976 22.2921 22.0976 22.2921C21.932 21.8503 21.8767 21.6846 21.8767 21.4637C21.8767 21.1323 21.9872 21.0219 22.5395 20.9666C22.9813 20.9114 23.147 20.7457 23.147 20.4696C23.147 20.1382 22.9261 19.9725 22.4842 19.9725H18.7288C18.2869 19.9725 18.066 20.1934 18.066 20.58C18.066 20.8562 18.2317 21.0219 18.6183 21.0771C19.0601 21.1875 19.2258 21.298 19.3363 21.5741C19.3915 21.6294 19.4467 21.795 19.5019 22.016C19.5019 22.016 20.1647 23.9489 20.1647 24.0594C20.2751 24.446 20.2199 24.8326 20.1647 25.1639C20.1094 25.2744 19.1153 28.2567 18.7288 29.306C18.6735 29.4717 18.5078 29.4717 18.4526 29.306C18.1212 28.3119 16.0226 22.2921 16.0226 22.2921L15.7465 21.9055C15.6912 21.7398 15.6912 21.6294 15.6912 21.4637C15.6912 21.1323 15.8569 21.0219 16.2987 20.9666C16.7958 20.9114 16.9615 20.8009 16.9615 20.4696C16.9615 20.1382 16.7958 19.9725 16.354 19.9725H12.3776C11.9358 19.9725 11.7148 20.1382 11.7148 20.4696C11.7148 20.8009 11.8253 20.9114 12.2671 20.9666C12.8746 21.0771 12.9851 21.1875 13.2612 21.9607L17.0167 32.0674C17.2928 32.7853 17.569 33.0063 18.1212 33.0063C18.3974 33.0063 18.6183 32.8958 18.784 32.7853C18.9497 32.6197 19.0049 32.5092 19.1706 32.0122C19.1706 32.0122 20.8826 27.2626 20.9379 27.0969C20.9931 26.9312 21.1588 26.9312 21.214 27.0969C21.2692 27.2626 22.8708 32.0122 22.8708 32.0122C23.0917 32.7301 23.3679 32.951 23.9754 32.951C24.5277 32.951 24.8038 32.6749 25.0799 31.736L28.1174 21.8503C28.2279 21.298 28.4488 21.0771 28.7802 21.0771ZM59.4315 31.5151C58.6583 31.5151 58.3822 31.4599 58.1613 31.3494C57.9404 31.239 57.8851 31.0181 57.8851 30.1896V22.0712C57.8851 21.5741 57.8851 21.4637 57.9404 21.298C57.9956 21.1323 58.1613 21.0219 58.327 21.0219H58.7688C59.0449 21.0219 59.2658 20.8009 59.2658 20.4696C59.2658 20.0278 59.0449 19.9173 58.327 19.9173H54.7924C54.1297 19.9173 53.9087 20.0278 53.9087 20.4696C53.9087 20.8009 54.1297 21.0219 54.4058 21.0219H54.7924C54.9028 21.0219 55.0685 21.1323 55.1238 21.298C55.179 21.4637 55.179 21.5189 55.179 22.0712V30.7971C55.179 31.2942 55.179 31.3494 55.1238 31.5151C55.0685 31.6256 54.9581 31.736 54.7924 31.736H54.4058C54.1297 31.736 53.9087 31.9569 53.9087 32.2331C53.9087 32.6749 54.1297 32.7853 54.7372 32.7853H61.9168C62.3033 32.7853 62.5243 32.6749 62.5795 32.2883L62.8556 30.7971C62.9661 30.3001 62.8004 30.024 62.4138 30.024C62.2481 30.024 62.0272 30.1344 61.9168 30.4106C61.9168 30.4658 61.8615 30.521 61.7511 30.7419C61.5302 31.239 61.0331 31.4599 60.3704 31.4599C60.5361 31.5151 59.4315 31.5151 59.4315 31.5151ZM73.1832 30.0792C73.0175 30.0792 72.7966 30.1896 72.6861 30.4658C72.6861 30.521 72.6309 30.5762 72.5205 30.7971C72.2995 31.2942 71.8025 31.5151 71.1398 31.5151H69.2068C68.5993 31.5151 68.3232 31.4599 68.047 31.4047C67.7709 31.2942 67.6604 31.0733 67.6604 30.0792V27.6492C67.6604 27.2074 67.7156 27.0417 67.8261 26.9312C67.9366 26.876 68.047 26.876 68.5993 26.876H69.4829C70.3113 26.876 70.4218 26.9312 70.477 27.3178V27.4283C70.5323 27.7596 70.6979 27.9253 70.9741 27.9253C71.3607 27.9253 71.5264 27.7044 71.5264 27.0417V25.4401C71.5264 24.7773 71.4159 24.5564 70.9741 24.5564C70.6979 24.5564 70.5323 24.7221 70.477 25.0535V25.1639C70.4218 25.5505 70.3113 25.6058 69.4829 25.6058H68.5993C68.047 25.6058 67.8813 25.6058 67.8261 25.5505C67.7156 25.4953 67.6604 25.2744 67.6604 24.8326V22.4578C67.6604 21.4085 67.7709 21.298 68.8202 21.298H70.6427C71.5264 21.298 71.9129 21.3532 72.1339 21.8503C72.2443 22.0712 72.2995 22.2369 72.2995 22.2921C72.41 22.5682 72.6309 22.5682 72.7966 22.5682C73.128 22.5682 73.2936 22.2921 73.2384 21.795L72.9623 20.4696C72.907 20.1382 72.6861 19.9725 72.2995 19.9725H64.6229C63.9602 19.9725 63.7393 20.1382 63.7393 20.5248C63.7393 20.8009 63.9602 21.0771 64.2363 21.0771H64.6229C64.7334 21.0771 64.899 21.1875 64.9543 21.3532C65.0095 21.5189 65.0095 21.6294 65.0095 22.1264V30.7419C65.0095 31.239 65.0095 31.3494 64.9543 31.5151C64.899 31.6256 64.7886 31.7912 64.6229 31.7912H64.2363C63.9602 31.7912 63.7393 32.0122 63.7393 32.2883C63.7393 32.7301 63.9602 32.8406 64.6229 32.8406H72.1339H72.6309C73.0175 32.8406 73.2384 32.7301 73.2936 32.3435L73.5698 30.8524C73.7355 30.3553 73.5146 30.0792 73.1832 30.0792ZM97.8147 37.4797C97.4833 37.4797 97.4833 37.9215 97.4833 38.1424C97.4833 38.3633 97.5386 38.5842 97.8147 38.5842H99.4163C99.6924 38.5842 99.8029 38.6947 99.8029 38.9156V43.61C99.8029 43.9413 100.024 43.9413 100.41 43.9413C100.797 43.9413 101.018 43.8861 101.018 43.5547V38.8604C101.018 38.5842 101.184 38.529 101.404 38.529H102.951C103.227 38.529 103.282 38.3081 103.282 37.9767C103.282 37.5349 103.117 37.4245 102.896 37.4245H97.8147V37.4797ZM88.8126 37.4797C88.5365 37.4797 88.426 37.6454 88.426 37.9215V43.4995C88.426 43.8309 88.5365 43.9965 88.8126 43.9965H93.7279C94.004 43.9965 94.0592 43.7756 94.0592 43.4443C94.0592 43.0025 93.9488 42.8368 93.7279 42.8368H89.9172C89.7515 42.8368 89.5858 42.7263 89.5858 42.5054V41.5665C89.5858 41.3456 89.7515 41.2352 89.9172 41.2352H92.1263C92.3472 41.2352 92.4576 40.959 92.4576 40.6829C92.4576 40.3515 92.4024 40.1306 92.1263 40.1306H89.9172C89.7515 40.1306 89.5858 40.0202 89.5858 39.8545V38.9708C89.5858 38.8052 89.6962 38.6947 89.8619 38.6947H93.7279C94.0592 38.6947 94.1144 38.4186 94.1144 38.0872C94.1144 37.7558 94.0592 37.5349 93.7831 37.5349H88.8126V37.4797ZM79.4791 37.4797C79.0373 37.4797 78.8716 37.5349 78.8716 37.8663V43.61C78.8716 43.8861 79.0373 43.9965 79.4239 43.9965C79.7553 43.9965 80.0866 43.9965 80.0866 43.61V41.7322C80.0866 41.4561 80.2523 41.2352 80.4732 41.2352C80.8598 41.2352 81.136 41.2904 81.4121 41.5113L83.4555 43.7204C83.6212 43.8861 83.7317 43.9965 84.2839 43.9965C84.781 43.9965 85.1124 43.8309 84.781 43.4443C84.5601 43.1681 82.2957 40.7381 82.2957 40.7381C82.1301 40.5724 82.0748 40.3515 82.2957 40.1858C82.2957 40.1858 84.1735 38.4738 84.3392 38.3081C84.5601 38.0872 84.5048 37.8663 84.2839 37.6454C84.0078 37.4245 83.7317 37.3692 83.5107 37.6454C83.5107 37.6454 81.4121 39.5783 81.1912 39.7992C81.0255 39.9649 80.9151 40.0754 80.418 40.0754C80.2523 40.0754 80.1419 39.9649 80.1419 39.6336V37.8663C80.0314 37.5349 79.8105 37.4797 79.4791 37.4797ZM69.8143 38.5842H71.8025C72.4652 38.5842 73.0175 38.9156 73.0175 39.6336C73.0175 40.3515 72.4652 40.6829 71.8025 40.6829H69.8143C69.5934 40.6829 69.3725 40.5724 69.3725 40.2963V38.8604C69.3725 38.6947 69.5934 38.5842 69.8143 38.5842ZM74.1773 39.6888C74.1773 38.3081 73.1832 37.4797 71.8577 37.4797H68.4888C68.3232 37.4797 68.2127 37.5901 68.2127 37.7006V43.61C68.2127 43.8861 68.3784 43.9965 68.5993 43.9965C68.8202 43.9965 69.3725 44.0518 69.3725 43.7204V42.174C69.3725 42.0084 69.5382 41.8427 69.7038 41.8427H71.1398C71.3607 41.8427 71.5264 41.9531 71.6368 42.1188L72.6309 43.6652C72.7966 43.8861 73.0175 43.9413 73.3489 43.9413C73.9564 43.9413 74.1221 43.7204 73.9564 43.4443C73.8459 43.2234 72.907 41.9531 72.8518 41.8427C72.7414 41.677 72.7966 41.6218 72.9623 41.4561C73.3489 41.2352 74.1773 40.8486 74.1773 39.6888ZM59.7629 41.3456C59.8181 41.2352 60.4808 39.9097 60.5361 39.744C60.5913 39.5783 60.757 39.5783 60.8674 39.744C60.9227 39.9097 61.5854 41.2904 61.6406 41.3456C61.6958 41.4561 61.5854 41.5665 61.4749 41.5665H59.9286C59.7629 41.6218 59.7076 41.5113 59.7629 41.3456ZM57.3881 43.61C57.2224 43.9965 57.7747 43.9965 57.9404 43.9965C58.106 43.9965 58.5479 43.9413 58.6031 43.7756L58.9897 43.0577C59.1001 42.8368 59.2106 42.6711 59.3763 42.6711H62.0272C62.1377 42.6711 62.2481 42.7815 62.3033 42.892L62.7452 43.7756C62.8556 43.9965 63.1318 43.9965 63.3527 43.9965C63.5736 43.9965 64.1259 43.9413 64.0154 43.6652C63.9602 43.4995 61.254 37.7006 61.254 37.7006C61.1436 37.5349 61.0331 37.4245 60.757 37.4245C60.4808 37.4245 60.3152 37.5349 60.2599 37.7006L57.3881 43.61ZM50.319 40.2411L52.1967 37.7006C52.3071 37.5349 52.4728 37.4245 52.6937 37.4245C52.9146 37.4245 53.0803 37.4797 53.1908 37.8663L53.8535 43.6652C53.8535 43.9965 53.3565 43.9965 53.1356 43.9965C52.9699 43.9965 52.6385 43.8861 52.6385 43.6652L52.1967 40.1858C52.1415 40.0202 52.0862 39.9649 51.9758 39.9649C51.8653 39.9649 51.8653 40.0202 51.7549 40.0754L50.2085 42.0636C50.1533 42.174 50.0428 42.2293 49.8771 42.2293C49.7114 42.2293 49.601 42.174 49.5458 42.0084L48.1651 40.1858C48.1098 40.1306 48.0546 40.0754 47.9442 40.0754C47.8337 40.0754 47.7785 40.1858 47.7785 40.2963L47.3367 43.6652C47.2814 43.9413 46.9501 43.9965 46.6739 43.9965C46.453 43.9965 46.1769 43.8861 46.1769 43.6652L46.8396 38.032C46.8948 37.7006 47.0053 37.4797 47.4471 37.4797C47.5576 37.4797 47.7785 37.5349 47.9442 37.7558L49.7114 40.2411C49.8219 40.3515 49.9324 40.5172 50.0428 40.462C50.098 40.5172 50.2637 40.4068 50.319 40.2411Z" fill="white"/>
</g>
</svg>
