<svg width="148" height="56" viewBox="0 0 148 56" fill="none" xmlns="http://www.w3.org/2000/svg">
<g opacity="0.64">
<g clip-path="url(#clip0_19519_4678)">
<path fill-rule="evenodd" clip-rule="evenodd" d="M107.797 15.9997C108.064 16.0531 108.277 16.1064 108.544 16.1597C110.571 16.5331 112.331 17.3331 113.877 18.7197C113.984 18.8264 114.091 18.9331 114.251 19.0931C113.291 20.2131 112.171 21.2797 111.211 22.3997C111.157 22.3464 111.051 22.2931 110.997 22.1864C109.931 21.0131 108.651 20.3731 107.104 20.1597C106.571 20.1064 106.037 20.1064 105.504 20.2131C104.704 20.4264 104.117 20.8531 103.851 21.7064C103.637 22.5064 103.904 23.3064 104.597 23.7864C105.184 24.2131 105.877 24.5331 106.571 24.7464C107.797 25.1731 109.077 25.5997 110.251 26.0797C111.477 26.5597 112.651 27.2531 113.557 28.2664C114.411 29.2264 114.944 30.2931 115.104 31.5731C115.371 33.3864 114.891 35.0397 113.931 36.5331C113.344 37.4397 112.491 38.1331 111.584 38.6664C110.411 39.3064 109.131 39.6797 107.744 39.7864C107.157 39.8397 106.517 39.8931 105.931 39.8397C104.171 39.7864 102.464 39.4664 100.864 38.6664C99.6907 38.0797 98.6241 37.2797 97.7707 36.2131C97.7707 36.1597 97.7174 36.1597 97.7174 36.1064C98.7307 35.0397 99.7441 33.9197 100.811 32.7997C100.917 32.9597 101.077 33.0664 101.184 33.1731C101.877 33.9197 102.624 34.5597 103.531 34.9864C104.171 35.2531 104.811 35.4131 105.504 35.5197C106.144 35.6264 106.837 35.5197 107.477 35.4131C108.117 35.2531 108.651 34.9331 109.024 34.3997C109.717 33.3331 109.451 32.1597 108.437 31.4131C107.957 31.0931 107.424 30.8264 106.837 30.5597C105.931 30.1864 105.024 29.9197 104.117 29.5997C103.211 29.2797 102.304 28.9064 101.451 28.3731C99.9574 27.4664 98.9441 26.1864 98.5174 24.4264C98.1974 22.8264 98.4107 21.3331 99.1574 19.8931C100.064 18.1331 101.504 16.9597 103.317 16.3197C103.851 16.1064 104.384 15.9997 104.971 15.9464C105.024 15.9464 105.077 15.8931 105.131 15.8931L107.797 15.9997ZM62.3574 32.8531C62.4641 32.8531 62.5174 32.9064 62.5707 32.9064C63.9574 32.9064 65.3441 32.9064 66.7307 32.9064C66.7307 32.9064 66.7307 32.9064 66.7841 32.9064C66.7841 32.9064 66.7841 32.9064 66.8374 32.8531L64.6507 27.4664H64.5441C64.5974 27.3597 62.3574 32.8531 62.3574 32.8531ZM65.3441 15.9997C65.5574 16.1597 65.7174 16.4264 65.8774 16.6931C66.5707 18.2931 67.2641 19.9464 67.9041 21.5464C68.5441 23.0397 69.1841 24.4797 69.7707 25.9731C70.4641 27.6797 71.2107 29.3331 71.9041 31.0397C72.4374 32.2664 72.9707 33.5464 73.5041 34.7731C74.1441 36.2664 74.7841 37.7597 75.4241 39.2531C75.4774 39.3597 75.4774 39.4664 75.5307 39.5731H69.5574C69.3441 38.9864 69.0774 38.3997 68.8107 37.7597C68.7574 37.5464 68.6507 37.3864 68.5974 37.1731C68.5441 36.9597 68.3841 36.8531 68.1707 36.8531C67.7974 36.8531 67.4241 36.8531 67.0507 36.8531H61.2907C61.1841 36.8531 61.1307 36.8531 61.0241 36.8531C60.8641 36.8531 60.7574 36.9064 60.6507 37.1197C60.3841 37.7597 60.1174 38.3997 59.8507 39.0397C59.7974 39.1997 59.6907 39.3597 59.6374 39.5197H54.6241C54.6241 39.4131 54.6774 39.3064 54.6774 39.1997C55.6374 36.9597 56.5974 34.6664 57.6107 32.4264C58.7841 29.6531 59.9574 26.8797 61.1841 24.1064C61.8774 22.3997 62.6241 20.7464 63.3174 19.0397C63.6374 18.2397 64.0107 17.4397 64.3307 16.6931C64.4374 16.3731 64.5974 16.1064 64.9174 15.9464L65.3441 15.9997ZM32.0107 16.2664C32.4374 16.3197 32.7574 16.5331 32.9707 16.7997C34.0907 17.9197 35.2107 19.0397 36.3307 20.1597C38.1974 22.0797 40.1174 23.9997 41.9841 25.9197C42.0907 26.0264 42.1441 26.0797 42.2507 26.1864C42.3574 26.0797 42.4641 26.0264 42.5707 25.9197C45.5574 22.8797 48.5441 19.8397 51.4774 16.8531C51.7441 16.5864 52.0641 16.3731 52.4374 16.3197L52.4907 16.3731C52.4907 16.3731 52.4907 16.3731 52.4907 16.4264C52.4907 16.4797 52.4907 16.5331 52.4907 16.5864V39.5731C52.1707 39.6797 48.5441 39.6797 47.7441 39.6264V28.4797C47.3707 28.7997 47.1041 29.1197 46.7841 29.3864C46.4641 29.7064 46.1441 30.0264 45.8774 30.3464L44.9707 31.2531L44.0641 32.1597C43.7441 32.4797 43.4241 32.7997 43.1574 33.1197C42.8374 33.4397 42.5707 33.7597 42.2507 34.0797L36.8107 28.5331C36.7574 28.5331 36.7574 28.5864 36.7574 28.5864C36.7574 28.5864 36.7574 28.5864 36.7574 28.6397C36.7574 28.6931 36.7574 28.6931 36.7574 28.7464C36.7574 32.3731 36.7574 35.9464 36.7574 39.5197C36.7574 39.5197 36.7574 39.5197 36.7574 39.5731C36.4374 39.6264 32.7574 39.6797 32.0641 39.6264V16.2664H32.0107ZM83.0507 20.4797C82.9974 21.0664 82.9974 26.3464 83.0507 26.7197C84.0107 26.7197 84.9707 26.7731 85.9307 26.6131C86.7307 26.4531 87.3707 26.0797 87.8507 25.3864C88.1174 24.9597 88.2241 24.4797 88.3307 23.9464C88.3841 23.2531 88.2774 22.5597 87.9574 21.9197C87.4241 21.0131 86.5707 20.5864 85.5574 20.5331C84.8641 20.4797 84.1707 20.4797 83.4774 20.4797C83.3707 20.4797 83.2107 20.4797 83.0507 20.4797ZM77.6107 39.5197V16.3731C77.7174 16.3731 77.8241 16.3197 77.9307 16.3197C80.3841 16.3197 82.8374 16.3197 85.2907 16.3197C86.5174 16.3197 87.7441 16.4264 88.9174 16.7464C90.4107 17.1731 91.6374 17.9731 92.5974 19.1997C93.3441 20.1597 93.7174 21.2797 93.8241 22.5064C93.9307 23.4664 93.8241 24.3731 93.5574 25.2797C93.1307 26.6131 92.3307 27.6797 91.2107 28.5331C91.1041 28.6397 90.9441 28.6931 90.7841 28.8531C90.9974 29.0131 91.2107 29.1731 91.3707 29.3331C92.0641 29.8664 92.5974 30.6131 93.0241 31.3597C93.6107 32.3731 93.9841 33.4397 94.3574 34.5597C94.8374 36.0531 95.3707 37.4931 95.8507 38.9864C95.9041 39.1997 95.9574 39.3597 96.0641 39.6264H90.4641C90.3574 39.6264 90.3041 39.6264 90.1974 39.6264C90.0374 39.6264 89.9841 39.5731 89.9307 39.4131C89.7707 38.6664 89.6107 37.9197 89.3974 37.1731C89.0241 35.6797 88.5974 34.1864 87.9041 32.7997C87.4241 31.9464 86.7841 31.3064 85.7707 31.0931C85.4507 31.0397 85.1841 30.9864 84.8641 30.9864C84.3307 30.9864 83.7441 30.9864 83.2107 30.9864C83.2107 30.9331 83.1574 30.9331 83.1041 30.9331C83.0507 30.9864 83.0507 30.9864 83.0507 30.9864C83.0507 30.9864 83.0507 30.9864 83.0507 31.0397V31.0931C83.0507 31.1464 83.0507 31.1464 83.0507 31.1997C83.0507 33.9731 83.0507 36.7464 83.0507 39.5197C83.0507 39.5197 83.0507 39.5197 83.0507 39.5731C82.6774 39.5731 78.0907 39.6264 77.6107 39.5197Z" fill="white"/>
</g>
</g>
<defs>
<clipPath id="clip0_19519_4678">
<rect width="83.1467" height="24" fill="white" transform="translate(32.0098 16)"/>
</clipPath>
</defs>
</svg>
