<svg width="148" height="56" viewBox="0 0 148 56" fill="none" xmlns="http://www.w3.org/2000/svg">
<g opacity="0.64">
<path d="M76.2976 16.6311C76.1223 16.6002 75.2767 16.4558 74.2868 16.4558C73.2969 16.4558 72.4513 16.6002 72.276 16.6311C72.1729 16.6517 72.1419 16.5486 72.2141 16.497C72.2863 16.4455 74.2868 14.9193 74.2868 14.9193L76.3595 16.497C76.442 16.5486 76.4007 16.6517 76.2976 16.6311ZM72.8431 26.5099C72.8431 26.5099 72.74 26.5512 72.7091 26.644C73.1319 26.9637 73.4206 27.6958 74.2868 27.6958C75.1633 27.6958 75.4521 26.9637 75.8645 26.644C75.8336 26.5512 75.7305 26.5099 75.7305 26.5099C75.7305 26.5099 75.1839 26.644 74.2868 26.644C73.3897 26.644 72.8431 26.5099 72.8431 26.5099ZM74.2971 25.2828C74.0496 25.2828 73.9981 25.19 73.8331 25.19C73.6784 25.19 73.369 25.3137 73.3072 25.4272C73.3072 25.489 73.3381 25.5406 73.3794 25.5819C73.73 25.6334 73.8949 25.8293 74.3074 25.8293C74.7199 25.8293 74.8746 25.6334 75.2355 25.5819C75.2767 25.5303 75.2974 25.4787 75.3077 25.4272C75.2458 25.3137 74.9365 25.19 74.7818 25.19C74.5858 25.19 74.5343 25.2828 74.2971 25.2828ZM94.2198 29.057C94.1992 29.5313 94.1476 30.0057 94.096 30.4697C91.8377 30.8409 91.0334 28.8301 88.7132 28.9332C88.8473 29.4282 88.9607 29.9232 89.0535 30.4388C90.9612 30.4388 91.7346 32.2227 93.8589 31.9546C93.7454 32.5012 93.6114 33.0374 93.4567 33.5736C91.7758 33.7386 91.1881 32.0681 89.2391 32.1196C89.2597 32.398 89.2597 32.6765 89.2597 32.9549L89.2494 33.4189L93.0236 34.8626C92.8277 35.3988 92.6008 35.9247 92.3636 36.4403C91.2293 36.3784 90.8375 34.9245 89.1154 35.0379C89.0638 35.4091 89.0019 35.7804 88.9194 36.1413C90.4147 36.0382 90.7447 37.42 91.8171 37.5231C91.5387 38.018 91.2499 38.5027 90.9406 38.9771C90.3012 38.6368 89.7547 37.6056 88.5482 37.5437C88.672 37.1622 88.7854 36.7703 88.8679 36.3785C87.7954 36.3785 86.5786 35.966 85.5474 35.0276C85.8774 33.1302 82.9385 31.2019 82.9385 29.8201C82.9385 28.3145 83.7016 27.4792 83.7016 25.4478C83.7016 23.9423 82.9695 22.3027 81.8661 21.189C81.6495 20.9724 81.433 20.7971 81.1855 20.6424C82.1961 21.9005 82.9798 23.3854 82.9798 25.1075C82.9798 27.0152 82.0929 28.0258 82.0929 29.7891C82.0929 31.5525 84.6709 33.0786 84.6709 34.9038C84.6709 35.6154 84.4441 36.3166 83.6913 37.6881C84.8462 38.843 86.3621 39.472 87.3314 39.472C87.6511 39.472 87.8161 39.3792 87.9295 39.1317C88.0223 38.9152 88.1151 38.6986 88.2079 38.4821C89.2597 38.5233 89.7341 39.472 90.3219 39.8536C90.0022 40.2764 89.6722 40.6992 89.3216 41.091C88.9297 40.6579 88.4142 39.9361 87.6408 39.7298C87.5067 39.9979 87.3623 40.2557 87.2077 40.5135C87.8676 40.6888 88.3213 41.3591 88.672 41.7922C88.2904 42.1841 87.8986 42.5553 87.4964 42.9162C87.2386 42.5244 86.8467 42.0191 86.4033 41.7407C86.2383 41.9675 86.063 42.1841 85.8877 42.3903C86.2693 42.6481 86.5993 43.1121 86.8158 43.4834C86.3415 43.8649 85.8568 44.2155 85.3515 44.5558C85.104 42.5244 82.3404 41.1426 83.0829 38.7914C82.8354 39.2039 82.5467 39.7195 82.5467 40.3485C82.5467 42.05 84.3616 43.4009 84.5059 45.092C84.1347 45.3189 83.7428 45.5251 83.351 45.7314C83.2891 43.8752 81.3608 41.8335 81.3608 40.3073C81.3608 38.6058 83.5882 36.894 83.5882 34.8832C83.5882 32.8724 81.0102 31.4803 81.0102 29.7066C81.0102 27.9433 82.1032 26.9224 82.1032 24.6641C82.1032 23.0039 81.3195 21.3333 80.1027 20.2609C79.8862 20.0753 79.6799 19.9206 79.4221 19.7865C80.5668 21.158 81.237 22.4161 81.237 24.3032C81.237 26.4274 79.979 27.6133 79.979 29.6963C79.979 31.7793 82.5054 32.9446 82.5054 34.8832C82.5054 36.8219 80.1543 38.4615 80.1543 40.462C80.1543 42.2769 82.227 44.0918 82.2579 46.247C81.8042 46.4429 81.3402 46.6285 80.8761 46.7935C81.1442 44.6177 78.8034 42.3697 78.8034 40.596C78.8034 38.6574 81.2474 36.9869 81.2474 34.8935C81.2474 32.8002 78.7622 31.8309 78.7622 29.6757C78.7622 27.5308 80.2883 26.3346 80.2883 23.9629C80.2883 22.117 79.3706 20.4465 78.0403 19.4153L77.9579 19.3534C77.8341 19.2606 77.731 19.3741 77.8135 19.4875C78.7622 20.6631 79.2675 21.8592 79.2675 23.6226C79.2675 25.7984 77.5247 27.5617 77.5247 29.6654C77.5247 32.1506 79.8759 32.8621 79.8759 34.8935C79.8759 36.925 77.3598 38.5543 77.3598 40.7198C77.3598 42.7203 79.7418 44.9477 79.3293 47.2679C78.855 47.3916 78.3703 47.4947 77.8754 47.5875C78.3188 44.7105 75.9883 42.6378 75.9883 40.7507C75.9883 38.7089 78.5972 36.894 78.5972 34.8935C78.5972 33.0168 76.7307 32.398 76.4832 30.4697C76.4523 30.2119 76.2358 30.016 75.947 30.0572C75.5655 30.1294 75.0808 30.3769 74.3177 30.3769C73.5547 30.3769 73.07 30.1294 72.6885 30.0572C72.3997 30.0057 72.1832 30.2016 72.1522 30.4697C71.9047 32.398 70.0383 33.0064 70.0383 34.8935C70.0383 36.8837 72.6472 38.7089 72.6472 40.7507C72.6472 42.6378 70.3064 44.7105 70.7601 47.5875C70.2651 47.4947 69.7805 47.3916 69.3061 47.2679C68.8937 44.958 71.2757 42.7306 71.2757 40.7198C71.2757 38.5543 68.7596 36.925 68.7596 34.8935C68.7596 32.8518 71.1107 32.1506 71.1107 29.6654C71.1107 27.5617 69.3577 25.7984 69.3577 23.6226C69.3577 21.8592 69.863 20.6631 70.8117 19.4875C70.9045 19.3741 70.8014 19.2606 70.6673 19.3534L70.5848 19.4153C69.2546 20.4465 68.3368 22.1067 68.3368 23.9629C68.3368 26.3346 69.863 27.5308 69.863 29.6757C69.863 31.8206 67.3778 32.8002 67.3778 34.8935C67.3778 36.9869 69.8217 38.6574 69.8217 40.596C69.8217 42.3697 67.4912 44.6177 67.749 46.7935C67.2747 46.6285 66.821 46.4532 66.3672 46.247C66.3982 44.0918 68.4709 42.2769 68.4709 40.462C68.4709 38.4615 66.1197 36.8322 66.1197 34.8832C66.1197 32.9343 68.6462 31.7793 68.6462 29.6963C68.6462 27.6133 67.3881 26.4274 67.3881 24.3032C67.3881 22.4058 68.0481 21.158 69.203 19.7865C68.9452 19.9206 68.739 20.065 68.5224 20.2609C67.3056 21.3333 66.5219 23.0142 66.5219 24.6641C66.5219 26.9224 67.615 27.9433 67.615 29.7066C67.615 31.47 65.037 32.8621 65.037 34.8832C65.037 36.894 67.2644 38.6058 67.2644 40.3073C67.2644 41.8335 65.3464 43.8649 65.2742 45.7314C64.8823 45.5354 64.5008 45.3189 64.1192 45.092C64.2636 43.4009 66.0785 42.05 66.0785 40.3485C66.0785 39.7195 65.7898 39.2039 65.5423 38.7914C66.2847 41.1426 63.5211 42.5347 63.2737 44.5558C62.7684 44.2155 62.2837 43.8649 61.8094 43.4834C62.0259 43.1121 62.3559 42.6481 62.7374 42.3903C62.5621 42.1841 62.3868 41.9675 62.2218 41.7407C61.7784 42.0088 61.3763 42.5141 61.1288 42.9162C60.7266 42.5553 60.3348 42.1841 59.9532 41.7922C60.3038 41.3591 60.7575 40.6888 61.4175 40.5135C61.2628 40.2557 61.1185 39.9979 60.9844 39.7298C60.2213 39.9361 59.6954 40.6579 59.3036 41.091C58.953 40.6888 58.6127 40.2764 58.3033 39.8536C58.8808 39.472 59.3654 38.5233 60.4172 38.4821C60.5101 38.6986 60.5926 38.9152 60.6957 39.1317C60.8091 39.3792 60.9741 39.472 61.2938 39.472C62.2631 39.472 63.7789 38.843 64.9339 37.6881C64.1811 36.3166 63.9542 35.6154 63.9542 34.9038C63.9542 33.0889 66.5322 31.5628 66.5322 29.7891C66.5322 28.0155 65.6454 27.0152 65.6454 25.1075C65.6454 23.3854 66.4188 21.9005 67.4397 20.6424C67.1922 20.7971 66.9653 20.9724 66.7591 21.189C65.6557 22.3027 64.9236 23.9423 64.9236 25.4478C64.9236 27.4792 65.6866 28.3145 65.6866 29.8201C65.6866 31.2019 62.7477 33.1302 63.0777 35.0276C62.0568 35.966 60.8297 36.3785 59.7573 36.3785C59.8501 36.7703 59.9635 37.1622 60.077 37.5437C58.8705 37.6056 58.3239 38.6368 57.6846 38.9771C57.3752 38.5027 57.0762 38.018 56.8081 37.5231C57.8805 37.4096 58.2002 36.0278 59.7057 36.1413C59.6232 35.7804 59.5614 35.4091 59.5098 35.0379C57.7877 34.9245 57.3959 36.3784 56.2615 36.4403C56.0244 35.9247 55.7975 35.3988 55.6016 34.8626L59.3757 33.4189L59.3654 32.9549C59.3654 32.6765 59.3757 32.398 59.3861 32.1196C57.4474 32.0784 56.8493 33.7386 55.1685 33.5736C55.0138 33.0477 54.8797 32.5012 54.7663 31.9546C56.8906 32.2124 57.6536 30.4285 59.5717 30.4388C59.6542 29.9232 59.7676 29.4282 59.912 28.9332C57.6021 28.8301 56.7874 30.8409 54.5291 30.4697C54.4673 30.0057 54.426 29.5313 54.4054 29.057C57.0349 29.3457 58.0146 27.1905 60.4069 27.4586C60.6338 26.8915 60.8916 26.3346 61.1906 25.7984C58.1899 25.2725 57.1793 27.7783 54.3848 27.3968C54.6426 16.6311 63.4593 8 74.2971 8C85.135 8 93.9414 16.6311 94.2404 27.3864C91.4459 27.768 90.4353 25.2622 87.4345 25.7881C87.7336 26.3243 87.9914 26.8708 88.2182 27.4483C90.6106 27.1905 91.6005 29.3457 94.2198 29.057ZM65.7176 20.6837C64.243 20.0856 62.4693 20.2196 60.9535 21.1993C60.7163 19.7865 59.9532 18.5285 58.8601 17.7757C58.7055 17.6726 58.5508 17.7654 58.5611 17.9407C58.788 20.9312 57.0452 23.5195 54.9004 25.7984C57.1174 26.4687 58.9942 23.6123 61.8712 24.6125C62.8921 23.0761 64.2017 21.7458 65.7176 20.6837ZM74.2971 18.8791C72.441 18.8791 70.8942 19.9309 70.4817 21.2818C70.4508 21.3849 70.492 21.4571 70.6158 21.3952C70.9457 21.2405 71.3273 21.1787 71.7398 21.1787C72.4925 21.1787 73.1628 21.4571 73.5547 21.9417C73.73 22.5192 73.7403 23.3442 73.5443 23.8288C73.235 23.7566 73.1216 23.5195 72.8122 23.5195C72.5028 23.5195 72.276 23.736 71.7604 23.736C71.2448 23.736 71.1829 23.4885 70.8426 23.4885C70.4405 23.4885 70.3683 23.901 70.3683 24.365C70.3683 26.4274 72.2657 29.2735 74.2868 29.2735C76.3079 29.2735 78.2053 26.4377 78.2053 24.365C78.2053 23.901 78.1125 23.5092 77.6897 23.4473C77.4835 23.602 77.2876 23.7257 76.8132 23.7257C76.2976 23.7257 76.1533 23.5092 75.8542 23.5092C75.483 23.5092 75.5242 24.2825 75.0911 24.3238C74.8024 23.6226 74.7921 22.7358 75.0293 21.9314C75.4211 21.4468 76.0914 21.1683 76.8442 21.1683C77.2566 21.1683 77.6382 21.2405 77.9682 21.3849C78.0919 21.4365 78.1332 21.3746 78.1022 21.2715C77.7001 19.9206 76.143 18.8791 74.2971 18.8791ZM77.2463 21.8386C76.8029 21.8386 76.277 21.9727 75.9573 22.3439C75.9264 22.447 75.9264 22.5914 75.9676 22.6842C76.772 22.4058 77.4835 22.3955 77.8238 22.777C78.0094 22.612 78.061 22.4573 78.061 22.2923C78.061 22.0242 77.7929 21.8386 77.2463 21.8386ZM70.7601 22.777C71.152 22.3852 71.9666 22.4058 72.8225 22.7151C72.8638 22.2923 72.1007 21.8283 71.3479 21.8283C70.8014 21.8283 70.5229 22.0139 70.5229 22.282C70.5229 22.4676 70.5745 22.612 70.7601 22.777ZM83.5366 15.7958C82.0723 15.8989 80.8039 16.4042 79.7728 17.2395C80.2059 16.0021 80.7627 14.9193 81.4639 13.8675C79.5975 14.0634 78.0403 14.744 76.906 15.9093L76.0192 13.5788L77.9888 11.836L75.3489 11.6504L74.2971 9.19618L73.2453 11.6504L70.6054 11.836L72.575 13.5788L71.6882 15.9093C70.5539 14.744 68.9968 14.0634 67.1303 13.8675C67.8315 14.9193 68.3884 16.0021 68.8215 17.2395C67.7903 16.4042 66.5219 15.8989 65.0576 15.7958C65.9341 16.9198 66.7178 18.1263 67.285 19.4153C67.3469 19.5597 67.4912 19.6112 67.6459 19.5287C69.6464 18.5285 71.9047 17.9716 74.2971 17.9716C76.6895 17.9716 78.9478 18.5285 80.9483 19.5287C81.103 19.6009 81.237 19.5597 81.2989 19.4153C81.8764 18.1263 82.6498 16.9198 83.5366 15.7958ZM86.723 24.6125C89.5897 23.6226 91.4768 26.4687 93.6939 25.7984C91.549 23.5195 89.796 20.9209 90.0331 17.9407C90.0434 17.7654 89.8888 17.6623 89.7341 17.7757C88.641 18.5285 87.8779 19.7865 87.6408 21.1993C86.1249 20.2196 84.3409 20.0856 82.8766 20.6837C84.3822 21.7458 85.6918 23.0761 86.723 24.6125Z" fill="white"/>
<path d="M88.311 45.2673V48H87.9501V45.2673H86.9395V44.927H89.3319V45.2673H88.311ZM89.7547 44.927H90.2909L91.3324 47.3297H91.3427L92.3946 44.927H92.9205V48H92.5492V45.422H92.5389L91.4356 48H91.219L90.1156 45.422V48H89.7547V44.927Z" fill="white"/>
</g>
</svg>
