<svg width="55" height="50" xmlns="http://www.w3.org/2000/svg"><g id="case" stroke="none" stroke-width="1" fill="none" fill-rule="evenodd"><g id="parodist-case" transform="translate(-100 -6991)" fill="#F90040"><g id="Group-9" transform="translate(100 6955)"><g id="Group-38"><g id="Group-16" transform="translate(0 36)"><g id="Stacked-Group"><path d="M49.466 45.182c.993 0 1.988-.011 2.98 0 1.483.02 2.548 1.035 2.554 2.415.006 1.38-1.046 2.385-2.556 2.386-8.897.008-17.793-.019-26.69.017-4.878.02-9.473-1.034-13.581-3.63C3.468 40.868-.692 32.923.094 22.744.941 11.742 9.318 2.66 20.181.502c13.523-2.687 26.814 5.674 29.705 18.983 2.18 10.036-.97 18.45-8.9 25.097-.188.157-.382.308-.575.463l9.055.137zM36.898 32.874a5 5 0 10-1.879 9.626A4.982 4.982 0 0040 37.48a4.999 4.999 0 00-3.101-4.606zm8.101-10.304c.055-2.725-2.149-4.996-4.908-5.068-2.705-.07-5.016 2.152-5.09 4.893-.073 2.742 2.17 5.05 4.95 5.104 2.706.05 4.992-2.184 5.048-4.93zm-30.57-4.682a5 5 0 10-1.934 9.612c2.727.004 5.01-2.267 5.005-4.982a4.998 4.998 0 00-3.07-4.63zM20 37.514a5 5 0 10-10-.028 5 5 0 0010 .028zM20 9.91a5.036 5.036 0 001.438 3.59A4.994 4.994 0 0024.99 15c2.715.02 5.003-2.27 5.01-5.017C29.98 7.239 27.769 5.02 25.036 5 22.303 4.98 20.06 7.167 20 9.91zm4.987 12.59a2.5 2.5 0 10.026 5 2.5 2.5 0 00-.026-5z" id="video-samples"/></g></g></g></g></g></g></svg>