<svg width="66" height="50" xmlns="http://www.w3.org/2000/svg"><g id="case" stroke="none" stroke-width="1" fill="none" fill-rule="evenodd"><g id="parodist-case" transform="translate(-607 -797)" fill="#F90040"><g id="Group-6" transform="translate(195 797)"><g id="Group-16" transform="translate(.5)"><g id="Stacked-Group"><path d="M474.28 13.138c-2-.557-4.044-.946-6.11-1.164-4.598-.47-9.03-1.466-13.298-3.244-2.275-.95-4.582-1.87-6.947-2.548-2.508-.721-3.994.184-4.661 2.657-1.801 6.639-3.064 13.365-3.214 20.287.178 2.032.276 4.076.55 6.095.51 3.745 1.593 7.317 3.901 10.39 1.923 2.559 4.369 4.276 7.745 4.383 2.854.09 5.346-.891 7.657-2.421 3.519-2.33 6.134-5.502 8.35-9.024 4.09-6.503 6.605-13.645 8.57-21.002.587-2.197-.293-3.787-2.543-4.41zm-26.138 4.602c1.96-.185 3.71.333 5.006 1.873 1.01 1.202.832 2.585.424 4.223-.826-.546-1.565-.961-2.223-1.485a93.2 93.2 0 01-3.676-3.072c-.29-.253-.444-.656-.662-.99.373-.19.737-.512 1.128-.55h.003zm12.653 21.693c-1.05 1.207-2.045 2.461-3.067 3.694-1.582 1.912-3.528 2.632-5.999 1.957-2.516-.688-3.888-2.305-4.356-4.808-.55-2.965-1.14-5.924-1.701-8.886a6.023 6.023 0 01-.044-.841c4.92 6.65 11.045 8.318 18.594 4.723l.082.264c-1.174 1.3-2.368 2.577-3.514 3.895l.005.002zM442.77.013c1.834-.133 2.97.774 3.345 2.609.159.773.308 1.549.447 2.327-2.386-.547-3.819.427-4.485 2.884a116.981 116.981 0 00-1.573 6.498c-1.697-1.364-3.606-2.305-5.827-2.574-1.051-.127-1.447.453-1.172 1.483.097.373.219.733.326 1.094.14.468.374.611.919.516 1.884-.326 3.774-.461 5.66-.06a81.386 81.386 0 00-1.622 12.287 2.679 2.679 0 00-.645.1c-3.154.88-6.334 1.569-9.635 1.643-1.397.038-2.127.705-2.42 1.923-.149.617-.193 1.258-.289 1.911.081.55.133 1.122.242 1.683.195 1.006.869 1.356 1.746.841a10.24 10.24 0 001.669-1.29c2.681-2.432 5.662-3.11 9.05-1.6.155.071.313.14.474.209.08.99.173 1.98.308 2.958a28.59 28.59 0 001.254 5.473c-.263.22-.537.435-.822.64-3.067 2.19-6.342 2.35-9.753.908-3.272-1.382-5.701-3.772-7.79-6.536-3.506-4.633-5.776-9.878-7.35-15.406-1.057-3.708-1.863-7.48-2.675-11.246-.55-2.522.37-3.904 2.904-4.505 1.179-.282 2.412-.52 3.615-.498 6.764.12 13.249-1.203 19.59-3.464 1.421-.505 2.992-.7 4.51-.808zm23.3 22.05c.864.263 1.683.772 2.42 1.308.525.386.348 1.027-.298 1.128h.005c-2.386.391-4.783.722-7.178 1.059-.176.025-.363-.045-.546-.071.332-2.773 2.766-4.289 5.598-3.424zm-38.822-8.678c-.384-.679-1.227-.19-1.794.163-2.005 1.245-3.47 2.986-4.565 5.074 1.823-1.23 3.855-1.874 5.969-2.33.265-.058.726-.241.726-.35-.039-.866.047-1.878-.336-2.557z" id="masks"/></g></g></g></g></g></svg>