<svg width="80" height="50" xmlns="http://www.w3.org/2000/svg"><g id="case" stroke="none" stroke-width="1" fill="none" fill-rule="evenodd"><g id="parodist-case" transform="translate(-601 -2414)" fill="#F90040"><g id="Group-6" transform="translate(195 2414)"><g id="Group-16" transform="translate(170.5)"><g id="Stacked-Group"><path d="M250.186.237c.65-.236 3.955-.922 5.579 2.083 2.764 5.124 2.878 8.221 3.214 13.18.087 1.32-.027 2.712-1.675 4.34-.068.07-.148.151-.447.504-1.994 2.37-6.036 7.649-6.584 8.495-.065.1-.142.191-.23.271l-.008.013c-.081.11-.724.924-.754 1.116a7.462 7.462 0 00-.066.48c-.42 3.27-2.23 6.943-2.23 6.943-1.214 2.469-1.198 1.511-3.547 5.526-.717 1.223-1.802 2.652-4.032 5.544-.423.558-1.053 1.367-1.717 1.258-.851-.138-1.227-1.7-1.282-1.945-.114-.493.18-1.489.886-3.58.796-2.36.965-2.693 2.023-4.05 1.019-1.312 2.476-2.414 2.688-3.317.018-.03 0-.04 0-.114-.082-.767-.545-5.075.936-5.742.055-.022.11-.041.167-.057 1.384-.44 3.785-1.13 5.373-1.603-1.664.34-3.328.757-5.026.933-1.828.177-8.248.936-9.404 1.085-.397.058-.8.035-1.188-.068a3.063 3.063 0 01-1.138-.599c-.978-.781-2.261-.985-3.513-1.527-2.671-1.16-4.253-3.475-4.634-4.03-.434-.619-.868-1.696-1.757-3.844-1.328-3.206-1.367-4.047-.986-4.611.251-.372.873-.9 1.555-.857.2.014.393.073.569.17 1.553.833 2.56 2.813 2.56 2.813.895 1.769.95 3.05 2.008 3.396l.201.052c1.931.494 2.103.296 2.712.542 1.293.527 1.595 1.856 2.41 1.666a.859.859 0 00.185-.068c.153-.07 2.055-.941 3.613-.96 1.63-.02 2.664.887 3.114.344a.978.978 0 00.116-.241c.437-1.069.106-1.579.402-2.265.323-.746 1.042-.9.937-1.234-.088-.274-.67-.48-.67-.48-1.372-2.761-2.073-3.5-2.073-3.5-1.254-1.31-2.892-1.602-4.352-1.852-2.267-.388-4.362-.043-5.891.206-1.889.312-2.294.597-3.211.345-1.458-.402-3.26-1.926-3.013-3.57.246-1.643 2.322-2.538 3.748-2.538.225 0 .449.022.67.067 5.226 1.04 11.186-.257 11.98-.686.299-.163.603-.344.603-.344.365-.217.624-.385.67-.413 1.089-.694 4.089-1.6 5.097-1.871.164-.298 2.417-4.326 5.412-5.406zm-66.95 2.08c1.609-3.002 4.926-2.316 5.577-2.08 2.991 1.08 5.25 5.108 5.401 5.403 1.008.28 4.008 1.177 5.098 1.872a21.116 21.116 0 001.272.757c.786.428 6.753 1.725 11.98.686a3.31 3.31 0 01.67-.068c1.426-.003 3.5.868 3.748 2.539.249 1.67-1.555 3.168-3.013 3.57-.918.251-1.312-.033-3.211-.345-1.53-.25-3.627-.594-5.891-.206-1.452.25-3.087.528-4.333 1.868 0 0-.699.738-2.074 3.5 0 0-.582.208-.67.48-.105.333.614.485.937 1.234.299.688-.032 1.196.402 2.264a.978.978 0 00.117.242c.45.54 1.486-.366 3.113-.345 1.558.02 3.46.89 3.613.96.06.03.122.053.186.068.822.19 1.119-1.142 2.41-1.665.608-.258.78-.06 2.71-.543l.202-.051c1.058-.347 1.103-1.636 1.997-3.396 0 0 1.008-1.98 2.56-2.813.176-.098.37-.156.57-.17.682-.044 1.304.485 1.555.857.384.561.336 1.4-.987 4.61-.889 2.151-1.333 3.226-1.756 3.844-.381.559-1.963 2.872-4.65 4.025-1.252.545-2.535.746-3.514 1.527a3.063 3.063 0 01-1.137.6 2.977 2.977 0 01-1.188.067c-1.158-.135-7.576-.895-9.404-1.085-1.685-.173-3.349-.594-5.026-.933 1.593.472 3.987 1.164 5.373 1.603.055.013.11.028.164.047 1.481.667 1.018 4.977.936 5.742v.114c.212.903 1.67 2.004 2.688 3.317 1.05 1.356 1.23 1.69 2.023 4.05.707 2.09.998 3.086.887 3.58-.056.244-.432 1.806-1.283 1.944-.659.098-1.291-.7-1.717-1.258-2.193-2.883-3.288-4.324-4.005-5.547-2.35-4.014-2.333-3.057-3.547-5.525 0 0-1.807-3.673-2.23-6.944a11.836 11.836 0 00-.067-.48c-.031-.206-.761-1.128-.761-1.128l-.084-.084a1.413 1.413 0 01-.146-.187c-.553-.841-4.585-6.12-6.587-8.493a9.341 9.341 0 00-.398-.454l-.05-.05c-1.65-1.628-1.764-3.014-1.674-4.34.334-4.956.447-8.053 3.214-13.18zm32.355 45c.013-.186 1.756.943 3.584.53.194-.042.393-.042.587 0 1.828.416 3.577-.706 3.587-.53.011.176-2.092.94-3.835 1.24h-.088c-1.743-.3-3.848-1.054-3.835-1.24zm-4.085-5.453c.027-.412 3.558 1.058 7.357.45.4-.062.26.06.603-.079.434.171.206.011.603.08 3.749.645 7.33-.83 7.357-.451.026.38-2.873 2.712-7.96 2.712-5.314 0-7.986-2.3-7.96-2.712z" transform="translate(56)" id="logo"/></g></g></g></g></g></svg>