<svg width="235" height="90" xmlns="http://www.w3.org/2000/svg"><g id="design" stroke="none" stroke-width="1" fill="none" fill-rule="evenodd"><g id="ISEEU_case" transform="translate(-415 -1417)" fill="#FFF"><path d="M605 1417c24.853 0 45 20.147 45 45s-20.147 45-45 45h-77c-18.596 0-34.557-11.28-41.416-27.37a22.61 22.61 0 01-4.084.37c-12.426 0-22.5-10.074-22.5-22.5s10.074-22.5 22.5-22.5c2.95 0 5.768.568 8.35 1.6 8.105-11.835 21.72-19.6 37.15-19.6h77zm-160.5 56c8.56 0 15.5 6.94 15.5 15.5 0 8.56-6.94 15.5-15.5 15.5h-14c-8.56 0-15.5-6.94-15.5-15.5 0-8.56 6.94-15.5 15.5-15.5h14z" id="Combined-Shape"/></g></g></svg>