<svg width="148" height="78" xmlns="http://www.w3.org/2000/svg"><g id="design" stroke="none" stroke-width="1" fill="none" fill-rule="evenodd"><g id="ISEEU_case" transform="translate(-97 -964)" fill="#FFF"><path d="M220.5 964c8.56 0 15.5 6.94 15.5 15.5 0 1.416-.19 2.787-.545 4.09 5.79 4.28 9.545 11.156 9.545 18.91 0 12.979-10.521 23.5-23.5 23.5h-50.508c.005.166.008.333.008.5 0 8.56-6.94 15.5-15.5 15.5h-43c-8.56 0-15.5-6.94-15.5-15.5 0-8.56 6.94-15.5 15.5-15.5h8.084a23.442 23.442 0 01-1.584-8.5c0-12.979 10.521-23.5 23.5-23.5h39.508c.264-8.329 7.099-15 15.492-15h23z" id="Combined-Shape"/></g></g></svg>