<svg width="20" height="24" xmlns="http://www.w3.org/2000/svg"><g id="design" stroke="none" stroke-width="1" fill="none" fill-rule="evenodd"><g id="ISEEU_case" transform="translate(-80 -639)" fill="#32312F" fill-rule="nonzero"><g id="Group-2" transform="translate(80 639)"><path d="M16.704 12.752c-.03-3.04 2.537-4.497 2.652-4.57-1.443-2.062-3.69-2.345-4.492-2.378-1.912-.189-3.732 1.1-4.703 1.1-.968 0-2.466-1.072-4.052-1.043-2.085.03-4.007 1.184-5.08 3.008-2.167 3.673-.555 9.114 1.556 12.092 1.031 1.458 2.262 3.096 3.877 3.037 1.555-.06 2.143-.983 4.023-.983s2.41.983 4.055.953c1.674-.03 2.734-1.486 3.759-2.948 1.184-1.691 1.672-3.33 1.701-3.413-.037-.017-3.264-1.224-3.296-4.855zm-3.093-8.92C14.47 2.817 15.047 1.407 14.89 0c-1.234.05-2.731.804-3.617 1.818-.795.899-1.49 2.335-1.304 3.713 1.378.105 2.785-.685 3.643-1.698z" id="Shape"/></g></g></g></svg>