<svg xmlns="http://www.w3.org/2000/svg" width="23" height="16" viewBox="0 0 23 16" fill="none">
    <path fill-rule="evenodd" clip-rule="evenodd" d="M21.5786 0L15.6401 5.93851L12.9922 3.2906C10.039 0.337411 5.25092 0.337412 2.29772 3.29061L2.15633 3.432C-0.718776 6.3071 -0.718776 10.9686 2.15633 13.8437C5.03143 16.7188 9.6929 16.7188 12.568 13.8437L21.5786 4.83307C22.9132 3.49846 22.9132 1.33462 21.5786 0ZM10.5756 5.70714L13.2236 8.35505L10.1515 11.4271C8.61098 12.9676 6.11335 12.9676 4.57286 11.4271C3.03238 9.88665 3.03238 7.38902 4.57287 5.84854L4.71426 5.70714C6.33283 4.08857 8.95707 4.08856 10.5756 5.70714ZM20.2447 11.0812C21.5699 11.0812 22.6443 12.1555 22.6443 13.4807C22.6443 14.8059 21.5699 15.8802 20.2447 15.8802C18.9195 15.8802 17.8452 14.8059 17.8452 13.4807C17.8452 12.1555 18.9195 11.0812 20.2447 11.0812Z" fill="white"/>
</svg>
