<svg xmlns="http://www.w3.org/2000/svg" width="24" height="25" viewBox="0 0 24 25" fill="none">
    <path fill-rule="evenodd" clip-rule="evenodd" d="M19.7071 12.7071C20.0976 12.3166 20.0976 11.6834 19.7071 11.2929C19.3166 10.9024 18.6834 10.9024 18.2929 11.2929L13 16.5858V5C13 4.44772 12.5523 4 12 4C11.4477 4 11 4.44772 11 5V16.5858L5.70711 11.2929C5.31658 10.9024 4.68342 10.9024 4.29289 11.2929C3.90237 11.6834 3.90237 12.3166 4.29289 12.7071L11.2922 19.7064C11.2946 19.7088 11.297 19.7112 11.2995 19.7136C11.4792 19.8901 11.7254 19.9992 11.997 20C11.998 20 11.999 20 12 20C12.001 20 12.002 20 12.003 20C12.1375 19.9996 12.2657 19.9727 12.3828 19.9241C12.498 19.8764 12.6062 19.8063 12.7005 19.7136C12.703 19.7112 12.7053 19.7089 12.7077 19.7065M19.7071 12.7071L12.7077 19.7065L19.7071 12.7071Z" fill="#B1B2C1"/>
</svg>
