<svg xmlns="http://www.w3.org/2000/svg" width="20" height="20" viewBox="0 0 20 20" fill="none">
    <path d="M8.86621 9.9616C8.86621 10.646 9.42152 11.201 10.1056 11.201C10.5862 11.201 10.9981 10.9247 11.2037 10.525L11.2071 10.5282L13.4696 6.44629L9.49777 8.88191L9.50152 8.88566C9.12434 9.09848 8.86621 9.49785 8.86621 9.9616Z" fill="#131426"/>
    <path d="M15.0984 4.05652C13.8284 2.94652 12.1875 2.23777 10.3125 2.13184V4.01527C11.875 4.11465 12.7956 4.6109 13.72 5.38527L15.0984 4.05652Z" fill="#131426"/>
    <path d="M15.9833 9.37539H17.8645C17.7383 7.50039 17.0048 5.95977 15.8661 4.69727L14.5352 6.02008C15.337 6.93883 15.8645 8.12539 15.9833 9.37539Z" fill="#131426"/>
    <path d="M15.9923 10.3121C15.7933 13.4371 13.2042 15.9156 10.0417 15.9156C6.74953 15.9156 3.97266 13.2456 3.97266 9.95371C3.97266 6.81996 6.56297 4.2559 9.37547 4.01527V2.13184C5.31297 2.37527 2.09766 5.7934 2.09766 9.96184C2.09766 14.2878 5.66641 17.7906 9.99234 17.7906C14.1898 17.7906 17.6767 14.3746 17.877 10.3121H15.9923Z" fill="#131426"/>
</svg>
