<svg width="32" height="33" viewBox="0 0 32 33" fill="none" xmlns="http://www.w3.org/2000/svg">
<g clip-path="url(#clip0_14402_26810)">
<path d="M16 0.401367C7.1625 0.401367 0 7.56387 0 16.4014C0 25.2389 7.1625 32.4014 16 32.4014C24.8375 32.4014 32 25.2389 32 16.4014C32 7.56387 24.8375 0.401367 16 0.401367Z" fill="white" fill-opacity="0.12"/>
<path d="M15.409 20.4569L21.6032 14.2626C22.1307 13.7352 22.1307 12.8738 21.6047 12.3463C21.0753 11.8169 20.2163 11.8169 19.6869 12.3463L14.4508 17.5824L12.3128 15.4425C11.7834 14.9131 10.9244 14.9131 10.395 15.4425C9.86703 15.972 9.86703 16.8309 10.395 17.3603L13.4921 20.4575C13.7568 20.7221 14.1024 20.8537 14.4508 20.8537C14.7992 20.8537 15.1428 20.7231 15.409 20.4569Z" fill="white"/>
</g>
<defs>
<clipPath id="clip0_14402_26810">
<rect width="32" height="32" fill="white" transform="translate(0 0.401367)"/>
</clipPath>
</defs>
</svg>
