<svg width="56" height="57" viewBox="0 0 56 57" fill="none" xmlns="http://www.w3.org/2000/svg">
<path fill-rule="evenodd" clip-rule="evenodd" d="M35.7071 29.1085C36.0976 28.7179 36.0976 28.0848 35.7071 27.6943C35.3166 27.3037 34.6834 27.3037 34.2929 27.6943L29 32.9872L29 21.4014C29 20.8491 28.5523 20.4014 28 20.4014C27.4477 20.4014 27 20.8491 27 21.4014L27 32.9872L21.7071 27.6943C21.3166 27.3037 20.6834 27.3037 20.2929 27.6943C19.9024 28.0848 19.9024 28.7179 20.2929 29.1085L27.2922 36.1078C27.2946 36.1102 27.297 36.1126 27.2995 36.115C27.4792 36.2915 27.7254 36.4006 27.997 36.4014C27.998 36.4014 27.999 36.4014 28 36.4014C28.001 36.4014 28.002 36.4014 28.003 36.4014C28.1375 36.401 28.2657 36.374 28.3828 36.3255C28.498 36.2778 28.6062 36.2076 28.7005 36.115C28.703 36.1126 28.7053 36.1102 28.7077 36.1079M35.7071 29.1085L28.7077 36.1079L35.7071 29.1085Z" fill="#131426"/>
</svg>
