<svg width="40" height="41" viewBox="0 0 40 41" fill="none" xmlns="http://www.w3.org/2000/svg">
<rect width="40" height="40" rx="20" transform="matrix(1 0 0 -1 0 40.6934)" fill="black" fill-opacity="0.04"/>
<path fill-rule="evenodd" clip-rule="evenodd" d="M20.7071 28.4005C20.3166 28.791 19.6834 28.791 19.2929 28.4005C18.9024 28.0099 18.9024 27.3768 19.2929 26.9863L24.5858 21.6934H13C12.4477 21.6934 12 21.2456 12 20.6934C12 20.1411 12.4477 19.6934 13 19.6934H24.5858L19.2929 14.4005C18.9024 14.0099 18.9024 13.3768 19.2929 12.9863C19.6834 12.5957 20.3166 12.5957 20.7071 12.9863L27.7064 19.9855C27.7088 19.988 27.7112 19.9904 27.7136 19.9928C27.8901 20.1726 27.9992 20.4187 28 20.6904C28 20.6914 28 20.6924 28 20.6934C28 20.6944 28 20.6954 28 20.6964C27.9996 20.8309 27.9727 20.9591 27.9241 21.0761C27.8764 21.1914 27.8063 21.2996 27.7136 21.3939C27.7112 21.3963 27.7089 21.3987 27.7065 21.4011M20.7071 28.4005L27.7065 21.4011L20.7071 28.4005Z" fill="#131426"/>
</svg>
