<svg width="40" height="41" viewBox="0 0 40 41" fill="none" xmlns="http://www.w3.org/2000/svg">
<rect width="40" height="40" rx="20" transform="matrix(0 -1 -1 0 40 40.6934)" fill="black" fill-opacity="0.04"/>
<path fill-rule="evenodd" clip-rule="evenodd" d="M27.7071 19.9863C28.0976 20.3768 28.0976 21.0099 27.7071 21.4005C27.3166 21.791 26.6834 21.791 26.2929 21.4005L21 16.1076V27.6934C21 28.2456 20.5523 28.6934 20 28.6934C19.4477 28.6934 19 28.2456 19 27.6934V16.1076L13.7071 21.4005C13.3166 21.791 12.6834 21.791 12.2929 21.4005C11.9024 21.0099 11.9024 20.3768 12.2929 19.9863L19.2922 12.987C19.2946 12.9845 19.297 12.9821 19.2995 12.9798C19.4792 12.8033 19.7254 12.6942 19.997 12.6934C19.998 12.6934 19.999 12.6934 20 12.6934C20.001 12.6934 20.002 12.6934 20.003 12.6934C20.1375 12.6938 20.2657 12.7207 20.3828 12.7692C20.498 12.8169 20.6062 12.8871 20.7005 12.9798C20.703 12.9821 20.7053 12.9845 20.7077 12.9869M27.7071 19.9863L20.7077 12.9869L27.7071 19.9863Z" fill="#131426"/>
</svg>
