<svg width="64" height="65" viewBox="0 0 64 65" fill="none" xmlns="http://www.w3.org/2000/svg">
<path fill-rule="evenodd" clip-rule="evenodd" d="M32.7071 24.6943C32.3166 24.3037 31.6834 24.3037 31.2929 24.6943C30.9024 25.0848 30.9024 25.7179 31.2929 26.1085L36.5858 31.4014H25C24.4477 31.4014 24 31.8491 24 32.4014C24 32.9537 24.4477 33.4014 25 33.4014H36.5858L31.2929 38.6943C30.9024 39.0848 30.9024 39.7179 31.2929 40.1085C31.6834 40.499 32.3166 40.499 32.7071 40.1085L39.7064 33.1092C39.7088 33.1068 39.7112 33.1044 39.7136 33.1019C39.8901 32.9222 39.9992 32.676 40 32.4044C40 32.4034 40 32.4024 40 32.4014C40 32.4004 40 32.3994 40 32.3984C39.9996 32.2639 39.9727 32.1356 39.9241 32.0186C39.8764 31.9033 39.8063 31.7952 39.7136 31.7008C39.7112 31.6984 39.7089 31.696 39.7065 31.6936M32.7071 24.6943L39.7065 31.6936L32.7071 24.6943Z" fill="#131426"/>
</svg>
