<svg width="324" height="65" fill="none" xmlns="http://www.w3.org/2000/svg"><path d="M17.995 3.611h29.01c2.656 0 4.604 0 6.142.126 1.53.125 2.59.37 3.481.824a8.719 8.719 0 013.81 3.81c.455.892.7 1.952.825 3.482.125 1.538.126 3.486.126 6.142v29.01c0 2.656 0 4.604-.126 6.142-.125 1.53-.37 2.59-.824 3.481a8.718 8.718 0 01-3.81 3.81c-.892.455-1.952.7-3.482.825-1.538.125-3.486.126-6.142.126h-29.01c-2.656 0-4.604 0-6.142-.126-1.53-.125-2.59-.37-3.481-.824a8.719 8.719 0 01-3.81-3.81c-.455-.892-.7-1.952-.825-3.482-.125-1.538-.126-3.486-.126-6.142v-29.01c0-2.656 0-4.604.126-6.142.125-1.53.37-2.59.824-3.481a8.719 8.719 0 013.81-3.81c.892-.455 1.952-.7 3.482-.825 1.538-.125 3.486-.126 6.142-.126z" stroke="#fff"/><path fill-rule="evenodd" clip-rule="evenodd" d="M35.2 30.01c-9.407-7.706 6.075-10.81 17.373-12.36l.871-4.656H18.6l-7.043 38.974h6.454c2.067-7.977 7.959-11.941 15.125-14.908 4.789-1.982 5.2-4.483 2.065-7.05z" fill="#fff"/><path d="M107.351 18.255l-.954 5.347h-11.84l-1.034 5.981h8.511l-.954 5.148h-8.51L90.58 46.06h-6.802l4.931-27.806h18.642zm.794 27.042c-1.486-.767-2.635-1.851-3.444-3.256-.81-1.401-1.215-3.03-1.215-4.882 0-2.513.597-4.802 1.792-6.869 1.193-2.064 2.84-3.684 4.937-4.864 2.098-1.176 4.434-1.765 7.007-1.765 1.913 0 3.618.391 5.117 1.17 1.498.78 2.66 1.874 3.485 3.275.821 1.402 1.235 3.031 1.235 4.882 0 2.542-.605 4.837-1.81 6.888-1.208 2.052-2.867 3.66-4.977 4.824-2.111 1.164-4.452 1.746-7.029 1.746-1.912 0-3.612-.382-5.098-1.149zm9.059-5.698c.89-.675 1.579-1.55 2.07-2.622a7.967 7.967 0 00.738-3.354c0-1.322-.358-2.341-1.075-3.056-.717-.714-1.619-1.072-2.706-1.072-1.143 0-2.145.34-3.006 1.014-.863.674-1.533 1.555-2.012 2.64a8.36 8.36 0 00-.717 3.413c0 1.296.346 2.294 1.035 2.997.689.702 1.579 1.053 2.67 1.053a4.848 4.848 0 003.003-1.013zm16.06 5.698c-1.486-.767-2.635-1.851-3.445-3.256-.809-1.401-1.214-3.03-1.214-4.882 0-2.514.596-4.802 1.792-6.87 1.193-2.063 2.839-3.683 4.937-4.863 2.098-1.177 4.433-1.765 7.007-1.765 1.912 0 3.617.391 5.117 1.17 1.497.78 2.659 1.873 3.484 3.275.821 1.401 1.236 3.031 1.236 4.882 0 2.541-.605 4.836-1.81 6.888-1.209 2.051-2.867 3.66-4.977 4.824-2.111 1.164-4.452 1.746-7.029 1.746-1.913 0-3.609-.382-5.098-1.149zm9.062-5.698c.889-.675 1.578-1.55 2.07-2.622.49-1.072.737-2.19.737-3.354 0-1.322-.358-2.341-1.074-3.056-.717-.715-1.619-1.072-2.71-1.072-1.143 0-2.144.339-3.006 1.014-.862.674-1.532 1.555-2.011 2.64a8.36 8.36 0 00-.717 3.412c0 1.297.346 2.295 1.035 2.998.689.702 1.579 1.053 2.67 1.053a4.857 4.857 0 003.006-1.013zm66.718-19.384c1.507 1.306 2.259 3.006 2.259 5.09a8.49 8.49 0 01-.16 1.703c-.316 1.85-1.121 3.5-2.415 4.95-1.294 1.455-3.025 2.484-5.19 3.09l4.476 11.012h-7.645l-3.923-10.496h-1.622L192.96 46.06h-6.775l4.912-27.806h11.372c2.878 0 5.069.652 6.575 1.961zm-4.752 6.24c0-.846-.271-1.5-.812-1.961-.541-.462-1.34-.695-2.397-.695h-4.199l-1.228 6.97h4.2c1.241 0 2.225-.304 2.951-.91.725-.608 1.196-1.465 1.404-2.575a9.11 9.11 0 00.081-.83zm11.209 18.842c-1.463-.767-2.593-1.851-3.39-3.256-.796-1.401-1.193-3.03-1.193-4.882 0-2.513.586-4.802 1.762-6.869a12.795 12.795 0 014.856-4.864c2.064-1.176 4.362-1.765 6.893-1.765 1.882 0 3.559.391 5.034 1.17 1.473.78 2.616 1.874 3.425 3.275.809 1.402 1.216 3.031 1.216 4.882 0 2.542-.597 4.837-1.781 6.888a12.79 12.79 0 01-4.897 4.824c-2.075 1.164-4.379 1.746-6.914 1.746-1.878.003-3.549-.379-5.011-1.149zm8.911-5.695c.875-.675 1.553-1.55 2.035-2.621a8.064 8.064 0 00.727-3.355c0-1.321-.353-2.341-1.058-3.056-.705-.714-1.592-1.072-2.665-1.072-1.125 0-2.109.34-2.957 1.014-.847.674-1.508 1.555-1.978 2.64a8.481 8.481 0 00-.705 3.413c0 1.297.339 2.294 1.018 2.997.677.702 1.553 1.053 2.625 1.053a4.718 4.718 0 002.958-1.013zm14.314-10.582c1.24-1.719 2.774-3.043 4.604-3.97 1.831-.927 3.829-1.389 5.988-1.389 2.766 0 4.953.727 6.561 2.184 1.608 1.456 2.463 3.507 2.571 6.152h-7.196c-.292-1.693-1.32-2.54-3.084-2.54-1.239 0-2.307.483-3.202 1.45-.896.967-1.503 2.35-1.819 4.148a9.479 9.479 0 00-.159 1.746c0 1.244.291 2.196.871 2.858.579.662 1.371.992 2.371.992 1.739 0 3.043-.847 3.914-2.54h7.237c-1.029 2.592-2.609 4.63-4.747 6.112-2.135 1.481-4.573 2.223-7.312 2.223-2.847 0-5.107-.785-6.778-2.362-1.676-1.573-2.511-3.723-2.511-6.448 0-.82.081-1.678.237-2.58.399-2.304 1.215-4.315 2.454-6.036zm62.455-3.037c1.657 1.55 2.482 3.66 2.482 6.332 0 .875-.064 1.654-.197 2.341-.104.61-.261 1.257-.471 1.947h-15.136a5.02 5.02 0 00-.039.754c0 1.165.312 2.051.937 2.658.626.61 1.459.912 2.504.912 1.668 0 2.946-.715 3.832-2.144h7.119c-.937 2.249-2.464 4.09-4.576 5.52-2.111 1.428-4.485 2.143-7.119 2.143-2.815 0-5.064-.794-6.746-2.38-1.681-1.587-2.522-3.746-2.522-6.471 0-.82.08-1.667.234-2.541.392-2.301 1.199-4.312 2.425-6.034 1.225-1.719 2.749-3.043 4.576-3.97 1.823-.927 3.821-1.389 5.985-1.389 2.821 0 5.058.776 6.712 2.322zm-4.203 6.413c0-1.057-.328-1.873-.977-2.443-.653-.57-1.512-.853-2.579-.853-1.147 0-2.158.351-3.032 1.053-.874.703-1.505 1.7-1.897 2.997h8.41c.047-.37.075-.622.075-.754zm16.765 6.076a2.673 2.673 0 00-.039.515c0 .475.138.816.411 1.027.273.212.722.316 1.35.316h2.385l-1.017 5.73h-3.402c-4.379 0-6.57-1.858-6.57-5.57 0-.552.063-1.251.195-2.094l1.565-8.771h-3.026l.977-5.61h3.026l.937-5.375h6.69l-.938 5.375h4.38l-.978 5.61h-4.383l-1.563 8.847z" fill="#fff"/><path d="M276.048 24.01l-8.174 8.93 2.579-14.685h-6.723l-4.894 27.805h6.719l1.611-9.208 5.07 9.208h8.33l-7.268-10.987 11.044-11.063h-8.294zm-102.475-5.755l-1.567 8.783c-.504-1.032-1.307-1.851-2.411-2.46-1.101-.61-2.383-.912-3.845-.912-1.833 0-3.572.461-5.217 1.389-1.647.927-3.054 2.248-4.222 3.97-1.169 1.72-1.953 3.716-2.349 5.992-.16.952-.238 1.839-.238 2.658 0 1.774.34 3.32 1.016 4.644.678 1.325 1.62 2.344 2.829 3.055 1.209.715 2.597 1.072 4.163 1.072 1.567 0 2.99-.317 4.262-.951 1.274-.635 2.337-1.482 3.187-2.541l-.557 3.175h6.812l4.952-27.874h-6.815zm-2.961 16.8c-.318 1.693-1.036 3.03-2.151 4.009-1.116.98-2.348 1.47-3.706 1.47-1.14 0-2.092-.377-2.847-1.131-.757-.755-1.134-1.78-1.134-3.077 0-.397.04-.834.121-1.309.293-1.694.995-3.024 2.111-3.988 1.115-.967 2.348-1.447 3.702-1.447 1.168 0 2.13.37 2.887 1.111.757.743 1.134 1.762 1.134 3.055a7.43 7.43 0 01-.117 1.306z" fill="#fff"/></svg>