<svg width="88" height="16" fill="none" xmlns="http://www.w3.org/2000/svg"><g clip-path="url(#clip0)" fill="#fff"><path d="M66.298 10.371a3.102 3.102 0 002.204-.851l1.093 1.18c-.722.742-1.723 1.293-3.278 1.293-2.668 0-4.392-1.77-4.392-4.163a4.084 4.084 0 014.148-4.165c2.649 0 4.15 2.015 4.017 4.81h-6.26c.221 1.16 1.038 1.901 2.463 1.901l.005-.005zm1.901-3.229c-.17-1.084-.817-1.882-2.11-1.882-1.204 0-2.043.68-2.26 1.882h4.372-.002zm-43.007 3.139l4.817-4.895h-4.703V3.85h6.937v1.566l-4.817 4.894h4.886v1.537h-7.12V10.28zm12.527.088a3.101 3.101 0 002.204-.85l1.093 1.179c-.721.742-1.722 1.293-3.278 1.293-2.667 0-4.392-1.77-4.392-4.163a4.086 4.086 0 014.149-4.165c2.648 0 4.15 2.015 4.017 4.81h-6.258c.222 1.161 1.039 1.901 2.464 1.901l.001-.005zm1.905-3.229c-.17-1.084-.817-1.882-2.11-1.882-1.204 0-2.043.68-2.26 1.882h4.372-.002zm12.294.686c0-2.553 1.912-4.16 4.017-4.16a3.462 3.462 0 012.668 1.2V.148h1.702v11.677h-1.702v-1.102a3.42 3.42 0 01-2.683 1.263c-2.043 0-4-1.617-4-4.158l-.002-.002zm6.78-.015a2.54 2.54 0 10-2.538 2.608c1.464 0 2.536-1.168 2.536-2.608h.002zm12.505 2.315l1.543-.8a2.287 2.287 0 002.056 1.168c.963 0 1.464-.494 1.464-1.056 0-.64-.931-.783-1.944-.992-1.362-.29-2.78-.737-2.78-2.383 0-1.265 1.204-2.434 3.098-2.417 1.493 0 2.604.592 3.234 1.549l-1.43.783a2.075 2.075 0 00-1.799-.912c-.916 0-1.382.447-1.382.96 0 .575.739.735 1.896.992 1.318.29 2.809.72 2.809 2.383 0 1.103-.964 2.59-3.245 2.575-1.668 0-2.842-.672-3.518-1.855l-.002.005zm11.39-1.855l-1.35 1.472v2.077H79.54V.143h1.703v7.648l3.613-3.966h2.073l-3.132 3.42 3.214 4.576h-1.927l-2.49-3.55h-.002zm-35.82-4.606c-2.025 0-3.719 1.31-3.719 3.489v4.672h1.736V7.37c0-1.31.755-2.097 2.043-2.097 1.289 0 1.929.783 1.929 2.097v4.456h1.726V7.154c0-2.175-1.703-3.49-3.72-3.49M9.906 15.999V4.225L0 16h9.906zM8.456 3.448A4.838 4.838 0 009.906 0H0c0 1.293.522 2.533 1.45 3.448a4.993 4.993 0 003.503 1.428 4.993 4.993 0 003.503-1.428zm4.534 9.104A4.838 4.838 0 0011.537 16h9.907a4.838 4.838 0 00-1.451-3.448 4.993 4.993 0 00-3.503-1.428 4.993 4.993 0 00-3.502 1.428zM11.538 0v11.774L21.447 0h-9.909z"/></g><defs><clipPath id="clip0"><path fill="#fff" d="M0 0h87.059v16H0z"/></clipPath></defs></svg>