<svg width="194" height="40" fill="none" xmlns="http://www.w3.org/2000/svg"><path fill-rule="evenodd" clip-rule="evenodd" d="M0 7.964c0 .612.237 1.178.663 1.602l5.64 5.702c.237.235.473.424.758.518.284.141.616.189.9.189.332 0 .616-.095.9-.189.285-.141.522-.283.759-.518l5.686-5.655c.237-.236.427-.471.522-.754.142-.283.19-.565.19-.895 0-.33-.096-.613-.19-.896a2.692 2.692 0 00-.522-.754L9.62.66A2.263 2.263 0 008.009 0C7.392 0 6.776.236 6.35.707L.663 6.362A2.24 2.24 0 000 7.964zm21.656 4.665l5.687 5.655c.237.235.426.47.521.754.142.282.19.612.19.895 0 .33-.095.612-.19.895a2.691 2.691 0 01-.521.754l-5.687 5.655c-.237.235-.474.424-.758.518-.284.142-.569.189-.9.189-.332 0-.616-.095-.9-.189a2.706 2.706 0 01-.759-.518l-5.686-5.655c-.237-.236-.427-.471-.522-.754a2.032 2.032 0 01-.19-.895c0-.33.095-.613.19-.895.142-.283.285-.519.521-.755l5.687-5.654c.237-.236.474-.424.758-.518.285-.142.569-.189.9-.189.332 0 .617.094.901.188.284.142.521.283.758.519zM9.62 24.598a2.708 2.708 0 00-.758-.518c-.285-.095-.57-.189-.9-.189-.333 0-.617.047-.901.189-.285.094-.521.282-.758.518L.616 30.253c-.38.47-.616 1.036-.616 1.649 0 .612.237 1.178.663 1.602L6.35 39.16c.237.235.474.377.758.518.284.094.569.189.9.189.332 0 .617-.047.9-.189.285-.094.522-.283.76-.518l5.686-5.655a2.65 2.65 0 00.52-.754c.096-.283.19-.565.19-.895 0-.283-.047-.613-.19-.896-.094-.282-.283-.518-.52-.753L9.62 24.598zM169.683 9.535c1.732 0 2.914-1.182 2.914-2.875 0-1.653-1.182-2.834-2.914-2.834-1.732 0-2.953 1.18-2.953 2.834 0 1.693 1.221 2.875 2.953 2.875zm1.654 22.638c.393 0 .63-.236.63-.63V12.684c0-.393-.237-.63-.63-.63h-3.307c-.394 0-.63.236-.63.63v18.86c0 .393.236.63.63.63h3.307zM51.471 12.015h3.7c.394 0 .63.236.63.63v2.795c0 .394-.236.63-.63.63h-3.7c-.118 0-.237.079-.237.236v15.237c0 .394-.236.63-.63.63h-3.307c-.393 0-.63-.236-.63-.63V16.306c0-.157-.078-.236-.236-.236h-2.244c-.394 0-.63-.236-.63-.63v-2.795c0-.394.236-.63.63-.63h2.244c.158 0 .236-.079.236-.236v-.67c0-5 1.733-6.535 7.205-6.496h1.22c.395 0 .63.236.63.63v2.441c0 .394-.236.63-.63.63h-.865c-2.284 0-2.993.748-2.993 3.11v.355c0 .157.08.236.237.236zm12.165 20.158H60.33c-.394 0-.63-.236-.63-.63v-26.3c0-.394.236-.63.63-.63h3.307c.394 0 .63.236.63.63v26.3c0 .394-.236.63-.63.63zm5.045-15.08c.473-3.11 3.701-5.354 8.23-5.354 5.078 0 8.346 2.835 8.346 6.694v13.11c0 .394-.236.63-.63.63H81.32c-.394 0-.63-.236-.63-.63v-.984c0-.197-.118-.236-.276-.118-1.378 1.338-3.307 2.047-5.67 2.047-3.66 0-6.653-1.811-6.653-5.945 0-4.055 2.953-6.496 8.19-6.496h4.173c.157 0 .236-.079.236-.236v-.906c0-2.008-1.181-3.229-3.662-3.229-1.89 0-3.11.71-3.504 1.851-.118.394-.315.551-.709.512l-3.543-.433c-.394-.04-.63-.237-.59-.512zm3.977 9.135c0 1.732 1.457 2.638 3.347 2.638 2.48 0 4.685-1.457 4.685-3.622v-1.811c0-.158-.079-.237-.236-.237h-3.268c-2.756 0-4.528 1.063-4.528 3.032zm24.665 6.181c4.842 0 8.071-2.204 8.071-5.984 0-3.937-3.662-5.158-6.93-6.103a121.53 121.53 0 00-.887-.245c-2.227-.609-3.955-1.081-3.955-2.51 0-1.418 1.457-2.166 3.465-2.166 2.362 0 3.74 1.102 3.74 2.402v.236c0 .157.236.236.63.236h3.031c.394 0 .63-.197.63-.472 0-3.505-3.189-5.985-8.031-5.985-4.646 0-7.835 2.284-7.835 6.024 0 3.858 3.504 5.118 6.653 6.063.515.172 1.019.32 1.496.46 1.932.57 3.426 1.01 3.426 2.336 0 1.299-1.418 2.283-3.544 2.283-2.283 0-3.819-1.142-3.819-2.441v-.276c0-.157-.236-.275-.63-.275h-3.15c-.393 0-.63.236-.63.63v.197c0 3.189 3.23 5.59 8.269 5.59zm16.738-18.544c1.142-1.456 2.756-2.126 4.843-2.126 4.252 0 7.047 2.678 7.047 7.048v12.756c0 .394-.236.63-.63.63h-3.307c-.394 0-.63-.236-.63-.63V19.732c0-2.402-1.496-4.055-3.779-4.055-2.245 0-3.78 1.614-3.78 4.015v11.851c0 .394-.236.63-.63.63h-3.307c-.394 0-.63-.236-.63-.63v-26.3c0-.394.236-.63.63-.63h3.307c.394 0 .63.236.63.63v8.504c0 .197.118.276.236.118zm28.936-1.18v.708c0 .197-.118.275-.276.118-1.102-1.102-2.638-1.772-4.803-1.772-3.543 0-6.221 2.166-7.244 5.276-.512 1.418-.63 3.15-.63 5 0 1.693.118 3.347.512 4.764 1.181 3.82 4.567 5.276 7.638 5.276 2.126 0 3.543-.67 4.527-1.693.158-.157.276-.079.276.118v.236c0 4.292-2.559 5.434-7.638 5-.433-.039-.709.158-.709.552l-.118 2.913c0 .433.158.67.551.709 6.26.59 12.481-1.024 12.481-9.056v-18.15c0-.393-.236-.63-.63-.63h-3.307c-.394 0-.63.236-.63.63zm-.276 12.795c-.393 1.575-1.614 2.835-3.74 2.835-2.047 0-3.425-1.26-3.937-2.874-.236-.591-.394-1.693-.394-3.426 0-1.653.158-2.716.473-3.464.551-1.615 1.811-2.874 3.819-2.874 2.047 0 3.346 1.22 3.74 2.874.236.787.315 1.338.315 3.425 0 2.126-.079 2.756-.276 3.504zm14.364-11.181c1.024-1.536 2.52-2.48 4.567-2.48.945 0 1.575.196 2.087.432.315.158.433.433.354.788l-.63 3.267c-.078.433-.315.512-.748.394-.512-.157-1.22-.236-2.008-.118-2.126.118-3.858 1.575-3.858 3.977v10.984c0 .394-.236.63-.63.63h-3.307c-.394 0-.63-.236-.63-.63V12.684c0-.393.236-.63.63-.63h3.307c.394 0 .63.236.63.63v1.536c0 .197.118.275.236.079zm32.24-.71V5.244c0-.394.236-.63.63-.63h3.307c.394 0 .63.236.63.63v26.3c0 .394-.236.63-.63.63h-3.307c-.394 0-.63-.236-.63-.63V30.52c0-.197-.158-.276-.276-.08-1.063 1.3-2.559 2.048-4.488 2.048-3.78 0-6.418-2.165-7.559-5.512-.473-1.457-.709-3.11-.709-4.921 0-1.772.197-3.386.669-4.804 1.142-3.386 3.701-5.512 7.599-5.512 1.929 0 3.386.709 4.488 1.93.118.157.276.118.276-.08zm-4.055 14.923c1.378 0 2.362-.67 3.071-1.85.63-1.064.905-2.678.905-4.568 0-2.008-.315-3.583-.984-4.685-.669-1.103-1.654-1.732-2.953-1.732-1.378 0-2.441.59-3.15 1.653-.748 1.142-1.141 2.756-1.141 4.803 0 1.85.314 3.386.944 4.489.67 1.22 1.812 1.89 3.308 1.89z" fill="#fff"/></svg>