<svg width="29" height="40" fill="none" xmlns="http://www.w3.org/2000/svg"><path d="M0 7.964c0 .612.237 1.178.663 1.602l5.64 5.702c.237.235.473.424.758.518.284.141.616.189.9.189.332 0 .616-.095.9-.189.285-.141.522-.283.759-.518l5.686-5.655c.237-.236.427-.471.522-.754.142-.283.19-.565.19-.895 0-.33-.096-.613-.19-.896a2.692 2.692 0 00-.522-.754L9.62.66A2.263 2.263 0 008.009 0C7.392 0 6.776.236 6.35.707L.663 6.362A2.24 2.24 0 000 7.964zm21.656 4.665l5.687 5.655c.237.235.426.47.521.754.142.282.19.612.19.895 0 .33-.095.612-.19.895a2.691 2.691 0 01-.521.754l-5.687 5.655c-.237.235-.474.424-.758.518-.284.142-.569.189-.9.189-.332 0-.616-.095-.9-.189a2.706 2.706 0 01-.759-.518l-5.686-5.655c-.237-.236-.427-.471-.522-.754a2.032 2.032 0 01-.19-.895c0-.33.095-.613.19-.895.142-.283.285-.519.521-.755l5.687-5.654c.237-.236.474-.424.758-.518.285-.142.569-.189.9-.189.332 0 .617.094.901.188.284.142.521.283.758.519zM8.862 24.08c.284.14.52.282.758.518l5.734 5.608c.237.235.426.47.52.753.143.283.19.613.19.896 0 .33-.094.612-.19.895a2.693 2.693 0 01-.52.754L9.667 39.16c-.237.235-.474.424-.758.518-.284.142-.569.189-.9.189-.332 0-.617-.095-.9-.189a2.71 2.71 0 01-.759-.518L.663 33.504A2.238 2.238 0 010 31.902c0-.613.237-1.178.616-1.65l5.687-5.654c.237-.236.473-.424.758-.518.284-.142.568-.189.9-.189.332 0 .616.094.9.189z" fill="#5E308C"/></svg>