<svg width="169" height="120" fill="none" xmlns="http://www.w3.org/2000/svg"><g clip-path="url(#clip0)"><path d="M80.534 18.765v52.29h-43.31l43.31-52.29zm0-18.765a21.656 21.656 0 01-43.31 0h43.31zm7.135 71.06a21.656 21.656 0 1143.312 0H87.67zm0-18.765V0h43.321L87.67 52.29v.005zm24.223 63.503a8.445 8.445 0 006-2.317l2.974 3.211c-1.964 2.02-4.688 3.521-8.923 3.521-7.26 0-11.954-4.818-11.954-11.333a11.109 11.109 0 013.239-8.066 11.132 11.132 0 018.052-3.271c7.21 0 11.296 5.486 10.935 13.093h-17.041c.602 3.16 2.826 5.176 6.704 5.176l.014-.014zm5.175-8.79c-.463-2.951-2.224-5.124-5.745-5.124-3.276 0-5.56 1.853-6.148 5.124h11.898-.005zM0 115.552l13.112-13.325H.31v-4.18h18.885v4.263L6.083 115.631h13.298v4.184H0v-4.263zm34.1.241a8.44 8.44 0 006-2.317l2.975 3.211c-1.965 2.02-4.689 3.521-8.924 3.521-7.26 0-11.953-4.818-11.953-11.332a11.124 11.124 0 016.932-10.521 11.12 11.12 0 014.359-.817c7.21 0 11.296 5.486 10.934 13.094H27.391c.603 3.159 2.827 5.175 6.705 5.175l.004-.014zm5.185-8.789c-.463-2.951-2.224-5.124-5.745-5.124-3.276 0-5.56 1.853-6.148 5.124H39.29h-.005zm33.466 1.867c0-6.95 5.203-11.323 10.934-11.323a9.423 9.423 0 017.26 3.266V87.971h4.633v31.783h-4.633v-2.997a9.312 9.312 0 01-7.302 3.438c-5.56 0-10.888-4.402-10.888-11.319l-.004-.005zm18.454-.042a6.91 6.91 0 00-8.373-6.571 6.917 6.917 0 00-5.331 5.478 6.91 6.91 0 006.795 8.191c3.985 0 6.904-3.178 6.904-7.098h.005zm34.04 6.302l4.197-2.178a6.23 6.23 0 005.597 3.178c2.623 0 3.985-1.343 3.985-2.872 0-1.742-2.534-2.132-5.291-2.701-3.707-.788-7.566-2.007-7.566-6.487 0-3.442 3.275-6.625 8.432-6.58 4.064 0 7.089 1.613 8.803 4.217l-3.892 2.131a5.648 5.648 0 00-4.897-2.483c-2.493 0-3.762 1.219-3.762 2.613 0 1.566 2.011 2.002 5.161 2.701 3.586.788 7.645 1.96 7.645 6.487 0 3.002-2.622 7.051-8.831 7.01-4.54 0-7.737-1.83-9.577-5.05l-.004.014zm31.001-5.051l-3.675 4.008v5.653h-4.633V87.957h4.633v20.817l9.837-10.796h5.643l-8.525 9.313 8.747 12.454h-5.244l-6.779-9.665h-.004zM58.749 97.543c-5.514 0-10.123 3.567-10.123 9.498v12.718h4.725v-12.13c0-3.567 2.053-5.708 5.56-5.708 3.508 0 5.25 2.132 5.25 5.708v12.13h4.698v-12.718c0-5.921-4.633-9.498-10.124-9.498" fill="#03363D"/></g><defs><clipPath id="clip0"><path fill="#fff" d="M0 0h168.185v120H0z"/></clipPath></defs></svg>