<svg width="152" height="120" fill="none" xmlns="http://www.w3.org/2000/svg"><path d="M57.988 83.708c.316-.316.552-.789.474-1.341 0-.395-.237-.79-.474-1.026l11.046-19.25.078-.08c.395-.71.316-1.656-.236-2.287-.553-.71-1.42-1.026-2.288-.79L44.97 64.616a1.923 1.923 0 00-1.656-.946c-.237 0-.395.079-.632.157l-14.99-16.41-.079-.079s-.078 0-.078-.079c-.395-.394-1.42-1.578-1.42-3.708V7.101l-.08-3.55.553-.08h5.444c.789 0 1.183-.315 1.183-.946 0-.395-.079-.632-.316-.79-.157-.157-.552-.236-1.025-.236l-6.627.079h-6.154c-1.026 0-1.894.079-2.446.158-.552.079-.868.157-.947.315-.158.158-.158.316-.158.71 0 .316.158.474.395.71.237.158.552.237.868.237h6.864c.078 0 .157 2.21.157 6.627v3.945l-.079 1.815c0 2.13.08 5.444.158 9.783l.158 9.783v10.73l-.158 2.209v.157l-.079 2.21-1.104 20.907v.079c-.079.315-.237.552-.552.71L1.262 82.209l-.079.079C.473 82.682 0 83.471 0 84.26c0 .868.552 1.657 1.42 1.973l20.986 8.047c.08.631.474 1.183 1.026 1.42l2.525 22.328v.078c.157.789.71 1.5 1.499 1.736.236.079.552.079.867.079.553-.079 1.105-.315 1.5-.789l14.358-17.515h.395c.473 0 .947-.315 1.183-.631l22.091 4.576h.079c.789.079 1.657-.237 2.051-.947a2.149 2.149 0 000-2.366l-11.992-18.54zm10.02-23.195c.237.315.237.631.079.947L56.962 80.789h-.236a1.81 1.81 0 00-1.5 1.183l-16.488-3.155v-.08c0-.078 0-.236-.08-.315l29.35-17.91zm-24.694 6.47h.315c.71-.08 1.341-.553 1.5-1.263l21.774-5.68h.158L38.185 77.711c0-.079-.079-.079-.157-.158l5.286-10.572zm-1.5-1.579c.08.553.316.947.71 1.263L37.319 77.16c-.158-.08-.316-.08-.553-.08h-.079l-6.154-17.04 11.283 5.128v.236zM25.169 48.757c0-.236.157-.394.236-.552l4.024 11.124-5.444 11.046 1.184-21.618zM29.9 60.434l6.154 16.962c-.158.08-.315.237-.473.395l-11.677-5.128 5.996-12.23zm11.44 3.708l-11.124-5.128-4.024-11.046c.237 0 .474.158.631.316L41.34 64.142zM1.262 84.024v-.08c.08-.315.237-.473.553-.63l20.907-9.547.158-.079c.158-.079.394-.236.473-.394l11.913 5.286v.158L1.262 84.024zm22.722 8.363c-.473 0-.947.315-1.183.63L1.815 85.129l-.08-.079c-.078-.079-.157-.079-.236-.158l33.925-5.285c.079.078.158.236.237.315L24.773 92.544c-.236-.078-.552-.157-.789-.157zm4.892 25.956c-.316.316-.631.395-1.026.316-.394-.079-.631-.395-.71-.789l-.473-4.339 7.731-1.815-5.522 6.627zm-2.288-5.68l-1.894-16.647L35.11 110.61l-8.521 2.052zm9.073-2.604L25.246 95.385c.08-.08.158-.158.237-.316l17.278 4.97v.079c0 .316.158.631.395.947l-7.495 8.994zm7.258-10.808L25.8 94.28v-.317c0-.394-.158-.71-.395-.946l10.809-12.702c.237.157.552.157.868.157l6.47 17.989c-.237.236-.474.473-.632.788zm2.367-.79c-.237-.157-.552-.236-.868-.236L37.87 80.237c.236-.158.473-.395.552-.631L55.07 82.84c.079.316.158.552.316.71l-10.1 14.912zm.868 1.342v-.08c0-.236-.158-.472-.237-.63l10.257-14.99c.078 0 .078.078.157.078l1.5 18.068-11.677-2.446zm10.966-15.07l8.994 13.65-7.495 3.944-1.499-17.593zm11.992 19.251c-.236.316-.63.474-.946.395l-8.363-1.736 6.864-3.55 2.524 3.866.08.078c.078.237.078.632-.159.947z" fill="#fff"/><path d="M38.343 11.519c.79 6.39 1.42 10.966 1.736 13.728.394 3.55.789 6.706 1.183 9.546.08.71.237 1.815.553 3.392l1.104 7.417v.315c0 .237 0 .474-.079.631v.71c0 .868.395 1.342 1.184 1.342.71 0 1.025-.79 1.025-2.367v-1.105l3.077-33.452v-.078l.08-.08.157.159c1.972 16.094 3.392 27.297 4.418 33.609l.079.947c.079.868.158 1.499.237 1.735.157.474.473.71 1.183.71.473 0 .71-.157.868-.394.158-.237.237-.631.237-1.105l.315-3.155.71-6.154.474-4.813 1.262-12.702c.631-7.18 1.183-12.544 1.657-16.252.079-.158.079-.316.158-.553v-.868c0-.157 0-.315-.08-.315.474-.395.71-.79.71-1.184 0-.236-.157-.473-.394-.71a1.13 1.13 0 00-.789-.315c-.552 0-.947.079-1.262.315-.237.237-.395.632-.395 1.105v.552l.08.631c0 2.13-.237 4.892-.632 8.284-.473 3.314-.71 5.839-.789 7.338l-2.288 24.852-.157-.158c-.316-2.92-1.105-8.915-2.446-17.988-1.341-9.073-2.21-14.754-2.604-16.884l-.158-.552c0-.237 0-.395-.078-.552-.08-.158-.158-.316-.237-.395-.08-.237-.474-.394-1.026-.394-.158.079-.236.157-.236.236-.08.08-.08.158-.08.158l-.078.79c-.08.157-.08.394-.08.788 0 .316-.078.789-.078 1.262l-.158 2.84-.789 4.971c-.394 2.367-.631 4.181-.71 5.365-.079.316-.237 2.998-.473 8.205l-.158 1.815c-.395 5.286-.631 8.52-.71 9.783h-.158c-1.42-11.677-2.682-24.142-3.945-37.476V3.156c0-.552-.079-.868-.315-1.105-.237-.236-.631-.315-1.263-.315a1.28 1.28 0 00-.71.236 1.843 1.843 0 00-.552.553c.316.473.71 2.998 1.341 7.574l.08 1.42zM74.477 45.68h-2.209c0-.552 0-1.104.08-1.656v-1.736c0-3.945-.238-10.335-.71-19.33-.553-9.704-.79-16.094-.79-19.329l.158-.236c.079-.08.316-.158.71-.158h1.341c.237.079.474.079.71.079.237 0 .395-.08.553-.316.157-.237.157-.394.157-.71 0-.316-.079-.473-.315-.631a1.333 1.333 0 00-.79-.237c-.946 0-1.735 0-2.366-.079H69.27c-1.262 0-1.972.08-2.288.158-.315.237-.473.473-.473.868 0 .552.237.868.631.868h2.13c.08.552.158 1.893.158 3.945v4.023l-.079 3.156c.158 3.235.316 7.732.474 13.491.315 7.18.394 13.097.394 17.752H67.85c-.71 0-1.026.236-1.026.789 0 .236.08.473.316.71.237.236.473.315.789.315 1.499 0 2.761 0 3.708.08h3.314c.236 0 .394-.08.552-.317.158-.236.316-.473.316-.71.078-.552-.395-.788-1.342-.788zm23.353 1.026l.158-4.813c.158-2.209.158-3.787.158-4.812 0-5.365 0-10.178.079-14.438s.079-9.073.079-14.517V3.235c.079-.316.079-.79.079-1.263 0-1.183-.158-1.814-.474-1.814-.63 0-1.104.315-1.262.868l.079 8.678v4.734c-.08 1.42-.08 2.998-.08 4.812l-.157 10.651a416.29 416.29 0 00-.158 10.651c0 1.342-.157 2.367-.394 2.92-.947-2.683-1.972-6.549-3.156-11.677-2.051-7.732-3.55-13.255-4.418-16.647-.395-1.5-.868-3.63-1.5-6.47l-1.261-5.996c-.08-.315-.316-.552-.553-.789-.315-.236-.552-.394-.789-.394-.552 0-1.025.079-1.262.316-.237.157-.395.552-.395 1.025v.631c.08.237.08.395.08.71 0 2.13 0 4.024.078 5.76v13.885l.158 10.651.079 10.651c0 1.263-.079 2.051-.158 2.446l.158.473h1.42l.395-.473-.158-8.678-.237-9.073V7.652c0-1.42 0-2.288.079-2.525 1.341 6.706 2.13 10.809 2.525 12.229.473 1.972 2.998 11.203 7.574 27.613 0 .158.078.395.157.947l.158 1.184c.08.394.237.71.474.946.236.316.473.395.789.395 1.104 0 1.656-.553 1.656-1.736zm9.862 1.894c.395 0 .71-.158.789-.395.158-.237.158-.71.158-1.42V24.931l.868-1.42c.315-.473.71-1.184 1.262-2.051.237-.395.395-.632.552-.79.079-.157.158-.315.237-.394l.395 1.026c.631 1.814 2.13 6.627 4.339 14.438l2.13 7.495c.947 3.156 1.42 4.891 1.499 5.128.158.316.395.394.71.394.316 0 .552-.078.789-.236.237-.158.316-.395.316-.71 0-.08-.079-.158-.158-.395-.316-1.104-.789-2.919-1.499-5.444a938.27 938.27 0 00-2.13-7.495c-.631-2.209-1.499-4.891-2.525-7.968-1.026-3.077-1.972-5.602-2.761-7.732-.079-.237-.079-.473-.079-.71.158-.237 1.025-2.288 2.603-6.233a750.406 750.406 0 013.077-7.337l.631-1.104c.553-.868.868-1.657.947-2.446 0-.316-.079-.474-.315-.71a.898.898 0 00-.632-.237c-.631 0-2.051 2.84-4.339 8.52l-2.288 5.681a221.464 221.464 0 01-3.313 7.732h-.079l.158-7.416.157-10.178c0-1.183-.079-1.893-.236-2.209-.158-.315-.474-.394-1.105-.394-.315 0-.552.236-.71.71a16.783 16.783 0 00-.158 2.13l-.158 11.755c-.157 5.444-.157 9.389-.157 11.756v18.54c0 .71.079 1.262.236 1.5.158.315.395.473.789.473zm26.667-2.84h-3.787c-.473 0-.789 0-.789-.08-.158 0-.158-.078-.158-.157l-.394-7.574c-.237-3.866-.395-6.706-.395-8.363l-.315-10.967c-.158-3.787-.158-9.388-.158-16.962 0-.631-.395-.947-1.105-.947a.897.897 0 00-.631.237.715.715 0 00-.236.552c0 2.84.157 7.1.394 12.781.237 6.312.316 10.572.316 12.781 0 2.367.078 5.286.236 8.679.237 3.234.316 6.154.316 8.678v2.446c0 .394.079.71.237.947a.827.827 0 00.71.394c2.445 0 4.102 0 4.97-.079h.473l.395-.079c.237 0 .394-.079.552-.315.158-.237.158-.474.158-.79 0-.788-.316-1.183-.789-1.183zm7.258-10.257l-.079 8.915v.158c0 .394 0 .789.079 1.105v1.183c0 .552.158.868.553 1.104.394.158 1.104.316 2.051.316h2.603c1.499 0 2.525-.079 2.998-.237.395-.157.553-.473.553-1.183 0-.552-.395-.79-1.105-.79h-5.759v-2.287c0-3.708-.079-6.943-.158-9.783l-.158-9.073c0-.237.079-.316.237-.316h3.471c.316 0 .553-.078.71-.236.158-.158.237-.395.237-.79 0-.551-.316-.867-.947-.867-1.183 0-2.288.079-3.313.158h-.079a.17.17 0 01-.158-.158V9.783c-.079-1.578-.079-3.314-.079-5.207 0-.316.079-.473.158-.552.079-.08.316-.158.552-.158l.947.079.947.079h1.025c.316-.08.553-.158.789-.395.237-.236.395-.473.395-.789 0-.552-.237-.947-.631-1.025a4.948 4.948 0 00-1.263-.158h-3.787a.869.869 0 00-.789.473c-.236.316-.315.71-.315 1.263.079 1.893.158 4.181.158 6.785l.157 25.325zM89.546 85.602c-.473-1.184-1.183-2.683-2.05-4.419l-.632-1.34-2.21-4.577c-.71-1.499-1.261-3.156-1.656-4.891-.395-1.736-.631-3.393-.631-5.05 0-1.025.158-1.972.473-2.919a6.26 6.26 0 011.578-2.603c.71-.71 1.578-1.105 2.525-1.105.315 0 .71.08 1.104.316.395.236.79.315 1.026.315.237 0 .395-.157.395-.473 0-.395-.395-.789-1.105-1.183-.71-.395-1.341-.632-1.815-.632-1.262 0-2.445.474-3.55 1.42a9.2 9.2 0 00-2.13 3.314c-.474 1.263-.631 2.604-.631 3.945 0 2.209.315 4.181.868 6.075.394 1.42.867 2.682 1.42 3.866.552 1.183 1.34 2.84 2.366 4.891.474.947.868 1.578 1.105 2.051a27.929 27.929 0 012.288 5.918c.552 2.13.868 4.181.868 6.233 0 1.814-.395 3.944-1.263 6.311-.394 1.184-1.025 2.209-1.814 2.919-.789.789-1.657 1.105-2.525 1.105-.473 0-1.025-.158-1.656-.474-.71-.315-1.263-.473-1.736-.473-.474 0-.71.237-.71.789.236.473.63.789 1.104 1.104.474.237.868.316 1.263.395.394.079.946.079 1.735.079 1.263 0 2.367-.395 3.472-1.105 1.025-.789 1.893-1.735 2.524-2.919 1.263-2.525 1.894-4.97 1.894-7.416 0-1.815-.237-3.708-.71-5.68-.316-1.263-.71-2.604-1.184-3.787zm23.038-27.614l-6.864.08h-6.312c-1.104 0-1.893.078-2.524.157-.553.079-.868.158-1.026.315-.158.158-.158.395-.158.71 0 .316.158.553.395.71.236.158.552.237.946.237h7.101c.079 0 .158 2.288.158 6.785v4.024l-.079 1.814c0 2.21.079 5.523.158 10.02l.157 10.02v11.203c0 .473.079.868.316 1.184.237.315.552.473.947.473.315 0 .473-.079.631-.316a.714.714 0 00.237-.552c.079-.237.079-.473.079-.868v-.158l-.079-4.654V63.669l-.079-3.63.552-.078h5.602c.789 0 1.183-.316 1.183-.947 0-.395-.079-.631-.316-.79-.157-.157-.552-.236-1.025-.236zm18.067 28.955l-.789-10.414c-.316-3.866-.71-7.653-1.184-11.44-.473-3.787-.788-5.838-.946-6.233-.316-.395-.789-.631-1.42-.631-.237 0-.553.394-.947 1.104-.395.868-.631 1.657-.868 2.525-.552 1.972-.947 3.471-1.105 4.418-.394 1.657-1.183 5.76-2.287 12.15l-.395 2.051c-1.026 5.523-1.657 8.995-1.972 10.336-.237.63-.553 1.972-.947 4.102-.395 1.894-.789 3.787-1.341 5.76l-.71 3.155v.079l-.079.158c0 .316.158.552.394.789.237.237.552.316.947.316.316 0 .552-.158.631-.474l.316-1.341a228.314 228.314 0 011.657-6.943c.078-.315.236-.789.394-1.341.158-.631.316-.947.394-.947 1.342 0 3.156.237 5.286.632 2.131.394 3.235.867 3.235 1.34v8.206c0 .315.079.552.316.789.236.236.473.315.868.315.631 0 1.025-.157 1.183-.473.158-.395.158-.789.158-1.262v-.237c0-1.815-.158-4.497-.395-8.205-.236-3.787-.394-6.47-.394-8.284zm-3.156 6.233c-.158 0-.316 0-.473-.08h-.395c-2.367 0-4.497-.315-6.311-.867v-.395c0-1.104.315-2.682.946-4.733l.553-2.13c.71-3.156 1.577-7.811 2.603-14.044.316-2.21.631-4.103.947-5.76.315-1.656.631-2.919.947-3.786l.157.789c.079.473.158.71.158.71l.237 2.445c.237 1.736.394 3.393.473 4.813.316 3.393.631 7.416.947 11.913.316 4.497.473 8.048.473 10.651 0 .316-.394.474-1.262.474zm24.3 10.729l-2.919-11.282c-1.657-6.706-2.919-11.676-3.787-14.832.315-.316.631-.868 1.025-1.657.395-.789.71-1.499.947-2.13.868-2.288 1.262-4.34 1.262-6.233 0-2.445-.552-4.655-1.656-6.706-.553-1.026-1.263-1.814-2.209-2.367-.947-.552-1.973-.868-3.077-.868-.789 0-1.105.158-1.105.553v7.89c0 5.127-.079 11.36-.237 18.697l-.157 6.075-.158 12.703v.946c0 .316.079.553.315.789.237.237.474.316.789.316.789 0 1.105-.395 1.105-1.263v-.946l-.158-24.142.789-.395.631-.394c.474 1.893 1.026 4.339 1.657 7.337.473 2.604.947 4.655 1.262 6.075.553 2.683 1.42 5.996 2.604 9.862l.789 2.761c.237.868.71 1.263 1.578 1.263.315 0 .473-.158.631-.395.158-.237.237-.631.237-.947-.079-.394-.158-.631-.158-.71zm-8.442-27.77c-.789.788-1.341 1.183-1.657 1.183V59.645c.079 0 .158 0 .158-.079h.158c.71 0 1.341.316 1.972.947.552.631 1.026 1.499 1.341 2.525.553 1.814.868 3.55.868 5.285 0 .947-.079 1.973-.315 3.156-.237 1.184-.474 2.052-.789 2.604-.316.631-.947 1.262-1.736 2.051z" fill="#fff"/></svg>