<svg width="141" height="26" fill="none" xmlns="http://www.w3.org/2000/svg"><path d="M11.582 2.616c.349-.803 1.487-.803 1.835 0l2.243 5.17a1 1 0 00.822.598l5.61.535c.872.083 1.224 1.165.568 1.745l-4.225 3.73a1 1 0 00-.314.967l1.225 5.5c.19.855-.73 1.524-1.485 1.08l-4.853-2.866a1 1 0 00-1.016 0L7.139 21.94c-.754.445-1.675-.224-1.485-1.078l1.225-5.501a1 1 0 00-.314-.967l-4.225-3.73c-.656-.58-.304-1.662.567-1.745l5.61-.535a1 1 0 00.823-.598l2.242-5.17zm29.001 0c.348-.803 1.486-.803 1.834 0l2.243 5.17a1 1 0 00.822.598l5.61.535c.872.083 1.224 1.165.568 1.745l-4.225 3.73a1 1 0 00-.314.967l1.225 5.5c.19.855-.73 1.524-1.484 1.08l-4.854-2.866a1 1 0 00-1.016 0l-4.853 2.865c-.754.445-1.675-.224-1.485-1.078l1.225-5.501a1 1 0 00-.314-.967l-4.224-3.73c-.657-.58-.305-1.662.566-1.745l5.61-.535a1 1 0 00.823-.598l2.242-5.17zm28.999 0c.349-.803 1.487-.803 1.836 0l2.242 5.17a1 1 0 00.822.598l5.61.535c.872.083 1.224 1.165.567 1.745l-4.224 3.73a1 1 0 00-.314.967l1.225 5.5c.19.855-.73 1.524-1.484 1.08l-4.854-2.866a1 1 0 00-1.016 0l-4.854 2.865c-.753.445-1.674-.224-1.484-1.078l1.225-5.501a1 1 0 00-.314-.967l-4.224-3.73c-.657-.58-.305-1.662.566-1.745l5.61-.535a1 1 0 00.823-.598l2.242-5.17zm29 0c.349-.803 1.487-.803 1.835 0l2.243 5.17a1 1 0 00.822.598l5.611.535c.871.083 1.223 1.165.567 1.745l-4.225 3.73a1 1 0 00-.314.967l1.225 5.5c.19.855-.731 1.524-1.485 1.08l-4.853-2.866a1 1 0 00-1.016 0l-4.854 2.865c-.753.445-1.674-.224-1.484-1.078l1.225-5.501a1 1 0 00-.314-.967l-4.224-3.73c-.656-.58-.305-1.662.567-1.745l5.61-.535a1 1 0 00.822-.598l2.242-5.17zm29.001 0c.348-.803 1.486-.803 1.834 0l2.243 5.17a1 1 0 00.822.598l5.611.535c.871.083 1.223 1.165.567 1.745l-4.225 3.73a1 1 0 00-.314.967l1.225 5.5c.19.855-.731 1.524-1.485 1.08l-4.853-2.866a.999.999 0 00-1.016 0l-4.853 2.865c-.754.445-1.675-.224-1.485-1.078l1.225-5.501a1 1 0 00-.314-.967l-4.225-3.73c-.656-.58-.304-1.662.567-1.745l5.611-.535a.999.999 0 00.822-.598l2.243-5.17z" fill="#F3C214"/></svg>