<svg width="68" height="72" fill="none" xmlns="http://www.w3.org/2000/svg"><path d="M38.371 11.076v11.078L57.557 33.23V22.154L38.37 11.076zM0 22.154V33.23l9.593 5.538V27.692L0 22.154zm28.778 5.538l-9.593 5.54v33.23L28.778 72V49.846l9.593 5.539V44.307l-9.593-5.538V27.692z" fill="#E55B2D"/><path d="M38.371 11.076L9.593 27.692V38.77l19.185-11.077V38.77l9.593-5.538V11.076zm28.78 5.539l-9.594 5.539V33.23l9.593-5.539V16.615zM47.963 38.769l-9.593 5.538v11.078l9.593-5.539V38.77zM38.37 55.385l-9.593-5.539V72l9.593-5.539V55.385z" fill="#ED8E24"/><path d="M38.371 0L0 22.154l9.593 5.538 28.779-16.616 19.185 11.078 9.593-5.539L38.371 0zm0 33.231l-9.593 5.538 9.593 5.538 9.593-5.538-9.593-5.538z" fill="#F8BF3C"/></svg>