<svg width="87" height="22" fill="none" xmlns="http://www.w3.org/2000/svg"><path d="M6.728 21.378a7.047 7.047 0 01-2.856-.588 6.918 6.918 0 01-2.338-1.666A6.441 6.441 0 01.12 16.576l3.262-.882c.233.803.658 1.423 1.274 1.862.625.43 1.311.64 2.058.63.663 0 1.255-.154 1.778-.462a3.357 3.357 0 001.232-1.246 3.568 3.568 0 00.448-1.778c0-.999-.322-1.834-.966-2.506-.644-.672-1.475-1.008-2.492-1.008-.308 0-.611.042-.91.126-.29.084-.57.2-.84.35l-1.54-2.66L10.2 3.206l.294.812H.904V.84h12.362v3.192L7.82 9.268l-.028-.994c1.223.084 2.263.425 3.122 1.022a5.871 5.871 0 011.988 2.31c.467.943.7 1.974.7 3.094 0 1.27-.313 2.408-.938 3.416a6.743 6.743 0 01-2.492 2.394c-1.036.578-2.184.868-3.444.868z" fill="url(#paint0_linear)"/><path d="M17.23 21V.84h6.425c.168 0 .5.005.994.014.505.01.99.042 1.456.098 1.596.205 2.945.775 4.046 1.708 1.111.924 1.951 2.105 2.52 3.542.57 1.437.855 3.01.855 4.718 0 1.708-.285 3.28-.855 4.718-.569 1.437-1.409 2.623-2.52 3.556-1.1.924-2.45 1.489-4.046 1.694a14.19 14.19 0 01-1.442.098 67.1 67.1 0 01-1.008.014H17.23zm3.43-3.178h2.995c.28 0 .635-.01 1.064-.028a7.84 7.84 0 001.162-.126c.953-.177 1.727-.602 2.325-1.274.597-.672 1.035-1.489 1.316-2.45.289-.962.434-1.97.434-3.024 0-1.092-.145-2.119-.434-3.08-.29-.961-.738-1.769-1.345-2.422-.597-.653-1.362-1.069-2.296-1.246a5.983 5.983 0 00-1.162-.126 25.36 25.36 0 00-1.064-.028H20.66v13.804z" fill="url(#paint1_linear)"/><path d="M36.835 21V.84h6.426c.168 0 .5.005.994.014.504.01.99.042 1.456.098 1.596.205 2.945.775 4.046 1.708 1.11.924 1.95 2.105 2.52 3.542.57 1.437.854 3.01.854 4.718 0 1.708-.285 3.28-.854 4.718-.57 1.437-1.41 2.623-2.52 3.556-1.101.924-2.45 1.489-4.046 1.694a14.19 14.19 0 01-1.442.098 67.1 67.1 0 01-1.008.014h-6.426zm3.43-3.178h2.996c.28 0 .635-.01 1.064-.028.439-.019.826-.06 1.162-.126.952-.177 1.727-.602 2.324-1.274.597-.672 1.036-1.489 1.316-2.45.29-.962.434-1.97.434-3.024 0-1.092-.145-2.119-.434-3.08-.29-.961-.737-1.769-1.344-2.422-.597-.653-1.363-1.069-2.296-1.246a5.983 5.983 0 00-1.162-.126 25.36 25.36 0 00-1.064-.028h-2.996v13.804z" fill="url(#paint2_linear)"/><path d="M56.44 21V.84h12.14v3.374h-8.764V9.24H66.9v3.36h-7.084V21H56.44z" fill="url(#paint3_linear)"/><path d="M69.423 21L75.78.84h4.942L87.077 21h-3.472L77.837 2.912h.756L72.895 21h-3.472zm3.542-4.368v-3.15H83.55v3.15H72.965z" fill="url(#paint4_linear)"/><defs><linearGradient id="paint0_linear" x1=".12" y1=".84" x2="88.241" y2="9.415" gradientUnits="userSpaceOnUse"><stop stop-color="#7D6DFF"/><stop offset="1" stop-color="#59C3FF"/></linearGradient><linearGradient id="paint1_linear" x1=".12" y1=".84" x2="88.241" y2="9.415" gradientUnits="userSpaceOnUse"><stop stop-color="#7D6DFF"/><stop offset="1" stop-color="#59C3FF"/></linearGradient><linearGradient id="paint2_linear" x1=".12" y1=".84" x2="88.241" y2="9.415" gradientUnits="userSpaceOnUse"><stop stop-color="#7D6DFF"/><stop offset="1" stop-color="#59C3FF"/></linearGradient><linearGradient id="paint3_linear" x1=".12" y1=".84" x2="88.241" y2="9.415" gradientUnits="userSpaceOnUse"><stop stop-color="#7D6DFF"/><stop offset="1" stop-color="#59C3FF"/></linearGradient><linearGradient id="paint4_linear" x1=".12" y1=".84" x2="88.241" y2="9.415" gradientUnits="userSpaceOnUse"><stop stop-color="#7D6DFF"/><stop offset="1" stop-color="#59C3FF"/></linearGradient></defs></svg>