<svg width="40" height="72" fill="none" xmlns="http://www.w3.org/2000/svg"><path d="M3.027.006C2.017.024 1.007.084 0 .162v71.68c2.498.244 5.021.199 7.514-.09.664-2.805 1.35-5.605 2.034-8.405a29.467 29.467 0 009.596-3.923c2.458 1.495 4.916 2.992 7.374 4.486a36.501 36.501 0 005.292-5.077c-1.502-2.478-3.011-4.952-4.519-7.428 1.877-2.956 3.278-6.252 3.956-9.698 2.816-.68 5.631-1.364 8.447-2.044a41.333 41.333 0 00-.075-7.342c-2.796-.68-5.593-1.356-8.389-2.035-.697-3.44-2.025-6.766-3.95-9.698 1.509-2.473 3.018-4.946 4.53-7.417a35.263 35.263 0 00-5.211-5.136c-2.493 1.515-4.985 3.034-7.477 4.551a28.753 28.753 0 00-9.596-4.009L7.482.151C6 .01 4.513-.014 3.027.006zm6.698 16.799c8.811 2.645 15.169 11.91 14.06 21.112-.755 7.833-6.432 15.106-14.076 17.245-.084-2.41.011-4.846-.034-7.267l-.01-31.107.06.017z" fill="green"/></svg>