<svg width="60" height="72" fill="none" xmlns="http://www.w3.org/2000/svg"><g clip-path="url(#clip0)" fill="#EE4C2C"><path d="M50.816 20.92l-5.346 5.346c8.778 8.777 8.778 22.9 0 31.545-8.777 8.778-22.9 8.778-31.545 0-8.777-8.777-8.777-22.9 0-31.545L27.85 12.341l1.98-1.98V-.132L8.843 20.854c-11.68 11.681-11.68 30.556 0 42.237 11.681 11.681 30.556 11.681 42.039 0 11.615-11.681 11.615-30.424-.066-42.17z"/><path d="M40.323 19.667a3.894 3.894 0 100-7.788 3.894 3.894 0 000 7.788z"/></g><defs><clipPath id="clip0"><path fill="#fff" d="M0 0h59.593v72H0z"/></clipPath></defs></svg>