<svg width="86" height="22" fill="none" xmlns="http://www.w3.org/2000/svg"><path d="M.03 21V.12h8.628c.203 0 .464.01.783.03.319.009.613.038.884.086 1.208.184 2.204.585 2.987 1.204a5.508 5.508 0 011.755 2.349c.386.937.58 1.981.58 3.132 0 1.14-.194 2.184-.58 3.132a5.635 5.635 0 01-1.77 2.334c-.783.619-1.773 1.02-2.972 1.204a10.9 10.9 0 01-.899.087c-.319.019-.575.029-.768.029H3.525V21H.03zm3.495-10.556h4.988c.193 0 .41-.01.652-.029.242-.02.464-.058.667-.116.58-.145 1.034-.401 1.363-.768.338-.368.575-.783.71-1.247.146-.464.218-.919.218-1.363 0-.445-.072-.9-.217-1.363a3.092 3.092 0 00-.711-1.262c-.329-.367-.783-.623-1.363-.768a2.837 2.837 0 00-.667-.102 8.256 8.256 0 00-.652-.029H3.525v7.047z" fill="url(#paint0_linear)"/><path d="M18.552 21V.12h8.627c.203 0 .464.01.783.03.319.009.614.038.884.086 1.209.184 2.204.585 2.988 1.204a5.508 5.508 0 011.754 2.349c.387.937.58 1.981.58 3.132 0 1.7-.43 3.165-1.29 4.393-.86 1.218-2.18 1.972-3.959 2.262l-1.494.13h-5.379V21h-3.494zm11.991 0l-4.118-8.497 3.552-.783L34.502 21h-3.958zm-8.497-10.556h4.988c.193 0 .41-.01.652-.029.242-.02.465-.058.668-.116.58-.145 1.034-.401 1.363-.768.338-.368.575-.783.71-1.247a4.56 4.56 0 00.218-1.363c0-.445-.073-.9-.218-1.363a3.093 3.093 0 00-.71-1.262c-.33-.367-.784-.623-1.363-.768a2.837 2.837 0 00-.668-.102 8.258 8.258 0 00-.652-.029h-4.988v7.047z" fill="url(#paint1_linear)"/><path d="M37.696 21V.12h3.538l9.686 14.718V.12h3.538V21H50.92L41.234 6.283V21h-3.538z" fill="url(#paint2_linear)"/><path d="M65.631 21.435c-1.585 0-2.977-.343-4.176-1.03a7.33 7.33 0 01-2.813-2.856c-.667-1.218-1-2.62-1-4.205 0-1.71.328-3.195.985-4.451.658-1.267 1.571-2.248 2.741-2.944 1.17-.696 2.523-1.044 4.06-1.044 1.624 0 3.002.382 4.133 1.146 1.14.754 1.986 1.822 2.537 3.204.551 1.382.759 3.011.624 4.887h-3.466v-1.276c-.01-1.702-.31-2.944-.899-3.727-.59-.783-1.518-1.174-2.784-1.174-1.43 0-2.494.444-3.19 1.334-.696.88-1.044 2.17-1.044 3.871 0 1.585.348 2.813 1.044 3.683.696.87 1.711 1.305 3.045 1.305.86 0 1.6-.188 2.219-.565.628-.387 1.111-.943 1.45-1.668l3.45 1.044c-.599 1.412-1.527 2.509-2.784 3.292-1.247.783-2.624 1.174-4.132 1.174zm-5.394-7.293v-2.64H71.01v2.64H60.237z" fill="url(#paint3_linear)"/><path d="M85.135 21a14.231 14.231 0 01-3.045.247c-.986-.02-1.87-.198-2.653-.537a3.677 3.677 0 01-1.784-1.638 4.669 4.669 0 01-.565-2.074 88.366 88.366 0 01-.03-2.392V.99h3.48v13.413c0 .628.006 1.179.015 1.653.02.473.121.86.305 1.16.348.58.904.903 1.667.971.764.068 1.634.03 2.61-.116v2.93zM74.217 8.08V5.34h10.918v2.74H74.217z" fill="url(#paint4_linear)"/><defs><linearGradient id="paint0_linear" x1=".03" y1=".12" x2="86.364" y2="8.043" gradientUnits="userSpaceOnUse"><stop stop-color="#7D6DFF"/><stop offset="1" stop-color="#59C3FF"/></linearGradient><linearGradient id="paint1_linear" x1=".03" y1=".12" x2="86.364" y2="8.043" gradientUnits="userSpaceOnUse"><stop stop-color="#7D6DFF"/><stop offset="1" stop-color="#59C3FF"/></linearGradient><linearGradient id="paint2_linear" x1=".03" y1=".12" x2="86.364" y2="8.043" gradientUnits="userSpaceOnUse"><stop stop-color="#7D6DFF"/><stop offset="1" stop-color="#59C3FF"/></linearGradient><linearGradient id="paint3_linear" x1=".03" y1=".12" x2="86.364" y2="8.043" gradientUnits="userSpaceOnUse"><stop stop-color="#7D6DFF"/><stop offset="1" stop-color="#59C3FF"/></linearGradient><linearGradient id="paint4_linear" x1=".03" y1=".12" x2="86.364" y2="8.043" gradientUnits="userSpaceOnUse"><stop stop-color="#7D6DFF"/><stop offset="1" stop-color="#59C3FF"/></linearGradient></defs></svg>