<svg width="53" height="72" fill="none" xmlns="http://www.w3.org/2000/svg"><g clip-path="url(#clip0)"><path d="M.451 57.772L9.184 1.89a1.613 1.613 0 013.016-.513l9.032 16.846 3.6-6.854a1.613 1.613 0 012.855 0L52.06 57.772H.45z" fill="#FFA000"/><path d="M30.622 36.004l-9.394-17.789L.45 57.773l30.171-21.769z" fill="#F57C00"/><path d="M52.06 57.773L45.371 16.38a1.615 1.615 0 00-2.73-.872L.452 57.772l23.345 13.092a4.838 4.838 0 004.718 0L52.06 57.772z" fill="#FFCA28"/><path d="M45.371 16.38a1.615 1.615 0 00-2.73-.871l-8.373 8.395-6.585-12.536a1.613 1.613 0 00-2.855 0l-3.6 6.855-9.032-16.845a1.613 1.613 0 00-3.016.516L.451 57.773H.423l.028.032.23.113L42.629 15.92a1.613 1.613 0 012.734.87l6.633 41.022.064-.04-6.689-41.393zM.528 57.697L9.184 2.289a1.613 1.613 0 013.017-.516l9.03 16.845 3.6-6.854a1.613 1.613 0 012.856 0l6.45 12.27L.528 57.695z" fill="#fff" fill-opacity=".2"/><path opacity=".2" d="M28.514 70.47a4.838 4.838 0 01-4.718 0L.508 57.413l-.057.359L23.796 70.86a4.838 4.838 0 004.718 0L52.06 57.773l-.06-.371-23.486 13.067z" fill="#A52714"/><path d="M45.304 16.39a1.604 1.604 0 00-2.72-.87l-8.345 8.39-6.561-12.53a1.607 1.607 0 00-2.845 0l-3.588 6.851-9-16.838a1.605 1.605 0 00-3.005.516L.541 57.763l23.264 13.082c1.46.818 3.24.818 4.7 0L51.97 57.763 45.304 16.39z" fill="url(#paint0_linear)"/></g><defs><linearGradient id="paint0_linear" x1="-1.253" y1="12.612" x2="62.925" y2="46.465" gradientUnits="userSpaceOnUse"><stop stop-color="#fff" stop-opacity=".1"/><stop offset=".14" stop-color="#fff" stop-opacity=".08"/><stop offset=".61" stop-color="#fff" stop-opacity=".02"/><stop offset="1" stop-color="#fff" stop-opacity="0"/></linearGradient><clipPath id="clip0"><path fill="#fff" d="M0 0h52.511v72H0z"/></clipPath></defs></svg>