<svg width="40" height="40" fill="none" xmlns="http://www.w3.org/2000/svg"><path d="M25.938 7.188a6.875 6.875 0 016.875 6.875v11.874a6.875 6.875 0 01-6.876 6.875H14.063a6.875 6.875 0 01-6.874-6.874V14.063a6.875 6.875 0 016.875-6.876h11.874zm0-2.5H14.063a9.403 9.403 0 00-9.376 9.375v11.874a9.403 9.403 0 009.375 9.375h11.876a9.403 9.403 0 009.375-9.374V14.063a9.403 9.403 0 00-9.376-9.376z" fill="#fff"/><path d="M28.169 10a1.79 1.79 0 100 3.58 1.79 1.79 0 000-3.58zm-8.085 4.522a5.525 5.525 0 11-5.521 5.522 5.531 5.531 0 015.521-5.522zm0-2.5a8.024 8.024 0 10.031 16.049 8.024 8.024 0 00-.03-16.049z" fill="#fff"/></svg>