<svg width="32" height="32" fill="none" xmlns="http://www.w3.org/2000/svg"><g clip-path="url(#clip0)"><path fill-rule="evenodd" clip-rule="evenodd" d="M23.33 19.19c-.397-.199-2.354-1.162-2.72-1.295-.364-.133-.63-.2-.895.2-.265.398-1.029 1.295-1.26 1.56-.233.266-.465.3-.863.1-.398-.2-1.681-.62-3.202-1.976-1.183-1.056-1.982-2.36-2.215-2.758-.232-.399-.024-.614.175-.813.18-.178.398-.465.597-.697.2-.232.266-.399.398-.664.133-.266.067-.498-.033-.698-.1-.199-.896-2.158-1.227-2.956-.324-.776-.652-.67-.896-.683a16.017 16.017 0 00-.763-.014c-.265 0-.697.1-1.062.498-.365.399-1.393 1.362-1.393 3.321 0 1.96 1.426 3.853 1.626 4.119.199.265 2.807 4.287 6.8 6.011.95.41 1.692.655 2.27.839.954.303 1.822.26 2.508.157.764-.114 2.355-.963 2.687-1.892.331-.93.331-1.728.232-1.894-.1-.166-.365-.265-.763-.465zm-7.263 9.919h-.005a13.223 13.223 0 01-6.74-1.846l-.484-.287-5.012 1.314 1.337-4.886-.315-.502a13.21 13.21 0 01-2.024-7.047C2.827 8.553 8.767 2.613 16.072 2.613a13.153 13.153 0 019.363 3.884 13.163 13.163 0 013.875 9.369c-.003 7.302-5.944 13.243-13.243 13.243zm11.27-24.514a15.83 15.83 0 00-11.27-4.673C7.285-.078.137 7.069.133 15.854a15.904 15.904 0 002.127 7.965L0 32.076l8.446-2.216a15.92 15.92 0 007.614 1.94h.007c8.781 0 15.93-7.149 15.933-15.933a15.838 15.838 0 00-4.662-11.272z" fill="#fff"/></g><defs><clipPath id="clip0"><path fill="#fff" d="M0 0h32v32H0z"/></clipPath></defs></svg>