<svg width="81" height="64" fill="none" xmlns="http://www.w3.org/2000/svg"><g clip-path="url(#clip0)" fill="#fff"><path d="M30.927 44.644a.841.841 0 00.253-.715c0-.21-.127-.42-.253-.547l5.89-10.267.043-.042c.21-.379.168-.884-.126-1.22a1.143 1.143 0 00-1.22-.421l-11.53 3.03a1.026 1.026 0 00-.883-.506c-.127 0-.21.042-.337.085l-7.995-8.752-.042-.043s-.042 0-.042-.042c-.21-.21-.757-.841-.757-1.977V3.787l-.042-1.894.294-.042h2.904c.42 0 .63-.168.63-.505 0-.21-.041-.336-.168-.42C17.462.84 17.252.799 17 .799l-3.534.042h-3.282a9.59 9.59 0 00-1.305.085c-.294.042-.462.084-.505.168-.084.084-.084.168-.084.379 0 .168.084.252.21.378a.848.848 0 00.464.126h3.66c.042 0 .084 1.179.084 3.535v2.104l-.042.968c0 1.136.042 2.903.085 5.217l.084 5.218v5.723l-.085 1.178v.084l-.042 1.178-.589 11.15v.043a.535.535 0 01-.294.378L.674 43.845l-.043.042A1.24 1.24 0 000 44.939c0 .462.295.883.757 1.052l11.193 4.291a.949.949 0 00.547.758l1.347 11.908v.042c.084.42.378.8.799.926.126.042.294.042.463.042.294-.042.589-.169.8-.421l7.657-9.341h.21c.253 0 .506-.169.632-.337l11.782 2.44h.042c.42.043.883-.126 1.094-.504a1.146 1.146 0 000-1.263l-6.396-9.888zm5.344-12.37a.448.448 0 01.042.504l-5.933 10.31h-.126a.965.965 0 00-.8.63l-8.794-1.683v-.042c0-.042 0-.126-.042-.168l15.653-9.552zm-13.17 3.45h.168c.379-.042.715-.295.8-.673l11.613-3.03h.084l-15.4 9.425c0-.042-.043-.042-.085-.084l2.82-5.638zm-.8-.842a.992.992 0 00.379.673l-2.777 5.597c-.084-.042-.169-.042-.295-.042h-.042l-3.282-9.09 6.017 2.736v.126zm-8.878-8.878c0-.126.084-.21.126-.295l2.146 5.933-2.903 5.891.63-11.53zm2.524 6.227l3.283 9.047c-.085.042-.169.126-.253.21l-6.228-2.735 3.198-6.522zm6.102 1.978l-5.933-2.735-2.146-5.891c.126 0 .252.084.336.168l7.743 8.458zM.673 44.812v-.042c.042-.168.126-.252.295-.336l11.15-5.092.085-.042c.084-.042.21-.126.252-.21l6.354 2.82v.083L.673 44.813zm12.119 4.46c-.253 0-.505.169-.632.337L.968 45.401l-.042-.042c-.042-.042-.084-.042-.127-.084l18.094-2.819c.042.042.084.126.126.168l-5.807 6.733a1.498 1.498 0 00-.42-.084zM15.4 63.117a.551.551 0 01-.547.169c-.21-.043-.336-.21-.378-.421l-.253-2.314 4.124-.968-2.946 3.534zm-1.22-3.03l-1.01-8.878 5.554 7.785-4.544 1.094zm4.84-1.388l-5.555-7.826a.58.58 0 00.126-.169l9.215 2.651v.042c0 .169.084.337.21.505l-3.997 4.797zm3.87-5.765l-9.13-2.65v-.169a.697.697 0 00-.211-.505l5.765-6.774c.126.084.294.084.462.084l3.45 9.594c-.125.126-.252.252-.336.42zm1.262-.42a.848.848 0 00-.462-.127l-3.493-9.593c.127-.084.253-.21.295-.337l8.878 1.725c.042.169.084.295.168.379l-5.386 7.953zm.463.715v-.042c0-.126-.084-.253-.126-.337l5.47-7.994c.042 0 .042.042.084.042l.8 9.635-6.228-1.304zm5.85-8.037l4.796 7.28-3.997 2.104-.8-9.384zm6.395 10.267c-.126.168-.337.253-.505.21l-4.46-.925 3.66-1.894 1.347 2.062.042.042a.574.574 0 01-.084.505z"/><path d="M20.45 6.143c.42 3.408.757 5.849.925 7.322.21 1.893.421 3.576.632 5.091.042.379.126.968.294 1.81l.59 3.955v.168c0 .126 0 .252-.043.337v.378c0 .463.21.716.631.716.379 0 .547-.421.547-1.263v-.589l1.641-17.84v-.043l.042-.042.085.084c1.052 8.584 1.809 14.56 2.356 17.925l.042.505c.042.463.084.8.126.926.084.253.253.379.631.379.253 0 .38-.084.463-.21.084-.127.127-.337.127-.59l.168-1.683.378-3.282.253-2.567.673-6.774c.337-3.83.631-6.69.884-8.668.042-.084.042-.168.084-.295V1.43c0-.084 0-.168-.042-.168.252-.21.379-.42.379-.631 0-.126-.085-.252-.21-.379a.603.603 0 00-.422-.168c-.294 0-.505.042-.673.168-.126.127-.21.337-.21.59v.294l.042.337c0 1.136-.126 2.608-.337 4.418-.252 1.767-.378 3.113-.42 3.913l-1.22 13.254-.085-.084c-.168-1.557-.589-4.755-1.304-9.594-.716-4.838-1.178-7.868-1.389-9.004l-.084-.295c0-.126 0-.21-.042-.294a.918.918 0 00-.126-.21c-.042-.127-.253-.211-.547-.211-.085.042-.127.084-.127.126-.042.042-.042.084-.042.084l-.042.421c-.042.084-.042.21-.042.421 0 .168-.042.42-.042.673l-.084 1.515-.42 2.65c-.211 1.263-.337 2.231-.38 2.862-.042.168-.126 1.6-.252 4.376l-.084.968c-.21 2.82-.337 4.544-.379 5.218h-.084c-.757-6.228-1.43-12.876-2.104-19.987v-1.01c0-.295-.042-.463-.168-.59-.126-.125-.337-.167-.673-.167a.678.678 0 00-.38.126.983.983 0 00-.294.294c.169.253.379 1.6.716 4.04l.042.757zm19.271 18.22h-1.178c0-.295 0-.59.042-.884v-.925c0-2.104-.126-5.513-.379-10.31-.294-5.175-.42-8.583-.42-10.308l.084-.127c.042-.042.168-.084.379-.084h.715c.126.042.252.042.379.042.126 0 .21-.042.294-.168.084-.126.084-.21.084-.379 0-.168-.042-.252-.168-.336a.71.71 0 00-.42-.127c-.506 0-.927 0-1.263-.042h-.926c-.673 0-1.052.042-1.22.084-.168.127-.253.253-.253.463 0 .295.127.463.337.463h1.136c.042.295.084 1.01.084 2.104v2.146l-.042 1.683c.084 1.725.169 4.124.253 7.195.168 3.83.21 6.985.21 9.468h-1.262c-.379 0-.547.126-.547.42 0 .127.042.253.168.38a.54.54 0 00.42.168c.8 0 1.474 0 1.978.042h1.768c.126 0 .21-.042.294-.169.084-.126.169-.252.169-.378.042-.295-.21-.421-.716-.421zm12.455.547l.084-2.567c.084-1.178.084-2.02.084-2.567 0-2.861 0-5.428.043-7.7.042-2.272.042-4.839.042-7.742V1.725c.042-.168.042-.42.042-.673 0-.631-.084-.968-.253-.968-.336 0-.589.168-.673.463l.042 4.628V7.7c-.042.757-.042 1.599-.042 2.567l-.084 5.68a221.918 221.918 0 00-.084 5.68c0 .716-.084 1.263-.21 1.558-.506-1.431-1.053-3.493-1.684-6.228-1.094-4.123-1.893-7.069-2.356-8.878-.21-.8-.463-1.936-.8-3.45l-.673-3.199c-.042-.168-.168-.294-.294-.42-.169-.127-.295-.21-.421-.21-.295 0-.547.041-.673.168-.127.084-.21.294-.21.547v.336c.041.126.041.21.041.379 0 1.136 0 2.146.042 3.072v7.405l.084 5.68.043 5.681c0 .673-.042 1.094-.084 1.305l.084.252h.757l.21-.252-.084-4.629-.126-4.839V4.081c0-.757 0-1.22.042-1.346.715 3.576 1.136 5.764 1.347 6.522.252 1.052 1.599 5.975 4.039 14.727 0 .084.042.21.084.505l.084.631a.96.96 0 00.253.505c.126.168.252.21.42.21.59 0 .884-.294.884-.925zm5.26 1.01c.21 0 .379-.084.42-.21.085-.127.085-.38.085-.758V13.296l.463-.757c.168-.252.378-.631.673-1.094.126-.21.21-.337.294-.42.043-.085.085-.169.127-.211l.21.547c.337.968 1.136 3.534 2.314 7.7l1.136 3.997c.505 1.684.758 2.61.8 2.736.084.168.21.21.379.21a.71.71 0 00.42-.126c.127-.084.169-.21.169-.379 0-.042-.042-.084-.084-.21-.169-.59-.421-1.557-.8-2.904a500.144 500.144 0 00-1.136-3.997c-.337-1.178-.8-2.609-1.346-4.25-.547-1.641-1.052-2.987-1.473-4.123-.042-.127-.042-.253-.042-.38.084-.125.547-1.22 1.388-3.323a389 389 0 011.641-3.914l.337-.589c.294-.463.463-.883.505-1.304 0-.168-.042-.253-.168-.379A.478.478 0 0063.41 0c-.337 0-1.094 1.515-2.314 4.544l-1.22 3.03a118.336 118.336 0 01-1.768 4.124h-.042l.084-3.956.084-5.428c0-.63-.042-1.01-.126-1.178-.084-.168-.252-.21-.589-.21-.168 0-.295.126-.379.378a8.958 8.958 0 00-.084 1.137l-.084 6.27c-.084 2.902-.084 5.006-.084 6.269v9.888c0 .379.042.673.126.8.084.168.21.252.42.252zm14.222-1.515h-2.02c-.252 0-.42 0-.42-.042-.085 0-.085-.042-.085-.084l-.21-4.04c-.126-2.061-.21-3.576-.21-4.46l-.169-5.848c-.084-2.02-.084-5.008-.084-9.047 0-.337-.21-.505-.589-.505a.478.478 0 00-.337.126.382.382 0 00-.126.295c0 1.514.084 3.787.21 6.816.127 3.367.169 5.639.169 6.817 0 1.262.042 2.819.126 4.628.126 1.726.169 3.282.169 4.629v1.304c0 .21.042.379.126.505.084.127.21.21.378.21 1.305 0 2.189 0 2.651-.041h.253l.21-.043c.126 0 .21-.042.295-.168.084-.126.084-.252.084-.42 0-.421-.168-.632-.42-.632zm3.872-5.47l-.043 4.755v.084c0 .21 0 .42.042.59v.63c0 .295.084.463.295.59.21.084.589.168 1.094.168h1.388c.8 0 1.347-.042 1.6-.127.21-.084.294-.252.294-.63 0-.295-.21-.422-.59-.422h-3.07v-1.22c0-1.977-.042-3.703-.084-5.217l-.084-4.84c0-.126.042-.168.126-.168h1.852c.168 0 .294-.042.378-.126.084-.084.126-.21.126-.42 0-.295-.168-.464-.504-.464-.632 0-1.22.043-1.768.085h-.042a.09.09 0 01-.084-.085v-6.9c-.042-.842-.042-1.767-.042-2.777 0-.169.042-.253.084-.295.042-.042.168-.084.295-.084l.504.042.505.042h.547c.169-.042.295-.084.421-.21s.21-.253.21-.421c0-.295-.126-.505-.336-.547a2.637 2.637 0 00-.673-.084h-2.02a.463.463 0 00-.42.252c-.127.169-.169.379-.169.674.042 1.01.084 2.23.084 3.618l.084 13.507zM47.758 45.654c-.252-.631-.631-1.43-1.094-2.356l-.337-.716-1.178-2.44c-.378-.8-.673-1.683-.883-2.609-.21-.926-.337-1.81-.337-2.693 0-.547.084-1.052.252-1.557.169-.547.463-1.01.842-1.388.379-.38.842-.59 1.346-.59.169 0 .38.043.59.169.21.126.42.168.547.168.126 0 .21-.084.21-.252 0-.21-.21-.421-.59-.631-.378-.21-.714-.337-.967-.337-.673 0-1.304.252-1.893.757a4.907 4.907 0 00-1.136 1.768c-.253.673-.337 1.388-.337 2.103 0 1.179.168 2.23.463 3.24.21.758.463 1.431.757 2.062a105.8 105.8 0 001.263 2.609c.252.505.462.842.589 1.094.505.968.925 2.02 1.22 3.156.294 1.136.463 2.23.463 3.324 0 .968-.21 2.104-.674 3.366-.21.631-.547 1.178-.967 1.557-.421.42-.884.59-1.347.59-.252 0-.547-.085-.884-.253-.378-.169-.673-.253-.925-.253-.253 0-.379.126-.379.421.126.252.337.42.59.589.252.126.462.168.672.21.21.042.505.042.926.042.673 0 1.262-.21 1.852-.589a4.815 4.815 0 001.346-1.556c.673-1.347 1.01-2.651 1.01-3.956 0-.968-.126-1.977-.379-3.03a16.09 16.09 0 00-.63-2.019zm12.287-14.727l-3.661.042h-3.366c-.59 0-1.01.042-1.347.084-.294.042-.463.084-.547.168-.084.084-.084.21-.084.379 0 .168.084.294.21.379.127.084.295.126.505.126h3.787c.042 0 .085 1.22.085 3.619v2.146l-.043.967c0 1.178.043 2.946.085 5.344l.084 5.344V55.5c0 .252.042.463.168.631a.6.6 0 00.505.253c.168 0 .252-.042.337-.169a.382.382 0 00.126-.294c.042-.126.042-.253.042-.463v-.084l-.042-2.483V33.956l-.042-1.935.294-.042h2.988c.42 0 .631-.169.631-.505 0-.21-.042-.337-.168-.421-.084-.084-.295-.126-.547-.126zM69.68 46.37l-.42-5.555a142.388 142.388 0 00-.632-6.101c-.252-2.02-.42-3.114-.504-3.324-.169-.21-.421-.337-.758-.337-.126 0-.294.21-.505.59a8.51 8.51 0 00-.463 1.346c-.294 1.052-.504 1.851-.589 2.356-.21.884-.63 3.072-1.22 6.48l-.21 1.094c-.547 2.946-.884 4.797-1.052 5.512-.127.337-.295 1.052-.505 2.188-.21 1.01-.421 2.02-.716 3.072l-.378 1.683v.042l-.042.084c0 .169.084.295.21.421s.295.168.505.168c.168 0 .295-.084.337-.252l.168-.715c.294-1.305.59-2.567.884-3.703.042-.168.126-.421.21-.715.084-.337.168-.505.21-.505.716 0 1.684.126 2.82.336 1.136.21 1.725.463 1.725.716v4.376a.54.54 0 00.168.42c.126.127.252.169.463.169.337 0 .547-.084.631-.253.084-.21.084-.42.084-.673v-.126c0-.968-.084-2.399-.21-4.376-.126-2.02-.21-3.45-.21-4.418zm-1.683 3.324c-.084 0-.168 0-.252-.043h-.21c-1.263 0-2.399-.168-3.367-.462v-.21c0-.59.169-1.431.505-2.525l.295-1.136c.379-1.684.841-4.166 1.388-7.49.169-1.178.337-2.188.505-3.072.169-.884.337-1.557.505-2.02l.084.421c.042.253.084.379.084.379l.127 1.304c.126.926.21 1.81.252 2.567.169 1.81.337 3.955.505 6.354.168 2.398.253 4.292.253 5.68 0 .168-.21.253-.674.253zm12.96 5.722L79.4 49.4c-.883-3.577-1.556-6.227-2.02-7.91.169-.169.337-.463.548-.884.21-.421.378-.8.505-1.136.462-1.22.673-2.315.673-3.325 0-1.304-.295-2.482-.884-3.576-.294-.547-.673-.968-1.178-1.262a3.221 3.221 0 00-1.641-.463c-.42 0-.59.084-.59.294v4.208c0 2.735-.041 6.06-.125 9.973l-.085 3.24-.084 6.774v.505a.54.54 0 00.169.42.54.54 0 00.42.169c.421 0 .59-.21.59-.673v-.505l-.085-12.876.421-.21.337-.21c.252 1.01.547 2.314.883 3.913.253 1.388.505 2.482.674 3.24.294 1.43.757 3.197 1.388 5.26l.421 1.472c.126.463.379.673.842.673.168 0 .252-.084.336-.21.084-.127.126-.337.126-.505-.042-.21-.084-.337-.084-.379zm-4.502-14.811c-.42.42-.715.63-.884.63v-9.424c.042 0 .084 0 .084-.043h.085c.378 0 .715.169 1.052.505.294.337.546.8.715 1.347.294.968.463 1.893.463 2.82a8.43 8.43 0 01-.169 1.682c-.126.631-.252 1.094-.42 1.389-.169.336-.505.673-.926 1.094z"/></g><defs><clipPath id="clip0"><path fill="#fff" d="M0 0h80.999v64H0z"/></clipPath></defs></svg>