<svg width="1016" height="316" fill="none" xmlns="http://www.w3.org/2000/svg"><path d="M458.049 229.117c1.646 0 2.965-.838 3.621-2.385l-1.377-.562c-.445 1.113-1.178 1.535-2.244 1.535-1.776 0-2.531-1.26-2.531-2.906 0-1.535.755-2.795 2.507-2.795 1.079 0 1.934.422 2.245 1.512l1.388-.551c-.668-1.547-1.98-2.379-3.621-2.379-2.725 0-3.996 2.004-3.996 4.271 0 2.274 1.283 4.26 4.008 4.26zm4.646-.117h1.453v-2.965c0-.973.434-1.717 1.348-1.717.861 0 1.055.627 1.055 1.348V229h1.453v-3.516c0-1.224-.627-2.461-2.162-2.461-.574 0-1.225.229-1.694.803v-3.105h-1.453V229zm9.293.117c1.811 0 3-1.4 3-3.058 0-1.653-1.189-3.036-3-3.036-1.81 0-3 1.383-3 3.036 0 1.658 1.19 3.058 3 3.058zm0-1.23c-1.078 0-1.511-.867-1.511-1.828 0-.961.433-1.799 1.511-1.799 1.084 0 1.512.838 1.512 1.799s-.428 1.828-1.512 1.828zm6.61 1.23c1.81 0 3-1.4 3-3.058 0-1.653-1.19-3.036-3-3.036-1.811 0-3 1.383-3 3.036 0 1.658 1.189 3.058 3 3.058zm0-1.23c-1.078 0-1.512-.867-1.512-1.828 0-.961.434-1.799 1.512-1.799 1.084 0 1.511.838 1.511 1.799s-.427 1.828-1.511 1.828zm5.923 1.23c1.108 0 2.286-.597 2.286-1.951 0-2.15-2.977-1.623-2.977-2.508 0-.275.287-.504.756-.504.633 0 .961.381 1.16.744l1.108-.603c-.446-.791-1.213-1.272-2.221-1.272-1.131 0-2.174.586-2.174 1.823 0 2.068 2.941 1.406 2.941 2.39 0 .311-.287.698-.949.698-.779 0-1.09-.539-1.248-.961l-1.137.504c.288.902 1.225 1.64 2.455 1.64zm5.995 0c.984 0 1.763-.346 2.402-1.055l-.984-.861c-.411.457-.879.621-1.407.621-.92 0-1.341-.515-1.465-1.283h4.02c.029-.082.053-.322.053-.562 0-1.307-.662-2.954-2.713-2.954-1.981 0-2.871 1.547-2.871 3.071 0 1.576.949 3.023 2.965 3.023zm-1.454-3.609c.135-.733.504-1.283 1.348-1.283.621 0 1.125.31 1.272.914.035.117.047.24.047.369h-2.667zm10.331-2.485c-1.155 0-1.899.516-2.461 1.284l1.095.791c.252-.428.703-.827 1.377-.827.932 0 1.19.37 1.219 1.237h-1.588c-1.312 0-2.332.422-2.332 1.693 0 1.225.926 1.916 2.127 1.916.668 0 1.447-.293 1.828-.896l.088.779h1.178v-3.551c0-1.429-.938-2.426-2.531-2.426zm-.276 4.887c-.638 0-.949-.275-.949-.662 0-.369.299-.709.949-.709h1.512v.047c-.088.691-.633 1.324-1.512 1.324zm9.299 1.207c.428 0 .85-.094 1.066-.176v-1.295c-.193.094-.515.211-.814.211-.375 0-.65-.164-.65-.726v-2.789h1.464v-1.196h-1.464v-2.472l-1.407 1.019v1.453h-.966v1.196h.943v3.041c0 1.066.685 1.734 1.828 1.734zm4.775 0c.985 0 1.764-.346 2.403-1.055l-.985-.861c-.41.457-.879.621-1.406.621-.92 0-1.342-.515-1.465-1.283h4.02c.029-.082.053-.322.053-.562 0-1.307-.663-2.954-2.713-2.954-1.981 0-2.871 1.547-2.871 3.071 0 1.576.949 3.023 2.964 3.023zm-1.453-3.609c.135-.733.504-1.283 1.348-1.283.621 0 1.125.31 1.271.914.036.117.047.24.047.369h-2.666zm5.285 3.492h1.43v-3.217c0-.779.457-1.429 1.236-1.429.733 0 .95.58.95 1.289V229h1.429v-3.217c0-.779.452-1.429 1.225-1.429.738 0 .955.591.955 1.312V229h1.43v-3.516c0-1.236-.61-2.461-2.098-2.461-.709 0-1.406.276-1.875 1.032-.346-.78-1.066-1.032-1.728-1.032-.598 0-1.202.206-1.582.856v-.733h-1.383l.011 5.854zm10.207 2.426h1.477v-3.012c.41.504 1.02.703 1.647.703 1.646 0 2.531-1.412 2.531-3.047 0-1.617-.885-3.047-2.508-3.047-.609 0-1.26.206-1.67.709v-.586h-1.477v8.28zm2.79-3.604c-.985 0-1.442-.767-1.442-1.752 0-.984.457-1.728 1.442-1.728.984 0 1.423.756 1.423 1.728 0 .973-.439 1.752-1.423 1.752zm5.279 1.295c.34 0 .767-.058 1.066-.117v-1.201a3.04 3.04 0 01-.392.035c-.287 0-.469-.117-.469-.393v-6.72h-1.43v7.113c0 1.031.551 1.283 1.225 1.283zm4.301-6.094c-1.155 0-1.899.516-2.461 1.284l1.095.791c.252-.428.704-.827 1.377-.827.932 0 1.19.37 1.219 1.237h-1.588c-1.312 0-2.332.422-2.332 1.693 0 1.225.926 1.916 2.127 1.916.668 0 1.447-.293 1.828-.896l.088.779h1.178v-3.551c0-1.429-.938-2.426-2.531-2.426zm-.276 4.887c-.638 0-.949-.275-.949-.662 0-.369.299-.709.949-.709h1.512v.047c-.088.691-.633 1.324-1.512 1.324zm6.369 1.207c.428 0 .85-.094 1.067-.176v-1.295c-.194.094-.516.211-.815.211-.375 0-.65-.164-.65-.726v-2.789h1.465v-1.196h-1.465v-2.472l-1.406 1.019v1.453h-.967v1.196h.943v3.041c0 1.066.686 1.734 1.828 1.734zm4.776 0c.984 0 1.763-.346 2.402-1.055l-.984-.861c-.41.457-.879.621-1.407.621-.919 0-1.341-.515-1.464-1.283h4.019c.029-.082.053-.322.053-.562 0-1.307-.662-2.954-2.713-2.954-1.98 0-2.871 1.547-2.871 3.071 0 1.576.949 3.023 2.965 3.023zm-1.453-3.609c.134-.733.504-1.283 1.347-1.283.621 0 1.125.31 1.272.914.035.117.047.24.047.369h-2.666z" fill="#9C95AF"/><rect x="430" y="202.5" width="147" height="45" rx="7.5" stroke="#353052"/><path d="M247.205 229.117c1.647 0 2.965-.838 3.621-2.385l-1.377-.562c-.445 1.113-1.178 1.535-2.244 1.535-1.775 0-2.531-1.26-2.531-2.906 0-1.535.756-2.795 2.508-2.795 1.078 0 1.933.422 2.244 1.512l1.388-.551c-.668-1.547-1.98-2.379-3.621-2.379-2.724 0-3.996 2.004-3.996 4.271 0 2.274 1.283 4.26 4.008 4.26zm4.647-.117h1.382v-2.473c0-1.488.698-2.109 1.366-2.109.228 0 .445.07.638.199l.651-1.172c-.282-.287-.686-.422-1.073-.422-.656 0-1.318.399-1.57 1.108v-.985h-1.394V229zm6.96.117c.985 0 1.764-.346 2.403-1.055l-.985-.861c-.41.457-.878.621-1.406.621-.92 0-1.342-.515-1.465-1.283h4.02c.029-.082.053-.322.053-.562 0-1.307-.662-2.954-2.713-2.954-1.981 0-2.871 1.547-2.871 3.071 0 1.576.949 3.023 2.964 3.023zm-1.453-3.609c.135-.733.504-1.283 1.348-1.283.621 0 1.125.31 1.272.914.035.117.046.24.046.369h-2.666zm7.436-2.485c-1.154 0-1.899.516-2.461 1.284l1.096.791c.252-.428.703-.827 1.377-.827.931 0 1.189.37 1.218 1.237h-1.587c-1.313 0-2.333.422-2.333 1.693 0 1.225.926 1.916 2.127 1.916.668 0 1.448-.293 1.829-.896l.087.779h1.178v-3.551c0-1.429-.937-2.426-2.531-2.426zm-.275 4.887c-.639 0-.95-.275-.95-.662 0-.369.299-.709.95-.709h1.511v.047c-.088.691-.633 1.324-1.511 1.324zm6.369 1.207c.427 0 .849-.094 1.066-.176v-1.295c-.193.094-.516.211-.814.211-.375 0-.651-.164-.651-.726v-2.789h1.465v-1.196h-1.465v-2.472l-1.406 1.019v1.453h-.967v1.196h.944v3.041c0 1.066.685 1.734 1.828 1.734zm4.775 0c.984 0 1.764-.346 2.402-1.055l-.984-.861c-.41.457-.879.621-1.406.621-.92 0-1.342-.515-1.465-1.283h4.019c.03-.082.053-.322.053-.562 0-1.307-.662-2.954-2.713-2.954-1.98 0-2.871 1.547-2.871 3.071 0 1.576.949 3.023 2.965 3.023zm-1.453-3.609c.135-.733.504-1.283 1.348-1.283.621 0 1.125.31 1.271.914.035.117.047.24.047.369h-2.666zm10.33-2.485c-1.154 0-1.898.516-2.461 1.284l1.096.791c.252-.428.703-.827 1.377-.827.931 0 1.189.37 1.218 1.237h-1.587c-1.313 0-2.332.422-2.332 1.693 0 1.225.925 1.916 2.127 1.916.667 0 1.447-.293 1.828-.896l.088.779h1.177v-3.551c0-1.429-.937-2.426-2.531-2.426zm-.275 4.887c-.639 0-.95-.275-.95-.662 0-.369.299-.709.95-.709h1.511v.047c-.088.691-.632 1.324-1.511 1.324zm7.242 1.09h1.43v-3.217c0-.779.457-1.429 1.236-1.429.732 0 .949.58.949 1.289V229h1.43v-3.217c0-.779.451-1.429 1.224-1.429.739 0 .955.591.955 1.312V229h1.43v-3.516c0-1.236-.609-2.461-2.098-2.461-.709 0-1.406.276-1.875 1.032-.345-.78-1.066-1.032-1.728-1.032-.598 0-1.201.206-1.582.856v-.733h-1.383l.012 5.854zm12.357-5.977c-1.154 0-1.898.516-2.461 1.284l1.096.791c.252-.428.703-.827 1.377-.827.932 0 1.189.37 1.219 1.237h-1.588c-1.313 0-2.332.422-2.332 1.693 0 1.225.926 1.916 2.127 1.916.668 0 1.447-.293 1.828-.896l.088.779h1.177v-3.551c0-1.429-.937-2.426-2.531-2.426zm-.275 4.887c-.639 0-.949-.275-.949-.662 0-.369.298-.709.949-.709h1.512v.047c-.088.691-.633 1.324-1.512 1.324zm6.099 1.207c1.108 0 2.286-.597 2.286-1.951 0-2.15-2.977-1.623-2.977-2.508 0-.275.287-.504.756-.504.633 0 .961.381 1.16.744l1.107-.603c-.445-.791-1.212-1.272-2.22-1.272-1.131 0-2.174.586-2.174 1.823 0 2.068 2.941 1.406 2.941 2.39 0 .311-.287.698-.949.698-.779 0-1.09-.539-1.248-.961l-1.137.504c.287.902 1.225 1.64 2.455 1.64zm5.637 0c.428 0 .85-.094 1.067-.176v-1.295c-.194.094-.516.211-.815.211-.375 0-.65-.164-.65-.726v-2.789h1.465v-1.196h-1.465v-2.472l-1.407 1.019v1.453h-.966v1.196h.943v3.041c0 1.066.686 1.734 1.828 1.734zm4.776 0c.984 0 1.763-.346 2.402-1.055l-.984-.861c-.411.457-.879.621-1.407.621-.92 0-1.342-.515-1.465-1.283h4.02c.029-.082.053-.322.053-.562 0-1.307-.662-2.954-2.713-2.954-1.981 0-2.871 1.547-2.871 3.071 0 1.576.949 3.023 2.965 3.023zm-1.454-3.609c.135-.733.504-1.283 1.348-1.283.621 0 1.125.31 1.272.914.035.117.046.24.046.369h-2.666zm5.274 3.492h1.383v-2.473c0-1.488.697-2.109 1.365-2.109.228 0 .445.07.639.199l.65-1.172c-.281-.287-.686-.422-1.072-.422-.657 0-1.319.399-1.571 1.108v-.985h-1.394V229zm4.828 2.426h1.477v-3.012c.41.504 1.019.703 1.646.703 1.647 0 2.531-1.412 2.531-3.047 0-1.617-.884-3.047-2.508-3.047-.609 0-1.259.206-1.669.709v-.586h-1.477v8.28zm2.789-3.604c-.984 0-1.441-.767-1.441-1.752 0-.984.457-1.728 1.441-1.728s1.424.756 1.424 1.728c0 .973-.44 1.752-1.424 1.752zm4.055-5.783h1.5v-1.318h-1.5v1.318zm.035 6.961h1.43v-5.854h-1.43V229zm5.59.117c.984 0 1.763-.346 2.402-1.055l-.984-.861c-.41.457-.879.621-1.407.621-.919 0-1.341-.515-1.464-1.283h4.019c.029-.082.053-.322.053-.562 0-1.307-.662-2.954-2.713-2.954-1.98 0-2.871 1.547-2.871 3.071 0 1.576.949 3.023 2.965 3.023zm-1.453-3.609c.134-.733.504-1.283 1.347-1.283.621 0 1.125.31 1.272.914.035.117.047.24.047.369h-2.666zm7.593 3.609c1.161 0 2.075-.644 2.461-1.734l-1.3-.492c-.153.55-.598.931-1.172.931-.996 0-1.371-.849-1.371-1.74 0-.873.386-1.764 1.371-1.764.586 0 1.019.399 1.172.961l1.359-.527c-.445-1.166-1.371-1.729-2.531-1.729-1.91 0-2.825 1.524-2.825 3.059 0 1.553.926 3.035 2.836 3.035zm5.953 0c.985 0 1.764-.346 2.403-1.055l-.985-.861c-.41.457-.878.621-1.406.621-.92 0-1.342-.515-1.465-1.283h4.02c.029-.082.053-.322.053-.562 0-1.307-.662-2.954-2.713-2.954-1.981 0-2.871 1.547-2.871 3.071 0 1.576.949 3.023 2.964 3.023zm-1.453-3.609c.135-.733.504-1.283 1.348-1.283.621 0 1.125.31 1.272.914.035.117.046.24.046.369h-2.666z" fill="url(#paint0_linear)"/><rect x="219" y="202.5" width="161" height="45" rx="7.5" stroke="url(#paint1_linear)"/><path d="M458.223 297.117c1.646 0 2.965-.838 3.621-2.385l-1.377-.562c-.446 1.113-1.178 1.535-2.244 1.535-1.776 0-2.532-1.26-2.532-2.906 0-1.535.756-2.795 2.508-2.795 1.078 0 1.934.422 2.244 1.512l1.389-.551c-.668-1.547-1.98-2.379-3.621-2.379-2.725 0-3.996 2.004-3.996 4.271 0 2.274 1.283 4.26 4.008 4.26zm6.99 0c1.81 0 3-1.4 3-3.058 0-1.653-1.19-3.036-3-3.036-1.811 0-3 1.383-3 3.036 0 1.658 1.189 3.058 3 3.058zm0-1.23c-1.078 0-1.512-.867-1.512-1.828 0-.961.434-1.799 1.512-1.799 1.084 0 1.512.838 1.512 1.799s-.428 1.828-1.512 1.828zm4.16 1.113h1.43v-3.205c0-1.02.504-1.453 1.306-1.453.733 0 1.12.556 1.12 1.324V297h1.429v-3.516c0-1.224-.603-2.461-2.138-2.461-.575 0-1.249.229-1.717.803v-.68h-1.43V297zm11.766-5.854h-3.287v-.398c0-.586.345-.996 1.113-.996.615 0 1.107.17 1.541.469l.656-1.008c-.621-.399-1.283-.615-2.267-.615-1.319 0-2.473.785-2.473 2.127v.421h-.961v1.196h.961V297h1.43v-4.658h1.968V297h1.319v-5.854zm1.699 5.854h1.383v-2.473c0-1.488.697-2.109 1.365-2.109.228 0 .445.07.639.199l.65-1.172c-.281-.287-.686-.422-1.072-.422-.657 0-1.319.399-1.571 1.108v-.985h-1.394V297zm4.828 0h1.43v-3.217c0-.779.457-1.429 1.236-1.429.732 0 .949.58.949 1.289V297h1.43v-3.217c0-.779.451-1.429 1.225-1.429.738 0 .955.591.955 1.312V297h1.429v-3.516c0-1.236-.609-2.461-2.097-2.461-.709 0-1.407.276-1.875 1.032-.346-.78-1.067-1.032-1.729-1.032-.598 0-1.201.206-1.582.856v-.733h-1.383l.012 5.854zm15.158.117c.428 0 .85-.094 1.067-.176v-1.295c-.194.094-.516.211-.815.211-.375 0-.65-.164-.65-.726v-2.789h1.465v-1.196h-1.465v-2.472l-1.406 1.019v1.453h-.967v1.196h.943v3.041c0 1.066.686 1.734 1.828 1.734zm2.104-.117h1.453v-2.965c0-.973.433-1.717 1.348-1.717.861 0 1.054.627 1.054 1.348V297h1.453v-3.516c0-1.224-.627-2.461-2.162-2.461-.574 0-1.224.229-1.693.803v-3.105h-1.453V297zm9.293.117c.984 0 1.763-.346 2.402-1.055l-.984-.861c-.41.457-.879.621-1.407.621-.92 0-1.341-.515-1.464-1.283h4.019c.029-.082.053-.322.053-.562 0-1.307-.662-2.954-2.713-2.954-1.981 0-2.871 1.547-2.871 3.071 0 1.576.949 3.023 2.965 3.023zm-1.453-3.609c.134-.733.503-1.283 1.347-1.283.621 0 1.125.31 1.272.914.035.117.047.24.047.369h-2.666zm9.931 3.609c1.108 0 2.285-.597 2.285-1.951 0-2.15-2.976-1.623-2.976-2.508 0-.275.287-.504.756-.504.632 0 .961.381 1.16.744l1.107-.603c-.445-.791-1.213-1.272-2.22-1.272-1.131 0-2.174.586-2.174 1.823 0 2.068 2.941 1.406 2.941 2.39 0 .311-.287.698-.949.698-.779 0-1.09-.539-1.248-.961l-1.137.504c.287.902 1.225 1.64 2.455 1.64zm5.479 0c.58 0 1.26-.222 1.728-.803V297h1.418v-5.854h-1.418v3.2c0 1.019-.515 1.453-1.318 1.453-.733 0-1.119-.551-1.119-1.319v-3.334h-1.412v3.516c0 1.225.586 2.455 2.121 2.455zm8.01 0c1.623 0 2.507-1.424 2.507-3.047 0-1.629-.884-3.047-2.531-3.047-.627 0-1.236.206-1.646.709v-3.011h-1.477V297h1.477v-.586c.41.504 1.06.703 1.67.703zm-.358-1.318c-.984 0-1.441-.744-1.441-1.729 0-.984.457-1.752 1.441-1.752s1.424.78 1.424 1.752c0 .973-.44 1.729-1.424 1.729zm5.854 1.318c1.107 0 2.285-.597 2.285-1.951 0-2.15-2.977-1.623-2.977-2.508 0-.275.287-.504.756-.504.633 0 .961.381 1.16.744l1.108-.603c-.446-.791-1.213-1.272-2.221-1.272-1.131 0-2.174.586-2.174 1.823 0 2.068 2.941 1.406 2.941 2.39 0 .311-.287.698-.949.698-.779 0-1.09-.539-1.248-.961l-1.136.504c.287.902 1.224 1.64 2.455 1.64zm5.865 0c1.16 0 2.074-.644 2.461-1.734l-1.301-.492c-.152.55-.598.931-1.172.931-.996 0-1.371-.849-1.371-1.74 0-.873.387-1.764 1.371-1.764.586 0 1.02.399 1.172.961l1.359-.527c-.445-1.166-1.371-1.729-2.531-1.729-1.91 0-2.824 1.524-2.824 3.059 0 1.553.926 3.035 2.836 3.035zm3.562-.117h1.383v-2.473c0-1.488.697-2.109 1.365-2.109.229 0 .446.07.639.199l.65-1.172c-.281-.287-.685-.422-1.072-.422-.656 0-1.318.399-1.57 1.108v-.985h-1.395V297zm4.782-6.961h1.5v-1.318h-1.5v1.318zm.035 6.961h1.429v-5.854h-1.429V297zm3.152 2.426h1.477v-3.012c.41.504 1.019.703 1.646.703 1.647 0 2.531-1.412 2.531-3.047 0-1.617-.884-3.047-2.507-3.047-.61 0-1.26.206-1.67.709v-.586h-1.477v8.28zm2.789-3.604c-.984 0-1.441-.767-1.441-1.752 0-.984.457-1.728 1.441-1.728.985 0 1.424.756 1.424 1.728 0 .973-.439 1.752-1.424 1.752zm6.135 1.295c.428 0 .85-.094 1.066-.176v-1.295c-.193.094-.515.211-.814.211-.375 0-.651-.164-.651-.726v-2.789h1.465v-1.196h-1.465v-2.472l-1.406 1.019v1.453h-.967v1.196h.944v3.041c0 1.066.685 1.734 1.828 1.734zm2.35-7.078h1.5v-1.318h-1.5v1.318zm.035 6.961h1.429v-5.854h-1.429V297zm5.59.117c1.81 0 3-1.4 3-3.058 0-1.653-1.19-3.036-3-3.036-1.811 0-3 1.383-3 3.036 0 1.658 1.189 3.058 3 3.058zm0-1.23c-1.079 0-1.512-.867-1.512-1.828 0-.961.433-1.799 1.512-1.799 1.083 0 1.511.838 1.511 1.799s-.428 1.828-1.511 1.828zm4.16 1.113h1.429v-3.205c0-1.02.504-1.453 1.307-1.453.732 0 1.119.556 1.119 1.324V297h1.43v-3.516c0-1.224-.604-2.461-2.139-2.461-.574 0-1.248.229-1.717.803v-.68h-1.429V297zm9.726 2.426h1.477v-3.012c.41.504 1.019.703 1.646.703 1.647 0 2.532-1.412 2.532-3.047 0-1.617-.885-3.047-2.508-3.047-.61 0-1.26.206-1.67.709v-.586h-1.477v8.28zm2.789-3.604c-.984 0-1.441-.767-1.441-1.752 0-.984.457-1.728 1.441-1.728.985 0 1.424.756 1.424 1.728 0 .973-.439 1.752-1.424 1.752zm5.28 1.295c.339 0 .767-.058 1.066-.117v-1.201a3.053 3.053 0 01-.393.035c-.287 0-.468-.117-.468-.393v-6.72h-1.43v7.113c0 1.031.551 1.283 1.225 1.283zm4.3-6.094c-1.154 0-1.898.516-2.461 1.284l1.096.791c.252-.428.703-.827 1.377-.827.932 0 1.19.37 1.219 1.237h-1.588c-1.313 0-2.332.422-2.332 1.693 0 1.225.926 1.916 2.127 1.916.668 0 1.447-.293 1.828-.896l.088.779h1.178v-3.551c0-1.429-.938-2.426-2.532-2.426zm-.275 4.887c-.639 0-.949-.275-.949-.662 0-.369.299-.709.949-.709h1.512v.047c-.088.691-.633 1.324-1.512 1.324zm4.336 1.09h1.43v-3.205c0-1.02.504-1.453 1.306-1.453.733 0 1.119.556 1.119 1.324V297h1.43v-3.516c0-1.224-.603-2.461-2.139-2.461-.574 0-1.248.229-1.716.803v-.68h-1.43V297z" fill="#9C95AF"/><rect x="430" y="270.5" width="206" height="45" rx="7.5" stroke="#353052"/><path d="M704.566 229h2.391c2.783 0 4.318-1.5 4.318-4.078 0-2.69-1.488-4.201-4.306-4.201h-2.403V229zm1.489-1.365v-5.549h.89c2.039 0 2.842.809 2.842 2.771 0 2.069-1.148 2.778-2.976 2.778h-.756zm9.041 1.482c1.81 0 3-1.4 3-3.058 0-1.653-1.19-3.036-3-3.036-1.811 0-3 1.383-3 3.036 0 1.658 1.189 3.058 3 3.058zm0-1.23c-1.078 0-1.512-.867-1.512-1.828 0-.961.434-1.799 1.512-1.799 1.084 0 1.511.838 1.511 1.799s-.427 1.828-1.511 1.828zM720.1 229h1.289l1.148-3.838 1.154 3.838h1.284l1.81-5.854h-1.523l-1.008 3.657-1.102-3.657h-1.224l-1.108 3.668-.996-3.668h-1.523L720.1 229zm7.582 0h1.429v-3.205c0-1.02.504-1.453 1.307-1.453.732 0 1.119.556 1.119 1.324V229h1.43v-3.516c0-1.224-.604-2.461-2.139-2.461-.574 0-1.248.229-1.717.803v-.68h-1.429V229zm8.009.117c.34 0 .768-.058 1.067-.117v-1.201a3.067 3.067 0 01-.393.035c-.287 0-.469-.117-.469-.393v-6.72h-1.429v7.113c0 1.031.551 1.283 1.224 1.283zm4.623 0c1.811 0 3-1.4 3-3.058 0-1.653-1.189-3.036-3-3.036-1.81 0-3 1.383-3 3.036 0 1.658 1.19 3.058 3 3.058zm0-1.23c-1.078 0-1.511-.867-1.511-1.828 0-.961.433-1.799 1.511-1.799 1.084 0 1.512.838 1.512 1.799s-.428 1.828-1.512 1.828zm6.217 1.23c.645 0 1.295-.222 1.699-.779l.065.662h1.33v-8.279h-1.453v3.011c-.404-.503-1.055-.709-1.664-.709-1.623 0-2.514 1.43-2.514 3.047 0 1.635.891 3.047 2.537 3.047zm.346-1.295c-.984 0-1.43-.767-1.43-1.752 0-.972.446-1.752 1.43-1.752s1.418.768 1.418 1.752c0 .996-.434 1.752-1.418 1.752zm7.324-5.783h1.5v-1.318h-1.5v1.318zm.035 6.961h1.43v-5.854h-1.43V229zm3.153 0h1.429v-3.217c0-.779.457-1.429 1.237-1.429.732 0 .949.58.949 1.289V229h1.43v-3.217c0-.779.451-1.429 1.224-1.429.738 0 .955.591.955 1.312V229h1.43v-3.516c0-1.236-.609-2.461-2.098-2.461-.709 0-1.406.276-1.875 1.032-.345-.78-1.066-1.032-1.728-1.032-.598 0-1.201.206-1.582.856v-.733h-1.383l.012 5.854zm12.357-5.977c-1.154 0-1.898.516-2.461 1.284l1.096.791c.252-.428.703-.827 1.377-.827.931 0 1.189.37 1.219 1.237h-1.588c-1.313 0-2.332.422-2.332 1.693 0 1.225.925 1.916 2.127 1.916.668 0 1.447-.293 1.828-.896l.088.779h1.177v-3.551c0-1.429-.937-2.426-2.531-2.426zm-.275 4.887c-.639 0-.95-.275-.95-.662 0-.369.299-.709.95-.709h1.511v.047c-.087.691-.632 1.324-1.511 1.324zm7.289.082h-1.237c-.263 0-.861 0-.861-.515 0-.147.047-.299.205-.411.352.176.768.276 1.225.276 1.306 0 2.373-.826 2.373-2.121a2.17 2.17 0 00-.24-1.008l.855-.686-.732-.914-.897.768a2.63 2.63 0 00-1.359-.358c-1.348 0-2.391.879-2.391 2.151 0 .445.129.849.352 1.183-.51.317-.721.791-.721 1.26 0 .651.393 1.067.773 1.307l-.802.316a1.427 1.427 0 00-.094.539c0 1.33 1.43 1.91 2.977 1.91 1.822 0 2.677-.791 2.677-1.968 0-1.395-1.189-1.729-2.103-1.729zm-.645-3.838c.621 0 .973.463.973 1.043 0 .574-.352 1.008-.973 1.008-.638 0-.984-.434-.984-1.008 0-.58.346-1.043.984-1.043zm-.023 6.44c-1.553 0-1.553-.633-1.553-.838v-.135l.504-.428h1.143c.585 0 1.306 0 1.306.645 0 .545-.515.756-1.4.756zm6.422-1.477c.984 0 1.763-.346 2.402-1.055l-.984-.861c-.411.457-.879.621-1.407.621-.92 0-1.341-.515-1.464-1.283h4.019c.029-.082.053-.322.053-.562 0-1.307-.662-2.954-2.713-2.954-1.981 0-2.871 1.547-2.871 3.071 0 1.576.949 3.023 2.965 3.023zm-1.453-3.609c.134-.733.503-1.283 1.347-1.283.621 0 1.125.31 1.272.914.035.117.047.24.047.369h-2.666z" fill="#9C95AF"/><rect x="680" y="202.5" width="129" height="45" rx="7.5" stroke="#353052"/><path d="M910.566 229h2.391c2.783 0 4.318-1.5 4.318-4.078 0-2.69-1.488-4.201-4.306-4.201h-2.403V229zm1.489-1.365v-5.549h.89c2.039 0 2.842.809 2.842 2.771 0 2.069-1.148 2.778-2.976 2.778h-.756zm9.041 1.482c1.81 0 3-1.4 3-3.058 0-1.653-1.19-3.036-3-3.036-1.811 0-3 1.383-3 3.036 0 1.658 1.189 3.058 3 3.058zm0-1.23c-1.078 0-1.512-.867-1.512-1.828 0-.961.434-1.799 1.512-1.799 1.084 0 1.511.838 1.511 1.799s-.427 1.828-1.511 1.828zM926.1 229h1.289l1.148-3.838 1.154 3.838h1.284l1.81-5.854h-1.523l-1.008 3.657-1.102-3.657h-1.224l-1.108 3.668-.996-3.668h-1.523L926.1 229zm7.582 0h1.429v-3.205c0-1.02.504-1.453 1.307-1.453.732 0 1.119.556 1.119 1.324V229h1.43v-3.516c0-1.224-.604-2.461-2.139-2.461-.574 0-1.248.229-1.717.803v-.68h-1.429V229zm8.009.117c.34 0 .768-.058 1.067-.117v-1.201a3.067 3.067 0 01-.393.035c-.287 0-.469-.117-.469-.393v-6.72h-1.429v7.113c0 1.031.551 1.283 1.224 1.283zm4.623 0c1.811 0 3-1.4 3-3.058 0-1.653-1.189-3.036-3-3.036-1.81 0-3 1.383-3 3.036 0 1.658 1.19 3.058 3 3.058zm0-1.23c-1.078 0-1.511-.867-1.511-1.828 0-.961.433-1.799 1.511-1.799 1.084 0 1.512.838 1.512 1.799s-.428 1.828-1.512 1.828zm6.217 1.23c.645 0 1.295-.222 1.699-.779l.065.662h1.33v-8.279h-1.453v3.011c-.404-.503-1.055-.709-1.664-.709-1.623 0-2.514 1.43-2.514 3.047 0 1.635.891 3.047 2.537 3.047zm.346-1.295c-.984 0-1.43-.767-1.43-1.752 0-.972.446-1.752 1.43-1.752s1.418.768 1.418 1.752c0 .996-.434 1.752-1.418 1.752zm7.324-5.783h1.5v-1.318h-1.5v1.318zm.035 6.961h1.43v-5.854h-1.43V229zm3.153 0h1.429v-3.217c0-.779.457-1.429 1.237-1.429.732 0 .949.58.949 1.289V229h1.43v-3.217c0-.779.451-1.429 1.224-1.429.738 0 .955.591.955 1.312V229h1.43v-3.516c0-1.236-.609-2.461-2.098-2.461-.709 0-1.406.276-1.875 1.032-.345-.78-1.066-1.032-1.728-1.032-.598 0-1.201.206-1.582.856v-.733h-1.383l.012 5.854zm12.357-5.977c-1.154 0-1.898.516-2.461 1.284l1.096.791c.252-.428.703-.827 1.377-.827.931 0 1.189.37 1.219 1.237h-1.588c-1.313 0-2.332.422-2.332 1.693 0 1.225.925 1.916 2.127 1.916.668 0 1.447-.293 1.828-.896l.088.779h1.177v-3.551c0-1.429-.937-2.426-2.531-2.426zm-.275 4.887c-.639 0-.95-.275-.95-.662 0-.369.299-.709.95-.709h1.511v.047c-.087.691-.632 1.324-1.511 1.324zm7.289.082h-1.237c-.263 0-.861 0-.861-.515 0-.147.047-.299.205-.411.352.176.768.276 1.225.276 1.306 0 2.373-.826 2.373-2.121a2.17 2.17 0 00-.24-1.008l.855-.686-.732-.914-.897.768a2.63 2.63 0 00-1.359-.358c-1.348 0-2.391.879-2.391 2.151 0 .445.129.849.352 1.183-.51.317-.721.791-.721 1.26 0 .651.393 1.067.773 1.307l-.802.316a1.427 1.427 0 00-.094.539c0 1.33 1.43 1.91 2.977 1.91 1.822 0 2.677-.791 2.677-1.968 0-1.395-1.189-1.729-2.103-1.729zm-.645-3.838c.621 0 .973.463.973 1.043 0 .574-.352 1.008-.973 1.008-.638 0-.984-.434-.984-1.008 0-.58.346-1.043.984-1.043zm-.023 6.44c-1.553 0-1.553-.633-1.553-.838v-.135l.504-.428h1.143c.585 0 1.306 0 1.306.645 0 .545-.515.756-1.4.756zm6.422-1.477c.984 0 1.763-.346 2.402-1.055l-.984-.861c-.411.457-.879.621-1.407.621-.92 0-1.341-.515-1.464-1.283h4.019c.029-.082.053-.322.053-.562 0-1.307-.662-2.954-2.713-2.954-1.981 0-2.871 1.547-2.871 3.071 0 1.576.949 3.023 2.965 3.023zm-1.453-3.609c.134-.733.503-1.283 1.347-1.283.621 0 1.125.31 1.272.914.035.117.047.24.047.369h-2.666z" fill="#9C95AF"/><rect x="886" y="202.5" width="129" height="45" rx="7.5" stroke="#353052"/><path d="M707.934 297.094c1.582 0 2.877-.944 2.877-2.508 0-2.748-4.008-2.221-4.008-3.779 0-.528.457-.885 1.043-.885.556 0 1.049.322 1.336.885l1.236-.756c-.568-1.008-1.5-1.453-2.52-1.453-1.394 0-2.584.82-2.584 2.285 0 2.695 4.008 2.121 4.008 3.838 0 .586-.48 1.054-1.365 1.054-.879 0-1.611-.457-1.717-1.488l-1.476.375c.263 1.629 1.705 2.432 3.17 2.432zm4.037-.094h1.453v-2.965c0-.973.433-1.717 1.347-1.717.862 0 1.055.627 1.055 1.348V297h1.453v-3.516c0-1.224-.627-2.461-2.162-2.461-.574 0-1.224.229-1.693.803v-3.105h-1.453V297zm9.006-5.977c-1.155 0-1.899.516-2.461 1.284l1.095.791c.252-.428.703-.827 1.377-.827.932 0 1.19.37 1.219 1.237h-1.588c-1.312 0-2.332.422-2.332 1.693 0 1.225.926 1.916 2.127 1.916.668 0 1.447-.293 1.828-.896l.088.779h1.178v-3.551c0-1.429-.938-2.426-2.531-2.426zm-.276 4.887c-.639 0-.949-.275-.949-.662 0-.369.299-.709.949-.709h1.512v.047c-.088.691-.633 1.324-1.512 1.324zm4.336 1.09h1.383v-2.473c0-1.488.697-2.109 1.365-2.109.229 0 .445.07.639.199l.65-1.172c-.281-.287-.685-.422-1.072-.422-.656 0-1.318.399-1.57 1.108v-.985h-1.395V297zm6.961.117c.984 0 1.764-.346 2.402-1.055l-.984-.861c-.41.457-.879.621-1.406.621-.92 0-1.342-.515-1.465-1.283h4.019c.03-.082.053-.322.053-.562 0-1.307-.662-2.954-2.713-2.954-1.98 0-2.871 1.547-2.871 3.071 0 1.576.949 3.023 2.965 3.023zm-1.453-3.609c.135-.733.504-1.283 1.348-1.283.621 0 1.125.31 1.271.914.035.117.047.24.047.369h-2.666zm9.176 3.492h1.289l1.148-3.838 1.154 3.838h1.284l1.81-5.854h-1.523l-1.008 3.657-1.102-3.657h-1.224l-1.108 3.668-.996-3.668h-1.523l1.799 5.854zm7.547-6.961h1.5v-1.318h-1.5v1.318zm.035 6.961h1.429v-5.854h-1.429V297zm5.209.117c.427 0 .849-.094 1.066-.176v-1.295c-.193.094-.516.211-.814.211-.375 0-.651-.164-.651-.726v-2.789h1.465v-1.196h-1.465v-2.472l-1.406 1.019v1.453h-.967v1.196h.944v3.041c0 1.066.685 1.734 1.828 1.734zm2.103-.117h1.453v-2.965c0-.973.434-1.717 1.348-1.717.861 0 1.055.627 1.055 1.348V297h1.453v-3.516c0-1.224-.627-2.461-2.162-2.461-.574 0-1.225.229-1.694.803v-3.105h-1.453V297zm10.078 0h1.477v-4.658h1.365v-1.196h-1.365v-.638c0-.457.252-.639.539-.639.152 0 .322.065.457.147l.469-1.178a2.606 2.606 0 00-1.061-.24c-.984 0-1.869.627-1.869 1.763v.785h-1.084v1.196h1.072V297zm3.692 0h1.383v-2.473c0-1.488.697-2.109 1.365-2.109.228 0 .445.07.638.199l.651-1.172c-.281-.287-.686-.422-1.072-.422-.657 0-1.319.399-1.571 1.108v-.985h-1.394V297zm4.781-6.961h1.5v-1.318h-1.5v1.318zm.035 6.961h1.43v-5.854h-1.43V297zm5.59.117c.984 0 1.764-.346 2.402-1.055l-.984-.861c-.41.457-.879.621-1.406.621-.92 0-1.342-.515-1.465-1.283h4.019c.03-.082.053-.322.053-.562 0-1.307-.662-2.954-2.713-2.954-1.98 0-2.871 1.547-2.871 3.071 0 1.576.949 3.023 2.965 3.023zm-1.453-3.609c.135-.733.504-1.283 1.348-1.283.621 0 1.125.31 1.271.914.035.117.047.24.047.369h-2.666zm5.273 3.492h1.43v-3.205c0-1.02.504-1.453 1.307-1.453.732 0 1.119.556 1.119 1.324V297h1.429v-3.516c0-1.224-.603-2.461-2.138-2.461-.574 0-1.248.229-1.717.803v-.68h-1.43V297zm8.877.117c.645 0 1.295-.222 1.7-.779l.064.662h1.33v-8.279h-1.453v3.011c-.404-.503-1.055-.709-1.664-.709-1.623 0-2.514 1.43-2.514 3.047 0 1.635.891 3.047 2.537 3.047zm.346-1.295c-.984 0-1.43-.767-1.43-1.752 0-.972.446-1.752 1.43-1.752s1.418.768 1.418 1.752c0 .996-.434 1.752-1.418 1.752zm6.228 1.295c1.108 0 2.286-.597 2.286-1.951 0-2.15-2.977-1.623-2.977-2.508 0-.275.287-.504.756-.504.633 0 .961.381 1.16.744l1.108-.603c-.446-.791-1.213-1.272-2.221-1.272-1.131 0-2.174.586-2.174 1.823 0 2.068 2.941 1.406 2.941 2.39 0 .311-.287.698-.949.698-.779 0-1.09-.539-1.248-.961l-1.137.504c.288.902 1.225 1.64 2.455 1.64z" fill="#9C95AF"/><rect x="681" y="270.5" width="144" height="45" rx="7.5" stroke="#353052"/><path d="M45.027 297h1.623l.668-1.799h3.17L51.15 297h1.606l-3.299-8.279h-1.113L45.027 297zm2.76-3.07l1.12-3.024 1.113 3.024h-2.233zm7.834 3.187c.645 0 1.295-.222 1.7-.779l.064.662h1.33v-8.279h-1.453v3.011c-.405-.503-1.055-.709-1.664-.709-1.623 0-2.514 1.43-2.514 3.047 0 1.635.89 3.047 2.537 3.047zm.346-1.295c-.985 0-1.43-.767-1.43-1.752 0-.972.445-1.752 1.43-1.752.984 0 1.418.768 1.418 1.752 0 .996-.434 1.752-1.418 1.752zm6.521 1.295c.645 0 1.295-.222 1.7-.779l.064.662h1.33v-8.279h-1.453v3.011c-.404-.503-1.055-.709-1.664-.709-1.623 0-2.514 1.43-2.514 3.047 0 1.635.89 3.047 2.537 3.047zm.346-1.295c-.984 0-1.43-.767-1.43-1.752 0-.972.446-1.752 1.43-1.752s1.418.768 1.418 1.752c0 .996-.434 1.752-1.418 1.752zm9.68 1.295c1.16 0 2.074-.644 2.46-1.734l-1.3-.492c-.153.55-.598.931-1.172.931-.996 0-1.371-.849-1.371-1.74 0-.873.387-1.764 1.371-1.764.586 0 1.02.399 1.172.961l1.36-.527c-.446-1.166-1.372-1.729-2.532-1.729-1.91 0-2.824 1.524-2.824 3.059 0 1.553.925 3.035 2.836 3.035zm3.574-.117h1.453v-2.965c0-.973.434-1.717 1.348-1.717.861 0 1.054.627 1.054 1.348V297h1.454v-3.516c0-1.224-.628-2.461-2.163-2.461-.574 0-1.224.229-1.693.803v-3.105h-1.453V297zm6.809-6.961h1.5v-1.318h-1.5v1.318zm.035 6.961h1.43v-5.854h-1.43V297zm4.33.117c.34 0 .767-.058 1.066-.117v-1.201a3.05 3.05 0 01-.392.035c-.288 0-.47-.117-.47-.393v-6.72h-1.429v7.113c0 1.031.55 1.283 1.225 1.283zm4.23 0c.645 0 1.295-.222 1.7-.779l.064.662h1.33v-8.279h-1.453v3.011c-.404-.503-1.055-.709-1.664-.709-1.623 0-2.514 1.43-2.514 3.047 0 1.635.89 3.047 2.537 3.047zm.346-1.295c-.984 0-1.43-.767-1.43-1.752 0-.972.445-1.752 1.43-1.752.984 0 1.418.768 1.418 1.752 0 .996-.434 1.752-1.418 1.752zm7.324-5.783h1.5v-1.318h-1.5v1.318zm.035 6.961h1.43v-5.854h-1.43V297zm3.141 0h1.43v-3.205c0-1.02.503-1.453 1.306-1.453.733 0 1.119.556 1.119 1.324V297h1.43v-3.516c0-1.224-.603-2.461-2.139-2.461-.574 0-1.248.229-1.716.803v-.68h-1.43V297zm7.16 0h1.477v-4.658h1.365v-1.196h-1.365v-.638c0-.457.252-.639.539-.639.152 0 .322.065.457.147l.468-1.178a2.597 2.597 0 00-1.06-.24c-.984 0-1.869.627-1.869 1.763v.785h-1.084v1.196h1.072V297zm6 .117c1.811 0 3-1.4 3-3.058 0-1.653-1.189-3.036-3-3.036-1.81 0-3 1.383-3 3.036 0 1.658 1.19 3.058 3 3.058zm0-1.23c-1.078 0-1.512-.867-1.512-1.828 0-.961.434-1.799 1.512-1.799 1.084 0 1.512.838 1.512 1.799s-.428 1.828-1.512 1.828zm4.16 1.113h1.383v-2.473c0-1.488.697-2.109 1.365-2.109.229 0 .446.07.639.199l.65-1.172c-.281-.287-.685-.422-1.072-.422-.656 0-1.318.399-1.57 1.108v-.985h-1.395V297zm4.828 0h1.43v-3.217c0-.779.457-1.429 1.236-1.429.733 0 .95.58.95 1.289V297h1.429v-3.217c0-.779.451-1.429 1.225-1.429.738 0 .955.591.955 1.312V297h1.43v-3.516c0-1.236-.61-2.461-2.098-2.461-.709 0-1.406.276-1.875 1.032-.346-.78-1.066-1.032-1.729-1.032-.597 0-1.201.206-1.582.856v-.733h-1.382l.011 5.854zm12.358-5.977c-1.155 0-1.899.516-2.461 1.284l1.096.791c.251-.428.703-.827 1.376-.827.932 0 1.19.37 1.219 1.237h-1.588c-1.312 0-2.332.422-2.332 1.693 0 1.225.926 1.916 2.127 1.916.668 0 1.448-.293 1.828-.896l.088.779h1.178v-3.551c0-1.429-.937-2.426-2.531-2.426zm-.276 4.887c-.638 0-.949-.275-.949-.662 0-.369.299-.709.949-.709h1.512v.047c-.088.691-.633 1.324-1.512 1.324zm6.37 1.207c.427 0 .849-.094 1.066-.176v-1.295c-.193.094-.516.211-.815.211-.375 0-.65-.164-.65-.726v-2.789h1.465v-1.196h-1.465v-2.472l-1.406 1.019v1.453h-.967v1.196h.943v3.041c0 1.066.686 1.734 1.829 1.734zm2.349-7.078h1.5v-1.318h-1.5v1.318zm.035 6.961h1.43v-5.854h-1.43V297zm5.59.117c1.811 0 3-1.4 3-3.058 0-1.653-1.189-3.036-3-3.036-1.81 0-3 1.383-3 3.036 0 1.658 1.19 3.058 3 3.058zm0-1.23c-1.078 0-1.512-.867-1.512-1.828 0-.961.434-1.799 1.512-1.799 1.084 0 1.512.838 1.512 1.799s-.428 1.828-1.512 1.828zm4.16 1.113h1.43v-3.205c0-1.02.504-1.453 1.307-1.453.732 0 1.119.556 1.119 1.324V297h1.429v-3.516c0-1.224-.603-2.461-2.138-2.461-.574 0-1.248.229-1.717.803v-.68h-1.43V297z" fill="#9C95AF"/><rect x="21" y="270.5" width="164" height="45" rx="7.5" stroke="#353052"/><path d="M459.531 63h5.028v-1.406h-3.539V54.72h-1.489V63zm8.479.117c1.81 0 3-1.4 3-3.058 0-1.653-1.19-3.036-3-3.036-1.811 0-3 1.383-3 3.036 0 1.658 1.189 3.058 3 3.058zm0-1.23c-1.078 0-1.512-.867-1.512-1.828 0-.961.434-1.8 1.512-1.8 1.084 0 1.511.839 1.511 1.8 0 .96-.427 1.828-1.511 1.828zm7.136.105h-1.236c-.264 0-.861 0-.861-.515 0-.147.047-.3.205-.41.351.175.767.275 1.225.275 1.306 0 2.373-.826 2.373-2.121 0-.364-.082-.703-.241-1.008l.856-.686-.733-.914-.896.768a2.633 2.633 0 00-1.359-.358c-1.348 0-2.391.88-2.391 2.15 0 .446.129.85.351 1.184-.509.317-.72.791-.72 1.26 0 .65.392 1.067.773 1.307l-.803.316a1.447 1.447 0 00-.093.54c0 1.33 1.429 1.91 2.976 1.91 1.823 0 2.678-.792 2.678-1.97 0-1.394-1.189-1.728-2.104-1.728zm-.644-3.838c.621 0 .973.463.973 1.043 0 .575-.352 1.008-.973 1.008-.639 0-.984-.433-.984-1.008 0-.58.345-1.043.984-1.043zm-.023 6.44c-1.553 0-1.553-.633-1.553-.838v-.135l.504-.428h1.142c.586 0 1.307 0 1.307.645 0 .545-.516.756-1.4.756zm3.937-8.555h1.5v-1.318h-1.5v1.318zm.035 6.961h1.43v-5.853h-1.43V63zm3.141 0h1.429v-3.205c0-1.02.504-1.453 1.307-1.453.733 0 1.119.556 1.119 1.324V63h1.43v-3.516c0-1.224-.604-2.46-2.139-2.46a2.22 2.22 0 00-1.717.802v-.68h-1.429V63zm5.765 2.52h1.336l4.33-10.8h-1.33l-4.336 10.8zm6.534-2.52h1.488v-3.54h.996l2.039 3.54h1.705l-2.303-3.685c.938-.323 1.618-1.114 1.618-2.157 0-1.553-1.319-2.437-2.866-2.437h-2.677V63zm1.5-4.752v-2.197h1.189c.85 0 1.383.445 1.383 1.13 0 .622-.469 1.032-1.26 1.067h-1.312zm7.986 4.87c.984 0 1.764-.346 2.402-1.056l-.984-.86c-.41.456-.879.62-1.406.62-.92 0-1.342-.515-1.465-1.283h4.019c.03-.082.053-.322.053-.562 0-1.307-.662-2.954-2.713-2.954-1.98 0-2.871 1.547-2.871 3.07 0 1.577.949 3.024 2.965 3.024zm-1.453-3.61c.135-.733.504-1.283 1.347-1.283.622 0 1.125.31 1.272.914.035.117.047.24.047.369h-2.666zm8.25 2.484h-1.236c-.264 0-.862 0-.862-.515 0-.147.047-.3.205-.41.352.175.768.275 1.225.275 1.306 0 2.373-.826 2.373-2.121a2.17 2.17 0 00-.24-1.008l.855-.686-.732-.914-.897.768a2.633 2.633 0 00-1.359-.358c-1.348 0-2.391.88-2.391 2.15 0 .446.129.85.352 1.184-.51.317-.721.791-.721 1.26 0 .65.393 1.067.774 1.307l-.803.316a1.426 1.426 0 00-.094.54c0 1.33 1.43 1.91 2.977 1.91 1.822 0 2.677-.792 2.677-1.97 0-1.394-1.189-1.728-2.103-1.728zm-.645-3.838c.621 0 .973.463.973 1.043 0 .575-.352 1.008-.973 1.008-.638 0-.984-.433-.984-1.008 0-.58.346-1.043.984-1.043zm-.023 6.44c-1.553 0-1.553-.633-1.553-.838v-.135l.504-.428h1.143c.586 0 1.306 0 1.306.645 0 .545-.515.756-1.4.756zm3.937-8.555h1.5v-1.318h-1.5v1.318zm.036 6.961h1.429v-5.853h-1.429V63zm4.904.117c1.107 0 2.285-.597 2.285-1.951 0-2.15-2.977-1.623-2.977-2.508 0-.275.288-.504.756-.504.633 0 .961.381 1.16.744l1.108-.603c-.445-.791-1.213-1.272-2.221-1.272-1.131 0-2.174.586-2.174 1.823 0 2.068 2.942 1.406 2.942 2.39 0 .31-.287.698-.95.698-.779 0-1.089-.54-1.248-.961l-1.136.504c.287.902 1.224 1.64 2.455 1.64zm5.637 0c.427 0 .849-.094 1.066-.176v-1.294c-.193.093-.516.21-.815.21-.375 0-.65-.164-.65-.726v-2.79h1.465v-1.194h-1.465v-2.473l-1.406 1.02v1.453h-.967v1.195h.943v3.04c0 1.067.686 1.735 1.829 1.735zm2.302-.117h1.383v-2.473c0-1.488.697-2.109 1.365-2.109.229 0 .446.07.639.2l.65-1.173c-.281-.287-.685-.422-1.072-.422-.656 0-1.318.399-1.57 1.108v-.984h-1.395V63zm7.014-5.977c-1.154 0-1.898.516-2.461 1.284l1.096.79c.252-.427.703-.825 1.377-.825.931 0 1.189.369 1.218 1.236h-1.587c-1.313 0-2.333.422-2.333 1.693 0 1.225.926 1.916 2.127 1.916.668 0 1.448-.293 1.829-.896l.087.779h1.178v-3.55c0-1.43-.937-2.427-2.531-2.427zm-.275 4.887c-.639 0-.95-.275-.95-.662 0-.37.299-.709.95-.709h1.511v.047c-.088.691-.633 1.324-1.511 1.324zm6.369 1.207c.427 0 .849-.094 1.066-.176v-1.294c-.193.093-.516.21-.814.21-.375 0-.651-.164-.651-.726v-2.79h1.465v-1.194h-1.465v-2.473l-1.406 1.02v1.453h-.967v1.195h.944v3.04c0 1.067.685 1.735 1.828 1.735zm2.349-7.078h1.5v-1.318h-1.5v1.318zm.035 6.961h1.43v-5.853h-1.43V63zm5.59.117c1.811 0 3-1.4 3-3.058 0-1.653-1.189-3.036-3-3.036-1.81 0-3 1.383-3 3.036 0 1.658 1.19 3.058 3 3.058zm0-1.23c-1.078 0-1.511-.867-1.511-1.828 0-.961.433-1.8 1.511-1.8 1.084 0 1.512.839 1.512 1.8 0 .96-.428 1.828-1.512 1.828zm4.16 1.113h1.43v-3.205c0-1.02.504-1.453 1.307-1.453.732 0 1.119.556 1.119 1.324V63h1.43v-3.516c0-1.224-.604-2.46-2.139-2.46a2.22 2.22 0 00-1.717.802v-.68h-1.43V63z" fill="#9C95AF"/><rect x="434.5" y="36.5" width="147" height="45" rx="7.5" stroke="#353052"/><path d="M48.33 154.094c1.582 0 2.877-.944 2.877-2.508 0-2.748-4.008-2.221-4.008-3.779 0-.528.457-.885 1.043-.885.557 0 1.049.322 1.336.885l1.236-.756c-.568-1.008-1.5-1.453-2.52-1.453-1.394 0-2.583.82-2.583 2.285 0 2.695 4.008 2.121 4.008 3.838 0 .586-.48 1.054-1.366 1.054-.878 0-1.61-.457-1.716-1.488l-1.477.375c.264 1.629 1.705 2.432 3.17 2.432zm6.486.023c.985 0 1.764-.346 2.403-1.055l-.985-.861c-.41.457-.879.621-1.406.621-.92 0-1.342-.515-1.465-1.283h4.02c.03-.082.052-.322.052-.562 0-1.307-.662-2.954-2.712-2.954-1.98 0-2.871 1.547-2.871 3.071 0 1.576.949 3.023 2.964 3.023zm-1.453-3.609c.135-.733.504-1.283 1.348-1.283.621 0 1.125.31 1.271.914.036.117.047.24.047.369h-2.666zm7.342 3.609c.428 0 .85-.094 1.067-.176v-1.295c-.194.094-.516.211-.815.211-.375 0-.65-.164-.65-.726v-2.789h1.465v-1.196h-1.465v-2.472l-1.407 1.019v1.453h-.966v1.196h.943v3.041c0 1.066.685 1.734 1.828 1.734zm7.201 0c.58 0 1.26-.222 1.729-.803V154h1.418v-5.854h-1.418v3.2c0 1.019-.516 1.453-1.319 1.453-.732 0-1.119-.551-1.119-1.319v-3.334h-1.412v3.516c0 1.225.586 2.455 2.121 2.455zm4.863 2.309h1.477v-3.012c.41.504 1.02.703 1.647.703 1.646 0 2.53-1.412 2.53-3.047 0-1.617-.884-3.047-2.507-3.047-.61 0-1.26.206-1.67.709v-.586H72.77v8.28zm2.79-3.604c-.985 0-1.442-.767-1.442-1.752 0-.984.457-1.728 1.442-1.728.984 0 1.423.756 1.423 1.728 0 .973-.439 1.752-1.423 1.752zm9.146-4.799c-1.154 0-1.898.516-2.46 1.284l1.095.791c.252-.428.703-.827 1.377-.827.931 0 1.19.37 1.219 1.237h-1.588c-1.313 0-2.332.422-2.332 1.693 0 1.225.925 1.916 2.127 1.916.668 0 1.447-.293 1.828-.896l.088.779h1.177v-3.551c0-1.429-.937-2.426-2.53-2.426zm-.275 4.887c-.639 0-.95-.275-.95-.662 0-.369.3-.709.95-.709h1.511v.047c-.088.691-.632 1.324-1.511 1.324zm9.55 1.207c1.16 0 2.075-.644 2.461-1.734l-1.3-.492c-.153.55-.598.931-1.172.931-.996 0-1.371-.849-1.371-1.74 0-.873.386-1.764 1.37-1.764.587 0 1.02.399 1.173.961l1.359-.527c-.445-1.166-1.371-1.729-2.531-1.729-1.91 0-2.825 1.524-2.825 3.059 0 1.553.926 3.035 2.837 3.035zm3.575-.117h1.453v-2.965c0-.973.433-1.717 1.347-1.717.862 0 1.055.627 1.055 1.348V154h1.453v-3.516c0-1.224-.627-2.461-2.162-2.461-.574 0-1.224.229-1.693.803v-3.105h-1.453V154zm6.808-6.961h1.5v-1.318h-1.5v1.318zm.035 6.961h1.43v-5.854h-1.43V154zm4.331.117c.339 0 .767-.058 1.066-.117v-1.201a3.053 3.053 0 01-.393.035c-.287 0-.468-.117-.468-.393v-6.72h-1.43v7.113c0 1.031.551 1.283 1.225 1.283zm4.23 0c.645 0 1.295-.222 1.699-.779l.065.662h1.33v-8.279H114.6v3.011c-.405-.503-1.055-.709-1.664-.709-1.624 0-2.514 1.43-2.514 3.047 0 1.635.89 3.047 2.537 3.047zm.346-1.295c-.985 0-1.43-.767-1.43-1.752 0-.972.445-1.752 1.43-1.752.984 0 1.418.768 1.418 1.752 0 .996-.434 1.752-1.418 1.752zm7.371 3.604h1.476v-3.012c.41.504 1.02.703 1.647.703 1.646 0 2.531-1.412 2.531-3.047 0-1.617-.885-3.047-2.508-3.047-.609 0-1.26.206-1.67.709v-.586h-1.476v8.28zm2.789-3.604c-.985 0-1.442-.767-1.442-1.752 0-.984.457-1.728 1.442-1.728.984 0 1.424.756 1.424 1.728 0 .973-.44 1.752-1.424 1.752zm4.09 1.178h1.383v-2.473c0-1.488.697-2.109 1.365-2.109.228 0 .445.07.638.199l.651-1.172c-.281-.287-.686-.422-1.072-.422-.657 0-1.319.399-1.571 1.108v-.985h-1.394V154zm6.961.117c1.81 0 3-1.4 3-3.058 0-1.653-1.19-3.036-3-3.036-1.811 0-3 1.383-3 3.036 0 1.658 1.189 3.058 3 3.058zm0-1.23c-1.078 0-1.512-.867-1.512-1.828 0-.961.434-1.799 1.512-1.799 1.084 0 1.511.838 1.511 1.799s-.427 1.828-1.511 1.828zm9.105-4.741h-3.287v-.398c0-.586.346-.996 1.113-.996.615 0 1.108.17 1.541.469l.657-1.008c-.622-.399-1.284-.615-2.268-.615-1.318 0-2.473.785-2.473 2.127v.421h-.961v1.196h.961V154h1.43v-4.658h1.969V154h1.318v-5.854zm2.889 5.971c.34 0 .767-.058 1.066-.117v-1.201a3.04 3.04 0 01-.392.035c-.288 0-.469-.117-.469-.393v-6.72h-1.43v7.113c0 1.031.551 1.283 1.225 1.283zm4.623 0c.984 0 1.763-.346 2.402-1.055l-.984-.861c-.41.457-.879.621-1.406.621-.92 0-1.342-.515-1.465-1.283h4.019c.03-.082.053-.322.053-.562 0-1.307-.662-2.954-2.713-2.954-1.98 0-2.871 1.547-2.871 3.071 0 1.576.949 3.023 2.965 3.023zm-1.453-3.609c.134-.733.504-1.283 1.347-1.283.621 0 1.125.31 1.272.914.035.117.047.24.047.369h-2.666z" fill="#9C95AF"/><rect x="21" y="127.5" width="157" height="45" rx="7.5" stroke="#353052"/><path d="M243.643 154h3.228c1.406 0 2.701-.861 2.701-2.402 0-.827-.574-1.729-1.33-2.028.469-.252.92-.861.92-1.617 0-1.658-1.389-2.232-2.648-2.232h-2.871V154zm1.488-4.945v-1.993h1.406c.709 0 1.26.329 1.26.973 0 .815-.563 1.02-1.143 1.02h-1.523zm0 3.527v-2.244h1.705c.779 0 1.271.504 1.271 1.096 0 .779-.445 1.148-1.212 1.148h-1.764zm7.91-4.559c-1.154 0-1.898.516-2.461 1.284l1.096.791c.252-.428.703-.827 1.377-.827.931 0 1.189.37 1.218 1.237h-1.587c-1.313 0-2.332.422-2.332 1.693 0 1.225.925 1.916 2.127 1.916.667 0 1.447-.293 1.828-.896l.088.779h1.177v-3.551c0-1.429-.937-2.426-2.531-2.426zm-.275 4.887c-.639 0-.95-.275-.95-.662 0-.369.299-.709.95-.709h1.511v.047c-.088.691-.632 1.324-1.511 1.324zm7.494 1.207c1.623 0 2.508-1.424 2.508-3.047 0-1.629-.885-3.047-2.532-3.047-.627 0-1.236.206-1.646.709v-3.011h-1.477V154h1.477v-.586c.41.504 1.06.703 1.67.703zm-.358-1.318c-.984 0-1.441-.744-1.441-1.729 0-.984.457-1.752 1.441-1.752.985 0 1.424.78 1.424 1.752 0 .973-.439 1.729-1.424 1.729zm4.137 3.721h1.559l3.345-8.374h-1.57l-1.5 4.067-1.477-4.067h-1.57l2.291 5.696-1.078 2.678zm8.625-.094h1.477v-3.012c.41.504 1.019.703 1.646.703 1.647 0 2.531-1.412 2.531-3.047 0-1.617-.884-3.047-2.507-3.047-.61 0-1.26.206-1.67.709v-.586h-1.477v8.28zm2.789-3.604c-.984 0-1.441-.767-1.441-1.752 0-.984.457-1.728 1.441-1.728.985 0 1.424.756 1.424 1.728 0 .973-.439 1.752-1.424 1.752zm4.09 1.178h1.383v-2.473c0-1.488.697-2.109 1.365-2.109.229 0 .445.07.639.199l.65-1.172c-.281-.287-.685-.422-1.072-.422-.656 0-1.319.399-1.57 1.108v-.985h-1.395V154zm6.961.117c1.81 0 3-1.4 3-3.058 0-1.653-1.19-3.036-3-3.036-1.811 0-3 1.383-3 3.036 0 1.658 1.189 3.058 3 3.058zm0-1.23c-1.078 0-1.512-.867-1.512-1.828 0-.961.434-1.799 1.512-1.799 1.084 0 1.512.838 1.512 1.799s-.428 1.828-1.512 1.828zm9.105-4.741h-3.287v-.398c0-.586.346-.996 1.114-.996.615 0 1.107.17 1.541.469l.656-1.008c-.621-.399-1.283-.615-2.268-.615-1.318 0-2.472.785-2.472 2.127v.421h-.961v1.196h.961V154h1.429v-4.658h1.969V154h1.318v-5.854zm2.889 5.971c.34 0 .768-.058 1.066-.117v-1.201a3.04 3.04 0 01-.392.035c-.287 0-.469-.117-.469-.393v-6.72h-1.43v7.113c0 1.031.551 1.283 1.225 1.283zm4.623 0c.984 0 1.764-.346 2.402-1.055l-.984-.861c-.41.457-.879.621-1.406.621-.92 0-1.342-.515-1.465-1.283h4.02c.029-.082.052-.322.052-.562 0-1.307-.662-2.954-2.713-2.954-1.98 0-2.871 1.547-2.871 3.071 0 1.576.949 3.023 2.965 3.023zm-1.453-3.609c.135-.733.504-1.283 1.348-1.283.621 0 1.125.31 1.271.914.035.117.047.24.047.369h-2.666zm7.037 3.609c1.107 0 2.285-.597 2.285-1.951 0-2.15-2.976-1.623-2.976-2.508 0-.275.287-.504.756-.504.632 0 .96.381 1.16.744l1.107-.603c-.445-.791-1.213-1.272-2.221-1.272-1.13 0-2.173.586-2.173 1.823 0 2.068 2.941 1.406 2.941 2.39 0 .311-.287.698-.949.698-.78 0-1.09-.539-1.248-.961l-1.137.504c.287.902 1.225 1.64 2.455 1.64z" fill="#9C95AF"/><rect x="219" y="127.5" width="116" height="45" rx="7.5" stroke="#353052"/><path d="M458.064 154.117c1.647 0 2.965-.838 3.622-2.385l-1.377-.562c-.446 1.113-1.178 1.535-2.245 1.535-1.775 0-2.531-1.26-2.531-2.906 0-1.535.756-2.795 2.508-2.795 1.078 0 1.934.422 2.244 1.512l1.389-.551c-.668-1.547-1.981-2.379-3.621-2.379-2.725 0-3.996 2.004-3.996 4.271 0 2.274 1.283 4.26 4.007 4.26zm4.647-.117h1.383v-2.473c0-1.488.697-2.109 1.365-2.109.229 0 .445.07.639.199l.65-1.172c-.281-.287-.686-.422-1.072-.422-.656 0-1.319.399-1.571 1.108v-.985h-1.394V154zm6.961.117c.984 0 1.764-.346 2.402-1.055l-.984-.861c-.41.457-.879.621-1.406.621-.92 0-1.342-.515-1.465-1.283h4.019c.03-.082.053-.322.053-.562 0-1.307-.662-2.954-2.713-2.954-1.98 0-2.871 1.547-2.871 3.071 0 1.576.949 3.023 2.965 3.023zm-1.453-3.609c.135-.733.504-1.283 1.347-1.283.622 0 1.125.31 1.272.914.035.117.047.24.047.369h-2.666zm7.435-2.485c-1.154 0-1.898.516-2.461 1.284l1.096.791c.252-.428.703-.827 1.377-.827.932 0 1.189.37 1.219 1.237h-1.588c-1.313 0-2.332.422-2.332 1.693 0 1.225.926 1.916 2.127 1.916.668 0 1.447-.293 1.828-.896l.088.779h1.178v-3.551c0-1.429-.938-2.426-2.532-2.426zm-.275 4.887c-.639 0-.949-.275-.949-.662 0-.369.299-.709.949-.709h1.512v.047c-.088.691-.633 1.324-1.512 1.324zm6.369 1.207c.428 0 .85-.094 1.066-.176v-1.295c-.193.094-.515.211-.814.211-.375 0-.65-.164-.65-.726v-2.789h1.464v-1.196h-1.464v-2.472l-1.407 1.019v1.453h-.966v1.196h.943v3.041c0 1.066.685 1.734 1.828 1.734zm4.775 0c.985 0 1.764-.346 2.403-1.055l-.985-.861c-.41.457-.879.621-1.406.621-.92 0-1.342-.515-1.465-1.283h4.02c.029-.082.053-.322.053-.562 0-1.307-.663-2.954-2.713-2.954-1.981 0-2.871 1.547-2.871 3.071 0 1.576.949 3.023 2.964 3.023zm-1.453-3.609c.135-.733.504-1.283 1.348-1.283.621 0 1.125.31 1.271.914.036.117.047.24.047.369h-2.666zm10.33-2.485c-1.154 0-1.898.516-2.461 1.284l1.096.791c.252-.428.703-.827 1.377-.827.932 0 1.19.37 1.219 1.237h-1.588c-1.313 0-2.332.422-2.332 1.693 0 1.225.926 1.916 2.127 1.916.668 0 1.447-.293 1.828-.896l.088.779h1.178v-3.551c0-1.429-.938-2.426-2.532-2.426zm-.275 4.887c-.639 0-.949-.275-.949-.662 0-.369.299-.709.949-.709h1.512v.047c-.088.691-.633 1.324-1.512 1.324zm4.336 1.09h1.43v-3.205c0-1.02.504-1.453 1.306-1.453.733 0 1.119.556 1.119 1.324V154h1.43v-3.516c0-1.224-.603-2.461-2.139-2.461-.574 0-1.248.229-1.716.803v-.68h-1.43V154zm9.68-6.961h1.5v-1.318h-1.5v1.318zm.035 6.961h1.429v-5.854h-1.429V154zm3.152 0h1.43v-3.217c0-.779.457-1.429 1.236-1.429.733 0 .949.58.949 1.289V154h1.43v-3.217c0-.779.451-1.429 1.225-1.429.738 0 .955.591.955 1.312V154h1.429v-3.516c0-1.236-.609-2.461-2.097-2.461-.709 0-1.406.276-1.875 1.032-.346-.78-1.067-1.032-1.729-1.032-.597 0-1.201.206-1.582.856v-.733h-1.383l.012 5.854zm12.358-5.977c-1.155 0-1.899.516-2.461 1.284l1.095.791c.252-.428.703-.827 1.377-.827.932 0 1.19.37 1.219 1.237h-1.588c-1.312 0-2.332.422-2.332 1.693 0 1.225.926 1.916 2.127 1.916.668 0 1.447-.293 1.828-.896l.088.779h1.178v-3.551c0-1.429-.938-2.426-2.531-2.426zm-.276 4.887c-.639 0-.949-.275-.949-.662 0-.369.299-.709.949-.709h1.512v.047c-.088.691-.633 1.324-1.512 1.324zm7.289.082h-1.236c-.264 0-.861 0-.861-.515 0-.147.046-.299.205-.411.351.176.767.276 1.224.276 1.307 0 2.373-.826 2.373-2.121a2.17 2.17 0 00-.24-1.008l.856-.686-.733-.914-.896.768a2.631 2.631 0 00-1.36-.358c-1.347 0-2.39.879-2.39 2.151 0 .445.129.849.351 1.183-.51.317-.721.791-.721 1.26 0 .651.393 1.067.774 1.307l-.803.316a1.446 1.446 0 00-.094.539c0 1.33 1.43 1.91 2.977 1.91 1.822 0 2.678-.791 2.678-1.968 0-1.395-1.19-1.729-2.104-1.729zm-.644-3.838c.621 0 .972.463.972 1.043 0 .574-.351 1.008-.972 1.008-.639 0-.985-.434-.985-1.008 0-.58.346-1.043.985-1.043zm-.024 6.44c-1.552 0-1.552-.633-1.552-.838v-.135l.503-.428h1.143c.586 0 1.307 0 1.307.645 0 .545-.516.756-1.401.756zm6.422-1.477c.985 0 1.764-.346 2.402-1.055l-.984-.861c-.41.457-.879.621-1.406.621-.92 0-1.342-.515-1.465-1.283h4.02c.029-.082.052-.322.052-.562 0-1.307-.662-2.954-2.713-2.954-1.98 0-2.871 1.547-2.871 3.071 0 1.576.95 3.023 2.965 3.023zM536 150.508c.135-.733.504-1.283 1.348-1.283.621 0 1.125.31 1.271.914.035.117.047.24.047.369H536z" fill="url(#paint2_linear)"/><rect x="430" y="127.5" width="134" height="45" rx="7.5" stroke="url(#paint3_linear)"/><path d="M706.986 154.094c1.582 0 2.877-.944 2.877-2.508 0-2.748-4.008-2.221-4.008-3.779 0-.528.457-.885 1.043-.885.557 0 1.049.322 1.336.885l1.237-.756c-.569-1.008-1.5-1.453-2.52-1.453-1.394 0-2.584.82-2.584 2.285 0 2.695 4.008 2.121 4.008 3.838 0 .586-.48 1.054-1.365 1.054-.879 0-1.612-.457-1.717-1.488l-1.477.375c.264 1.629 1.705 2.432 3.17 2.432zm6.223-6.071c-1.154 0-1.898.516-2.461 1.284l1.096.791c.252-.428.703-.827 1.377-.827.931 0 1.189.37 1.218 1.237h-1.587c-1.313 0-2.332.422-2.332 1.693 0 1.225.925 1.916 2.126 1.916.668 0 1.448-.293 1.829-.896l.087.779h1.178v-3.551c0-1.429-.937-2.426-2.531-2.426zm-.275 4.887c-.639 0-.95-.275-.95-.662 0-.369.299-.709.95-.709h1.511v.047c-.088.691-.633 1.324-1.511 1.324zm5.718 1.09h1.178l2.391-5.854h-1.553l-1.424 4.008-1.418-4.008h-1.558l2.384 5.854zm6.633.117c.985 0 1.764-.346 2.403-1.055l-.985-.861c-.41.457-.879.621-1.406.621-.92 0-1.342-.515-1.465-1.283h4.02c.029-.082.052-.322.052-.562 0-1.307-.662-2.954-2.713-2.954-1.98 0-2.871 1.547-2.871 3.071 0 1.576.95 3.023 2.965 3.023zm-1.453-3.609c.135-.733.504-1.283 1.348-1.283.621 0 1.125.31 1.271.914.035.117.047.24.047.369h-2.666zm7.33 3.609c.645 0 1.295-.222 1.699-.779l.065.662h1.33v-8.279h-1.453v3.011c-.405-.503-1.055-.709-1.664-.709-1.623 0-2.514 1.43-2.514 3.047 0 1.635.891 3.047 2.537 3.047zm.346-1.295c-.985 0-1.43-.767-1.43-1.752 0-.972.445-1.752 1.43-1.752.984 0 1.418.768 1.418 1.752 0 .996-.434 1.752-1.418 1.752zm7.324-5.783h1.5v-1.318h-1.5v1.318zm.035 6.961h1.43v-5.854h-1.43V154zm3.153 0h1.429v-3.217c0-.779.457-1.429 1.237-1.429.732 0 .949.58.949 1.289V154h1.429v-3.217c0-.779.452-1.429 1.225-1.429.738 0 .955.591.955 1.312V154h1.43v-3.516c0-1.236-.61-2.461-2.098-2.461-.709 0-1.406.276-1.875 1.032-.346-.78-1.066-1.032-1.728-1.032-.598 0-1.202.206-1.582.856v-.733h-1.383l.012 5.854zm12.357-5.977c-1.154 0-1.898.516-2.461 1.284l1.096.791c.252-.428.703-.827 1.377-.827.931 0 1.189.37 1.218 1.237h-1.587c-1.313 0-2.332.422-2.332 1.693 0 1.225.925 1.916 2.126 1.916.668 0 1.448-.293 1.829-.896l.087.779h1.178v-3.551c0-1.429-.937-2.426-2.531-2.426zm-.275 4.887c-.639 0-.95-.275-.95-.662 0-.369.299-.709.95-.709h1.511v.047c-.088.691-.633 1.324-1.511 1.324zm7.289.082h-1.237c-.263 0-.861 0-.861-.515 0-.147.047-.299.205-.411.352.176.768.276 1.225.276 1.306 0 2.373-.826 2.373-2.121 0-.364-.082-.703-.241-1.008l.856-.686-.732-.914-.897.768a2.63 2.63 0 00-1.359-.358c-1.348 0-2.391.879-2.391 2.151 0 .445.129.849.352 1.183-.51.317-.721.791-.721 1.26 0 .651.392 1.067.773 1.307l-.802.316a1.427 1.427 0 00-.094.539c0 1.33 1.43 1.91 2.976 1.91 1.823 0 2.678-.791 2.678-1.968 0-1.395-1.189-1.729-2.103-1.729zm-.645-3.838c.621 0 .973.463.973 1.043 0 .574-.352 1.008-.973 1.008-.639 0-.984-.434-.984-1.008 0-.58.345-1.043.984-1.043zm-.023 6.44c-1.553 0-1.553-.633-1.553-.838v-.135l.504-.428h1.142c.586 0 1.307 0 1.307.645 0 .545-.516.756-1.4.756zm6.422-1.477c.984 0 1.763-.346 2.402-1.055l-.985-.861c-.41.457-.878.621-1.406.621-.92 0-1.342-.515-1.465-1.283h4.02c.029-.082.053-.322.053-.562 0-1.307-.662-2.954-2.713-2.954-1.981 0-2.871 1.547-2.871 3.071 0 1.576.949 3.023 2.965 3.023zm-1.454-3.609c.135-.733.504-1.283 1.348-1.283.621 0 1.125.31 1.272.914.035.117.046.24.046.369h-2.666zm7.038 3.609c1.107 0 2.285-.597 2.285-1.951 0-2.15-2.977-1.623-2.977-2.508 0-.275.287-.504.756-.504.633 0 .961.381 1.16.744l1.108-.603c-.446-.791-1.213-1.272-2.221-1.272-1.131 0-2.174.586-2.174 1.823 0 2.068 2.941 1.406 2.941 2.39 0 .311-.287.698-.949.698-.779 0-1.09-.539-1.248-.961l-1.137.504c.288.902 1.225 1.64 2.456 1.64z" fill="#9C95AF"/><rect x="680" y="127.5" width="119" height="45" rx="7.5" stroke="#353052"/><path d="M912.021 154h1.477v-3.434h1.119c1.688 0 2.924-.849 2.924-2.396 0-1.565-1.236-2.449-2.924-2.449h-2.596V154zm1.477-4.822v-2.069h1.119c1.008 0 1.447.387 1.447 1.061 0 .656-.427 1.008-1.447 1.008h-1.119zm4.998 4.822h1.383v-2.473c0-1.488.697-2.109 1.365-2.109.229 0 .445.07.639.199l.65-1.172c-.281-.287-.685-.422-1.072-.422-.656 0-1.318.399-1.57 1.108v-.985h-1.395V154zm6.961.117c1.811 0 3-1.4 3-3.058 0-1.653-1.189-3.036-3-3.036s-3 1.383-3 3.036c0 1.658 1.189 3.058 3 3.058zm0-1.23c-1.078 0-1.512-.867-1.512-1.828 0-.961.434-1.799 1.512-1.799 1.084 0 1.512.838 1.512 1.799s-.428 1.828-1.512 1.828zm9.105-4.741h-3.287v-.398c0-.586.346-.996 1.114-.996.615 0 1.107.17 1.541.469l.656-1.008c-.621-.399-1.283-.615-2.268-.615-1.318 0-2.472.785-2.472 2.127v.421h-.961v1.196h.961V154h1.429v-4.658h1.969V154h1.318v-5.854zm2.889 5.971c.34 0 .768-.058 1.067-.117v-1.201a3.067 3.067 0 01-.393.035c-.287 0-.469-.117-.469-.393v-6.72h-1.429v7.113c0 1.031.55 1.283 1.224 1.283zm4.623 0c.985 0 1.764-.346 2.403-1.055l-.985-.861c-.41.457-.879.621-1.406.621-.92 0-1.342-.515-1.465-1.283h4.02c.029-.082.052-.322.052-.562 0-1.307-.662-2.954-2.713-2.954-1.98 0-2.871 1.547-2.871 3.071 0 1.576.95 3.023 2.965 3.023zm-1.453-3.609c.135-.733.504-1.283 1.348-1.283.621 0 1.125.31 1.271.914.035.117.047.24.047.369h-2.666z" fill="#9C95AF"/><rect x="887" y="127.5" width="82" height="45" rx="7.5" stroke="#353052"/><path d="M507.5 82.5V103m0 0H739m-231.5 0h-18M927 127v-20a4 4 0 00-4-4H739m0 0v24m-639.5 0v-20a4 4 0 014-4H277m0 0v24m0-24h212.5m0 0v23.5m18-126V36M429 150h-16a4 4 0 00-4 4v70.5m20 69.5h-16a4 4 0 01-4-4v-65.5m0 0h20M21 150H5a4 4 0 00-4 4v70.5M21 294H5a4 4 0 01-4-4v-65.5m0 0h20" stroke="#353052"/><path d="M507.5 97.06h5.561l-5.561 5.562-5.561-5.561h5.561zm0-66h5.561l-5.561 5.561-5.561-5.56h5.561zm-18 90.001h5.561l-5.561 5.561-5.561-5.561h5.561zm-390 1h5.561l-5.561 5.561-5.56-5.561h5.56zm-84 102V218.5l5.56 5.561-5.56 5.56v-5.56zm0 70V288.5l5.56 5.561-5.56 5.56v-5.56zm409-70V218.5l5.561 5.561-5.561 5.56v-5.56zm0 70V288.5l5.561 5.561-5.561 5.56v-5.56zm250-70V218.5l5.561 5.561-5.561 5.56v-5.56zm206 2V220.5l5.561 5.561-5.561 5.56v-5.56zm-206 68V288.5l5.561 5.561-5.561 5.56v-5.56zm-461-68V220.5l5.561 5.561-5.561 5.56v-5.56zm525.5-104h5.061L739 127.122l-5.061-5.061H739zm-462 0h5.061L277 127.122l-5.061-5.061H277zm650 0h5.061L927 127.122l-5.061-5.061H927z" fill="#353052"/><path d="M679 150h-16a4 4 0 00-4 4v70.5m20 69.5h-16a4 4 0 01-4-4v-65.5m0 0h20M886.5 150h-16a4 4 0 00-4 4v68a4 4 0 004 4h16m-668-76h-16a4 4 0 00-4 4v68a4 4 0 004 4h16" stroke="#353052"/><path d="M49.41 229.117c1.647 0 2.965-.838 3.621-2.385l-1.377-.562c-.445 1.113-1.177 1.535-2.244 1.535-1.775 0-2.531-1.26-2.531-2.906 0-1.535.756-2.795 2.508-2.795 1.078 0 1.933.422 2.244 1.512l1.389-.551c-.668-1.547-1.98-2.379-3.622-2.379-2.724 0-3.996 2.004-3.996 4.271 0 2.274 1.283 4.26 4.008 4.26zm4.647-.117h1.383v-2.473c0-1.488.697-2.109 1.365-2.109.228 0 .445.07.638.199l.65-1.172c-.28-.287-.685-.422-1.072-.422-.656 0-1.318.399-1.57 1.108v-.985h-1.394V229zm6.96.117c.985 0 1.764-.346 2.403-1.055l-.985-.861c-.41.457-.878.621-1.406.621-.92 0-1.342-.515-1.465-1.283h4.02c.03-.082.053-.322.053-.562 0-1.307-.662-2.954-2.713-2.954-1.98 0-2.871 1.547-2.871 3.071 0 1.576.949 3.023 2.965 3.023zm-1.453-3.609c.135-.733.504-1.283 1.348-1.283.621 0 1.125.31 1.272.914.035.117.047.24.047.369h-2.666zM67 223.023c-1.154 0-1.898.516-2.46 1.284l1.095.791c.252-.428.703-.827 1.377-.827.931 0 1.19.37 1.219 1.237h-1.588c-1.313 0-2.332.422-2.332 1.693 0 1.225.925 1.916 2.126 1.916.669 0 1.448-.293 1.829-.896l.087.779h1.178v-3.551c0-1.429-.937-2.426-2.531-2.426zm-.275 4.887c-.64 0-.95-.275-.95-.662 0-.369.3-.709.95-.709h1.511v.047c-.088.691-.633 1.324-1.511 1.324zm6.369 1.207c.428 0 .85-.094 1.066-.176v-1.295c-.193.094-.516.211-.814.211-.375 0-.65-.164-.65-.726v-2.789h1.464v-1.196h-1.465v-2.472l-1.406 1.019v1.453h-.967v1.196h.944v3.041c0 1.066.685 1.734 1.828 1.734zm4.775 0c.984 0 1.764-.346 2.403-1.055l-.985-.861c-.41.457-.879.621-1.406.621-.92 0-1.342-.515-1.465-1.283h4.02c.029-.082.052-.322.052-.562 0-1.307-.662-2.954-2.713-2.954-1.98 0-2.87 1.547-2.87 3.071 0 1.576.948 3.023 2.964 3.023zm-1.453-3.609c.135-.733.504-1.283 1.348-1.283.62 0 1.125.31 1.271.914.035.117.047.24.047.369h-2.666zm10.33-2.485c-1.154 0-1.898.516-2.46 1.284l1.095.791c.252-.428.703-.827 1.377-.827.931 0 1.19.37 1.219 1.237h-1.588c-1.313 0-2.332.422-2.332 1.693 0 1.225.925 1.916 2.127 1.916.668 0 1.447-.293 1.828-.896l.088.779h1.177v-3.551c0-1.429-.937-2.426-2.53-2.426zm-.275 4.887c-.639 0-.95-.275-.95-.662 0-.369.3-.709.95-.709h1.511v.047c-.088.691-.632 1.324-1.511 1.324zm7.242 3.516h1.477v-3.012c.41.504 1.019.703 1.646.703 1.646 0 2.531-1.412 2.531-3.047 0-1.617-.885-3.047-2.508-3.047-.609 0-1.26.206-1.67.709v-.586h-1.476v8.28zm2.789-3.604c-.984 0-1.441-.767-1.441-1.752 0-.984.457-1.728 1.441-1.728s1.424.756 1.424 1.728c0 .973-.44 1.752-1.424 1.752zm4.102 1.178h1.453v-2.965c0-.973.433-1.717 1.347-1.717.862 0 1.055.627 1.055 1.348V229h1.453v-3.516c0-1.224-.627-2.461-2.162-2.461-.574 0-1.225.229-1.693.803v-3.105h-1.453V229zm9.292.117c1.811 0 3-1.4 3-3.058 0-1.653-1.189-3.036-3-3.036-1.81 0-3 1.383-3 3.036 0 1.658 1.19 3.058 3 3.058zm0-1.23c-1.078 0-1.511-.867-1.511-1.828 0-.961.433-1.799 1.511-1.799 1.084 0 1.512.838 1.512 1.799s-.428 1.828-1.512 1.828zm6.206 1.23c.427 0 .849-.094 1.066-.176v-1.295c-.193.094-.516.211-.814.211-.375 0-.651-.164-.651-.726v-2.789h1.465v-1.196h-1.465v-2.472l-1.406 1.019v1.453h-.967v1.196h.943v3.041c0 1.066.686 1.734 1.829 1.734zm4.775 0c1.811 0 3-1.4 3-3.058 0-1.653-1.189-3.036-3-3.036s-3 1.383-3 3.036c0 1.658 1.189 3.058 3 3.058zm0-1.23c-1.078 0-1.512-.867-1.512-1.828 0-.961.434-1.799 1.512-1.799 1.084 0 1.512.838 1.512 1.799s-.428 1.828-1.512 1.828zm8.818 1.23c1.108 0 2.285-.597 2.285-1.951 0-2.15-2.976-1.623-2.976-2.508 0-.275.287-.504.756-.504.633 0 .961.381 1.16.744l1.107-.603c-.445-.791-1.213-1.272-2.22-1.272-1.131 0-2.174.586-2.174 1.823 0 2.068 2.941 1.406 2.941 2.39 0 .311-.287.698-.949.698-.779 0-1.09-.539-1.248-.961l-1.137.504c.287.902 1.225 1.64 2.455 1.64zm5.994 0c.985 0 1.764-.346 2.403-1.055l-.985-.861c-.41.457-.878.621-1.406.621-.92 0-1.342-.515-1.465-1.283h4.02c.029-.082.053-.322.053-.562 0-1.307-.663-2.954-2.713-2.954-1.981 0-2.871 1.547-2.871 3.071 0 1.576.949 3.023 2.964 3.023zm-1.453-3.609c.135-.733.504-1.283 1.348-1.283.621 0 1.125.31 1.271.914.036.117.047.24.047.369h-2.666zm7.342 3.609c.428 0 .85-.094 1.067-.176v-1.295c-.194.094-.516.211-.815.211-.375 0-.65-.164-.65-.726v-2.789h1.465v-1.196h-1.465v-2.472l-1.407 1.019v1.453h-.966v1.196h.943v3.041c0 1.066.686 1.734 1.828 1.734z" fill="url(#paint4_linear)"/><rect x="21" y="202.5" width="146" height="45" rx="7.5" stroke="url(#paint5_linear)"/><rect x="328" y="183" width="63" height="28" rx="14" fill="url(#paint6_linear)"/><path d="M340.35 200h1.352l.557-1.499h2.641l.552 1.499h1.338l-2.749-6.899h-.928L340.35 200zm2.299-2.559l.933-2.519.928 2.519h-1.861zm5.093 2.559h1.24v-6.899h-1.24V200zm5.259 0h1.191v-2.681c0-.649.381-1.191 1.031-1.191.61 0 .791.483.791 1.074V200h1.191v-2.681c0-.649.376-1.191 1.021-1.191.615 0 .795.493.795 1.094V200h1.192v-2.93c0-1.03-.508-2.05-1.748-2.05-.591 0-1.172.229-1.563.859-.288-.65-.888-.859-1.44-.859-.498 0-1.001.17-1.318.712v-.61h-1.153l.01 4.878zm10.298-4.98c-.962 0-1.582.429-2.051 1.069l.913.659c.21-.356.586-.688 1.148-.688.776 0 .991.307 1.015 1.03h-1.323c-1.094 0-1.943.351-1.943 1.411 0 1.02.771 1.597 1.772 1.597.557 0 1.206-.244 1.524-.747l.073.649h.981v-2.959c0-1.191-.781-2.021-2.109-2.021zm-.23 4.072c-.532 0-.791-.23-.791-.552 0-.308.249-.591.791-.591h1.26v.039c-.073.576-.527 1.104-1.26 1.104zm6.075.068h-1.031c-.219 0-.717 0-.717-.43 0-.122.039-.249.17-.341.293.146.64.229 1.021.229 1.089 0 1.977-.688 1.977-1.767 0-.303-.068-.586-.2-.84l.713-.572-.61-.761-.747.639a2.203 2.203 0 00-1.133-.297c-1.123 0-1.992.732-1.992 1.792 0 .371.107.708.293.986a1.207 1.207 0 00-.601 1.05c0 .542.327.888.645 1.089l-.669.263a1.193 1.193 0 00-.078.449c0 1.109 1.191 1.592 2.48 1.592 1.519 0 2.231-.659 2.231-1.64 0-1.163-.991-1.441-1.752-1.441zm-.538-3.198c.518 0 .811.386.811.869 0 .479-.293.84-.811.84-.532 0-.82-.361-.82-.84 0-.483.288-.869.82-.869zm-.019 5.366c-1.294 0-1.294-.527-1.294-.698v-.112l.42-.357h.952c.488 0 1.089 0 1.089.537 0 .454-.43.63-1.167.63zm3.281-7.129h1.25v-1.098h-1.25v1.098zm.029 5.801h1.192v-4.878h-1.192V200zm4.551.098c.967 0 1.729-.537 2.051-1.446l-1.084-.41c-.127.459-.498.777-.977.777-.83 0-1.142-.708-1.142-1.451 0-.727.322-1.469 1.142-1.469.489 0 .85.332.977.8l1.133-.439c-.371-.972-1.143-1.44-2.11-1.44-1.591 0-2.353 1.269-2.353 2.548 0 1.294.771 2.53 2.363 2.53z" fill="#fff"/><rect x="516" y="112" width="63" height="28" rx="14" fill="url(#paint7_linear)"/><path d="M528.35 129h1.352l.557-1.499h2.641l.552 1.499h1.338l-2.749-6.899h-.928L528.35 129zm2.299-2.559l.933-2.519.928 2.519h-1.861zm5.093 2.559h1.24v-6.899h-1.24V129zm5.259 0h1.191v-2.681c0-.649.381-1.191 1.031-1.191.61 0 .791.483.791 1.074V129h1.191v-2.681c0-.649.376-1.191 1.021-1.191.615 0 .795.493.795 1.094V129h1.192v-2.93c0-1.03-.508-2.05-1.748-2.05-.591 0-1.172.229-1.563.859-.288-.65-.888-.859-1.44-.859-.498 0-1.001.17-1.318.712v-.61h-1.153l.01 4.878zm10.298-4.98c-.962 0-1.582.429-2.051 1.069l.913.659c.21-.356.586-.688 1.148-.688.776 0 .991.307 1.015 1.03h-1.323c-1.094 0-1.943.351-1.943 1.411 0 1.02.771 1.597 1.772 1.597.557 0 1.206-.244 1.524-.747l.073.649h.981v-2.959c0-1.191-.781-2.021-2.109-2.021zm-.23 4.072c-.532 0-.791-.23-.791-.552 0-.308.249-.591.791-.591h1.26v.039c-.073.576-.527 1.104-1.26 1.104zm6.075.068h-1.031c-.219 0-.717 0-.717-.43 0-.122.039-.249.17-.341.293.146.64.229 1.021.229 1.089 0 1.977-.688 1.977-1.767 0-.303-.068-.586-.2-.84l.713-.572-.61-.761-.747.639a2.203 2.203 0 00-1.133-.297c-1.123 0-1.992.732-1.992 1.792 0 .371.107.708.293.986a1.207 1.207 0 00-.601 1.05c0 .542.327.888.645 1.089l-.669.263a1.193 1.193 0 00-.078.449c0 1.109 1.191 1.592 2.48 1.592 1.519 0 2.231-.659 2.231-1.64 0-1.163-.991-1.441-1.752-1.441zm-.538-3.198c.518 0 .811.386.811.869 0 .479-.293.84-.811.84-.532 0-.82-.361-.82-.84 0-.483.288-.869.82-.869zm-.019 5.366c-1.294 0-1.294-.527-1.294-.698v-.112l.42-.357h.952c.488 0 1.089 0 1.089.537 0 .454-.43.63-1.167.63zm3.281-7.129h1.25v-1.098h-1.25v1.098zm.029 5.801h1.192v-4.878h-1.192V129zm4.551.098c.967 0 1.729-.537 2.051-1.446l-1.084-.41c-.127.459-.498.777-.977.777-.83 0-1.142-.708-1.142-1.451 0-.727.322-1.469 1.142-1.469.489 0 .85.332.977.8l1.133-.439c-.371-.972-1.143-1.44-2.11-1.44-1.591 0-2.353 1.269-2.353 2.548 0 1.294.771 2.53 2.363 2.53z" fill="#fff"/><rect x="80.5" y="183" width="98" height="28" rx="14" fill="url(#paint8_linear)"/><path d="M93.519 200h1.24v-2.881h3.222v-1.138H94.76v-1.743h3.652v-1.137H93.52V200zm7.304-4.98c-.962 0-1.582.429-2.05 1.069l.913.659c.21-.356.585-.688 1.147-.688.776 0 .991.307 1.016 1.03h-1.324c-1.093 0-1.943.351-1.943 1.411 0 1.02.772 1.597 1.772 1.597.557 0 1.207-.244 1.524-.747l.073.649h.982v-2.959c0-1.191-.782-2.021-2.11-2.021zm-.229 4.072c-.532 0-.791-.23-.791-.552 0-.308.249-.591.791-.591h1.26v.039c-.074.576-.528 1.104-1.26 1.104zm5.527 1.006c.967 0 1.729-.537 2.051-1.446l-1.084-.41c-.127.459-.498.777-.977.777-.83 0-1.142-.708-1.142-1.451 0-.727.322-1.469 1.142-1.469.489 0 .85.332.977.8l1.133-.439c-.371-.972-1.143-1.44-2.11-1.44-1.591 0-2.353 1.269-2.353 2.548 0 1.294.771 2.53 2.363 2.53zm4.961 0c.82 0 1.47-.288 2.002-.879l-.82-.718a1.483 1.483 0 01-1.172.518c-.767 0-1.118-.43-1.221-1.07h3.35c.024-.068.044-.268.044-.469 0-1.088-.552-2.46-2.261-2.46-1.65 0-2.393 1.289-2.393 2.558 0 1.314.791 2.52 2.471 2.52zm-1.211-3.008c.112-.611.42-1.069 1.123-1.069.518 0 .938.258 1.06.761.029.098.039.2.039.308h-2.222zm6.807 2.91h1.152v-2.061c0-1.24.581-1.757 1.138-1.757.19 0 .371.058.532.166l.542-.977c-.234-.239-.571-.351-.894-.351-.546 0-1.098.332-1.308.922v-.82h-1.162V200zm5.801.098c.82 0 1.469-.288 2.001-.879l-.82-.718a1.481 1.481 0 01-1.172.518c-.766 0-1.118-.43-1.22-1.07h3.349c.025-.068.044-.268.044-.469 0-1.088-.552-2.46-2.261-2.46-1.65 0-2.392 1.289-2.392 2.558 0 1.314.791 2.52 2.471 2.52zm-1.211-3.008c.112-.611.42-1.069 1.123-1.069.517 0 .937.258 1.059.761.029.098.039.2.039.308h-2.221zm6.328 3.008c.966 0 1.728-.537 2.05-1.446l-1.084-.41c-.126.459-.498.777-.976.777-.83 0-1.143-.708-1.143-1.451 0-.727.323-1.469 1.143-1.469.488 0 .85.332.976.8l1.133-.439c-.371-.972-1.142-1.44-2.109-1.44-1.592 0-2.354 1.269-2.354 2.548 0 1.294.772 2.53 2.364 2.53zm4.961 0c1.508 0 2.5-1.167 2.5-2.549 0-1.377-.992-2.529-2.5-2.529-1.509 0-2.5 1.152-2.5 2.529 0 1.382.991 2.549 2.5 2.549zm0-1.026c-.899 0-1.26-.722-1.26-1.523 0-.801.361-1.499 1.26-1.499.903 0 1.259.698 1.259 1.499 0 .801-.356 1.523-1.259 1.523zm5.947.088h-1.03c-.22 0-.718 0-.718-.43 0-.122.039-.249.171-.341a2.28 2.28 0 001.02.229c1.089 0 1.978-.688 1.978-1.767 0-.303-.069-.586-.2-.84l.713-.572-.611-.761-.747.639a2.198 2.198 0 00-1.133-.297c-1.123 0-1.992.732-1.992 1.792 0 .371.107.708.293.986a1.207 1.207 0 00-.601 1.05c0 .542.328.888.645 1.089l-.669.263a1.193 1.193 0 00-.078.449c0 1.109 1.191 1.592 2.48 1.592 1.519 0 2.232-.659 2.232-1.64 0-1.163-.991-1.441-1.753-1.441zm-.537-3.198c.517 0 .81.386.81.869 0 .479-.293.84-.81.84-.532 0-.821-.361-.821-.84 0-.483.289-.869.821-.869zm-.02 5.366c-1.294 0-1.294-.527-1.294-.698v-.112l.42-.357h.952c.489 0 1.089 0 1.089.537 0 .454-.429.63-1.167.63zm3.311-1.328h1.191v-2.671c0-.85.42-1.211 1.089-1.211.61 0 .933.464.933 1.104V200h1.191v-2.93c0-1.02-.503-2.05-1.782-2.05-.479 0-1.04.19-1.431.668v-.566h-1.191V200zm5.654-5.801h1.25v-1.098h-1.25v1.098zm.029 5.801h1.192v-4.878h-1.192V200zm4.341.098c.357 0 .708-.078.889-.147v-1.079a1.69 1.69 0 01-.679.176c-.312 0-.542-.137-.542-.606v-2.324h1.221v-.996h-1.221v-2.06l-1.172.849v1.211h-.805v.996h.786v2.534c0 .889.571 1.446 1.523 1.446zm1.958-5.899h1.25v-1.098h-1.25v1.098zm.03 5.801h1.191v-4.878h-1.191V200zm4.658.098c1.509 0 2.5-1.167 2.5-2.549 0-1.377-.991-2.529-2.5-2.529s-2.5 1.152-2.5 2.529c0 1.382.991 2.549 2.5 2.549zm0-1.026c-.899 0-1.26-.722-1.26-1.523 0-.801.361-1.499 1.26-1.499.903 0 1.26.698 1.26 1.499 0 .801-.357 1.523-1.26 1.523zm3.467.928h1.191v-2.671c0-.85.42-1.211 1.089-1.211.61 0 .932.464.932 1.104V200h1.192v-2.93c0-1.02-.503-2.05-1.782-2.05-.479 0-1.04.19-1.431.668v-.566h-1.191V200z" fill="#fff"/><defs><linearGradient id="paint0_linear" x1="242.5" y1="218" x2="355.174" y2="239.087" gradientUnits="userSpaceOnUse"><stop stop-color="#7D6DFF"/><stop offset="1" stop-color="#59C3FF"/></linearGradient><linearGradient id="paint1_linear" x1="218.5" y1="202" x2="383.145" y2="215.327" gradientUnits="userSpaceOnUse"><stop stop-color="#7D6DFF"/><stop offset="1" stop-color="#59C3FF"/></linearGradient><linearGradient id="paint2_linear" x1="453.5" y1="143" x2="540.72" y2="155.457" gradientUnits="userSpaceOnUse"><stop stop-color="#7D6DFF"/><stop offset="1" stop-color="#59C3FF"/></linearGradient><linearGradient id="paint3_linear" x1="429.5" y1="127" x2="566.977" y2="136.273" gradientUnits="userSpaceOnUse"><stop stop-color="#7D6DFF"/><stop offset="1" stop-color="#59C3FF"/></linearGradient><linearGradient id="paint4_linear" x1="44.5" y1="218" x2="143.169" y2="234.036" gradientUnits="userSpaceOnUse"><stop stop-color="#7D6DFF"/><stop offset="1" stop-color="#59C3FF"/></linearGradient><linearGradient id="paint5_linear" x1="20.5" y1="202" x2="170.072" y2="212.986" gradientUnits="userSpaceOnUse"><stop stop-color="#7D6DFF"/><stop offset="1" stop-color="#59C3FF"/></linearGradient><linearGradient id="paint6_linear" x1="328" y1="183" x2="392.276" y2="186.324" gradientUnits="userSpaceOnUse"><stop stop-color="#7D6DFF"/><stop offset="1" stop-color="#59C3FF"/></linearGradient><linearGradient id="paint7_linear" x1="516" y1="112" x2="580.276" y2="115.324" gradientUnits="userSpaceOnUse"><stop stop-color="#7D6DFF"/><stop offset="1" stop-color="#59C3FF"/></linearGradient><linearGradient id="paint8_linear" x1="80.5" y1="183" x2="180.108" y2="191.013" gradientUnits="userSpaceOnUse"><stop stop-color="#7D6DFF"/><stop offset="1" stop-color="#59C3FF"/></linearGradient></defs></svg>