<svg width="16" height="16" viewBox="0 0 16 16" fill="none" xmlns="http://www.w3.org/2000/svg">
<path d="M9.95 3.44859C9.95 3.2416 9.78953 2.7998 9.30203 2.7998C9.01806 2.7998 8.75623 2.98408 8.67458 3.27065L6.07458 12.3706C6.05751 12.4303 6.04937 12.4903 6.04937 12.5494C6.03172 12.759 6.2125 13.1998 6.7 13.1998C6.98275 13.1998 7.24295 13.0138 7.32461 12.7281L9.92461 3.62815C9.94187 3.56782 9.95 3.5077 9.95 3.44859ZM5.075 5.70652C5.075 5.33521 4.77133 5.05652 4.425 5.05652C4.25868 5.05652 4.09228 5.12 3.96553 5.24697L1.69053 7.52197C1.56348 7.66668 1.5 7.83324 1.5 7.98152C1.5 8.12981 1.56348 8.33293 1.69043 8.45887L3.96543 10.7339C4.09187 10.8618 4.25844 10.9065 4.425 10.9065C4.77133 10.9065 5.075 10.6276 5.075 10.2565C5.075 10.0902 5.01152 9.92381 4.88457 9.79685L3.06914 7.98152L4.88467 6.16599C5.01203 6.0559 5.075 5.89137 5.075 5.70652ZM14.5 7.98152C14.5 7.81521 14.4365 7.64881 14.3096 7.52185L12.0346 5.24685C11.9081 5.13777 11.7416 5.05652 11.575 5.05652C11.2287 5.05652 10.925 5.33541 10.925 5.70652C10.925 5.87284 10.9885 6.03924 11.1154 6.1662L12.931 7.98173L11.1154 9.79726C10.988 9.94168 10.925 10.1082 10.925 10.2565C10.925 10.6278 11.2287 10.9065 11.575 10.9065C11.7413 10.9065 11.9077 10.843 12.0345 10.7161L14.3095 8.44107C14.437 8.33293 14.5 8.16637 14.5 7.98152Z" fill="#979797"/>
</svg>
