<svg width="16" height="16" viewBox="0 0 16 16" fill="none" xmlns="http://www.w3.org/2000/svg">
<path d="M8 0C8 2.08998 7.71597 3.61767 7.0509 4.70869C5.80916 4.40747 4.5281 3.52808 3.05026 2.05026C4.5281 3.52808 5.40747 4.80917 5.70869 6.0509C4.61766 6.71597 3.08998 7 1 7C3.08998 7 4.61766 7.28403 5.70869 7.9491C5.40747 9.19083 4.52808 10.4719 3.05026 11.9497C4.52808 10.4719 5.80913 9.59252 7.05089 9.2913C7.71597 10.3824 8 11.91 8 14C8 11.91 8.28403 10.3824 8.9491 9.2913C10.1909 9.59252 11.4719 10.4719 12.9497 11.9497C11.4719 10.4719 10.5925 9.19085 10.2913 7.94908C11.3824 7.28403 12.9101 6.99998 15 6.99998C12.9101 6.99998 11.3824 6.71595 10.2913 6.05088C10.5925 4.80912 11.4719 3.52806 12.9497 2.05025C11.4719 3.52806 10.1908 4.40746 8.9491 4.70868C8.28403 3.61767 8 2.08998 8 0Z" fill="url(#paint0_linear_18601_8012)"/>
<defs>
<linearGradient id="paint0_linear_18601_8012" x1="1" y1="0.0125335" x2="15.2102" y2="0.0672179" gradientUnits="userSpaceOnUse">
<stop stop-color="#FFBD12"/>
<stop offset="0.53125" stop-color="#E03D3D"/>
<stop offset="1" stop-color="#CD21E9"/>
</linearGradient>
</defs>
</svg>
