<svg width="16" height="16" viewBox="0 0 16 16" fill="none" xmlns="http://www.w3.org/2000/svg">
<path d="M13.3102 5.68083C13.3255 5.56483 13.3335 5.44883 13.3335 5.3335C13.3335 3.7475 11.9048 2.47483 10.3195 2.69016C9.8575 1.86816 8.9775 1.3335 8.00016 1.3335C7.02283 1.3335 6.14283 1.86816 5.68083 2.69016C4.09216 2.47483 2.66683 3.7475 2.66683 5.3335C2.66683 5.44883 2.67483 5.56483 2.69016 5.68083C1.86816 6.1435 1.3335 7.0235 1.3335 8.00016C1.3335 8.97683 1.86816 9.85683 2.69016 10.3195C2.67478 10.4346 2.66699 10.5507 2.66683 10.6668C2.66683 12.2528 4.09216 13.5222 5.68083 13.3102C6.14283 14.1322 7.02283 14.6668 8.00016 14.6668C8.9775 14.6668 9.8575 14.1322 10.3195 13.3102C11.9048 13.5222 13.3335 12.2528 13.3335 10.6668C13.3335 10.5515 13.3255 10.4355 13.3102 10.3195C14.1322 9.85683 14.6668 8.97683 14.6668 8.00016C14.6668 7.0235 14.1322 6.1435 13.3102 5.68083ZM7.3035 10.9442L4.85883 8.46816L5.80816 7.53216L7.31283 9.05616L10.1975 6.1935L11.1362 7.14016L7.3035 10.9442Z" fill="#219653"/>
</svg>
