<svg width="90" height="92" xmlns="http://www.w3.org/2000/svg" xmlns:xlink="http://www.w3.org/1999/xlink"><defs><filter x="-57.7%" y="-57.7%" width="215.4%" height="215.4%" filterUnits="objectBoundingBox" id="filter-2"><feOffset in="SourceAlpha" result="shadowOffsetOuter1"/><feGaussianBlur stdDeviation="10" in="shadowOffsetOuter1" result="shadowBlurOuter1"/><feColorMatrix values="0 0 0 0 0.933333333 0 0 0 0 0.854901961 0 0 0 0 0.196078431 0 0 0 0.59618433 0" in="shadowBlurOuter1"/></filter><path d="M187 83.75c12.564 0 22.75-10.186 22.75-22.75S199.564 38.25 187 38.25 164.25 48.436 164.25 61 174.436 83.75 187 83.75zm0 3.25c-14.36 0-26-11.64-26-26s11.64-26 26-26 26 11.64 26 26-11.64 26-26 26zm-5.688-34.938l14.625 8.594-14.625 8.469V52.062z" id="path-1"/></defs><g id="website-case" stroke="none" stroke-width="1" fill="none" fill-rule="evenodd"><g id="Clovitek-case-web" transform="translate(-948 -1399)" fill-rule="nonzero"><g id="Group-27" transform="translate(0 1202)"><g id="Group-26" transform="translate(102 80)"><g id="Stacked-Group" transform="translate(0 102)"><g id="Group-7" transform="translate(704)"><g id="Combined-Shape"><use fill="#000" filter="url(#filter-2)" xlink:href="#path-1"/><use fill="#EEDA32" xlink:href="#path-1"/></g></g></g></g></g></g></g></svg>