<svg width="92" height="92" xmlns="http://www.w3.org/2000/svg" xmlns:xlink="http://www.w3.org/1999/xlink"><defs><filter x="-57.7%" y="-57.7%" width="215.4%" height="215.4%" filterUnits="objectBoundingBox" id="filter-2"><feOffset in="SourceAlpha" result="shadowOffsetOuter1"/><feGaussianBlur stdDeviation="10" in="shadowOffsetOuter1" result="shadowBlurOuter1"/><feColorMatrix values="0 0 0 0 0.933333333 0 0 0 0 0.854901961 0 0 0 0 0.196078431 0 0 0 0.59618433 0" in="shadowBlurOuter1"/></filter><path d="M211.7 42.54l-5.46-7.02c-.26-.26-.78-.52-1.3-.52h-35.88c-.52 0-1.04.26-1.3.52l-5.46 7.02c-.78.78-1.3 1.56-1.3 2.6V81.8c0 2.86 2.34 5.2 5.2 5.2h41.6c2.86 0 5.2-2.34 5.2-5.2V45.14c0-1.04-.52-1.82-1.3-2.6zM187 76l-13-12.778h7.8V53h10.4v10.222h7.8L187 76zm18-33h-36l1.286-3h33.428L205 43z" id="path-1"/></defs><g id="website-case" stroke="none" stroke-width="1" fill="none" fill-rule="evenodd"><g id="Clovitek-case-web" transform="translate(-243 -1399)" fill-rule="nonzero"><g id="Group-27" transform="translate(0 1202)"><g id="Group-26" transform="translate(102 80)"><g id="Stacked-Group" transform="translate(0 102)"><g id="Group-4"><g id="Shape"><use fill="#000" filter="url(#filter-2)" xlink:href="#path-1"/><use fill="#EEDA32" xlink:href="#path-1"/></g></g></g></g></g></g></g></svg>