<svg width="92" height="82" xmlns="http://www.w3.org/2000/svg" xmlns:xlink="http://www.w3.org/1999/xlink"><defs><filter x="-57.7%" y="-65.2%" width="215.4%" height="230.4%" filterUnits="objectBoundingBox" id="filter-2"><feOffset in="SourceAlpha" result="shadowOffsetOuter1"/><feGaussianBlur stdDeviation="10" in="shadowOffsetOuter1" result="shadowBlurOuter1"/><feColorMatrix values="0 0 0 0 0.933333333 0 0 0 0 0.854901961 0 0 0 0 0.196078431 0 0 0 0.59618433 0" in="shadowBlurOuter1"/></filter><path d="M162.294 38C167.709 44.037 171 51.994 171 60.715c0 8.998-3.503 17.183-9.23 23.285l-2.332-1.53c5.456-5.646 8.81-13.312 8.81-21.755 0-8.165-3.137-15.603-8.278-21.192L162.294 38zm-21.987 6.174a.45.45 0 01.105.29v32.994a.45.45 0 01-.74.345l-11.28-9.461a.45.45 0 00-.29-.105h-7.752a1.35 1.35 0 01-1.35-1.35V55.035c0-.746.604-1.35 1.35-1.35h7.753a.45.45 0 00.289-.106l11.28-9.46a.45.45 0 01.635.055zm14.185-.056c4.336 4.217 7.026 10.095 7.026 16.597 0 6.783-2.929 12.888-7.599 17.135l-2.378-1.56c4.422-3.76 7.224-9.342 7.224-15.575 0-5.95-2.553-11.307-6.63-15.052l2.357-1.545zm-7.44 4.879c2.755 2.97 4.461 7.082 4.461 11.626 0 4.894-1.98 9.288-5.119 12.293l-2.5-1.64c3.123-2.33 5.179-6.29 5.179-10.78 0-4.039-1.662-7.646-4.267-10.027l2.245-1.472z" id="path-1"/></defs><g id="website-case" stroke="none" stroke-width="1" fill="none" fill-rule="evenodd"><g id="Clovitek-case-web" transform="translate(-594 -1404)"><g id="Group-27" transform="translate(0 1202)"><g id="Group-26" transform="translate(102 80)"><g id="Stacked-Group" transform="translate(0 102)"><g id="Group-6" transform="translate(393)"><g id="More-Volume"><use fill="#000" filter="url(#filter-2)" xlink:href="#path-1"/><use fill="#EEDA32" xlink:href="#path-1"/></g></g></g></g></g></g></g></svg>