<svg width="161" height="160" fill="none" xmlns="http://www.w3.org/2000/svg"><path d="M137.273 102.22c-5.14-.326-12.966-.854-16.344-1.971.334-4.603-.819-11.223-6.739-19.33-4.656-6.926-8.471-7.383-8.471-7.383-1.056-2.399-2.818-4.466-4.174-5.834.94-2.7.627-5.572-2.399-7.677.457-2.68-3.351-8.963-5.345-8.191-.651.252-2.211 2.692-3.517 5.473a46.817 46.817 0 00-5.608-.228c-1.744-1.6-6.905-6.03-9.052-4.53-.645.45-.525 4.717-.281 8.063-2.588 3.008-4.748 7.485-.108 12.043.16.156.322.306.485.457.007.423-.017.845-.072 1.264-.281 1.998-1.713 5.748 1.325 13.502 1.104 2.838 2.539 6.225 3.235 9.377.457 2.067.035 4.474-.734 6.12-.99 2.116.53 4.546 2.867 4.546l36.411-.444h21.4s3.362-4.86-2.879-5.257z" fill="#FE7624"/><path d="M76.745 53.29s3.946 3.162 3.97 6.043m13.266-6.598s2.686 2.734 1.827 6.433" stroke="#2E186A" stroke-width=".685" stroke-linecap="round" stroke-linejoin="round"/><path d="M87.453 63.827c.113-.724-.169-1.368-.629-1.44-.46-.072-.924.457-1.037 1.18-.112.724.17 1.369.63 1.44.46.072.924-.457 1.036-1.18zm-6.486.034c.113-.723-.169-1.368-.629-1.44-.46-.071-.924.457-1.037 1.18-.112.725.17 1.37.629 1.44.46.072.924-.456 1.037-1.18z" fill="#2E186A"/><path d="M85.257 68.578c-1.925 1.165-2.324-.658-2.444-1.642-.128.925-.714 2.955-2.097 1.641" stroke="#2E186A" stroke-width=".685" stroke-linecap="round" stroke-linejoin="round"/><path d="M81.396 66.07l1.122.976a.472.472 0 00.601-.018l1.057-.95c.253-.228.091-.589-.267-.593l-2.18-.029c-.379-.005-.591.388-.333.613z" fill="#2E186A"/><path d="M77.594 66.44s-5.641-5.293-12.271-1.28m12.309 2.323s-6.55-4.111-12.29 1.095m23.774-2.616s5.64-5.293 12.271-1.28m-12.316 2.324s6.552-4.112 12.29 1.094m-24.526 6.417c13.336 6.46 21.806-.709 23.441-3.35" stroke="#2E186A" stroke-width=".685" stroke-linecap="round" stroke-linejoin="round"/><path d="M136.866 82.58c0-6.738-6.32-12.203-14.118-12.203-7.359 0-13.402 4.868-14.058 11.078l.186 13.329 15.365-.069c7.095-.644 12.625-5.827 12.625-12.135z" fill="#fff" stroke="#2E186A" stroke-width=".685" stroke-linecap="round" stroke-linejoin="round"/><path d="M114.545 85.946a.422.422 0 01-.266.4.433.433 0 01-.595-.4v-5.73a.415.415 0 01.126-.307.432.432 0 01.466-.093.443.443 0 01.236.233c.022.053.033.11.033.167v1.978a2.144 2.144 0 012.113-.255 2.175 2.175 0 011.156 1.142c.116.264.174.55.173.84v2.023a.434.434 0 01-.598.398.433.433 0 01-.264-.398v-2.022a1.24 1.24 0 00-.102-.499 1.329 1.329 0 00-.689-.689 1.229 1.229 0 00-.499-.102 1.252 1.252 0 00-.502.1 1.296 1.296 0 00-.789 1.19l.001 2.024zm7.602-.866a.42.42 0 01.401.263.41.41 0 01.029.166.434.434 0 01-.123.31 2.309 2.309 0 11-.229-3.669c.38.252.679.609.859 1.028.114.282.172.584.169.888a.414.414 0 01-.267.399.426.426 0 01-.166.03h-3.265a1.43 1.43 0 00.929.944c.148.05.302.074.457.074a1.358 1.358 0 00.92-.33.457.457 0 01.286-.103zm.187-1.439a1.43 1.43 0 00-.53-.735 1.486 1.486 0 00-.862-.282 1.52 1.52 0 00-.865.282c-.124.09-.232.197-.321.32-.091.126-.16.266-.202.415h2.78zm1.537 2.309v-5.734a.428.428 0 01.122-.307.438.438 0 01.613 0 .423.423 0 01.122.307v5.302h.198a.41.41 0 01.304.126c.041.04.073.087.094.14a.4.4 0 01.031.167.426.426 0 01-.429.428h-.632a.408.408 0 01-.301-.126.413.413 0 01-.122-.302zm1.979 0v-5.734a.428.428 0 01.121-.307.44.44 0 01.615 0 .423.423 0 01.122.307v5.302h.198a.41.41 0 01.302.126.406.406 0 01.126.307.412.412 0 01-.126.303.411.411 0 01-.302.125h-.631a.41.41 0 01-.301-.125.414.414 0 01-.124-.303zm6.637-1.88a2.208 2.208 0 01-.675 1.633 2.309 2.309 0 110-3.265c.217.213.388.467.505.747.113.281.171.582.17.886zm-2.308-1.446a1.39 1.39 0 00-.571.114 1.454 1.454 0 00-.764.768 1.44 1.44 0 000 1.121c.146.347.42.623.765.771a1.453 1.453 0 001.134 0c.346-.15.621-.427.769-.773a1.43 1.43 0 00-.31-1.574 1.468 1.468 0 00-.456-.313 1.384 1.384 0 00-.567-.114z" fill="#2E186A"/><path d="M76.085 107.769h83.999" stroke="#2E186A" stroke-width=".685" stroke-linecap="round" stroke-linejoin="round"/><path d="M36.12 68.32a11.409 11.409 0 007.048-6.885 6.989 6.989 0 016.93 6.989c0 .099 0 .197-.008.295l.008-.008v6.675h-6.386a6.99 6.99 0 01-7.592-7.067zm9.739 1.408c.404 0 .68-.311.68-.727 0-.415-.288-.727-.691-.727-.404 0-.681.3-.681.727s.265.727.692.727zm-2.389 0c.405 0 .681-.311.681-.727 0-.415-.287-.727-.692-.727-.404 0-.68.3-.68.727s.264.727.691.727zm-2.387 0c.403 0 .68-.311.68-.727 0-.415-.288-.727-.692-.727-.405 0-.681.3-.681.727s.266.727.693.727z" fill="#FE7624"/><path d="M21.691 57.404a10.785 10.785 0 1110.785 10.92H21.67V57.38l.021.023z" fill="#FE7624"/><path d="M32.099 63.858h.046a.898.898 0 100-1.786h-.046a.898.898 0 000 1.786zm.859-5.033c.15-.202.562-.481 1.236-.838 1.543-.805 2.319-1.88 2.325-3.227 0-1.034-.372-1.882-1.115-2.543-.743-.662-1.72-.992-2.928-.992-2.116 0-3.469.973-4.057 2.92a.693.693 0 101.328.402c.423-1.368 1.309-2.052 2.657-2.052a2.763 2.763 0 011.763.59c.499.393.748.934.748 1.622a2.296 2.296 0 01-.775 1.718c-.36.27-.74.511-1.138.721-.507.285-.829.492-.965.62-.155.158-.28.343-.368.545a2.1 2.1 0 00-.194.698 17.07 17.07 0 00-.035 1.108.647.647 0 101.293 0v-.344c0-.43.075-.747.225-.948z" fill="#fff"/><path d="M74.469 112.702l-6.432-26.487a1.416 1.416 0 00-.891-1.003h2.48a1.091 1.091 0 011.062.842l5.22 22.099h15.484s.9 4.629-4.33 4.629H74.48a.327.327 0 00-.011-.08zM31.018 85.215s35.19.073 35.183.086c0 .187.26.499.45.499a.75.75 0 01.734.574l6.41 26.408H37.013a1.09 1.09 0 01-1.063-.84l-5.996-25.384a1.095 1.095 0 011.063-1.343zm20.157 16.905a2.698 2.698 0 002.499-1.668 2.705 2.705 0 10-2.5 1.668zm-11.225.514a2.624 2.624 0 013.046 1.376 2.63 2.63 0 01-3.046 3.706v.693a3.292 3.292 0 002.627-.563 3.298 3.298 0 001.341-2.327 3.31 3.31 0 00-.83-2.555 3.296 3.296 0 00-3.138-1.022v.692z" fill="#2E186A"/><path d="M29.168 101.281h10.983v8.13a3.37 3.37 0 01-3.37 3.37h-4.243a3.37 3.37 0 01-3.37-3.37v-8.13z" fill="#FE7624"/></svg>