<svg width="160" height="160" fill="none" xmlns="http://www.w3.org/2000/svg"><g clip-path="url(#clip0_10482_73)"><path d="M147.867 88.457l-2.838-2.24v-3.704a.837.837 0 00-.84-.84.838.838 0 00-.839.84v2.38l-18.895-14.895a.838.838 0 00-.538-.18 1.346 1.346 0 00-.451-.078h-19.593a1.347 1.347 0 00-1.345 1.343v.28a1.345 1.345 0 001.345 1.345h19.593a1.34 1.34 0 001.057-.516l18.827 14.842v19.003h-15.918v2.267h16.159a.838.838 0 001.204 0h1.443v-2.267h-1.205v-17.68l1.799 1.418a.837.837 0 001.217-.11.83.83 0 00.17-.643.832.832 0 00-.352-.565z" fill="#FEBA91"/><path d="M134.389 86.478h-31.943v21.614h31.943V86.478z" fill="#fff" stroke="#2E186A" stroke-width=".56" stroke-linecap="round" stroke-linejoin="round"/><path d="M120.368 86.272v21.943" stroke="#2E186A" stroke-width=".56" stroke-linejoin="round"/><path d="M116.068 88.872h14.454m-5.709 7.765h9.286m-19.476 6.302h18.103m-15.574-8.244h-9.359m-5.347 5.277h11.092" stroke="#2E186A" stroke-width=".56" stroke-linecap="round" stroke-linejoin="round"/><path d="M134.482 96.601c2.385.902-.072 2.41-.072 2.41s-.615-1.71-3.758-2.403l3.83-.007z" fill="#fff" stroke="#2E186A" stroke-width=".56" stroke-linecap="round" stroke-linejoin="round"/><path d="M88.617 51.416H22.795A1.387 1.387 0 0021.41 52.8v39.11a1.387 1.387 0 001.384 1.383h25.849l-3.794 14.483 24.007.762-3.909-15.246h23.67A1.387 1.387 0 0090 91.909V52.8a1.388 1.388 0 00-1.384-1.383z" fill="#FE7624"/><path d="M56.404 102.573a2.877 2.877 0 100-5.754 2.877 2.877 0 000 5.754z" fill="#fff"/><path d="M62.764 93.341l3.484 14.835" stroke="#2E186A" stroke-width=".712" stroke-linecap="round" stroke-linejoin="round"/><path d="M82.82 54.045H25.998c-.721 0-1.306.584-1.306 1.305v33.085c0 .72.585 1.305 1.306 1.305h56.82c.721 0 1.306-.584 1.306-1.305V55.35c0-.72-.585-1.305-1.306-1.305z" fill="#fff"/><path d="M87.124 51.747v41.175" stroke="#2E186A" stroke-width=".56" stroke-linecap="round" stroke-linejoin="round"/><path d="M59.86 59.756v26.317m22.259-22.558c-.226.075-22.258-.3-22.258 0m22.258 9.435c-.226.075-22.258-.301-22.258 0m22.258 7.964c-.226.076-22.258-.3-22.258 0m1.974-15.086h9.249m-9.249 1.936h14.72m-14.72 1.541h9.493m-9.493 1.541h3.364m-3.364 4.099h14.72m-14.72 1.541h9.493m-9.493 1.542h3.364m-3.364 4.423h14.72m-14.72 1.541h9.493M28.9 63.525h21.599M28.9 65.263h21.599M28.9 83.742h21.599M31.55 67.764h14.888M31.55 69.55h12.717m-9.925 2.368l16.468.141m-16.468 1.536l16.468.14m-16.468 5.09l16.468.141m-16.468 1.316l16.468.14m-19.514-4.846h9.587M31.296 77.2h9.587m-9.587 5.189h5.517" stroke="#5D21D1" stroke-width=".56" stroke-linecap="round" stroke-linejoin="round"/><path d="M82.119 59.756H26.475v26.318h55.644V59.756z" stroke="#5D21D1" stroke-width=".56" stroke-linecap="round" stroke-linejoin="round"/><path d="M28.448 57.931h2.848m9.587 0h2.304m2.613 0h1.804" stroke="#FE7624" stroke-width=".56" stroke-linecap="round" stroke-linejoin="round"/><path d="M78.609 57.931h1.804m-4.891 0h1.805" stroke="#5D21D1" stroke-width=".56" stroke-linecap="round" stroke-linejoin="round"/><path d="M33.97 57.931h4.122" stroke="#FE7624" stroke-width=".56" stroke-linecap="round" stroke-linejoin="round"/><path d="M82.119 56.229H26.475v3.527h55.644v-3.527z" stroke="#5D21D1" stroke-width=".56" stroke-linecap="round" stroke-linejoin="round"/><path d="M25.697 93.278c-1.772-.53-4.543-1.96-7.277-5.757-2.735-3.797-.747-6.531 1.96-4.418 2.705 2.114 5.317 10.175 5.317 10.175z" fill="#FCFCFC" stroke="#2E186A" stroke-width=".56" stroke-linecap="round" stroke-linejoin="round"/><path d="M25.78 93.122c-1.016-2.348-2.904-6.683-3.197-10.804-.401-5.668 3.787-6.99 5.038-3.012 1.872 5.97-1.841 13.816-1.841 13.816z" fill="#FCFCFC" stroke="#2E186A" stroke-width=".56" stroke-linecap="round" stroke-linejoin="round"/><path d="M33.186 87.679c2.738-3.797.746-6.531-1.96-4.419-2.705 2.112-3.952 5.913-5.318 10.018-.004 0 4.54-1.803 7.278-5.6z" fill="#FCFCFC" stroke="#2E186A" stroke-width=".56" stroke-linecap="round" stroke-linejoin="round"/><path d="M25.904 94.521c-.093-.124.343-2.052-3.299-4.356-3.641-2.303-4.478-1.559-4.945-.717-.466.841 1.649 2.833 3.919 3.985 2.27 1.15 4.325 1.088 4.325 1.088z" fill="#FCFCFC" stroke="#2E186A" stroke-width=".56" stroke-linecap="round" stroke-linejoin="round"/><path d="M25.904 94.521c.094-.124-.342-2.052 3.299-4.356 3.64-2.303 4.478-1.559 4.945-.717.466.841-1.647 2.834-3.918 3.983-2.271 1.148-4.326 1.09-4.326 1.09z" fill="#FCFCFC" stroke="#2E186A" stroke-width=".56" stroke-linecap="round" stroke-linejoin="round"/><path d="M22.534 108.256l-4.232-4.801 3.744-8.679h7.847l3.613 8.828-4.1 4.652h-6.872z" fill="#FEBA91"/><path d="M56.293 105.55H25.28a.982.982 0 00-.982.982v.592c0 .542.44.982.982.982h31.013c.542 0 .982-.44.982-.982v-.592a.982.982 0 00-.982-.982zm-40.975 0H8.791a.982.982 0 00-.982.982v.592c0 .542.44.982.982.982h6.527c.543 0 .983-.44.983-.982v-.592a.982.982 0 00-.983-.982z" fill="#2E186A"/><path d="M66.655 82.212l36.278.3a1.029 1.029 0 01.995.788l5.021 21.256h13.09s.726 3.748-3.505 3.748h-46.11a1.027 1.027 0 01-.995-.788L65.66 83.469a1.026 1.026 0 01.995-1.257z" fill="#5D21D1"/><path d="M106.666 102.519l-3.934-16.56a1.273 1.273 0 00-1.233-.976l-31.406-.373a1.267 1.267 0 00-1.236 1.565l3.952 16.963a1.266 1.266 0 001.234.975l31.391-.033a1.258 1.258 0 00.994-.482 1.267 1.267 0 00.238-1.079z" fill="#fff"/><path d="M73.461 87.485l-.816 1.276 1.316.882m1.261-.183l1.08-1.762m1.211-.097l1.239.965-.767 1.079m1.281 11.584l2.875.002m1.995.001l5.865.002m1.941.001l11.167.007M75.13 99.514h1.76m1.98.002l2.876.002m1.979.001l19.595.01m-28.586-1.727l3.98.002m1.892.001l5.293.002m5.368.003l6.575.004m-10.054-.006l1.864.001m-15.314-1.72l5.48.003m1.669.001l13.934.007m1.669.001l5.438.003M77.19 94.378h2.108m1.364.002l12.967.006m-19.686-.01h1.884m-2.196-1.346l9.976.006m1.529 0l16.934.01m-28.811-1.631l5.478.003m1.849.002l4.066.002m1.724.001h2.319m1.724.002l4.995.003m1.725 0h1.343" stroke="#FE7624" stroke-width=".56" stroke-linecap="round" stroke-linejoin="round"/><path d="M91.83 83.81s1.633 7.278 3.12 8.424h11.75a3.524 3.524 0 01-2.388-2.44l-1.68-5.97-10.801-.013z" fill="#FEBA91"/><path d="M94.32 86.404h7.091m-6.774 1.33h7.091m-6.725 1.368h4.706M.28 108.304h159.44" stroke="#2E186A" stroke-width=".56" stroke-linecap="round" stroke-linejoin="round"/></g><defs><clipPath id="clip0_10482_73"><path fill="#fff" transform="translate(0 51.416)" d="M0 0h160v57.168H0z"/></clipPath></defs></svg>