<svg width="160" height="160" fill="none" xmlns="http://www.w3.org/2000/svg"><g clip-path="url(#clip0_10482_186)"><path d="M101.145 110.881V63.899h25.173v46.982" stroke="#5D21D1" stroke-width=".558" stroke-linecap="round" stroke-linejoin="round"/><path d="M126.581 63.507h-20.238v2.476h20.238v-2.476z" fill="#5D21D1"/><path d="M113.72 53.917H26.387a1.624 1.624 0 00-1.618 1.621v47.739a1.624 1.624 0 001.618 1.618h30.274l-.976 5.909h26.88l-.911-5.907h32.066a1.622 1.622 0 001.618-1.618v-47.74a1.623 1.623 0 00-1.618-1.622z" fill="#FE7624"/><path d="M109.564 56.602H29.079c-.963 0-1.743.78-1.743 1.742v42.442c0 .962.78 1.742 1.743 1.742h80.485c.962 0 1.742-.78 1.742-1.742V58.344c0-.962-.78-1.742-1.742-1.742z" fill="#fff"/><path d="M108.941 62.134h-7.435v37.251h7.435V62.134zm-11.228.161h-23.03v35.573h23.03V62.295z" stroke="#FE7624" stroke-width=".558" stroke-linecap="round" stroke-linejoin="round"/><path d="M72.058 62.134H31.255v17.588h40.803V62.134z" fill="#FE7624"/><path d="M31.255 65.144c1.405-.867 3.647-1.625 6.908-1.046 6.305 1.121 4.12 5.432 7.128 9.583 2.732 3.774 6.819 4.71 10.477-.16 3.794-5.053 8.008-.678 9.659 1.471 1.336 1.74 4.465 2.205 6.63 1.067" stroke="#FEBA91" stroke-width=".558" stroke-linecap="round" stroke-linejoin="round"/><path d="M52.588 69.202a2.122 2.122 0 100-4.244 2.122 2.122 0 000 4.244z" stroke="#FEBA91" stroke-width=".558" stroke-linecap="round" stroke-linejoin="round"/><path d="M68.495 82.515h-6.53c-.803 0-1.454.651-1.454 1.454v.168c0 .803.65 1.454 1.454 1.454h6.53c.804 0 1.455-.651 1.455-1.454v-.168c0-.803-.651-1.454-1.455-1.454z" stroke="#5D21D1" stroke-width=".558" stroke-linecap="round" stroke-linejoin="round"/><path d="M68.256 86.496a2.38 2.38 0 100-4.761 2.38 2.38 0 000 4.761z" fill="#5D21D1"/><path d="M72.359 87.942H31.255v2.46h41.104v-2.46zm0 7.466H31.255v2.46h41.104v-2.46z" fill="#FE7624"/><path d="M31.255 82.515H55.26m-24.005 1.352H55.26M31.255 85.22h15.647m56.931 25.133h1.129l-.363-3.098.234-2.857 1.251-.093.173 2.71s.495 2.971.778 3.334h-1.174" stroke="#2E186A" stroke-width=".558" stroke-linecap="round" stroke-linejoin="round"/><path d="M106.417 98.493c.169-.407.015-.858-.346-1.009-.36-.15-.79.058-.959.464-.17.406-.015.858.345 1.008.361.15.79-.057.96-.463z" fill="#2E186A" stroke="#2E186A" stroke-width=".558" stroke-linecap="round" stroke-linejoin="round"/><path d="M104.601 99.771s-1.116-1.355-4.13-.52" stroke="#2E186A" stroke-width=".558" stroke-linecap="round" stroke-linejoin="round"/><path d="M106.086 104.309v-4.21l-1.485-.323.234 4.622 1.251-.089z" fill="#2E186A" stroke="#2E186A" stroke-width=".558" stroke-linecap="round" stroke-linejoin="round"/><path d="M78.539 110.353h-1.13l.363-3.098-.233-2.857-1.252-.093-.173 2.71s-.495 2.971-.777 3.334h1.174" stroke="#2E186A" stroke-width=".558" stroke-linecap="round" stroke-linejoin="round"/><path d="M76.91 98.967c.361-.15.516-.602.346-1.008-.17-.407-.599-.614-.96-.464-.36.15-.515.602-.345 1.008.17.407.6.614.96.464z" fill="#2E186A" stroke="#2E186A" stroke-width=".558" stroke-linecap="round" stroke-linejoin="round"/><path d="M77.772 99.772s1.117-1.356 4.131-.52" stroke="#2E186A" stroke-width=".558" stroke-linecap="round" stroke-linejoin="round"/><path d="M76.287 104.309v-4.21l1.485-.323-.234 4.623-1.25-.09z" fill="#2E186A" stroke="#2E186A" stroke-width=".558" stroke-linecap="round" stroke-linejoin="round"/><path d="M103.041 73.496h-23.92v34.975h23.92V73.496z" fill="#FEBA91"/><path d="M99.54 77.478H82.415v6.04H99.54v-6.04z" fill="#fff"/><path d="M82.415 83.518l17.125-6.04m-17.125 0l17.125 6.04" stroke="#FEBA91" stroke-width=".558" stroke-linecap="square" stroke-linejoin="round"/><path d="M99.54 85.51H82.415v3.507H99.54V85.51zm0 4.877H82.415v3.507H99.54v-3.507zm-10.41 13.01h-2.013v2.014h2.013v-2.014zm1.108 1.016h4.917" stroke="#fff" stroke-width=".558" stroke-linecap="round" stroke-linejoin="round"/><path d="M96.65 97.14H85.51v3.233h11.14V97.14z" fill="#fff"/><path d="M87.74 98.89h6.791" stroke="#FEBA91" stroke-width=".558" stroke-linecap="square" stroke-linejoin="round"/><path d="M76.51 100.384s.684 3.864 3.655-.418m25.698.418s-.684 3.864-3.655-.418" stroke="#2E186A" stroke-width=".558" stroke-linecap="round" stroke-linejoin="round"/><path d="M92.24 63.908h-1.588v7.125h1.663l-.075-7.125z" stroke="#5D21D1" stroke-width=".558" stroke-linecap="round" stroke-linejoin="round"/><path d="M142.558 100.208h-14.166v4.008h14.166v-4.008zm7.767-1.054h-5.719v3.363h5.719v-3.363z" fill="#2E186A"/><path d="M91.424 72.35v1.88s.854.181.854.89c0 .883-.696.85-.854.85-.157 0-.755-.035-.706-.838" stroke="#5D21D1" stroke-width=".558" stroke-linecap="round" stroke-linejoin="round"/><path d="M89.897 69.619V70.9c0 .4.107.792.312 1.136l.336.558a.864.864 0 00.744.422h.412a.863.863 0 00.745-.42l.338-.557c.209-.346.319-.741.319-1.145V69.62a.558.558 0 00-.559-.558h-2.09a.558.558 0 00-.557.558z" fill="#5D21D1"/><path d="M93.392 62.295l51.753 20.808" stroke="#5D21D1" stroke-width=".558" stroke-linecap="round" stroke-linejoin="round"/><path d="M144.381 104.216h-23.268a3.084 3.084 0 00-3.084 3.084v.001a3.084 3.084 0 003.084 3.084h23.268a3.085 3.085 0 003.085-3.084v-.001a3.085 3.085 0 00-3.085-3.084z" fill="#5D21D1"/><path d="M144.38 104.216h-23.268a3.084 3.084 0 00-3.084 3.084v.001a3.084 3.084 0 003.084 3.084h23.268a3.085 3.085 0 003.085-3.084v-.001a3.085 3.085 0 00-3.085-3.084z" stroke="#FE7624" stroke-width=".558" stroke-linecap="round" stroke-linejoin="round" stroke-dasharray="2.75 2.75"/><path d="M150.044 94.429h-4.652V84.297a1.016 1.016 0 00.159-1.565 1.015 1.015 0 00-1.564.165 1.013 1.013 0 00.017 1.131l-10.399 10.401h-1.325v-3.218a.948.948 0 00-.948-.948h-1.145l-15.295-14.717-21.043-14.411a.734.734 0 00-.89-.073l-2.505 1.707c-.326.227-.388.702-.14 1.062l.474.682c.249.36.716.465 1.043.242l1.46-.996L110.84 80.5l14.236 9.834a.956.956 0 00-.551.614l-.609 2.097a18.16 18.16 0 00-.431 8.267l26.557-.018a.948.948 0 00.947-.948V95.38a.947.947 0 00-.945-.95zm-5.432-9.9v9.9h-9.899l9.899-9.9z" fill="#5D21D1"/><path d="M144.316 94.677v6.326m6.449-1.439h-27.158m22.601-3.653v3.653m.866-3.653v3.653m.867-3.653v3.653m.868-3.653v3.653m.867-3.653v3.653" stroke="#968BB4" stroke-width=".558" stroke-linecap="round" stroke-linejoin="round"/><path d="M128.78 99.434v-8.86" stroke="#968BB4" stroke-width=".558" stroke-linecap="square" stroke-linejoin="round"/><path d="M137.132 102.583v-9.35m2.977 0v9.35m-2.977-7.653h2.977m-2.977 1.329h2.977m-2.977 1.329h2.977m-2.977 1.328h2.977m-2.977 1.33h2.977m-2.977 1.328h2.977" stroke="#FE7624" stroke-width=".558" stroke-linecap="round" stroke-linejoin="round"/><path d="M14.854 110.832V65.038h22.351v45.704" stroke="#5D21D1" stroke-width=".558" stroke-linecap="round" stroke-linejoin="round"/><path d="M37.464 63.8h-22.85v2.476h22.85v-2.475zm-.259 35.997H14.854v2.834h22.351v-2.834z" fill="#5D21D1"/><path d="M116.325 57.492s-1.511-2.837-1.874-5.49c-.404.006-1.528.055-1.528.055s1.059 4.226 1.488 5.434l1.914.001z" fill="#2E186A" stroke="#2E186A" stroke-width=".558" stroke-linecap="round" stroke-linejoin="round"/><path d="M112.81 52.128s-.837 2.71-2.817 2.89" stroke="#2E186A" stroke-width=".558" stroke-linecap="round" stroke-linejoin="round"/><path d="M113.694 50.678c.374-.112.574-.545.447-.967-.126-.422-.532-.672-.906-.56-.374.113-.575.546-.448.967.127.422.533.673.907.56z" fill="#2E186A" stroke="#2E186A" stroke-width=".558" stroke-linecap="round" stroke-linejoin="round"/><path d="M119.9 63.26h-1.452l-2.123-5.771h-1.914M29.06 52.447s.836 2.71 2.816 2.89" stroke="#2E186A" stroke-width=".558" stroke-linecap="round" stroke-linejoin="round"/><path d="M30.681 58.148v-3.466c0-.54.558-.977 1.245-.977h82.103c.69 0 1.248.438 1.248.977v3.466c0 .54-.558.978-1.245.978H60.21c-.46 0-.882-.2-1.099-.518l-1.023-1.51c-.217-.317-.64-.517-1.099-.517H44.636c-.447 0-.861.186-1.083.496l-1.116 1.553c-.222.306-.636.496-1.083.496h-9.428c-.688 0-1.245-.438-1.245-.978z" fill="#FEBA91"/><path d="M33.577 57.291a.876.876 0 100-1.753.876.876 0 000 1.753zm2.665 0a.876.876 0 100-1.753.876.876 0 000 1.753zm2.665 0a.876.876 0 100-1.753.876.876 0 000 1.753z" fill="#5D21D1"/><path d="M29.083 50.431c.127-.421-.074-.854-.448-.967-.374-.112-.78.139-.906.56-.127.422.073.855.447.967.374.113.78-.138.907-.56zm-3.539 7.377s1.511-2.838 1.874-5.49c.405.005 1.528.054 1.528.054s-1.058 4.226-1.489 5.435h-1.913z" fill="#2E186A" stroke="#2E186A" stroke-width=".558" stroke-linecap="round" stroke-linejoin="round"/><path d="M27.566 52.325s1.535 4.967 5.364 1.9m-10.961 9.354h1.453l2.122-5.771h1.915l.913 2.886-.646 2.885h1.453m85.125-11.576s-1.535 4.967-5.364 1.9M17.937 89.881s1.014 4.31 4.487 1.894" stroke="#2E186A" stroke-width=".558" stroke-linecap="round" stroke-linejoin="round"/><path d="M48.445 92.751L12.91 89.55l-.192 2.126 35.535 3.203.192-2.127z" fill="#FE7624"/><path d="M24.263 98.802l-1.292.727-.605-3.054-2.26-2.363-1.735.26 1.897 2.709-1.897 2.443h1.897" stroke="#2E186A" stroke-width=".558" stroke-linecap="round" stroke-linejoin="round"/><path d="M17.98 89.849s-.887 2.963.39 4.523a9.219 9.219 0 001.887-.186s-1.416-3.184-.043-4.338H17.98zm1.147-.96c.36-.15.515-.602.345-1.008-.17-.407-.6-.615-.96-.464-.36.15-.515.602-.345 1.008.17.407.6.614.96.464z" fill="#2E186A" stroke="#2E186A" stroke-width=".558" stroke-linecap="round" stroke-linejoin="round"/><path d="M20.258 89.833s1.185 2.037 3.586.703" stroke="#2E186A" stroke-width=".558" stroke-linecap="round" stroke-linejoin="round"/><path d="M67.318 93.634s1.65.325 2.17 1.903m-1.928-3.286s2.316.456 3.047 2.672" stroke="#5D21D1" stroke-width=".558" stroke-linecap="round" stroke-linejoin="round"/><path d="M62.194 104.301c0-3.21 1.846-4.211 1.846-4.211m3.182-3.93c.337.478.732.94.94 1.59a1.333 1.333 0 01-.717 1.622l-1.832.391m.679 10.588h-1.13l.363-3.099-.233-2.855-1.252-.093-.173 2.709s-.495 2.972-.778 3.335h1.174" stroke="#2E186A" stroke-width=".558" stroke-linecap="round" stroke-linejoin="round"/><path d="M64.662 98.965c.36-.15.515-.602.346-1.009-.17-.406-.6-.614-.96-.463-.36.15-.515.602-.345 1.008.17.406.599.614.96.463zm-.622 5.342v-4.21l1.485-.323-.234 4.623-1.251-.09z" fill="#2E186A" stroke="#2E186A" stroke-width=".558" stroke-linecap="round" stroke-linejoin="round"/><path d="M53 110.029l-.914.372-1.601-2.528-2.058-2.186-1.534.685 2.14 1.759-.983 2.394h1.345" stroke="#2E186A" stroke-width=".558" stroke-linecap="round" stroke-linejoin="round"/><path d="M66.82 86.015L43.027 99.627" stroke="#5D21D1" stroke-width=".558" stroke-linecap="round" stroke-linejoin="round"/><path d="M48.577 105.834s-2.08-2.153-4.23-2.185c-.668.622-.914 1.019-.914 1.019s3.293 1.321 3.971 2.123c.213-.123 1.173-.957 1.173-.957zm-7.8-1.313c.43-.099.707-.487.62-.868-.088-.381-.507-.609-.936-.511-.43.099-.706.488-.62.868.088.381.507.609.936.511z" fill="#2E186A" stroke="#2E186A" stroke-width=".558" stroke-linecap="round" stroke-linejoin="round"/><path d="M43.53 104.716s-4.007-2.358-.504-5.089m1.363 3.972s-3.66-1.931-.156-4.662M.28 110.881h159.44" stroke="#2E186A" stroke-width=".558" stroke-linecap="round" stroke-linejoin="round"/></g><defs><clipPath id="clip0_10482_186"><path fill="#fff" transform="translate(0 48.84)" d="M0 0h160v62.321H0z"/></clipPath></defs></svg>