<svg width="160" height="160" fill="none" xmlns="http://www.w3.org/2000/svg"><path d="M27.292 83.397a11.614 11.614 0 01-.765 3.98m.844-2.599l7.427 1.37m.571 1.642l-8.273-1.527m8.037.715l-7.9-1.457" stroke="#2E186A" stroke-width=".522" stroke-linecap="round" stroke-linejoin="round"/><path d="M34.506 84.729l-8.432-1.557c-.598-.11-1-.648-.898-1.201.102-.553.67-.912 1.268-.802l7.405 1.367m2.477 8.822l-11.382-2.1c-.598-.11-1-.648-.897-1.2.101-.554.669-.914 1.267-.803l10.375 1.912" stroke="#2E186A" stroke-width=".522" stroke-linecap="round" stroke-linejoin="round"/><path d="M15.27 97.83c-1.61.502-5.428 2.021-3.587 4.694" stroke="#2E186A" stroke-width="1.304" stroke-linecap="round" stroke-linejoin="round"/><path d="M23.132 96.188l15.235 2.257M22.41 94.739l15.652 2.318m-14.949.562l15.73 2.33M22.71 99.07l16.856 2.497m-17.736-1.363l12.074 1.789m-15.391-9.049c1.673.211 4.631.988 4.622 4.24-.008 3.169-2.85 4.187-4.622 4.297" stroke="#FE7624" stroke-width=".522" stroke-linecap="round" stroke-linejoin="round"/><path d="M30.417 101.996l-11.908.116V91.766l18.937 3.701" stroke="#FE7624" stroke-width=".522" stroke-linecap="round" stroke-linejoin="round"/><path d="M36.423 91.823l-18.904-3.46a1.564 1.564 0 00-1.843 1.538v14.366" stroke="#FE7624" stroke-width=".522" stroke-linecap="round" stroke-linejoin="round"/><path d="M31.725 61.187l57.4-.529a1.956 1.956 0 011.878 1.35l12.112 37.295 43.36.34s-.174 5.797-3.943 5.797H40.497l-11.71-40.305a3.087 3.087 0 012.938-3.949z" stroke="#2E186A" stroke-width=".522" stroke-linecap="round" stroke-linejoin="round"/><path d="M88.717 63.599l10.671 31.974a.88.88 0 01-.836 1.158l-53.584-.108a.882.882 0 01-.842-.63L34.7 64.236a.88.88 0 01.841-1.13l52.338-.108a.878.878 0 01.84.6z" stroke="#FE7624" stroke-width=".522" stroke-linecap="round" stroke-linejoin="round"/><path d="M57.949 75.865c.644-.758.317-2.094-.73-2.986-1.048-.89-2.42-.999-3.064-.241-.645.758-.318 2.094.73 2.985s2.42 1 3.064.242zm-4.642 4.784c-.276-2.252 1.162-3.947 3.548-3.947 2.387 0 4.921 1.691 6.112 3.937M76.56 87.36c.644-.758.317-2.094-.73-2.985-1.048-.891-2.42-1-3.064-.242-.645.758-.318 2.095.73 2.986 1.047.89 2.42.999 3.064.241zm-4.638 4.812c-.291-2.265 1.15-3.973 3.545-3.973s4.975 1.726 6.15 4.01m-7.702-18.724c.644-.758.317-2.094-.73-2.985-1.048-.891-2.42-1-3.064-.242-.644.758-.318 2.095.73 2.986 1.048.89 2.42.999 3.064.24zm-4.635 4.839c-.306-2.279 1.137-3.998 3.542-3.998 2.418 0 4.997 1.738 6.165 4.04" stroke="#FE7624" stroke-width=".522" stroke-linecap="round" stroke-linejoin="round"/><path d="M61.983 72.002l2.858 8.786H51.53l-3.22-9.897h10.213m20.565 2.234l1.72 5.283H67.494l-3.22-9.896h13.313l.912 2.803m-9.343 17.943l-2.237-6.87h13.313l3.22 9.896H70.14l-.33-1.015" stroke="#FE7624" stroke-width=".522" stroke-linecap="round" stroke-linejoin="round"/><path d="M63.362 71.912h-4.508l-.573-1.761h4.508l.573 1.76zm17.698 1.213h-4.508l-.573-1.76h4.508l.573 1.76zM70.706 91.101h-4.509l-.573-1.76h4.508l.574 1.76zM46.231 70.89l3.22 9.898m16.463-1.906l.62 1.906h8.417m-11.473 1.581h1.902l1.616 4.966M63.8 67.05c.103.078 13.342.087 13.313 0" stroke="#FE7624" stroke-width=".522" stroke-linecap="round" stroke-linejoin="round"/><path d="M32.186 61.178s-1.532.156-.568 3.443c.964 3.287 11.618 40.645 11.618 40.645m59.379-6.244h-61.08m104.421 2.683h-45.874m.33-2.683s-.291 6.897-3.943 6.526" stroke="#2E186A" stroke-width=".522" stroke-linecap="round" stroke-linejoin="round"/><path d="M55.931 100.403h-3.537a1.302 1.302 0 00-1.304 1.304v1.257a1.306 1.306 0 001.304 1.303h3.537a1.305 1.305 0 001.304-1.303v-1.257a1.303 1.303 0 00-1.304-1.304zm.782 2.561a.783.783 0 01-.782.782h-3.537a.785.785 0 01-.782-.782v-1.293h5.098v.036l.003 1.257zm7.087-2.561h-3.538a1.302 1.302 0 00-1.303 1.304v1.257a1.306 1.306 0 001.303 1.303H63.8a1.305 1.305 0 001.304-1.303v-1.257a1.303 1.303 0 00-1.304-1.304zm.782 2.561a.783.783 0 01-.782.782h-3.538a.785.785 0 01-.782-.782v-1.293h5.102v1.293zm-18.134-2.242H44.47a.952.952 0 00-.952.952v1.229c0 .526.426.952.952.952h1.978a.952.952 0 00.952-.952v-1.229a.952.952 0 00-.952-.952z" fill="#FE7624"/><path d="M11.683 102.527c2.044 2.971 10.083 2.481 17.68.214 7.596-2.267 14.792-.409 14.792-.409" stroke="#2E186A" stroke-width="1.304" stroke-linecap="round" stroke-linejoin="round"/><path d="M66.45 60.1h-9.268a1.76 1.76 0 00-1.13.409l-.551.459 2.452-.023a1.896 1.896 0 00-.019.26v.534a.625.625 0 00.626.626h7.887c.347 0 .63-.494.63-1.103v-.058c.003-.611-.28-1.104-.628-1.104z" fill="#2E186A"/><path d="M63.714 59.26h-3.95v1.03h3.95v-1.03zm2.969-5.084h-9.776a1.043 1.043 0 00-1.043 1.043v2.998a1.043 1.043 0 001.043 1.043h9.776a1.043 1.043 0 001.043-1.043V55.22a1.043 1.043 0 00-1.043-1.043zm-7.91 4.533a.26.26 0 010 .522.907.907 0 01-.906-.907v-3.212a.906.906 0 01.905-.906.26.26 0 010 .521.385.385 0 00-.384.385v3.217a.386.386 0 00.384.38h.001zm4.94-.135c-.827 0-1.5-.791-1.5-1.764s.674-1.765 1.5-1.765 1.5.791 1.5 1.763c0 .972-.672 1.766-1.5 1.766z" fill="#2E186A"/><path d="M63.713 55.567c-.54 0-.978.557-.978 1.241s.434 1.242.978 1.242c.543 0 .978-.557.978-1.242 0-.685-.438-1.24-.978-1.24z" fill="#2E186A"/><path d="M60.913 57.447c.29 0 .525-.285.525-.637 0-.352-.235-.637-.525-.637-.29 0-.525.285-.525.637 0 .352.235.637.525.637z" fill="#FE7624"/><path d="M.259 105.549h159.478" stroke="#2E186A" stroke-width=".522" stroke-linecap="round" stroke-linejoin="round"/><path d="M130.652 45.956l-7.047-2.95-1.132-5.73a1.646 1.646 0 00-1.241-1.28l-15.229-3.552a2.649 2.649 0 00-2.126.412L86.338 45.177a1.645 1.645 0 00-.613 1.875l1.817 5.373-4.4 5.14c-1.17 1.535-.638 5.517.132 7.286l16.575 36.472a10.178 10.178 0 004.014 4.62l15.961 8.895a5.31 5.31 0 004.155.605 5.327 5.327 0 003.301-2.593l7.977-15.48a10.173 10.173 0 001.182-5.996l-2.562-41.096a5.333 5.333 0 00-3.225-4.322z" fill="#5D21D1"/><path d="M90.38 42.338l45.326 37.301-.733-11.758-38.751-29.647-5.842 4.104zm8.916-6.263l35.446 28.105-.346-5.554-31.65-24.976-3.45 2.425z" fill="#9C77E3"/><path d="M127.479 48.999l-6.643-3.257-1.068-5.41-12.77-3.107-13.57 9.463 1.526 4.509-5.091 6.887c-.93 1.226-.349 4.796.262 6.209l13.391 31.133a9.347 9.347 0 003.581 4.21l12.328 7.831a4.252 4.252 0 005.955-1.588l5.375-9.926a16.82 16.82 0 001.973-9.322l-2.673-34.182a4.256 4.256 0 00-2.576-3.45z" stroke="#fff" stroke-width=".697" stroke-linecap="round" stroke-linejoin="round"/><path d="M122.554 78.366c-.516-1.833-2.941-2.456-5.217-2.712l-.929-4.528c2.99-1.666 7.689-5.088 4.643-8.342-1.562-1.666-4.314-2.125-6.849-2.396l-.861-4.194c1.358.132 4.073.38 4.081-2.058.007-2.171-2.928-2.266-4.924-2.04l-1.024-4.986s-.094-1.384-1.936-.959c-1.843.425-1.321 1.71-1.321 1.71l1.22 4.944c-2.677.89-7.394 3.075-5.402 7.337 1.702 3.642 5.333 3.85 8.155 3.804l1.378 5.573c-3.089 1.78-6.217 3.685-5.064 6.268.973 2.182 4.733 2.608 7.297 2.756l1.062 4.296c-1.247.783-2.748 1.7-3.195 2.174-.723.766-1.146 2.026 1.571.8.598-.27 1.327-.639 2.089-1.082l.851 3.44s.18 1.027 1.006.95c.825-.079.613-1.492.613-1.492l-.813-3.947c2.175-1.506 4.087-3.474 3.569-5.316zm-7.171-14.316c2.035.617 3.464 2.143.422 4.151l-.872-4.24c.152.017.303.047.45.089zm-6.879-5.293c-.326-1.436.552-2.09 1.814-2.384l.915 3.7c-1.476-.205-2.55-.525-2.729-1.316zm5.288 16.643c-1.734-.165-1.285-1.67.484-3.012l.765 3.093c-.485-.027-.913-.049-1.249-.081zm4.784 6.285l-.618-3.006c.059.007.119.017.177.03 1.111.27 2.134.977.441 2.976z" fill="#fff"/><path d="M115.246 54.333c.232-.135.251-.536.042-.896-.208-.36-.566-.542-.799-.407-.232.135-.251.536-.042.895.209.36.567.543.799.408z" fill="#9C77E3"/></svg>