<svg width="160" height="160" fill="none" xmlns="http://www.w3.org/2000/svg"><g clip-path="url(#clip0_10482_409)"><path d="M74.035 54.958a13.34 13.34 0 00-2.202.208l2.344 13.29-4.498 12.726a13.5 13.5 0 004.64.77c7.404-.077 13.432-6.236 13.355-13.638-.078-7.403-6.235-13.428-13.64-13.356z" fill="#5D21D1"/><path d="M57.859 68.945a13.523 13.523 0 008.96 12.574l4.537-12.713-13.497.14z" fill="#FEBA91"/><path d="M68.287 52.72a13.498 13.498 0 00-11.152 13.432l13.497-.142-2.345-13.29z" fill="#FE7624"/><path d="M81.94 55.285a1.244 1.244 0 100-2.488 1.244 1.244 0 000 2.488z" fill="#5D21D1"/><path d="M58.69 79.788a1.244 1.244 0 100-2.489 1.244 1.244 0 000 2.489z" fill="#FEBA91"/><path d="M57.446 57.862a1.244 1.244 0 100-2.488 1.244 1.244 0 000 2.488z" fill="#FE7624"/><path d="M84.295 53.273h10.75m-10.75 1.535h3.203" stroke="#5D21D1" stroke-width=".604" stroke-linecap="round" stroke-linejoin="round"/><path d="M143.909 83.078c-4.663-7.226-9.757-10.4-11.701-11.418-.019-1.945-1.637-3.678-6.358-4.516-10.561-1.954-13.238.911-13.85 3.728l-7.846-.16-10.026-3.823-4.744 5.02c-.892 1.207-.805 4.735 2.338 7.745 2.191 2.105 10.041 7.287 14.585 10.225l.442 20.444 33.321.201-1.569-8.16c.847-.04.604-.064.859-.072 7.358-.237 10.46-10.053 4.549-19.214z" fill="#FE7624"/><path d="M111.9 74.178c-.035-.805-.173-2.05.101-3.306l-3.904-.08c.041 1.447.511 5.798 4.627 6.701a8.368 8.368 0 01-.824-3.315zm24.304.163a24.71 24.71 0 00-3.996-2.68c.027 2.837-3.351 6.126-5.467 7.745.106.015.219.028.341.036 2.716.186 9.165-3.457 10.26-4.083a26 26 0 01-1.138-1.018z" fill="#2E186A"/><path d="M133.957 87.764s2.392-3.644 6.761-1.455m-10.697-2.849s1.936 3.551 3.802 3.202c0 0 2.042-3.294 6.237-2.091" stroke="#2E186A" stroke-width=".604" stroke-linecap="round" stroke-linejoin="round"/><path d="M114.603 79.1s.949 4.112.637 7.028m10.078-6.798s-2.065 4.296-2.348 7.216" stroke="#2E186A" stroke-width=".805" stroke-linecap="round" stroke-linejoin="round"/><path d="M127.438 70.829l1.343 1.38s-6.396 4.865-8.476 16.587c-1.353 7.615-.891 8.47-.891 8.47l-3.966-.212s2.213-12.665.834-16.673c-1.379-4.007-.119-8.508.812-9.237.932-.728 10.344-.316 10.344-.316z" fill="#fff"/><path d="M125.659 66.353l.37 3.13 1.268 1.458s-3.752 2.32-7.343 6.407c0 0-2.937-3.102-3.452-7.961l6.883.853.54-2.689 1.734-1.198zm1.107-4.278s2.392.046 1.963 2.187c-.428 2.14-3.071.905-3.071.905l.354-3.044.754-.048z" fill="#fff" stroke="#2E186A" stroke-width=".604" stroke-linecap="round" stroke-linejoin="round"/><path d="M119.952 55.328c-.63-.053-4.949-.324-5.422 3.279-.473 3.603.037 7.581.437 9.398.401 1.817 8.667.976 9.135.814.468-.162 1.026-.712 1.026-.712l1.134-5.532s.461-6.683-6.31-7.247z" fill="#fff" stroke="#2E186A" stroke-width=".604" stroke-linecap="round" stroke-linejoin="round"/><path d="M125.461 62.53c-.402.398-1.485 2.686-1.749 3.754 0 0-2.677-.897-6.513-.952 0 0-2.092.042-2.926.289 0 0 .181 3.779 1.877 5.733 1.696 1.955 5.281 1.409 6.962.233s1.96-1.737 2.349-2.997c.389-1.26 1.417-5.952 1.417-5.952l-1.417-.107z" fill="#968BB4"/><path d="M126.557 63.336s1.124-1.74 1.557-3.547c.403-1.7-.382-3.48-1.955-4.242-1.317-.638-2.294-.138-2.294-.138s1.399-2.379-.704-4.48a3.822 3.822 0 00-2.805-1.119 3.676 3.676 0 00-3.351 2.24s-2.736-5.035-8.355-2.056c-.567.302-1.207 1.14-1.508 1.703-1.856 3.42 4.259 7.471 7.443 7.792 3.496.351 5.543-.228 6.668-1.083-.838.504.104 5.734 5.304 4.93z" fill="#2E186A"/><path d="M117.188 63.875l-.378 3.292 1.161-.297" stroke="#2E186A" stroke-width=".604" stroke-linecap="round" stroke-linejoin="round"/><path d="M115.911 64.454c.186 0 .337-.234.337-.522 0-.288-.151-.522-.337-.522-.186 0-.337.234-.337.522 0 .288.151.522.337.522zm3.248-.057c.186 0 .337-.234.337-.522 0-.288-.151-.522-.337-.522-.186 0-.337.233-.337.522 0 .288.151.522.337.522z" fill="#2E186A"/><path d="M120.684 61.46a1.547 1.547 0 00-1.464-.576m-3.098-.054s-.935-.244-1.17.52" stroke="#2E186A" stroke-width=".604" stroke-linecap="round" stroke-linejoin="round"/><path d="M119.425 67.952a3.975 3.975 0 01-1.099.737s.058 1.006 1.215.674c.717-.201.624-.838.448-1.29a.352.352 0 00-.25-.211.344.344 0 00-.314.09zM95.498 72.8c1.08-2.456.468-5.102-1.368-5.91-1.836-.807-4.2.53-5.28 2.986-1.08 2.456-.468 5.102 1.368 5.91 1.836.807 4.2-.53 5.28-2.986z" fill="#2E186A"/><path d="M84.379 67.854c-1.845-.832-2.105.126-1.567.603.67.592 3.88 2.27 3.88 2.27s-2.594-.19-3.256 1.27c-.662 1.458.031 1.578 1.021.934.99-.644 4.035.193 4.035.193l.92.905s3.15 1.137 4.091-2.36a3.56 3.56 0 00-.57-3.427c-.364-.442-1.63-2.3-5.977-3.42 0 0-2.044-.286-.528.756.38.258.781.487 1.198.684" fill="#fff"/><path d="M84.379 67.854c-1.845-.832-2.105.126-1.567.603.67.592 3.88 2.27 3.88 2.27s-2.594-.19-3.256 1.27c-.662 1.458.031 1.578 1.021.934.99-.644 4.035.193 4.035.193l.92.905s3.15 1.137 4.091-2.36a3.56 3.56 0 00-.57-3.427c-.364-.442-1.63-2.3-5.977-3.42 0 0-2.044-.286-.528.756.38.258.781.487 1.198.684" stroke="#2E186A" stroke-width=".604" stroke-linecap="round" stroke-linejoin="round"/><path d="M87.263 69.086c-.645-.31-3.35-1.16-3.986-1.918-.635-.758.187-1.213 2.492-.146" fill="#fff"/><path d="M87.263 69.086c-.645-.31-3.35-1.16-3.986-1.918-.635-.758.187-1.213 2.492-.146" stroke="#2E186A" stroke-width=".604" stroke-linecap="round" stroke-linejoin="round"/><path d="M88.29 67.937c-.07-.093-4.507-1.408-4.207-2.038.246-.517.885-.666 3.335.266l1.966.865" fill="#fff"/><path d="M88.29 67.937c-.07-.093-4.507-1.408-4.207-2.038.246-.517.885-.666 3.335.266l1.966.865" stroke="#2E186A" stroke-width=".604" stroke-linecap="round" stroke-linejoin="round"/><path d="M134.03 110.596l-39.15-.022-.28-27.433 39.149-.4.281 27.855z" fill="#fff" stroke="#2E186A" stroke-width=".604" stroke-linecap="round" stroke-linejoin="round"/><path d="M131.328 102.94h-32.75a.3.3 0 01-.302-.301.304.304 0 01.302-.302h32.749a.302.302 0 010 .603h.001zm0-3.912h-32.75a.301.301 0 110-.604h32.749a.3.3 0 110 .604h.001zm0-3.914h-32.75a.301.301 0 110-.604h32.749a.3.3 0 110 .603h.001zm0-3.915h-32.75a.301.301 0 110-.604h32.749a.3.3 0 110 .603h.001z" fill="#968BB4"/><path d="M121.225 88.37l-4.589.046.184 17.865 4.589-.047-.184-17.865z" fill="#5D21D1"/><path d="M129.062 94.78l-4.613.047.118 11.454 4.613-.048-.118-11.453zm-15.499 0l-4.613.048.118 11.453 4.613-.047-.118-11.454zm-7.574 11.463l-4.588.046-.069-5.49 4.589-.046.068 5.49z" fill="#FE7624"/><path d="M98.58 87.047v19.242h32.748" stroke="#2E186A" stroke-width=".604" stroke-linecap="round" stroke-linejoin="round"/><path d="M102.084 107.427h2.697m5.201 0h2.697" stroke="#FE7624" stroke-width=".604" stroke-linecap="round" stroke-linejoin="round"/><path d="M117.722 107.427h2.697" stroke="#5D21D1" stroke-width=".604" stroke-linecap="round" stroke-linejoin="round"/><path d="M125.48 107.427h2.697" stroke="#FE7624" stroke-width=".604" stroke-linecap="round" stroke-linejoin="round"/><path d="M97.227 91.57a.302.302 0 01-.302-.302v-.472a.302.302 0 01.604 0v.468a.301.301 0 01-.302.306zm0 3.778a.302.302 0 01-.302-.302v-.468a.302.302 0 01.604 0v.468a.302.302 0 01-.302.302zm0 4.147a.302.302 0 01-.302-.301v-.468a.302.302 0 01.604 0v.468a.302.302 0 01-.302.301zm0 3.914a.304.304 0 01-.213-.088.304.304 0 01-.089-.214v-.468a.304.304 0 01.515-.214.304.304 0 01.089.214v.468a.304.304 0 01-.302.302z" fill="#968BB4"/><path d="M138.964 98.654c2.168 0 3.925-2.175 3.925-4.858s-1.757-4.859-3.925-4.859-3.925 2.176-3.925 4.859 1.757 4.858 3.925 4.858z" fill="#2E186A"/><path d="M129.646 94.455c-2.022.019-1.875-.962-1.193-1.179.852-.273 4.467-.516 4.467-.516s-2.452-.871-2.471-2.474c-.019-1.602.665-1.43 1.308-.442.643.989 3.771 1.447 3.771 1.447l1.207-.458s3.34.227 2.795 3.807a3.556 3.556 0 01-1.902 2.907c-.511.258-2.414 1.45-6.848.724 0 0-1.987-.56-.179-.905a8.72 8.72 0 011.372-.142" fill="#fff"/><path d="M129.646 94.455c-2.022.019-1.875-.962-1.193-1.179.852-.273 4.467-.516 4.467-.516s-2.452-.871-2.471-2.474c-.019-1.602.665-1.43 1.308-.442.643.989 3.771 1.447 3.771 1.447l1.207-.458s3.34.227 2.795 3.807a3.556 3.556 0 01-1.902 2.907c-.511.258-2.414 1.45-6.848.724 0 0-1.987-.56-.179-.905a8.72 8.72 0 011.372-.142" stroke="#2E186A" stroke-width=".604" stroke-linecap="round" stroke-linejoin="round"/><path d="M132.783 94.488c-.716.024-3.535-.286-4.426.152-.891.438-.318 1.185 2.222 1.136" fill="#fff"/><path d="M132.783 94.488c-.716.024-3.535-.286-4.426.152-.891.438-.318 1.185 2.222 1.136" stroke="#2E186A" stroke-width=".604" stroke-linecap="round" stroke-linejoin="round"/><path d="M133.261 95.954c-.101.057-4.693-.527-4.672.17.018.574.543.967 3.16 1.1h2.148" fill="#fff"/><path d="M133.261 95.954c-.101.057-4.693-.527-4.672.17.018.574.543.967 3.16 1.1h2.148" stroke="#2E186A" stroke-width=".604" stroke-linecap="round" stroke-linejoin="round"/><path d="M79.746 88.778c1.922-.756 1.284-1.436.529-1.34-.945.12-4.485 1.313-4.485 1.313s1.874-1.586 1.078-2.796c-.797-1.21-1.356-.822-1.466.166-.11.988-2.977 2.406-2.977 2.406l-1.188.302s-2.475 2.002-.1 4.487a3.383 3.383 0 003.066 1.223c.54-.078 2.581-.234 6.4-2.464 0 0 1.593-1.176-.29-.746-.465.107-.922.245-1.37.414" fill="#fff"/><path d="M79.746 88.778c1.922-.756 1.284-1.436.529-1.34-.945.12-4.485 1.313-4.485 1.313s1.874-1.586 1.078-2.796c-.797-1.21-1.356-.822-1.466.166-.11.988-2.977 2.406-2.977 2.406l-1.188.302s-2.475 2.002-.1 4.487a3.383 3.383 0 003.066 1.223c.54-.078 2.581-.234 6.4-2.464 0 0 1.593-1.176-.29-.746-.465.107-.922.245-1.37.414" stroke="#2E186A" stroke-width=".604" stroke-linecap="round" stroke-linejoin="round"/><path d="M76.798 89.997c.69-.255 3.196-1.56 4.256-1.57 1.06-.009.906.77-1.522 1.7" fill="#fff"/><path d="M76.798 89.997c.69-.255 3.196-1.56 4.256-1.57 1.06-.009.906.77-1.522 1.7" stroke="#2E186A" stroke-width=".604" stroke-linecap="round" stroke-linejoin="round"/><path d="M77.092 91.277c.126.005 4.167-2.18 4.503-1.648.275.437-.021.932-2.428 2.027l-2.03.818" fill="#fff"/><path d="M77.092 91.277c.126.005 4.167-2.18 4.503-1.648.275.437-.021.932-2.428 2.027l-2.03.818" stroke="#2E186A" stroke-width=".604" stroke-linecap="round" stroke-linejoin="round"/><path d="M34.08 73.495c1.554-.989 6.798-.518 10.88.989l-1.654 3.161-8.332-1.318-.894-2.832z" fill="#2E186A"/><path d="M35.209 76.22v-8.374l7.353 4.43-.173 4.5-7.18-.556z" fill="#fff" stroke="#2E186A" stroke-width=".604" stroke-linecap="round" stroke-linejoin="round"/><path d="M44.946 58.87c-2.993-2.073-5.691-2.833-9.914 2.578l-.576 3.563c-1.775-.535-2.71.331-2.324 1.878.416 1.667 1.382 2.414 2.989 1.982.77 1.75 2.226 3.755 4.928 4.341 4.24.919 5.22-1.705 5.69-2.736.473-1.03 2.2-9.534-.793-11.607z" fill="#fff" stroke="#2E186A" stroke-width=".604" stroke-linecap="round" stroke-linejoin="round"/><path d="M43.533 65.394l.366 3.19-1.191-.03" stroke="#2E186A" stroke-width=".604" stroke-linecap="round" stroke-linejoin="round"/><path d="M45.186 65.873c.196 0 .356-.246.356-.55 0-.304-.16-.55-.356-.55-.197 0-.356.246-.356.55 0 .304.159.55.356.55zm-3.426-.06c.196 0 .355-.246.355-.55 0-.304-.159-.55-.356-.55-.196 0-.356.246-.356.55 0 .304.16.55.356.55z" fill="#2E186A"/><path d="M39.846 62.848a1.63 1.63 0 011.544-.604" stroke="#FFFDFD" stroke-width=".604" stroke-linecap="round" stroke-linejoin="round"/><path d="M44.663 62.183s.986-.257 1.234.55m-4.705 6.505s.167 1.053 1.136.882" stroke="#2E186A" stroke-width=".604" stroke-linecap="round" stroke-linejoin="round"/><path d="M29.333 55.044c-1.902-3.722-4.966-4.048-8.494-3.346-3.527.702-5.502 5.45-5.626 5.89-1.44 5.13.468 10.62 4.703 13.859.469.359.94.722 1.389 1.074 2.489 1.95-3.024 3.612-3.024 3.612 10.562.847 8.258-9.722 8.033-10.662 3.38-1.283 4.788-6.964 3.019-10.427z" fill="#2E186A"/><path d="M25.784 58.82c-.336.862.09 1.833.952 2.169l6.117 2.385a1.675 1.675 0 002.168-.952v-.001a1.675 1.675 0 00-.951-2.169l-6.117-2.385a1.675 1.675 0 00-2.169.952z" fill="#FE7624"/><path d="M47.91 62.508c-.036-2.59-.659-4.86-2.224-6.36a3.005 3.005 0 00-.88-.695c-1.277-.827-3.01-1.268-5.31-1.187a.356.356 0 00-.14.038 9.51 9.51 0 00-1.073.16c-.193.03-.385.075-.572.134-.635.172-1.253.399-1.848.68-5.156 2.223-7.186 6.221-4.88 11.743 1.19 2.848 2.733 3.764 4.224 3.767v-1.725c-.127-.275-.337-.168-.337-.168-1.609.434-2.324-.34-2.74-2.006-.2-.805-.043-1.425.403-1.76l.034-.025.056-.036.035-.022.062-.032.036-.017a.846.846 0 01.069-.03l.033-.012.077-.026.024-.007c.146-.04.295-.063.446-.068h.15l.117.006h.026l.124.013h.018c.208.029.413.074.613.135.138.041.037.106.185.164l.371-.025c.128 0 .259-.013.396-.03 3.256-.392 8.313-2.72 10.115-5.713 1.271 1.541 1.408 4.58 1.177 7.142.767-1.186 1.235-2.553 1.214-4.038z" fill="#2E186A"/><path d="M40.107 62.17a1.63 1.63 0 011.544-.604" stroke="#FFFDFD" stroke-width=".604" stroke-linecap="round" stroke-linejoin="round"/><path d="M73.324 93.572c0-4.042-.455-7.831-7.452-7.17a6.964 6.964 0 00-.608.132l-8.16 1.753-6.336-9.135a4.94 4.94 0 00-3.897-2.514l-2.102-.178.195-1.974s-.293.712-2.606 1.147c-3.128.587-8.278-2.138-8.278-2.138v3.108c0 .037-3.873.236-5.651 1.346-1.778 1.11-2.534 3.277-3.784 6.323-1.25 3.046-5.214 13.847-5.307 14.572-.094.724-.966 4.972 1.358 7.484 1.971 2.13 6.061 5.693 10.308 4.252l20.598-.301c-1.303-3.14-1.744-7.227-1.833-11.105.472.246.958.462 1.456.648 18.793 4.527 20.318-.642 20.318-.642 1.089-1.342 1.78-3.354 1.78-5.608z" fill="#5D21D1"/><path d="M26.694 94.145s2.36-2.29 5.455-.881l.554-7.733m2.231 11.233s.275-1.75-2.785-3.5m16.203-10.587s4.038 2.904 1.358 11.93l.42 5.911" stroke="#FFFDFD" stroke-width=".604" stroke-linecap="round" stroke-linejoin="round"/><path d="M40.177 99.2c-.782-2.448-3.387-2.646-3.387-2.646-.914-.2-1.843-.325-2.777-.374-.503.659-1.788 2.055-2.734 4.828l.508.686s1.61.669 2.342.956c.94.367 1.91.402 2.767-.222l.1-.075.551-2.971c-.36-.522-.216-1.225.638-.805.854.42.17 1.477 1.287 1.574 1.116.098.705-.95.705-.95z" fill="#fff" stroke="#2E186A" stroke-width=".604" stroke-linecap="round" stroke-linejoin="round"/><path opacity=".5" d="M83.619 88.446c-12.56 9.922-20.218 3.694-26.053 4.573-5.834.88-6.727 3.778-12.003 5.85-3.264 1.283-8.492 1.099-10.487.772v8.557h48.543V88.446z" fill="#fff"/><path d="M86.031 107.881H35.074m7.111-8.145v.603" stroke="#FE7624" stroke-width=".604" stroke-linecap="round" stroke-linejoin="round"/><path d="M42.185 101.726v4.859" stroke="#FE7624" stroke-width=".604" stroke-linecap="round" stroke-linejoin="round" stroke-dasharray="1.39 1.39"/><path d="M42.185 107.278v.603m15.38-14.727v.604" stroke="#FE7624" stroke-width=".604" stroke-linecap="round" stroke-linejoin="round"/><path d="M57.565 94.987v11.676" stroke="#FE7624" stroke-width=".604" stroke-linecap="round" stroke-linejoin="round" stroke-dasharray="1.23 1.23"/><path d="M57.565 107.278v.603m15.048-14.084v.603" stroke="#FE7624" stroke-width=".604" stroke-linecap="round" stroke-linejoin="round"/><path d="M72.613 95.571v11.122" stroke="#FE7624" stroke-width=".604" stroke-linecap="round" stroke-linejoin="round" stroke-dasharray="1.17 1.17"/><path d="M72.613 107.278v.603" stroke="#FE7624" stroke-width=".604" stroke-linecap="round" stroke-linejoin="round"/><path d="M37.062 99.641c1.995.327 5.235.511 8.5-.771 5.275-2.073 6.162-4.972 12.003-5.85 5.84-.88 13.494 5.348 26.052-4.574" stroke="#FEBA91" stroke-width=".805" stroke-linecap="round" stroke-linejoin="round"/><path d="M72.613 94.473a.676.676 0 100-1.352.676.676 0 000 1.352zm-15.048-.704a.676.676 0 100-1.352.676.676 0 000 1.352zm-15.379 6.642a.676.676 0 100-1.351.676.676 0 000 1.351z" fill="#FE7624"/><path d="M35.46 99.927s2.353 2.313 3.246 1.81c.894-.503 1.36-.92 1.36-1.509 0-.588-.931-.967-1.397 0 0 0-1.61-.893-1.773-1.488" fill="#fff"/><path d="M35.46 99.927s2.353 2.313 3.246 1.81c.894-.503 1.36-.92 1.36-1.509 0-.588-.931-.967-1.397 0 0 0-1.61-.893-1.773-1.488" stroke="#2E186A" stroke-width=".604" stroke-linecap="round" stroke-linejoin="round"/><path d="M34.128 100.68s2.122 2.102 3.09 1.842c0 0 .827-.228.965-.735" fill="#fff"/><path d="M34.128 100.68s2.122 2.102 3.09 1.842c0 0 .827-.228.965-.735" stroke="#2E186A" stroke-width=".604" stroke-linecap="round" stroke-linejoin="round"/><path d="M31.427 101.206s2.204 2.917 3.028 3.127c.823.209.594-.831-1.006-2.917" fill="#fff"/><path d="M31.427 101.206s2.204 2.917 3.028 3.127c.823.209.594-.831-1.006-2.917" stroke="#2E186A" stroke-width=".604" stroke-linecap="round" stroke-linejoin="round"/><path d="M.353 110.596h159.295" stroke="#2E186A" stroke-width=".704" stroke-linecap="round" stroke-linejoin="round"/></g><defs><clipPath id="clip0_10482_409"><path fill="#fff" transform="translate(0 49.052)" d="M0 0h160v61.897H0z"/></clipPath></defs></svg>