<svg width="160" height="160" fill="none" xmlns="http://www.w3.org/2000/svg"><g clip-path="url(#clip0_10482_537)"><path d="M76.094 48.582s3.32-2.67 1.973-3.796c-1.346-1.126-3.287 2.356-8.095 3.276-3.791.727-11.84 11.355-6.053 17.307 5 5.138 11.705 6.152 11.705 6.152l12.747-5.91s-14.66-5.786-13.752-8.298c.91-2.512 1.475-8.73 1.475-8.73z" fill="#fff" stroke="#2E186A" stroke-width=".697" stroke-linecap="round" stroke-linejoin="round"/><path d="M95.882 46.123H76.304v9.072h19.578v-9.072z" fill="#FEBA91"/><path d="M78.806 52.997h5.351m-5.351-1.566h14.238M78.806 49.93h14.238m-14.238-1.5h14.238" stroke="#2E186A" stroke-width=".697" stroke-linecap="round" stroke-linejoin="round"/><path d="M70.164 48.015c3.25-1.072 8.65-.349 9.376.068.727.417.844 1.991-.864 1.933-1.707-.058-5.066-.528-5.066-.528 2.554.724 5.708 1.767 6.102 2.233.602.712-.409 2.042-2.134 1.5l-4.954-1.375s5.42 2.09 6.014 2.568c.593.478 0 2.48-3.285.992-3.285-1.487-3.584-1.307-3.584-1.307s3.92 2.007 4.616 2.596c.696.588-1.51 2.713-5.053.212 0 0-.654 2.618-3.961 1.444" fill="#fff"/><path d="M70.164 48.015c3.25-1.072 8.65-.349 9.376.068.727.417.844 1.991-.864 1.933-1.707-.058-5.066-.528-5.066-.528 2.554.724 5.708 1.767 6.102 2.233.602.712-.409 2.042-2.134 1.5l-4.954-1.375s5.42 2.09 6.014 2.568c.593.478 0 2.48-3.285.992-3.285-1.487-3.584-1.307-3.584-1.307s3.92 2.007 4.616 2.596c.696.588-1.51 2.713-5.053.212 0 0-.654 2.618-3.961 1.444" stroke="#2E186A" stroke-width=".697" stroke-linecap="round" stroke-linejoin="round"/><path d="M108.39 126.948l2.532-12.986s-3.294-15.107-2.218-18.436c1.076-3.328 4.699-7.243 4.699-7.243l-10.377-4.049-.173-16.073c1.893.717 20.949 8.462 20.949 8.462s15.99 3.12 18.574 3.96c7.049 2.283 18.296 9.592 1.676 28.431l2.002 17.841" fill="#5D21D1"/><path d="M121.822 73.206l1.973 3.502-1.436-.565c-.336.588-5.927 9.968 3.831 12.138 6.401 1.425 12.574-2.765 15.924-7.374l-4.179-1.827-4.411-10.355-11.702 4.481z" fill="#fff" stroke="#2E186A" stroke-width=".697" stroke-linecap="round" stroke-linejoin="round"/><path d="M60.315 109.638l-4.24 15.563h25.49l-4.127-15.693-17.123.13z" fill="#FE7624"/><path d="M68.471 120.152a3.08 3.08 0 100-6.16 3.08 3.08 0 000 6.16zm6.81-9.883l3.407 14.508" stroke="#2E186A" stroke-width=".697" stroke-linecap="round" stroke-linejoin="round"/><path d="M103.163 65.384H32.287c-.706 0-1.277.572-1.277 1.277v42.277c0 .705.571 1.277 1.277 1.277h70.876c.706 0 1.277-.572 1.277-1.277V66.661c0-.705-.571-1.277-1.277-1.277z" fill="#FE7624"/><path d="M96.873 68.198H35.8c-.705 0-1.277.572-1.277 1.277v35.661c0 .705.572 1.277 1.277 1.277h61.072c.705 0 1.277-.572 1.277-1.277V69.475c0-.705-.572-1.277-1.277-1.277zm4.487-2.46v44.082m-41.138.359h17.25" stroke="#2E186A" stroke-width=".697" stroke-linecap="round" stroke-linejoin="round"/><path d="M79.316 87.166a6.768 6.768 0 100-13.536 6.768 6.768 0 000 13.536z" fill="#FEBA91"/><path d="M73.049 79.878h-1.042v1.041h1.042v-1.041zm13.503 0h-1.041v1.041h1.041v-1.041zM79.837 86.7h-1.041v1.041h1.041v-1.04zm0-13.602h-1.041v1.041h1.041V73.1z" fill="#2E186A"/><path d="M86.119 73.64h-13.6v13.57h13.6V73.64z" stroke="#2E186A" stroke-width=".464" stroke-linecap="round" stroke-linejoin="round"/><path d="M73.037 73.098h-1.041v1.041h1.04V73.1zm13.568 0h-1.041v1.041h1.041V73.1zM73.037 86.722h-1.041v1.041h1.04v-1.04zm13.568 0h-1.041v1.041h1.041v-1.04zm2.223 37.857H48.813c-.705 0-1.277.571-1.277 1.277v.146c0 .705.572 1.277 1.277 1.277h40.015c.705 0 1.277-.572 1.277-1.277v-.146c0-.706-.572-1.277-1.277-1.277z" fill="#2E186A"/><path d="M84.248 82.62s-.644-3.77.549-6.305c2.636-5.6 1.838 7.266 4.5 7.756" fill="#fff"/><path d="M84.248 82.62s-.644-3.77.549-6.305c2.636-5.6 1.838 7.266 4.5 7.756" stroke="#2E186A" stroke-width=".697" stroke-linecap="round" stroke-linejoin="round"/><path d="M131.411 95.82l-8.745 10.409S100.547 94.71 94.739 88.054c-5.32-5.572-6.501-5.622-6.501-5.622s-6.782.167-8.92.913c-2.136.747-9.14 3.069-8.744 4.18.282.786 4.099.348 6.057.046l3.688 4.827s1.742-.496 2.741-.392c2.054.212 4.335 1.028 5.483.392 0 0 11.208 20.753 32.505 28.209a9.153 9.153 0 006.783-.278c5.285-2.379 15.075-8.591 20.101-16.62l-16.521-7.889z" fill="#fff" stroke="#2E186A" stroke-width=".697" stroke-linecap="round" stroke-linejoin="round"/><path d="M80.142 84.907s-4.654 2.68-4.331 4.482c.322 1.802 1.751 1.31 1.751 1.31" fill="#fff"/><path d="M80.142 84.907s-4.654 2.68-4.331 4.482c.322 1.802 1.751 1.31 1.751 1.31" stroke="#2E186A" stroke-width=".697" stroke-linecap="round" stroke-linejoin="round"/><path d="M81.153 86.8s-3.94 2.74-3.483 4.511c.458 1.772 1.845 1.177 1.845 1.177" fill="#fff"/><path d="M81.153 86.8s-3.94 2.74-3.483 4.511c.458 1.772 1.845 1.177 1.845 1.177" stroke="#2E186A" stroke-width=".697" stroke-linecap="round" stroke-linejoin="round"/><path d="M82.46 89.11s-4.682 3.367-1.93 4.372c2.75 1.005 3.671.377 3.671.377s1.045-1.497-1.84-1.943" fill="#fff"/><path d="M82.46 89.11s-4.682 3.367-1.93 4.372c2.75 1.005 3.671.377 3.671.377s1.045-1.497-1.84-1.943" stroke="#2E186A" stroke-width=".697" stroke-linecap="round" stroke-linejoin="round"/><path d="M114.968 55.822c-.744 2.462-2.871 14.144 4.823 17.042 7.695 2.897 14.912-2.919 17.646-10.112s1.022-14.224-3.807-16.17c-4.829-1.948-13.27-8.58-18.662 9.24z" fill="#fff" stroke="#2E186A" stroke-width=".697" stroke-linecap="round" stroke-linejoin="round"/><path d="M147.57 41.9l-2.349-1.788-3.147 4.136 2.35 1.788 3.146-4.137z" fill="#FE7624"/><path d="M149.156 43.09a5.2 5.2 0 10-.001-10.399 5.2 5.2 0 00.001 10.4zm-6.064-.207c-3.778-3.039-8.159-5.466-12.858-5.43-14.494.787-18.135 10.073-14.595 16.322 2.361-6.663 5.211-9.234 8.058-9.858.943 4.903 7.609 11.42 14.893 14.345-.009.07-.02.143-.031.215 2.105.528 5.19 1.935 4.028 5.572-1.604 5.025-6.49 2.812-7.105 2.51a18.562 18.562 0 01-1.865 2.38l1.845 3.995 16.136 2.473a1.566 1.566 0 002.103-1.4c.303-6.586 1.458-21.155-10.609-31.125z" fill="#2E186A"/><path d="M134.509 65.95l.909.58s5.456 2.89 7.169-2.476c1.299-4.07-2.71-5.35-4.722-5.73" fill="#fff"/><path d="M134.509 65.95l.909.58s5.456 2.89 7.169-2.476c1.299-4.07-2.71-5.35-4.722-5.73m-17.25 8.08s1.406 1.55 3.185-.188m-2.304-4.233l-2.384-.609 4.033-8.981m7.261 2.471s-1.193-2.206-3.036-1.393m-7.05-1.694s-1.488-2.023-3.2-.96" stroke="#2E186A" stroke-width=".697" stroke-linecap="round" stroke-linejoin="round"/><path d="M126.826 58.03c.149-.68-.087-1.31-.527-1.407-.44-.096-.918.377-1.067 1.058-.15.68.086 1.31.527 1.407.44.097.918-.377 1.067-1.057zm-8.442-1.824c.149-.68-.087-1.31-.527-1.407-.44-.097-.918.377-1.068 1.057-.149.681.087 1.311.527 1.408.44.096.918-.377 1.068-1.058z" fill="#2E186A"/><path d="M134.6 58.032c.822-3.679-.773-7.167-3.564-7.791-2.79-.624-5.719 1.853-6.542 5.532-.822 3.68.774 7.167 3.564 7.791 2.791.624 5.72-1.853 6.542-5.532zm-14.406-2.92c.822-3.68-.773-7.168-3.564-7.791-2.791-.624-5.719 1.853-6.542 5.532-.822 3.679.773 7.167 3.564 7.79 2.791.625 5.719-1.852 6.542-5.531zm.412-.93l4.016.885m10.443 1.708l4.414 2.047" stroke="#FE7624" stroke-width=".697" stroke-linecap="round" stroke-linejoin="round"/><path d="M50.17 103.037l16.493-8.138-8.137-16.493-16.494 8.137 8.137 16.494z" fill="#fff"/><path d="M45.041 98.927l-.011.87.87.012" stroke="#2E186A" stroke-width=".697" stroke-linecap="round" stroke-linejoin="round"/><path d="M47.75 99.833l13.875.184" stroke="#2E186A" stroke-width=".697" stroke-linecap="round" stroke-linejoin="round" stroke-dasharray="1.85 1.85"/><path d="M62.55 100.028l.87.012.012-.87" stroke="#2E186A" stroke-width=".697" stroke-linecap="round" stroke-linejoin="round"/><path d="M63.456 97.32l.183-13.875" stroke="#2E186A" stroke-width=".697" stroke-linecap="round" stroke-linejoin="round" stroke-dasharray="1.85 1.85"/><path d="M63.651 82.52l.012-.87-.87-.013" stroke="#2E186A" stroke-width=".697" stroke-linecap="round" stroke-linejoin="round"/><path d="M60.942 81.613l-13.874-.182" stroke="#2E186A" stroke-width=".697" stroke-linecap="round" stroke-linejoin="round" stroke-dasharray="1.85 1.85"/><path d="M46.143 81.418l-.87-.012-.012.871" stroke="#2E186A" stroke-width=".697" stroke-linecap="round" stroke-linejoin="round"/><path d="M45.237 84.128L45.053 98" stroke="#2E186A" stroke-width=".697" stroke-linecap="round" stroke-linejoin="round" stroke-dasharray="1.85 1.85"/><path d="M49.576 93.637s-23.751-.275-26.909 23.477" stroke="#2E186A" stroke-width=".697" stroke-linecap="round" stroke-linejoin="round"/><path d="M49.531 94.494a.881.881 0 100-1.762.881.881 0 000 1.762zm-8.198 30.096h-7.522a.831.831 0 00-.831.832v.467c0 .459.372.832.83.832h7.523c.46 0 .831-.373.831-.832v-.467a.831.831 0 00-.83-.832z" fill="#2E186A"/><path d="M37.899 67.114l-12.394 4.123 4.123 12.393 12.394-4.123-4.123-12.393z" fill="#fff" stroke="#2E186A" stroke-width=".697" stroke-linecap="round" stroke-linejoin="round"/><path d="M29.595 83.52L37.9 67.11m-12.393 4.124l16.517 8.27" stroke="#2E186A" stroke-width=".697" stroke-linecap="round" stroke-linejoin="round"/><path d="M55.065 62.05l-14.842-2.6-2.553 14.59 14.842 2.598 2.553-14.587z" fill="#5D21D1"/><path d="M51.678 69.877l-3.461-.606-.606 3.462 3.461.606.606-3.462zm-.005.013l-4.06 2.846m5.056-8.668l-10.955-1.917-.578 3.3 10.955 1.919.578-3.302zm-12.607 7.5l5.572.976M40.3 70.215l5.573.975m-5.336-2.33l5.572.976m-5.335-2.331l5.572.976m-5.212-3.026l11.532-1.383" stroke="#fff" stroke-width=".464" stroke-linecap="round" stroke-linejoin="round"/><path d="M84.67 95.387h-8.252a1.838 1.838 0 00-1.838 1.838v.21c0 1.016.823 1.839 1.838 1.839h8.252a1.838 1.838 0 001.838-1.838v-.211a1.838 1.838 0 00-1.837-1.838z" stroke="#2E186A" stroke-width=".697" stroke-linecap="round" stroke-linejoin="round"/><path d="M84.369 100.258a3.008 3.008 0 100-6.015 3.008 3.008 0 000 6.015z" fill="#fff"/><path d="M80.1 102.442h9.025M.347 126.961h159.304" stroke="#2E186A" stroke-width=".697" stroke-linecap="round" stroke-linejoin="round"/></g><defs><clipPath id="clip0_10482_537"><path fill="#fff" transform="translate(0 32.691)" d="M0 0h160v94.618H0z"/></clipPath></defs></svg>