
<svg xmlns="http://www.w3.org/2000/svg" width="32" height="32" viewBox="0 0 32 32" fill="none">
    <path d="M7.06699 24.9332C7.33366 25.1998 7.60033 25.3332 8.00033 25.3332C8.40033 25.3332 8.66699 25.1998 8.93366 24.9332L16.0003 17.8665L23.067 24.9332C23.3337 25.1998 23.7337 25.3332 24.0003 25.3332C24.267 25.3332 24.667 25.1998 24.9337 24.9332C25.467 24.3998 25.467 23.5998 24.9337 23.0665L17.867 15.9998L24.9337 8.93317C25.467 8.39984 25.467 7.59984 24.9337 7.0665C24.4003 6.53317 23.6003 6.53317 23.067 7.0665L16.0003 14.1332L8.93366 7.0665C8.40032 6.53317 7.60033 6.53317 7.06699 7.0665C6.53366 7.59984 6.53366 8.39984 7.06699 8.93317L14.1337 15.9998L7.06699 23.0665C6.53366 23.5998 6.53366 24.3998 7.06699 24.9332Z" fill="white"/>
</svg>
