
<svg xmlns="http://www.w3.org/2000/svg" width="42" height="42" viewBox="0 0 42 42" fill="none">
    <path d="M20.9446 30.5721C20.7001 30.3262 20.5629 29.9935 20.5629 29.6468C20.5629 29.3 20.7001 28.9674 20.9446 28.7214L26.9821 22.6971H10.5102C10.1621 22.6971 9.82829 22.5588 9.58215 22.3126C9.33601 22.0665 9.19773 21.7327 9.19773 21.3846C9.19773 21.0365 9.33601 20.7026 9.58215 20.4565C9.82829 20.2104 10.1621 20.0721 10.5102 20.0721H26.9427L20.9446 14.0739C20.6957 13.8268 20.5552 13.4909 20.554 13.1401C20.5527 12.7894 20.6909 12.4525 20.938 12.2036C21.1852 11.9547 21.5211 11.8142 21.8718 11.813C22.2226 11.8118 22.5595 11.9499 22.8083 12.1971L31.1558 20.5577C31.3763 20.7791 31.5 21.0787 31.5 21.3911C31.5 21.7035 31.3763 22.0032 31.1558 22.2246L22.8083 30.5721C22.6863 30.6951 22.5412 30.7927 22.3812 30.8594C22.2213 30.926 22.0497 30.9603 21.8765 30.9603C21.7032 30.9603 21.5317 30.926 21.3717 30.8594C21.2118 30.7927 21.0666 30.6951 20.9446 30.5721Z" fill="#131426"/>
</svg>
