<?xml version="1.0" encoding="UTF-8"?>
<svg xmlns="http://www.w3.org/2000/svg" width="56" height="56" viewBox="0 0 56 56" fill="none">
  <path fill-rule="evenodd" clip-rule="evenodd" d="M26.938 2.03369C26.0242 1.9288 25.1038 2.16362 24.352 2.69345C23.6002 3.22328 23.0695 4.0111 22.861 4.9069C22.7351 5.44755 22.1948 5.78381 21.6542 5.65795C21.1135 5.5321 20.7773 4.99179 20.9031 4.45114C21.2235 3.0748 22.0389 1.86435 23.194 1.0503C24.3491 0.23624 25.7633 -0.12456 27.1672 0.0365997C28.5711 0.197759 29.8667 0.869621 30.8074 1.92425C31.748 2.97887 32.2679 4.3426 32.268 5.75575V5.75588V12.9096L36.0749 12.9097L38.15 10.8348L38.4444 10.5404H38.8607H47.3433C47.7738 9.18701 49.0407 8.20655 50.5367 8.20655C52.387 8.20655 53.887 9.70656 53.887 11.5569C53.887 13.4072 52.387 14.9072 50.5367 14.9072C49.0323 14.9072 47.7596 13.9157 47.3362 12.5506H39.277L37.2019 14.6256L36.9075 14.92L36.4912 14.92L31.2629 14.9198L30.2578 14.9198V13.9147V5.75601V5.75588C30.2577 4.83617 29.9193 3.94864 29.3071 3.26226C28.6949 2.57585 27.8517 2.13858 26.938 2.03369ZM13.2243 6.36157C14.0995 5.99908 15.0374 5.8125 15.9847 5.8125C16.9319 5.8125 17.8699 5.99908 18.745 6.36157C19.6201 6.72406 20.4153 7.25538 21.0851 7.92518C21.7549 8.59498 22.2862 9.39014 22.6486 10.2653C23.0111 11.1404 23.1977 12.0784 23.1977 13.0256C23.1977 13.5807 22.7477 14.0307 22.1926 14.0307C21.6375 14.0307 21.1875 13.5807 21.1875 13.0256C21.1875 12.3424 21.0529 11.6658 20.7915 11.0345C20.53 10.4033 20.1468 9.82973 19.6636 9.3466C19.1805 8.86346 18.6069 8.48022 17.9757 8.21875C17.3445 7.95728 16.6679 7.8227 15.9847 7.8227C15.3014 7.8227 14.6249 7.95728 13.9936 8.21875C13.3624 8.48022 12.7888 8.86346 12.3057 9.3466C11.8226 9.82973 11.4393 10.4033 11.1779 11.0345C10.9168 11.6648 10.7822 12.3402 10.7818 13.0224C10.7875 13.8304 10.9837 14.6256 11.3545 15.3435C11.4917 15.6091 11.5036 15.922 11.3869 16.1972C11.2702 16.4724 11.037 16.6814 10.7507 16.7674C9.5575 17.1259 8.53323 17.902 7.86528 18.9538C7.19734 20.0055 6.93038 21.2626 7.11325 22.4951C7.29612 23.7275 7.9166 24.8529 8.86116 25.6654C9.80572 26.4779 11.0112 26.9232 12.2571 26.9197C12.8122 26.9182 13.2635 27.367 13.265 27.9221C13.2665 28.4772 12.8178 28.9284 12.2627 28.9299C10.5338 28.9347 8.86098 28.3168 7.55027 27.1894C7.16354 26.8567 6.81596 26.4863 6.51158 26.0853C5.72997 26.7879 5.1106 27.6539 4.69828 28.6232C4.2471 29.6839 4.05703 30.8374 4.14404 31.9867C4.23104 33.1361 4.59259 34.2478 5.1983 35.2285C5.80402 36.2092 6.63621 37.0302 7.625 37.6226C8.61378 38.215 9.73028 38.5615 10.8807 38.6329C12.0312 38.7044 13.1819 38.4987 14.2364 38.0332C15.2909 37.5677 16.2183 36.856 16.9407 35.9577C17.6427 35.0848 18.1312 34.0606 18.368 32.9666V32.665C18.368 32.1099 18.818 31.6599 19.3731 31.6599C19.9282 31.6599 20.3782 32.1099 20.3782 32.665V33.0706V33.1712L20.3582 33.2699C20.0659 34.7149 19.4311 36.0687 18.5071 37.2176C17.5831 38.3664 16.397 39.2768 15.0482 39.8722C13.6995 40.4676 12.2276 40.7306 10.7561 40.6393C10.3189 40.6121 9.88548 40.5539 9.45905 40.4656C9.09117 41.2652 8.89711 42.1349 8.89106 43.0172C8.89127 44.1616 9.20399 45.2843 9.79551 46.264C10.3876 47.2446 11.2364 48.0447 12.2502 48.5779C12.7415 48.8363 12.9303 49.444 12.672 49.9353C12.4136 50.4266 11.8059 50.6154 11.3146 50.3571C9.97642 49.6534 8.85607 48.5973 8.07463 47.303C7.2932 46.0087 6.8804 44.5254 6.88086 43.0135L6.88086 43.0074C6.88782 41.917 7.1117 40.841 7.53722 39.8414C7.21367 39.6954 6.89799 39.5304 6.59189 39.347C5.32718 38.5893 4.26276 37.5392 3.48802 36.2849C2.71329 35.0305 2.25086 33.6086 2.13957 32.1385C2.02828 30.6684 2.27139 29.193 2.84848 27.8363C3.42556 26.4797 4.31978 25.2813 5.45601 24.3418C5.47618 24.3251 5.49682 24.3094 5.51786 24.2945C5.33411 23.812 5.20164 23.3078 5.12482 22.7901C4.87107 21.0799 5.2415 19.3356 6.16836 17.8761C6.89546 16.7312 7.92686 15.8217 9.13702 15.2427C8.90047 14.5318 8.77646 13.7858 8.77164 13.032L8.7716 13.0256H8.77162C8.77162 12.0784 8.95819 11.1404 9.32068 10.2653C9.68317 9.39014 10.2145 8.59498 10.8843 7.92518C11.5541 7.25538 12.3492 6.72406 13.2243 6.36157ZM24.3393 17.6016C24.2851 17.5926 24.2295 17.5879 24.1728 17.5879C23.6177 17.5879 23.1677 18.0379 23.1677 18.593C23.1677 19.8814 22.6559 21.1171 21.7449 22.0281C20.8338 22.9392 19.5982 23.451 18.3098 23.451C17.7547 23.451 17.3047 23.901 17.3047 24.4561C17.3047 25.0112 17.7547 25.4612 18.3098 25.4612C20.1313 25.4612 21.8783 24.7376 23.1663 23.4496C24.2117 22.4041 24.8853 21.0564 25.102 19.6118H37.6631H38.0793L38.3737 19.3176L40.7435 16.9489C41.1361 16.5565 41.1363 15.9201 40.7439 15.5275C40.3514 15.1349 39.7151 15.1347 39.3224 15.5271L37.247 17.6016H24.3393ZM40.7905 19.9224H41.2067H47.343C47.7731 18.5684 49.0403 17.5874 50.5367 17.5874C52.387 17.5874 53.887 19.0874 53.887 20.9378C53.887 22.7881 52.387 24.2881 50.5367 24.2881C49.0327 24.2881 47.7602 23.2971 47.3365 21.9326H41.6229L39.5474 24.007L39.253 24.3013H38.8368H31.8012C31.2461 24.3013 30.7961 23.8513 30.7961 23.2962C30.7961 22.7411 31.2461 22.2911 31.8012 22.2911H38.4206L40.4961 20.2166L40.7905 19.9224ZM31.1137 36.3403C30.5586 36.3403 30.1086 36.7903 30.1086 37.3454C30.1086 37.9005 30.5586 38.3505 31.1137 38.3505H37.2442L39.3197 40.425C39.7123 40.8174 40.3487 40.8173 40.7411 40.4247C41.1335 40.0321 41.1333 39.3957 40.7407 39.0032L38.3709 36.6345L38.0765 36.3403H37.6604H31.1137ZM30.1086 32.655C30.1086 32.0999 30.5586 31.6499 31.1137 31.6499H38.833H39.2491L39.5435 31.9441L41.619 34.0186H47.3355C47.7581 32.6523 49.0315 31.6597 50.5367 31.6597C52.387 31.6597 53.887 33.1597 53.887 35.01C53.887 36.8604 52.387 38.3604 50.5367 38.3604C49.0416 38.3604 47.7752 37.381 47.3441 36.0288H41.2028H40.7866L40.4923 35.7346L38.4168 33.6601H31.1137C30.5586 33.6601 30.1086 33.2101 30.1086 32.655ZM37.8793 41.4305L37.5778 41.0298L37.0762 41.0298L31.2616 41.0299L30.2565 41.0299V42.035V49.1318C30.2565 50.4203 29.7447 51.6559 28.8337 52.567C27.9226 53.478 26.687 53.9899 25.3986 53.9899C24.1102 53.9899 22.8745 53.478 21.9635 52.567C21.0525 51.6559 20.5406 50.4203 20.5406 49.1318C20.5406 48.5767 20.0906 48.1267 19.5355 48.1267C18.9804 48.1267 18.5304 48.5767 18.5304 49.1318C18.5304 50.9534 19.254 52.7004 20.5421 53.9884C21.8301 55.2764 23.577 56.0001 25.3986 56.0001C27.2201 56.0001 28.9671 55.2764 30.2551 53.9884C31.5431 52.7004 32.2667 50.9534 32.2667 49.1318V43.0401L36.5747 43.04L38.0562 45.0087L38.3578 45.4094H38.8593H47.3443C47.7756 46.7612 49.0418 47.7403 50.5367 47.7403C52.387 47.7403 53.887 46.2402 53.887 44.3899C53.887 42.5396 52.387 41.0396 50.5367 41.0396C49.0312 41.0396 47.7577 42.0325 47.3353 43.3992H39.3608L37.8793 41.4305ZM31.261 26.9697C30.7059 26.9697 30.2559 27.4197 30.2559 27.9748C30.2559 28.5299 30.7059 28.9799 31.261 28.9799H44.1108C44.6659 28.9799 45.1159 28.5299 45.1159 27.9748C45.1159 27.4197 44.6659 26.9697 44.1108 26.9697H31.261ZM14.7949 24.4568C15.4425 24.4568 15.9675 23.9318 15.9675 23.2842C15.9675 22.6365 15.4425 22.1115 14.7949 22.1115C14.1473 22.1115 13.6223 22.6365 13.6223 23.2842C13.6223 23.9318 14.1473 24.4568 14.7949 24.4568ZM16.8972 50.8398C16.8972 51.4875 16.3722 52.0125 15.7246 52.0125C15.077 52.0125 14.552 51.4875 14.552 50.8398C14.552 50.1922 15.077 49.6672 15.7246 49.6672C16.3722 49.6672 16.8972 50.1922 16.8972 50.8398ZM50.5367 10.2168C49.7966 10.2168 49.1966 10.8167 49.1966 11.5569C49.1966 12.2971 49.7966 12.897 50.5367 12.897C51.2768 12.897 51.8768 12.2971 51.8768 11.5569C51.8768 10.8167 51.2768 10.2168 50.5367 10.2168ZM49.1966 20.9378C49.1966 20.1976 49.7966 19.5976 50.5367 19.5976C51.2768 19.5976 51.8768 20.1976 51.8768 20.9378C51.8768 21.6779 51.2768 22.2779 50.5367 22.2779C49.7966 22.2779 49.1966 21.6779 49.1966 20.9378ZM50.5367 33.6699C49.7966 33.6699 49.1966 34.2699 49.1966 35.01C49.1966 35.7502 49.7966 36.3502 50.5367 36.3502C51.2768 36.3502 51.8768 35.7502 51.8768 35.01C51.8768 34.2699 51.2768 33.6699 50.5367 33.6699ZM49.1966 44.3899C49.1966 43.6497 49.7966 43.0498 50.5367 43.0498C51.2768 43.0498 51.8768 43.6497 51.8768 44.3899C51.8768 45.1301 51.2768 45.7301 50.5367 45.7301C49.7966 45.7301 49.1966 45.1301 49.1966 44.3899Z" fill="white"></path>
</svg>
