<?xml version="1.0" encoding="UTF-8"?>
<svg xmlns="http://www.w3.org/2000/svg" width="55" height="55" viewBox="-1 -1 57 57" fill="none">
  <path fill-rule="evenodd" clip-rule="evenodd" d="M37.5126 2.72386C37.5126 1.21951 38.7322 0 40.2365 0H53.2761C54.7805 0 56 1.21952 56 2.72386V28.6594V37.4511H54.069V29.6249H40.2365C38.7322 29.6249 37.5126 28.4054 37.5126 26.901V18.2537L28.0923 27.7386V38.7698C28.0923 39.2077 28.4473 39.5627 28.8852 39.5627H46.7614C47.1993 39.5627 47.5542 39.2077 47.5542 38.7698V33.0552H49.4853V38.7698C49.4853 40.2742 48.2658 41.4937 46.7614 41.4937H28.8852C27.3808 41.4937 26.1613 40.2742 26.1613 38.7698V29.6829L19.8911 35.9962C18.8258 37.0687 17.091 37.0687 16.0258 35.9962L12.4087 32.3542C12.0986 32.0421 11.5937 32.0421 11.2836 32.3542L7.37127 36.2934C6.85992 36.8083 6.16428 37.0978 5.43864 37.0978H2.72386C1.21951 37.0978 0 35.8783 0 34.374V7.5593C0 6.05495 1.21951 4.83544 2.72386 4.83544H23.6341V6.76647H2.72386C2.28599 6.76647 1.93103 7.12143 1.93103 7.5593V34.374C1.93103 34.8119 2.28599 35.1668 2.72386 35.1668H5.43864C5.64985 35.1668 5.85233 35.0825 6.00116 34.9327L9.91353 30.9935C10.9787 29.9209 12.7136 29.9209 13.7788 30.9935L17.3959 34.6354C17.7059 34.9476 18.2109 34.9476 18.5209 34.6354L26.1613 26.9426V7.55929C26.1613 6.05495 27.3808 4.83544 28.8852 4.83544H34.9854V6.76647H28.8852C28.4473 6.76647 28.0923 7.12143 28.0923 7.55929V24.9983L37.5126 15.5134V2.72386ZM39.4437 16.3094V26.901C39.4437 27.3389 39.7986 27.6939 40.2365 27.6939H54.069V2.72386C54.069 2.28599 53.714 1.93103 53.2761 1.93103H40.2365C39.7986 1.93103 39.4437 2.28599 39.4437 2.72386V13.5691L46.2 6.76647H43.7173V4.83544H48.5197H49.4853V5.80095V10.6364H47.5542V8.14323L39.4437 16.3094ZM2.72386 41.4937C2.28599 41.4937 1.93103 41.8487 1.93103 42.2865V44.4844C1.93103 44.9223 2.28599 45.2773 2.72386 45.2773H22.3243H33.2391H53.2761C53.714 45.2773 54.069 44.9223 54.069 44.4844V40.5282H56V44.4844C56 45.9888 54.7805 47.2083 53.2761 47.2083H34.5342L36.5784 54.069H38.4782V56H35.8586H20.1414H17.5218V54.069H19.3863L21.0898 47.2083H2.72386C1.21951 47.2083 0 45.9888 0 44.4844V42.2865C0 40.7822 1.21951 39.5627 2.72386 39.5627H22.3243V41.4937H2.72386ZM23.0794 47.2083L21.3759 54.069H34.5635L32.5193 47.2083H23.0794ZM38.9824 36.0267C38.9824 36.7266 38.4151 37.2939 37.7152 37.2939C37.0153 37.2939 36.4479 36.7266 36.4479 36.0267C36.4479 35.3268 37.0153 34.7595 37.7152 34.7595C38.4151 34.7595 38.9824 35.3268 38.9824 36.0267ZM46.5857 25.4657C47.0523 25.4657 47.4306 25.0875 47.4306 24.6209C47.4306 24.1543 47.0523 23.7761 46.5857 23.7761C46.1192 23.7761 45.7409 24.1543 45.7409 24.6209C45.7409 25.0875 46.1192 25.4657 46.5857 25.4657Z" fill="white"></path>
</svg>
