<?xml version="1.0" encoding="UTF-8"?>
<svg xmlns="http://www.w3.org/2000/svg" width="56" height="56" viewBox="0.5 0 56 56" fill="none">
  <path fill-rule="evenodd" clip-rule="evenodd" d="M37.7478 0.99833C37.7519 1.55599 37.3032 2.01144 36.7455 2.01559L25.8154 2.09706L25.8128 2.09709C20.3344 2.16742 15.3007 3.97514 12.1113 8.13845C10.9713 9.78984 9.92299 11.5018 8.97122 13.2667C7.14308 17.2922 6.98185 21.8694 8.5227 26.012L13.2402 38.0969C13.2859 38.2139 13.3093 38.3384 13.3093 38.4641V41.073H16.9242L20.2183 38.8934C20.6834 38.5856 21.3099 38.7132 21.6176 39.1783C21.9254 39.6434 21.7978 40.2699 21.3327 40.5776L17.7852 42.9248L17.5318 43.0925H17.228H12.872L8.99634 48.1315L16.071 54.2285C16.4935 54.5925 16.5408 55.2301 16.1767 55.6526C15.8127 56.075 15.1751 56.1223 14.7526 55.7583L7.7632 49.7348L3.24576 55.6082C2.90577 56.0503 2.27179 56.133 1.82975 55.793C1.3877 55.453 1.30497 54.819 1.64496 54.377L11.2898 41.8371V38.6542L6.63854 26.739L6.63292 26.7243C4.89845 22.0677 5.0835 16.9199 7.14768 12.3981C7.15687 12.378 7.16672 12.3581 7.17721 12.3386C8.1724 10.4906 9.26955 8.69846 10.4636 6.97043C10.4727 6.95731 10.4821 6.94441 10.4918 6.93173C14.1734 2.10936 19.9016 0.152683 25.7897 0.0776963L25.7951 0.0776425L36.7305 -0.00387759C37.2882 -0.00803478 37.7436 0.440669 37.7478 0.99833ZM46.6192 20.9581C46.6192 20.4005 46.1671 19.9484 45.6094 19.9484L45.5916 19.9485L45.5738 19.9484H41.1394C40.5817 19.9484 40.1297 20.4005 40.1297 20.9581C40.1297 21.5158 40.5817 21.9679 41.1394 21.9679H44.5997V24.0799L41.6982 25.2C41.178 25.4009 40.9191 25.9855 41.1199 26.5057C41.3208 27.026 41.9054 27.2849 42.4256 27.084L45.9731 25.7144L46.6192 25.465V24.7724V20.9581ZM49.2184 45.2734C49.6835 44.9657 49.811 44.3392 49.5033 43.8741C49.1956 43.409 48.5691 43.2814 48.104 43.5892L47.2171 44.176L46.7645 44.4754V45.0181V48.7968C46.7645 49.0275 46.7188 49.256 46.6297 49.4695C46.5406 49.683 46.4098 49.8775 46.2444 50.0417C46.0789 50.2058 45.8821 50.3365 45.665 50.4258C45.4478 50.515 45.2148 50.5611 44.9793 50.5611H35.6074C35.591 50.5603 35.5745 50.5599 35.5579 50.5599H32.7422C31.1147 50.5599 29.5554 49.9181 28.4069 48.7783C27.2586 47.6386 26.6149 46.0946 26.6149 44.4863V39.54C26.6149 38.9823 26.1629 38.5302 25.6052 38.5302C25.0475 38.5302 24.5954 38.9823 24.5954 39.54V44.4863C24.5954 46.6352 25.4556 48.6945 26.9842 50.2117C28.5126 51.7286 30.584 52.5794 32.7422 52.5794H33.3016L31.7469 54.3216C31.3756 54.7377 31.4118 55.376 31.8279 55.7473C32.244 56.1186 32.8823 56.0823 33.2537 55.6662L36.0073 52.5806H44.9793C45.4779 52.5806 45.9718 52.4831 46.4328 52.2936C46.8939 52.1041 47.3133 51.826 47.667 51.4751C48.0206 51.124 48.3016 50.7069 48.4934 50.2473C48.6852 49.7877 48.7841 49.2948 48.7841 48.7968V45.5608L49.2184 45.2734ZM45.278 0.668986C44.7675 0.444498 44.1717 0.676355 43.9472 1.18685C43.7227 1.69735 43.9546 2.29317 44.4651 2.51766C45.3967 2.92735 46.3927 3.16225 47.4029 3.21453C47.2296 3.80121 46.91 4.34187 46.4655 4.78295C45.7684 5.47483 44.8214 5.86487 43.8322 5.86487H42.0838C41.743 5.67335 41.3879 5.50584 41.0208 5.36405L39.4706 4.76067C38.9509 4.55839 38.3656 4.81571 38.1633 5.33541C37.9611 5.85511 38.2184 6.44039 38.7381 6.64267L40.2895 7.24652L40.2921 7.2475C40.6068 7.36902 40.9098 7.51556 41.1983 7.68517C41.2485 7.72252 41.3023 7.75533 41.359 7.78297C41.85 8.09213 42.2959 8.46964 42.6824 8.90536C45.4838 12.1096 47.4792 15.9268 48.5055 20.0436L48.9964 22.0129L48.039 25.2708L47.9172 25.6855L48.133 26.0599L52.483 33.6045C52.5214 33.6886 52.5422 33.7792 52.5444 33.8711C52.5469 33.9708 52.5273 34.0701 52.4869 34.1621C52.4464 34.254 52.386 34.3368 52.3092 34.4042C52.2402 34.4647 52.1596 34.5115 52.0718 34.5416L50.0683 34.9618L50.0288 34.9701L49.9901 34.9815C49.4698 35.1348 49.025 35.4784 48.7468 35.9457C48.4685 36.4133 48.3782 36.9691 48.4953 37.5009L48.8907 39.2986L48.2843 39.6168C46.4996 40.5533 44.4826 40.955 42.4753 40.7739L40.9688 40.638C40.4134 40.5879 39.9225 40.9975 39.8724 41.5529C39.8223 42.1083 40.2319 42.5992 40.7874 42.6493L42.2938 42.7852C44.6881 43.0013 47.0939 42.5221 49.2226 41.4051L50.5117 40.7287L51.1943 40.3706L51.0287 39.6176L50.4676 37.0671C50.4611 37.0374 50.4659 37.006 50.4822 36.9787C50.4953 36.9567 50.5157 36.9379 50.5412 36.9261L52.5343 36.5081L52.5738 36.4998L52.6124 36.4884C52.9923 36.3765 53.3435 36.1834 53.6412 35.9221C53.939 35.6608 54.1762 35.3376 54.3357 34.9747C54.4952 34.6119 54.573 34.2185 54.5634 33.8221C54.5538 33.4258 54.457 33.0367 54.2802 32.6819L54.2665 32.6546L54.2512 32.6281L50.0985 25.4256L51.0113 22.3194L51.0886 22.0564L51.0223 21.7904L50.465 19.5551C49.3903 15.244 47.328 11.2395 44.4412 7.85222C45.7375 7.7148 46.956 7.14154 47.8882 6.21635C48.9654 5.14719 49.572 3.69547 49.572 2.18014C49.572 1.89503 49.4515 1.62321 49.2402 1.4318C49.0289 1.24038 48.7465 1.14721 48.4628 1.17528C47.3747 1.28296 46.2772 1.10838 45.278 0.668986ZM39.8644 15.7307C40.1591 16.2042 40.0142 16.8269 39.5407 17.1216L35.7559 19.4772C35.2794 19.7738 34.8875 20.185 34.6162 20.6718C34.3449 21.1584 34.2029 21.705 34.2029 22.2602V27.6093C34.2029 28.167 33.7508 28.6191 33.1931 28.6191C32.6355 28.6191 32.1834 28.167 32.1834 27.6093V22.2602C32.1834 21.3602 32.4137 20.4752 32.8523 19.6885C33.2908 18.9018 33.9229 18.2393 34.6888 17.7627L38.4736 15.407C38.947 15.1123 39.5697 15.2573 39.8644 15.7307ZM21.5598 25.2688C22.1738 24.6595 23.0081 24.3158 23.8796 24.3158C24.7511 24.3158 25.5854 24.6595 26.1993 25.2688C26.813 25.8779 27.1564 26.7024 27.1564 27.5604C27.1564 28.1181 27.6085 28.5702 28.1662 28.5702C28.7239 28.5702 29.1759 28.1181 29.1759 27.5604C29.1759 26.1618 28.6161 24.8221 27.622 23.8354C26.6281 22.8491 25.2818 22.2963 23.8796 22.2963C22.4774 22.2963 21.131 22.8491 20.1372 23.8354C19.1431 24.8221 18.5832 26.1618 18.5832 27.5604H18.5832L18.5833 27.5721C18.6082 29.7305 19.4493 31.7995 20.9379 33.3692C22.4263 34.9388 24.4531 35.8946 26.6159 36.0495C27.1722 36.0893 27.6554 35.6707 27.6952 35.1144C27.7351 34.5582 27.3164 34.0749 26.7602 34.0351C25.0981 33.9161 23.5432 33.1816 22.4033 31.9796C21.265 30.7792 20.6233 29.2001 20.6028 27.5548C20.6043 26.6988 20.9475 25.8766 21.5598 25.2688ZM37.4986 11.6224C37.7933 12.0958 37.6484 12.7185 37.1749 13.0132L33.3902 15.3689C32.9167 15.6636 32.294 15.5186 31.9993 15.0452C31.7046 14.5717 31.8496 13.949 32.323 13.6543L36.1078 11.2987C36.5813 11.004 37.204 11.1489 37.4986 11.6224ZM34.8112 8.90488C35.2847 8.6102 35.4296 7.98749 35.1349 7.51403C34.8403 7.04057 34.2176 6.89565 33.7441 7.19033L29.9593 9.546C29.4859 9.84068 29.341 10.4634 29.6356 10.9368C29.9303 11.4103 30.553 11.5552 31.0265 11.2605L34.8112 8.90488ZM40.8768 2.76761C41.5299 2.76761 42.0593 2.24216 42.0593 1.59398C42.0593 0.945805 41.5299 0.420355 40.8768 0.420355C40.2237 0.420355 39.6943 0.945805 39.6943 1.59398C39.6943 2.24216 40.2237 2.76761 40.8768 2.76761Z" fill="white"></path>
</svg>
