<svg width="112" height="33" viewBox="0 0 112 33" fill="none" xmlns="http://www.w3.org/2000/svg">
<g clip-path="url(#clip0_359_120)">
<path d="M19.5752 30.8008C24.8831 29.8632 29.2671 29.0873 29.3175 29.0766L29.409 29.0572L24.3979 23.0966C21.6417 19.8182 19.3867 17.1233 19.3867 17.1077C19.3867 17.0783 24.5611 2.82899 24.5902 2.7783C24.6 2.76135 28.1213 8.84089 33.1263 17.5155C37.812 25.6369 41.6751 32.3329 41.711 32.3957L41.7763 32.5098L25.8504 32.5077L9.92454 32.5057L19.5752 30.8008ZM80.6491 29.3593C78.2249 29.2039 76.815 27.8235 76.4413 25.2396C76.3419 24.5523 76.3416 24.5345 76.3314 20.0723L76.3216 15.7536H77.3945H78.4674L78.4758 19.9309C78.4834 23.6957 78.4882 24.1371 78.5242 24.402C78.6703 25.4768 78.9611 26.1997 79.4562 26.7185C79.8525 27.1337 80.3163 27.3768 80.9585 27.5058C81.2614 27.5667 82.1232 27.5668 82.3994 27.5061C83.0504 27.3628 83.5722 27.0795 84.0325 26.6194C84.5571 26.095 84.9452 25.351 85.133 24.5096L85.1963 24.226L85.2033 20.0134L85.2104 15.8008H86.3057H87.4011V22.4231V29.0455H86.317H85.2329V27.9948C85.2329 27.2809 85.2251 26.9467 85.2085 26.9522C85.1951 26.9567 85.1394 27.0419 85.0848 27.1415C84.7112 27.8228 84.0888 28.4459 83.4068 28.8212C82.5892 29.2712 81.7693 29.4311 80.6491 29.3593ZM105.255 29.3486C104.4 29.2843 103.498 28.9901 102.762 28.5345C101.21 27.5743 100.291 25.9916 100.022 23.8135C99.9293 23.0598 99.9181 22.0474 99.9958 21.407C100.169 19.976 100.732 18.5712 101.532 17.5683C101.738 17.3112 102.203 16.8455 102.46 16.6402C103.155 16.0859 103.967 15.6983 104.829 15.5097C105.331 15.3998 106.216 15.3482 106.75 15.3977C108.09 15.5219 109.319 16.1532 110.154 17.1468C111.003 18.1562 111.469 19.5668 111.529 21.3037C111.538 21.5759 111.54 22.0531 111.534 22.3642L111.522 22.9298L106.826 22.9357L102.13 22.9417V23.1512C102.13 23.7891 102.286 24.5157 102.554 25.1339C102.785 25.6669 103.183 26.249 103.509 26.5307C104.177 27.1083 104.995 27.454 105.889 27.5372C106.221 27.5681 107.067 27.5356 107.445 27.4775C108.524 27.3117 109.549 26.8886 110.377 26.2677C110.475 26.1947 110.568 26.1264 110.585 26.116C110.609 26.1009 110.614 26.2917 110.614 27.0941L110.613 28.0909L110.391 28.2282C109.454 28.8076 108.381 29.1797 107.245 29.319C106.905 29.3606 105.661 29.3791 105.255 29.3486ZM109.342 20.9409C109.342 19.8723 108.892 18.6853 108.254 18.0741C107.8 17.6379 107.25 17.3713 106.596 17.2701C106.287 17.2222 105.636 17.2406 105.31 17.3065C104.62 17.4457 104.051 17.7487 103.553 18.2399C103.03 18.757 102.638 19.3849 102.391 20.1004C102.302 20.3576 102.199 20.78 102.166 21.015L102.151 21.1269H105.747H109.342V20.9409ZM45.6453 29.016C45.6508 28.9998 47.2454 24.8108 49.1888 19.7071L52.7222 10.4276L53.8576 10.4276L54.9929 10.4275L55.0871 10.6691C55.3749 11.4073 62.1608 29.0253 62.1608 29.0345C62.1608 29.0405 61.6173 29.0453 60.953 29.0452L59.7452 29.045L58.7672 26.4411L57.7891 23.8371L53.8511 23.8371L49.9131 23.837L49.8789 23.9254C49.8601 23.974 49.4422 25.1457 48.9503 26.5292L48.056 29.0445L46.8456 29.0449C45.8876 29.0453 45.6374 29.0393 45.6453 29.016ZM57.0704 21.85C57.0704 21.8458 56.4122 20.0615 55.6077 17.8848C54.1028 13.8126 54.0186 13.5676 53.8997 12.9138C53.8439 12.6072 53.8157 12.5987 53.7826 12.8784C53.759 13.0784 53.6564 13.5258 53.5773 13.774C53.5381 13.8971 52.8603 15.7572 52.0713 17.9075C51.2822 20.0578 50.6366 21.8262 50.6366 21.8373C50.6366 21.8484 52.0842 21.8575 53.8534 21.8575C55.6227 21.8575 57.0704 21.8541 57.0704 21.85ZM62.8914 28.7063V28.3671L66.8149 22.9736L70.7383 17.5801L67.186 17.5683L63.6338 17.5565L63.6276 16.6551L63.6214 15.7536H68.7593H73.8972V16.0581V16.3626L69.9733 21.7855C67.8151 24.7681 66.0494 27.2135 66.0494 27.2196C66.0494 27.2257 67.7939 27.2308 69.9262 27.2308H73.8029V28.1381V29.0454H68.3472H62.8914V28.7063ZM91.6824 29.0297C91.6738 29.0211 91.6667 26.0304 91.6667 22.3838V15.7536H92.739H93.8113V17.1205C93.8113 17.8723 93.8204 18.4874 93.8316 18.4874C93.8428 18.4874 93.895 18.3643 93.9476 18.2139C94.1887 17.5247 94.6068 16.8807 95.1454 16.3689C95.6307 15.9078 96.1853 15.6321 96.8397 15.5265C97.0235 15.4969 97.179 15.4912 97.5467 15.5008C98.0084 15.5128 98.2498 15.5466 98.5306 15.6384L98.619 15.6673V16.7803V17.8933L98.3656 17.7665C97.9181 17.5425 97.4766 17.4538 96.9457 17.4815C96.6003 17.4994 96.3735 17.5438 96.0973 17.6474C95.529 17.8607 95.0681 18.2371 94.746 18.751C94.2797 19.4949 93.9472 20.451 93.8491 21.3299C93.8315 21.4876 93.8211 22.772 93.817 25.3042L93.8109 29.0454H92.7545C92.1735 29.0454 91.6911 29.0383 91.6824 29.0297ZM0.462387 28.9831C0.462387 28.9748 2.82362 24.8758 5.70958 19.8744L10.9568 10.781L17.0718 5.64926C20.435 2.82682 23.1958 0.514099 23.2069 0.509882C23.2179 0.505665 23.1737 0.617018 23.1086 0.757335C23.0434 0.897652 20.0554 7.30662 16.4685 14.9995L9.94696 28.9865L5.20467 28.9924C2.59642 28.9957 0.462387 28.9915 0.462387 28.9831Z" fill="#0089D6"/>
</g>
<defs>
<clipPath id="clip0_359_120">
<rect width="111.075" height="32" fill="white" transform="translate(0.462387 0.509766)"/>
</clipPath>
</defs>
</svg>
