<svg width="60" height="49" viewBox="0 0 60 49" fill="none" xmlns="http://www.w3.org/2000/svg">
<g clip-path="url(#clip0_359_116)">
<path d="M16.9136 19.542C16.8461 21.6654 17.9073 22.6057 17.9336 23.2029C17.9211 23.3245 17.8797 23.4412 17.8128 23.5435C17.7459 23.6458 17.6555 23.7305 17.5492 23.7907L16.3492 24.6307C16.1939 24.7396 16.0108 24.802 15.8214 24.8107C15.7811 24.8088 15.0536 24.9823 13.9014 22.4098C13.1984 23.2873 12.304 23.9922 11.2866 24.4708C10.2693 24.9493 9.15587 25.1888 8.0317 25.1707C6.50545 25.2542 2.3692 24.3045 2.58201 19.901C2.43295 16.3123 5.77514 14.0829 9.2317 14.2714C9.89732 14.2732 11.2567 14.306 13.637 14.8592V13.3948C13.8892 10.9142 12.2589 8.98948 9.43607 9.27823C9.21107 9.27917 7.61732 9.23135 5.13857 10.226C4.44857 10.5429 4.36045 10.4904 4.13076 10.4904C3.43607 10.4904 3.72201 8.47667 3.85514 8.22167C4.34357 7.62167 7.21701 6.50135 10.037 6.51729C11.9226 6.35053 13.798 6.93246 15.2579 8.13729C15.8514 8.80112 16.3042 9.57834 16.5889 10.422C16.8736 11.2657 16.9844 12.1584 16.9145 13.046L16.9136 19.542ZM8.8117 22.5785C11.852 22.5345 13.1392 20.7064 13.4326 19.722C13.6633 18.7798 13.6248 18.1835 13.6248 17.1532C12.7183 16.9357 11.4133 16.6985 9.91607 16.6967C8.49576 16.5898 5.9017 17.2245 6.00295 19.721C5.8867 21.2951 7.04545 22.6648 8.8117 22.5785ZM24.8354 24.7395C24.0986 24.807 23.7554 24.2839 23.6467 23.7673L18.9779 8.33135C18.887 8.07073 18.827 7.80166 18.7979 7.52698C18.7807 7.41373 18.8092 7.29828 18.877 7.20599C18.9449 7.1137 19.0466 7.05212 19.1598 7.03479C19.1823 7.03104 18.9601 7.03479 21.2458 7.03479C22.0689 6.95229 22.337 7.6001 22.4223 8.00698L25.7711 21.2098L28.8798 8.00698C28.9295 7.7051 29.1555 6.96917 30.0798 7.04698H31.6886C31.892 7.0301 32.7301 7.0001 32.8773 8.01917L36.0104 21.3907L39.467 8.01917C39.512 7.81479 39.722 6.95323 40.6558 7.04698H42.5045C42.5842 7.03479 43.0811 6.97104 42.9967 7.85135C42.9564 8.02479 43.3164 6.85198 38.0514 23.7795C37.9436 24.296 37.5995 24.8192 36.8626 24.7517H35.1105C34.0848 24.8595 33.9376 23.846 33.9217 23.7439L30.813 10.8879L27.7398 23.7307C27.7248 23.8329 27.5776 24.8464 26.5511 24.7385H24.8354V24.7395ZM50.4742 25.2673C49.923 25.2682 47.2942 25.2392 45.0967 24.1151C44.8778 24.0224 44.6914 23.8668 44.561 23.668C44.4306 23.4693 44.3623 23.2362 44.3645 22.9985V21.9907C44.3645 21.1985 44.9458 21.3439 45.1923 21.4385C46.1336 21.8192 46.7373 22.1079 47.8933 22.3385C51.3292 23.0445 52.8405 22.1229 53.2108 21.9185C54.4436 21.1864 54.5411 19.511 53.7029 18.642C52.7205 17.8179 52.2517 17.787 48.722 16.6732C48.287 16.5523 44.6251 15.3973 44.6167 11.7645C44.5595 9.11698 46.9651 6.4976 51.1342 6.51917C52.322 6.51823 55.487 6.90635 56.3439 7.98354C56.4705 8.17948 56.5333 8.4101 56.5239 8.64354V9.59135C56.5239 10.0076 56.372 10.2157 56.0673 10.2157C55.3445 10.1351 54.062 9.16854 51.4586 9.20792C50.8126 9.17417 47.7189 9.29323 47.8576 11.5489C47.8173 13.3264 50.3523 13.9929 50.642 14.0698C54.0601 15.0982 55.2029 15.2689 56.5595 16.8429C58.1664 18.9289 57.3001 21.371 56.9673 22.0404C55.1786 25.5551 50.553 25.2692 50.4742 25.2673Z" fill="black"/>
<path d="M30.0094 42.5274C38.1469 42.5274 47.6775 39.9465 54.2428 35.0977C55.335 34.2933 54.3984 33.0933 53.2941 33.5621C46.124 36.587 38.4269 38.1657 30.645 38.2074C20.2243 38.2141 9.98293 35.4954 0.937507 30.3212C0.193132 29.9002 -0.346869 30.6568 0.265319 31.209C8.41951 38.5624 19.0294 42.5998 30.0094 42.5274Z" fill="#FE9900"/>
<path d="M49.3748 31.7168C51.5172 31.4609 56.1479 30.9077 56.9794 31.9768C57.8082 33.0434 56.0895 37.3696 55.2835 39.3982L55.2516 39.4787C55.0116 40.0787 55.5281 40.3196 56.0681 39.863C59.5847 36.9099 60.4847 30.728 59.7769 29.8402C59.0681 28.9524 52.8984 28.1958 49.1419 30.8368C48.5653 31.2446 48.6731 31.7968 49.3097 31.7246L49.3748 31.7168Z" fill="#FE9900"/>
</g>
<defs>
<clipPath id="clip0_359_116">
<rect width="60" height="48" fill="white" transform="translate(0 0.509766)"/>
</clipPath>
</defs>
</svg>
