<svg width="122" height="33" viewBox="0 0 122 33" fill="none" xmlns="http://www.w3.org/2000/svg">
<g clip-path="url(#clip0_359_125)">
<path d="M10.6118 0.509768C10.1045 0.509989 9.60673 0.648125 9.17181 0.909399C8.7369 1.17067 8.38118 1.54526 8.14272 1.99309C7.90426 2.44092 7.79202 2.94515 7.818 3.45184C7.84399 3.95854 8.00722 4.44864 8.29025 4.86973L9.48561 3.67605C9.4461 3.55697 9.42617 3.43228 9.4266 3.30682C9.4266 3.0734 9.49582 2.84522 9.6255 2.65114C9.75518 2.45706 9.9395 2.30579 10.1551 2.21646C10.3708 2.12714 10.6081 2.10377 10.837 2.1493C11.066 2.19484 11.2763 2.30724 11.4413 2.4723C11.6064 2.63735 11.7188 2.84764 11.7643 3.07657C11.8098 3.30551 11.7865 3.54281 11.6971 3.75846C11.6078 3.97411 11.4565 4.15843 11.2625 4.28811C11.0684 4.41779 10.8402 4.48701 10.6068 4.48701C10.4819 4.48728 10.3578 4.46736 10.2392 4.428L9.04557 5.62168C9.40784 5.86738 9.82273 6.02463 10.2569 6.08077C10.691 6.13691 11.1322 6.09037 11.5451 5.9449C11.9579 5.79944 12.3309 5.5591 12.6339 5.24322C12.937 4.92735 13.1617 4.54476 13.2899 4.12623C13.4181 3.70769 13.4464 3.26491 13.3723 2.83348C13.2982 2.40206 13.1239 1.99404 12.8634 1.64226C12.6029 1.29047 12.2635 1.00474 11.8724 0.808045C11.4813 0.611351 11.0496 0.509186 10.6118 0.509768Z" fill="#34A853"/>
<path d="M9.49909 8.66152C9.50092 7.71668 9.19493 6.79694 8.62743 6.0415L7.07633 7.59092C7.3122 8.02234 7.39844 8.51977 7.32157 9.00541C7.2447 9.49106 7.00904 9.93753 6.65146 10.275L7.49445 12.3353C8.10914 11.9394 8.61473 11.3957 8.96494 10.7539C9.31515 10.1121 9.4988 9.39267 9.49909 8.66152Z" fill="#FBBC04"/>
<path d="M5.16442 10.8853H5.12396C4.77714 10.8854 4.43511 10.8043 4.12516 10.6487C3.81522 10.4931 3.54593 10.2672 3.3388 9.98903C3.13166 9.71087 2.9924 9.38814 2.93212 9.04659C2.87185 8.70505 2.89224 8.35415 2.99166 8.02189C3.09108 7.68962 3.26678 7.38519 3.50474 7.13288C3.7427 6.88058 4.03633 6.68738 4.36221 6.5687C4.6881 6.45002 5.0372 6.40915 5.38169 6.44934C5.72617 6.48953 6.05649 6.60968 6.34629 6.8002L7.88223 5.26427C7.33864 4.82358 6.69724 4.51976 6.0119 4.37833C5.32655 4.23691 4.61728 4.262 3.94364 4.45151C3.27001 4.64102 2.65168 4.98941 2.1406 5.46742C1.62952 5.94543 1.24061 6.5391 1.00652 7.19857C0.772438 7.85804 0.70002 8.56406 0.79535 9.25732C0.89068 9.95058 1.15098 10.6108 1.55437 11.1827C1.95777 11.7545 2.49249 12.2211 3.11363 12.5434C3.73476 12.8658 4.42417 13.0343 5.12396 13.035C5.42062 13.0351 5.71656 13.0058 6.00741 12.9473L5.16442 10.8853Z" fill="#EA4335"/>
<path d="M10.6709 12.6672C9.7001 12.6662 8.73442 12.8077 7.8047 13.087L9.03379 16.0898C9.5688 15.9572 10.118 15.8904 10.6692 15.8908C12.2181 15.8913 13.7188 16.4287 14.9159 17.4116C16.1129 18.3945 16.9321 19.762 17.2339 21.2812C17.5358 22.8004 17.3015 24.3772 16.5711 25.743C15.8407 27.1089 14.6594 28.1792 13.2283 28.7717C11.7973 29.3642 10.2051 29.4422 8.72296 28.9924C7.24085 28.5426 5.96054 27.5928 5.10016 26.3049C4.23978 25.017 3.85256 23.4706 4.00447 21.9292C4.15638 20.3878 4.83802 18.9468 5.93326 17.8516C6.40452 17.3818 6.94253 16.9841 7.52989 16.6714L6.31429 13.6771C4.12554 14.7491 2.40768 16.5888 1.48808 18.8458C0.568477 21.1028 0.511422 23.6192 1.32779 25.9156C2.14415 28.212 3.77686 30.1277 5.91479 31.2977C8.05271 32.4677 10.5464 32.8103 12.9206 32.2601C15.2948 31.7098 17.3836 30.3053 18.7889 28.3141C20.1943 26.323 20.8179 23.8843 20.5409 21.463C20.2639 19.0416 19.1058 16.8068 17.2871 15.1844C15.4685 13.562 13.1165 12.6654 10.6793 12.6655L10.6709 12.6672Z" fill="#4285F4"/>
<path d="M30.2081 4.61328H32.9984V25.6763H43.2711V28.3284H30.2081V4.61328Z" fill="#5F6368"/>
<path d="M47.3157 27.1871C46.0561 26.4393 45.0261 25.3598 44.3383 24.0664C43.6198 22.7254 43.2526 21.2243 43.271 19.703C43.2538 18.1841 43.6209 16.6854 44.3383 15.3465C45.0261 14.0531 46.0561 12.9735 47.3157 12.2257C48.6238 11.4738 50.1062 11.0781 51.615 11.0781C53.1238 11.0781 54.6062 11.4738 55.9142 12.2257C57.1738 12.9742 58.2041 14.0536 58.8934 15.3465C59.6111 16.6877 59.9782 18.1886 59.9606 19.7098C59.9782 21.2309 59.6111 22.7318 58.8934 24.0731C58.2046 25.3658 57.1748 26.4451 55.9159 27.1939C54.6079 27.9458 53.1255 28.3414 51.6167 28.3414C50.1079 28.3414 48.6255 27.9458 47.3174 27.1939L47.3157 27.1871ZM54.3969 25.1336C55.2729 24.6211 55.9909 23.8774 56.4723 22.984C57.0111 21.9759 57.28 20.8457 57.2529 19.703C57.2798 18.5604 57.0109 17.4302 56.4723 16.4221C55.9923 15.5293 55.2761 14.7857 54.4019 14.2725C53.5569 13.7774 52.5943 13.5189 51.615 13.5239C50.6142 13.52 49.631 13.7874 48.77 14.2977C47.9091 14.8081 47.2026 15.5422 46.7256 16.4221C46.1884 17.4307 45.9201 18.5606 45.9467 19.703C45.92 20.8455 46.1882 21.9755 46.7256 22.984C47.0813 23.6363 47.564 24.2108 48.1453 24.6736C48.7266 25.1364 49.3947 25.478 50.1102 25.6784C50.8257 25.8787 51.5741 25.9338 52.3112 25.8402C53.0483 25.7466 53.7592 25.5064 54.4019 25.1336H54.3969Z" fill="#5F6368"/>
<path d="M65.4536 27.1871C64.1947 26.4383 63.1649 25.359 62.4761 24.0664C61.7584 22.7251 61.3913 21.2242 61.4089 19.703C61.3924 18.1842 61.7595 16.6857 62.4761 15.3465C63.1649 14.0538 64.1947 12.9745 65.4536 12.2257C66.7617 11.4738 68.2441 11.0781 69.7528 11.0781C71.2616 11.0781 72.744 11.4738 74.0521 12.2257C75.312 12.9738 76.3425 14.0532 77.0312 15.3465C77.749 16.6877 78.1161 18.1886 78.0985 19.7098C78.1161 21.2309 77.749 22.7318 77.0312 24.0731C76.3429 25.3661 75.3131 26.4456 74.0538 27.1939C72.7457 27.9458 71.2633 28.3414 69.7545 28.3414C68.2457 28.3414 66.7633 27.9458 65.4553 27.1939L65.4536 27.1871ZM72.5347 25.1336C73.4085 24.6199 74.1246 23.8764 74.6051 22.984C75.1431 21.9756 75.4119 20.8456 75.3857 19.703C75.4117 18.5605 75.1429 17.4305 74.6051 16.4221C74.1246 15.5297 73.4085 14.7861 72.5347 14.2725C71.6897 13.7774 70.7271 13.5189 69.7478 13.5239C68.7633 13.5204 67.7957 13.7787 66.944 14.2725C66.0632 14.7821 65.3411 15.5263 64.8584 16.4221C64.3199 17.4302 64.051 18.5604 64.0778 19.703C64.0508 20.8457 64.3197 21.9759 64.8584 22.984C65.3411 23.8798 66.0632 24.624 66.944 25.1336C67.7957 25.6274 68.7633 25.8857 69.7478 25.8822C70.7294 25.8884 71.6945 25.6298 72.5415 25.1336H72.5347Z" fill="#5F6368"/>
<path d="M80.1031 4.61328H82.8917V19.6051L91.2879 11.0757H94.8285V11.2072L87.7474 18.3574L94.5082 28.2036V28.3284H91.1632L85.7798 20.2862L82.8917 23.181V28.3284H80.1031V4.61328Z" fill="#5F6368"/>
<path d="M98.1078 27.2189C96.8808 26.481 95.8828 25.417 95.2247 24.1454C94.5209 22.7815 94.1658 21.2644 94.1912 19.7298C94.1796 18.2369 94.5132 16.7615 95.1657 15.4187C95.7813 14.1284 96.7395 13.0319 97.9358 12.2491C99.1636 11.4554 100.6 11.0446 102.061 11.0689C103.653 11.0689 105.033 11.4246 106.202 12.1361C107.365 12.8399 108.301 13.8628 108.9 15.0832C109.545 16.4265 109.865 17.9028 109.834 19.3926C109.833 19.6697 109.811 19.9464 109.77 20.2204H96.8972C96.9613 21.4568 97.2586 22.4976 97.7891 23.3429C98.2778 24.1513 98.9771 24.8116 99.8123 25.2531C100.602 25.6711 101.483 25.8899 102.377 25.8904C104.499 25.8904 106.102 24.9136 107.185 22.9601L109.478 24.0746C108.824 25.3418 107.846 26.4134 106.644 27.1802C105.433 27.9456 103.979 28.3283 102.281 28.3283C100.814 28.3526 99.3689 27.9685 98.1078 27.2189ZM106.968 17.9831C106.916 17.2719 106.721 16.5785 106.394 15.9448C106.029 15.2379 105.478 14.6435 104.801 14.225C104.08 13.7575 103.167 13.5237 102.063 13.5237C100.862 13.4963 99.6977 13.9357 98.8142 14.7494C97.9229 15.5677 97.339 16.6456 97.0625 17.9831H106.968Z" fill="#5F6368"/>
<path d="M111.634 11.0793H114.292V14.2827H114.423C114.751 13.3633 115.386 12.5973 116.327 11.9847C117.198 11.3963 118.224 11.0784 119.275 11.0709C119.95 11.0538 120.62 11.1772 121.245 11.4334V14.4193C120.51 14.0618 119.701 13.8817 118.884 13.8932C118.087 13.8894 117.308 14.1307 116.652 14.5845C115.963 15.0566 115.404 15.6944 115.027 16.4391C114.622 17.2162 114.414 18.0803 114.42 18.9563V28.3287H111.634V11.0793Z" fill="#5F6368"/>
</g>
<defs>
<clipPath id="clip0_359_125">
<rect width="120.499" height="32" fill="white" transform="translate(0.750488 0.509766)"/>
</clipPath>
</defs>
</svg>
