<svg width="104" height="37" viewBox="0 0 104 37" fill="none" xmlns="http://www.w3.org/2000/svg">
<path d="M20.0403 21.9536C21.9598 21.9536 23.5159 20.3975 23.5159 18.478C23.5159 16.5585 21.9598 15.0024 20.0403 15.0024C18.1208 15.0024 16.5648 16.5585 16.5648 18.478C16.5648 20.3975 18.1208 21.9536 20.0403 21.9536Z" fill="#00D8FF"/>
<path fill-rule="evenodd" clip-rule="evenodd" d="M20.0404 11.4116C24.7068 11.4116 29.0418 12.0812 32.3104 13.2065C36.2485 14.5623 38.6699 16.6173 38.6699 18.4782C38.6699 20.4173 36.1038 22.6005 31.8747 24.0017C28.6774 25.061 24.47 25.614 20.0404 25.614C15.4988 25.614 11.1982 25.095 7.96492 23.9901C3.87421 22.5919 1.41034 20.3804 1.41034 18.4782C1.41034 16.6324 3.72221 14.5932 7.60501 13.2395C10.8858 12.0957 15.3278 11.4116 20.0398 11.4116H20.0404Z" stroke="#00D8FF" stroke-width="1.66272"/>
<path fill-rule="evenodd" clip-rule="evenodd" d="M13.8888 14.965C16.22 10.9227 18.9656 7.50192 21.5733 5.23259C24.7152 2.49838 27.7051 1.42759 29.317 2.35712C30.9969 3.32586 31.6062 6.6396 30.7073 11.003C30.0283 14.302 28.4048 18.2228 26.1919 22.0601C23.9229 25.9943 21.3249 29.4606 18.7528 31.7088C15.498 34.554 12.3513 35.5837 10.7035 34.6334C9.10451 33.7119 8.49304 30.6899 9.26011 26.65C9.90823 23.2366 11.5347 19.0469 13.888 14.965L13.8888 14.965Z" stroke="#00D8FF" stroke-width="1.66272"/>
<path fill-rule="evenodd" clip-rule="evenodd" d="M13.8946 22.0703C11.5567 18.0325 9.96501 13.9446 9.30061 10.5521C8.50084 6.46461 9.06631 3.33939 10.6768 2.40716C12.355 1.43557 15.5302 2.56262 18.8615 5.5206C21.3803 7.75696 23.9666 11.121 26.186 14.9547C28.4615 18.8851 30.1668 22.8671 30.8303 26.2183C31.6697 30.4592 30.9903 33.6995 29.344 34.6525C27.7466 35.5772 24.8235 34.5982 21.7066 31.9159C19.073 29.6498 16.2555 26.1482 13.8946 22.0702V22.0703Z" stroke="#00D8FF" stroke-width="1.66272"/>
<path fill-rule="evenodd" clip-rule="evenodd" d="M58.62 27.3579L54.36 20.9219C56.513 20.7319 58.453 19.1719 58.453 16.3219C58.453 13.4219 56.395 11.5659 53.508 11.5659H47.168V27.3459H49.132V21.0759H52.279L56.301 27.3459L58.62 27.3579ZM53.273 19.3609H49.133V13.3279H53.273C55.143 13.3279 56.42 14.5579 56.42 16.3329C56.42 18.1079 55.142 19.3629 53.273 19.3629V19.3609ZM65.931 27.6409C67.801 27.6409 69.338 27.0259 70.474 25.8909L69.622 24.7309C68.722 25.6539 67.398 26.1739 66.097 26.1739C63.637 26.1739 62.122 24.3759 61.98 22.2239H71.23V21.7739C71.23 18.3439 69.195 15.6459 65.74 15.6459C62.475 15.6459 60.11 18.3199 60.11 21.6319C60.11 25.2049 62.547 27.6319 65.93 27.6319L65.931 27.6409ZM69.481 20.9209H61.981C62.076 19.1709 63.281 17.1109 65.719 17.1109C68.322 17.1109 69.457 19.2169 69.481 20.9209ZM83.015 27.3569V19.5019C83.015 16.7339 81.005 15.6449 78.591 15.6449C76.721 15.6449 75.255 16.2599 74.025 17.5379L74.853 18.7679C75.87 17.6799 76.983 17.1829 78.355 17.1829C80.011 17.1829 81.242 18.0579 81.242 19.5959V21.6539C80.319 20.5889 79.018 20.0919 77.456 20.0919C75.516 20.0919 73.456 21.2989 73.456 23.8539C73.456 26.3379 75.514 27.6399 77.456 27.6399C78.994 27.6399 80.296 27.0959 81.242 26.0549V27.3549L83.015 27.3569ZM78.095 26.3629C76.439 26.3629 75.279 25.3229 75.279 23.8789C75.279 22.4119 76.439 21.3709 78.095 21.3709C79.349 21.3709 80.555 21.8439 81.242 22.7909V24.9439C80.556 25.8899 79.349 26.3629 78.095 26.3629ZM91.595 27.6409C93.677 27.6409 94.907 26.7889 95.783 25.6539L94.6 24.5659C93.843 25.5829 92.873 26.0559 91.7 26.0559C89.263 26.0559 87.75 24.1629 87.75 21.6319C87.75 19.1009 89.264 17.2319 91.7 17.2319C92.883 17.2319 93.853 17.6819 94.6 18.7219L95.783 17.6339C94.908 16.4979 93.677 15.6469 91.595 15.6469C88.188 15.6469 85.893 18.2499 85.893 21.6329C85.893 25.0399 88.188 27.6329 91.595 27.6329V27.6409ZM101.155 27.6409C102.195 27.6409 102.835 27.3329 103.285 26.9079L102.765 25.5829C102.528 25.8429 102.065 26.0559 101.558 26.0559C100.778 26.0559 100.398 25.4409 100.398 24.5889V17.4909H102.718V15.9299H100.398V12.8069H98.623V15.9299H96.73V17.4919H98.623V24.9689C98.623 26.6729 99.475 27.6429 101.155 27.6429V27.6409Z" fill="#00D8FF"/>
</svg>
