<svg width="128" height="29" viewBox="0 0 128 29" fill="none" xmlns="http://www.w3.org/2000/svg">
<path d="M79.4661 18.5133L70.0829 6.40095H67.7524V22.6529H70.1135V10.2033L79.7727 22.6529H81.8579V6.40095H79.4968V18.5133H79.4661ZM55.8241 15.4775H64.226V13.3924H55.7934V8.48611H65.2993V6.37028H53.3709V22.6223H65.4219V20.5064H55.7934L55.8241 15.4775ZM45.9502 13.423C42.6692 12.6258 41.7492 12.0125 41.7492 10.5099C41.7492 9.16072 42.9451 8.24079 44.7543 8.24079C46.3795 8.30212 47.9741 8.85407 49.262 9.86599L50.5192 8.05681C48.894 6.76892 46.8701 6.0943 44.785 6.15563C41.5653 6.15563 39.3268 8.05681 39.3268 10.7859C39.3268 13.699 41.228 14.7109 44.7237 15.5695C47.8207 16.2748 48.7713 16.9494 48.7713 18.4213C48.7713 19.8932 47.5141 20.8131 45.5209 20.8131C43.5584 20.8131 41.6879 20.0771 40.2467 18.7279L38.8055 20.4451C40.6453 22.0396 43.0065 22.8982 45.4289 22.8982C48.9246 22.8982 51.1631 21.0277 51.1631 18.1146C51.1325 15.6615 49.6912 14.343 45.9502 13.423ZM124.88 6.37028L120.004 14.0056L115.128 6.37028H112.277L118.686 16.2135V22.6529H121.139V16.1521L127.609 6.40095H124.88V6.37028ZM83.7897 8.5781H89.1253V22.6223H91.5784V8.5781H96.914V6.37028H83.8204L83.7897 8.5781ZM108.168 16.3055C110.621 15.6308 111.97 13.9137 111.97 11.4605C111.97 8.33278 109.701 6.37028 105.991 6.37028H98.7538V22.6529H101.176V16.8267H105.285L109.394 22.6836H112.215L107.769 16.4281L108.168 16.3055ZM101.207 14.7109V8.54743H105.776C108.168 8.54743 109.517 9.682 109.517 11.6138C109.517 13.5763 108.045 14.7109 105.807 14.7109H101.207ZM18.8432 1.95465C17.9846 0.5441 16.1754 0.0841373 14.7648 0.942732C14.3355 1.18805 13.9982 1.52535 13.7529 1.95465L9.55193 9.13005C16.0527 12.3804 20.3457 18.8199 20.8363 26.0873H17.8926C17.4019 19.8625 13.6609 14.3736 8.04938 11.6445L4.18571 18.3293C7.34411 19.7398 9.55193 22.6529 10.0426 26.0566H3.29645C3.02047 26.026 2.83648 25.8113 2.83648 25.5354C2.83648 25.474 2.86715 25.4127 2.89781 25.3514L4.76832 22.1623C4.12438 21.641 3.4191 21.2117 2.62183 20.9664L0.781987 24.1555C-0.0152796 25.5354 0.444683 27.3139 1.82457 28.1111C1.82457 28.1111 1.85523 28.1111 1.85523 28.1418C2.28453 28.3871 2.77516 28.5098 3.29645 28.5098H12.5263C12.8636 24.1861 10.9318 20.0158 7.4361 17.5014L8.90798 14.9562C13.3236 17.992 15.8381 23.1435 15.4701 28.5098H23.2894C23.6574 20.3838 19.6711 12.6871 12.8637 8.27146L15.8381 3.18121C15.9607 2.9359 16.2674 2.87457 16.5127 2.99723C16.85 3.18122 29.4223 25.1061 29.6676 25.382C29.7902 25.6273 29.7289 25.9033 29.4836 26.026C29.4223 26.0566 29.3303 26.0873 29.2383 26.0873H26.2025C26.2332 26.8846 26.2332 27.7125 26.2025 28.5098H29.2383C30.8635 28.5098 32.182 27.2219 32.182 25.5967V25.566C32.182 25.0447 32.0594 24.5541 31.7834 24.1248L18.8432 1.95465Z" fill="#010202"/>
</svg>
