<svg width="108" height="33" viewBox="0 0 108 33" fill="none" xmlns="http://www.w3.org/2000/svg">
<g clip-path="url(#clip0_359_113)">
<path d="M16.0267 12.5631C16.0267 14.3764 14.5333 15.8698 12.72 15.8698C10.9067 15.8698 9.41332 14.3764 9.41332 12.5631C9.41332 10.7498 10.9067 9.25643 12.72 9.25643C14.5333 9.25643 16.0267 10.7498 16.0267 12.5631ZM12.72 17.1498C10.9067 17.1498 9.41332 18.6431 9.41332 20.4564C9.41332 22.2698 10.9067 23.7631 12.72 23.7631C14.5333 23.7631 16.0267 22.2698 16.0267 20.4564C16.0267 18.6431 14.5333 17.1498 12.72 17.1498ZM32.6667 16.5098C32.6667 25.3631 25.52 32.5098 16.6667 32.5098C7.81332 32.5098 0.666656 25.3631 0.666656 16.5098C0.666656 7.65643 7.81332 0.509766 16.6667 0.509766C25.52 0.509766 32.6667 7.65643 32.6667 16.5098ZM28.4 16.5098C28.4 10.0031 23.1733 4.77643 16.6667 4.77643C10.16 4.77643 4.93332 10.0031 4.93332 16.5098C4.93332 23.0164 10.16 28.2431 16.6667 28.2431C23.1733 28.2431 28.4 23.0164 28.4 16.5098ZM20.6133 17.1498C18.8 17.1498 17.3067 18.6431 17.3067 20.4564C17.3067 22.2698 18.8 23.7631 20.6133 23.7631C22.4267 23.7631 23.92 22.2698 23.92 20.4564C23.92 18.6431 22.4267 17.1498 20.6133 17.1498ZM20.6133 9.25643C18.8 9.25643 17.3067 10.7498 17.3067 12.5631C17.3067 14.3764 18.8 15.8698 20.6133 15.8698C22.4267 15.8698 23.92 14.3764 23.92 12.5631C23.92 10.7498 22.4267 9.25643 20.6133 9.25643ZM75.6533 6.8031C75.76 6.8031 75.8667 6.90977 75.9733 7.01643V10.4298C75.9733 10.6431 75.76 10.7498 75.6533 10.7498H70C69.7867 10.7498 69.68 10.5364 69.68 10.4298V7.1231C69.68 6.90977 69.8933 6.8031 70 6.8031H75.6533ZM75.5466 11.6031H64.6667C64.56 11.6031 64.3467 11.7098 64.3467 11.9231L62.96 17.2564L62.8533 17.5764L61.1467 11.9231C61.1467 11.8164 60.9333 11.6031 60.8267 11.6031H56.56C56.4533 11.6031 56.24 11.7098 56.24 11.9231L54.64 17.2564L54.5333 17.5764L54.4267 17.2564L53.7867 14.5898L53.1467 11.9231C53.1467 11.8164 52.9333 11.6031 52.8267 11.6031H44.2933V7.01643C44.2933 6.90977 44.08 6.69643 43.8667 6.8031L38.5333 8.50977C38.32 8.50977 38.2133 8.61643 38.2133 8.82977V11.7098H36.8267C36.72 11.7098 36.5067 11.8164 36.5067 12.0298V16.0831C36.5067 16.1898 36.6133 16.4031 36.8267 16.4031H38.2133V21.4164C38.2133 24.9364 40.1333 26.5364 43.6533 26.5364C45.1467 26.5364 46.5333 26.2164 47.4933 25.6831V21.4164C47.4933 21.2031 47.28 21.0964 47.1733 21.2031C46.64 21.4164 46.1067 21.5231 45.68 21.5231C44.72 21.5231 44.1867 21.0964 44.1867 20.0298V16.4031H47.28C47.3867 16.4031 47.6 16.2964 47.6 16.0831V12.6698L51.6533 26.1098C51.6533 26.2164 51.8667 26.4298 51.9733 26.4298H56.4533C56.56 26.4298 56.7733 26.3231 56.7733 26.1098L58.6933 20.1364L59.6533 23.2298L60.5067 26.1098C60.5067 26.2164 60.72 26.4298 60.8267 26.4298H65.3066C65.4133 26.4298 65.6267 26.3231 65.6267 26.1098L69.68 12.6698V26.1098C69.68 26.2164 69.7867 26.4298 70 26.4298H75.44C75.5467 26.4298 75.76 26.3231 75.76 26.1098V11.9231C75.76 11.8164 75.6533 11.6031 75.5466 11.6031ZM82.6933 6.8031H77.2533C77.1467 6.8031 76.9333 6.90977 76.9333 7.1231V26.0031C76.9333 26.1098 77.04 26.3231 77.2533 26.3231H82.6933C82.8 26.3231 83.0133 26.2164 83.0133 26.0031V7.01643C83.0133 6.90977 82.9067 6.8031 82.6933 6.8031ZM89.9466 6.8031H84.2933C84.1867 6.8031 83.9733 6.90977 83.9733 7.1231V10.4298C83.9733 10.5364 84.08 10.7498 84.2933 10.7498H89.9466C90.0533 10.7498 90.2666 10.6431 90.2666 10.4298V7.01643C90.2666 6.90977 90.16 6.8031 89.9466 6.8031ZM89.84 11.6031H84.4C84.2933 11.6031 84.08 11.7098 84.08 11.9231V25.8964C84.08 26.0031 84.1867 26.2164 84.4 26.2164H89.84C89.9466 26.2164 90.16 26.1098 90.16 25.8964V11.9231C90.16 11.8164 90.0533 11.6031 89.84 11.6031ZM107.013 18.8564C107.013 22.9098 103.6 26.4298 98.8 26.4298C94.1067 26.4298 90.6933 22.9098 90.6933 18.8564C90.6933 14.8031 94.1067 11.2831 98.9066 11.2831C103.6 11.2831 107.013 14.8031 107.013 18.8564ZM101.253 18.9631C101.253 17.4698 100.187 16.2964 98.9066 16.4031C97.52 16.4031 96.56 17.5764 96.56 18.9631C96.56 20.3498 97.6266 21.5231 98.9066 21.5231C100.293 21.5231 101.253 20.3498 101.253 18.9631Z" fill="#F22F46"/>
</g>
<defs>
<clipPath id="clip0_359_113">
<rect width="106.667" height="32" fill="white" transform="translate(0.666656 0.509766)"/>
</clipPath>
</defs>
</svg>
