<svg width="16" height="16" viewBox="0 0 16 16" fill="none" xmlns="http://www.w3.org/2000/svg">
<path d="M11.89 13.5H4.11C3.68341 13.4987 3.27466 13.3286 2.97301 13.027C2.67137 12.7253 2.50132 12.3166 2.5 11.89V4.11C2.50132 3.68341 2.67137 3.27466 2.97301 2.97301C3.27466 2.67137 3.68341 2.50132 4.11 2.5H6.34V3.5H4.11C4.02989 3.5 3.95057 3.51578 3.87656 3.54643C3.80255 3.57709 3.73531 3.62202 3.67866 3.67866C3.62202 3.73531 3.57709 3.80255 3.54643 3.87656C3.51578 3.95057 3.5 4.02989 3.5 4.11V11.89C3.5 11.9701 3.51578 12.0494 3.54643 12.1234C3.57709 12.1974 3.62202 12.2647 3.67866 12.3213C3.73531 12.378 3.80255 12.4229 3.87656 12.4536C3.95057 12.4842 4.02989 12.5 4.11 12.5H11.89C12.0518 12.5 12.2069 12.4357 12.3213 12.3213C12.4357 12.2069 12.5 12.0518 12.5 11.89V9.75H13.5V11.89C13.4987 12.3166 13.3286 12.7253 13.027 13.027C12.7253 13.3286 12.3166 13.4987 11.89 13.5Z" fill="#131426"/>
<path d="M13.5 7.445H12.5V3.5H8.55499V2.5H12.5C12.7652 2.5 13.0196 2.60536 13.2071 2.79289C13.3946 2.98043 13.5 3.23478 13.5 3.5V7.445Z" fill="#131426"/>
<path d="M12.3222 2.97727L7.64819 7.65125L8.3553 8.35835L13.0293 3.68438L12.3222 2.97727Z" fill="#131426"/>
</svg>
