<svg width="40" height="41" viewBox="0 0 40 41" fill="none" xmlns="http://www.w3.org/2000/svg">
<path d="M30.4156 12.1666C30.4156 13.3172 29.4827 14.2499 28.3322 14.2499C27.1816 14.2499 26.2489 13.3172 26.2489 12.1666C26.2489 11.016 27.1816 10.0833 28.3322 10.0833C29.4827 10.0833 30.4156 11.016 30.4156 12.1666Z" fill="#204280"/>
<path d="M25.832 3.9165C19.8084 3.9165 14.9154 8.80949 14.9154 14.8332C14.9154 15.4785 14.999 16.1005 15.0995 16.6732C15.1292 16.8423 15.0749 16.9892 14.9841 17.08L4.59113 27.473C3.7316 28.3325 3.24872 29.4983 3.24872 30.7138V34.3332C3.24872 35.944 4.55455 37.2498 6.16538 37.2498H10.3321C11.9429 37.2498 13.2487 35.944 13.2487 34.3332V32.2498H16.1654C17.316 32.2498 18.2487 31.3172 18.2487 30.1665V27.2498H21.1654C22.2902 27.2498 23.2069 26.3585 23.2474 25.2435C24.0752 25.4565 24.9482 25.5832 25.832 25.5832C31.8557 25.5832 36.7487 20.6902 36.7487 14.6665C36.7487 8.6146 31.8272 3.9165 25.832 3.9165ZM17.4154 14.8332C17.4154 10.1902 21.189 6.4165 25.832 6.4165C30.5035 6.4165 34.2487 10.0518 34.2487 14.6665C34.2487 19.3095 30.475 23.0832 25.832 23.0832C24.6999 23.0832 23.5344 22.798 22.4912 22.3508C22.1049 22.1853 21.6614 22.225 21.3107 22.4563C20.9599 22.6877 20.7487 23.0797 20.7487 23.4998V24.7498H17.832C16.6815 24.7498 15.7487 25.6825 15.7487 26.8332V29.7498H12.8321C11.6815 29.7498 10.7487 30.6825 10.7487 31.8332V34.3332C10.7487 34.5633 10.5622 34.7498 10.3321 34.7498H6.16538C5.93527 34.7498 5.74872 34.5633 5.74872 34.3332V30.7138C5.74872 30.1613 5.9682 29.6315 6.35892 29.2407L16.7519 18.8478C17.4492 18.1505 17.7249 17.1698 17.5619 16.2412C17.4724 15.7313 17.4154 15.2705 17.4154 14.8332Z" fill="#204280"/>
</svg>
