<svg width="40" height="41" viewBox="0 0 40 41" fill="none" xmlns="http://www.w3.org/2000/svg">
<g clip-path="url(#clip0_141_774)">
<path d="M26.6667 28.8333V27.1667H21.6667V22.1667H26.6667V25.5H30V28.8333H28.3333V32.1667H25V35.5H21.6667V30.5H25V28.8333H26.6667ZM35 35.5H28.3333V32.1667H31.6667V28.8333H35V35.5ZM5 5.5H18.3333V18.8333H5V5.5ZM8.33333 8.83333V15.5H15V8.83333H8.33333ZM21.6667 5.5H35V18.8333H21.6667V5.5ZM25 8.83333V15.5H31.6667V8.83333H25ZM5 22.1667H18.3333V35.5H5V22.1667ZM8.33333 25.5V32.1667H15V25.5H8.33333ZM30 22.1667H35V25.5H30V22.1667ZM10 10.5H13.3333V13.8333H10V10.5ZM10 27.1667H13.3333V30.5H10V27.1667ZM26.6667 10.5H30V13.8333H26.6667V10.5Z" fill="#204280"/>
</g>
<defs>
<clipPath id="clip0_141_774">
<rect width="40" height="40" fill="white" transform="translate(0 0.5)"/>
</clipPath>
</defs>
</svg>
