<svg width="338" height="401" viewBox="0 0 338 401" fill="none" xmlns="http://www.w3.org/2000/svg">
<g clip-path="url(#clip0_141_218)">
<path d="M32.304 243.516C32.1723 243.516 32.0287 243.48 31.909 243.408L20.3471 236.574C19.593 236.131 19.1502 235.341 19.1622 234.468C19.1622 233.594 19.6409 232.816 20.4069 232.385L104.716 185.371C107.469 183.839 109.18 180.931 109.18 177.783V132.78C109.18 132.026 109.575 131.344 110.233 130.961C110.892 130.578 111.67 130.578 112.328 130.961L120.299 135.557C120.67 135.772 120.802 136.251 120.586 136.622C120.371 136.993 119.904 137.125 119.521 136.909L111.55 132.313C111.311 132.17 111.095 132.265 111.011 132.313C110.928 132.361 110.736 132.505 110.736 132.78V177.783C110.736 181.493 108.725 184.929 105.482 186.736L21.1729 233.75C20.778 233.965 20.7301 234.336 20.7301 234.492C20.7301 234.635 20.766 235.018 21.149 235.246L32.7109 242.08C33.082 242.295 33.2017 242.774 32.9862 243.145C32.8426 243.385 32.5793 243.528 32.316 243.528L32.304 243.516Z" fill="#5793CE"/>
<path d="M38.0093 249.636L41.2004 244.071L29.1872 237.182L25.9961 242.748L38.0093 249.636Z" fill="#5793CE"/>
<path d="M25.3261 241.278C25.3261 239.83 26.3315 238.071 27.5883 237.341C28.845 236.611 29.8623 237.197 29.8623 238.645C29.8623 240.094 28.857 241.853 27.6002 242.583C26.3435 243.313 25.3261 242.727 25.3261 241.278Z" fill="#5793CE"/>
<path d="M53.7588 260.971L58.9325 251.948L40.0872 241.142L34.9135 250.165L53.7588 260.971Z" fill="#5793CE"/>
<path d="M39.234 242.93L35.1646 240.596C33.477 241.805 32.1604 244.103 31.9689 246.161L36.0383 248.495C37.7259 247.287 39.0425 244.989 39.234 242.93Z" fill="#396CAA"/>
<path d="M33.836 247.777C33.836 245.431 35.4638 242.583 37.4985 241.398C39.5212 240.225 41.1729 241.17 41.1849 243.504C41.1849 245.85 39.5571 248.699 37.5224 249.884C35.4997 251.057 33.848 250.111 33.836 247.777Z" fill="#5793CE"/>
<path d="M29.1203 239.794C28.5338 239.459 28.5338 238.909 29.1203 238.562C29.7068 238.214 30.6643 238.214 31.2507 238.562C31.8372 238.909 31.8372 239.447 31.2507 239.794C30.6643 240.141 29.7068 240.141 29.1203 239.794Z" fill="#D4ECFF"/>
<path d="M129.227 145.251L132.418 139.686L120.405 132.798L117.214 138.363L129.227 145.251Z" fill="#5793CE"/>
<path d="M116.553 136.898C116.553 135.45 117.558 133.69 118.815 132.96C120.072 132.23 121.089 132.816 121.089 134.265C121.089 135.713 120.084 137.472 118.827 138.202C117.57 138.933 116.553 138.346 116.553 136.898Z" fill="#5793CE"/>
<path d="M144.993 156.582L150.167 147.559L131.321 136.753L126.148 145.776L144.993 156.582Z" fill="#5793CE"/>
<path d="M130.449 138.561L126.379 136.228C124.692 137.436 123.375 139.734 123.184 141.793L127.253 144.127C128.941 142.918 130.257 140.62 130.449 138.561Z" fill="#396CAA"/>
<path d="M125.063 143.397C125.063 141.051 126.691 138.202 128.725 137.017C130.748 135.844 132.4 136.79 132.412 139.124C132.424 141.458 130.784 144.318 128.749 145.503C126.727 146.676 125.075 145.731 125.063 143.397Z" fill="#5793CE"/>
<path d="M120.347 135.413C119.761 135.078 119.761 134.528 120.347 134.18C120.934 133.845 121.891 133.833 122.478 134.18C123.064 134.516 123.064 135.066 122.478 135.413C121.891 135.748 120.934 135.76 120.347 135.413Z" fill="#D4ECFF"/>
<path d="M166.846 164.186C166.583 164.186 166.32 164.043 166.176 163.803C165.961 163.432 166.092 162.954 166.463 162.738L195.524 145.958C197.965 144.545 199.485 141.912 199.485 139.088V95.2576C199.485 94.3958 199.928 93.6178 200.682 93.187C201.424 92.7561 202.322 92.7561 203.076 93.187L250.042 120.404V83.8273C250.042 83.3964 250.389 83.0493 250.82 83.0493C251.251 83.0493 251.598 83.3964 251.598 83.8273V121.757C251.598 122.032 251.454 122.295 251.203 122.427C250.964 122.571 250.664 122.571 250.425 122.427L202.298 94.5275C201.927 94.312 201.592 94.4557 201.472 94.5275C201.352 94.5993 201.053 94.8147 201.053 95.2456V139.076C201.053 142.451 199.234 145.599 196.314 147.286L167.253 164.067C167.133 164.138 167.002 164.174 166.87 164.174L166.846 164.186Z" fill="#5793CE"/>
<path d="M224.967 196.85C224.704 196.85 224.44 196.706 224.297 196.467C224.081 196.096 224.213 195.617 224.584 195.402L260.73 174.54C263.172 173.128 264.692 170.494 264.692 167.67V92.182C264.692 91.7512 265.039 91.4041 265.47 91.4041C265.901 91.4041 266.248 91.7512 266.248 92.182V167.67C266.248 171.045 264.428 174.193 261.508 175.88L225.362 196.742C225.242 196.814 225.111 196.85 224.979 196.85H224.967Z" fill="#5793CE"/>
<path d="M289.767 233.14C289.479 233.14 289.192 232.996 289.037 232.721C288.809 232.326 288.941 231.811 289.348 231.584L322.119 212.661C324.56 211.26 326.068 208.639 326.056 205.827L325.949 170.59C325.949 167.789 324.429 165.192 322.011 163.792L279.713 139.435C279.449 139.292 279.294 139.004 279.294 138.717V100.548C279.294 100.081 279.665 99.7104 280.132 99.7104C280.598 99.7104 280.969 100.081 280.969 100.548V138.238L322.849 162.356C325.793 164.043 327.624 167.203 327.624 170.602L327.732 205.839C327.732 209.25 325.913 212.421 322.956 214.133L290.186 233.056C290.054 233.128 289.91 233.163 289.767 233.163V233.14Z" fill="#5793CE"/>
<path d="M283.339 98.2144H276.924V112.062H283.339V98.2144Z" fill="#5793CE"/>
<path d="M282.394 113.367C281.137 114.085 279.114 114.085 277.858 113.367C276.601 112.649 276.601 111.476 277.858 110.746C279.114 110.028 281.137 110.028 282.394 110.746C283.651 111.464 283.651 112.637 282.394 113.367Z" fill="#5793CE"/>
<path d="M285.326 78.9082H274.925V100.632H285.326V78.9082Z" fill="#5793CE"/>
<path d="M276.924 100.488V105.18C278.803 106.042 281.46 106.042 283.339 105.18V100.488C281.46 99.6264 278.803 99.6264 276.924 100.488Z" fill="#396CAA"/>
<path d="M283.806 102.75C281.771 103.923 278.48 103.923 276.457 102.75C274.423 101.577 274.423 99.6742 276.457 98.5013C278.492 97.3283 281.783 97.3283 283.806 98.5013C285.841 99.6742 285.841 101.577 283.806 102.75Z" fill="#5793CE"/>
<path d="M268.666 89.8601H262.25V103.708H268.666V89.8601Z" fill="#5793CE"/>
<path d="M267.732 105.024C266.475 105.742 264.452 105.742 263.196 105.024C261.939 104.306 261.939 103.133 263.196 102.403C264.452 101.673 266.475 101.685 267.732 102.403C268.989 103.121 268.989 104.294 267.732 105.024Z" fill="#5793CE"/>
<path d="M270.664 70.5659H260.263V92.2894H270.664V70.5659Z" fill="#5793CE"/>
<path d="M262.25 92.1458V96.8376C264.129 97.6994 266.786 97.6994 268.666 96.8376V92.1458C266.786 91.2841 264.129 91.2841 262.25 92.1458Z" fill="#396CAA"/>
<path d="M269.132 94.408C267.098 95.5809 263.806 95.5809 261.783 94.408C259.749 93.235 259.749 91.332 261.783 90.159C263.818 88.9861 267.11 88.9861 269.132 90.159C271.167 91.332 271.167 93.235 269.132 94.408Z" fill="#5793CE"/>
<path d="M254.004 81.5178H247.588V95.3658H254.004V81.5178Z" fill="#5793CE"/>
<path d="M253.058 96.6699C251.801 97.388 249.779 97.388 248.522 96.6699C247.265 95.9518 247.265 94.7788 248.522 94.0487C249.779 93.3186 251.801 93.3306 253.058 94.0487C254.315 94.7668 254.315 95.9398 253.058 96.6699Z" fill="#5793CE"/>
<path d="M255.99 62.2236H245.589V83.9472H255.99V62.2236Z" fill="#5793CE"/>
<path d="M247.588 83.7916V88.4834C249.467 89.3452 252.124 89.3452 254.004 88.4834V83.7916C252.124 82.9298 249.467 82.9298 247.588 83.7916Z" fill="#396CAA"/>
<path d="M254.47 86.0537C252.436 87.2267 249.144 87.2267 247.121 86.0537C245.087 84.8808 245.087 82.9777 247.121 81.8048C249.156 80.6318 252.448 80.6318 254.47 81.8048C256.505 82.9777 256.505 84.8808 254.47 86.0537Z" fill="#5793CE"/>
<path d="M319.689 117.424L333.633 109.213L320.347 92.6365L316.864 98.3456L319.689 117.424Z" fill="#5793CE"/>
<path d="M218.456 26.4725L240.706 13.6658C240.706 13.6658 239.868 26.4366 239.868 26.4725C239.868 26.5084 227.086 30.4342 227.086 30.4342L218.456 26.4725Z" fill="#5793CE"/>
<path d="M323.567 75.7489C321.867 74.7675 320.251 74.2049 318.755 73.9656C316.517 62.1762 308.306 49.6568 298.528 44.0074C295.584 42.3079 292.783 41.3982 290.245 41.2067C288.905 26.9159 278.971 10.6741 266.906 3.70821C260.598 0.0696726 254.889 -0.361207 250.664 1.865L250.461 1.97272C250.353 2.03257 250.245 2.09241 250.138 2.15226L237.02 9.89612L241.376 13.3432C237.463 15.0547 234.985 19.4473 234.985 25.9344C234.985 37.9033 243.387 52.4455 253.752 58.43L323.567 108.28C331.347 112.769 337.654 109.13 337.654 100.142C337.654 91.1529 331.347 80.2253 323.567 75.737V75.7489Z" fill="#5793CE"/>
<path d="M235.631 20.6677L265.745 3.07341C259.904 0.0213496 254.614 -0.229997 250.652 1.86456L250.449 1.97228C250.341 2.03212 250.233 2.09197 250.126 2.15181L237.008 9.89568L241.364 13.3427C238.624 14.5396 236.601 17.0411 235.619 20.6677H235.631Z" fill="#5793CE"/>
<path d="M291.251 72.4335L313.226 59.543C309.455 53.02 304.273 47.3348 298.528 44.0074C297.762 43.5646 297.02 43.1816 296.278 42.8464L268.33 59.1959L291.263 72.4335H291.251Z" fill="#5793CE"/>
<path d="M243.208 11.3438L252.998 16.9931L270.928 6.43652C269.623 5.41917 268.271 4.49756 266.894 3.70762C264.728 2.45088 262.621 1.58912 260.622 1.07446L243.196 11.3438H243.208Z" fill="#D4ECFF"/>
<path d="M310.796 55.7368L293.262 66.066L299.366 72.8643L315.284 63.4687C314.028 60.7757 312.508 58.1665 310.796 55.7368Z" fill="#D4ECFF"/>
<path d="M309.791 83.8636C308.091 82.8822 306.475 82.3197 304.979 82.0803C302.741 70.2909 294.53 57.7715 284.752 52.1222C281.807 50.4226 279.007 49.513 276.469 49.3215C275.129 35.0306 265.195 18.7888 253.13 11.8229C240.156 4.33043 229.635 10.3986 229.635 25.3837C229.635 25.8864 229.647 26.401 229.671 26.9157C220.18 22.5112 212.771 27.4782 212.771 38.717C212.771 50.6859 221.173 65.2281 231.538 71.2125L309.803 116.395C317.582 120.883 323.89 117.245 323.89 108.256C323.89 99.2676 317.582 88.34 309.803 83.8517L309.791 83.8636Z" fill="#D4ECFF"/>
<path d="M229.659 26.9154C229.635 26.4007 229.623 25.886 229.623 25.3833C229.623 25.3594 229.623 25.3355 229.623 25.3235C224.381 23.2888 219.88 24.1745 217.044 27.442C220.12 24.9165 224.584 24.5695 229.659 26.9273V26.9154Z" fill="white"/>
<path d="M310.928 82.7501C309.228 81.7687 307.612 81.2062 306.116 80.9668C303.878 69.1774 295.667 56.658 285.889 51.0087C282.944 49.3091 280.144 48.3994 277.606 48.2079C276.266 33.9171 266.332 17.6753 254.267 10.7094C246.188 6.04156 239.054 6.64001 234.829 11.3797C239.138 7.69327 245.733 7.56161 253.13 11.8225C265.195 18.7884 275.129 35.0302 276.469 49.321C279.007 49.5126 281.807 50.4222 284.752 52.1218C294.53 57.7711 302.741 70.2905 304.979 82.0799C306.487 82.3193 308.103 82.8818 309.791 83.8633C317.57 88.3516 323.878 99.2792 323.878 108.268C323.878 111.511 323.052 114.049 321.628 115.76C323.734 114.133 325.015 111.188 325.015 107.143C325.015 98.1541 318.707 87.2265 310.928 82.7382V82.7501Z" fill="white"/>
<path d="M228.007 30.4941L233.896 33.223L233.597 26.7479C233.573 26.293 233.561 25.8382 233.561 25.3954C233.561 19.6144 235.308 15.4253 238.48 13.594C241.652 11.7628 246.152 12.3493 251.167 15.2458C261.939 21.4696 271.335 36.5982 272.555 49.7042L272.867 53.0076L276.17 53.2589C278.205 53.4145 280.431 54.1805 282.789 55.545C291.347 60.4881 299.054 71.9663 301.125 82.834L301.64 85.551L304.381 85.9818C305.47 86.1494 306.631 86.5923 307.84 87.2865C314.411 91.0806 319.964 100.692 319.964 108.28C319.964 111.117 319.174 113.199 317.81 114.001C316.433 114.791 314.243 114.432 311.777 113.02L233.513 67.837C224.405 62.5827 216.721 49.2613 216.721 38.7407C216.721 34.6114 217.941 31.4756 220.06 30.1231C220.934 29.5605 221.987 29.2853 223.184 29.2853C224.632 29.2853 226.284 29.6922 228.043 30.518L228.007 30.4941Z" fill="#396CAA"/>
<path d="M267.074 79.5428L269.132 78.5015L267.098 76.9575L267.074 79.5428Z" fill="#5793CE"/>
<path d="M260.874 51.6555L262.873 50.6382L262.908 51.6914L260.874 51.6555Z" fill="#5793CE"/>
<path d="M272.962 73.0195L275.045 71.9663L271.023 68.1362L272.962 73.0195Z" fill="#5793CE"/>
<path d="M268.534 78.4413L258.755 72.6842C258.265 72.397 257.858 71.6549 257.858 71.0445L257.894 59.7339L269.467 66.5442L269.432 77.8548C269.432 78.4652 269.025 78.7285 268.534 78.4413Z" fill="#5793CE"/>
<path d="M262.849 50.6497L252.292 57.448C251.849 57.7353 252.208 58.8125 252.89 59.2075L263.674 65.5629L274.458 71.9184C275.141 72.3134 275.5 71.679 275.057 70.8651L264.572 51.679C264.117 50.8532 263.303 50.3744 262.849 50.6617V50.6497Z" fill="#5793CE"/>
<path d="M266.439 79.495L256.661 73.7379C256.17 73.4507 255.763 72.7086 255.763 72.0982L255.799 60.7876L267.373 67.5979L267.337 78.9085C267.337 79.5189 266.93 79.7822 266.439 79.495Z" fill="#D4ECFF"/>
<path d="M260.754 51.7029L250.198 58.5012C249.755 58.7885 250.114 59.8657 250.796 60.2607L261.58 66.6162L272.364 72.9716C273.046 73.3666 273.405 72.7322 272.962 71.9184L262.478 52.7322C262.023 51.9064 261.209 51.4276 260.754 51.7149V51.7029Z" fill="#D4ECFF"/>
<path d="M249.886 94.1326C249.886 94.8148 249.408 95.0901 248.821 94.743C248.235 94.4079 247.756 93.582 247.756 92.8998C247.756 92.2176 248.235 91.9423 248.821 92.2894C249.408 92.6245 249.886 93.4504 249.886 94.1326Z" fill="#D4ECFF"/>
<path d="M163.423 245.743L192.771 228.795C194.566 227.754 194.351 225.934 192.268 224.737L163.938 208.376C161.855 207.179 158.707 207.047 156.912 208.089L127.564 225.037C125.769 226.078 125.984 227.897 128.067 229.094L156.397 245.456C158.48 246.653 161.628 246.784 163.423 245.743Z" fill="#B2D3EA"/>
<path d="M117.822 212.134V199.459H146.248L156.074 193.774C158.324 192.469 162.274 192.637 164.871 194.133L174.04 199.423H202.49V212.446C202.549 213.331 202.059 214.181 200.981 214.803L164.237 236.024C161.987 237.329 158.037 237.161 155.44 235.665L119.964 215.174C118.456 214.313 117.738 213.188 117.822 212.134Z" fill="#396CAA"/>
<path d="M160.168 192.9C161.819 192.936 163.531 193.354 164.883 194.132L174.051 199.423H202.502V212.445C202.561 213.331 202.071 214.18 200.993 214.803L164.249 236.024C163.16 236.646 161.688 236.933 160.168 236.897V192.9Z" fill="#396CAA"/>
<path d="M199.282 199.411H202.501V212.446C202.561 213.331 202.071 214.181 200.993 214.803L199.282 215.785V199.399V199.411Z" fill="#5793CE"/>
<path d="M163.686 236.299C161.736 237.137 158.923 237.089 156.649 236.215V221.41H163.686V236.299Z" fill="#5793CE"/>
<path d="M164.249 223.026L200.993 201.805C203.244 200.5 202.968 198.226 200.359 196.73L164.883 176.239C162.274 174.731 158.336 174.576 156.086 175.88L119.342 197.101C117.092 198.406 117.367 200.68 119.976 202.176L155.452 222.667C158.061 224.175 161.999 224.33 164.249 223.026Z" fill="#D4ECFF"/>
<path d="M163.591 219.207L194.387 201.434C196.278 200.345 196.038 198.441 193.86 197.173L164.129 180.009C161.951 178.753 158.648 178.609 156.756 179.698L125.96 197.472C124.069 198.561 124.309 200.464 126.487 201.733L156.218 218.896C158.396 220.153 161.7 220.297 163.591 219.207Z" fill="#5793CE"/>
<path d="M131.346 215.485C131.346 216.431 132.017 217.58 132.831 218.059C133.645 218.537 134.315 218.142 134.315 217.197C134.315 216.251 133.645 215.102 132.831 214.624C132.017 214.145 131.346 214.54 131.346 215.485Z" fill="#D4ECFF"/>
<path d="M126.571 212.72C126.571 213.666 127.241 214.815 128.055 215.294C128.869 215.772 129.539 215.377 129.539 214.432C129.539 213.486 128.869 212.337 128.055 211.858C127.241 211.38 126.571 211.775 126.571 212.72Z" fill="#D4ECFF"/>
<path d="M121.795 209.967C121.795 210.913 122.466 212.062 123.279 212.541C124.093 213.019 124.764 212.624 124.764 211.679C124.764 210.733 124.093 209.584 123.279 209.106C122.466 208.627 121.795 209.022 121.795 209.967Z" fill="#D4ECFF"/>
<path d="M117.822 191.871V179.196H146.248L156.074 173.511C158.324 172.206 162.274 172.374 164.871 173.87L174.04 179.16H202.49V192.182C202.549 193.068 202.059 193.918 200.981 194.54L164.237 215.761C161.987 217.065 158.037 216.898 155.44 215.402L119.964 194.911C118.456 194.049 117.738 192.924 117.822 191.871Z" fill="#396CAA"/>
<path d="M160.168 172.636C161.819 172.672 163.531 173.091 164.883 173.869L174.051 179.16H202.502V192.182C202.561 193.067 202.071 193.917 200.993 194.54L164.249 215.76C163.16 216.383 161.688 216.67 160.168 216.634V172.636Z" fill="#396CAA"/>
<path d="M199.282 179.147H202.501V192.182C202.561 193.067 202.071 193.917 200.993 194.539L199.282 195.521V179.135V179.147Z" fill="#5793CE"/>
<path d="M163.686 216.036C161.736 216.874 158.923 216.826 156.649 215.952V201.147H163.686V216.036Z" fill="#5793CE"/>
<path d="M164.249 202.763L200.993 181.542C203.244 180.237 202.968 177.963 200.359 176.467L164.883 155.976C162.274 154.468 158.336 154.313 156.086 155.617L119.342 176.838C117.092 178.143 117.367 180.417 119.976 181.913L155.452 202.404C158.061 203.912 161.999 204.067 164.249 202.763Z" fill="#D4ECFF"/>
<path d="M163.591 198.945L194.387 181.171C196.278 180.082 196.038 178.179 193.86 176.91L164.129 159.746C161.951 158.49 158.648 158.346 156.756 159.435L125.96 177.209C124.069 178.298 124.309 180.201 126.487 181.47L156.218 198.633C158.396 199.89 161.7 200.034 163.591 198.945Z" fill="#5793CE"/>
<path d="M131.346 195.222C131.346 196.168 132.017 197.317 132.831 197.796C133.645 198.274 134.315 197.879 134.315 196.934C134.315 195.988 133.645 194.839 132.831 194.36C132.017 193.882 131.346 194.277 131.346 195.222Z" fill="#D4ECFF"/>
<path d="M126.571 192.457C126.571 193.403 127.241 194.552 128.055 195.031C128.869 195.509 129.539 195.114 129.539 194.169C129.539 193.223 128.869 192.074 128.055 191.596C127.241 191.117 126.571 191.512 126.571 192.457Z" fill="#5793CE"/>
<path d="M121.795 189.704C121.795 190.65 122.466 191.799 123.279 192.277C124.093 192.756 124.764 192.361 124.764 191.416C124.764 190.47 124.093 189.321 123.279 188.842C122.466 188.364 121.795 188.759 121.795 189.704Z" fill="#5793CE"/>
<path d="M117.822 171.607V158.932H146.248L156.074 153.247C158.324 151.942 162.274 152.11 164.871 153.606L174.04 158.896H202.49V171.918C202.549 172.804 202.059 173.654 200.981 174.276L164.237 195.497C161.987 196.802 158.037 196.634 155.44 195.138L119.964 174.647C118.456 173.786 117.738 172.66 117.822 171.607Z" fill="#396CAA"/>
<path d="M160.168 152.374C161.819 152.409 163.531 152.828 164.883 153.606L174.051 158.897H202.502V171.919C202.561 172.804 202.071 173.654 200.993 174.277L164.249 195.497C163.16 196.12 161.688 196.407 160.168 196.371V152.374Z" fill="#396CAA"/>
<path d="M199.282 158.884H202.501V171.918C202.561 172.804 202.071 173.654 200.993 174.276L199.282 175.258V158.872V158.884Z" fill="#5793CE"/>
<path d="M163.686 195.773C161.736 196.611 158.923 196.563 156.649 195.689V180.884H163.686V195.773Z" fill="#5793CE"/>
<path d="M164.249 182.511L200.993 161.29C203.244 159.985 202.968 157.711 200.359 156.215L164.883 135.725C162.274 134.216 158.336 134.061 156.086 135.365L119.342 156.586C117.092 157.891 117.367 160.165 119.976 161.661L155.452 182.152C158.061 183.66 161.999 183.816 164.249 182.511Z" fill="#D4ECFF"/>
<path d="M119.964 159.159L155.44 179.65C158.049 181.158 161.987 181.314 164.237 180.009L200.981 158.788C201.484 158.501 201.855 158.154 202.107 157.795C202.884 159.04 202.525 160.392 200.981 161.29L164.237 182.511C161.987 183.815 158.037 183.648 155.44 182.152L119.964 161.661C117.941 160.488 117.331 158.86 118.205 157.58C118.564 158.154 119.15 158.693 119.964 159.171V159.159Z" fill="white"/>
<path d="M131.346 174.959C131.346 175.904 132.017 177.053 132.831 177.532C133.645 178.011 134.315 177.616 134.315 176.67C134.315 175.725 133.645 174.576 132.831 174.097C132.017 173.618 131.346 174.013 131.346 174.959Z" fill="#5793CE"/>
<path d="M126.571 172.206C126.571 173.151 127.241 174.3 128.055 174.779C128.869 175.258 129.539 174.863 129.539 173.917C129.539 172.972 128.869 171.823 128.055 171.344C127.241 170.865 126.571 171.26 126.571 172.206Z" fill="#D4ECFF"/>
<path d="M121.795 169.441C121.795 170.387 122.466 171.536 123.279 172.015C124.093 172.493 124.764 172.098 124.764 171.153C124.764 170.207 124.093 169.058 123.279 168.579C122.466 168.101 121.795 168.496 121.795 169.441Z" fill="#D4ECFF"/>
<path d="M162.071 169.357L179.27 159.435C180.323 158.825 180.191 157.759 178.971 157.053L162.37 147.466C161.149 146.76 159.306 146.688 158.253 147.299L141.053 157.221C140 157.831 140.132 158.896 141.352 159.603L157.953 169.19C159.174 169.896 161.017 169.968 162.071 169.357Z" fill="#5793CE"/>
<path d="M160.431 161.039L162.813 159.662C162.956 159.578 162.944 159.435 162.777 159.339L160.479 158.01C160.311 157.915 160.06 157.903 159.904 157.986L157.522 159.363C157.379 159.447 157.391 159.59 157.558 159.686L159.856 161.015C160.024 161.11 160.275 161.122 160.431 161.039Z" fill="#D4ECFF"/>
<path d="M179.27 159.423L179.222 159.447C179.138 159.387 179.066 159.327 178.971 159.279L162.37 149.692C161.149 148.986 159.306 148.914 158.253 149.525L141.101 159.423C140.132 158.729 140.072 157.783 141.053 157.221L158.253 147.299C159.306 146.688 161.149 146.76 162.37 147.466L178.971 157.053C180.191 157.759 180.323 158.825 179.27 159.435V159.423Z" fill="#396CAA"/>
<path d="M228.223 282.2L257.57 265.252C259.366 264.211 259.15 262.391 257.068 261.195L228.737 244.833C226.655 243.636 223.507 243.505 221.712 244.546L192.364 261.494C190.569 262.535 190.784 264.354 192.867 265.551L221.197 281.913C223.28 283.11 226.427 283.241 228.223 282.2Z" fill="#B2D3EA"/>
<path d="M182.621 248.591V235.916H211.047L220.874 230.231C223.124 228.926 227.074 229.094 229.671 230.59L238.839 235.88H267.289V248.902C267.349 249.788 266.858 250.638 265.781 251.26L229.037 272.481C226.786 273.786 222.837 273.618 220.239 272.122L184.764 251.631C183.256 250.769 182.537 249.644 182.621 248.591Z" fill="#396CAA"/>
<path d="M224.967 229.357C226.619 229.393 228.33 229.812 229.683 230.59L238.851 235.88H267.301V248.903C267.361 249.788 266.87 250.638 265.793 251.26L229.049 272.481C227.959 273.104 226.487 273.391 224.967 273.355V229.357Z" fill="#396CAA"/>
<path d="M264.081 235.868H267.301V248.903C267.361 249.788 266.87 250.638 265.793 251.26L264.081 252.242V235.856V235.868Z" fill="#5793CE"/>
<path d="M228.486 272.756C226.535 273.594 223.722 273.546 221.448 272.672V257.867H228.486V272.756Z" fill="#5793CE"/>
<path d="M229.048 259.483L265.793 238.262C268.043 236.957 267.768 234.683 265.159 233.187L229.683 212.696C227.074 211.188 223.136 211.033 220.886 212.337L184.141 233.558C181.891 234.863 182.166 237.137 184.776 238.633L220.251 259.124C222.861 260.632 226.798 260.787 229.048 259.483Z" fill="#D4ECFF"/>
<path d="M228.39 255.665L259.186 237.891C261.077 236.802 260.838 234.898 258.66 233.63L228.929 216.466C226.75 215.21 223.447 215.066 221.556 216.155L190.76 233.929C188.869 235.018 189.108 236.921 191.287 238.19L221.017 255.353C223.196 256.61 226.499 256.754 228.39 255.665Z" fill="#5793CE"/>
<path d="M196.146 251.942C196.146 252.888 196.816 254.037 197.63 254.516C198.444 254.994 199.114 254.6 199.114 253.654C199.114 252.708 198.444 251.559 197.63 251.081C196.816 250.602 196.146 250.997 196.146 251.942Z" fill="#D4ECFF"/>
<path d="M191.37 249.178C191.37 250.123 192.041 251.272 192.855 251.751C193.669 252.23 194.339 251.835 194.339 250.889C194.339 249.944 193.669 248.795 192.855 248.316C192.041 247.837 191.37 248.232 191.37 249.178Z" fill="#5793CE"/>
<path d="M186.595 246.425C186.595 247.37 187.265 248.519 188.079 248.998C188.893 249.477 189.563 249.082 189.563 248.136C189.563 247.191 188.893 246.042 188.079 245.563C187.265 245.084 186.595 245.479 186.595 246.425Z" fill="#D4ECFF"/>
<path d="M182.621 228.328V215.653H211.047L220.874 209.968C223.124 208.663 227.074 208.831 229.671 210.327L238.839 215.617H267.289V228.639C267.349 229.525 266.858 230.375 265.781 230.997L229.037 252.218C226.786 253.523 222.837 253.355 220.239 251.859L184.764 231.368C183.256 230.507 182.537 229.381 182.621 228.328Z" fill="#396CAA"/>
<path d="M224.967 209.094C226.619 209.13 228.33 209.549 229.683 210.327L238.851 215.617H267.301V228.639C267.361 229.525 266.87 230.374 265.793 230.997L229.049 252.218C227.959 252.84 226.487 253.127 224.967 253.091V209.094Z" fill="#396CAA"/>
<path d="M264.081 215.605H267.301V228.639C267.361 229.525 266.87 230.375 265.793 230.997L264.081 231.979V215.593V215.605Z" fill="#5793CE"/>
<path d="M228.486 252.493C226.535 253.331 223.722 253.283 221.448 252.409V237.604H228.486V252.493Z" fill="#5793CE"/>
<path d="M229.048 239.22L265.793 217.999C268.043 216.694 267.768 214.42 265.159 212.924L229.683 192.434C227.074 190.925 223.136 190.77 220.886 192.074L184.141 213.295C181.891 214.6 182.166 216.874 184.776 218.37L220.251 238.861C222.861 240.369 226.798 240.525 229.048 239.22Z" fill="#D4ECFF"/>
<path d="M228.39 235.401L259.186 217.628C261.077 216.538 260.838 214.635 258.66 213.367L228.929 196.203C226.75 194.946 223.447 194.803 221.556 195.892L190.76 213.666C188.869 214.755 189.108 216.658 191.287 217.927L221.017 235.09C223.196 236.347 226.499 236.49 228.39 235.401Z" fill="#5793CE"/>
<path d="M196.146 231.679C196.146 232.625 196.816 233.774 197.63 234.253C198.444 234.732 199.114 234.337 199.114 233.391C199.114 232.446 198.444 231.296 197.63 230.818C196.816 230.339 196.146 230.734 196.146 231.679Z" fill="#D4ECFF"/>
<path d="M191.37 228.915C191.37 229.86 192.041 231.009 192.855 231.488C193.669 231.967 194.339 231.572 194.339 230.626C194.339 229.681 193.669 228.532 192.855 228.053C192.041 227.574 191.37 227.969 191.37 228.915Z" fill="#D4ECFF"/>
<path d="M186.595 226.161C186.595 227.107 187.265 228.256 188.079 228.735C188.893 229.213 189.563 228.819 189.563 227.873C189.563 226.927 188.893 225.778 188.079 225.3C187.265 224.821 186.595 225.216 186.595 226.161Z" fill="#5793CE"/>
<path d="M182.621 208.064V195.389H211.047L220.874 189.704C223.124 188.399 227.074 188.567 229.671 190.063L238.839 195.353H267.289V208.375C267.349 209.261 266.858 210.111 265.781 210.733L229.037 231.954C226.786 233.259 222.837 233.091 220.239 231.595L184.764 211.104C183.256 210.243 182.537 209.118 182.621 208.064Z" fill="#396CAA"/>
<path d="M224.967 188.831C226.619 188.866 228.33 189.285 229.683 190.063L238.851 195.354H267.301V208.376C267.361 209.261 266.87 210.111 265.793 210.734L229.049 231.954C227.959 232.577 226.487 232.864 224.967 232.828V188.831Z" fill="#396CAA"/>
<path d="M264.081 195.342H267.301V208.376C267.361 209.261 266.87 210.111 265.793 210.734L264.081 211.715V195.33V195.342Z" fill="#5793CE"/>
<path d="M228.486 232.23C226.535 233.068 223.722 233.02 221.448 232.146V217.341H228.486V232.23Z" fill="#5793CE"/>
<path d="M229.048 218.968L265.793 197.747C268.043 196.443 267.768 194.168 265.159 192.672L229.683 172.182C227.074 170.674 223.136 170.518 220.886 171.823L184.141 193.043C181.891 194.348 182.166 196.622 184.776 198.118L220.251 218.609C222.861 220.117 226.798 220.273 229.048 218.968Z" fill="#D4ECFF"/>
<path d="M184.764 195.617L220.239 216.108C222.849 217.616 226.786 217.772 229.037 216.467L265.781 195.246C266.284 194.959 266.655 194.612 266.906 194.253C267.684 195.498 267.325 196.85 265.781 197.748L229.037 218.969C226.786 220.273 222.837 220.106 220.239 218.609L184.764 198.119C182.741 196.946 182.13 195.318 183.004 194.037C183.363 194.612 183.95 195.15 184.764 195.629V195.617Z" fill="white"/>
<path d="M196.146 211.416C196.146 212.361 196.816 213.51 197.63 213.989C198.444 214.468 199.114 214.073 199.114 213.127C199.114 212.182 198.444 211.033 197.63 210.554C196.816 210.075 196.146 210.47 196.146 211.416Z" fill="#5793CE"/>
<path d="M191.37 208.663C191.37 209.609 192.041 210.758 192.855 211.237C193.669 211.715 194.339 211.32 194.339 210.375C194.339 209.429 193.669 208.28 192.855 207.802C192.041 207.323 191.37 207.718 191.37 208.663Z" fill="#5793CE"/>
<path d="M186.595 205.898C186.595 206.844 187.265 207.993 188.079 208.472C188.893 208.951 189.563 208.556 189.563 207.61C189.563 206.664 188.893 205.515 188.079 205.037C187.265 204.558 186.595 204.953 186.595 205.898Z" fill="#D4ECFF"/>
<path d="M226.882 205.814L244.081 195.892C245.135 195.282 245.003 194.216 243.782 193.51L227.181 183.923C225.961 183.217 224.117 183.145 223.064 183.756L205.865 193.678C204.812 194.288 204.943 195.353 206.164 196.06L222.765 205.647C223.986 206.353 225.829 206.425 226.882 205.814Z" fill="#5793CE"/>
<path d="M225.23 197.496L227.612 196.119C227.756 196.036 227.744 195.892 227.576 195.796L225.278 194.468C225.111 194.372 224.859 194.36 224.704 194.444L222.322 195.82C222.178 195.904 222.19 196.048 222.358 196.143L224.656 197.472C224.823 197.568 225.075 197.58 225.23 197.496Z" fill="#D4ECFF"/>
<path d="M244.069 195.88L244.022 195.904C243.938 195.844 243.866 195.784 243.77 195.736L227.169 186.149C225.949 185.443 224.105 185.371 223.052 185.982L205.901 195.88C204.931 195.186 204.871 194.24 205.853 193.678L223.052 183.756C224.105 183.145 225.949 183.217 227.169 183.923L243.77 193.51C244.991 194.216 245.123 195.282 244.069 195.892V195.88Z" fill="#396CAA"/>
<path d="M232.316 242.247C232.316 242.93 232.795 243.205 233.381 242.858C233.968 242.523 234.446 241.697 234.446 241.015C234.446 240.332 233.968 240.057 233.381 240.404C232.795 240.739 232.316 241.565 232.316 242.247Z" fill="#D4ECFF"/>
<path d="M235.619 240.357C235.619 241.039 236.098 241.314 236.685 240.967C237.271 240.632 237.75 239.806 237.75 239.124C237.75 238.442 237.271 238.166 236.685 238.514C236.098 238.849 235.619 239.674 235.619 240.357Z" fill="#D4ECFF"/>
<path d="M232.316 246.233C232.316 246.915 232.795 247.191 233.381 246.844C233.968 246.508 234.446 245.683 234.446 245C234.446 244.318 233.968 244.043 233.381 244.39C232.795 244.725 232.316 245.551 232.316 246.233Z" fill="#D4ECFF"/>
<path d="M235.619 244.342C235.619 245.024 236.098 245.3 236.685 244.952C237.271 244.617 237.75 243.791 237.75 243.109C237.75 242.427 237.271 242.152 236.685 242.499C236.098 242.834 235.619 243.66 235.619 244.342Z" fill="#5793CE"/>
<path d="M293.034 318.657L322.382 301.709C324.177 300.668 323.962 298.848 321.879 297.652L293.549 281.29C291.466 280.093 288.318 279.962 286.523 281.003L257.175 297.951C255.38 298.992 255.595 300.811 257.678 302.008L286.008 318.37C288.091 319.567 291.239 319.698 293.034 318.657Z" fill="#B2D3EA"/>
<path d="M247.433 285.048V272.373H275.859L285.685 266.688C287.935 265.383 291.885 265.551 294.482 267.047L303.65 272.337H332.101V285.359C332.16 286.245 331.67 287.095 330.592 287.717L293.848 308.938C291.598 310.243 287.648 310.075 285.051 308.579L249.575 288.088C248.067 287.226 247.349 286.101 247.433 285.048Z" fill="#396CAA"/>
<path d="M289.767 265.815C291.418 265.851 293.13 266.27 294.482 267.047L303.651 272.338H332.101V285.36C332.16 286.246 331.67 287.095 330.592 287.718L293.848 308.939C292.759 309.561 291.287 309.848 289.767 309.812V265.815Z" fill="#396CAA"/>
<path d="M328.893 272.325H332.113V285.36C332.172 286.245 331.682 287.095 330.604 287.717L328.893 288.699V272.313V272.325Z" fill="#5793CE"/>
<path d="M293.285 309.213C291.335 310.051 288.522 310.003 286.248 309.129V294.324H293.285V309.213Z" fill="#5793CE"/>
<path d="M293.848 295.94L330.592 274.719C332.843 273.414 332.567 271.14 329.958 269.644L294.482 249.154C291.873 247.645 287.935 247.49 285.685 248.794L248.941 270.015C246.691 271.32 246.966 273.594 249.575 275.09L285.051 295.581C287.66 297.089 291.598 297.244 293.848 295.94Z" fill="#D4ECFF"/>
<path d="M293.19 292.122L323.986 274.348C325.877 273.259 325.637 271.356 323.459 270.088L293.728 252.924C291.55 251.667 288.247 251.524 286.356 252.613L255.56 270.387C253.669 271.476 253.908 273.379 256.086 274.648L285.817 291.811C287.995 293.068 291.299 293.211 293.19 292.122Z" fill="#5793CE"/>
<path d="M260.946 288.399C260.946 289.345 261.616 290.494 262.43 290.973C263.244 291.452 263.914 291.057 263.914 290.111C263.914 289.165 263.244 288.016 262.43 287.538C261.616 287.059 260.946 287.454 260.946 288.399Z" fill="#D4ECFF"/>
<path d="M256.17 285.635C256.17 286.58 256.84 287.729 257.654 288.208C258.468 288.687 259.138 288.292 259.138 287.346C259.138 286.401 258.468 285.252 257.654 284.773C256.84 284.294 256.17 284.689 256.17 285.635Z" fill="#5793CE"/>
<path d="M251.394 282.882C251.394 283.828 252.065 284.977 252.879 285.456C253.692 285.934 254.363 285.539 254.363 284.594C254.363 283.648 253.692 282.499 252.879 282.021C252.065 281.542 251.394 281.937 251.394 282.882Z" fill="#D4ECFF"/>
<path d="M247.433 264.785V252.11H275.859L285.685 246.425C287.935 245.12 291.885 245.288 294.482 246.784L303.65 252.074H332.101V265.096C332.16 265.982 331.67 266.832 330.592 267.454L293.848 288.675C291.598 289.979 287.648 289.812 285.051 288.316L249.575 267.825C248.067 266.963 247.349 265.838 247.433 264.785Z" fill="#396CAA"/>
<path d="M289.767 245.551C291.418 245.587 293.13 246.006 294.482 246.784L303.651 252.074H332.101V265.096C332.16 265.982 331.67 266.831 330.592 267.454L293.848 288.675C292.759 289.297 291.287 289.584 289.767 289.548V245.551Z" fill="#396CAA"/>
<path d="M328.893 252.062H332.113V265.097C332.172 265.982 331.682 266.832 330.604 267.454L328.893 268.436V252.051V252.062Z" fill="#5793CE"/>
<path d="M293.285 288.95C291.335 289.788 288.522 289.74 286.248 288.866V274.061H293.285V288.95Z" fill="#5793CE"/>
<path d="M293.848 275.677L330.592 254.456C332.843 253.151 332.567 250.877 329.958 249.381L294.482 228.89C291.873 227.382 287.935 227.227 285.685 228.531L248.941 249.752C246.691 251.057 246.966 253.331 249.575 254.827L285.051 275.318C287.66 276.826 291.598 276.981 293.848 275.677Z" fill="#D4ECFF"/>
<path d="M293.19 271.859L323.986 254.085C325.877 252.996 325.637 251.093 323.459 249.824L293.728 232.661C291.55 231.404 288.247 231.26 286.356 232.349L255.56 250.123C253.669 251.212 253.908 253.115 256.086 254.384L285.817 271.547C287.995 272.804 291.299 272.948 293.19 271.859Z" fill="#5793CE"/>
<path d="M260.946 268.137C260.946 269.082 261.616 270.231 262.43 270.71C263.244 271.189 263.914 270.794 263.914 269.848C263.914 268.903 263.244 267.754 262.43 267.275C261.616 266.796 260.946 267.191 260.946 268.137Z" fill="#5793CE"/>
<path d="M256.17 265.371C256.17 266.317 256.84 267.466 257.654 267.945C258.468 268.423 259.138 268.028 259.138 267.083C259.138 266.137 258.468 264.988 257.654 264.51C256.84 264.031 256.17 264.426 256.17 265.371Z" fill="#5793CE"/>
<path d="M251.394 262.618C251.394 263.564 252.065 264.713 252.879 265.192C253.692 265.671 254.363 265.276 254.363 264.33C254.363 263.384 253.692 262.235 252.879 261.757C252.065 261.278 251.394 261.673 251.394 262.618Z" fill="#D4ECFF"/>
<path d="M247.433 244.522V231.847H275.859L285.685 226.162C287.935 224.857 291.885 225.025 294.482 226.521L303.65 231.811H332.101V244.833C332.16 245.719 331.67 246.569 330.592 247.191L293.848 268.412C291.598 269.717 287.648 269.549 285.051 268.053L249.575 247.562C248.067 246.7 247.349 245.575 247.433 244.522Z" fill="#396CAA"/>
<path d="M289.767 225.288C291.418 225.324 293.13 225.742 294.482 226.52L303.651 231.811H332.101V244.833C332.16 245.718 331.67 246.568 330.592 247.191L293.848 268.411C292.759 269.034 291.287 269.321 289.767 269.285V225.288Z" fill="#396CAA"/>
<path d="M328.893 231.799H332.113V244.833C332.172 245.718 331.682 246.568 330.604 247.191L328.893 248.172V231.787V231.799Z" fill="#5793CE"/>
<path d="M293.285 268.687C291.335 269.525 288.522 269.477 286.248 268.603V253.798H293.285V268.687Z" fill="#5793CE"/>
<path d="M293.848 255.426L330.592 234.205C332.843 232.9 332.567 230.626 329.958 229.13L294.482 208.639C291.873 207.131 287.935 206.976 285.685 208.28L248.941 229.501C246.691 230.806 246.966 233.08 249.575 234.576L285.051 255.067C287.66 256.575 291.598 256.73 293.848 255.426Z" fill="#D4ECFF"/>
<path d="M249.575 232.074L285.051 252.565C287.66 254.073 291.598 254.229 293.848 252.924L330.592 231.703C331.095 231.416 331.466 231.069 331.718 230.71C332.496 231.955 332.136 233.307 330.592 234.205L293.848 255.426C291.598 256.73 287.648 256.563 285.051 255.066L249.575 234.576C247.552 233.403 246.942 231.775 247.816 230.494C248.175 231.069 248.761 231.607 249.575 232.086V232.074Z" fill="white"/>
<path d="M260.946 247.873C260.946 248.819 261.616 249.968 262.43 250.447C263.244 250.925 263.914 250.53 263.914 249.585C263.914 248.639 263.244 247.49 262.43 247.012C261.616 246.533 260.946 246.928 260.946 247.873Z" fill="#D4ECFF"/>
<path d="M256.17 245.12C256.17 246.066 256.84 247.215 257.654 247.694C258.468 248.172 259.138 247.777 259.138 246.832C259.138 245.886 258.468 244.737 257.654 244.259C256.84 243.78 256.17 244.175 256.17 245.12Z" fill="#D4ECFF"/>
<path d="M251.394 242.355C251.394 243.301 252.065 244.45 252.879 244.929C253.692 245.407 254.363 245.012 254.363 244.067C254.363 243.121 253.692 241.972 252.879 241.494C252.065 241.015 251.394 241.41 251.394 242.355Z" fill="#5793CE"/>
<path d="M291.682 242.271L308.881 232.349C309.934 231.739 309.803 230.674 308.582 229.967L291.981 220.38C290.76 219.674 288.917 219.602 287.864 220.213L270.664 230.135C269.611 230.745 269.743 231.811 270.964 232.517L287.564 242.104C288.785 242.81 290.628 242.882 291.682 242.271Z" fill="#5793CE"/>
<path d="M290.03 233.954L292.412 232.577C292.555 232.493 292.543 232.35 292.376 232.254L290.078 230.925C289.91 230.83 289.659 230.818 289.503 230.901L287.121 232.278C286.978 232.362 286.99 232.505 287.157 232.601L289.455 233.93C289.623 234.025 289.874 234.037 290.03 233.954Z" fill="#D4ECFF"/>
<path d="M308.869 232.337L308.821 232.361C308.737 232.301 308.666 232.242 308.57 232.194L291.969 222.607C290.748 221.9 288.905 221.829 287.852 222.439L270.7 232.337C269.731 231.643 269.671 230.698 270.652 230.135L287.852 220.213C288.905 219.602 290.748 219.674 291.969 220.38L308.57 229.967C309.791 230.674 309.922 231.739 308.869 232.349V232.337Z" fill="#396CAA"/>
<path d="M296.649 258.729C296.649 259.411 297.127 259.686 297.714 259.339C298.3 259.004 298.779 258.178 298.779 257.496C298.779 256.814 298.3 256.538 297.714 256.885C297.127 257.22 296.649 258.046 296.649 258.729Z" fill="#D4ECFF"/>
<path d="M299.952 256.838C299.952 257.52 300.431 257.795 301.017 257.448C301.604 257.113 302.083 256.287 302.083 255.605C302.083 254.923 301.604 254.648 301.017 254.995C300.431 255.33 299.952 256.156 299.952 256.838Z" fill="#D4ECFF"/>
<path d="M296.649 262.714C296.649 263.397 297.127 263.672 297.714 263.325C298.3 262.99 298.779 262.164 298.779 261.482C298.779 260.799 298.3 260.524 297.714 260.871C297.127 261.206 296.649 262.032 296.649 262.714Z" fill="#D4ECFF"/>
<path d="M299.952 260.823C299.952 261.505 300.431 261.781 301.017 261.433C301.604 261.098 302.083 260.272 302.083 259.59C302.083 258.908 301.604 258.633 301.017 258.98C300.431 259.315 299.952 260.141 299.952 260.823Z" fill="#5793CE"/>
<path d="M296.649 278.992C296.649 279.675 297.127 279.95 297.714 279.603C298.3 279.268 298.779 278.442 298.779 277.76C298.779 277.077 298.3 276.802 297.714 277.149C297.127 277.484 296.649 278.31 296.649 278.992Z" fill="#5793CE"/>
<path d="M299.952 277.101C299.952 277.783 300.431 278.058 301.017 277.711C301.604 277.376 302.083 276.55 302.083 275.868C302.083 275.186 301.604 274.911 301.017 275.258C300.431 275.593 299.952 276.419 299.952 277.101Z" fill="#D4ECFF"/>
<path d="M296.649 282.978C296.649 283.66 297.127 283.935 297.714 283.588C298.3 283.253 298.779 282.427 298.779 281.745C298.779 281.063 298.3 280.787 297.714 281.134C297.127 281.469 296.649 282.295 296.649 282.978Z" fill="#5793CE"/>
<path d="M299.952 281.087C299.952 281.769 300.431 282.044 301.017 281.697C301.604 281.362 302.083 280.536 302.083 279.854C302.083 279.172 301.604 278.897 301.017 279.244C300.431 279.579 299.952 280.405 299.952 281.087Z" fill="#D4ECFF"/>
<path d="M296.649 299.255C296.649 299.938 297.127 300.213 297.714 299.866C298.3 299.531 298.779 298.705 298.779 298.023C298.779 297.34 298.3 297.065 297.714 297.412C297.127 297.747 296.649 298.573 296.649 299.255Z" fill="#D4ECFF"/>
<path d="M299.952 297.364C299.952 298.047 300.431 298.322 301.017 297.975C301.604 297.64 302.083 296.814 302.083 296.131C302.083 295.449 301.604 295.174 301.017 295.521C300.431 295.856 299.952 296.682 299.952 297.364Z" fill="#5793CE"/>
<path d="M296.649 303.241C296.649 303.924 297.127 304.199 297.714 303.852C298.3 303.517 298.779 302.691 298.779 302.009C298.779 301.326 298.3 301.051 297.714 301.398C297.127 301.733 296.649 302.559 296.649 303.241Z" fill="#D4ECFF"/>
<path d="M299.952 301.35C299.952 302.032 300.431 302.307 301.017 301.96C301.604 301.625 302.083 300.799 302.083 300.117C302.083 299.435 301.604 299.16 301.017 299.507C300.431 299.842 299.952 300.668 299.952 301.35Z" fill="#D4ECFF"/>
<path d="M295.595 194.277L297.989 193.319L296.134 191.883L295.595 194.277Z" fill="#5793CE"/>
<path d="M294.411 168.448L296.721 167.502L296.565 168.483L294.411 168.448Z" fill="#5793CE"/>
<path d="M303.088 188.232L305.506 187.263L301.987 183.72L303.088 188.232Z" fill="#5793CE"/>
<path d="M297.355 193.247L288.115 187.921C287.648 187.646 287.361 186.963 287.481 186.401L289.695 175.916L300.622 182.224L298.408 192.708C298.288 193.283 297.81 193.522 297.343 193.247H297.355Z" fill="#5793CE"/>
<path d="M296.697 167.514L284.213 173.809C283.686 174.073 283.854 175.066 284.5 175.437L294.686 181.314L304.871 187.191C305.518 187.562 306.032 186.963 305.709 186.209L298.312 168.447C297.989 167.681 297.223 167.239 296.685 167.514H296.697Z" fill="#5793CE"/>
<path d="M294.937 194.229L285.697 188.902C285.23 188.627 284.943 187.945 285.063 187.382L287.277 176.898L298.205 183.205L295.99 193.69C295.871 194.265 295.392 194.504 294.925 194.229H294.937Z" fill="#D4ECFF"/>
<path d="M294.279 168.496L281.795 174.791C281.269 175.055 281.436 176.048 282.083 176.419L292.268 182.296L302.454 188.173C303.1 188.544 303.615 187.945 303.291 187.191L295.895 169.429C295.572 168.663 294.806 168.22 294.267 168.496H294.279Z" fill="#D4ECFF"/>
<path d="M231.526 157.52L233.908 156.563L232.053 155.126L231.526 157.52Z" fill="#5793CE"/>
<path d="M230.329 131.691L232.651 130.745L232.484 131.727L230.329 131.691Z" fill="#5793CE"/>
<path d="M239.007 151.476L241.424 150.506L237.905 146.964L239.007 151.476Z" fill="#5793CE"/>
<path d="M233.285 156.491L224.045 151.164C223.579 150.889 223.291 150.207 223.411 149.644L225.625 139.16L236.553 145.467L234.339 155.952C234.219 156.527 233.74 156.766 233.273 156.491H233.285Z" fill="#5793CE"/>
<path d="M232.627 130.758L220.144 137.053C219.617 137.317 219.785 138.31 220.431 138.681L230.616 144.558L240.802 150.435C241.448 150.806 241.963 150.207 241.64 149.453L234.243 131.691C233.92 130.925 233.154 130.482 232.615 130.758H232.627Z" fill="#5793CE"/>
<path d="M230.856 157.472L221.616 152.146C221.149 151.871 220.862 151.189 220.981 150.626L223.196 140.141L234.123 146.449L231.909 156.934C231.789 157.508 231.311 157.748 230.844 157.472H230.856Z" fill="#D4ECFF"/>
<path d="M230.198 131.739L217.714 138.035C217.187 138.298 217.355 139.292 218.001 139.663L228.187 145.54L238.372 151.416C239.019 151.787 239.533 151.189 239.21 150.435L231.813 132.673C231.49 131.907 230.724 131.464 230.186 131.739H230.198Z" fill="#D4ECFF"/>
<path d="M9.31177 302.571L78.7193 262.691C84.1891 259.543 93.7403 259.962 100.048 263.624L242.382 346.198C248.689 349.86 249.36 355.366 243.89 358.514L174.482 398.394C169.013 401.542 159.461 401.123 153.154 397.46L10.8199 314.887C4.51225 311.225 3.84199 305.719 9.31177 302.571Z" fill="#0A0B16"/>
<path d="M177.235 385.216L248.306 344.378C251.418 342.595 252.986 340.213 253.058 337.699L253.118 325.467L250.832 329.405C249.743 328.124 248.259 326.903 246.367 325.814L103.256 242.786C95.1526 238.082 82.8725 237.544 75.8229 241.589L4.7636 282.415C4.00956 282.846 3.35127 283.313 2.77677 283.815L0.0478629 280.321L-1.26096e-05 291.823C-0.0957637 294.982 2.16636 298.358 6.69059 300.979L149.803 384.007C157.905 388.711 170.186 389.249 177.235 385.204V385.216Z" fill="#396CAA"/>
<path d="M4.82347 273.331L75.8947 232.493C82.9324 228.448 95.2125 228.986 103.327 233.69L246.439 316.718C254.542 321.422 255.416 328.52 248.378 332.565L177.307 373.403C170.269 377.448 157.989 376.91 149.874 372.206L6.75046 289.166C-1.35248 284.462 -2.2262 277.365 4.8115 273.319L4.82347 273.331Z" fill="#D4ECFF"/>
<path d="M248.366 332.553L177.295 373.391C170.257 377.436 157.977 376.897 149.862 372.194L6.75042 289.166C2.82463 286.891 0.610382 284.043 0.155565 281.266C-0.406973 284.665 1.81924 288.4 6.75042 291.26L149.862 374.288C157.965 378.992 170.245 379.531 177.295 375.485L248.366 334.647C251.993 332.565 253.513 329.668 253.022 326.7C252.651 328.902 251.131 330.961 248.366 332.553Z" fill="white"/>
<path d="M9.31177 274.971L78.7193 235.09C84.1891 231.942 93.7403 232.361 100.048 236.024L242.382 318.597C248.689 322.26 249.36 327.765 243.89 330.913L174.482 370.793C169.013 373.941 159.461 373.522 153.154 369.86L10.8199 287.287C4.51225 283.624 3.84199 278.118 9.31177 274.971Z" fill="#131426"/>
</g>
<defs>
<clipPath id="clip0_141_218">
<rect width="337.654" height="400" fill="white" transform="translate(0 0.5)"/>
</clipPath>
</defs>
</svg>
