<svg width="314" height="345" viewBox="0 0 314 345" fill="none" xmlns="http://www.w3.org/2000/svg">
<g clip-path="url(#clip0_141_576)">
<path d="M252.72 118.25C252.65 118.25 252.57 118.25 252.49 118.22C251.95 118.1 251.62 117.56 251.74 117.02L261.49 74.6799C261.61 74.1399 262.15 73.8099 262.69 73.9299C263.23 74.0499 263.56 74.5899 263.44 75.1299L253.69 117.47C253.58 117.93 253.17 118.25 252.72 118.25Z" fill="#5793CE"/>
<path d="M239.76 115.27C239.69 115.27 239.61 115.27 239.53 115.24C238.99 115.12 238.66 114.58 238.78 114.04L248.53 71.6999C248.65 71.1599 249.19 70.8299 249.73 70.9499C250.27 71.0699 250.6 71.6099 250.48 72.1499L240.73 114.49C240.62 114.95 240.21 115.27 239.76 115.27Z" fill="#5793CE"/>
<path d="M226.8 112.28C226.73 112.28 226.65 112.28 226.57 112.25C226.03 112.13 225.7 111.59 225.82 111.05L235.57 68.7099C235.69 68.1699 236.23 67.8399 236.77 67.9599C237.31 68.0799 237.64 68.6199 237.52 69.1599L227.77 111.5C227.66 111.96 227.25 112.28 226.8 112.28Z" fill="#5793CE"/>
<path d="M236.854 80.0697L231.635 78.8467L228.995 90.1114L234.214 91.3345L236.854 80.0697Z" fill="#5793CE"/>
<path d="M233.19 92.22C232.03 92.57 230.38 92.18 229.5 91.35C228.62 90.52 228.84 89.57 230 89.22C231.16 88.87 232.81 89.26 233.69 90.09C234.57 90.92 234.35 91.87 233.19 92.22Z" fill="#5793CE"/>
<path d="M242.146 64.7436L233.685 62.7607L229.544 80.4319L238.004 82.4148L242.146 64.7436Z" fill="#5793CE"/>
<path d="M231.19 80.6999L230.3 84.5099C231.67 85.5699 233.82 86.0699 235.52 85.7299L236.41 81.9199C235.04 80.8599 232.89 80.3599 231.19 80.6999Z" fill="#396CAA"/>
<path d="M236.36 83.8499C234.48 84.42 231.81 83.7899 230.38 82.4499C228.95 81.1099 229.31 79.56 231.19 79C233.07 78.43 235.74 79.06 237.17 80.4C238.6 81.74 238.24 83.2899 236.36 83.8499Z" fill="#5793CE"/>
<path d="M231.1 89.54C230.97 90.09 230.53 90.23 230.12 89.84C229.71 89.45 229.48 88.69 229.61 88.14C229.74 87.59 230.18 87.45 230.59 87.84C231 88.23 231.23 88.99 231.1 89.54Z" fill="#D4ECFF"/>
<path d="M248.875 87.2238L243.657 86.0007L241.017 97.2655L246.235 98.4886L248.875 87.2238Z" fill="#5793CE"/>
<path d="M245.21 99.3799C244.05 99.7299 242.4 99.3399 241.52 98.5099C240.64 97.6799 240.86 96.7299 242.02 96.3799C243.18 96.0299 244.83 96.4199 245.71 97.2499C246.59 98.0799 246.37 99.0299 245.21 99.3799Z" fill="#5793CE"/>
<path d="M254.165 71.9075L245.704 69.9246L241.563 87.5957L250.023 89.5786L254.165 71.9075Z" fill="#5793CE"/>
<path d="M243.21 87.8601L242.32 91.6701C243.69 92.7301 245.84 93.2301 247.54 92.8901L248.43 89.0801C247.06 88.0201 244.91 87.5201 243.21 87.8601Z" fill="#396CAA"/>
<path d="M248.38 91.0099C246.5 91.5799 243.83 90.9499 242.4 89.6099C240.97 88.2699 241.33 86.7199 243.21 86.1599C245.09 85.5899 247.76 86.2199 249.19 87.5599C250.62 88.8999 250.26 90.4499 248.38 91.0099Z" fill="#5793CE"/>
<path d="M243.12 96.6999C242.99 97.2499 242.55 97.3899 242.14 96.9999C241.73 96.6099 241.5 95.8499 241.63 95.2999C241.76 94.7499 242.2 94.6099 242.61 94.9999C243.02 95.3899 243.25 96.1499 243.12 96.6999Z" fill="#D4ECFF"/>
<path d="M261.022 94.3288L255.804 93.1057L253.164 104.37L258.382 105.594L261.022 94.3288Z" fill="#5793CE"/>
<path d="M257.37 106.48C256.21 106.83 254.56 106.44 253.68 105.61C252.8 104.78 253.02 103.83 254.18 103.48C255.34 103.13 256.99 103.52 257.87 104.35C258.75 105.18 258.53 106.13 257.37 106.48Z" fill="#5793CE"/>
<path d="M266.324 79.0049L257.863 77.022L253.722 94.6932L262.183 96.676L266.324 79.0049Z" fill="#5793CE"/>
<path d="M255.37 94.9599L254.48 98.7699C255.85 99.8299 258 100.33 259.7 99.9899L260.59 96.1799C259.22 95.1199 257.07 94.6199 255.37 94.9599Z" fill="#396CAA"/>
<path d="M260.54 98.11C258.66 98.68 255.99 98.05 254.56 96.71C253.13 95.37 253.49 93.82 255.37 93.26C257.25 92.69 259.92 93.32 261.35 94.66C262.78 96 262.42 97.55 260.54 98.11Z" fill="#5793CE"/>
<path d="M255.27 103.8C255.14 104.35 254.7 104.49 254.29 104.1C253.88 103.71 253.65 102.95 253.78 102.4C253.91 101.85 254.35 101.72 254.76 102.1C255.17 102.49 255.4 103.25 255.27 103.8Z" fill="#D4ECFF"/>
<path opacity="0.5" d="M77.25 344.09L42.27 323.98C39.92 322.62 40.21 320.25 42.93 318.68L76.88 299.08C79.6 297.51 83.71 297.34 86.07 298.7L121.04 318.81C123.39 320.17 123.1 322.54 120.38 324.11L86.43 343.71C83.7099 345.28 79.6 345.45 77.24 344.09H77.25Z" fill="#C4D9E8"/>
<path opacity="0.5" d="M176.93 308.03L60.7899 240.98C57.4999 239.08 57.9199 235.77 61.7099 233.58L140.79 187.94C144.58 185.75 150.32 185.51 153.61 187.41L269.75 254.46C273.04 256.36 272.62 259.67 268.83 261.86L189.75 307.5C185.96 309.69 180.22 309.93 176.93 308.03Z" fill="#C4D9E8"/>
<path d="M296.96 135.67L180.82 68.62C179.47 67.84 178.1 67.72 176.88 68.14L176.67 68.21C176.65 68.21 176.64 68.22 176.62 68.23L172.42 69.84L176.19 71.68C176.17 71.75 176.15 71.81 176.14 71.88L157.22 157.99C156.27 162.3 158.17 167.33 161.45 169.23L274.8 234.67L274.4 239.47L278.99 237.69C280.53 236.97 281.77 235.34 282.28 233.02L301.2 146.91C302.15 142.6 300.25 137.57 296.97 135.67H296.96Z" fill="#173D7A"/>
<path d="M296.96 135.67L180.82 68.62C179.47 67.84 178.1 67.72 176.88 68.14L176.67 68.21C176.65 68.21 176.64 68.22 176.62 68.23L172.42 69.84L176.19 71.68C176.17 71.75 176.15 71.81 176.14 71.88L163.67 128.63L220.5 172.9L300.63 140.3C299.86 138.3 298.58 136.61 296.96 135.67Z" fill="#396CAA"/>
<path d="M292.58 148.9L301.42 145.14C301.58 141.72 300.16 138.18 297.84 136.29L283.85 142.18L292.59 148.91L292.58 148.9Z" fill="#274F89"/>
<path d="M270.37 239.01L154.23 171.96C150.94 170.06 149.05 165.03 150 160.72L168.92 74.6099C169.87 70.2999 173.3 68.3399 176.58 70.2399L292.72 137.29C296.01 139.19 297.9 144.22 296.95 148.53L278.03 234.64C277.08 238.95 273.65 240.91 270.37 239.01Z" fill="#D4ECFF"/>
<path d="M267.85 232.6L158.62 169.57C155.61 167.83 153.88 163.23 154.74 159.29L172.05 80.49C172.92 76.55 176.06 74.76 179.06 76.49L288.29 139.52C291.3 141.26 293.03 145.86 292.17 149.8L274.86 228.6C273.99 232.54 270.85 234.33 267.85 232.6Z" fill="white"/>
<path d="M267.85 232.6L158.62 169.57C155.61 167.83 153.88 163.23 154.74 159.29L172.05 80.49C172.92 76.55 176.06 74.76 179.06 76.49L288.29 139.52C291.3 141.26 293.03 145.86 292.17 149.8L274.86 228.6C273.99 232.54 270.85 234.33 267.85 232.6Z" fill="white"/>
<path d="M271.97 241.93L256.09 239.83L153.61 180.66C150.32 178.76 144.59 179 140.79 181.19L68.1699 223.1L58.5699 221.83V227.28C58.5099 228.54 59.2199 229.75 60.7699 230.65L176.91 297.7C180.2 299.6 185.93 299.36 189.73 297.17L268.81 251.53C270.94 250.3 272.01 248.71 271.95 247.22V241.93H271.97Z" fill="#173D7A"/>
<path d="M194.97 204.54L187.69 200.34H107.64L68.1799 223.11L58.5799 221.84V227.29C58.5199 228.55 59.2299 229.76 60.7799 230.66L176.92 297.71C178.66 298.71 181.08 299.11 183.54 298.95L194.96 204.55L194.97 204.54Z" fill="#396CAA"/>
<path d="M62.8399 222.4L58.5799 221.84V227.29C58.5199 228.55 59.2299 229.76 60.7799 230.66L62.8299 231.84V222.41L62.8399 222.4Z" fill="#5793CE"/>
<path d="M178.1 298.25C181.21 299.43 185.67 299.17 188.99 297.57V285.42H178.1V298.25Z" fill="#274F89"/>
<path d="M176.93 292.27L60.7899 225.22C57.4999 223.32 57.9199 220.01 61.7099 217.82L140.79 172.18C144.58 169.99 150.32 169.75 153.61 171.65L269.75 238.7C273.04 240.6 272.62 243.91 268.83 246.1L189.75 291.74C185.96 293.93 180.22 294.17 176.93 292.27Z" fill="#D4ECFF"/>
<path d="M268.83 244.1L189.75 289.74C185.96 291.93 180.22 292.17 176.93 290.27L60.79 223.22C59.71 222.6 59.04 221.82 58.75 220.99C58.24 222.54 58.89 224.12 60.79 225.21L176.93 292.26C180.22 294.16 185.95 293.92 189.75 291.73L268.83 246.09C271.38 244.62 272.39 242.64 271.79 240.92C271.42 242.05 270.43 243.17 268.83 244.1Z" fill="white"/>
<path d="M110.19 203.01L104.94 199.98C104.52 199.74 104.57 199.31 105.06 199.03L111.26 195.45C111.75 195.17 112.48 195.14 112.91 195.38L118.16 198.41C118.58 198.65 118.53 199.08 118.04 199.36L111.84 202.94C111.35 203.22 110.62 203.25 110.19 203.01Z" fill="#173D7A"/>
<path d="M118.3 207.7L113.05 204.67C112.63 204.43 112.68 204 113.17 203.72L119.37 200.14C119.86 199.86 120.59 199.83 121.02 200.07L126.28 203.1C126.7 203.34 126.65 203.77 126.16 204.05L119.96 207.63C119.47 207.91 118.74 207.94 118.31 207.7H118.3Z" fill="#173D7A"/>
<path d="M126.42 212.38L121.16 209.35C120.74 209.11 120.79 208.68 121.28 208.4L127.48 204.82C127.97 204.54 128.7 204.51 129.13 204.75L134.38 207.78C134.8 208.02 134.75 208.45 134.26 208.73L128.06 212.31C127.57 212.59 126.84 212.62 126.41 212.38H126.42Z" fill="#173D7A"/>
<path d="M137.64 208.51L132.38 205.48C131.96 205.24 132.01 204.81 132.5 204.53L137.71 201.52C138.2 201.24 138.93 201.21 139.36 201.45L144.61 204.48C145.03 204.72 144.98 205.15 144.49 205.43L139.28 208.44C138.79 208.72 138.06 208.75 137.63 208.51H137.64Z" fill="#173D7A"/>
<path d="M145.76 213.2L140.51 210.17C140.09 209.93 140.14 209.5 140.63 209.22L145.84 206.21C146.33 205.93 147.06 205.9 147.49 206.14L152.74 209.17C153.16 209.41 153.11 209.84 152.62 210.12L147.41 213.13C146.92 213.41 146.19 213.44 145.76 213.2Z" fill="#173D7A"/>
<path d="M153.87 217.89L148.61 214.86C148.19 214.62 148.24 214.19 148.73 213.91L153.94 210.9C154.43 210.62 155.16 210.59 155.59 210.83L160.84 213.86C161.26 214.1 161.21 214.53 160.72 214.81L155.51 217.82C155.02 218.1 154.29 218.13 153.86 217.89H153.87Z" fill="#173D7A"/>
<path d="M161.99 222.57L156.73 219.54C156.31 219.3 156.36 218.87 156.85 218.59L162.06 215.58C162.55 215.3 163.28 215.27 163.71 215.51L168.96 218.54C169.38 218.78 169.33 219.21 168.84 219.49L163.63 222.5C163.14 222.78 162.41 222.81 161.98 222.57H161.99Z" fill="#173D7A"/>
<path d="M170.1 227.26L164.85 224.23C164.43 223.99 164.48 223.56 164.97 223.28L170.18 220.27C170.67 219.99 171.4 219.96 171.83 220.2L177.08 223.23C177.5 223.47 177.45 223.9 176.96 224.18L171.75 227.19C171.26 227.47 170.53 227.5 170.1 227.26Z" fill="#173D7A"/>
<path d="M178.22 231.94L172.96 228.91C172.54 228.67 172.59 228.24 173.08 227.96L178.29 224.95C178.78 224.67 179.51 224.64 179.94 224.88L185.2 227.91C185.62 228.15 185.57 228.58 185.08 228.86L179.87 231.87C179.38 232.15 178.65 232.18 178.22 231.94Z" fill="#173D7A"/>
<path d="M186.33 236.63L181.08 233.6C180.66 233.36 180.71 232.93 181.2 232.65L186.41 229.64C186.9 229.36 187.63 229.33 188.06 229.57L193.31 232.6C193.73 232.84 193.68 233.27 193.19 233.55L187.98 236.56C187.49 236.84 186.76 236.87 186.33 236.63Z" fill="#173D7A"/>
<path d="M194.45 241.31L189.2 238.28C188.78 238.04 188.83 237.61 189.32 237.33L194.53 234.32C195.02 234.04 195.75 234.01 196.18 234.25L201.44 237.28C201.86 237.52 201.81 237.95 201.32 238.23L196.11 241.24C195.62 241.52 194.89 241.55 194.46 241.31H194.45Z" fill="#173D7A"/>
<path d="M202.56 246L197.31 242.97C196.89 242.73 196.94 242.3 197.43 242.02L202.64 239.01C203.13 238.73 203.86 238.7 204.29 238.94L209.54 241.97C209.96 242.21 209.91 242.64 209.42 242.92L204.21 245.93C203.72 246.21 202.99 246.24 202.56 246Z" fill="#173D7A"/>
<path d="M210.68 250.68L205.43 247.65C205.01 247.41 205.06 246.98 205.55 246.7L210.76 243.69C211.25 243.41 211.98 243.38 212.41 243.62L217.67 246.65C218.09 246.89 218.04 247.32 217.55 247.6L212.34 250.61C211.85 250.89 211.12 250.92 210.69 250.68H210.68Z" fill="#173D7A"/>
<path d="M149.6 206.3L144.34 203.27C143.92 203.03 143.97 202.6 144.46 202.32L149.67 199.31C150.16 199.03 150.89 199 151.32 199.24L156.57 202.27C156.99 202.51 156.94 202.94 156.45 203.22L151.24 206.23C150.75 206.51 150.02 206.54 149.59 206.3H149.6Z" fill="#396CAA"/>
<path d="M141.36 201.54L136.1 198.51C135.68 198.27 135.73 197.84 136.22 197.56L141.43 194.55C141.92 194.27 142.65 194.24 143.08 194.48L148.33 197.51C148.75 197.75 148.7 198.18 148.21 198.46L143 201.47C142.51 201.75 141.78 201.78 141.35 201.54H141.36Z" fill="#396CAA"/>
<path d="M133.11 196.78L121.79 190.25C121.37 190.01 121.42 189.58 121.91 189.3L127.12 186.29C127.61 186.01 128.34 185.98 128.77 186.22L140.09 192.75C140.51 192.99 140.46 193.42 139.97 193.7L134.76 196.71C134.27 196.99 133.54 197.02 133.11 196.78Z" fill="#173D7A"/>
<path d="M138.88 190.99L129.7 185.69C129.28 185.45 129.33 185.02 129.82 184.74L135.03 181.73C135.52 181.45 136.25 181.42 136.68 181.66L145.86 186.96C146.28 187.2 146.23 187.63 145.74 187.91L140.53 190.92C140.04 191.2 139.31 191.23 138.88 190.99Z" fill="#173D7A"/>
<path d="M157.71 210.98L152.46 207.95C152.04 207.71 152.09 207.28 152.58 207L157.79 203.99C158.28 203.71 159.01 203.68 159.44 203.92L164.69 206.95C165.11 207.19 165.06 207.62 164.57 207.9L159.36 210.91C158.87 211.19 158.14 211.22 157.71 210.98Z" fill="#396CAA"/>
<path d="M165.83 215.67L160.57 212.64C160.15 212.4 160.2 211.97 160.69 211.69L165.9 208.68C166.39 208.4 167.12 208.37 167.55 208.61L172.8 211.64C173.22 211.88 173.17 212.31 172.68 212.59L167.47 215.6C166.98 215.88 166.25 215.91 165.82 215.67H165.83Z" fill="#173D7A"/>
<path d="M173.94 220.35L168.68 217.32C168.26 217.08 168.31 216.65 168.8 216.37L174.01 213.36C174.5 213.08 175.23 213.05 175.66 213.29L180.91 216.32C181.33 216.56 181.28 216.99 180.79 217.27L175.58 220.28C175.09 220.56 174.36 220.59 173.93 220.35H173.94Z" fill="#173D7A"/>
<path d="M182.06 225.04L176.81 222.01C176.39 221.77 176.44 221.34 176.93 221.06L182.14 218.05C182.63 217.77 183.36 217.74 183.79 217.98L189.04 221.01C189.46 221.25 189.41 221.68 188.92 221.96L183.71 224.97C183.22 225.25 182.49 225.28 182.06 225.04Z" fill="#173D7A"/>
<path d="M190.17 229.72L184.91 226.69C184.49 226.45 184.54 226.02 185.03 225.74L190.24 222.73C190.73 222.45 191.46 222.42 191.89 222.66L197.15 225.69C197.57 225.93 197.52 226.36 197.03 226.64L191.82 229.65C191.33 229.93 190.6 229.96 190.17 229.72Z" fill="#173D7A"/>
<path d="M198.29 234.41L193.04 231.38C192.62 231.14 192.67 230.71 193.16 230.43L198.37 227.42C198.86 227.14 199.59 227.11 200.02 227.35L205.27 230.38C205.69 230.62 205.64 231.05 205.15 231.33L199.94 234.34C199.45 234.62 198.72 234.65 198.29 234.41Z" fill="#173D7A"/>
<path d="M206.41 239.09L201.16 236.06C200.74 235.82 200.79 235.39 201.28 235.11L206.49 232.1C206.98 231.82 207.71 231.79 208.14 232.03L213.4 235.06C213.82 235.3 213.77 235.73 213.28 236.01L208.07 239.02C207.58 239.3 206.85 239.33 206.42 239.09H206.41Z" fill="#173D7A"/>
<path d="M214.52 243.78L209.27 240.75C208.85 240.51 208.9 240.08 209.39 239.8L214.6 236.79C215.09 236.51 215.82 236.48 216.25 236.72L221.5 239.75C221.92 239.99 221.87 240.42 221.38 240.7L216.17 243.71C215.68 243.99 214.95 244.02 214.52 243.78Z" fill="#173D7A"/>
<path d="M222.64 248.46L217.39 245.43C216.97 245.19 217.02 244.76 217.51 244.48L222.72 241.47C223.21 241.19 223.94 241.16 224.37 241.4L229.63 244.43C230.05 244.67 230 245.1 229.51 245.38L224.3 248.39C223.81 248.67 223.08 248.7 222.65 248.46H222.64Z" fill="#173D7A"/>
<path d="M237.06 256.79L225.59 250.17C225.17 249.93 225.22 249.5 225.71 249.22L230.92 246.21C231.41 245.93 232.14 245.9 232.57 246.14L244.04 252.76C244.46 253 244.41 253.43 243.92 253.71L238.71 256.72C238.22 257 237.49 257.03 237.06 256.79Z" fill="#173D7A"/>
<path d="M252.86 247.67L243.18 242.08C242.76 241.84 242.81 241.41 243.3 241.13L248.51 238.12C249 237.84 249.73 237.81 250.16 238.05L259.84 243.64C260.26 243.88 260.21 244.31 259.72 244.59L254.51 247.6C254.02 247.88 253.29 247.91 252.86 247.67Z" fill="#173D7A"/>
<path d="M171.93 210.07L166.68 207.04C166.26 206.8 166.31 206.37 166.8 206.09L172.01 203.08C172.5 202.8 173.23 202.77 173.66 203.01L178.92 206.04C179.34 206.28 179.29 206.71 178.8 206.99L173.59 210C173.1 210.28 172.37 210.31 171.94 210.07H171.93Z" fill="#173D7A"/>
<path d="M163.61 205.26L158.36 202.23C157.94 201.99 157.99 201.56 158.48 201.28L163.69 198.27C164.18 197.99 164.91 197.96 165.34 198.2L170.59 201.23C171.01 201.47 170.96 201.9 170.47 202.18L165.26 205.19C164.77 205.47 164.04 205.5 163.61 205.26Z" fill="#173D7A"/>
<path d="M155.29 200.46L150.04 197.43C149.62 197.19 149.67 196.76 150.16 196.48L155.37 193.47C155.86 193.19 156.59 193.16 157.02 193.4L162.27 196.43C162.69 196.67 162.64 197.1 162.15 197.38L156.94 200.39C156.45 200.67 155.72 200.7 155.29 200.46Z" fill="#396CAA"/>
<path d="M146.97 195.66L141.72 192.63C141.3 192.39 141.35 191.96 141.84 191.68L147.05 188.67C147.54 188.39 148.27 188.36 148.7 188.6L153.96 191.63C154.38 191.87 154.33 192.3 153.84 192.58L148.63 195.59C148.14 195.87 147.41 195.9 146.98 195.66H146.97Z" fill="#173D7A"/>
<path d="M180.04 214.75L174.79 211.72C174.37 211.48 174.42 211.05 174.91 210.77L180.12 207.76C180.61 207.48 181.34 207.45 181.77 207.69L187.03 210.72C187.45 210.96 187.4 211.39 186.91 211.67L181.7 214.68C181.21 214.96 180.48 214.99 180.05 214.75H180.04Z" fill="#173D7A"/>
<path d="M188.16 219.44L182.91 216.41C182.49 216.17 182.54 215.74 183.03 215.46L188.24 212.45C188.73 212.17 189.46 212.14 189.89 212.38L195.14 215.41C195.56 215.65 195.51 216.08 195.02 216.36L189.81 219.37C189.32 219.65 188.59 219.68 188.16 219.44Z" fill="#173D7A"/>
<path d="M196.27 224.12L191.02 221.09C190.6 220.85 190.65 220.42 191.14 220.14L196.35 217.13C196.84 216.85 197.57 216.82 198 217.06L203.25 220.09C203.67 220.33 203.62 220.76 203.13 221.04L197.92 224.05C197.43 224.33 196.7 224.36 196.27 224.12Z" fill="#173D7A"/>
<path d="M204.39 228.81L199.14 225.78C198.72 225.54 198.77 225.11 199.26 224.83L204.47 221.82C204.96 221.54 205.69 221.51 206.12 221.75L211.37 224.78C211.79 225.02 211.74 225.45 211.25 225.73L206.04 228.74C205.55 229.02 204.82 229.05 204.39 228.81Z" fill="#173D7A"/>
<path d="M212.5 233.49L207.25 230.46C206.83 230.22 206.88 229.79 207.37 229.51L212.58 226.5C213.07 226.22 213.8 226.19 214.23 226.43L219.48 229.46C219.9 229.7 219.85 230.13 219.36 230.41L214.15 233.42C213.66 233.7 212.93 233.73 212.5 233.49Z" fill="#173D7A"/>
<path d="M220.62 238.18L215.37 235.15C214.95 234.91 215 234.48 215.49 234.2L220.7 231.19C221.19 230.91 221.92 230.88 222.35 231.12L227.6 234.15C228.02 234.39 227.97 234.82 227.48 235.1L222.27 238.11C221.78 238.39 221.05 238.42 220.62 238.18Z" fill="#173D7A"/>
<path d="M228.73 242.86L223.47 239.83C223.05 239.59 223.1 239.16 223.59 238.88L228.8 235.87C229.29 235.59 230.02 235.56 230.45 235.8L235.7 238.83C236.12 239.07 236.07 239.5 235.58 239.78L230.37 242.79C229.88 243.07 229.15 243.1 228.72 242.86H228.73Z" fill="#173D7A"/>
<path d="M236.85 247.55L231.59 244.52C231.17 244.28 231.22 243.85 231.71 243.57L236.92 240.56C237.41 240.28 238.14 240.25 238.57 240.49L243.82 243.52C244.24 243.76 244.19 244.19 243.7 244.47L238.49 247.48C238 247.76 237.27 247.79 236.84 247.55H236.85Z" fill="#173D7A"/>
<path d="M244.96 252.23L239.71 249.2C239.29 248.96 239.34 248.53 239.83 248.25L245.04 245.24C245.53 244.96 246.26 244.93 246.69 245.17L251.94 248.2C252.36 248.44 252.31 248.87 251.82 249.15L246.61 252.16C246.12 252.44 245.39 252.47 244.96 252.23Z" fill="#173D7A"/>
<path d="M167.65 198.48L162.4 195.45C161.98 195.21 162.03 194.78 162.52 194.5L167.73 191.49C168.22 191.21 168.95 191.18 169.38 191.42L174.64 194.45C175.06 194.69 175.01 195.12 174.52 195.4L169.31 198.41C168.82 198.69 168.09 198.72 167.66 198.48H167.65Z" fill="#173D7A"/>
<path d="M159.58 193.81L154.32 190.78C153.9 190.54 153.95 190.11 154.44 189.83L159.65 186.82C160.14 186.54 160.87 186.51 161.3 186.75L166.55 189.78C166.97 190.02 166.92 190.45 166.43 190.73L161.22 193.74C160.73 194.02 160 194.05 159.57 193.81H159.58Z" fill="#173D7A"/>
<path d="M151.5 189.15L146.25 186.12C145.83 185.88 145.88 185.45 146.37 185.17L151.58 182.16C152.07 181.88 152.8 181.85 153.23 182.09L158.48 185.12C158.9 185.36 158.85 185.79 158.36 186.07L153.15 189.08C152.66 189.36 151.93 189.39 151.5 189.15Z" fill="#173D7A"/>
<path d="M143.43 184.49L138.17 181.46C137.75 181.22 137.8 180.79 138.29 180.51L143.5 177.5C143.99 177.22 144.72 177.19 145.15 177.43L150.4 180.46C150.82 180.7 150.77 181.13 150.28 181.41L145.07 184.42C144.58 184.7 143.85 184.73 143.42 184.49H143.43Z" fill="#173D7A"/>
<path d="M151.73 179.7L146.48 176.67C146.06 176.43 146.11 176 146.6 175.72L148.32 174.73C148.81 174.45 149.54 174.42 149.97 174.66L155.22 177.69C155.64 177.93 155.59 178.36 155.1 178.64L153.38 179.63C152.89 179.91 152.16 179.94 151.73 179.7Z" fill="#173D7A"/>
<path d="M162.27 185.78L157.02 182.75C156.6 182.51 156.65 182.08 157.14 181.8L158.86 180.81C159.35 180.53 160.08 180.5 160.51 180.74L165.76 183.77C166.18 184.01 166.13 184.44 165.64 184.72L163.92 185.71C163.43 185.99 162.7 186.02 162.27 185.78Z" fill="#173D7A"/>
<path d="M170.31 190.42L165.06 187.39C164.64 187.15 164.69 186.72 165.18 186.44L166.9 185.45C167.39 185.17 168.12 185.14 168.55 185.38L173.8 188.41C174.22 188.65 174.17 189.08 173.68 189.36L171.96 190.35C171.47 190.63 170.74 190.66 170.31 190.42Z" fill="#173D7A"/>
<path d="M178.35 195.07L173.1 192.04C172.68 191.8 172.73 191.37 173.22 191.09L174.94 190.1C175.43 189.82 176.16 189.79 176.59 190.03L181.84 193.06C182.26 193.3 182.21 193.73 181.72 194.01L180 195C179.51 195.28 178.78 195.31 178.35 195.07Z" fill="#173D7A"/>
<path d="M186.39 199.71L181.13 196.68C180.71 196.44 180.76 196.01 181.25 195.73L182.97 194.74C183.46 194.46 184.19 194.43 184.62 194.67L189.88 197.7C190.3 197.94 190.25 198.37 189.76 198.65L188.04 199.64C187.55 199.92 186.82 199.95 186.39 199.71Z" fill="#173D7A"/>
<path d="M231.29 225.63L226.03 222.6C225.61 222.36 225.66 221.93 226.15 221.65L227.87 220.66C228.36 220.38 229.09 220.35 229.52 220.59L234.77 223.62C235.19 223.86 235.14 224.29 234.65 224.57L232.93 225.56C232.44 225.84 231.71 225.87 231.28 225.63H231.29Z" fill="#173D7A"/>
<path d="M239.33 230.27L234.07 227.24C233.65 227 233.7 226.57 234.19 226.29L235.91 225.3C236.4 225.02 237.13 224.99 237.56 225.23L242.81 228.26C243.23 228.5 243.18 228.93 242.69 229.21L240.97 230.2C240.48 230.48 239.75 230.51 239.32 230.27H239.33Z" fill="#173D7A"/>
<path d="M247.37 234.91L242.12 231.88C241.7 231.64 241.75 231.21 242.24 230.93L243.96 229.94C244.45 229.66 245.18 229.63 245.61 229.87L250.87 232.9C251.29 233.14 251.24 233.57 250.75 233.85L249.03 234.84C248.54 235.12 247.81 235.15 247.38 234.91H247.37Z" fill="#173D7A"/>
<path d="M255.41 239.55L250.16 236.52C249.74 236.28 249.79 235.85 250.28 235.57L252 234.58C252.49 234.3 253.22 234.27 253.65 234.51L258.9 237.54C259.32 237.78 259.27 238.21 258.78 238.49L257.06 239.48C256.57 239.76 255.84 239.79 255.41 239.55Z" fill="#173D7A"/>
<path d="M175.77 203.16L170.52 200.13C170.1 199.89 170.15 199.46 170.64 199.18L175.85 196.17C176.34 195.89 177.07 195.86 177.5 196.1L182.75 199.13C183.17 199.37 183.12 199.8 182.63 200.08L177.42 203.09C176.93 203.37 176.2 203.4 175.77 203.16Z" fill="#173D7A"/>
<path d="M183.88 207.85L178.63 204.82C178.21 204.58 178.26 204.15 178.75 203.87L183.96 200.86C184.45 200.58 185.18 200.55 185.61 200.79L190.87 203.82C191.29 204.06 191.24 204.49 190.75 204.77L185.54 207.78C185.05 208.06 184.32 208.09 183.89 207.85H183.88Z" fill="#173D7A"/>
<path d="M192 212.53L186.75 209.5C186.33 209.26 186.38 208.83 186.87 208.55L192.08 205.54C192.57 205.26 193.3 205.23 193.73 205.47L198.99 208.5C199.41 208.74 199.36 209.17 198.87 209.45L193.66 212.46C193.17 212.74 192.44 212.77 192.01 212.53H192Z" fill="#173D7A"/>
<path d="M200.11 217.22L194.86 214.19C194.44 213.95 194.49 213.52 194.98 213.24L200.19 210.23C200.68 209.95 201.41 209.92 201.84 210.16L207.09 213.19C207.51 213.43 207.46 213.86 206.97 214.14L201.76 217.15C201.27 217.43 200.54 217.46 200.11 217.22Z" fill="#173D7A"/>
<path d="M208.23 221.9L202.98 218.87C202.56 218.63 202.61 218.2 203.1 217.92L208.31 214.91C208.8 214.63 209.53 214.6 209.96 214.84L215.22 217.87C215.64 218.11 215.59 218.54 215.1 218.82L209.89 221.83C209.4 222.11 208.67 222.14 208.24 221.9H208.23Z" fill="#173D7A"/>
<path d="M216.34 226.59L211.09 223.56C210.67 223.32 210.72 222.89 211.21 222.61L216.42 219.6C216.91 219.32 217.64 219.29 218.07 219.53L223.32 222.56C223.74 222.8 223.69 223.23 223.2 223.51L217.99 226.52C217.5 226.8 216.77 226.83 216.34 226.59Z" fill="#173D7A"/>
<path d="M224.46 231.27L219.21 228.24C218.79 228 218.84 227.57 219.33 227.29L224.54 224.28C225.03 224 225.76 223.97 226.19 224.21L231.44 227.24C231.86 227.48 231.81 227.91 231.32 228.19L226.11 231.2C225.62 231.48 224.89 231.51 224.46 231.27Z" fill="#173D7A"/>
<path d="M232.57 235.96L227.32 232.93C226.9 232.69 226.95 232.26 227.44 231.98L232.65 228.97C233.14 228.69 233.87 228.66 234.3 228.9L239.55 231.93C239.97 232.17 239.92 232.6 239.43 232.88L234.22 235.89C233.73 236.17 233 236.2 232.57 235.96Z" fill="#173D7A"/>
<path d="M240.69 240.64L235.43 237.61C235.01 237.37 235.06 236.94 235.55 236.66L240.76 233.65C241.25 233.37 241.98 233.34 242.41 233.58L247.66 236.61C248.08 236.85 248.03 237.28 247.54 237.56L242.33 240.57C241.84 240.85 241.11 240.88 240.68 240.64H240.69Z" fill="#173D7A"/>
<path d="M129.37 203.74L113.89 194.8C113.47 194.56 113.52 194.13 114.01 193.85L119.22 190.84C119.71 190.56 120.44 190.53 120.87 190.77L136.35 199.71C136.77 199.95 136.72 200.38 136.23 200.66L131.02 203.67C130.53 203.95 129.8 203.98 129.37 203.74Z" fill="#173D7A"/>
<path d="M229.07 261.3L213.59 252.36C213.17 252.12 213.22 251.69 213.71 251.41L218.92 248.4C219.41 248.12 220.14 248.09 220.57 248.33L236.05 257.27C236.47 257.51 236.42 257.94 235.93 258.22L230.72 261.23C230.23 261.51 229.5 261.54 229.07 261.3Z" fill="#173D7A"/>
<path d="M196.62 252.91L191.37 249.88C190.95 249.64 191 249.21 191.49 248.93L197.69 245.35C198.18 245.07 198.91 245.04 199.34 245.28L204.59 248.31C205.01 248.55 204.96 248.98 204.47 249.26L198.27 252.84C197.78 253.12 197.05 253.15 196.62 252.91Z" fill="#173D7A"/>
<path d="M137.68 218.89L129.28 214.04C128.86 213.8 128.91 213.37 129.4 213.09L135.6 209.51C136.09 209.23 136.82 209.2 137.25 209.44L145.65 214.29C146.07 214.53 146.02 214.96 145.53 215.24L139.33 218.82C138.84 219.1 138.11 219.13 137.68 218.89Z" fill="#173D7A"/>
<path d="M188.8 248.4L180.4 243.55C179.98 243.31 180.03 242.88 180.52 242.6L186.72 239.02C187.21 238.74 187.94 238.71 188.37 238.95L196.77 243.8C197.19 244.04 197.14 244.47 196.65 244.75L190.45 248.33C189.96 248.61 189.23 248.64 188.8 248.4Z" fill="#173D7A"/>
<path d="M149.39 225.65L140.99 220.8C140.57 220.56 140.62 220.13 141.11 219.85L147.31 216.27C147.8 215.99 148.53 215.96 148.96 216.2L157.36 221.05C157.78 221.29 157.73 221.72 157.24 222L151.04 225.58C150.55 225.86 149.82 225.89 149.39 225.65Z" fill="#173D7A"/>
<path d="M149.01 216.23L185.55 237.33C186 237.59 186 238.02 185.55 238.28L179.22 241.93C178.77 242.19 178.03 242.19 177.58 241.93L141.04 220.83L149.01 216.23Z" fill="#173D7A"/>
<path d="M219.3 261.41L225.15 264.79C225.5 264.99 225.45 265.34 225.05 265.57L222.51 267.03C222.11 267.26 221.51 267.29 221.16 267.09L215.31 263.71C214.96 263.51 215.01 263.16 215.41 262.93L217.95 261.46C218.35 261.23 218.95 261.2 219.3 261.4V261.41Z" fill="#173D7A"/>
<path d="M211.11 256.68L216.96 260.06C217.31 260.26 217.26 260.61 216.86 260.84L214.32 262.31C213.92 262.54 213.32 262.57 212.97 262.37L207.12 258.99C206.77 258.79 206.82 258.44 207.22 258.21L209.76 256.74C210.16 256.51 210.76 256.48 211.11 256.68Z" fill="#173D7A"/>
<path d="M203 252L208.85 255.38C209.2 255.58 209.15 255.93 208.75 256.16L206.21 257.62C205.81 257.85 205.21 257.88 204.86 257.68L199.01 254.3C198.66 254.1 198.71 253.75 199.11 253.52L201.65 252.06C202.05 251.83 202.65 251.8 203 252Z" fill="#173D7A"/>
<path d="M215.59 254.1L221.44 257.48C221.79 257.68 221.74 258.03 221.34 258.26L218.8 259.72C218.4 259.95 217.8 259.98 217.45 259.78L211.6 256.4C211.25 256.2 211.3 255.85 211.7 255.62L214.24 254.16C214.64 253.93 215.24 253.9 215.59 254.1Z" fill="#173D7A"/>
<path d="M204.84 110.48L197.07 106C196.35 105.58 195.93 104.55 196.12 103.7C196.32 102.85 197.06 102.49 197.78 102.91L205.55 107.39C206.27 107.81 206.69 108.84 206.5 109.69C206.3 110.54 205.56 110.9 204.84 110.48Z" fill="#D4ECFF"/>
<path d="M223.34 121.16L211.89 114.55C211.17 114.13 210.75 113.1 210.94 112.25C211.14 111.4 211.88 111.04 212.6 111.46L224.05 118.07C224.77 118.49 225.19 119.52 225 120.37C224.8 121.22 224.06 121.58 223.34 121.16Z" fill="#D4ECFF"/>
<path d="M191.31 146.73L183.54 142.25C182.82 141.83 182.4 140.8 182.59 139.95C182.79 139.1 183.53 138.74 184.25 139.16L192.02 143.64C192.74 144.06 193.16 145.09 192.97 145.94C192.77 146.79 192.03 147.15 191.31 146.73Z" fill="#D4ECFF"/>
<path d="M207.8 156.25L196.35 149.64C195.63 149.22 195.21 148.19 195.4 147.34C195.6 146.49 196.34 146.13 197.06 146.55L208.51 153.16C209.23 153.58 209.65 154.61 209.46 155.46C209.26 156.31 208.52 156.67 207.8 156.25Z" fill="#D4ECFF"/>
<path d="M181.93 104.59L177.08 101.79C176.36 101.37 175.94 100.34 176.13 99.4899C176.33 98.6399 177.07 98.2799 177.79 98.6999L182.64 101.5C183.36 101.92 183.78 102.95 183.59 103.8C183.39 104.65 182.65 105.01 181.93 104.59Z" fill="#D4ECFF"/>
<path d="M196.89 120.57L182.07 112.01C181.35 111.59 180.93 110.56 181.12 109.71C181.32 108.86 182.06 108.5 182.78 108.92L197.6 117.48C198.32 117.9 198.74 118.93 198.55 119.78C198.35 120.63 197.61 120.99 196.89 120.57Z" fill="#D4ECFF"/>
<path d="M183.92 127.77L179.07 124.97C178.35 124.55 177.93 123.52 178.12 122.67C178.32 121.82 179.06 121.46 179.78 121.88L184.63 124.68C185.35 125.1 185.77 126.13 185.58 126.98C185.38 127.83 184.64 128.19 183.92 127.77Z" fill="#D4ECFF"/>
<path d="M210.29 172.38L197.33 164.9C196.61 164.48 196.19 163.45 196.38 162.6C196.58 161.75 197.32 161.39 198.04 161.81L211 169.29C211.72 169.71 212.14 170.74 211.95 171.59C211.75 172.44 211.01 172.8 210.29 172.38Z" fill="#D4ECFF"/>
<path d="M179.19 139.73L176.08 137.93C175.36 137.51 174.94 136.48 175.13 135.63C175.33 134.78 176.07 134.42 176.79 134.84L179.9 136.64C180.62 137.06 181.04 138.09 180.85 138.94C180.65 139.79 179.91 140.15 179.19 139.73Z" fill="#D4ECFF"/>
<path d="M176.96 153.13L173.09 150.9C172.37 150.48 171.95 149.45 172.14 148.6C172.34 147.75 173.08 147.39 173.8 147.81L177.67 150.04C178.39 150.46 178.81 151.49 178.62 152.34C178.42 153.19 177.68 153.55 176.96 153.13Z" fill="#D4ECFF"/>
<path d="M192 161.81L181.8 155.92C181.08 155.5 180.66 154.47 180.85 153.62C181.05 152.77 181.79 152.41 182.51 152.83L192.71 158.72C193.43 159.14 193.85 160.17 193.66 161.02C193.46 161.87 192.72 162.23 192 161.81Z" fill="#D4ECFF"/>
<path d="M178.92 161.61L171.59 157.38C170.87 156.96 170.45 155.93 170.64 155.08C170.84 154.23 171.58 153.87 172.3 154.29L179.63 158.52C180.35 158.94 180.77 159.97 180.58 160.82C180.38 161.67 179.64 162.03 178.92 161.61Z" fill="#D4ECFF"/>
<path d="M221.41 178.83L216.7 176.11C215.98 175.69 215.56 174.66 215.75 173.81C215.95 172.96 216.69 172.6 217.41 173.02L222.12 175.74C222.84 176.16 223.26 177.19 223.07 178.04C222.87 178.89 222.13 179.25 221.41 178.83Z" fill="#D4ECFF"/>
<path d="M201.97 138.19L189.01 130.71C188.29 130.29 187.87 129.26 188.06 128.41C188.26 127.56 189 127.2 189.72 127.62L202.68 135.1C203.4 135.52 203.82 136.55 203.63 137.4C203.43 138.25 202.69 138.61 201.97 138.19Z" fill="#D4ECFF"/>
<path d="M203.15 131.53L180.57 118.49C179.85 118.07 179.43 117.04 179.62 116.19C179.82 115.34 180.56 114.98 181.28 115.4L203.86 128.44C204.58 128.86 205 129.89 204.81 130.74C204.61 131.59 203.87 131.95 203.15 131.53Z" fill="#D4ECFF"/>
<path d="M190.53 138.94L177.57 131.46C176.85 131.04 176.43 130.01 176.62 129.16C176.82 128.31 177.56 127.95 178.28 128.37L191.24 135.85C191.96 136.27 192.38 137.3 192.19 138.15C191.99 139 191.25 139.36 190.53 138.94Z" fill="#D4ECFF"/>
<path d="M211.8 143.87L207.09 141.15C206.37 140.73 205.95 139.7 206.14 138.85C206.34 138 207.08 137.64 207.8 138.06L212.51 140.78C213.23 141.2 213.65 142.23 213.46 143.08C213.26 143.93 212.52 144.29 211.8 143.87Z" fill="#D4ECFF"/>
<path d="M258.27 141.32L230.39 125.22C229.67 124.8 229.25 123.77 229.44 122.92C229.64 122.07 230.38 121.71 231.1 122.13L258.98 138.23C259.7 138.65 260.12 139.68 259.93 140.53C259.73 141.38 258.99 141.74 258.27 141.32Z" fill="#D4ECFF"/>
<path d="M190.16 153.41L174.58 144.42C173.86 144 173.44 142.97 173.63 142.12C173.83 141.27 174.57 140.91 175.29 141.33L190.87 150.32C191.59 150.74 192.01 151.77 191.82 152.62C191.62 153.47 190.88 153.83 190.16 153.41Z" fill="#D4ECFF"/>
<path d="M190.03 101.92L178.58 95.3099C177.86 94.8899 177.44 93.8599 177.63 93.0099C177.83 92.1599 178.57 91.7999 179.29 92.2199L190.74 98.8299C191.46 99.2499 191.88 100.28 191.69 101.13C191.49 101.98 190.75 102.34 190.03 101.92Z" fill="#D4ECFF"/>
<path d="M176.88 167.77L163.62 160.11C162.9 159.69 162.48 158.66 162.67 157.81C162.87 156.96 163.61 156.6 164.33 157.02L177.59 164.68C178.31 165.1 178.73 166.13 178.54 166.98C178.34 167.83 177.6 168.19 176.88 167.77Z" fill="#D4ECFF"/>
<path d="M266.63 195.73L258.86 191.25C258.14 190.83 257.72 189.8 257.91 188.95C258.11 188.1 258.85 187.74 259.57 188.16L267.34 192.64C268.06 193.06 268.48 194.09 268.29 194.94C268.09 195.79 267.35 196.15 266.63 195.73Z" fill="#D4ECFF"/>
<path d="M272.21 169.57L257.39 161.01C256.67 160.59 256.25 159.56 256.44 158.71C256.64 157.86 257.38 157.5 258.1 157.92L272.92 166.48C273.64 166.9 274.06 167.93 273.87 168.78C273.67 169.63 272.93 169.99 272.21 169.57Z" fill="#D4ECFF"/>
<path d="M259.25 176.78L254.4 173.98C253.68 173.56 253.26 172.53 253.45 171.68C253.65 170.83 254.39 170.47 255.11 170.89L259.96 173.69C260.68 174.11 261.1 175.14 260.91 175.99C260.71 176.84 259.97 177.2 259.25 176.78Z" fill="#D4ECFF"/>
<path d="M254.52 188.73L251.41 186.93C250.69 186.51 250.27 185.48 250.46 184.63C250.66 183.78 251.4 183.42 252.12 183.84L255.23 185.64C255.95 186.06 256.37 187.09 256.18 187.94C255.98 188.79 255.24 189.15 254.52 188.73Z" fill="#D4ECFF"/>
<path d="M277.3 187.19L264.34 179.71C263.62 179.29 263.2 178.26 263.39 177.41C263.59 176.56 264.33 176.2 265.05 176.62L278.01 184.1C278.73 184.52 279.15 185.55 278.96 186.4C278.76 187.25 278.02 187.61 277.3 187.19Z" fill="#D4ECFF"/>
<path d="M278.48 180.53L255.9 167.49C255.18 167.07 254.76 166.04 254.95 165.19C255.15 164.34 255.89 163.98 256.61 164.4L279.19 177.44C279.91 177.86 280.33 178.89 280.14 179.74C279.94 180.59 279.2 180.95 278.48 180.53Z" fill="#D4ECFF"/>
<path d="M265.86 187.94L252.9 180.46C252.18 180.04 251.76 179.01 251.95 178.16C252.15 177.31 252.89 176.95 253.61 177.37L266.57 184.85C267.29 185.27 267.71 186.3 267.52 187.15C267.32 188 266.58 188.36 265.86 187.94Z" fill="#D4ECFF"/>
<path d="M265.49 202.41L249.91 193.42C249.19 193 248.77 191.97 248.96 191.12C249.16 190.27 249.9 189.91 250.62 190.33L266.2 199.32C266.92 199.74 267.34 200.77 267.15 201.62C266.95 202.47 266.21 202.83 265.49 202.41Z" fill="#D4ECFF"/>
<path d="M116.02 308.24L110.65 305.14L130.45 293.71C131.39 293.17 131.39 292.29 130.45 291.75L110.22 280.07C109.28 279.53 107.76 279.53 106.83 280.07L87.0299 291.5L81.6599 288.4L101.46 276.97C105.36 274.72 111.7 274.72 115.59 276.97L135.82 288.65C139.72 290.9 139.72 294.56 135.82 296.81L116.02 308.24Z" fill="#396CAA"/>
<path d="M124.68 309.6C124.68 306.73 122.93 303.39 120.78 302.15L84.91 281.44C83.95 280.88 83.07 280.84 82.38 281.22L39.55 306.11L80.97 337.32L123.17 312.83C123.3 312.77 123.43 312.7 123.54 312.61C124.24 312.08 124.68 311.03 124.68 309.6Z" fill="#D4ECFF"/>
<path d="M80.97 337.33L123.17 312.84C123.3 312.78 123.43 312.71 123.54 312.62C124.24 312.09 124.68 311.04 124.68 309.6C124.68 308.16 124.28 306.76 123.63 305.45L75.53 333.22L80.97 337.32V337.33Z" fill="#173D7A"/>
<path d="M78.2699 337.22L42.3999 316.51C40.2499 315.27 38.4999 311.93 38.4999 309.06C38.4999 306.19 40.2499 304.87 42.3999 306.11L78.2699 326.82C80.4199 328.06 82.1699 331.4 82.1699 334.27C82.1699 337.14 80.4199 338.46 78.2699 337.22Z" fill="#5793CE"/>
<path d="M73.5 330.87L67.98 327.69C67.43 327.37 66.99 326.52 66.99 325.79C66.99 325.06 67.44 324.72 67.98 325.04L73.5 328.22C74.05 328.54 74.49 329.39 74.49 330.12C74.49 330.85 74.04 331.19 73.5 330.87Z" fill="#173D7A"/>
<path d="M294.72 104.9L306.95 100.03L304.2 82.03L298.26 87.29L294.72 104.9Z" fill="#5793CE"/>
<path d="M212.81 20.9599L242.38 9.13989C242.38 9.13989 236.93 20.9299 236.92 20.9599C236.92 20.9799 221.13 24.6099 221.13 24.6099L212.81 20.9599Z" fill="#5793CE"/>
<path d="M305.53 69.95C303.97 69.05 302.35 68.52 300.74 68.3C302.37 57.42 297.67 45.93 288.65 40.72C285.94 39.15 282.98 38.24 280.2 38.06C283.74 24.87 278.27 9.87996 267.15 3.44996C261.34 0.0899634 255.05 -0.310037 249.51 1.74996L249.24 1.84996C249.1 1.90996 248.96 1.95996 248.81 2.01996L239.55 5.65996L243.24 8.83996C238.23 10.42 233.9 14.47 231.61 20.46C227.39 31.5 231.72 44.93 241.28 50.45L298.09 98.34C305.27 102.49 309.62 100.76 312.79 92.46C315.96 84.17 312.71 74.08 305.53 69.94V69.95Z" fill="#5793CE"/>
<path d="M234.2 15.6001L266.07 2.87008C260.56 0.0600808 254.7 -0.179919 249.51 1.75008L249.24 1.85008C249.1 1.91008 248.96 1.96008 248.81 2.02008L239.55 5.66008L243.24 8.84008C239.74 9.94008 236.57 12.2601 234.2 15.6001Z" fill="#5793CE"/>
<path d="M278.56 63.3798L299.6 54.9898C297.66 48.9698 293.82 43.7198 288.52 40.6598C287.82 40.2498 287.11 39.8998 286.4 39.5898L257.41 51.1698L278.56 63.3898V63.3798Z" fill="#5793CE"/>
<path d="M246.01 7.00003L255.04 12.22L270.71 5.98003C269.59 5.04003 268.4 4.19003 267.14 3.46003C265.14 2.30003 263.08 1.51003 261.01 1.03003L246.01 7.00003Z" fill="#D4ECFF"/>
<path d="M298.21 51.48L283.06 57.51L287.53 63.79L300.53 58.62C300.06 56.13 299.28 53.73 298.21 51.48Z" fill="#D4ECFF"/>
<path d="M295.4 73.93C293.84 73.03 292.22 72.5 290.61 72.28C292.24 61.4 287.42 49.84 278.4 44.63C275.69 43.06 272.86 42.22 270.07 42.04C273.61 28.85 268.14 13.86 257.02 7.43004C245.05 0.52004 231.07 6.12004 225.78 19.95C225.6 20.42 225.44 20.89 225.28 21.37C216.15 17.31 206.05 21.88 202.09 32.26C197.87 43.3 202.2 56.73 211.76 62.25L283.94 103.95C291.12 108.1 299.5 104.74 302.67 96.44C305.84 88.15 302.59 78.06 295.41 73.92L295.4 73.93Z" fill="#D4ECFF"/>
<path d="M296.89 73.0999C295.33 72.1999 293.71 71.6699 292.1 71.4499C293.73 60.5699 288.91 49.0099 279.89 43.7999C277.18 42.2299 274.35 41.3899 271.56 41.2099C275.1 28.0199 269.63 13.0299 258.51 6.5999C251.36 2.4699 243.49 2.8099 237.19 6.6999C243.22 3.6199 250.42 3.6199 257.02 7.4399C268.15 13.8699 273.61 28.8599 270.07 42.0499C272.86 42.2299 275.69 43.0699 278.4 44.6399C287.42 49.8499 292.24 61.4099 290.61 72.2899C292.22 72.5099 293.84 73.0299 295.4 73.9399C302.58 78.0899 305.83 88.1699 302.66 96.4599C301.44 99.6599 299.43 102.12 297.02 103.7C300.09 102.23 302.68 99.4699 304.15 95.6199C307.32 87.3299 304.07 77.2399 296.89 73.0999Z" fill="white"/>
<path d="M225.28 21.38C225.42 20.96 225.56 20.55 225.72 20.14C220.77 18.31 215.63 18.94 211.39 21.6C215.63 19.5 220.58 19.29 225.29 21.38H225.28Z" fill="white"/>
<path d="M217.12 23.5399C215.78 23.5399 214.49 23.7999 213.31 24.3099C210.44 25.5599 207.97 28.4599 206.51 32.2699C202.8 41.9699 206.77 54.2699 215.16 59.1199L287.34 100.82C289.61 102.13 291.96 102.46 293.78 101.73C295.61 101 297.23 99.0799 298.23 96.4599C300.9 89.4599 298.05 80.5799 291.98 77.0799C290.87 76.4399 289.71 76.0299 288.55 75.8799L285.62 75.4799L286 72.9699C287.5 62.9299 282.87 52.3399 274.98 47.7899C272.81 46.5299 270.57 45.8199 268.34 45.6799L264.71 45.4499L265.53 42.3999C268.77 30.3099 263.53 16.3399 253.6 10.5999C248.98 7.92985 244.12 7.38985 239.9 9.07985C235.69 10.7699 232.24 14.6399 230.2 19.9799C230.04 20.3899 229.9 20.8099 229.76 21.2299L227.81 27.2099L222.15 24.6899C220.45 23.9399 218.74 23.5599 217.11 23.5599L217.12 23.5399Z" fill="#396CAA"/>
<path d="M252.49 69.9199L254.97 68.9199L253.04 67.4299L252.49 69.9199Z" fill="#5793CE"/>
<path d="M251.24 42.98L253.66 42L253.49 43.01L251.24 42.98Z" fill="#5793CE"/>
<path d="M260.3 63.6199L262.82 62.6099L259.14 58.9099L260.3 63.6199Z" fill="#5793CE"/>
<path d="M254.32 68.86L244.69 63.3C244.2 63.02 243.91 62.31 244.03 61.71L246.34 50.78L257.74 57.36L255.43 68.29C255.3 68.88 254.81 69.14 254.32 68.86Z" fill="#5793CE"/>
<path d="M253.63 42.0099L240.61 48.5699C240.06 48.8499 240.24 49.8899 240.91 50.2699L251.54 56.3999L262.17 62.5299C262.84 62.9199 263.37 62.2899 263.05 61.5099L255.33 42.9799C255 42.1799 254.2 41.7199 253.63 41.9999V42.0099Z" fill="#5793CE"/>
<path d="M251.8 69.88L242.17 64.32C241.68 64.04 241.39 63.33 241.51 62.73L243.82 51.8L255.22 58.3801L252.91 69.31C252.78 69.9 252.29 70.16 251.8 69.88Z" fill="#D4ECFF"/>
<path d="M251.11 43.0299L238.09 49.5899C237.54 49.8699 237.72 50.9099 238.39 51.2899L249.02 57.4199L259.65 63.5499C260.32 63.9399 260.85 63.3099 260.53 62.5299L252.81 43.9999C252.48 43.1999 251.68 42.7399 251.11 43.0199V43.0299Z" fill="#D4ECFF"/>
<path d="M30.9999 280.54L39.6899 285.48L48.5599 280.28L48.5399 278.01L48.4599 278.06L48.4499 277.9L52.3999 277.87L52.3699 275.64L56.2399 275.62L56.2199 273.39L60.0899 273.36L60.0599 271.13L63.9299 271.11L63.9099 268.88L68.0399 268.85L69.3299 268.09L70.7399 262.24L70.7199 259.98L70.0399 262.15L63.7799 261.31L30.9999 280.54Z" fill="#396CAA"/>
<path d="M39.67 283.22L48.54 278.01L48.43 275.64L52.3699 275.61L52.27 273.38L56.22 273.35L56.1199 271.13L60.06 271.1L59.9599 268.87L63.91 268.84L63.81 266.61L68.02 266.58L69.2999 265.83L70.7199 259.98L63.75 259.05L30.9799 278.28L39.67 283.22Z" fill="#D4ECFF"/>
<path d="M45.57 279.75C44.6799 278.48 43.34 277.3 41.54 276.28C40.28 275.56 38.87 274.98 37.38 274.52L30.9799 278.28L39.67 283.22L45.57 279.76V279.75Z" fill="#396CAA"/>
<path d="M70.48 260.96L70.72 259.98L69.55 259.83L41.86 276.07L43.32 276.9L70.48 260.96Z" fill="#5793CE"/>
<path d="M9.99996 287.68L9.89996 284.47L10.93 286.64L9.99996 287.68Z" fill="#D3D0CF"/>
<path d="M15.35 294.92C22.45 298.95 33.92 298.87 40.96 294.74C44.49 292.67 46.24 289.97 46.21 287.29L46.11 283.88L45.53 284.52C44.71 282.84 43.16 281.26 40.85 279.95C33.75 275.92 22.28 276 15.24 280.13C8.19997 284.26 8.23997 290.88 15.34 294.92H15.35ZM25.61 288.9C27.46 289.95 27.47 291.67 25.64 292.75C23.81 293.83 20.82 293.85 18.97 292.8C17.12 291.75 17.11 290.03 18.94 288.95C20.77 287.87 23.76 287.85 25.61 288.9Z" fill="#396CAA"/>
<path d="M15.2599 291.71C22.3599 295.74 33.8299 295.66 40.8699 291.53C47.9099 287.4 47.8699 280.78 40.7699 276.75C33.6699 272.72 22.1999 272.8 15.1599 276.93C8.11995 281.06 8.15995 287.68 15.2599 291.71ZM25.5199 285.69C27.3699 286.74 27.3799 288.46 25.5499 289.54C23.7199 290.62 20.7299 290.64 18.8799 289.59C17.0299 288.54 17.0199 286.82 18.8499 285.74C20.6799 284.66 23.6699 284.64 25.5199 285.69Z" fill="#F2F2F2"/>
<path d="M15.2599 291.71C16.8499 292.62 18.6699 293.31 20.5999 293.81C21.9699 294.16 23.3899 294.4 24.8499 294.54C30.4999 295.09 36.5299 294.08 40.8699 291.53C47.9099 287.4 47.8699 280.78 40.7699 276.75C33.6699 272.72 22.1999 272.8 15.1599 276.93C8.11995 281.06 8.15995 287.68 15.2599 291.71ZM25.5199 285.69C27.3699 286.74 27.3799 288.46 25.5499 289.54C23.7199 290.62 20.7299 290.64 18.8799 289.59C17.0299 288.54 17.0199 286.82 18.8499 285.74C20.6799 284.66 23.6699 284.64 25.5199 285.69Z" fill="#D4ECFF"/>
<path d="M11.9 284.38C12.25 282.32 13.77 280.31 16.49 278.71C22.76 275.03 32.96 274.96 39.27 278.55C42.41 280.33 44 282.68 44.03 285.05C44.48 282.36 42.92 279.6 39.34 277.57C33.02 273.98 22.82 274.05 16.56 277.73C13.41 279.58 11.86 281.99 11.89 284.38H11.9Z" fill="#396CAA"/>
<path d="M7.62995 313.64C6.34995 313.64 5.14995 313.34 4.07995 312.72C1.52995 311.28 0.119951 308.38 0.0899515 304.56C0.0399515 297.58 4.89995 289.03 10.92 285.5C14.22 283.56 17.4399 283.29 19.9799 284.74C21.0599 285.35 21.95 286.24 22.61 287.37C23.49 288.87 23.95 290.74 23.96 292.91C24.01 299.89 19.15 308.44 13.13 311.97C11.23 313.08 9.35995 313.65 7.62995 313.65V313.64ZM16.42 286.38C15.14 286.38 13.71 286.82 12.22 287.7C6.89995 290.82 2.61995 298.37 2.65995 304.53C2.67995 307.4 3.63995 309.52 5.34995 310.49C7.06995 311.46 9.36995 311.2 11.85 309.75C17.17 306.63 21.45 299.08 21.41 292.92C21.4 291.23 21.0499 289.76 20.41 288.66C19.9799 287.92 19.41 287.35 18.7199 286.96C18.0399 286.57 17.27 286.38 16.42 286.38Z" fill="#396CAA"/>
<path d="M17.5699 296C17.5699 296 20.5899 297.2 22.9799 297.5C25.3699 297.79 23.0299 294.36 23.0299 294.36C23.0299 294.36 19.5899 293.8 16.8399 292.51C14.0899 291.22 17.5699 296 17.5699 296Z" fill="#396CAA"/>
<path d="M19.76 292.05L24.81 293.29L25.54 289.54C23.71 290.62 20.72 290.64 18.87 289.59L19.76 292.06V292.05Z" fill="#D4ECFF"/>
<path d="M15.2599 291.71C16.8499 292.62 18.6699 293.31 20.5999 293.81C21.9699 294.16 23.3899 294.4 24.8499 294.54C30.4999 295.09 36.5299 294.08 40.8699 291.53L20.2799 291.07L15.2599 291.71Z" fill="#D4ECFF"/>
</g>
<defs>
<clipPath id="clip0_141_576">
<rect width="313.91" height="344.51" fill="white" transform="translate(0.0899658 0.5)"/>
</clipPath>
</defs>
</svg>
